G04*
G04 #@! TF.GenerationSoftware,Altium Limited,Altium Designer,23.7.1 (13)*
G04*
G04 Layer_Color=16711935*
%FSLAX25Y25*%
%MOIN*%
G70*
G04*
G04 #@! TF.SameCoordinates,2AD03240-4C21-4CDD-82D0-605F0999EC7E*
G04*
G04*
G04 #@! TF.FilePolarity,Positive*
G04*
G01*
G75*
%ADD10C,0.00787*%
G36*
X60304Y65509D02*
X60336Y65505D01*
X60376Y65501D01*
X60417Y65498D01*
X60464Y65487D01*
X60562Y65465D01*
X60671Y65432D01*
X60726Y65410D01*
X60777Y65385D01*
X60828Y65352D01*
X60879Y65319D01*
X60882Y65316D01*
X60890Y65312D01*
X60904Y65301D01*
X60922Y65283D01*
X60941Y65265D01*
X60966Y65239D01*
X60992Y65210D01*
X61021Y65181D01*
X61050Y65145D01*
X61079Y65101D01*
X61112Y65057D01*
X61141Y65010D01*
X61166Y64955D01*
X61195Y64901D01*
X61217Y64842D01*
X61239Y64777D01*
X60912Y64701D01*
Y64704D01*
X60908Y64711D01*
X60901Y64726D01*
X60893Y64744D01*
X60886Y64766D01*
X60875Y64795D01*
X60846Y64853D01*
X60810Y64919D01*
X60766Y64985D01*
X60711Y65046D01*
X60653Y65101D01*
X60646Y65108D01*
X60624Y65123D01*
X60588Y65141D01*
X60540Y65166D01*
X60478Y65188D01*
X60409Y65210D01*
X60325Y65225D01*
X60234Y65228D01*
X60205D01*
X60187Y65225D01*
X60162D01*
X60133Y65221D01*
X60063Y65210D01*
X59987Y65196D01*
X59907Y65170D01*
X59823Y65134D01*
X59747Y65086D01*
X59743D01*
X59739Y65079D01*
X59714Y65061D01*
X59681Y65032D01*
X59641Y64988D01*
X59594Y64934D01*
X59550Y64872D01*
X59510Y64795D01*
X59474Y64711D01*
Y64708D01*
X59470Y64701D01*
X59466Y64690D01*
X59463Y64671D01*
X59456Y64650D01*
X59448Y64624D01*
X59437Y64562D01*
X59423Y64489D01*
X59408Y64409D01*
X59401Y64322D01*
X59397Y64227D01*
Y64224D01*
Y64213D01*
Y64195D01*
Y64173D01*
X59401Y64147D01*
Y64114D01*
X59405Y64078D01*
X59408Y64038D01*
X59419Y63951D01*
X59437Y63856D01*
X59459Y63762D01*
X59488Y63667D01*
Y63663D01*
X59492Y63656D01*
X59499Y63645D01*
X59506Y63627D01*
X59528Y63583D01*
X59561Y63532D01*
X59601Y63474D01*
X59652Y63412D01*
X59710Y63357D01*
X59780Y63306D01*
X59783D01*
X59790Y63303D01*
X59801Y63296D01*
X59816Y63288D01*
X59834Y63281D01*
X59856Y63270D01*
X59907Y63248D01*
X59972Y63226D01*
X60045Y63208D01*
X60125Y63194D01*
X60209Y63190D01*
X60234D01*
X60256Y63194D01*
X60282D01*
X60307Y63197D01*
X60373Y63212D01*
X60449Y63230D01*
X60526Y63259D01*
X60606Y63299D01*
X60646Y63321D01*
X60682Y63350D01*
X60686Y63354D01*
X60690Y63357D01*
X60700Y63368D01*
X60715Y63379D01*
X60729Y63398D01*
X60748Y63419D01*
X60770Y63441D01*
X60788Y63470D01*
X60810Y63503D01*
X60835Y63539D01*
X60857Y63576D01*
X60879Y63620D01*
X60897Y63667D01*
X60915Y63718D01*
X60933Y63772D01*
X60948Y63831D01*
X61283Y63747D01*
Y63743D01*
X61279Y63729D01*
X61272Y63707D01*
X61261Y63678D01*
X61250Y63645D01*
X61235Y63605D01*
X61217Y63561D01*
X61195Y63514D01*
X61145Y63412D01*
X61079Y63310D01*
X61039Y63259D01*
X60999Y63208D01*
X60955Y63165D01*
X60904Y63121D01*
X60901Y63117D01*
X60893Y63110D01*
X60875Y63103D01*
X60857Y63088D01*
X60828Y63070D01*
X60799Y63052D01*
X60759Y63033D01*
X60719Y63015D01*
X60671Y62993D01*
X60620Y62975D01*
X60566Y62957D01*
X60508Y62939D01*
X60446Y62924D01*
X60380Y62917D01*
X60311Y62910D01*
X60238Y62906D01*
X60198D01*
X60169Y62910D01*
X60136D01*
X60096Y62913D01*
X60053Y62921D01*
X60001Y62928D01*
X59896Y62946D01*
X59787Y62975D01*
X59678Y63015D01*
X59627Y63041D01*
X59576Y63070D01*
X59572Y63073D01*
X59565Y63077D01*
X59550Y63088D01*
X59536Y63103D01*
X59514Y63117D01*
X59488Y63139D01*
X59459Y63165D01*
X59430Y63194D01*
X59401Y63226D01*
X59368Y63259D01*
X59303Y63343D01*
X59241Y63441D01*
X59186Y63550D01*
Y63554D01*
X59179Y63565D01*
X59175Y63583D01*
X59164Y63605D01*
X59157Y63634D01*
X59146Y63670D01*
X59132Y63710D01*
X59121Y63754D01*
X59110Y63801D01*
X59095Y63856D01*
X59077Y63969D01*
X59062Y64096D01*
X59055Y64227D01*
Y64231D01*
Y64246D01*
Y64267D01*
X59059Y64293D01*
Y64329D01*
X59062Y64366D01*
X59066Y64413D01*
X59073Y64460D01*
X59092Y64566D01*
X59117Y64682D01*
X59153Y64799D01*
X59204Y64912D01*
X59208Y64915D01*
X59212Y64926D01*
X59219Y64941D01*
X59233Y64959D01*
X59248Y64985D01*
X59266Y65014D01*
X59314Y65079D01*
X59375Y65152D01*
X59448Y65225D01*
X59532Y65298D01*
X59630Y65359D01*
X59634Y65363D01*
X59645Y65367D01*
X59659Y65374D01*
X59678Y65385D01*
X59707Y65396D01*
X59736Y65407D01*
X59772Y65421D01*
X59812Y65436D01*
X59856Y65450D01*
X59903Y65465D01*
X60005Y65487D01*
X60122Y65505D01*
X60242Y65512D01*
X60278D01*
X60304Y65509D01*
D02*
G37*
G36*
X74696Y64813D02*
X74736Y64810D01*
X74784Y64802D01*
X74835Y64792D01*
X74889Y64777D01*
X74940Y64755D01*
X74947Y64751D01*
X74962Y64744D01*
X74987Y64733D01*
X75016Y64715D01*
X75053Y64693D01*
X75086Y64664D01*
X75118Y64635D01*
X75148Y64599D01*
X75151Y64595D01*
X75159Y64580D01*
X75169Y64562D01*
X75188Y64537D01*
X75202Y64500D01*
X75217Y64464D01*
X75235Y64420D01*
X75246Y64373D01*
Y64369D01*
X75249Y64355D01*
X75253Y64333D01*
X75257Y64304D01*
Y64260D01*
X75260Y64209D01*
X75264Y64147D01*
Y64071D01*
Y62950D01*
X74955D01*
Y64056D01*
Y64060D01*
Y64064D01*
Y64089D01*
Y64122D01*
X74951Y64162D01*
X74947Y64209D01*
X74940Y64257D01*
X74929Y64300D01*
X74918Y64340D01*
Y64344D01*
X74911Y64355D01*
X74900Y64373D01*
X74889Y64395D01*
X74871Y64417D01*
X74849Y64442D01*
X74820Y64468D01*
X74787Y64489D01*
X74784Y64493D01*
X74773Y64500D01*
X74751Y64508D01*
X74725Y64519D01*
X74696Y64530D01*
X74660Y64540D01*
X74616Y64544D01*
X74572Y64548D01*
X74554D01*
X74540Y64544D01*
X74503Y64540D01*
X74456Y64533D01*
X74405Y64515D01*
X74347Y64493D01*
X74288Y64464D01*
X74234Y64420D01*
X74227Y64413D01*
X74212Y64395D01*
X74201Y64380D01*
X74190Y64362D01*
X74176Y64340D01*
X74165Y64315D01*
X74150Y64286D01*
X74136Y64249D01*
X74125Y64209D01*
X74114Y64166D01*
X74107Y64118D01*
X74099Y64067D01*
X74092Y64005D01*
Y63943D01*
Y62950D01*
X73783D01*
Y64777D01*
X74059D01*
Y64515D01*
X74063Y64519D01*
X74070Y64530D01*
X74081Y64544D01*
X74096Y64562D01*
X74117Y64584D01*
X74143Y64610D01*
X74172Y64639D01*
X74208Y64668D01*
X74245Y64693D01*
X74288Y64722D01*
X74336Y64748D01*
X74387Y64770D01*
X74445Y64788D01*
X74503Y64802D01*
X74569Y64813D01*
X74638Y64817D01*
X74667D01*
X74696Y64813D01*
D02*
G37*
G36*
X71380D02*
X71420Y64806D01*
X71468Y64792D01*
X71518Y64773D01*
X71577Y64748D01*
X71639Y64715D01*
X71526Y64431D01*
X71522Y64435D01*
X71508Y64442D01*
X71486Y64453D01*
X71457Y64464D01*
X71424Y64475D01*
X71384Y64486D01*
X71344Y64493D01*
X71304Y64497D01*
X71285D01*
X71267Y64493D01*
X71242Y64489D01*
X71216Y64482D01*
X71184Y64471D01*
X71151Y64457D01*
X71122Y64435D01*
X71118Y64431D01*
X71107Y64424D01*
X71096Y64409D01*
X71078Y64391D01*
X71060Y64366D01*
X71042Y64337D01*
X71023Y64304D01*
X71009Y64264D01*
X71005Y64257D01*
X71002Y64235D01*
X70994Y64202D01*
X70983Y64158D01*
X70973Y64104D01*
X70965Y64042D01*
X70962Y63976D01*
X70958Y63903D01*
Y62950D01*
X70648D01*
Y64777D01*
X70929D01*
Y64500D01*
X70932Y64504D01*
X70947Y64530D01*
X70965Y64562D01*
X70994Y64602D01*
X71023Y64642D01*
X71056Y64686D01*
X71089Y64722D01*
X71122Y64751D01*
X71125Y64755D01*
X71136Y64763D01*
X71158Y64773D01*
X71180Y64784D01*
X71209Y64795D01*
X71245Y64806D01*
X71282Y64813D01*
X71322Y64817D01*
X71347D01*
X71380Y64813D01*
D02*
G37*
G36*
X76414D02*
X76469Y64810D01*
X76527Y64802D01*
X76589Y64788D01*
X76654Y64773D01*
X76716Y64751D01*
X76720D01*
X76724Y64748D01*
X76742Y64741D01*
X76771Y64726D01*
X76807Y64708D01*
X76847Y64682D01*
X76888Y64653D01*
X76924Y64621D01*
X76957Y64584D01*
X76960Y64580D01*
X76968Y64566D01*
X76982Y64540D01*
X77000Y64511D01*
X77018Y64468D01*
X77037Y64420D01*
X77051Y64366D01*
X77066Y64304D01*
X76764Y64264D01*
Y64271D01*
X76760Y64286D01*
X76753Y64311D01*
X76742Y64344D01*
X76724Y64377D01*
X76702Y64413D01*
X76676Y64449D01*
X76640Y64482D01*
X76636Y64486D01*
X76622Y64493D01*
X76600Y64508D01*
X76567Y64522D01*
X76531Y64537D01*
X76483Y64551D01*
X76425Y64559D01*
X76363Y64562D01*
X76327D01*
X76291Y64559D01*
X76243Y64555D01*
X76196Y64544D01*
X76145Y64533D01*
X76098Y64515D01*
X76058Y64489D01*
X76054Y64486D01*
X76043Y64478D01*
X76028Y64464D01*
X76014Y64442D01*
X75996Y64420D01*
X75981Y64391D01*
X75970Y64358D01*
X75967Y64326D01*
Y64322D01*
Y64315D01*
X75970Y64304D01*
Y64289D01*
X75981Y64253D01*
X76003Y64216D01*
X76007Y64213D01*
X76010Y64209D01*
X76017Y64198D01*
X76032Y64187D01*
X76047Y64176D01*
X76069Y64162D01*
X76094Y64151D01*
X76123Y64136D01*
X76127D01*
X76134Y64133D01*
X76149Y64129D01*
X76174Y64118D01*
X76210Y64107D01*
X76258Y64096D01*
X76287Y64085D01*
X76320Y64078D01*
X76356Y64067D01*
X76396Y64056D01*
X76400D01*
X76411Y64053D01*
X76429Y64049D01*
X76451Y64042D01*
X76476Y64034D01*
X76509Y64027D01*
X76578Y64005D01*
X76654Y63984D01*
X76731Y63958D01*
X76800Y63933D01*
X76829Y63922D01*
X76855Y63911D01*
X76862Y63907D01*
X76877Y63900D01*
X76898Y63889D01*
X76931Y63871D01*
X76964Y63849D01*
X76997Y63820D01*
X77029Y63787D01*
X77059Y63750D01*
X77062Y63747D01*
X77069Y63732D01*
X77084Y63710D01*
X77099Y63678D01*
X77109Y63638D01*
X77124Y63594D01*
X77131Y63543D01*
X77135Y63485D01*
Y63477D01*
Y63459D01*
X77131Y63430D01*
X77124Y63390D01*
X77113Y63346D01*
X77095Y63299D01*
X77073Y63245D01*
X77044Y63194D01*
X77040Y63186D01*
X77026Y63172D01*
X77008Y63146D01*
X76978Y63117D01*
X76938Y63084D01*
X76895Y63048D01*
X76844Y63015D01*
X76782Y62982D01*
X76778D01*
X76775Y62979D01*
X76753Y62972D01*
X76716Y62961D01*
X76669Y62946D01*
X76611Y62932D01*
X76545Y62921D01*
X76476Y62913D01*
X76396Y62910D01*
X76363D01*
X76338Y62913D01*
X76309D01*
X76272Y62917D01*
X76236Y62921D01*
X76196Y62928D01*
X76108Y62946D01*
X76017Y62972D01*
X75930Y63008D01*
X75890Y63030D01*
X75854Y63055D01*
X75850Y63059D01*
X75846Y63063D01*
X75825Y63084D01*
X75792Y63117D01*
X75755Y63168D01*
X75715Y63230D01*
X75675Y63303D01*
X75643Y63394D01*
X75617Y63496D01*
X75923Y63543D01*
Y63539D01*
Y63536D01*
X75930Y63514D01*
X75937Y63477D01*
X75952Y63437D01*
X75970Y63394D01*
X75992Y63346D01*
X76025Y63299D01*
X76065Y63259D01*
X76072Y63256D01*
X76087Y63245D01*
X76116Y63230D01*
X76152Y63212D01*
X76200Y63194D01*
X76254Y63179D01*
X76320Y63168D01*
X76396Y63165D01*
X76433D01*
X76469Y63168D01*
X76516Y63175D01*
X76567Y63186D01*
X76622Y63201D01*
X76669Y63219D01*
X76713Y63248D01*
X76716Y63252D01*
X76731Y63263D01*
X76745Y63281D01*
X76767Y63306D01*
X76786Y63336D01*
X76804Y63372D01*
X76815Y63408D01*
X76818Y63452D01*
Y63456D01*
Y63470D01*
X76815Y63489D01*
X76807Y63514D01*
X76797Y63539D01*
X76778Y63565D01*
X76756Y63594D01*
X76724Y63616D01*
X76720Y63620D01*
X76709Y63623D01*
X76691Y63634D01*
X76662Y63645D01*
X76618Y63660D01*
X76593Y63670D01*
X76564Y63678D01*
X76531Y63689D01*
X76494Y63700D01*
X76454Y63710D01*
X76407Y63721D01*
X76403D01*
X76392Y63725D01*
X76374Y63729D01*
X76352Y63736D01*
X76323Y63743D01*
X76291Y63754D01*
X76221Y63772D01*
X76141Y63798D01*
X76065Y63820D01*
X75992Y63845D01*
X75959Y63860D01*
X75934Y63871D01*
X75927Y63874D01*
X75912Y63882D01*
X75890Y63896D01*
X75861Y63914D01*
X75828Y63940D01*
X75796Y63969D01*
X75763Y64002D01*
X75734Y64042D01*
X75730Y64045D01*
X75723Y64060D01*
X75712Y64085D01*
X75701Y64114D01*
X75690Y64151D01*
X75679Y64195D01*
X75672Y64238D01*
X75668Y64289D01*
Y64297D01*
Y64311D01*
X75672Y64333D01*
X75675Y64366D01*
X75683Y64398D01*
X75690Y64438D01*
X75704Y64475D01*
X75723Y64515D01*
X75726Y64519D01*
X75734Y64533D01*
X75744Y64551D01*
X75763Y64577D01*
X75785Y64602D01*
X75810Y64635D01*
X75839Y64664D01*
X75876Y64690D01*
X75879Y64693D01*
X75890Y64697D01*
X75905Y64708D01*
X75927Y64719D01*
X75956Y64733D01*
X75988Y64748D01*
X76028Y64763D01*
X76072Y64777D01*
X76079Y64781D01*
X76094Y64784D01*
X76119Y64792D01*
X76152Y64799D01*
X76192Y64806D01*
X76236Y64810D01*
X76287Y64817D01*
X76374D01*
X76414Y64813D01*
D02*
G37*
G36*
X66022Y62950D02*
X65676D01*
X64359Y64926D01*
Y62950D01*
X64038D01*
Y65469D01*
X64380D01*
X65702Y63489D01*
Y65469D01*
X66022D01*
Y62950D01*
D02*
G37*
G36*
X72676Y64813D02*
X72731Y64810D01*
X72793Y64802D01*
X72854Y64792D01*
X72916Y64777D01*
X72974Y64759D01*
X72982Y64755D01*
X73000Y64748D01*
X73025Y64737D01*
X73058Y64722D01*
X73095Y64701D01*
X73131Y64679D01*
X73164Y64650D01*
X73193Y64621D01*
X73197Y64617D01*
X73204Y64606D01*
X73215Y64588D01*
X73229Y64566D01*
X73247Y64533D01*
X73262Y64500D01*
X73277Y64460D01*
X73287Y64413D01*
Y64409D01*
X73291Y64398D01*
X73295Y64377D01*
X73298Y64347D01*
Y64307D01*
X73302Y64260D01*
X73306Y64198D01*
Y64129D01*
Y63714D01*
Y63710D01*
Y63696D01*
Y63674D01*
Y63645D01*
Y63612D01*
Y63572D01*
X73309Y63485D01*
Y63394D01*
X73313Y63303D01*
X73317Y63263D01*
Y63226D01*
X73320Y63194D01*
X73324Y63168D01*
Y63165D01*
X73328Y63150D01*
X73331Y63128D01*
X73342Y63099D01*
X73349Y63066D01*
X73364Y63030D01*
X73382Y62990D01*
X73400Y62950D01*
X73076D01*
X73073Y62953D01*
X73069Y62968D01*
X73062Y62986D01*
X73051Y63015D01*
X73040Y63048D01*
X73033Y63088D01*
X73025Y63132D01*
X73018Y63179D01*
X73014D01*
X73011Y63172D01*
X72989Y63154D01*
X72956Y63128D01*
X72913Y63095D01*
X72858Y63063D01*
X72803Y63026D01*
X72745Y62993D01*
X72683Y62968D01*
X72676Y62964D01*
X72654Y62961D01*
X72621Y62950D01*
X72581Y62939D01*
X72530Y62928D01*
X72472Y62921D01*
X72407Y62913D01*
X72341Y62910D01*
X72312D01*
X72290Y62913D01*
X72265D01*
X72236Y62917D01*
X72170Y62928D01*
X72097Y62946D01*
X72017Y62972D01*
X71944Y63008D01*
X71879Y63055D01*
X71872Y63063D01*
X71853Y63081D01*
X71828Y63113D01*
X71799Y63157D01*
X71770Y63212D01*
X71744Y63274D01*
X71726Y63350D01*
X71722Y63386D01*
X71719Y63430D01*
Y63437D01*
Y63452D01*
X71722Y63477D01*
X71726Y63510D01*
X71733Y63550D01*
X71744Y63590D01*
X71759Y63634D01*
X71777Y63674D01*
X71781Y63678D01*
X71788Y63692D01*
X71802Y63714D01*
X71821Y63740D01*
X71842Y63769D01*
X71872Y63798D01*
X71901Y63827D01*
X71937Y63852D01*
X71941Y63856D01*
X71955Y63863D01*
X71974Y63878D01*
X72003Y63893D01*
X72035Y63907D01*
X72075Y63925D01*
X72115Y63940D01*
X72163Y63954D01*
X72166D01*
X72181Y63958D01*
X72203Y63965D01*
X72232Y63969D01*
X72268Y63976D01*
X72316Y63984D01*
X72370Y63994D01*
X72436Y64002D01*
X72439D01*
X72454Y64005D01*
X72472D01*
X72498Y64009D01*
X72527Y64013D01*
X72563Y64020D01*
X72603Y64024D01*
X72647Y64031D01*
X72734Y64049D01*
X72829Y64067D01*
X72913Y64089D01*
X72953Y64100D01*
X72989Y64111D01*
Y64114D01*
Y64122D01*
X72993Y64144D01*
Y64169D01*
Y64184D01*
Y64191D01*
Y64195D01*
Y64198D01*
Y64220D01*
X72989Y64257D01*
X72982Y64297D01*
X72971Y64340D01*
X72953Y64384D01*
X72931Y64424D01*
X72902Y64457D01*
X72898Y64460D01*
X72880Y64475D01*
X72851Y64489D01*
X72814Y64511D01*
X72763Y64530D01*
X72705Y64548D01*
X72632Y64559D01*
X72549Y64562D01*
X72512D01*
X72476Y64559D01*
X72425Y64551D01*
X72374Y64544D01*
X72319Y64530D01*
X72268Y64511D01*
X72225Y64486D01*
X72221Y64482D01*
X72206Y64471D01*
X72188Y64453D01*
X72166Y64424D01*
X72145Y64388D01*
X72119Y64340D01*
X72097Y64282D01*
X72075Y64216D01*
X71773Y64257D01*
Y64260D01*
X71777Y64264D01*
Y64275D01*
X71781Y64289D01*
X71791Y64322D01*
X71806Y64369D01*
X71824Y64417D01*
X71846Y64468D01*
X71875Y64519D01*
X71908Y64566D01*
X71912Y64569D01*
X71926Y64584D01*
X71948Y64606D01*
X71977Y64635D01*
X72017Y64664D01*
X72065Y64693D01*
X72119Y64726D01*
X72181Y64751D01*
X72185D01*
X72188Y64755D01*
X72199Y64759D01*
X72214Y64763D01*
X72250Y64773D01*
X72301Y64784D01*
X72359Y64795D01*
X72432Y64806D01*
X72509Y64813D01*
X72596Y64817D01*
X72636D01*
X72676Y64813D01*
D02*
G37*
G36*
X70346Y65170D02*
X69516D01*
Y62950D01*
X69182D01*
Y65170D01*
X68352D01*
Y65469D01*
X70346D01*
Y65170D01*
D02*
G37*
G36*
X63773Y62950D02*
X63394D01*
X63099Y63714D01*
X62044D01*
X61771Y62950D01*
X61418D01*
X62378Y65469D01*
X62742D01*
X63773Y62950D01*
D02*
G37*
G36*
X68304Y62251D02*
X66255D01*
Y62473D01*
X68304D01*
Y62251D01*
D02*
G37*
G36*
X22960Y43634D02*
Y42567D01*
X22625D01*
Y43634D01*
X21654Y45086D01*
X22058D01*
X22553Y44322D01*
Y44318D01*
X22560Y44311D01*
X22567Y44300D01*
X22574Y44286D01*
X22589Y44267D01*
X22603Y44245D01*
X22636Y44191D01*
X22676Y44125D01*
X22720Y44053D01*
X22767Y43976D01*
X22811Y43896D01*
Y43900D01*
X22815Y43907D01*
X22822Y43918D01*
X22833Y43932D01*
X22844Y43951D01*
X22858Y43973D01*
X22891Y44027D01*
X22931Y44093D01*
X22978Y44169D01*
X23033Y44253D01*
X23091Y44344D01*
X23575Y45086D01*
X23965D01*
X22960Y43634D01*
D02*
G37*
G36*
X25035Y45094D02*
X25064Y45090D01*
X25101Y45086D01*
X25141Y45079D01*
X25181Y45072D01*
X25275Y45046D01*
X25370Y45010D01*
X25417Y44988D01*
X25465Y44963D01*
X25508Y44930D01*
X25548Y44893D01*
X25552Y44890D01*
X25559Y44886D01*
X25567Y44872D01*
X25581Y44857D01*
X25599Y44839D01*
X25618Y44813D01*
X25636Y44788D01*
X25657Y44755D01*
X25694Y44686D01*
X25730Y44599D01*
X25745Y44555D01*
X25752Y44504D01*
X25759Y44453D01*
X25763Y44398D01*
Y44391D01*
Y44373D01*
X25759Y44344D01*
X25756Y44304D01*
X25749Y44260D01*
X25734Y44209D01*
X25719Y44155D01*
X25697Y44100D01*
X25694Y44093D01*
X25687Y44074D01*
X25672Y44045D01*
X25650Y44005D01*
X25621Y43962D01*
X25585Y43907D01*
X25541Y43852D01*
X25490Y43791D01*
X25483Y43783D01*
X25465Y43761D01*
X25446Y43743D01*
X25428Y43725D01*
X25406Y43703D01*
X25377Y43674D01*
X25348Y43645D01*
X25312Y43612D01*
X25275Y43576D01*
X25232Y43536D01*
X25184Y43496D01*
X25133Y43448D01*
X25075Y43401D01*
X25017Y43350D01*
X25013Y43346D01*
X25006Y43339D01*
X24991Y43328D01*
X24973Y43314D01*
X24951Y43292D01*
X24926Y43270D01*
X24868Y43223D01*
X24806Y43168D01*
X24747Y43113D01*
X24697Y43066D01*
X24675Y43048D01*
X24656Y43030D01*
X24653Y43026D01*
X24642Y43015D01*
X24627Y43001D01*
X24609Y42979D01*
X24591Y42953D01*
X24569Y42928D01*
X24525Y42866D01*
X25767D01*
Y42567D01*
X24096D01*
Y42571D01*
Y42586D01*
Y42608D01*
X24100Y42637D01*
X24103Y42669D01*
X24111Y42706D01*
X24118Y42742D01*
X24132Y42782D01*
Y42786D01*
X24136Y42790D01*
X24143Y42811D01*
X24158Y42844D01*
X24180Y42888D01*
X24209Y42939D01*
X24245Y42997D01*
X24285Y43055D01*
X24336Y43117D01*
Y43121D01*
X24343Y43124D01*
X24362Y43146D01*
X24394Y43179D01*
X24442Y43226D01*
X24496Y43281D01*
X24566Y43346D01*
X24649Y43419D01*
X24740Y43496D01*
X24744Y43499D01*
X24758Y43510D01*
X24780Y43528D01*
X24806Y43550D01*
X24838Y43579D01*
X24879Y43612D01*
X24919Y43648D01*
X24966Y43689D01*
X25057Y43776D01*
X25148Y43863D01*
X25192Y43907D01*
X25232Y43951D01*
X25268Y43991D01*
X25297Y44031D01*
Y44034D01*
X25304Y44038D01*
X25312Y44049D01*
X25319Y44063D01*
X25344Y44104D01*
X25374Y44151D01*
X25399Y44209D01*
X25425Y44271D01*
X25439Y44340D01*
X25446Y44406D01*
Y44409D01*
Y44413D01*
X25443Y44435D01*
X25439Y44471D01*
X25428Y44511D01*
X25414Y44562D01*
X25388Y44613D01*
X25355Y44664D01*
X25312Y44715D01*
X25304Y44722D01*
X25286Y44737D01*
X25261Y44755D01*
X25221Y44781D01*
X25170Y44802D01*
X25111Y44824D01*
X25042Y44839D01*
X24966Y44842D01*
X24944D01*
X24929Y44839D01*
X24886Y44835D01*
X24835Y44824D01*
X24780Y44810D01*
X24718Y44784D01*
X24660Y44751D01*
X24606Y44708D01*
X24598Y44701D01*
X24584Y44682D01*
X24562Y44653D01*
X24540Y44609D01*
X24514Y44559D01*
X24493Y44493D01*
X24478Y44420D01*
X24471Y44337D01*
X24154Y44369D01*
Y44373D01*
X24158Y44384D01*
Y44402D01*
X24161Y44427D01*
X24169Y44457D01*
X24176Y44489D01*
X24187Y44529D01*
X24198Y44569D01*
X24227Y44657D01*
X24271Y44744D01*
X24296Y44788D01*
X24329Y44831D01*
X24362Y44872D01*
X24398Y44908D01*
X24402Y44912D01*
X24409Y44915D01*
X24420Y44926D01*
X24438Y44937D01*
X24460Y44952D01*
X24485Y44966D01*
X24514Y44984D01*
X24551Y45003D01*
X24591Y45021D01*
X24635Y45039D01*
X24682Y45054D01*
X24733Y45068D01*
X24788Y45079D01*
X24846Y45090D01*
X24908Y45094D01*
X24973Y45097D01*
X25010D01*
X25035Y45094D01*
D02*
G37*
G36*
X14470Y24603D02*
X14506D01*
X14543Y24599D01*
X14590Y24595D01*
X14637Y24588D01*
X14743Y24570D01*
X14859Y24544D01*
X14976Y24508D01*
X15089Y24457D01*
X15092Y24453D01*
X15103Y24450D01*
X15118Y24442D01*
X15136Y24428D01*
X15161Y24413D01*
X15190Y24395D01*
X15256Y24348D01*
X15329Y24286D01*
X15402Y24213D01*
X15474Y24129D01*
X15536Y24031D01*
X15540Y24028D01*
X15543Y24017D01*
X15551Y24002D01*
X15562Y23984D01*
X15573Y23955D01*
X15584Y23926D01*
X15598Y23889D01*
X15613Y23849D01*
X15627Y23806D01*
X15642Y23758D01*
X15664Y23656D01*
X15682Y23540D01*
X15689Y23420D01*
Y23383D01*
X15686Y23358D01*
X15682Y23325D01*
X15678Y23285D01*
X15675Y23245D01*
X15664Y23198D01*
X15642Y23099D01*
X15609Y22990D01*
X15587Y22936D01*
X15562Y22885D01*
X15529Y22834D01*
X15496Y22783D01*
X15493Y22779D01*
X15489Y22772D01*
X15478Y22757D01*
X15460Y22739D01*
X15442Y22721D01*
X15416Y22695D01*
X15387Y22670D01*
X15358Y22641D01*
X15322Y22612D01*
X15278Y22582D01*
X15234Y22550D01*
X15187Y22521D01*
X15132Y22495D01*
X15078Y22466D01*
X15019Y22444D01*
X14954Y22422D01*
X14877Y22750D01*
X14881D01*
X14888Y22754D01*
X14903Y22761D01*
X14921Y22768D01*
X14943Y22775D01*
X14972Y22786D01*
X15030Y22816D01*
X15096Y22852D01*
X15161Y22896D01*
X15223Y22950D01*
X15278Y23008D01*
X15285Y23016D01*
X15300Y23038D01*
X15318Y23074D01*
X15343Y23121D01*
X15365Y23183D01*
X15387Y23252D01*
X15402Y23336D01*
X15405Y23427D01*
Y23456D01*
X15402Y23474D01*
Y23500D01*
X15398Y23529D01*
X15387Y23598D01*
X15372Y23674D01*
X15347Y23755D01*
X15311Y23838D01*
X15263Y23915D01*
Y23918D01*
X15256Y23922D01*
X15238Y23947D01*
X15209Y23980D01*
X15165Y24020D01*
X15110Y24068D01*
X15048Y24111D01*
X14972Y24151D01*
X14888Y24188D01*
X14885D01*
X14877Y24191D01*
X14866Y24195D01*
X14848Y24199D01*
X14826Y24206D01*
X14801Y24213D01*
X14739Y24224D01*
X14666Y24239D01*
X14586Y24253D01*
X14499Y24261D01*
X14404Y24264D01*
X14401D01*
X14390D01*
X14371D01*
X14350D01*
X14324Y24261D01*
X14291D01*
X14255Y24257D01*
X14215Y24253D01*
X14128Y24242D01*
X14033Y24224D01*
X13938Y24202D01*
X13844Y24173D01*
X13840D01*
X13833Y24170D01*
X13822Y24162D01*
X13804Y24155D01*
X13760Y24133D01*
X13709Y24100D01*
X13651Y24060D01*
X13589Y24009D01*
X13534Y23951D01*
X13483Y23882D01*
Y23878D01*
X13480Y23871D01*
X13472Y23860D01*
X13465Y23846D01*
X13458Y23827D01*
X13447Y23806D01*
X13425Y23755D01*
X13403Y23689D01*
X13385Y23616D01*
X13370Y23536D01*
X13367Y23452D01*
Y23427D01*
X13370Y23405D01*
Y23380D01*
X13374Y23354D01*
X13389Y23289D01*
X13407Y23212D01*
X13436Y23136D01*
X13476Y23056D01*
X13498Y23016D01*
X13527Y22979D01*
X13531Y22976D01*
X13534Y22972D01*
X13545Y22961D01*
X13556Y22946D01*
X13574Y22932D01*
X13596Y22914D01*
X13618Y22892D01*
X13647Y22874D01*
X13680Y22852D01*
X13716Y22826D01*
X13753Y22805D01*
X13796Y22783D01*
X13844Y22764D01*
X13895Y22746D01*
X13949Y22728D01*
X14007Y22714D01*
X13924Y22379D01*
X13920D01*
X13905Y22382D01*
X13884Y22390D01*
X13855Y22400D01*
X13822Y22411D01*
X13782Y22426D01*
X13738Y22444D01*
X13691Y22466D01*
X13589Y22517D01*
X13487Y22582D01*
X13436Y22623D01*
X13385Y22663D01*
X13341Y22706D01*
X13298Y22757D01*
X13294Y22761D01*
X13287Y22768D01*
X13279Y22786D01*
X13265Y22805D01*
X13247Y22834D01*
X13228Y22863D01*
X13210Y22903D01*
X13192Y22943D01*
X13170Y22990D01*
X13152Y23041D01*
X13134Y23096D01*
X13116Y23154D01*
X13101Y23216D01*
X13094Y23281D01*
X13086Y23350D01*
X13083Y23423D01*
Y23463D01*
X13086Y23493D01*
Y23525D01*
X13090Y23565D01*
X13097Y23609D01*
X13105Y23660D01*
X13123Y23765D01*
X13152Y23875D01*
X13192Y23984D01*
X13217Y24035D01*
X13247Y24086D01*
X13250Y24089D01*
X13254Y24097D01*
X13265Y24111D01*
X13279Y24126D01*
X13294Y24148D01*
X13316Y24173D01*
X13341Y24202D01*
X13370Y24231D01*
X13403Y24261D01*
X13436Y24293D01*
X13520Y24359D01*
X13618Y24421D01*
X13727Y24475D01*
X13731D01*
X13742Y24483D01*
X13760Y24486D01*
X13782Y24497D01*
X13811Y24504D01*
X13847Y24515D01*
X13887Y24530D01*
X13931Y24541D01*
X13978Y24552D01*
X14033Y24566D01*
X14146Y24585D01*
X14273Y24599D01*
X14404Y24606D01*
X14408D01*
X14422D01*
X14444D01*
X14470Y24603D01*
D02*
G37*
G36*
X13811Y21771D02*
X13807D01*
X13800D01*
X13789Y21767D01*
X13771Y21764D01*
X13731Y21753D01*
X13676Y21738D01*
X13622Y21716D01*
X13560Y21687D01*
X13505Y21651D01*
X13454Y21607D01*
X13451Y21600D01*
X13436Y21585D01*
X13418Y21556D01*
X13396Y21516D01*
X13374Y21472D01*
X13356Y21418D01*
X13341Y21356D01*
X13338Y21287D01*
Y21265D01*
X13341Y21250D01*
X13345Y21207D01*
X13360Y21156D01*
X13378Y21094D01*
X13407Y21032D01*
X13451Y20966D01*
X13476Y20937D01*
X13505Y20908D01*
X13509Y20904D01*
X13512Y20901D01*
X13523Y20893D01*
X13534Y20883D01*
X13574Y20857D01*
X13625Y20828D01*
X13687Y20802D01*
X13764Y20777D01*
X13855Y20759D01*
X13902Y20752D01*
X13953D01*
X13957D01*
X13964D01*
X13978D01*
X13996Y20755D01*
X14018D01*
X14044Y20759D01*
X14102Y20770D01*
X14171Y20788D01*
X14240Y20813D01*
X14306Y20850D01*
X14368Y20901D01*
X14371D01*
X14375Y20908D01*
X14393Y20926D01*
X14419Y20959D01*
X14448Y21003D01*
X14473Y21061D01*
X14499Y21126D01*
X14517Y21203D01*
X14524Y21247D01*
Y21316D01*
X14521Y21345D01*
X14517Y21381D01*
X14506Y21425D01*
X14495Y21469D01*
X14477Y21516D01*
X14455Y21563D01*
X14451Y21567D01*
X14444Y21581D01*
X14426Y21603D01*
X14408Y21632D01*
X14382Y21662D01*
X14350Y21691D01*
X14317Y21723D01*
X14277Y21749D01*
X14317Y22040D01*
X15613Y21796D01*
Y20544D01*
X15318D01*
Y21552D01*
X14637Y21687D01*
X14641Y21683D01*
X14644Y21676D01*
X14652Y21665D01*
X14663Y21647D01*
X14674Y21625D01*
X14688Y21600D01*
X14717Y21542D01*
X14746Y21469D01*
X14772Y21389D01*
X14790Y21301D01*
X14797Y21258D01*
Y21177D01*
X14794Y21156D01*
X14790Y21126D01*
X14786Y21094D01*
X14779Y21057D01*
X14768Y21017D01*
X14743Y20930D01*
X14725Y20883D01*
X14699Y20835D01*
X14674Y20788D01*
X14644Y20741D01*
X14608Y20697D01*
X14568Y20653D01*
X14564Y20650D01*
X14557Y20642D01*
X14546Y20631D01*
X14528Y20617D01*
X14502Y20599D01*
X14477Y20581D01*
X14444Y20559D01*
X14408Y20537D01*
X14368Y20519D01*
X14324Y20497D01*
X14273Y20479D01*
X14222Y20460D01*
X14168Y20446D01*
X14106Y20435D01*
X14044Y20428D01*
X13978Y20424D01*
X13975D01*
X13964D01*
X13946D01*
X13920Y20428D01*
X13891Y20431D01*
X13858Y20435D01*
X13818Y20442D01*
X13778Y20449D01*
X13683Y20471D01*
X13585Y20508D01*
X13534Y20529D01*
X13487Y20559D01*
X13436Y20588D01*
X13389Y20624D01*
X13385Y20628D01*
X13374Y20635D01*
X13360Y20650D01*
X13341Y20668D01*
X13319Y20693D01*
X13290Y20722D01*
X13265Y20759D01*
X13236Y20799D01*
X13207Y20843D01*
X13181Y20893D01*
X13156Y20948D01*
X13130Y21006D01*
X13112Y21068D01*
X13097Y21137D01*
X13086Y21210D01*
X13083Y21287D01*
Y21319D01*
X13086Y21345D01*
X13090Y21374D01*
X13094Y21407D01*
X13097Y21447D01*
X13108Y21487D01*
X13130Y21578D01*
X13163Y21669D01*
X13185Y21716D01*
X13210Y21764D01*
X13239Y21807D01*
X13272Y21851D01*
X13276Y21855D01*
X13279Y21862D01*
X13294Y21869D01*
X13308Y21884D01*
X13327Y21902D01*
X13349Y21920D01*
X13378Y21942D01*
X13410Y21960D01*
X13443Y21982D01*
X13483Y22004D01*
X13571Y22044D01*
X13673Y22076D01*
X13727Y22087D01*
X13785Y22095D01*
X13811Y21771D01*
D02*
G37*
G36*
X30218Y24603D02*
X30254D01*
X30291Y24599D01*
X30338Y24595D01*
X30385Y24588D01*
X30491Y24570D01*
X30607Y24544D01*
X30724Y24508D01*
X30837Y24457D01*
X30840Y24453D01*
X30851Y24450D01*
X30866Y24442D01*
X30884Y24428D01*
X30909Y24413D01*
X30939Y24395D01*
X31004Y24348D01*
X31077Y24286D01*
X31150Y24213D01*
X31222Y24129D01*
X31284Y24031D01*
X31288Y24028D01*
X31292Y24017D01*
X31299Y24002D01*
X31310Y23984D01*
X31321Y23955D01*
X31332Y23926D01*
X31346Y23889D01*
X31361Y23849D01*
X31375Y23806D01*
X31390Y23758D01*
X31412Y23656D01*
X31430Y23540D01*
X31437Y23420D01*
Y23383D01*
X31433Y23358D01*
X31430Y23325D01*
X31426Y23285D01*
X31423Y23245D01*
X31412Y23198D01*
X31390Y23099D01*
X31357Y22990D01*
X31335Y22936D01*
X31310Y22885D01*
X31277Y22834D01*
X31244Y22783D01*
X31241Y22779D01*
X31237Y22772D01*
X31226Y22757D01*
X31208Y22739D01*
X31190Y22721D01*
X31164Y22695D01*
X31135Y22670D01*
X31106Y22641D01*
X31069Y22612D01*
X31026Y22582D01*
X30982Y22550D01*
X30935Y22521D01*
X30880Y22495D01*
X30826Y22466D01*
X30767Y22444D01*
X30702Y22422D01*
X30626Y22750D01*
X30629D01*
X30636Y22754D01*
X30651Y22761D01*
X30669Y22768D01*
X30691Y22775D01*
X30720Y22786D01*
X30778Y22816D01*
X30844Y22852D01*
X30909Y22896D01*
X30971Y22950D01*
X31026Y23008D01*
X31033Y23016D01*
X31048Y23038D01*
X31066Y23074D01*
X31091Y23121D01*
X31113Y23183D01*
X31135Y23252D01*
X31150Y23336D01*
X31153Y23427D01*
Y23456D01*
X31150Y23474D01*
Y23500D01*
X31146Y23529D01*
X31135Y23598D01*
X31120Y23674D01*
X31095Y23755D01*
X31059Y23838D01*
X31011Y23915D01*
Y23918D01*
X31004Y23922D01*
X30986Y23947D01*
X30957Y23980D01*
X30913Y24020D01*
X30858Y24068D01*
X30797Y24111D01*
X30720Y24151D01*
X30636Y24188D01*
X30633D01*
X30626Y24191D01*
X30615Y24195D01*
X30596Y24199D01*
X30575Y24206D01*
X30549Y24213D01*
X30487Y24224D01*
X30414Y24239D01*
X30334Y24253D01*
X30247Y24261D01*
X30152Y24264D01*
X30149D01*
X30138D01*
X30119D01*
X30098D01*
X30072Y24261D01*
X30039D01*
X30003Y24257D01*
X29963Y24253D01*
X29876Y24242D01*
X29781Y24224D01*
X29686Y24202D01*
X29592Y24173D01*
X29588D01*
X29581Y24170D01*
X29570Y24162D01*
X29552Y24155D01*
X29508Y24133D01*
X29457Y24100D01*
X29399Y24060D01*
X29337Y24009D01*
X29282Y23951D01*
X29231Y23882D01*
Y23878D01*
X29228Y23871D01*
X29220Y23860D01*
X29213Y23846D01*
X29206Y23827D01*
X29195Y23806D01*
X29173Y23755D01*
X29151Y23689D01*
X29133Y23616D01*
X29118Y23536D01*
X29115Y23452D01*
Y23427D01*
X29118Y23405D01*
Y23380D01*
X29122Y23354D01*
X29137Y23289D01*
X29155Y23212D01*
X29184Y23136D01*
X29224Y23056D01*
X29246Y23016D01*
X29275Y22979D01*
X29279Y22976D01*
X29282Y22972D01*
X29293Y22961D01*
X29304Y22946D01*
X29322Y22932D01*
X29344Y22914D01*
X29366Y22892D01*
X29395Y22874D01*
X29428Y22852D01*
X29464Y22826D01*
X29501Y22805D01*
X29544Y22783D01*
X29592Y22764D01*
X29643Y22746D01*
X29697Y22728D01*
X29755Y22714D01*
X29672Y22379D01*
X29668D01*
X29654Y22382D01*
X29632Y22390D01*
X29603Y22400D01*
X29570Y22411D01*
X29530Y22426D01*
X29486Y22444D01*
X29439Y22466D01*
X29337Y22517D01*
X29235Y22582D01*
X29184Y22623D01*
X29133Y22663D01*
X29089Y22706D01*
X29046Y22757D01*
X29042Y22761D01*
X29035Y22768D01*
X29028Y22786D01*
X29013Y22805D01*
X28995Y22834D01*
X28977Y22863D01*
X28958Y22903D01*
X28940Y22943D01*
X28918Y22990D01*
X28900Y23041D01*
X28882Y23096D01*
X28864Y23154D01*
X28849Y23216D01*
X28842Y23281D01*
X28835Y23351D01*
X28831Y23423D01*
Y23463D01*
X28835Y23493D01*
Y23525D01*
X28838Y23565D01*
X28846Y23609D01*
X28853Y23660D01*
X28871Y23765D01*
X28900Y23875D01*
X28940Y23984D01*
X28966Y24035D01*
X28995Y24086D01*
X28998Y24090D01*
X29002Y24097D01*
X29013Y24111D01*
X29028Y24126D01*
X29042Y24148D01*
X29064Y24173D01*
X29089Y24202D01*
X29118Y24231D01*
X29151Y24261D01*
X29184Y24293D01*
X29268Y24359D01*
X29366Y24421D01*
X29475Y24475D01*
X29479D01*
X29490Y24483D01*
X29508Y24486D01*
X29530Y24497D01*
X29559Y24504D01*
X29595Y24515D01*
X29635Y24530D01*
X29679Y24541D01*
X29726Y24552D01*
X29781Y24566D01*
X29894Y24585D01*
X30021Y24599D01*
X30152Y24606D01*
X30156D01*
X30170D01*
X30192D01*
X30218Y24603D01*
D02*
G37*
G36*
X31394Y21046D02*
Y20795D01*
X29763D01*
Y20453D01*
X29479D01*
Y20795D01*
X28875D01*
Y21105D01*
X29479D01*
Y22200D01*
X29763D01*
X31394Y21046D01*
D02*
G37*
%LPC*%
G36*
X72993Y63867D02*
X72989D01*
X72985Y63863D01*
X72974Y63860D01*
X72960Y63856D01*
X72942Y63849D01*
X72920Y63841D01*
X72894Y63834D01*
X72865Y63827D01*
X72833Y63816D01*
X72793Y63809D01*
X72752Y63798D01*
X72705Y63787D01*
X72654Y63776D01*
X72603Y63765D01*
X72545Y63758D01*
X72483Y63747D01*
X72476D01*
X72454Y63743D01*
X72418Y63736D01*
X72378Y63729D01*
X72334Y63721D01*
X72290Y63710D01*
X72250Y63700D01*
X72214Y63685D01*
X72210D01*
X72199Y63678D01*
X72185Y63670D01*
X72170Y63660D01*
X72126Y63630D01*
X72090Y63587D01*
Y63583D01*
X72083Y63576D01*
X72079Y63561D01*
X72072Y63543D01*
X72065Y63521D01*
X72057Y63499D01*
X72054Y63470D01*
X72050Y63441D01*
Y63437D01*
Y63419D01*
X72054Y63398D01*
X72061Y63368D01*
X72072Y63336D01*
X72090Y63303D01*
X72112Y63266D01*
X72141Y63234D01*
X72145Y63230D01*
X72159Y63223D01*
X72181Y63208D01*
X72210Y63194D01*
X72250Y63179D01*
X72297Y63165D01*
X72352Y63157D01*
X72418Y63154D01*
X72447D01*
X72483Y63157D01*
X72523Y63165D01*
X72574Y63172D01*
X72625Y63186D01*
X72680Y63204D01*
X72734Y63230D01*
X72742Y63234D01*
X72756Y63245D01*
X72782Y63263D01*
X72811Y63288D01*
X72843Y63317D01*
X72880Y63354D01*
X72909Y63398D01*
X72938Y63445D01*
X72942Y63448D01*
X72945Y63463D01*
X72953Y63489D01*
X72964Y63521D01*
X72974Y63565D01*
X72982Y63616D01*
X72985Y63678D01*
X72989Y63750D01*
X72993Y63867D01*
D02*
G37*
G36*
X62553Y65206D02*
Y65203D01*
X62550Y65196D01*
Y65181D01*
X62542Y65166D01*
X62539Y65141D01*
X62531Y65115D01*
X62517Y65054D01*
X62499Y64981D01*
X62473Y64901D01*
X62448Y64813D01*
X62415Y64722D01*
X62142Y63987D01*
X62994D01*
X62731Y64679D01*
Y64682D01*
X62728Y64693D01*
X62721Y64711D01*
X62713Y64733D01*
X62702Y64759D01*
X62691Y64792D01*
X62681Y64828D01*
X62666Y64864D01*
X62637Y64948D01*
X62608Y65035D01*
X62579Y65123D01*
X62553Y65206D01*
D02*
G37*
G36*
X29763Y21898D02*
Y21105D01*
X30891D01*
X29763Y21898D01*
D02*
G37*
%LPD*%
D10*
X40545Y84055D02*
X77565D01*
Y41929D02*
Y84055D01*
X40545Y41929D02*
X77565D01*
X40545D02*
Y84055D01*
X9449Y36221D02*
Y50394D01*
Y36221D02*
X33858D01*
Y50394D01*
X9449D02*
X33858D01*
X16929Y19374D02*
Y29839D01*
X10630Y19374D02*
X16929D01*
X10630D02*
Y29839D01*
X16929D01*
X32677Y19374D02*
Y29839D01*
X26378Y19374D02*
X32677D01*
X26378D02*
Y29839D01*
X32677D01*
M02*
