G04*
G04 #@! TF.GenerationSoftware,Altium Limited,Altium Designer,23.2.1 (34)*
G04*
G04 Layer_Color=16711935*
%FSLAX25Y25*%
%MOIN*%
G70*
G04*
G04 #@! TF.SameCoordinates,26DCB771-F187-4795-AA7E-67AAF857B4AA*
G04*
G04*
G04 #@! TF.FilePolarity,Positive*
G04*
G01*
G75*
%ADD10C,0.00787*%
G36*
X60276Y65504D02*
X60302D01*
X60334Y65500D01*
X60373Y65495D01*
X60414Y65489D01*
X60459Y65482D01*
X60509Y65472D01*
X60560Y65459D01*
X60612Y65444D01*
X60666Y65424D01*
X60719Y65403D01*
X60771Y65377D01*
X60822Y65347D01*
X60872Y65312D01*
X60874Y65310D01*
X60883Y65304D01*
X60896Y65293D01*
X60915Y65278D01*
X60934Y65257D01*
X60960Y65233D01*
X60986Y65205D01*
X61014Y65173D01*
X61044Y65136D01*
X61074Y65097D01*
X61104Y65052D01*
X61134Y65005D01*
X61162Y64951D01*
X61188Y64895D01*
X61212Y64837D01*
X61233Y64773D01*
X60906Y64695D01*
Y64698D01*
X60902Y64708D01*
X60898Y64721D01*
X60889Y64741D01*
X60881Y64762D01*
X60870Y64790D01*
X60857Y64818D01*
X60842Y64848D01*
X60805Y64915D01*
X60762Y64981D01*
X60736Y65012D01*
X60711Y65042D01*
X60681Y65070D01*
X60650Y65095D01*
X60648Y65097D01*
X60642Y65102D01*
X60633Y65106D01*
X60620Y65115D01*
X60605Y65125D01*
X60584Y65136D01*
X60562Y65147D01*
X60536Y65160D01*
X60509Y65171D01*
X60476Y65181D01*
X60442Y65192D01*
X60405Y65203D01*
X60365Y65211D01*
X60324Y65216D01*
X60278Y65220D01*
X60233Y65222D01*
X60205D01*
X60186Y65220D01*
X60160Y65218D01*
X60132Y65216D01*
X60100Y65211D01*
X60063Y65205D01*
X60027Y65196D01*
X59988Y65188D01*
X59947Y65177D01*
X59907Y65164D01*
X59866Y65147D01*
X59825Y65127D01*
X59786Y65106D01*
X59747Y65082D01*
X59745Y65080D01*
X59739Y65076D01*
X59728Y65067D01*
X59715Y65057D01*
X59700Y65044D01*
X59683Y65026D01*
X59661Y65005D01*
X59640Y64983D01*
X59618Y64958D01*
X59595Y64930D01*
X59573Y64900D01*
X59550Y64865D01*
X59528Y64831D01*
X59509Y64792D01*
X59492Y64751D01*
X59474Y64708D01*
Y64706D01*
X59470Y64698D01*
X59468Y64685D01*
X59461Y64667D01*
X59457Y64646D01*
X59451Y64620D01*
X59442Y64592D01*
X59436Y64560D01*
X59429Y64526D01*
X59421Y64487D01*
X59414Y64448D01*
X59410Y64407D01*
X59401Y64319D01*
X59397Y64227D01*
Y64222D01*
Y64212D01*
Y64194D01*
X59399Y64173D01*
Y64145D01*
X59401Y64113D01*
X59406Y64076D01*
X59408Y64035D01*
X59414Y63992D01*
X59421Y63947D01*
X59436Y63855D01*
X59459Y63758D01*
X59472Y63711D01*
X59489Y63665D01*
X59492Y63663D01*
X59494Y63655D01*
X59500Y63642D01*
X59507Y63627D01*
X59517Y63608D01*
X59528Y63584D01*
X59543Y63558D01*
X59560Y63532D01*
X59580Y63502D01*
X59601Y63474D01*
X59625Y63444D01*
X59651Y63414D01*
X59679Y63386D01*
X59711Y63358D01*
X59743Y63332D01*
X59780Y63309D01*
X59782Y63306D01*
X59788Y63304D01*
X59799Y63298D01*
X59814Y63289D01*
X59833Y63281D01*
X59855Y63272D01*
X59879Y63261D01*
X59907Y63251D01*
X59939Y63238D01*
X59971Y63227D01*
X60005Y63218D01*
X60044Y63210D01*
X60124Y63195D01*
X60164Y63193D01*
X60207Y63190D01*
X60220D01*
X60236Y63193D01*
X60255D01*
X60278Y63195D01*
X60306Y63199D01*
X60337Y63203D01*
X60371Y63210D01*
X60408Y63218D01*
X60444Y63229D01*
X60483Y63242D01*
X60524Y63259D01*
X60562Y63276D01*
X60603Y63298D01*
X60642Y63324D01*
X60678Y63352D01*
X60681Y63354D01*
X60687Y63360D01*
X60698Y63369D01*
X60711Y63382D01*
X60726Y63399D01*
X60745Y63420D01*
X60764Y63444D01*
X60786Y63472D01*
X60807Y63504D01*
X60829Y63539D01*
X60850Y63577D01*
X60872Y63620D01*
X60893Y63668D01*
X60913Y63717D01*
X60928Y63771D01*
X60943Y63829D01*
X61276Y63745D01*
Y63743D01*
X61274Y63741D01*
Y63734D01*
X61272Y63728D01*
X61265Y63706D01*
X61255Y63678D01*
X61244Y63644D01*
X61229Y63605D01*
X61209Y63560D01*
X61190Y63515D01*
X61164Y63466D01*
X61138Y63414D01*
X61106Y63362D01*
X61072Y63311D01*
X61033Y63259D01*
X60992Y63210D01*
X60947Y63165D01*
X60898Y63122D01*
X60896Y63119D01*
X60885Y63113D01*
X60870Y63102D01*
X60850Y63087D01*
X60822Y63072D01*
X60792Y63053D01*
X60756Y63033D01*
X60713Y63014D01*
X60668Y62995D01*
X60616Y62975D01*
X60562Y62956D01*
X60504Y62941D01*
X60442Y62926D01*
X60377Y62915D01*
X60306Y62909D01*
X60236Y62907D01*
X60218D01*
X60197Y62909D01*
X60169D01*
X60134Y62911D01*
X60094Y62915D01*
X60048Y62919D01*
X60001Y62928D01*
X59949Y62937D01*
X59896Y62947D01*
X59840Y62960D01*
X59784Y62975D01*
X59730Y62995D01*
X59674Y63016D01*
X59623Y63042D01*
X59573Y63070D01*
X59571Y63072D01*
X59562Y63079D01*
X59550Y63087D01*
X59532Y63100D01*
X59511Y63117D01*
X59485Y63139D01*
X59459Y63165D01*
X59429Y63193D01*
X59399Y63225D01*
X59367Y63259D01*
X59335Y63300D01*
X59302Y63343D01*
X59272Y63388D01*
X59242Y63440D01*
X59212Y63491D01*
X59186Y63550D01*
X59184Y63554D01*
X59180Y63564D01*
X59173Y63582D01*
X59167Y63603D01*
X59156Y63633D01*
X59145Y63668D01*
X59132Y63706D01*
X59122Y63752D01*
X59109Y63801D01*
X59096Y63853D01*
X59085Y63908D01*
X59077Y63967D01*
X59068Y64029D01*
X59062Y64091D01*
X59057Y64158D01*
X59055Y64224D01*
Y64227D01*
Y64229D01*
Y64242D01*
Y64263D01*
X59057Y64291D01*
X59059Y64324D01*
X59064Y64364D01*
X59068Y64407D01*
X59074Y64457D01*
X59081Y64508D01*
X59092Y64564D01*
X59102Y64620D01*
X59118Y64678D01*
X59135Y64736D01*
X59154Y64794D01*
X59178Y64852D01*
X59203Y64908D01*
X59206Y64912D01*
X59210Y64921D01*
X59219Y64936D01*
X59231Y64956D01*
X59246Y64981D01*
X59266Y65009D01*
X59287Y65039D01*
X59313Y65074D01*
X59341Y65108D01*
X59373Y65145D01*
X59408Y65184D01*
X59446Y65220D01*
X59487Y65257D01*
X59532Y65291D01*
X59580Y65323D01*
X59629Y65353D01*
X59633Y65355D01*
X59642Y65360D01*
X59657Y65368D01*
X59679Y65377D01*
X59704Y65388D01*
X59734Y65401D01*
X59769Y65416D01*
X59810Y65431D01*
X59853Y65444D01*
X59900Y65459D01*
X59949Y65472D01*
X60003Y65482D01*
X60059Y65491D01*
X60117Y65500D01*
X60177Y65504D01*
X60240Y65506D01*
X60257D01*
X60276Y65504D01*
D02*
G37*
G36*
X74645Y64809D02*
X74660D01*
X74679Y64807D01*
X74701Y64805D01*
X74748Y64797D01*
X74797Y64786D01*
X74851Y64771D01*
X74903Y64751D01*
X74905D01*
X74909Y64749D01*
X74916Y64745D01*
X74926Y64741D01*
X74950Y64728D01*
X74980Y64708D01*
X75015Y64687D01*
X75049Y64659D01*
X75081Y64629D01*
X75109Y64594D01*
X75111Y64590D01*
X75120Y64577D01*
X75133Y64558D01*
X75148Y64530D01*
X75163Y64498D01*
X75180Y64459D01*
X75193Y64416D01*
X75206Y64369D01*
Y64364D01*
X75208Y64360D01*
Y64351D01*
X75210Y64343D01*
X75212Y64330D01*
Y64315D01*
X75214Y64300D01*
X75217Y64280D01*
X75219Y64257D01*
Y64233D01*
X75221Y64205D01*
Y64175D01*
X75223Y64143D01*
Y64106D01*
Y64068D01*
Y62950D01*
X74914D01*
Y64057D01*
Y64059D01*
Y64065D01*
Y64074D01*
Y64087D01*
Y64104D01*
X74911Y64121D01*
X74909Y64162D01*
X74905Y64210D01*
X74898Y64255D01*
X74890Y64300D01*
X74883Y64319D01*
X74877Y64338D01*
Y64341D01*
X74875Y64343D01*
X74871Y64354D01*
X74860Y64371D01*
X74847Y64392D01*
X74830Y64416D01*
X74808Y64442D01*
X74780Y64468D01*
X74748Y64489D01*
X74744Y64491D01*
X74733Y64498D01*
X74714Y64506D01*
X74688Y64517D01*
X74655Y64528D01*
X74621Y64536D01*
X74580Y64543D01*
X74535Y64545D01*
X74516D01*
X74503Y64543D01*
X74486Y64541D01*
X74464Y64539D01*
X74443Y64534D01*
X74419Y64530D01*
X74365Y64515D01*
X74337Y64504D01*
X74309Y64491D01*
X74279Y64476D01*
X74251Y64461D01*
X74223Y64439D01*
X74195Y64418D01*
X74193Y64416D01*
X74189Y64412D01*
X74182Y64405D01*
X74174Y64392D01*
X74163Y64379D01*
X74150Y64360D01*
X74137Y64338D01*
X74124Y64313D01*
X74112Y64283D01*
X74099Y64248D01*
X74086Y64210D01*
X74075Y64164D01*
X74066Y64117D01*
X74060Y64063D01*
X74056Y64005D01*
X74054Y63943D01*
Y62950D01*
X73744D01*
Y64771D01*
X74023D01*
Y64511D01*
X74026Y64515D01*
X74032Y64523D01*
X74045Y64539D01*
X74060Y64558D01*
X74081Y64581D01*
X74107Y64605D01*
X74137Y64633D01*
X74172Y64661D01*
X74211Y64689D01*
X74253Y64717D01*
X74301Y64743D01*
X74352Y64764D01*
X74408Y64784D01*
X74468Y64799D01*
X74533Y64807D01*
X74602Y64811D01*
X74630D01*
X74645Y64809D01*
D02*
G37*
G36*
X71317D02*
X71329D01*
X71347Y64807D01*
X71366Y64803D01*
X71387Y64799D01*
X71435Y64788D01*
X71489Y64768D01*
X71547Y64745D01*
X71577Y64728D01*
X71607Y64710D01*
X71497Y64427D01*
X71495D01*
X71493Y64429D01*
X71486Y64433D01*
X71478Y64437D01*
X71456Y64448D01*
X71428Y64461D01*
X71394Y64472D01*
X71355Y64483D01*
X71314Y64491D01*
X71274Y64493D01*
X71256D01*
X71237Y64491D01*
X71213Y64485D01*
X71185Y64478D01*
X71153Y64468D01*
X71123Y64452D01*
X71091Y64431D01*
X71087Y64429D01*
X71078Y64420D01*
X71063Y64407D01*
X71048Y64388D01*
X71029Y64364D01*
X71009Y64334D01*
X70992Y64302D01*
X70977Y64263D01*
Y64261D01*
X70975Y64257D01*
X70973Y64246D01*
X70968Y64235D01*
X70966Y64218D01*
X70962Y64201D01*
X70957Y64179D01*
X70953Y64156D01*
X70947Y64130D01*
X70942Y64102D01*
X70936Y64042D01*
X70930Y63973D01*
X70927Y63902D01*
Y62950D01*
X70618D01*
Y64771D01*
X70897D01*
Y64493D01*
X70899Y64495D01*
X70902Y64502D01*
X70908Y64513D01*
X70915Y64526D01*
X70925Y64541D01*
X70936Y64558D01*
X70962Y64599D01*
X70992Y64642D01*
X71024Y64683D01*
X71056Y64721D01*
X71074Y64736D01*
X71091Y64749D01*
X71095Y64751D01*
X71106Y64760D01*
X71125Y64768D01*
X71149Y64781D01*
X71179Y64792D01*
X71213Y64803D01*
X71250Y64809D01*
X71289Y64811D01*
X71304D01*
X71317Y64809D01*
D02*
G37*
G36*
X76348D02*
X76369D01*
X76395Y64807D01*
X76421Y64803D01*
X76479Y64797D01*
X76541Y64786D01*
X76606Y64771D01*
X76668Y64749D01*
X76670D01*
X76674Y64747D01*
X76683Y64743D01*
X76694Y64738D01*
X76709Y64732D01*
X76724Y64723D01*
X76760Y64704D01*
X76799Y64680D01*
X76838Y64652D01*
X76876Y64618D01*
X76909Y64581D01*
Y64579D01*
X76913Y64577D01*
X76915Y64571D01*
X76922Y64562D01*
X76928Y64551D01*
X76934Y64539D01*
X76943Y64523D01*
X76952Y64506D01*
X76969Y64468D01*
X76986Y64418D01*
X77003Y64362D01*
X77016Y64300D01*
X76715Y64259D01*
Y64261D01*
Y64265D01*
X76713Y64272D01*
X76711Y64283D01*
X76702Y64308D01*
X76692Y64338D01*
X76676Y64373D01*
X76655Y64410D01*
X76629Y64446D01*
X76595Y64478D01*
X76593D01*
X76591Y64483D01*
X76584Y64485D01*
X76578Y64491D01*
X76567Y64498D01*
X76554Y64504D01*
X76539Y64511D01*
X76524Y64519D01*
X76483Y64532D01*
X76436Y64545D01*
X76380Y64553D01*
X76315Y64558D01*
X76281D01*
X76264Y64556D01*
X76242Y64553D01*
X76197Y64549D01*
X76148Y64541D01*
X76098Y64528D01*
X76051Y64511D01*
X76032Y64500D01*
X76012Y64487D01*
X76008Y64485D01*
X75997Y64474D01*
X75984Y64459D01*
X75967Y64439D01*
X75950Y64416D01*
X75937Y64388D01*
X75926Y64356D01*
X75922Y64321D01*
Y64319D01*
Y64311D01*
X75924Y64300D01*
X75926Y64285D01*
X75931Y64270D01*
X75937Y64250D01*
X75946Y64231D01*
X75958Y64214D01*
X75961Y64212D01*
X75965Y64205D01*
X75976Y64197D01*
X75989Y64186D01*
X76004Y64173D01*
X76025Y64158D01*
X76049Y64145D01*
X76077Y64132D01*
X76079D01*
X76087Y64128D01*
X76094Y64126D01*
X76105Y64123D01*
X76115Y64119D01*
X76128Y64115D01*
X76145Y64111D01*
X76165Y64104D01*
X76186Y64098D01*
X76212Y64091D01*
X76240Y64083D01*
X76272Y64074D01*
X76309Y64063D01*
X76350Y64052D01*
X76354D01*
X76365Y64048D01*
X76382Y64044D01*
X76403Y64038D01*
X76429Y64031D01*
X76461Y64022D01*
X76494Y64012D01*
X76530Y64001D01*
X76606Y63979D01*
X76681Y63954D01*
X76717Y63943D01*
X76752Y63930D01*
X76782Y63919D01*
X76808Y63908D01*
X76810D01*
X76814Y63906D01*
X76821Y63902D01*
X76829Y63898D01*
X76853Y63885D01*
X76881Y63868D01*
X76913Y63846D01*
X76947Y63818D01*
X76980Y63786D01*
X77010Y63747D01*
Y63745D01*
X77014Y63743D01*
X77016Y63736D01*
X77023Y63728D01*
X77027Y63717D01*
X77033Y63706D01*
X77048Y63674D01*
X77061Y63635D01*
X77074Y63590D01*
X77083Y63541D01*
X77085Y63483D01*
Y63481D01*
Y63476D01*
Y63468D01*
X77083Y63457D01*
Y63444D01*
X77081Y63427D01*
X77074Y63390D01*
X77064Y63345D01*
X77046Y63296D01*
X77025Y63244D01*
X76995Y63193D01*
Y63190D01*
X76990Y63186D01*
X76986Y63180D01*
X76977Y63171D01*
X76958Y63145D01*
X76928Y63115D01*
X76891Y63081D01*
X76846Y63046D01*
X76795Y63012D01*
X76735Y62982D01*
X76732D01*
X76726Y62980D01*
X76717Y62975D01*
X76705Y62971D01*
X76689Y62965D01*
X76670Y62958D01*
X76649Y62952D01*
X76623Y62945D01*
X76595Y62939D01*
X76567Y62932D01*
X76535Y62926D01*
X76500Y62919D01*
X76427Y62911D01*
X76350Y62909D01*
X76315D01*
X76292Y62911D01*
X76262Y62913D01*
X76227Y62917D01*
X76191Y62922D01*
X76150Y62928D01*
X76107Y62935D01*
X76062Y62945D01*
X76016Y62956D01*
X75971Y62971D01*
X75928Y62988D01*
X75885Y63008D01*
X75845Y63029D01*
X75808Y63055D01*
X75806Y63057D01*
X75799Y63061D01*
X75791Y63070D01*
X75778Y63083D01*
X75763Y63098D01*
X75746Y63117D01*
X75728Y63139D01*
X75709Y63165D01*
X75687Y63195D01*
X75668Y63227D01*
X75649Y63263D01*
X75630Y63302D01*
X75612Y63345D01*
X75595Y63393D01*
X75582Y63440D01*
X75571Y63494D01*
X75877Y63541D01*
Y63539D01*
X75879Y63532D01*
Y63524D01*
X75883Y63511D01*
X75885Y63496D01*
X75890Y63476D01*
X75902Y63436D01*
X75922Y63390D01*
X75948Y63343D01*
X75978Y63300D01*
X75997Y63279D01*
X76019Y63259D01*
X76021D01*
X76025Y63255D01*
X76032Y63251D01*
X76040Y63244D01*
X76053Y63238D01*
X76068Y63229D01*
X76085Y63221D01*
X76105Y63212D01*
X76126Y63201D01*
X76152Y63193D01*
X76178Y63184D01*
X76208Y63178D01*
X76240Y63171D01*
X76272Y63167D01*
X76309Y63165D01*
X76348Y63162D01*
X76367D01*
X76382Y63165D01*
X76399D01*
X76421Y63167D01*
X76442Y63169D01*
X76468Y63173D01*
X76517Y63184D01*
X76571Y63199D01*
X76621Y63221D01*
X76642Y63233D01*
X76664Y63248D01*
X76666D01*
X76668Y63253D01*
X76681Y63263D01*
X76696Y63283D01*
X76715Y63306D01*
X76735Y63337D01*
X76752Y63371D01*
X76762Y63408D01*
X76765Y63429D01*
X76767Y63450D01*
Y63453D01*
Y63455D01*
X76765Y63468D01*
X76762Y63487D01*
X76756Y63511D01*
X76745Y63537D01*
X76728Y63564D01*
X76707Y63592D01*
X76676Y63616D01*
X76674Y63618D01*
X76668Y63620D01*
X76664Y63623D01*
X76655Y63627D01*
X76642Y63633D01*
X76629Y63638D01*
X76612Y63644D01*
X76593Y63651D01*
X76571Y63659D01*
X76545Y63668D01*
X76515Y63676D01*
X76483Y63687D01*
X76446Y63698D01*
X76406Y63709D01*
X76360Y63719D01*
X76356D01*
X76345Y63724D01*
X76328Y63728D01*
X76305Y63734D01*
X76279Y63741D01*
X76247Y63749D01*
X76212Y63760D01*
X76173Y63771D01*
X76096Y63792D01*
X76019Y63818D01*
X75982Y63831D01*
X75948Y63844D01*
X75918Y63855D01*
X75890Y63868D01*
X75888D01*
X75883Y63870D01*
X75877Y63874D01*
X75868Y63878D01*
X75845Y63893D01*
X75817Y63913D01*
X75784Y63937D01*
X75750Y63967D01*
X75718Y64001D01*
X75690Y64040D01*
Y64042D01*
X75687Y64044D01*
X75683Y64050D01*
X75679Y64059D01*
X75668Y64083D01*
X75657Y64113D01*
X75644Y64149D01*
X75634Y64190D01*
X75625Y64237D01*
X75623Y64287D01*
Y64289D01*
Y64293D01*
Y64300D01*
Y64308D01*
X75625Y64330D01*
X75630Y64360D01*
X75636Y64394D01*
X75647Y64433D01*
X75660Y64472D01*
X75677Y64511D01*
Y64513D01*
X75679Y64515D01*
X75687Y64528D01*
X75700Y64547D01*
X75718Y64573D01*
X75739Y64599D01*
X75765Y64629D01*
X75795Y64657D01*
X75829Y64685D01*
X75834Y64687D01*
X75842Y64693D01*
X75859Y64704D01*
X75881Y64715D01*
X75909Y64730D01*
X75943Y64743D01*
X75982Y64758D01*
X76025Y64773D01*
X76027D01*
X76032Y64775D01*
X76038Y64777D01*
X76047Y64779D01*
X76060Y64781D01*
X76072Y64786D01*
X76105Y64792D01*
X76145Y64799D01*
X76191Y64805D01*
X76240Y64809D01*
X76294Y64811D01*
X76330D01*
X76348Y64809D01*
D02*
G37*
G36*
X66004Y62950D02*
X65662D01*
X64342Y64921D01*
Y62950D01*
X64024D01*
Y65463D01*
X64363D01*
X65686Y63487D01*
Y65463D01*
X66004D01*
Y62950D01*
D02*
G37*
G36*
X72619Y64809D02*
X72643D01*
X72669Y64807D01*
X72697Y64805D01*
X72755Y64799D01*
X72819Y64788D01*
X72882Y64775D01*
X72940Y64756D01*
X72942D01*
X72946Y64753D01*
X72955Y64749D01*
X72964Y64745D01*
X72989Y64734D01*
X73022Y64717D01*
X73056Y64698D01*
X73093Y64674D01*
X73127Y64646D01*
X73155Y64616D01*
X73157Y64612D01*
X73166Y64601D01*
X73178Y64584D01*
X73194Y64560D01*
X73209Y64530D01*
X73224Y64493D01*
X73239Y64452D01*
X73249Y64407D01*
Y64403D01*
X73252Y64392D01*
X73254Y64384D01*
X73256Y64371D01*
Y64358D01*
X73258Y64343D01*
X73260Y64324D01*
X73262Y64304D01*
Y64280D01*
X73264Y64255D01*
Y64224D01*
X73267Y64194D01*
Y64160D01*
Y64123D01*
Y63711D01*
Y63709D01*
Y63706D01*
Y63700D01*
Y63691D01*
Y63670D01*
Y63642D01*
Y63608D01*
X73269Y63569D01*
Y63526D01*
Y63481D01*
X73271Y63388D01*
X73273Y63343D01*
X73275Y63300D01*
X73277Y63259D01*
X73280Y63223D01*
X73282Y63193D01*
X73286Y63167D01*
Y63165D01*
Y63162D01*
X73288Y63156D01*
X73290Y63147D01*
X73295Y63126D01*
X73303Y63098D01*
X73314Y63064D01*
X73327Y63027D01*
X73344Y62988D01*
X73363Y62950D01*
X73041D01*
Y62952D01*
X73039Y62954D01*
X73034Y62967D01*
X73026Y62986D01*
X73015Y63014D01*
X73006Y63046D01*
X72996Y63083D01*
X72987Y63126D01*
X72981Y63173D01*
X72979Y63171D01*
X72972Y63167D01*
X72964Y63160D01*
X72951Y63149D01*
X72935Y63137D01*
X72918Y63124D01*
X72897Y63109D01*
X72875Y63094D01*
X72824Y63059D01*
X72768Y63025D01*
X72710Y62993D01*
X72650Y62967D01*
X72647D01*
X72643Y62965D01*
X72635Y62963D01*
X72622Y62958D01*
X72607Y62954D01*
X72589Y62947D01*
X72570Y62943D01*
X72546Y62939D01*
X72497Y62928D01*
X72439Y62917D01*
X72374Y62911D01*
X72308Y62909D01*
X72280D01*
X72258Y62911D01*
X72235Y62913D01*
X72205Y62917D01*
X72172Y62922D01*
X72138Y62928D01*
X72065Y62945D01*
X72026Y62956D01*
X71987Y62971D01*
X71951Y62988D01*
X71914Y63008D01*
X71880Y63029D01*
X71848Y63055D01*
X71846Y63057D01*
X71841Y63061D01*
X71833Y63070D01*
X71822Y63081D01*
X71811Y63096D01*
X71796Y63113D01*
X71783Y63134D01*
X71768Y63156D01*
X71753Y63182D01*
X71738Y63210D01*
X71723Y63242D01*
X71712Y63274D01*
X71701Y63311D01*
X71693Y63347D01*
X71688Y63388D01*
X71686Y63429D01*
Y63431D01*
Y63436D01*
Y63442D01*
Y63453D01*
X71688Y63463D01*
X71691Y63476D01*
X71695Y63509D01*
X71701Y63547D01*
X71712Y63588D01*
X71727Y63631D01*
X71747Y63672D01*
Y63674D01*
X71749Y63676D01*
X71753Y63683D01*
X71757Y63691D01*
X71770Y63711D01*
X71790Y63736D01*
X71811Y63764D01*
X71839Y63795D01*
X71871Y63825D01*
X71906Y63850D01*
X71908D01*
X71910Y63853D01*
X71923Y63861D01*
X71944Y63874D01*
X71970Y63889D01*
X72005Y63906D01*
X72041Y63921D01*
X72084Y63939D01*
X72129Y63951D01*
X72134Y63954D01*
X72146Y63956D01*
X72168Y63960D01*
X72198Y63967D01*
X72235Y63975D01*
X72258Y63977D01*
X72282Y63982D01*
X72310Y63986D01*
X72338Y63990D01*
X72370Y63994D01*
X72402Y63999D01*
X72407D01*
X72420Y64001D01*
X72439Y64003D01*
X72465Y64007D01*
X72495Y64012D01*
X72529Y64016D01*
X72570Y64022D01*
X72611Y64029D01*
X72701Y64044D01*
X72794Y64063D01*
X72837Y64074D01*
X72880Y64085D01*
X72918Y64096D01*
X72955Y64106D01*
Y64109D01*
Y64117D01*
Y64128D01*
X72957Y64141D01*
Y64166D01*
Y64177D01*
Y64186D01*
Y64188D01*
Y64194D01*
Y64203D01*
X72955Y64216D01*
Y64231D01*
X72953Y64248D01*
X72946Y64289D01*
X72935Y64332D01*
X72921Y64377D01*
X72899Y64416D01*
X72884Y64435D01*
X72869Y64450D01*
X72867Y64452D01*
X72862Y64455D01*
X72856Y64461D01*
X72847Y64468D01*
X72834Y64474D01*
X72819Y64485D01*
X72802Y64493D01*
X72781Y64504D01*
X72757Y64513D01*
X72731Y64523D01*
X72701Y64532D01*
X72671Y64539D01*
X72637Y64547D01*
X72598Y64551D01*
X72559Y64553D01*
X72516Y64556D01*
X72495D01*
X72480Y64553D01*
X72462D01*
X72441Y64551D01*
X72420Y64549D01*
X72394Y64547D01*
X72342Y64536D01*
X72288Y64523D01*
X72237Y64504D01*
X72215Y64491D01*
X72194Y64478D01*
X72192D01*
X72189Y64474D01*
X72177Y64463D01*
X72159Y64444D01*
X72149Y64431D01*
X72136Y64416D01*
X72123Y64399D01*
X72112Y64379D01*
X72099Y64358D01*
X72086Y64334D01*
X72073Y64306D01*
X72063Y64276D01*
X72052Y64244D01*
X72041Y64210D01*
X71740Y64250D01*
Y64253D01*
X71742Y64259D01*
X71744Y64270D01*
X71749Y64283D01*
X71753Y64300D01*
X71757Y64317D01*
X71764Y64338D01*
X71772Y64362D01*
X71792Y64412D01*
X71813Y64463D01*
X71841Y64515D01*
X71873Y64562D01*
X71876Y64564D01*
X71878Y64566D01*
X71884Y64573D01*
X71891Y64581D01*
X71901Y64592D01*
X71912Y64603D01*
X71942Y64631D01*
X71981Y64661D01*
X72028Y64691D01*
X72084Y64721D01*
X72146Y64747D01*
X72149D01*
X72155Y64749D01*
X72164Y64753D01*
X72179Y64758D01*
X72196Y64762D01*
X72215Y64768D01*
X72239Y64773D01*
X72265Y64779D01*
X72295Y64786D01*
X72327Y64792D01*
X72361Y64797D01*
X72396Y64801D01*
X72475Y64809D01*
X72561Y64811D01*
X72600D01*
X72619Y64809D01*
D02*
G37*
G36*
X70319Y65166D02*
X69487D01*
Y62950D01*
X69154D01*
Y65166D01*
X68326D01*
Y65463D01*
X70319D01*
Y65166D01*
D02*
G37*
G36*
X63764Y62950D02*
X63385D01*
X63093Y63711D01*
X62037D01*
X61764Y62950D01*
X61411D01*
X62375Y65463D01*
X62736D01*
X63764Y62950D01*
D02*
G37*
G36*
X68283Y62251D02*
X66238D01*
Y62475D01*
X68283D01*
Y62251D01*
D02*
G37*
G36*
X22956Y43632D02*
Y42567D01*
X22623D01*
Y43632D01*
X21654Y45081D01*
X22058D01*
X22552Y44322D01*
X22554Y44320D01*
X22559Y44313D01*
X22565Y44300D01*
X22576Y44285D01*
X22589Y44266D01*
X22602Y44244D01*
X22619Y44219D01*
X22636Y44191D01*
X22655Y44158D01*
X22677Y44126D01*
X22720Y44055D01*
X22765Y43978D01*
X22810Y43898D01*
X22812Y43900D01*
X22815Y43907D01*
X22821Y43918D01*
X22830Y43933D01*
X22842Y43952D01*
X22855Y43973D01*
X22870Y43999D01*
X22888Y44027D01*
X22907Y44057D01*
X22929Y44092D01*
X22950Y44128D01*
X22974Y44167D01*
X23027Y44251D01*
X23085Y44341D01*
X23571Y45081D01*
X23958D01*
X22956Y43632D01*
D02*
G37*
G36*
X24999Y45089D02*
X25025D01*
X25055Y45085D01*
X25089Y45081D01*
X25130Y45074D01*
X25171Y45066D01*
X25216Y45055D01*
X25263Y45042D01*
X25311Y45025D01*
X25358Y45006D01*
X25405Y44984D01*
X25450Y44956D01*
X25496Y44926D01*
X25536Y44889D01*
X25539Y44887D01*
X25545Y44881D01*
X25556Y44870D01*
X25571Y44853D01*
X25586Y44833D01*
X25603Y44810D01*
X25622Y44784D01*
X25644Y44752D01*
X25663Y44717D01*
X25683Y44681D01*
X25700Y44640D01*
X25717Y44595D01*
X25730Y44550D01*
X25741Y44500D01*
X25747Y44447D01*
X25749Y44393D01*
Y44391D01*
Y44386D01*
Y44378D01*
Y44367D01*
X25747Y44354D01*
Y44337D01*
X25745Y44320D01*
X25741Y44300D01*
X25734Y44255D01*
X25723Y44204D01*
X25708Y44150D01*
X25687Y44096D01*
Y44094D01*
X25685Y44090D01*
X25681Y44081D01*
X25674Y44070D01*
X25668Y44057D01*
X25659Y44042D01*
X25650Y44023D01*
X25638Y44004D01*
X25609Y43956D01*
X25573Y43905D01*
X25530Y43849D01*
X25480Y43789D01*
X25478Y43786D01*
X25474Y43782D01*
X25466Y43771D01*
X25453Y43758D01*
X25438Y43744D01*
X25418Y43722D01*
X25394Y43701D01*
X25369Y43672D01*
X25336Y43642D01*
X25302Y43610D01*
X25263Y43574D01*
X25220Y43533D01*
X25175Y43492D01*
X25124Y43445D01*
X25068Y43397D01*
X25008Y43346D01*
X25005Y43344D01*
X24995Y43335D01*
X24982Y43324D01*
X24962Y43309D01*
X24941Y43290D01*
X24915Y43268D01*
X24887Y43245D01*
X24859Y43219D01*
X24799Y43167D01*
X24741Y43113D01*
X24713Y43090D01*
X24689Y43068D01*
X24668Y43047D01*
X24651Y43030D01*
X24646Y43025D01*
X24638Y43015D01*
X24623Y43000D01*
X24605Y42978D01*
X24584Y42954D01*
X24563Y42926D01*
X24541Y42896D01*
X24520Y42864D01*
X25754D01*
Y42567D01*
X24092D01*
Y42570D01*
Y42572D01*
Y42578D01*
Y42587D01*
Y42608D01*
X24094Y42636D01*
X24098Y42669D01*
X24104Y42703D01*
X24113Y42742D01*
X24126Y42780D01*
Y42782D01*
X24128Y42789D01*
X24133Y42797D01*
X24139Y42810D01*
X24145Y42825D01*
X24154Y42843D01*
X24165Y42864D01*
X24175Y42886D01*
X24203Y42937D01*
X24240Y42993D01*
X24281Y43053D01*
X24330Y43113D01*
X24332Y43116D01*
X24337Y43122D01*
X24345Y43131D01*
X24356Y43144D01*
X24371Y43159D01*
X24388Y43178D01*
X24410Y43200D01*
X24433Y43223D01*
X24459Y43251D01*
X24489Y43279D01*
X24524Y43311D01*
X24560Y43344D01*
X24599Y43380D01*
X24642Y43417D01*
X24687Y43455D01*
X24735Y43494D01*
X24737D01*
X24739Y43498D01*
X24752Y43509D01*
X24773Y43526D01*
X24801Y43550D01*
X24833Y43578D01*
X24872Y43612D01*
X24913Y43649D01*
X24956Y43688D01*
X25003Y43728D01*
X25048Y43774D01*
X25096Y43817D01*
X25141Y43862D01*
X25182Y43905D01*
X25223Y43948D01*
X25257Y43989D01*
X25287Y44027D01*
X25289Y44029D01*
X25293Y44036D01*
X25300Y44047D01*
X25311Y44062D01*
X25321Y44079D01*
X25332Y44098D01*
X25345Y44122D01*
X25360Y44148D01*
X25386Y44206D01*
X25409Y44268D01*
X25418Y44300D01*
X25425Y44333D01*
X25429Y44367D01*
X25431Y44399D01*
Y44401D01*
Y44408D01*
Y44416D01*
X25429Y44429D01*
X25427Y44447D01*
X25425Y44464D01*
X25420Y44485D01*
X25414Y44507D01*
X25399Y44556D01*
X25388Y44580D01*
X25375Y44608D01*
X25360Y44634D01*
X25343Y44659D01*
X25324Y44685D01*
X25300Y44709D01*
X25298Y44711D01*
X25293Y44715D01*
X25287Y44720D01*
X25276Y44728D01*
X25263Y44739D01*
X25248Y44750D01*
X25229Y44760D01*
X25207Y44773D01*
X25184Y44784D01*
X25158Y44795D01*
X25130Y44806D01*
X25100Y44816D01*
X25068Y44825D01*
X25033Y44829D01*
X24997Y44833D01*
X24958Y44836D01*
X24937D01*
X24922Y44833D01*
X24902Y44831D01*
X24881Y44829D01*
X24857Y44825D01*
X24829Y44818D01*
X24773Y44803D01*
X24743Y44793D01*
X24713Y44778D01*
X24683Y44763D01*
X24655Y44745D01*
X24627Y44724D01*
X24601Y44700D01*
X24599Y44698D01*
X24595Y44694D01*
X24588Y44687D01*
X24580Y44677D01*
X24571Y44662D01*
X24558Y44646D01*
X24547Y44627D01*
X24534Y44603D01*
X24522Y44580D01*
X24511Y44552D01*
X24498Y44522D01*
X24489Y44489D01*
X24481Y44453D01*
X24474Y44416D01*
X24470Y44376D01*
X24468Y44333D01*
X24150Y44365D01*
Y44369D01*
X24152Y44380D01*
X24154Y44399D01*
X24158Y44423D01*
X24165Y44453D01*
X24171Y44487D01*
X24180Y44524D01*
X24193Y44565D01*
X24205Y44608D01*
X24223Y44653D01*
X24242Y44698D01*
X24266Y44743D01*
X24292Y44786D01*
X24322Y44829D01*
X24356Y44868D01*
X24393Y44905D01*
X24395Y44907D01*
X24403Y44913D01*
X24414Y44922D01*
X24431Y44935D01*
X24453Y44947D01*
X24479Y44965D01*
X24509Y44980D01*
X24543Y44999D01*
X24582Y45016D01*
X24625Y45033D01*
X24672Y45048D01*
X24724Y45061D01*
X24777Y45074D01*
X24838Y45083D01*
X24900Y45089D01*
X24964Y45092D01*
X24980D01*
X24999Y45089D01*
D02*
G37*
G36*
X14468Y24604D02*
X14500Y24602D01*
X14541Y24598D01*
X14584Y24593D01*
X14633Y24587D01*
X14685Y24580D01*
X14740Y24570D01*
X14796Y24559D01*
X14854Y24544D01*
X14912Y24527D01*
X14971Y24508D01*
X15029Y24484D01*
X15085Y24458D01*
X15089Y24456D01*
X15097Y24452D01*
X15112Y24443D01*
X15132Y24430D01*
X15158Y24415D01*
X15186Y24396D01*
X15216Y24374D01*
X15250Y24348D01*
X15284Y24320D01*
X15321Y24288D01*
X15360Y24254D01*
X15396Y24215D01*
X15433Y24174D01*
X15467Y24129D01*
X15499Y24082D01*
X15530Y24032D01*
X15532Y24028D01*
X15536Y24019D01*
X15545Y24004D01*
X15553Y23983D01*
X15564Y23957D01*
X15577Y23927D01*
X15592Y23892D01*
X15607Y23852D01*
X15620Y23809D01*
X15635Y23761D01*
X15648Y23712D01*
X15659Y23658D01*
X15667Y23602D01*
X15676Y23544D01*
X15680Y23484D01*
X15682Y23422D01*
Y23404D01*
X15680Y23385D01*
Y23359D01*
X15676Y23327D01*
X15672Y23288D01*
X15665Y23248D01*
X15659Y23202D01*
X15648Y23153D01*
X15635Y23101D01*
X15620Y23050D01*
X15600Y22996D01*
X15579Y22942D01*
X15553Y22891D01*
X15523Y22839D01*
X15489Y22790D01*
X15487Y22787D01*
X15480Y22779D01*
X15469Y22766D01*
X15454Y22747D01*
X15433Y22727D01*
X15409Y22701D01*
X15381Y22676D01*
X15349Y22648D01*
X15312Y22618D01*
X15274Y22588D01*
X15229Y22557D01*
X15181Y22527D01*
X15127Y22499D01*
X15072Y22474D01*
X15014Y22450D01*
X14949Y22428D01*
X14872Y22755D01*
X14874D01*
X14885Y22760D01*
X14897Y22764D01*
X14917Y22772D01*
X14938Y22781D01*
X14966Y22792D01*
X14994Y22805D01*
X15024Y22820D01*
X15091Y22856D01*
X15158Y22899D01*
X15188Y22925D01*
X15218Y22951D01*
X15246Y22981D01*
X15272Y23011D01*
X15274Y23013D01*
X15278Y23020D01*
X15282Y23028D01*
X15291Y23041D01*
X15302Y23056D01*
X15312Y23078D01*
X15323Y23099D01*
X15336Y23125D01*
X15347Y23153D01*
X15358Y23185D01*
X15368Y23220D01*
X15379Y23256D01*
X15388Y23297D01*
X15392Y23338D01*
X15396Y23383D01*
X15398Y23428D01*
Y23456D01*
X15396Y23475D01*
X15394Y23501D01*
X15392Y23529D01*
X15388Y23561D01*
X15381Y23598D01*
X15373Y23634D01*
X15364Y23673D01*
X15353Y23714D01*
X15340Y23755D01*
X15323Y23796D01*
X15304Y23837D01*
X15282Y23875D01*
X15259Y23914D01*
X15257Y23916D01*
X15252Y23923D01*
X15244Y23933D01*
X15233Y23946D01*
X15220Y23961D01*
X15203Y23979D01*
X15181Y24000D01*
X15160Y24022D01*
X15134Y24043D01*
X15106Y24067D01*
X15076Y24088D01*
X15042Y24112D01*
X15007Y24133D01*
X14968Y24153D01*
X14928Y24170D01*
X14885Y24187D01*
X14882D01*
X14874Y24191D01*
X14861Y24193D01*
X14844Y24200D01*
X14822Y24204D01*
X14796Y24211D01*
X14769Y24219D01*
X14736Y24226D01*
X14702Y24232D01*
X14663Y24241D01*
X14624Y24247D01*
X14584Y24252D01*
X14495Y24260D01*
X14403Y24264D01*
X14399D01*
X14388D01*
X14371D01*
X14349Y24262D01*
X14321D01*
X14289Y24260D01*
X14253Y24256D01*
X14212Y24254D01*
X14169Y24247D01*
X14123Y24241D01*
X14031Y24226D01*
X13934Y24202D01*
X13887Y24189D01*
X13842Y24172D01*
X13840Y24170D01*
X13831Y24168D01*
X13818Y24161D01*
X13803Y24155D01*
X13784Y24144D01*
X13760Y24133D01*
X13734Y24118D01*
X13709Y24101D01*
X13678Y24082D01*
X13650Y24060D01*
X13620Y24037D01*
X13590Y24011D01*
X13562Y23983D01*
X13534Y23951D01*
X13509Y23918D01*
X13485Y23882D01*
X13483Y23880D01*
X13481Y23873D01*
X13474Y23863D01*
X13466Y23847D01*
X13457Y23828D01*
X13448Y23807D01*
X13438Y23783D01*
X13427Y23755D01*
X13414Y23723D01*
X13403Y23690D01*
X13395Y23656D01*
X13386Y23617D01*
X13371Y23538D01*
X13369Y23497D01*
X13367Y23454D01*
Y23441D01*
X13369Y23426D01*
Y23407D01*
X13371Y23383D01*
X13375Y23355D01*
X13380Y23325D01*
X13386Y23291D01*
X13395Y23254D01*
X13405Y23217D01*
X13418Y23179D01*
X13435Y23138D01*
X13453Y23099D01*
X13474Y23058D01*
X13500Y23020D01*
X13528Y22983D01*
X13530Y22981D01*
X13536Y22975D01*
X13545Y22964D01*
X13558Y22951D01*
X13575Y22936D01*
X13597Y22917D01*
X13620Y22897D01*
X13648Y22876D01*
X13681Y22854D01*
X13715Y22833D01*
X13754Y22811D01*
X13797Y22790D01*
X13844Y22768D01*
X13893Y22749D01*
X13947Y22734D01*
X14005Y22719D01*
X13921Y22385D01*
X13919D01*
X13917Y22388D01*
X13911D01*
X13904Y22390D01*
X13883Y22396D01*
X13855Y22407D01*
X13820Y22418D01*
X13782Y22433D01*
X13736Y22452D01*
X13691Y22471D01*
X13642Y22497D01*
X13590Y22523D01*
X13539Y22555D01*
X13487Y22590D01*
X13435Y22628D01*
X13386Y22669D01*
X13341Y22714D01*
X13298Y22764D01*
X13296Y22766D01*
X13289Y22777D01*
X13279Y22792D01*
X13263Y22811D01*
X13248Y22839D01*
X13229Y22869D01*
X13210Y22906D01*
X13190Y22949D01*
X13171Y22994D01*
X13152Y23045D01*
X13132Y23099D01*
X13117Y23157D01*
X13102Y23220D01*
X13092Y23284D01*
X13085Y23355D01*
X13083Y23426D01*
Y23443D01*
X13085Y23465D01*
Y23493D01*
X13087Y23527D01*
X13092Y23568D01*
X13096Y23613D01*
X13104Y23660D01*
X13113Y23712D01*
X13124Y23766D01*
X13137Y23822D01*
X13152Y23877D01*
X13171Y23931D01*
X13193Y23987D01*
X13218Y24039D01*
X13246Y24088D01*
X13248Y24090D01*
X13255Y24099D01*
X13263Y24112D01*
X13276Y24129D01*
X13294Y24151D01*
X13315Y24176D01*
X13341Y24202D01*
X13369Y24232D01*
X13401Y24262D01*
X13435Y24295D01*
X13476Y24327D01*
X13519Y24359D01*
X13565Y24389D01*
X13616Y24419D01*
X13668Y24449D01*
X13726Y24475D01*
X13730Y24477D01*
X13741Y24482D01*
X13758Y24488D01*
X13780Y24495D01*
X13810Y24505D01*
X13844Y24516D01*
X13883Y24529D01*
X13928Y24540D01*
X13977Y24553D01*
X14029Y24566D01*
X14085Y24576D01*
X14143Y24585D01*
X14205Y24593D01*
X14267Y24600D01*
X14334Y24604D01*
X14401Y24606D01*
X14403D01*
X14405D01*
X14418D01*
X14439D01*
X14468Y24604D01*
D02*
G37*
G36*
X13812Y21775D02*
X13810D01*
X13801Y21773D01*
X13788Y21770D01*
X13773Y21768D01*
X13754Y21762D01*
X13730Y21758D01*
X13704Y21749D01*
X13678Y21740D01*
X13620Y21719D01*
X13560Y21691D01*
X13504Y21654D01*
X13478Y21633D01*
X13455Y21609D01*
X13453Y21607D01*
X13451Y21603D01*
X13444Y21596D01*
X13435Y21586D01*
X13427Y21573D01*
X13418Y21558D01*
X13408Y21541D01*
X13397Y21521D01*
X13384Y21497D01*
X13373Y21474D01*
X13356Y21420D01*
X13341Y21360D01*
X13339Y21328D01*
X13337Y21293D01*
Y21283D01*
X13339Y21272D01*
Y21254D01*
X13341Y21235D01*
X13345Y21214D01*
X13352Y21188D01*
X13358Y21162D01*
X13367Y21132D01*
X13377Y21102D01*
X13390Y21070D01*
X13408Y21037D01*
X13427Y21007D01*
X13448Y20975D01*
X13474Y20945D01*
X13504Y20915D01*
X13506Y20913D01*
X13513Y20908D01*
X13521Y20900D01*
X13534Y20891D01*
X13552Y20878D01*
X13573Y20865D01*
X13597Y20852D01*
X13623Y20837D01*
X13653Y20822D01*
X13687Y20809D01*
X13724Y20797D01*
X13762Y20784D01*
X13805Y20775D01*
X13850Y20766D01*
X13898Y20762D01*
X13949Y20760D01*
X13951D01*
X13960D01*
X13975D01*
X13992Y20762D01*
X14016Y20764D01*
X14042Y20769D01*
X14070Y20773D01*
X14100Y20779D01*
X14134Y20786D01*
X14166Y20797D01*
X14203Y20807D01*
X14237Y20822D01*
X14272Y20840D01*
X14304Y20859D01*
X14336Y20883D01*
X14366Y20908D01*
X14369Y20910D01*
X14373Y20915D01*
X14381Y20923D01*
X14390Y20934D01*
X14403Y20949D01*
X14416Y20968D01*
X14429Y20988D01*
X14444Y21012D01*
X14459Y21039D01*
X14472Y21067D01*
X14485Y21100D01*
X14498Y21134D01*
X14506Y21173D01*
X14515Y21212D01*
X14519Y21252D01*
X14521Y21297D01*
Y21323D01*
X14519Y21336D01*
X14517Y21351D01*
X14513Y21388D01*
X14504Y21429D01*
X14493Y21476D01*
X14476Y21521D01*
X14452Y21568D01*
Y21571D01*
X14450Y21573D01*
X14446Y21579D01*
X14439Y21588D01*
X14424Y21609D01*
X14405Y21635D01*
X14379Y21665D01*
X14349Y21695D01*
X14315Y21725D01*
X14276Y21753D01*
X14315Y22043D01*
X15607Y21801D01*
Y20551D01*
X15312D01*
Y21555D01*
X14635Y21691D01*
X14637Y21689D01*
X14642Y21680D01*
X14650Y21667D01*
X14661Y21652D01*
X14672Y21631D01*
X14685Y21605D01*
X14700Y21577D01*
X14715Y21547D01*
X14730Y21512D01*
X14745Y21474D01*
X14758Y21435D01*
X14769Y21394D01*
X14779Y21351D01*
X14788Y21306D01*
X14792Y21261D01*
X14794Y21216D01*
Y21201D01*
X14792Y21183D01*
X14790Y21160D01*
X14788Y21132D01*
X14781Y21100D01*
X14775Y21063D01*
X14766Y21022D01*
X14753Y20981D01*
X14738Y20936D01*
X14719Y20889D01*
X14697Y20844D01*
X14672Y20797D01*
X14639Y20749D01*
X14605Y20704D01*
X14564Y20661D01*
X14562Y20659D01*
X14554Y20650D01*
X14541Y20640D01*
X14523Y20625D01*
X14500Y20607D01*
X14474Y20588D01*
X14442Y20569D01*
X14405Y20547D01*
X14364Y20526D01*
X14321Y20506D01*
X14272Y20487D01*
X14220Y20470D01*
X14164Y20455D01*
X14106Y20444D01*
X14044Y20435D01*
X13977Y20433D01*
X13973D01*
X13962D01*
X13945Y20435D01*
X13919D01*
X13891Y20440D01*
X13857Y20444D01*
X13818Y20450D01*
X13775Y20459D01*
X13730Y20470D01*
X13683Y20483D01*
X13635Y20498D01*
X13584Y20517D01*
X13534Y20541D01*
X13485Y20567D01*
X13435Y20599D01*
X13388Y20633D01*
X13384Y20635D01*
X13375Y20644D01*
X13360Y20659D01*
X13341Y20678D01*
X13317Y20702D01*
X13291Y20732D01*
X13263Y20766D01*
X13236Y20805D01*
X13208Y20850D01*
X13180Y20900D01*
X13154Y20954D01*
X13130Y21014D01*
X13111Y21076D01*
X13096Y21145D01*
X13087Y21216D01*
X13083Y21293D01*
Y21308D01*
X13085Y21326D01*
Y21349D01*
X13089Y21379D01*
X13094Y21414D01*
X13098Y21450D01*
X13106Y21491D01*
X13117Y21534D01*
X13130Y21579D01*
X13145Y21626D01*
X13165Y21674D01*
X13186Y21719D01*
X13212Y21766D01*
X13240Y21809D01*
X13274Y21852D01*
X13276Y21854D01*
X13283Y21861D01*
X13294Y21871D01*
X13309Y21887D01*
X13328Y21904D01*
X13352Y21923D01*
X13380Y21942D01*
X13410Y21964D01*
X13444Y21985D01*
X13483Y22007D01*
X13524Y22028D01*
X13571Y22048D01*
X13618Y22065D01*
X13670Y22080D01*
X13726Y22091D01*
X13784Y22099D01*
X13812Y21775D01*
D02*
G37*
G36*
X30215Y24604D02*
X30248Y24602D01*
X30289Y24598D01*
X30332Y24593D01*
X30381Y24587D01*
X30433Y24581D01*
X30489Y24570D01*
X30544Y24559D01*
X30602Y24544D01*
X30661Y24527D01*
X30719Y24508D01*
X30777Y24484D01*
X30833Y24458D01*
X30837Y24456D01*
X30845Y24452D01*
X30860Y24443D01*
X30880Y24430D01*
X30906Y24415D01*
X30934Y24396D01*
X30964Y24374D01*
X30998Y24348D01*
X31032Y24320D01*
X31069Y24288D01*
X31108Y24254D01*
X31144Y24215D01*
X31181Y24174D01*
X31215Y24129D01*
X31247Y24082D01*
X31278Y24032D01*
X31280Y24028D01*
X31284Y24019D01*
X31293Y24004D01*
X31301Y23983D01*
X31312Y23957D01*
X31325Y23927D01*
X31340Y23893D01*
X31355Y23852D01*
X31368Y23809D01*
X31383Y23761D01*
X31396Y23712D01*
X31407Y23658D01*
X31415Y23602D01*
X31424Y23544D01*
X31428Y23484D01*
X31430Y23422D01*
Y23404D01*
X31428Y23385D01*
Y23359D01*
X31424Y23327D01*
X31420Y23288D01*
X31413Y23248D01*
X31407Y23202D01*
X31396Y23153D01*
X31383Y23101D01*
X31368Y23050D01*
X31349Y22996D01*
X31327Y22942D01*
X31301Y22891D01*
X31271Y22839D01*
X31237Y22790D01*
X31235Y22787D01*
X31228Y22779D01*
X31217Y22766D01*
X31202Y22747D01*
X31181Y22727D01*
X31157Y22702D01*
X31129Y22676D01*
X31097Y22648D01*
X31060Y22618D01*
X31022Y22588D01*
X30977Y22557D01*
X30929Y22527D01*
X30876Y22499D01*
X30820Y22474D01*
X30762Y22450D01*
X30697Y22428D01*
X30620Y22755D01*
X30622D01*
X30633Y22760D01*
X30645Y22764D01*
X30665Y22772D01*
X30686Y22781D01*
X30714Y22792D01*
X30742Y22805D01*
X30772Y22820D01*
X30839Y22856D01*
X30906Y22899D01*
X30936Y22925D01*
X30966Y22951D01*
X30994Y22981D01*
X31020Y23011D01*
X31022Y23013D01*
X31026Y23020D01*
X31030Y23028D01*
X31039Y23041D01*
X31050Y23056D01*
X31060Y23078D01*
X31071Y23099D01*
X31084Y23125D01*
X31095Y23153D01*
X31106Y23185D01*
X31116Y23220D01*
X31127Y23256D01*
X31136Y23297D01*
X31140Y23338D01*
X31144Y23383D01*
X31146Y23428D01*
Y23456D01*
X31144Y23475D01*
X31142Y23501D01*
X31140Y23529D01*
X31136Y23562D01*
X31129Y23598D01*
X31121Y23635D01*
X31112Y23673D01*
X31101Y23714D01*
X31088Y23755D01*
X31071Y23796D01*
X31052Y23837D01*
X31030Y23875D01*
X31007Y23914D01*
X31005Y23916D01*
X31000Y23923D01*
X30992Y23933D01*
X30981Y23946D01*
X30968Y23961D01*
X30951Y23979D01*
X30929Y24000D01*
X30908Y24022D01*
X30882Y24043D01*
X30854Y24067D01*
X30824Y24088D01*
X30790Y24112D01*
X30755Y24133D01*
X30716Y24153D01*
X30676Y24170D01*
X30633Y24187D01*
X30630D01*
X30622Y24191D01*
X30609Y24194D01*
X30592Y24200D01*
X30570Y24204D01*
X30544Y24211D01*
X30516Y24219D01*
X30484Y24226D01*
X30450Y24232D01*
X30411Y24241D01*
X30373Y24247D01*
X30332Y24252D01*
X30244Y24260D01*
X30151Y24264D01*
X30147D01*
X30136D01*
X30119D01*
X30097Y24262D01*
X30069D01*
X30037Y24260D01*
X30000Y24256D01*
X29960Y24254D01*
X29917Y24247D01*
X29871Y24241D01*
X29779Y24226D01*
X29682Y24202D01*
X29635Y24189D01*
X29590Y24172D01*
X29588Y24170D01*
X29579Y24168D01*
X29566Y24161D01*
X29551Y24155D01*
X29532Y24144D01*
X29508Y24133D01*
X29482Y24118D01*
X29457Y24101D01*
X29427Y24082D01*
X29399Y24060D01*
X29368Y24037D01*
X29338Y24011D01*
X29310Y23983D01*
X29282Y23951D01*
X29257Y23918D01*
X29233Y23882D01*
X29231Y23880D01*
X29229Y23873D01*
X29222Y23863D01*
X29214Y23847D01*
X29205Y23828D01*
X29196Y23807D01*
X29186Y23783D01*
X29175Y23755D01*
X29162Y23723D01*
X29151Y23690D01*
X29143Y23656D01*
X29134Y23617D01*
X29119Y23538D01*
X29117Y23497D01*
X29115Y23454D01*
Y23441D01*
X29117Y23426D01*
Y23407D01*
X29119Y23383D01*
X29123Y23355D01*
X29128Y23325D01*
X29134Y23291D01*
X29143Y23254D01*
X29153Y23217D01*
X29166Y23179D01*
X29184Y23138D01*
X29201Y23099D01*
X29222Y23058D01*
X29248Y23020D01*
X29276Y22983D01*
X29278Y22981D01*
X29285Y22975D01*
X29293Y22964D01*
X29306Y22951D01*
X29323Y22936D01*
X29345Y22917D01*
X29368Y22897D01*
X29396Y22876D01*
X29429Y22854D01*
X29463Y22833D01*
X29502Y22811D01*
X29545Y22790D01*
X29592Y22768D01*
X29642Y22749D01*
X29695Y22734D01*
X29753Y22719D01*
X29669Y22385D01*
X29667D01*
X29665Y22388D01*
X29659D01*
X29652Y22390D01*
X29631Y22396D01*
X29603Y22407D01*
X29568Y22418D01*
X29530Y22433D01*
X29485Y22452D01*
X29439Y22471D01*
X29390Y22497D01*
X29338Y22523D01*
X29287Y22555D01*
X29235Y22590D01*
X29184Y22628D01*
X29134Y22669D01*
X29089Y22714D01*
X29046Y22764D01*
X29044Y22766D01*
X29037Y22777D01*
X29027Y22792D01*
X29011Y22811D01*
X28997Y22839D01*
X28977Y22869D01*
X28958Y22906D01*
X28938Y22949D01*
X28919Y22994D01*
X28900Y23045D01*
X28880Y23099D01*
X28865Y23157D01*
X28850Y23220D01*
X28839Y23284D01*
X28833Y23355D01*
X28831Y23426D01*
Y23443D01*
X28833Y23465D01*
Y23493D01*
X28835Y23527D01*
X28839Y23568D01*
X28844Y23613D01*
X28852Y23660D01*
X28861Y23712D01*
X28872Y23766D01*
X28885Y23822D01*
X28900Y23877D01*
X28919Y23931D01*
X28941Y23987D01*
X28966Y24039D01*
X28994Y24088D01*
X28997Y24090D01*
X29003Y24099D01*
X29011Y24112D01*
X29024Y24129D01*
X29042Y24151D01*
X29063Y24176D01*
X29089Y24202D01*
X29117Y24232D01*
X29149Y24262D01*
X29184Y24295D01*
X29224Y24327D01*
X29267Y24359D01*
X29313Y24389D01*
X29364Y24419D01*
X29416Y24449D01*
X29474Y24475D01*
X29478Y24477D01*
X29489Y24482D01*
X29506Y24488D01*
X29528Y24495D01*
X29558Y24505D01*
X29592Y24516D01*
X29631Y24529D01*
X29676Y24540D01*
X29725Y24553D01*
X29777Y24566D01*
X29833Y24576D01*
X29891Y24585D01*
X29953Y24593D01*
X30016Y24600D01*
X30082Y24604D01*
X30149Y24606D01*
X30151D01*
X30153D01*
X30166D01*
X30188D01*
X30215Y24604D01*
D02*
G37*
G36*
X31387Y21055D02*
Y20803D01*
X29760D01*
Y20463D01*
X29476D01*
Y20803D01*
X28874D01*
Y21113D01*
X29476D01*
Y22200D01*
X29760D01*
X31387Y21055D01*
D02*
G37*
%LPC*%
G36*
X72955Y63866D02*
X72953D01*
X72946Y63863D01*
X72938Y63859D01*
X72923Y63855D01*
X72905Y63848D01*
X72884Y63840D01*
X72858Y63833D01*
X72828Y63825D01*
X72794Y63816D01*
X72757Y63805D01*
X72716Y63797D01*
X72671Y63786D01*
X72622Y63775D01*
X72568Y63767D01*
X72510Y63756D01*
X72450Y63747D01*
X72448D01*
X72441Y63745D01*
X72432D01*
X72420Y63743D01*
X72402Y63741D01*
X72385Y63736D01*
X72344Y63730D01*
X72299Y63719D01*
X72254Y63709D01*
X72213Y63698D01*
X72196Y63691D01*
X72179Y63685D01*
X72174Y63683D01*
X72166Y63678D01*
X72151Y63670D01*
X72134Y63659D01*
X72114Y63646D01*
X72093Y63627D01*
X72073Y63608D01*
X72056Y63584D01*
X72054Y63582D01*
X72050Y63573D01*
X72043Y63560D01*
X72037Y63541D01*
X72028Y63519D01*
X72022Y63496D01*
X72018Y63468D01*
X72015Y63438D01*
Y63436D01*
Y63431D01*
Y63425D01*
X72018Y63416D01*
X72020Y63395D01*
X72026Y63364D01*
X72039Y63332D01*
X72054Y63298D01*
X72078Y63263D01*
X72091Y63246D01*
X72108Y63231D01*
X72110D01*
X72112Y63227D01*
X72119Y63225D01*
X72125Y63218D01*
X72136Y63212D01*
X72146Y63205D01*
X72179Y63190D01*
X72217Y63175D01*
X72265Y63162D01*
X72319Y63154D01*
X72383Y63149D01*
X72400D01*
X72413Y63152D01*
X72428D01*
X72448Y63154D01*
X72467Y63156D01*
X72491Y63160D01*
X72538Y63169D01*
X72592Y63182D01*
X72645Y63201D01*
X72699Y63227D01*
X72701D01*
X72706Y63231D01*
X72712Y63236D01*
X72723Y63242D01*
X72746Y63259D01*
X72776Y63283D01*
X72811Y63313D01*
X72845Y63349D01*
X72878Y63393D01*
X72905Y63440D01*
Y63442D01*
X72908Y63444D01*
X72910Y63450D01*
X72914Y63459D01*
X72916Y63470D01*
X72921Y63485D01*
X72925Y63500D01*
X72931Y63519D01*
X72935Y63539D01*
X72940Y63562D01*
X72944Y63588D01*
X72946Y63616D01*
X72951Y63646D01*
X72953Y63678D01*
X72955Y63715D01*
Y63752D01*
Y63866D01*
D02*
G37*
G36*
X62547Y65198D02*
Y65196D01*
X62545Y65188D01*
X62542Y65175D01*
X62538Y65158D01*
X62532Y65134D01*
X62527Y65108D01*
X62519Y65080D01*
X62512Y65048D01*
X62502Y65012D01*
X62493Y64975D01*
X62469Y64893D01*
X62441Y64807D01*
X62411Y64717D01*
X62134Y63982D01*
X62988D01*
X62725Y64676D01*
X62723Y64680D01*
X62721Y64691D01*
X62714Y64706D01*
X62706Y64730D01*
X62695Y64756D01*
X62684Y64788D01*
X62671Y64822D01*
X62659Y64861D01*
X62643Y64902D01*
X62631Y64943D01*
X62600Y65031D01*
X62572Y65117D01*
X62560Y65160D01*
X62547Y65198D01*
D02*
G37*
G36*
X29760Y21897D02*
Y21113D01*
X30889D01*
X29760Y21897D01*
D02*
G37*
%LPD*%
D10*
X40545Y84055D02*
X77565D01*
Y41929D02*
Y84055D01*
X40545Y41929D02*
X77565D01*
X40545D02*
Y84055D01*
X9449Y36221D02*
Y50394D01*
Y36221D02*
X33858D01*
Y50394D01*
X9449D02*
X33858D01*
X16929Y19374D02*
Y29839D01*
X10630Y19374D02*
X16929D01*
X10630D02*
Y29839D01*
X16929D01*
X32677Y19374D02*
Y29839D01*
X26378Y19374D02*
X32677D01*
X26378D02*
Y29839D01*
X32677D01*
M02*
