G04*
G04 #@! TF.GenerationSoftware,Altium Limited,Altium Designer,23.2.1 (34)*
G04*
G04 Layer_Color=32896*
%FSLAX25Y25*%
%MOIN*%
G70*
G04*
G04 #@! TF.SameCoordinates,26DCB771-F187-4795-AA7E-67AAF857B4AA*
G04*
G04*
G04 #@! TF.FilePolarity,Positive*
G04*
G01*
G75*
%ADD10C,0.00787*%
%ADD12C,0.00984*%
%ADD60C,0.02362*%
G36*
X35536Y53079D02*
X35093Y53020D01*
X35050Y53079D01*
X35004Y53132D01*
X34958Y53177D01*
X34912Y53217D01*
X34873Y53246D01*
X34840Y53269D01*
X34827Y53279D01*
X34817Y53286D01*
X34814Y53289D01*
X34811D01*
X34739Y53325D01*
X34670Y53351D01*
X34598Y53368D01*
X34535Y53381D01*
X34479Y53387D01*
X34457Y53391D01*
X34437Y53394D01*
X34398D01*
X34329Y53391D01*
X34266Y53384D01*
X34207Y53371D01*
X34148Y53358D01*
X34096Y53338D01*
X34047Y53319D01*
X34004Y53299D01*
X33961Y53276D01*
X33925Y53253D01*
X33896Y53233D01*
X33866Y53214D01*
X33843Y53194D01*
X33827Y53181D01*
X33814Y53168D01*
X33807Y53161D01*
X33804Y53158D01*
X33764Y53112D01*
X33728Y53063D01*
X33699Y53013D01*
X33673Y52961D01*
X33650Y52908D01*
X33633Y52853D01*
X33617Y52804D01*
X33607Y52751D01*
X33597Y52705D01*
X33591Y52662D01*
X33584Y52623D01*
X33581Y52587D01*
X33577Y52561D01*
Y52538D01*
Y52525D01*
Y52522D01*
X33581Y52443D01*
X33587Y52371D01*
X33600Y52302D01*
X33613Y52236D01*
X33633Y52177D01*
X33653Y52121D01*
X33673Y52069D01*
X33696Y52023D01*
X33718Y51984D01*
X33738Y51947D01*
X33758Y51915D01*
X33778Y51889D01*
X33791Y51869D01*
X33804Y51856D01*
X33810Y51846D01*
X33814Y51842D01*
X33860Y51797D01*
X33906Y51757D01*
X33955Y51724D01*
X34001Y51695D01*
X34050Y51669D01*
X34099Y51649D01*
X34145Y51633D01*
X34191Y51619D01*
X34230Y51610D01*
X34269Y51600D01*
X34302Y51593D01*
X34332Y51590D01*
X34358D01*
X34374Y51587D01*
X34391D01*
X34443Y51590D01*
X34493Y51593D01*
X34584Y51616D01*
X34666Y51642D01*
X34703Y51659D01*
X34739Y51679D01*
X34768Y51695D01*
X34794Y51711D01*
X34817Y51724D01*
X34837Y51738D01*
X34853Y51751D01*
X34863Y51761D01*
X34870Y51764D01*
X34873Y51767D01*
X34909Y51803D01*
X34942Y51842D01*
X34998Y51928D01*
X35040Y52020D01*
X35073Y52108D01*
X35086Y52148D01*
X35099Y52187D01*
X35106Y52223D01*
X35116Y52253D01*
X35119Y52276D01*
X35122Y52295D01*
X35126Y52308D01*
Y52312D01*
X35621Y52269D01*
X35608Y52180D01*
X35591Y52095D01*
X35568Y52016D01*
X35542Y51944D01*
X35513Y51872D01*
X35480Y51810D01*
X35447Y51751D01*
X35414Y51698D01*
X35381Y51652D01*
X35352Y51610D01*
X35322Y51574D01*
X35296Y51544D01*
X35273Y51521D01*
X35257Y51505D01*
X35247Y51495D01*
X35244Y51492D01*
X35178Y51439D01*
X35113Y51397D01*
X35040Y51357D01*
X34971Y51324D01*
X34899Y51295D01*
X34827Y51272D01*
X34758Y51252D01*
X34693Y51236D01*
X34630Y51223D01*
X34575Y51216D01*
X34522Y51209D01*
X34476Y51203D01*
X34440D01*
X34414Y51200D01*
X34391D01*
X34273Y51206D01*
X34165Y51219D01*
X34060Y51242D01*
X33964Y51272D01*
X33873Y51308D01*
X33791Y51347D01*
X33715Y51390D01*
X33646Y51433D01*
X33587Y51475D01*
X33535Y51518D01*
X33489Y51557D01*
X33453Y51593D01*
X33423Y51623D01*
X33400Y51646D01*
X33387Y51659D01*
X33384Y51665D01*
X33332Y51738D01*
X33282Y51813D01*
X33243Y51889D01*
X33207Y51964D01*
X33177Y52043D01*
X33154Y52115D01*
X33135Y52187D01*
X33118Y52256D01*
X33105Y52321D01*
X33095Y52380D01*
X33089Y52433D01*
X33082Y52476D01*
Y52515D01*
X33079Y52541D01*
Y52558D01*
Y52564D01*
X33082Y52666D01*
X33095Y52761D01*
X33112Y52850D01*
X33135Y52935D01*
X33161Y53013D01*
X33190Y53089D01*
X33220Y53154D01*
X33253Y53217D01*
X33286Y53273D01*
X33315Y53322D01*
X33345Y53361D01*
X33371Y53397D01*
X33394Y53424D01*
X33410Y53443D01*
X33423Y53456D01*
X33427Y53460D01*
X33492Y53522D01*
X33561Y53574D01*
X33633Y53624D01*
X33705Y53663D01*
X33774Y53696D01*
X33846Y53725D01*
X33915Y53748D01*
X33978Y53768D01*
X34040Y53781D01*
X34096Y53791D01*
X34145Y53801D01*
X34187Y53804D01*
X34224Y53807D01*
X34250Y53811D01*
X34273D01*
X34342Y53807D01*
X34411Y53801D01*
X34479Y53788D01*
X34545Y53771D01*
X34607Y53755D01*
X34666Y53735D01*
X34725Y53712D01*
X34778Y53689D01*
X34824Y53666D01*
X34866Y53643D01*
X34906Y53624D01*
X34939Y53607D01*
X34962Y53591D01*
X34981Y53578D01*
X34994Y53571D01*
X34998Y53568D01*
X34791Y54601D01*
X33259D01*
Y55050D01*
X35165D01*
X35536Y53079D01*
D02*
G37*
G36*
X31363Y51265D02*
X30839D01*
X29340Y55100D01*
X29855D01*
X30891Y52312D01*
X30934Y52197D01*
X30973Y52082D01*
X31009Y51977D01*
X31026Y51928D01*
X31039Y51882D01*
X31052Y51839D01*
X31065Y51800D01*
X31075Y51767D01*
X31081Y51741D01*
X31088Y51718D01*
X31095Y51698D01*
X31098Y51688D01*
Y51685D01*
X31131Y51797D01*
X31163Y51905D01*
X31196Y52013D01*
X31213Y52062D01*
X31229Y52108D01*
X31242Y52151D01*
X31255Y52190D01*
X31268Y52226D01*
X31278Y52256D01*
X31285Y52279D01*
X31291Y52295D01*
X31298Y52308D01*
Y52312D01*
X32295Y55100D01*
X32846D01*
X31363Y51265D01*
D02*
G37*
G36*
X124138Y56064D02*
X124233Y56054D01*
X124325Y56041D01*
X124407Y56021D01*
X124485Y56002D01*
X124557Y55979D01*
X124623Y55953D01*
X124682Y55926D01*
X124735Y55897D01*
X124780Y55874D01*
X124820Y55848D01*
X124853Y55828D01*
X124879Y55808D01*
X124895Y55795D01*
X124908Y55785D01*
X124912Y55782D01*
X124968Y55726D01*
X125020Y55667D01*
X125066Y55602D01*
X125105Y55536D01*
X125141Y55467D01*
X125171Y55398D01*
X125197Y55329D01*
X125217Y55264D01*
X125236Y55202D01*
X125250Y55146D01*
X125259Y55093D01*
X125269Y55047D01*
X125276Y55011D01*
X125279Y54982D01*
X125282Y54965D01*
Y54959D01*
X124797Y54910D01*
X124794Y54975D01*
X124787Y55037D01*
X124777Y55093D01*
X124764Y55149D01*
X124751Y55198D01*
X124731Y55244D01*
X124715Y55287D01*
X124695Y55323D01*
X124676Y55359D01*
X124659Y55388D01*
X124639Y55411D01*
X124626Y55434D01*
X124613Y55451D01*
X124603Y55461D01*
X124597Y55467D01*
X124593Y55471D01*
X124554Y55506D01*
X124512Y55539D01*
X124469Y55566D01*
X124423Y55589D01*
X124377Y55611D01*
X124331Y55628D01*
X124246Y55651D01*
X124203Y55661D01*
X124167Y55667D01*
X124134Y55670D01*
X124105Y55674D01*
X124082Y55677D01*
X124049D01*
X123990Y55674D01*
X123934Y55667D01*
X123882Y55661D01*
X123833Y55648D01*
X123787Y55631D01*
X123744Y55615D01*
X123705Y55598D01*
X123669Y55582D01*
X123636Y55562D01*
X123606Y55546D01*
X123583Y55529D01*
X123564Y55513D01*
X123547Y55500D01*
X123537Y55493D01*
X123531Y55487D01*
X123528Y55484D01*
X123492Y55448D01*
X123462Y55408D01*
X123436Y55369D01*
X123413Y55329D01*
X123393Y55287D01*
X123377Y55251D01*
X123354Y55175D01*
X123344Y55142D01*
X123337Y55110D01*
X123334Y55083D01*
X123331Y55057D01*
X123327Y55037D01*
Y55024D01*
Y55014D01*
Y55011D01*
X123331Y54962D01*
X123337Y54910D01*
X123347Y54860D01*
X123360Y54811D01*
X123396Y54716D01*
X123436Y54628D01*
X123459Y54588D01*
X123478Y54552D01*
X123495Y54523D01*
X123511Y54496D01*
X123528Y54473D01*
X123537Y54457D01*
X123544Y54447D01*
X123547Y54444D01*
X123593Y54385D01*
X123646Y54322D01*
X123708Y54257D01*
X123770Y54191D01*
X123839Y54122D01*
X123911Y54057D01*
X123980Y53988D01*
X124052Y53926D01*
X124118Y53866D01*
X124180Y53811D01*
X124239Y53758D01*
X124288Y53716D01*
X124331Y53680D01*
X124364Y53653D01*
X124384Y53637D01*
X124387Y53630D01*
X124390D01*
X124462Y53571D01*
X124531Y53512D01*
X124597Y53456D01*
X124656Y53401D01*
X124712Y53352D01*
X124764Y53302D01*
X124810Y53260D01*
X124849Y53217D01*
X124885Y53181D01*
X124918Y53148D01*
X124944Y53119D01*
X124968Y53096D01*
X124984Y53076D01*
X124997Y53063D01*
X125004Y53053D01*
X125007Y53050D01*
X125082Y52958D01*
X125145Y52866D01*
X125200Y52781D01*
X125243Y52702D01*
X125259Y52669D01*
X125276Y52636D01*
X125289Y52610D01*
X125299Y52587D01*
X125309Y52568D01*
X125315Y52555D01*
X125318Y52545D01*
Y52541D01*
X125338Y52482D01*
X125351Y52423D01*
X125361Y52371D01*
X125368Y52322D01*
X125371Y52279D01*
Y52246D01*
Y52233D01*
Y52223D01*
Y52220D01*
Y52217D01*
X122835D01*
Y52669D01*
X124718D01*
X124685Y52719D01*
X124653Y52764D01*
X124620Y52807D01*
X124587Y52843D01*
X124561Y52876D01*
X124538Y52899D01*
X124525Y52915D01*
X124518Y52922D01*
X124492Y52948D01*
X124459Y52981D01*
X124423Y53014D01*
X124380Y53050D01*
X124292Y53132D01*
X124200Y53211D01*
X124157Y53250D01*
X124115Y53286D01*
X124075Y53319D01*
X124042Y53348D01*
X124013Y53371D01*
X123993Y53388D01*
X123977Y53401D01*
X123974Y53404D01*
X123882Y53483D01*
X123796Y53555D01*
X123718Y53627D01*
X123649Y53689D01*
X123583Y53752D01*
X123524Y53807D01*
X123472Y53857D01*
X123423Y53903D01*
X123383Y53945D01*
X123347Y53978D01*
X123318Y54011D01*
X123295Y54034D01*
X123275Y54053D01*
X123262Y54070D01*
X123255Y54076D01*
X123252Y54080D01*
X123177Y54172D01*
X123111Y54257D01*
X123055Y54336D01*
X123013Y54408D01*
X122993Y54437D01*
X122980Y54467D01*
X122967Y54490D01*
X122957Y54509D01*
X122947Y54526D01*
X122940Y54539D01*
X122937Y54545D01*
Y54549D01*
X122904Y54631D01*
X122881Y54713D01*
X122865Y54791D01*
X122855Y54860D01*
X122849Y54890D01*
X122845Y54916D01*
Y54942D01*
X122842Y54962D01*
Y54979D01*
Y54992D01*
Y54998D01*
Y55001D01*
X122845Y55083D01*
X122855Y55165D01*
X122871Y55241D01*
X122891Y55310D01*
X122917Y55379D01*
X122944Y55441D01*
X122973Y55497D01*
X123003Y55549D01*
X123036Y55598D01*
X123065Y55638D01*
X123091Y55674D01*
X123114Y55703D01*
X123137Y55730D01*
X123154Y55746D01*
X123163Y55756D01*
X123167Y55759D01*
X123229Y55815D01*
X123298Y55861D01*
X123367Y55903D01*
X123439Y55936D01*
X123511Y55966D01*
X123583Y55992D01*
X123655Y56012D01*
X123724Y56028D01*
X123787Y56041D01*
X123849Y56051D01*
X123901Y56058D01*
X123947Y56064D01*
X123987D01*
X124016Y56067D01*
X124039D01*
X124138Y56064D01*
D02*
G37*
G36*
X127421Y56113D02*
X127513Y56107D01*
X127601Y56094D01*
X127687Y56081D01*
X127769Y56064D01*
X127844Y56045D01*
X127916Y56021D01*
X127982Y56002D01*
X128044Y55979D01*
X128097Y55956D01*
X128142Y55936D01*
X128182Y55920D01*
X128215Y55907D01*
X128238Y55894D01*
X128251Y55887D01*
X128257Y55884D01*
X128333Y55838D01*
X128405Y55789D01*
X128474Y55736D01*
X128536Y55680D01*
X128595Y55625D01*
X128648Y55566D01*
X128697Y55510D01*
X128740Y55457D01*
X128779Y55405D01*
X128812Y55359D01*
X128841Y55316D01*
X128864Y55277D01*
X128884Y55247D01*
X128897Y55225D01*
X128903Y55211D01*
X128907Y55205D01*
X128946Y55120D01*
X128982Y55031D01*
X129012Y54942D01*
X129038Y54854D01*
X129061Y54765D01*
X129077Y54680D01*
X129094Y54595D01*
X129104Y54516D01*
X129113Y54440D01*
X129120Y54375D01*
X129127Y54313D01*
X129130Y54263D01*
X129133Y54221D01*
Y54188D01*
Y54168D01*
Y54165D01*
Y54162D01*
X129130Y54060D01*
X129123Y53958D01*
X129113Y53863D01*
X129100Y53768D01*
X129087Y53680D01*
X129071Y53594D01*
X129051Y53516D01*
X129031Y53440D01*
X129015Y53371D01*
X128995Y53312D01*
X128979Y53260D01*
X128963Y53214D01*
X128953Y53181D01*
X128943Y53155D01*
X128936Y53138D01*
X128933Y53132D01*
X128894Y53043D01*
X128848Y52965D01*
X128802Y52886D01*
X128756Y52817D01*
X128707Y52751D01*
X128657Y52689D01*
X128608Y52636D01*
X128562Y52587D01*
X128516Y52545D01*
X128477Y52505D01*
X128438Y52473D01*
X128405Y52446D01*
X128379Y52427D01*
X128359Y52413D01*
X128346Y52404D01*
X128343Y52400D01*
X128267Y52358D01*
X128188Y52318D01*
X128103Y52286D01*
X128021Y52256D01*
X127936Y52233D01*
X127851Y52213D01*
X127769Y52197D01*
X127690Y52184D01*
X127618Y52171D01*
X127549Y52164D01*
X127487Y52158D01*
X127434Y52154D01*
X127391D01*
X127359Y52151D01*
X127332D01*
X127224Y52154D01*
X127116Y52164D01*
X127017Y52181D01*
X126922Y52204D01*
X126834Y52227D01*
X126752Y52256D01*
X126673Y52286D01*
X126604Y52315D01*
X126539Y52345D01*
X126483Y52374D01*
X126437Y52404D01*
X126394Y52427D01*
X126365Y52450D01*
X126342Y52466D01*
X126325Y52476D01*
X126322Y52479D01*
X126247Y52545D01*
X126178Y52614D01*
X126116Y52689D01*
X126056Y52768D01*
X126004Y52846D01*
X125955Y52925D01*
X125915Y53004D01*
X125876Y53079D01*
X125847Y53148D01*
X125817Y53217D01*
X125794Y53276D01*
X125778Y53329D01*
X125761Y53371D01*
X125751Y53404D01*
X125748Y53414D01*
Y53424D01*
X125745Y53427D01*
Y53430D01*
X126253Y53558D01*
X126276Y53470D01*
X126299Y53388D01*
X126329Y53312D01*
X126361Y53240D01*
X126394Y53175D01*
X126427Y53115D01*
X126460Y53063D01*
X126493Y53014D01*
X126525Y52971D01*
X126555Y52935D01*
X126584Y52902D01*
X126607Y52876D01*
X126627Y52856D01*
X126644Y52843D01*
X126653Y52833D01*
X126657Y52830D01*
X126712Y52787D01*
X126771Y52748D01*
X126834Y52715D01*
X126893Y52689D01*
X126955Y52663D01*
X127014Y52643D01*
X127070Y52627D01*
X127126Y52614D01*
X127178Y52604D01*
X127224Y52597D01*
X127267Y52591D01*
X127303Y52587D01*
X127332D01*
X127355Y52584D01*
X127375D01*
X127441Y52587D01*
X127503Y52591D01*
X127624Y52614D01*
X127683Y52627D01*
X127736Y52640D01*
X127785Y52656D01*
X127834Y52676D01*
X127877Y52692D01*
X127913Y52709D01*
X127946Y52722D01*
X127975Y52735D01*
X127998Y52748D01*
X128015Y52758D01*
X128024Y52761D01*
X128028Y52764D01*
X128083Y52801D01*
X128133Y52840D01*
X128182Y52882D01*
X128225Y52925D01*
X128264Y52971D01*
X128300Y53017D01*
X128333Y53060D01*
X128362Y53106D01*
X128389Y53145D01*
X128411Y53184D01*
X128428Y53220D01*
X128444Y53250D01*
X128454Y53273D01*
X128464Y53293D01*
X128467Y53306D01*
X128471Y53309D01*
X128497Y53378D01*
X128516Y53450D01*
X128552Y53598D01*
X128576Y53739D01*
X128585Y53807D01*
X128595Y53873D01*
X128598Y53935D01*
X128605Y53991D01*
X128608Y54040D01*
Y54083D01*
X128612Y54116D01*
Y54142D01*
Y54159D01*
Y54165D01*
X128605Y54306D01*
X128592Y54440D01*
X128585Y54503D01*
X128576Y54562D01*
X128562Y54621D01*
X128552Y54673D01*
X128543Y54723D01*
X128530Y54765D01*
X128520Y54805D01*
X128513Y54837D01*
X128503Y54864D01*
X128500Y54883D01*
X128493Y54896D01*
Y54900D01*
X128467Y54965D01*
X128441Y55028D01*
X128411Y55087D01*
X128379Y55139D01*
X128343Y55192D01*
X128310Y55238D01*
X128274Y55280D01*
X128241Y55320D01*
X128208Y55352D01*
X128175Y55385D01*
X128149Y55411D01*
X128126Y55431D01*
X128106Y55448D01*
X128090Y55461D01*
X128080Y55467D01*
X128077Y55471D01*
X128018Y55506D01*
X127959Y55539D01*
X127896Y55569D01*
X127834Y55595D01*
X127772Y55615D01*
X127709Y55631D01*
X127650Y55644D01*
X127595Y55657D01*
X127539Y55667D01*
X127490Y55674D01*
X127447Y55677D01*
X127408Y55680D01*
X127378Y55684D01*
X127336D01*
X127267Y55680D01*
X127198Y55674D01*
X127136Y55667D01*
X127073Y55654D01*
X127017Y55638D01*
X126965Y55621D01*
X126916Y55605D01*
X126873Y55589D01*
X126834Y55569D01*
X126801Y55553D01*
X126768Y55536D01*
X126745Y55520D01*
X126725Y55506D01*
X126712Y55500D01*
X126703Y55493D01*
X126699Y55490D01*
X126653Y55451D01*
X126607Y55408D01*
X126568Y55362D01*
X126529Y55316D01*
X126463Y55215D01*
X126407Y55113D01*
X126384Y55067D01*
X126365Y55024D01*
X126348Y54982D01*
X126335Y54949D01*
X126322Y54919D01*
X126315Y54900D01*
X126309Y54883D01*
Y54880D01*
X125810Y54998D01*
X125843Y55097D01*
X125879Y55185D01*
X125919Y55270D01*
X125961Y55352D01*
X126007Y55424D01*
X126053Y55493D01*
X126099Y55553D01*
X126145Y55608D01*
X126188Y55657D01*
X126227Y55700D01*
X126266Y55736D01*
X126296Y55769D01*
X126325Y55792D01*
X126345Y55808D01*
X126358Y55818D01*
X126361Y55821D01*
X126437Y55874D01*
X126516Y55920D01*
X126594Y55959D01*
X126676Y55992D01*
X126758Y56021D01*
X126837Y56045D01*
X126916Y56064D01*
X126991Y56081D01*
X127060Y56090D01*
X127122Y56100D01*
X127181Y56107D01*
X127231Y56113D01*
X127270D01*
X127299Y56117D01*
X127326D01*
X127421Y56113D01*
D02*
G37*
G36*
X124502Y40273D02*
X124528Y40224D01*
X124594Y40132D01*
X124663Y40047D01*
X124732Y39968D01*
X124764Y39932D01*
X124794Y39903D01*
X124823Y39873D01*
X124846Y39850D01*
X124866Y39831D01*
X124882Y39818D01*
X124892Y39808D01*
X124896Y39804D01*
X125010Y39709D01*
X125125Y39624D01*
X125240Y39549D01*
X125296Y39513D01*
X125348Y39483D01*
X125397Y39454D01*
X125440Y39427D01*
X125479Y39408D01*
X125515Y39388D01*
X125542Y39375D01*
X125565Y39365D01*
X125578Y39358D01*
X125581Y39355D01*
Y38899D01*
X125499Y38932D01*
X125414Y38971D01*
X125332Y39011D01*
X125253Y39050D01*
X125220Y39070D01*
X125188Y39086D01*
X125158Y39103D01*
X125135Y39116D01*
X125115Y39125D01*
X125102Y39135D01*
X125092Y39139D01*
X125089Y39142D01*
X124991Y39204D01*
X124902Y39263D01*
X124827Y39316D01*
X124761Y39365D01*
X124735Y39388D01*
X124712Y39408D01*
X124692Y39424D01*
X124672Y39440D01*
X124659Y39450D01*
X124650Y39460D01*
X124646Y39463D01*
X124643Y39467D01*
Y36469D01*
X124171D01*
Y40319D01*
X124476D01*
X124502Y40273D01*
D02*
G37*
G36*
X128054Y40365D02*
X128146Y40359D01*
X128235Y40346D01*
X128320Y40332D01*
X128402Y40316D01*
X128477Y40296D01*
X128550Y40273D01*
X128615Y40254D01*
X128677Y40231D01*
X128730Y40208D01*
X128776Y40188D01*
X128815Y40172D01*
X128848Y40159D01*
X128871Y40145D01*
X128884Y40139D01*
X128891Y40136D01*
X128966Y40090D01*
X129038Y40041D01*
X129107Y39988D01*
X129169Y39932D01*
X129228Y39877D01*
X129281Y39818D01*
X129330Y39762D01*
X129373Y39709D01*
X129412Y39657D01*
X129445Y39611D01*
X129474Y39568D01*
X129497Y39529D01*
X129517Y39499D01*
X129530Y39476D01*
X129537Y39463D01*
X129540Y39457D01*
X129579Y39371D01*
X129615Y39283D01*
X129645Y39194D01*
X129671Y39106D01*
X129694Y39017D01*
X129711Y38932D01*
X129727Y38847D01*
X129737Y38768D01*
X129747Y38693D01*
X129753Y38627D01*
X129760Y38565D01*
X129763Y38515D01*
X129766Y38473D01*
Y38440D01*
Y38420D01*
Y38417D01*
Y38414D01*
X129763Y38312D01*
X129756Y38210D01*
X129747Y38115D01*
X129734Y38020D01*
X129720Y37931D01*
X129704Y37846D01*
X129684Y37767D01*
X129665Y37692D01*
X129648Y37623D01*
X129629Y37564D01*
X129612Y37512D01*
X129596Y37466D01*
X129586Y37433D01*
X129576Y37407D01*
X129569Y37390D01*
X129566Y37384D01*
X129527Y37295D01*
X129481Y37216D01*
X129435Y37138D01*
X129389Y37069D01*
X129340Y37003D01*
X129291Y36941D01*
X129242Y36889D01*
X129196Y36839D01*
X129150Y36797D01*
X129110Y36757D01*
X129071Y36724D01*
X129038Y36698D01*
X129012Y36679D01*
X128992Y36665D01*
X128979Y36656D01*
X128976Y36652D01*
X128900Y36610D01*
X128822Y36570D01*
X128736Y36538D01*
X128654Y36508D01*
X128569Y36485D01*
X128484Y36465D01*
X128402Y36449D01*
X128323Y36436D01*
X128251Y36423D01*
X128182Y36416D01*
X128120Y36410D01*
X128067Y36406D01*
X128025D01*
X127992Y36403D01*
X127966D01*
X127857Y36406D01*
X127749Y36416D01*
X127651Y36433D01*
X127556Y36456D01*
X127467Y36478D01*
X127385Y36508D01*
X127306Y36538D01*
X127237Y36567D01*
X127172Y36597D01*
X127116Y36626D01*
X127070Y36656D01*
X127027Y36679D01*
X126998Y36702D01*
X126975Y36718D01*
X126959Y36728D01*
X126955Y36731D01*
X126880Y36797D01*
X126811Y36866D01*
X126749Y36941D01*
X126690Y37020D01*
X126637Y37098D01*
X126588Y37177D01*
X126549Y37256D01*
X126509Y37331D01*
X126480Y37400D01*
X126450Y37469D01*
X126427Y37528D01*
X126411Y37581D01*
X126394Y37623D01*
X126385Y37656D01*
X126381Y37666D01*
Y37676D01*
X126378Y37679D01*
Y37682D01*
X126886Y37810D01*
X126909Y37722D01*
X126932Y37640D01*
X126962Y37564D01*
X126995Y37492D01*
X127027Y37426D01*
X127060Y37367D01*
X127093Y37315D01*
X127126Y37266D01*
X127159Y37223D01*
X127188Y37187D01*
X127218Y37154D01*
X127241Y37128D01*
X127260Y37108D01*
X127277Y37095D01*
X127287Y37085D01*
X127290Y37082D01*
X127346Y37039D01*
X127405Y37000D01*
X127467Y36967D01*
X127526Y36941D01*
X127588Y36915D01*
X127647Y36895D01*
X127703Y36879D01*
X127759Y36866D01*
X127812Y36856D01*
X127857Y36849D01*
X127900Y36843D01*
X127936Y36839D01*
X127966D01*
X127989Y36836D01*
X128008D01*
X128074Y36839D01*
X128136Y36843D01*
X128258Y36866D01*
X128317Y36879D01*
X128369Y36892D01*
X128418Y36908D01*
X128468Y36928D01*
X128510Y36944D01*
X128546Y36961D01*
X128579Y36974D01*
X128609Y36987D01*
X128631Y37000D01*
X128648Y37010D01*
X128658Y37013D01*
X128661Y37016D01*
X128717Y37053D01*
X128766Y37092D01*
X128815Y37135D01*
X128858Y37177D01*
X128897Y37223D01*
X128933Y37269D01*
X128966Y37312D01*
X128996Y37358D01*
X129022Y37397D01*
X129045Y37436D01*
X129061Y37472D01*
X129077Y37502D01*
X129087Y37525D01*
X129097Y37545D01*
X129101Y37558D01*
X129104Y37561D01*
X129130Y37630D01*
X129150Y37702D01*
X129186Y37850D01*
X129209Y37991D01*
X129219Y38059D01*
X129228Y38125D01*
X129232Y38187D01*
X129238Y38243D01*
X129242Y38292D01*
Y38335D01*
X129245Y38368D01*
Y38394D01*
Y38410D01*
Y38417D01*
X129238Y38558D01*
X129225Y38693D01*
X129219Y38755D01*
X129209Y38814D01*
X129196Y38873D01*
X129186Y38925D01*
X129176Y38975D01*
X129163Y39017D01*
X129153Y39057D01*
X129146Y39089D01*
X129137Y39116D01*
X129133Y39135D01*
X129127Y39148D01*
Y39152D01*
X129101Y39217D01*
X129074Y39280D01*
X129045Y39339D01*
X129012Y39391D01*
X128976Y39444D01*
X128943Y39490D01*
X128907Y39532D01*
X128874Y39572D01*
X128841Y39604D01*
X128809Y39637D01*
X128782Y39663D01*
X128759Y39683D01*
X128740Y39700D01*
X128723Y39713D01*
X128714Y39719D01*
X128710Y39722D01*
X128651Y39759D01*
X128592Y39791D01*
X128530Y39821D01*
X128468Y39847D01*
X128405Y39867D01*
X128343Y39883D01*
X128284Y39896D01*
X128228Y39909D01*
X128172Y39919D01*
X128123Y39926D01*
X128080Y39929D01*
X128041Y39932D01*
X128012Y39936D01*
X127969D01*
X127900Y39932D01*
X127831Y39926D01*
X127769Y39919D01*
X127707Y39906D01*
X127651Y39890D01*
X127598Y39873D01*
X127549Y39857D01*
X127506Y39840D01*
X127467Y39821D01*
X127434Y39804D01*
X127401Y39788D01*
X127378Y39772D01*
X127359Y39759D01*
X127346Y39752D01*
X127336Y39745D01*
X127333Y39742D01*
X127287Y39703D01*
X127241Y39660D01*
X127201Y39614D01*
X127162Y39568D01*
X127096Y39467D01*
X127041Y39365D01*
X127018Y39319D01*
X126998Y39276D01*
X126982Y39234D01*
X126969Y39201D01*
X126955Y39171D01*
X126949Y39152D01*
X126942Y39135D01*
Y39132D01*
X126444Y39250D01*
X126477Y39349D01*
X126513Y39437D01*
X126552Y39522D01*
X126595Y39604D01*
X126640Y39676D01*
X126686Y39745D01*
X126732Y39804D01*
X126778Y39860D01*
X126821Y39909D01*
X126860Y39952D01*
X126900Y39988D01*
X126929Y40021D01*
X126959Y40044D01*
X126978Y40060D01*
X126991Y40070D01*
X126995Y40073D01*
X127070Y40126D01*
X127149Y40172D01*
X127228Y40211D01*
X127310Y40244D01*
X127392Y40273D01*
X127470Y40296D01*
X127549Y40316D01*
X127624Y40332D01*
X127693Y40342D01*
X127756Y40352D01*
X127815Y40359D01*
X127864Y40365D01*
X127903D01*
X127933Y40369D01*
X127959D01*
X128054Y40365D01*
D02*
G37*
G36*
X50700Y105000D02*
X50192D01*
Y106702D01*
X49536D01*
X49477Y106699D01*
X49427Y106696D01*
X49388Y106693D01*
X49358Y106689D01*
X49339Y106686D01*
X49326Y106683D01*
X49322D01*
X49280Y106669D01*
X49237Y106653D01*
X49198Y106637D01*
X49162Y106620D01*
X49135Y106604D01*
X49112Y106594D01*
X49096Y106584D01*
X49093Y106581D01*
X49050Y106548D01*
X49004Y106512D01*
X48962Y106469D01*
X48919Y106427D01*
X48886Y106387D01*
X48857Y106355D01*
X48847Y106342D01*
X48840Y106332D01*
X48834Y106328D01*
Y106325D01*
X48804Y106289D01*
X48778Y106250D01*
X48716Y106164D01*
X48653Y106076D01*
X48594Y105994D01*
X48568Y105951D01*
X48545Y105915D01*
X48522Y105882D01*
X48502Y105853D01*
X48489Y105830D01*
X48476Y105813D01*
X48470Y105800D01*
X48466Y105797D01*
X47958Y105000D01*
X47325D01*
X47987Y106043D01*
X48063Y106151D01*
X48138Y106250D01*
X48210Y106338D01*
X48243Y106378D01*
X48273Y106410D01*
X48302Y106443D01*
X48329Y106473D01*
X48351Y106496D01*
X48371Y106515D01*
X48388Y106532D01*
X48401Y106542D01*
X48407Y106548D01*
X48411Y106551D01*
X48453Y106588D01*
X48502Y106620D01*
X48552Y106653D01*
X48601Y106683D01*
X48647Y106709D01*
X48683Y106729D01*
X48696Y106735D01*
X48706Y106742D01*
X48712Y106745D01*
X48716D01*
X48614Y106761D01*
X48522Y106781D01*
X48437Y106807D01*
X48355Y106834D01*
X48283Y106860D01*
X48214Y106889D01*
X48155Y106922D01*
X48099Y106952D01*
X48053Y106981D01*
X48010Y107007D01*
X47978Y107034D01*
X47948Y107053D01*
X47928Y107073D01*
X47912Y107086D01*
X47902Y107096D01*
X47899Y107099D01*
X47853Y107152D01*
X47810Y107207D01*
X47774Y107266D01*
X47745Y107325D01*
X47719Y107381D01*
X47699Y107440D01*
X47679Y107496D01*
X47666Y107549D01*
X47656Y107598D01*
X47646Y107644D01*
X47640Y107683D01*
X47637Y107719D01*
Y107749D01*
X47633Y107768D01*
Y107785D01*
Y107788D01*
X47637Y107847D01*
X47640Y107903D01*
X47659Y108011D01*
X47682Y108109D01*
X47699Y108152D01*
X47712Y108195D01*
X47728Y108231D01*
X47741Y108267D01*
X47758Y108296D01*
X47768Y108319D01*
X47778Y108339D01*
X47787Y108352D01*
X47791Y108362D01*
X47794Y108365D01*
X47827Y108411D01*
X47859Y108457D01*
X47892Y108496D01*
X47928Y108533D01*
X47965Y108565D01*
X48001Y108595D01*
X48066Y108647D01*
X48129Y108683D01*
X48155Y108697D01*
X48178Y108710D01*
X48194Y108720D01*
X48207Y108726D01*
X48217Y108729D01*
X48220D01*
X48273Y108749D01*
X48329Y108765D01*
X48391Y108779D01*
X48453Y108792D01*
X48584Y108808D01*
X48709Y108821D01*
X48768Y108825D01*
X48824Y108828D01*
X48873Y108831D01*
X48916Y108834D01*
X50700D01*
Y105000D01*
D02*
G37*
G36*
X46830D02*
X43969D01*
Y105453D01*
X46321D01*
Y106758D01*
X44202D01*
Y107211D01*
X46321D01*
Y108382D01*
X44058D01*
Y108834D01*
X46830D01*
Y105000D01*
D02*
G37*
G36*
X42087Y108893D02*
X42221Y108880D01*
X42283Y108870D01*
X42343Y108857D01*
X42395Y108847D01*
X42448Y108834D01*
X42493Y108821D01*
X42533Y108811D01*
X42569Y108798D01*
X42598Y108788D01*
X42621Y108782D01*
X42641Y108775D01*
X42651Y108769D01*
X42654D01*
X42710Y108742D01*
X42766Y108716D01*
X42815Y108683D01*
X42861Y108654D01*
X42903Y108621D01*
X42943Y108588D01*
X42979Y108559D01*
X43012Y108529D01*
X43041Y108500D01*
X43064Y108474D01*
X43084Y108447D01*
X43104Y108428D01*
X43117Y108408D01*
X43126Y108395D01*
X43130Y108388D01*
X43133Y108385D01*
X43163Y108336D01*
X43185Y108290D01*
X43209Y108241D01*
X43228Y108195D01*
X43258Y108103D01*
X43277Y108018D01*
X43284Y107982D01*
X43287Y107945D01*
X43290Y107916D01*
X43294Y107890D01*
X43297Y107870D01*
Y107854D01*
Y107844D01*
Y107841D01*
X43290Y107745D01*
X43277Y107657D01*
X43254Y107575D01*
X43228Y107506D01*
X43218Y107473D01*
X43205Y107447D01*
X43192Y107424D01*
X43182Y107401D01*
X43176Y107388D01*
X43169Y107375D01*
X43163Y107368D01*
Y107365D01*
X43107Y107289D01*
X43041Y107221D01*
X42976Y107158D01*
X42910Y107106D01*
X42848Y107063D01*
X42821Y107047D01*
X42802Y107034D01*
X42782Y107024D01*
X42769Y107014D01*
X42759Y107011D01*
X42756Y107007D01*
X42713Y106984D01*
X42664Y106965D01*
X42608Y106942D01*
X42549Y106922D01*
X42428Y106879D01*
X42307Y106843D01*
X42247Y106827D01*
X42192Y106811D01*
X42143Y106797D01*
X42100Y106788D01*
X42064Y106778D01*
X42037Y106771D01*
X42021Y106765D01*
X42015D01*
X41919Y106742D01*
X41831Y106722D01*
X41755Y106702D01*
X41683Y106683D01*
X41621Y106666D01*
X41565Y106653D01*
X41516Y106637D01*
X41473Y106627D01*
X41437Y106617D01*
X41405Y106607D01*
X41381Y106597D01*
X41362Y106591D01*
X41345Y106588D01*
X41336Y106584D01*
X41332Y106581D01*
X41329D01*
X41244Y106545D01*
X41172Y106506D01*
X41113Y106469D01*
X41063Y106433D01*
X41027Y106401D01*
X41001Y106374D01*
X40985Y106358D01*
X40981Y106351D01*
X40945Y106299D01*
X40919Y106246D01*
X40903Y106194D01*
X40889Y106145D01*
X40883Y106102D01*
X40876Y106066D01*
Y106053D01*
Y106043D01*
Y106040D01*
Y106036D01*
X40880Y105971D01*
X40893Y105912D01*
X40913Y105856D01*
X40932Y105807D01*
X40952Y105764D01*
X40971Y105735D01*
X40985Y105715D01*
X40988Y105712D01*
Y105709D01*
X41034Y105656D01*
X41086Y105607D01*
X41139Y105567D01*
X41195Y105535D01*
X41244Y105508D01*
X41283Y105489D01*
X41296Y105482D01*
X41309Y105476D01*
X41316Y105472D01*
X41319D01*
X41405Y105443D01*
X41493Y105423D01*
X41578Y105407D01*
X41657Y105397D01*
X41693Y105394D01*
X41726Y105390D01*
X41755D01*
X41782Y105387D01*
X41831D01*
X41949Y105390D01*
X42061Y105403D01*
X42162Y105423D01*
X42208Y105433D01*
X42247Y105443D01*
X42287Y105453D01*
X42320Y105463D01*
X42349Y105472D01*
X42375Y105482D01*
X42395Y105489D01*
X42408Y105495D01*
X42418Y105499D01*
X42421D01*
X42513Y105544D01*
X42592Y105594D01*
X42657Y105643D01*
X42710Y105692D01*
X42753Y105731D01*
X42782Y105768D01*
X42792Y105781D01*
X42799Y105790D01*
X42805Y105794D01*
Y105797D01*
X42848Y105872D01*
X42880Y105951D01*
X42910Y106030D01*
X42930Y106105D01*
X42939Y106138D01*
X42946Y106171D01*
X42949Y106201D01*
X42956Y106223D01*
X42959Y106246D01*
Y106260D01*
X42963Y106269D01*
Y106273D01*
X43441Y106230D01*
X43438Y106158D01*
X43428Y106089D01*
X43418Y106023D01*
X43405Y105958D01*
X43389Y105899D01*
X43369Y105840D01*
X43353Y105787D01*
X43333Y105738D01*
X43313Y105695D01*
X43294Y105656D01*
X43277Y105620D01*
X43264Y105590D01*
X43251Y105567D01*
X43241Y105551D01*
X43235Y105541D01*
X43231Y105538D01*
X43192Y105482D01*
X43149Y105433D01*
X43107Y105384D01*
X43061Y105341D01*
X43015Y105298D01*
X42969Y105262D01*
X42923Y105230D01*
X42880Y105200D01*
X42841Y105171D01*
X42802Y105148D01*
X42769Y105131D01*
X42739Y105115D01*
X42713Y105102D01*
X42697Y105092D01*
X42684Y105089D01*
X42680Y105085D01*
X42612Y105059D01*
X42543Y105036D01*
X42395Y104997D01*
X42251Y104971D01*
X42179Y104961D01*
X42113Y104954D01*
X42051Y104947D01*
X41992Y104941D01*
X41939Y104938D01*
X41893D01*
X41857Y104934D01*
X41808D01*
X41732Y104938D01*
X41657Y104941D01*
X41588Y104947D01*
X41519Y104957D01*
X41454Y104967D01*
X41395Y104980D01*
X41339Y104993D01*
X41286Y105010D01*
X41237Y105023D01*
X41195Y105036D01*
X41159Y105049D01*
X41129Y105059D01*
X41103Y105069D01*
X41086Y105075D01*
X41073Y105082D01*
X41070D01*
X41011Y105112D01*
X40952Y105144D01*
X40899Y105177D01*
X40850Y105210D01*
X40804Y105246D01*
X40765Y105282D01*
X40725Y105315D01*
X40693Y105348D01*
X40663Y105380D01*
X40637Y105410D01*
X40614Y105436D01*
X40598Y105459D01*
X40584Y105476D01*
X40571Y105489D01*
X40568Y105499D01*
X40565Y105502D01*
X40532Y105554D01*
X40506Y105604D01*
X40483Y105656D01*
X40463Y105709D01*
X40430Y105807D01*
X40411Y105895D01*
X40401Y105935D01*
X40398Y105971D01*
X40394Y106004D01*
X40391Y106030D01*
X40388Y106053D01*
Y106069D01*
Y106079D01*
Y106082D01*
X40391Y106138D01*
X40394Y106194D01*
X40414Y106299D01*
X40437Y106391D01*
X40453Y106433D01*
X40466Y106469D01*
X40483Y106506D01*
X40496Y106535D01*
X40512Y106561D01*
X40522Y106584D01*
X40532Y106604D01*
X40542Y106617D01*
X40545Y106624D01*
X40548Y106627D01*
X40581Y106669D01*
X40617Y106712D01*
X40693Y106788D01*
X40775Y106853D01*
X40857Y106912D01*
X40893Y106935D01*
X40929Y106955D01*
X40962Y106975D01*
X40988Y106991D01*
X41011Y107001D01*
X41027Y107011D01*
X41040Y107014D01*
X41044Y107017D01*
X41090Y107037D01*
X41145Y107057D01*
X41208Y107080D01*
X41273Y107099D01*
X41414Y107142D01*
X41555Y107178D01*
X41621Y107194D01*
X41683Y107211D01*
X41742Y107224D01*
X41791Y107237D01*
X41834Y107247D01*
X41867Y107253D01*
X41887Y107260D01*
X41893D01*
X42005Y107286D01*
X42103Y107312D01*
X42195Y107339D01*
X42274Y107362D01*
X42346Y107388D01*
X42408Y107411D01*
X42464Y107431D01*
X42510Y107450D01*
X42549Y107470D01*
X42582Y107486D01*
X42608Y107499D01*
X42628Y107512D01*
X42644Y107522D01*
X42654Y107529D01*
X42657Y107535D01*
X42661D01*
X42687Y107562D01*
X42710Y107588D01*
X42746Y107647D01*
X42772Y107703D01*
X42789Y107755D01*
X42802Y107804D01*
X42805Y107844D01*
X42808Y107857D01*
Y107867D01*
Y107873D01*
Y107877D01*
X42805Y107919D01*
X42799Y107962D01*
X42789Y108004D01*
X42775Y108041D01*
X42743Y108109D01*
X42703Y108168D01*
X42664Y108218D01*
X42648Y108237D01*
X42631Y108254D01*
X42618Y108267D01*
X42608Y108277D01*
X42602Y108280D01*
X42598Y108283D01*
X42556Y108313D01*
X42510Y108339D01*
X42457Y108362D01*
X42405Y108382D01*
X42293Y108411D01*
X42182Y108434D01*
X42133Y108441D01*
X42083Y108444D01*
X42041Y108447D01*
X42001Y108451D01*
X41969Y108454D01*
X41926D01*
X41844Y108451D01*
X41769Y108447D01*
X41700Y108437D01*
X41634Y108424D01*
X41575Y108411D01*
X41519Y108395D01*
X41470Y108378D01*
X41424Y108362D01*
X41385Y108342D01*
X41352Y108326D01*
X41322Y108309D01*
X41300Y108296D01*
X41280Y108283D01*
X41267Y108273D01*
X41260Y108270D01*
X41257Y108267D01*
X41217Y108231D01*
X41178Y108188D01*
X41145Y108145D01*
X41119Y108103D01*
X41093Y108057D01*
X41070Y108011D01*
X41037Y107922D01*
X41024Y107883D01*
X41011Y107844D01*
X41004Y107808D01*
X40998Y107778D01*
X40995Y107755D01*
X40991Y107736D01*
X40988Y107722D01*
Y107719D01*
X40503Y107755D01*
X40506Y107817D01*
X40516Y107877D01*
X40539Y107991D01*
X40552Y108044D01*
X40568Y108093D01*
X40584Y108139D01*
X40601Y108182D01*
X40621Y108221D01*
X40637Y108254D01*
X40650Y108283D01*
X40663Y108309D01*
X40676Y108329D01*
X40686Y108342D01*
X40689Y108352D01*
X40693Y108355D01*
X40725Y108405D01*
X40765Y108451D01*
X40844Y108533D01*
X40929Y108601D01*
X41008Y108660D01*
X41047Y108683D01*
X41083Y108703D01*
X41113Y108723D01*
X41142Y108736D01*
X41162Y108749D01*
X41181Y108756D01*
X41191Y108762D01*
X41195D01*
X41319Y108808D01*
X41450Y108841D01*
X41575Y108867D01*
X41634Y108877D01*
X41693Y108884D01*
X41746Y108890D01*
X41795Y108893D01*
X41837Y108897D01*
X41873D01*
X41903Y108900D01*
X41946D01*
X42087Y108893D01*
D02*
G37*
G36*
X106578Y56805D02*
X106605Y56756D01*
X106670Y56664D01*
X106739Y56578D01*
X106808Y56500D01*
X106841Y56464D01*
X106870Y56434D01*
X106900Y56405D01*
X106923Y56382D01*
X106942Y56362D01*
X106959Y56349D01*
X106969Y56339D01*
X106972Y56336D01*
X107087Y56241D01*
X107201Y56155D01*
X107316Y56080D01*
X107372Y56044D01*
X107424Y56014D01*
X107474Y55985D01*
X107516Y55959D01*
X107556Y55939D01*
X107592Y55919D01*
X107618Y55906D01*
X107641Y55896D01*
X107654Y55890D01*
X107657Y55886D01*
Y55431D01*
X107575Y55463D01*
X107490Y55503D01*
X107408Y55542D01*
X107329Y55581D01*
X107297Y55601D01*
X107264Y55617D01*
X107234Y55634D01*
X107211Y55647D01*
X107192Y55657D01*
X107178Y55667D01*
X107169Y55670D01*
X107165Y55673D01*
X107067Y55735D01*
X106978Y55795D01*
X106903Y55847D01*
X106837Y55896D01*
X106811Y55919D01*
X106788Y55939D01*
X106769Y55955D01*
X106749Y55972D01*
X106736Y55981D01*
X106726Y55991D01*
X106723Y55995D01*
X106719Y55998D01*
Y53000D01*
X106247D01*
Y56851D01*
X106552D01*
X106578Y56805D01*
D02*
G37*
G36*
X110321Y54624D02*
Y53000D01*
X109812D01*
Y54624D01*
X108284Y56834D01*
X108874D01*
X109616Y55706D01*
X109704Y55568D01*
X109786Y55440D01*
X109822Y55381D01*
X109855Y55326D01*
X109888Y55273D01*
X109917Y55227D01*
X109943Y55185D01*
X109967Y55145D01*
X109986Y55112D01*
X110006Y55083D01*
X110019Y55060D01*
X110029Y55043D01*
X110032Y55034D01*
X110035Y55030D01*
X110104Y55152D01*
X110173Y55270D01*
X110239Y55378D01*
X110272Y55427D01*
X110301Y55476D01*
X110327Y55519D01*
X110354Y55558D01*
X110373Y55591D01*
X110393Y55621D01*
X110409Y55644D01*
X110419Y55663D01*
X110426Y55673D01*
X110429Y55677D01*
X111183Y56834D01*
X111800D01*
X110321Y54624D01*
D02*
G37*
G36*
X64290Y96805D02*
X64316Y96756D01*
X64382Y96664D01*
X64451Y96579D01*
X64519Y96500D01*
X64552Y96464D01*
X64582Y96434D01*
X64611Y96405D01*
X64634Y96382D01*
X64654Y96362D01*
X64670Y96349D01*
X64680Y96339D01*
X64683Y96336D01*
X64798Y96241D01*
X64913Y96155D01*
X65028Y96080D01*
X65083Y96044D01*
X65136Y96014D01*
X65185Y95985D01*
X65228Y95959D01*
X65267Y95939D01*
X65303Y95919D01*
X65329Y95906D01*
X65352Y95896D01*
X65366Y95890D01*
X65369Y95886D01*
Y95430D01*
X65287Y95463D01*
X65202Y95503D01*
X65120Y95542D01*
X65041Y95581D01*
X65008Y95601D01*
X64975Y95617D01*
X64946Y95634D01*
X64923Y95647D01*
X64903Y95657D01*
X64890Y95667D01*
X64880Y95670D01*
X64877Y95673D01*
X64779Y95736D01*
X64690Y95795D01*
X64614Y95847D01*
X64549Y95896D01*
X64523Y95919D01*
X64500Y95939D01*
X64480Y95955D01*
X64460Y95972D01*
X64447Y95982D01*
X64437Y95991D01*
X64434Y95995D01*
X64431Y95998D01*
Y93000D01*
X63959D01*
Y96851D01*
X64263D01*
X64290Y96805D01*
D02*
G37*
G36*
X69400Y93000D02*
X68892D01*
Y94702D01*
X68236D01*
X68177Y94699D01*
X68127Y94696D01*
X68088Y94692D01*
X68059Y94689D01*
X68039Y94686D01*
X68026Y94683D01*
X68022D01*
X67980Y94670D01*
X67937Y94653D01*
X67898Y94637D01*
X67862Y94620D01*
X67835Y94604D01*
X67813Y94594D01*
X67796Y94584D01*
X67793Y94581D01*
X67750Y94548D01*
X67704Y94512D01*
X67662Y94469D01*
X67619Y94427D01*
X67586Y94387D01*
X67557Y94355D01*
X67547Y94341D01*
X67540Y94332D01*
X67534Y94328D01*
Y94325D01*
X67504Y94289D01*
X67478Y94250D01*
X67416Y94164D01*
X67353Y94076D01*
X67294Y93994D01*
X67268Y93951D01*
X67245Y93915D01*
X67222Y93882D01*
X67202Y93853D01*
X67189Y93830D01*
X67176Y93813D01*
X67170Y93800D01*
X67166Y93797D01*
X66658Y93000D01*
X66025D01*
X66687Y94043D01*
X66763Y94151D01*
X66838Y94250D01*
X66910Y94338D01*
X66943Y94378D01*
X66973Y94410D01*
X67002Y94443D01*
X67029Y94473D01*
X67052Y94496D01*
X67071Y94515D01*
X67088Y94532D01*
X67101Y94542D01*
X67107Y94548D01*
X67111Y94551D01*
X67153Y94587D01*
X67202Y94620D01*
X67252Y94653D01*
X67301Y94683D01*
X67347Y94709D01*
X67383Y94729D01*
X67396Y94735D01*
X67406Y94742D01*
X67412Y94745D01*
X67416D01*
X67314Y94761D01*
X67222Y94781D01*
X67137Y94807D01*
X67055Y94833D01*
X66983Y94860D01*
X66914Y94889D01*
X66855Y94922D01*
X66799Y94952D01*
X66753Y94981D01*
X66710Y95007D01*
X66678Y95034D01*
X66648Y95053D01*
X66628Y95073D01*
X66612Y95086D01*
X66602Y95096D01*
X66599Y95099D01*
X66553Y95152D01*
X66510Y95207D01*
X66474Y95266D01*
X66445Y95325D01*
X66418Y95381D01*
X66399Y95440D01*
X66379Y95496D01*
X66366Y95549D01*
X66356Y95598D01*
X66346Y95644D01*
X66340Y95683D01*
X66337Y95719D01*
Y95749D01*
X66333Y95768D01*
Y95785D01*
Y95788D01*
X66337Y95847D01*
X66340Y95903D01*
X66359Y96011D01*
X66382Y96109D01*
X66399Y96152D01*
X66412Y96195D01*
X66428Y96231D01*
X66441Y96267D01*
X66458Y96296D01*
X66468Y96319D01*
X66478Y96339D01*
X66487Y96352D01*
X66491Y96362D01*
X66494Y96365D01*
X66527Y96411D01*
X66559Y96457D01*
X66592Y96496D01*
X66628Y96533D01*
X66664Y96565D01*
X66701Y96595D01*
X66766Y96647D01*
X66829Y96683D01*
X66855Y96697D01*
X66878Y96710D01*
X66894Y96719D01*
X66907Y96726D01*
X66917Y96729D01*
X66920D01*
X66973Y96749D01*
X67029Y96765D01*
X67091Y96779D01*
X67153Y96792D01*
X67284Y96808D01*
X67409Y96821D01*
X67468Y96825D01*
X67524Y96828D01*
X67573Y96831D01*
X67616Y96834D01*
X69400D01*
Y93000D01*
D02*
G37*
G36*
X98055Y85714D02*
X97566D01*
Y88978D01*
X96457Y85714D01*
X96001D01*
X94883Y88922D01*
Y85714D01*
X94394D01*
Y89548D01*
X95076D01*
X95998Y86879D01*
X96024Y86806D01*
X96047Y86737D01*
X96067Y86672D01*
X96087Y86613D01*
X96106Y86557D01*
X96123Y86508D01*
X96139Y86462D01*
X96152Y86419D01*
X96162Y86383D01*
X96172Y86354D01*
X96182Y86327D01*
X96188Y86304D01*
X96195Y86288D01*
X96198Y86275D01*
X96201Y86268D01*
Y86265D01*
X96215Y86301D01*
X96228Y86344D01*
X96254Y86432D01*
X96287Y86528D01*
X96316Y86619D01*
X96329Y86662D01*
X96342Y86701D01*
X96356Y86737D01*
X96365Y86770D01*
X96372Y86796D01*
X96379Y86816D01*
X96385Y86829D01*
Y86833D01*
X97294Y89548D01*
X98055D01*
Y85714D01*
D02*
G37*
G36*
X89999Y87331D02*
X89996Y87220D01*
X89992Y87115D01*
X89986Y87016D01*
X89976Y86924D01*
X89966Y86839D01*
X89953Y86760D01*
X89940Y86688D01*
X89927Y86623D01*
X89914Y86564D01*
X89901Y86514D01*
X89887Y86472D01*
X89878Y86436D01*
X89868Y86406D01*
X89861Y86387D01*
X89855Y86373D01*
Y86370D01*
X89825Y86308D01*
X89792Y86245D01*
X89756Y86190D01*
X89717Y86137D01*
X89674Y86091D01*
X89635Y86045D01*
X89596Y86006D01*
X89556Y85970D01*
X89517Y85937D01*
X89481Y85911D01*
X89448Y85888D01*
X89422Y85868D01*
X89399Y85852D01*
X89382Y85842D01*
X89369Y85835D01*
X89366Y85832D01*
X89300Y85799D01*
X89228Y85773D01*
X89156Y85747D01*
X89084Y85727D01*
X88936Y85694D01*
X88864Y85681D01*
X88795Y85671D01*
X88730Y85665D01*
X88671Y85658D01*
X88618Y85655D01*
X88572Y85652D01*
X88536Y85649D01*
X88484D01*
X88382Y85652D01*
X88287Y85658D01*
X88195Y85668D01*
X88110Y85681D01*
X88031Y85698D01*
X87956Y85714D01*
X87890Y85734D01*
X87828Y85753D01*
X87772Y85773D01*
X87726Y85793D01*
X87683Y85809D01*
X87651Y85826D01*
X87624Y85839D01*
X87605Y85849D01*
X87591Y85855D01*
X87588Y85858D01*
X87526Y85901D01*
X87470Y85944D01*
X87418Y85990D01*
X87372Y86036D01*
X87326Y86081D01*
X87290Y86127D01*
X87254Y86173D01*
X87224Y86216D01*
X87198Y86255D01*
X87175Y86295D01*
X87155Y86327D01*
X87142Y86357D01*
X87129Y86380D01*
X87122Y86396D01*
X87116Y86409D01*
Y86413D01*
X87093Y86478D01*
X87073Y86550D01*
X87040Y86701D01*
X87018Y86852D01*
X87008Y86928D01*
X87001Y87000D01*
X86994Y87069D01*
X86991Y87131D01*
X86988Y87187D01*
Y87236D01*
X86985Y87275D01*
Y87305D01*
Y87325D01*
Y87331D01*
Y89548D01*
X87493D01*
Y87334D01*
X87496Y87203D01*
X87503Y87085D01*
X87516Y86977D01*
X87529Y86879D01*
X87549Y86790D01*
X87568Y86708D01*
X87591Y86639D01*
X87611Y86577D01*
X87634Y86524D01*
X87657Y86478D01*
X87677Y86442D01*
X87696Y86413D01*
X87710Y86390D01*
X87723Y86373D01*
X87729Y86364D01*
X87732Y86360D01*
X87782Y86314D01*
X87834Y86278D01*
X87893Y86242D01*
X87956Y86216D01*
X88021Y86190D01*
X88087Y86170D01*
X88156Y86154D01*
X88218Y86141D01*
X88280Y86127D01*
X88339Y86121D01*
X88392Y86114D01*
X88438Y86111D01*
X88477D01*
X88503Y86108D01*
X88530D01*
X88648Y86114D01*
X88753Y86127D01*
X88802Y86137D01*
X88848Y86147D01*
X88887Y86160D01*
X88926Y86173D01*
X88963Y86183D01*
X88992Y86196D01*
X89018Y86206D01*
X89041Y86216D01*
X89058Y86222D01*
X89071Y86229D01*
X89077Y86236D01*
X89081D01*
X89159Y86288D01*
X89225Y86347D01*
X89281Y86406D01*
X89323Y86465D01*
X89356Y86518D01*
X89369Y86541D01*
X89382Y86560D01*
X89389Y86577D01*
X89395Y86590D01*
X89399Y86596D01*
Y86600D01*
X89415Y86646D01*
X89428Y86698D01*
X89441Y86754D01*
X89451Y86813D01*
X89468Y86937D01*
X89477Y87056D01*
X89484Y87111D01*
Y87164D01*
X89487Y87213D01*
X89491Y87252D01*
Y87288D01*
Y87311D01*
Y87328D01*
Y87334D01*
Y89548D01*
X89999D01*
Y87331D01*
D02*
G37*
G36*
X93577Y85714D02*
X93069D01*
Y87272D01*
X92088D01*
X91941Y87275D01*
X91806Y87285D01*
X91682Y87305D01*
X91570Y87325D01*
X91468Y87351D01*
X91373Y87380D01*
X91291Y87410D01*
X91219Y87443D01*
X91157Y87472D01*
X91104Y87502D01*
X91062Y87531D01*
X91026Y87557D01*
X90996Y87580D01*
X90980Y87597D01*
X90967Y87607D01*
X90963Y87610D01*
X90908Y87675D01*
X90862Y87741D01*
X90819Y87813D01*
X90783Y87882D01*
X90753Y87951D01*
X90727Y88020D01*
X90707Y88086D01*
X90691Y88151D01*
X90678Y88210D01*
X90668Y88263D01*
X90662Y88312D01*
X90655Y88354D01*
Y88390D01*
X90652Y88414D01*
Y88430D01*
Y88437D01*
X90658Y88541D01*
X90671Y88640D01*
X90688Y88728D01*
X90701Y88768D01*
X90711Y88804D01*
X90721Y88837D01*
X90734Y88869D01*
X90744Y88896D01*
X90750Y88915D01*
X90760Y88935D01*
X90763Y88948D01*
X90770Y88955D01*
Y88958D01*
X90816Y89043D01*
X90865Y89115D01*
X90917Y89181D01*
X90967Y89233D01*
X91009Y89276D01*
X91045Y89306D01*
X91058Y89315D01*
X91068Y89322D01*
X91075Y89329D01*
X91078D01*
X91154Y89375D01*
X91232Y89414D01*
X91311Y89443D01*
X91386Y89470D01*
X91419Y89480D01*
X91452Y89486D01*
X91478Y89496D01*
X91505Y89499D01*
X91524Y89503D01*
X91537Y89506D01*
X91547Y89509D01*
X91550D01*
X91590Y89516D01*
X91632Y89522D01*
X91728Y89532D01*
X91823Y89539D01*
X91918Y89545D01*
X92003D01*
X92039Y89548D01*
X93577D01*
Y85714D01*
D02*
G37*
G36*
X23357Y71547D02*
X23439Y71541D01*
X23515Y71528D01*
X23587Y71511D01*
X23652Y71488D01*
X23715Y71469D01*
X23774Y71443D01*
X23826Y71420D01*
X23875Y71397D01*
X23915Y71370D01*
X23951Y71351D01*
X23980Y71331D01*
X24003Y71311D01*
X24023Y71298D01*
X24033Y71292D01*
X24036Y71288D01*
X24092Y71239D01*
X24141Y71183D01*
X24184Y71124D01*
X24226Y71065D01*
X24262Y71003D01*
X24292Y70944D01*
X24321Y70885D01*
X24344Y70826D01*
X24367Y70770D01*
X24384Y70721D01*
X24397Y70675D01*
X24407Y70636D01*
X24417Y70603D01*
X24423Y70577D01*
X24426Y70563D01*
Y70557D01*
X23954Y70472D01*
X23944Y70534D01*
X23931Y70593D01*
X23915Y70649D01*
X23898Y70698D01*
X23879Y70744D01*
X23859Y70786D01*
X23839Y70826D01*
X23820Y70859D01*
X23800Y70891D01*
X23780Y70918D01*
X23764Y70941D01*
X23751Y70957D01*
X23738Y70970D01*
X23728Y70983D01*
X23724Y70987D01*
X23721Y70990D01*
X23685Y71019D01*
X23649Y71049D01*
X23610Y71072D01*
X23573Y71092D01*
X23495Y71121D01*
X23423Y71141D01*
X23360Y71154D01*
X23334Y71157D01*
X23311Y71160D01*
X23291Y71164D01*
X23265D01*
X23213Y71160D01*
X23167Y71157D01*
X23078Y71137D01*
X22999Y71111D01*
X22934Y71078D01*
X22908Y71062D01*
X22881Y71046D01*
X22862Y71033D01*
X22845Y71019D01*
X22829Y71009D01*
X22819Y71000D01*
X22816Y70996D01*
X22813Y70993D01*
X22780Y70960D01*
X22753Y70924D01*
X22731Y70891D01*
X22711Y70855D01*
X22678Y70783D01*
X22658Y70714D01*
X22645Y70655D01*
X22642Y70629D01*
X22639Y70606D01*
X22635Y70590D01*
Y70577D01*
Y70567D01*
Y70563D01*
X22639Y70504D01*
X22645Y70449D01*
X22658Y70399D01*
X22675Y70350D01*
X22691Y70308D01*
X22711Y70268D01*
X22734Y70232D01*
X22757Y70199D01*
X22780Y70173D01*
X22803Y70147D01*
X22822Y70127D01*
X22839Y70111D01*
X22855Y70098D01*
X22868Y70088D01*
X22875Y70085D01*
X22878Y70081D01*
X22924Y70055D01*
X22970Y70029D01*
X23062Y69989D01*
X23154Y69963D01*
X23236Y69943D01*
X23275Y69937D01*
X23308Y69934D01*
X23341Y69927D01*
X23367D01*
X23387Y69924D01*
X23439D01*
X23465Y69927D01*
X23485Y69930D01*
X23492D01*
X23544Y69517D01*
X23472Y69533D01*
X23410Y69547D01*
X23354Y69553D01*
X23305Y69560D01*
X23265Y69563D01*
X23236Y69566D01*
X23213D01*
X23154Y69563D01*
X23095Y69556D01*
X23042Y69547D01*
X22990Y69533D01*
X22944Y69517D01*
X22898Y69501D01*
X22859Y69481D01*
X22819Y69461D01*
X22786Y69442D01*
X22757Y69422D01*
X22734Y69406D01*
X22714Y69389D01*
X22698Y69376D01*
X22685Y69366D01*
X22678Y69360D01*
X22675Y69356D01*
X22639Y69317D01*
X22606Y69274D01*
X22576Y69229D01*
X22550Y69186D01*
X22531Y69140D01*
X22514Y69094D01*
X22488Y69012D01*
X22478Y68973D01*
X22471Y68937D01*
X22468Y68904D01*
X22465Y68878D01*
X22462Y68855D01*
Y68835D01*
Y68825D01*
Y68822D01*
X22465Y68759D01*
X22471Y68700D01*
X22481Y68645D01*
X22498Y68592D01*
X22514Y68540D01*
X22534Y68494D01*
X22553Y68451D01*
X22576Y68412D01*
X22596Y68376D01*
X22619Y68346D01*
X22639Y68317D01*
X22655Y68297D01*
X22671Y68277D01*
X22681Y68264D01*
X22688Y68258D01*
X22691Y68254D01*
X22734Y68215D01*
X22780Y68179D01*
X22826Y68149D01*
X22875Y68123D01*
X22921Y68100D01*
X22967Y68081D01*
X23013Y68064D01*
X23055Y68054D01*
X23098Y68044D01*
X23134Y68038D01*
X23167Y68031D01*
X23196Y68028D01*
X23219Y68025D01*
X23252D01*
X23305Y68028D01*
X23354Y68031D01*
X23446Y68051D01*
X23528Y68081D01*
X23564Y68097D01*
X23596Y68113D01*
X23626Y68126D01*
X23652Y68143D01*
X23675Y68159D01*
X23692Y68172D01*
X23708Y68182D01*
X23718Y68192D01*
X23724Y68195D01*
X23728Y68199D01*
X23764Y68235D01*
X23793Y68274D01*
X23826Y68317D01*
X23852Y68363D01*
X23898Y68458D01*
X23938Y68553D01*
X23951Y68599D01*
X23964Y68641D01*
X23977Y68677D01*
X23983Y68710D01*
X23990Y68736D01*
X23997Y68759D01*
X24000Y68773D01*
Y68776D01*
X24472Y68713D01*
X24459Y68625D01*
X24443Y68543D01*
X24420Y68464D01*
X24394Y68389D01*
X24364Y68320D01*
X24331Y68258D01*
X24298Y68199D01*
X24266Y68143D01*
X24233Y68097D01*
X24203Y68054D01*
X24174Y68018D01*
X24148Y67989D01*
X24125Y67962D01*
X24108Y67946D01*
X24098Y67936D01*
X24095Y67933D01*
X24029Y67880D01*
X23964Y67835D01*
X23892Y67795D01*
X23823Y67759D01*
X23751Y67733D01*
X23682Y67707D01*
X23613Y67687D01*
X23551Y67671D01*
X23488Y67661D01*
X23433Y67651D01*
X23383Y67644D01*
X23341Y67638D01*
X23305D01*
X23278Y67634D01*
X23255D01*
X23154Y67638D01*
X23055Y67651D01*
X22963Y67667D01*
X22875Y67690D01*
X22793Y67716D01*
X22717Y67746D01*
X22649Y67775D01*
X22583Y67808D01*
X22527Y67841D01*
X22475Y67871D01*
X22432Y67900D01*
X22396Y67926D01*
X22366Y67949D01*
X22347Y67966D01*
X22334Y67979D01*
X22330Y67982D01*
X22265Y68048D01*
X22209Y68120D01*
X22160Y68189D01*
X22117Y68261D01*
X22081Y68333D01*
X22052Y68405D01*
X22029Y68471D01*
X22009Y68536D01*
X21993Y68599D01*
X21983Y68655D01*
X21973Y68704D01*
X21970Y68746D01*
X21966Y68782D01*
X21963Y68809D01*
Y68825D01*
Y68832D01*
X21966Y68901D01*
X21970Y68966D01*
X21979Y69028D01*
X21993Y69087D01*
X22006Y69140D01*
X22022Y69192D01*
X22042Y69238D01*
X22058Y69281D01*
X22075Y69320D01*
X22094Y69353D01*
X22111Y69383D01*
X22124Y69409D01*
X22137Y69425D01*
X22143Y69442D01*
X22150Y69448D01*
X22153Y69451D01*
X22189Y69497D01*
X22229Y69537D01*
X22271Y69573D01*
X22314Y69606D01*
X22360Y69635D01*
X22403Y69661D01*
X22488Y69707D01*
X22527Y69724D01*
X22563Y69737D01*
X22596Y69750D01*
X22626Y69760D01*
X22649Y69766D01*
X22665Y69773D01*
X22678Y69776D01*
X22681D01*
X22590Y69825D01*
X22508Y69878D01*
X22442Y69934D01*
X22383Y69983D01*
X22340Y70029D01*
X22311Y70068D01*
X22298Y70081D01*
X22291Y70091D01*
X22285Y70098D01*
Y70101D01*
X22239Y70180D01*
X22206Y70258D01*
X22183Y70334D01*
X22166Y70403D01*
X22157Y70465D01*
X22153Y70491D01*
Y70511D01*
X22150Y70531D01*
Y70544D01*
Y70550D01*
Y70554D01*
Y70603D01*
X22157Y70649D01*
X22173Y70741D01*
X22196Y70826D01*
X22219Y70898D01*
X22232Y70931D01*
X22245Y70960D01*
X22258Y70983D01*
X22268Y71006D01*
X22278Y71023D01*
X22285Y71036D01*
X22288Y71042D01*
X22291Y71046D01*
X22350Y71128D01*
X22412Y71200D01*
X22481Y71265D01*
X22547Y71318D01*
X22606Y71357D01*
X22632Y71374D01*
X22655Y71390D01*
X22671Y71400D01*
X22685Y71406D01*
X22694Y71413D01*
X22698D01*
X22796Y71459D01*
X22898Y71492D01*
X22996Y71518D01*
X23085Y71534D01*
X23124Y71541D01*
X23160Y71544D01*
X23193Y71547D01*
X23223D01*
X23246Y71551D01*
X23275D01*
X23357Y71547D01*
D02*
G37*
G36*
X26588Y71597D02*
X26680Y71590D01*
X26768Y71577D01*
X26853Y71564D01*
X26935Y71547D01*
X27011Y71528D01*
X27083Y71505D01*
X27149Y71485D01*
X27211Y71462D01*
X27264Y71439D01*
X27309Y71420D01*
X27349Y71403D01*
X27382Y71390D01*
X27405Y71377D01*
X27418Y71370D01*
X27424Y71367D01*
X27500Y71321D01*
X27572Y71272D01*
X27641Y71219D01*
X27703Y71164D01*
X27762Y71108D01*
X27815Y71049D01*
X27864Y70993D01*
X27906Y70941D01*
X27946Y70888D01*
X27979Y70842D01*
X28008Y70800D01*
X28031Y70760D01*
X28051Y70731D01*
X28064Y70708D01*
X28070Y70695D01*
X28074Y70688D01*
X28113Y70603D01*
X28149Y70514D01*
X28179Y70426D01*
X28205Y70337D01*
X28228Y70249D01*
X28244Y70163D01*
X28261Y70078D01*
X28271Y69999D01*
X28280Y69924D01*
X28287Y69858D01*
X28293Y69796D01*
X28297Y69747D01*
X28300Y69704D01*
Y69671D01*
Y69652D01*
Y69648D01*
Y69645D01*
X28297Y69543D01*
X28290Y69442D01*
X28280Y69347D01*
X28267Y69251D01*
X28254Y69163D01*
X28238Y69078D01*
X28218Y68999D01*
X28198Y68923D01*
X28182Y68855D01*
X28162Y68796D01*
X28146Y68743D01*
X28129Y68697D01*
X28120Y68664D01*
X28110Y68638D01*
X28103Y68622D01*
X28100Y68615D01*
X28061Y68527D01*
X28015Y68448D01*
X27969Y68369D01*
X27923Y68300D01*
X27874Y68235D01*
X27824Y68172D01*
X27775Y68120D01*
X27729Y68071D01*
X27683Y68028D01*
X27644Y67989D01*
X27605Y67956D01*
X27572Y67930D01*
X27546Y67910D01*
X27526Y67897D01*
X27513Y67887D01*
X27509Y67884D01*
X27434Y67841D01*
X27355Y67802D01*
X27270Y67769D01*
X27188Y67739D01*
X27103Y67716D01*
X27018Y67697D01*
X26935Y67680D01*
X26857Y67667D01*
X26785Y67654D01*
X26716Y67647D01*
X26653Y67641D01*
X26601Y67638D01*
X26558D01*
X26526Y67634D01*
X26499D01*
X26391Y67638D01*
X26283Y67647D01*
X26184Y67664D01*
X26089Y67687D01*
X26001Y67710D01*
X25919Y67739D01*
X25840Y67769D01*
X25771Y67798D01*
X25706Y67828D01*
X25650Y67857D01*
X25604Y67887D01*
X25561Y67910D01*
X25532Y67933D01*
X25509Y67949D01*
X25492Y67959D01*
X25489Y67962D01*
X25414Y68028D01*
X25345Y68097D01*
X25282Y68172D01*
X25223Y68251D01*
X25171Y68330D01*
X25122Y68409D01*
X25082Y68487D01*
X25043Y68563D01*
X25013Y68632D01*
X24984Y68700D01*
X24961Y68759D01*
X24945Y68812D01*
X24928Y68855D01*
X24918Y68887D01*
X24915Y68897D01*
Y68907D01*
X24912Y68910D01*
Y68914D01*
X25420Y69042D01*
X25443Y68953D01*
X25466Y68871D01*
X25496Y68796D01*
X25528Y68723D01*
X25561Y68658D01*
X25594Y68599D01*
X25627Y68546D01*
X25660Y68497D01*
X25692Y68454D01*
X25722Y68418D01*
X25751Y68385D01*
X25774Y68359D01*
X25794Y68340D01*
X25811Y68326D01*
X25820Y68317D01*
X25824Y68313D01*
X25879Y68271D01*
X25938Y68231D01*
X26001Y68199D01*
X26060Y68172D01*
X26122Y68146D01*
X26181Y68126D01*
X26237Y68110D01*
X26293Y68097D01*
X26345Y68087D01*
X26391Y68081D01*
X26434Y68074D01*
X26470Y68071D01*
X26499D01*
X26522Y68067D01*
X26542D01*
X26607Y68071D01*
X26670Y68074D01*
X26791Y68097D01*
X26850Y68110D01*
X26903Y68123D01*
X26952Y68139D01*
X27001Y68159D01*
X27044Y68176D01*
X27080Y68192D01*
X27113Y68205D01*
X27142Y68218D01*
X27165Y68231D01*
X27182Y68241D01*
X27191Y68244D01*
X27195Y68248D01*
X27250Y68284D01*
X27300Y68323D01*
X27349Y68366D01*
X27391Y68409D01*
X27431Y68454D01*
X27467Y68500D01*
X27500Y68543D01*
X27529Y68589D01*
X27555Y68628D01*
X27578Y68668D01*
X27595Y68704D01*
X27611Y68733D01*
X27621Y68756D01*
X27631Y68776D01*
X27634Y68789D01*
X27637Y68792D01*
X27664Y68861D01*
X27683Y68933D01*
X27719Y69081D01*
X27742Y69222D01*
X27752Y69291D01*
X27762Y69356D01*
X27765Y69419D01*
X27772Y69475D01*
X27775Y69524D01*
Y69566D01*
X27779Y69599D01*
Y69625D01*
Y69642D01*
Y69648D01*
X27772Y69789D01*
X27759Y69924D01*
X27752Y69986D01*
X27742Y70045D01*
X27729Y70104D01*
X27719Y70157D01*
X27710Y70206D01*
X27696Y70249D01*
X27687Y70288D01*
X27680Y70321D01*
X27670Y70347D01*
X27667Y70367D01*
X27660Y70380D01*
Y70383D01*
X27634Y70449D01*
X27608Y70511D01*
X27578Y70570D01*
X27546Y70622D01*
X27509Y70675D01*
X27477Y70721D01*
X27441Y70763D01*
X27408Y70803D01*
X27375Y70836D01*
X27342Y70868D01*
X27316Y70895D01*
X27293Y70914D01*
X27273Y70931D01*
X27257Y70944D01*
X27247Y70951D01*
X27244Y70954D01*
X27185Y70990D01*
X27126Y71023D01*
X27063Y71052D01*
X27001Y71078D01*
X26939Y71098D01*
X26877Y71114D01*
X26817Y71128D01*
X26762Y71141D01*
X26706Y71151D01*
X26657Y71157D01*
X26614Y71160D01*
X26575Y71164D01*
X26545Y71167D01*
X26503D01*
X26434Y71164D01*
X26365Y71157D01*
X26302Y71151D01*
X26240Y71137D01*
X26184Y71121D01*
X26132Y71105D01*
X26083Y71088D01*
X26040Y71072D01*
X26001Y71052D01*
X25968Y71036D01*
X25935Y71019D01*
X25912Y71003D01*
X25892Y70990D01*
X25879Y70983D01*
X25870Y70977D01*
X25866Y70973D01*
X25820Y70934D01*
X25774Y70891D01*
X25735Y70846D01*
X25696Y70800D01*
X25630Y70698D01*
X25574Y70596D01*
X25551Y70550D01*
X25532Y70508D01*
X25515Y70465D01*
X25502Y70432D01*
X25489Y70403D01*
X25482Y70383D01*
X25476Y70367D01*
Y70363D01*
X24977Y70481D01*
X25010Y70580D01*
X25046Y70668D01*
X25086Y70754D01*
X25128Y70836D01*
X25174Y70908D01*
X25220Y70977D01*
X25266Y71036D01*
X25312Y71092D01*
X25355Y71141D01*
X25394Y71183D01*
X25433Y71219D01*
X25463Y71252D01*
X25492Y71275D01*
X25512Y71292D01*
X25525Y71301D01*
X25528Y71305D01*
X25604Y71357D01*
X25683Y71403D01*
X25761Y71443D01*
X25843Y71475D01*
X25925Y71505D01*
X26004Y71528D01*
X26083Y71547D01*
X26158Y71564D01*
X26227Y71574D01*
X26289Y71583D01*
X26348Y71590D01*
X26398Y71597D01*
X26437D01*
X26467Y71600D01*
X26493D01*
X26588Y71597D01*
D02*
G37*
%LPC*%
G36*
X50192Y108411D02*
X48978D01*
X48899Y108408D01*
X48827Y108405D01*
X48761Y108395D01*
X48699Y108385D01*
X48643Y108372D01*
X48594Y108355D01*
X48548Y108339D01*
X48506Y108323D01*
X48470Y108306D01*
X48440Y108290D01*
X48414Y108277D01*
X48391Y108260D01*
X48375Y108250D01*
X48365Y108241D01*
X48358Y108237D01*
X48355Y108234D01*
X48319Y108201D01*
X48289Y108165D01*
X48263Y108129D01*
X48240Y108090D01*
X48220Y108054D01*
X48204Y108018D01*
X48181Y107945D01*
X48165Y107883D01*
X48161Y107857D01*
X48158Y107834D01*
X48155Y107814D01*
Y107801D01*
Y107791D01*
Y107788D01*
X48158Y107719D01*
X48171Y107653D01*
X48188Y107595D01*
X48207Y107545D01*
X48227Y107503D01*
X48243Y107470D01*
X48250Y107457D01*
X48256Y107447D01*
X48260Y107444D01*
Y107440D01*
X48302Y107385D01*
X48348Y107339D01*
X48397Y107299D01*
X48447Y107266D01*
X48489Y107244D01*
X48525Y107224D01*
X48539Y107217D01*
X48548Y107214D01*
X48555Y107211D01*
X48558D01*
X48597Y107198D01*
X48637Y107188D01*
X48725Y107171D01*
X48817Y107158D01*
X48903Y107152D01*
X48945Y107148D01*
X48981Y107145D01*
X49017D01*
X49044Y107142D01*
X50192D01*
Y108411D01*
D02*
G37*
G36*
X68892Y96411D02*
X67678D01*
X67599Y96408D01*
X67527Y96405D01*
X67462Y96395D01*
X67399Y96385D01*
X67343Y96372D01*
X67294Y96355D01*
X67248Y96339D01*
X67206Y96323D01*
X67170Y96306D01*
X67140Y96290D01*
X67114Y96277D01*
X67091Y96260D01*
X67075Y96250D01*
X67065Y96241D01*
X67058Y96237D01*
X67055Y96234D01*
X67019Y96201D01*
X66989Y96165D01*
X66963Y96129D01*
X66940Y96090D01*
X66920Y96054D01*
X66904Y96018D01*
X66881Y95945D01*
X66865Y95883D01*
X66861Y95857D01*
X66858Y95834D01*
X66855Y95814D01*
Y95801D01*
Y95791D01*
Y95788D01*
X66858Y95719D01*
X66871Y95653D01*
X66887Y95595D01*
X66907Y95545D01*
X66927Y95503D01*
X66943Y95470D01*
X66950Y95457D01*
X66956Y95447D01*
X66960Y95444D01*
Y95440D01*
X67002Y95385D01*
X67048Y95339D01*
X67097Y95299D01*
X67147Y95266D01*
X67189Y95244D01*
X67225Y95224D01*
X67238Y95217D01*
X67248Y95214D01*
X67255Y95211D01*
X67258D01*
X67298Y95198D01*
X67337Y95188D01*
X67425Y95171D01*
X67517Y95158D01*
X67603Y95152D01*
X67645Y95148D01*
X67681Y95145D01*
X67717D01*
X67744Y95142D01*
X68892D01*
Y96411D01*
D02*
G37*
G36*
X93069Y89096D02*
X91970D01*
X91918Y89092D01*
X91872Y89089D01*
X91826Y89086D01*
X91790D01*
X91754Y89083D01*
X91724Y89079D01*
X91698Y89076D01*
X91675Y89073D01*
X91655Y89069D01*
X91642Y89066D01*
X91629Y89063D01*
X91623D01*
X91616Y89060D01*
X91547Y89033D01*
X91482Y89001D01*
X91429Y88964D01*
X91383Y88925D01*
X91347Y88889D01*
X91321Y88860D01*
X91304Y88840D01*
X91298Y88837D01*
Y88833D01*
X91255Y88768D01*
X91226Y88696D01*
X91203Y88627D01*
X91190Y88564D01*
X91180Y88505D01*
X91176Y88482D01*
Y88459D01*
X91173Y88443D01*
Y88430D01*
Y88423D01*
Y88420D01*
X91176Y88361D01*
X91183Y88302D01*
X91193Y88249D01*
X91206Y88200D01*
X91223Y88154D01*
X91239Y88112D01*
X91259Y88072D01*
X91275Y88040D01*
X91295Y88007D01*
X91314Y87981D01*
X91331Y87958D01*
X91347Y87938D01*
X91360Y87925D01*
X91370Y87915D01*
X91377Y87908D01*
X91380Y87905D01*
X91422Y87872D01*
X91468Y87846D01*
X91521Y87823D01*
X91577Y87800D01*
X91691Y87767D01*
X91806Y87748D01*
X91862Y87741D01*
X91911Y87735D01*
X91957Y87731D01*
X92000Y87728D01*
X92033Y87725D01*
X93069D01*
Y89096D01*
D02*
G37*
%LPD*%
D10*
X81102Y49803D02*
Y72244D01*
X58661Y49803D02*
Y72244D01*
X81102D01*
X58661Y49803D02*
X81102D01*
X22835Y102166D02*
X44094D01*
X22835Y80906D02*
Y81398D01*
Y87106D02*
Y95965D01*
Y101673D02*
Y102166D01*
Y80906D02*
X44094D01*
Y81398D01*
Y87106D02*
Y95965D01*
Y101673D02*
Y102166D01*
X2638Y35827D02*
Y37402D01*
X28622Y35827D02*
Y37402D01*
X2638D02*
X28622D01*
X119177Y41929D02*
X128855D01*
X119177Y50591D02*
X128855D01*
X119177Y26181D02*
X128855D01*
X119177Y34843D02*
X128855D01*
X110531Y28150D02*
X111024D01*
X97638D02*
X98130D01*
X97638D02*
Y48622D01*
X110531D02*
X111024D01*
X97638D02*
X98130D01*
X111024Y28150D02*
Y48622D01*
X19291Y55201D02*
Y64879D01*
X27953Y55201D02*
Y64879D01*
D12*
X87106Y75394D02*
X86368Y75820D01*
Y74967D01*
X87106Y75394D01*
X50197Y100197D02*
X49459Y100623D01*
Y99771D01*
X50197Y100197D01*
X3110Y46260D02*
X2372Y46686D01*
Y45834D01*
X3110Y46260D01*
D60*
X78347Y68307D02*
X77902Y69231D01*
X76903Y69459D01*
X76101Y68820D01*
Y67795D01*
X76903Y67156D01*
X77902Y67384D01*
X78347Y68307D01*
M02*
