G04*
G04 #@! TF.GenerationSoftware,Altium Limited,Altium Designer,23.2.1 (34)*
G04*
G04 Layer_Color=32896*
%FSLAX25Y25*%
%MOIN*%
G70*
G04*
G04 #@! TF.SameCoordinates,26DCB771-F187-4795-AA7E-67AAF857B4AA*
G04*
G04*
G04 #@! TF.FilePolarity,Positive*
G04*
G01*
G75*
%ADD10C,0.00787*%
G36*
X125267Y46954D02*
X125338Y46948D01*
X125402Y46937D01*
X125465Y46922D01*
X125523Y46907D01*
X125577Y46888D01*
X125628Y46868D01*
X125673Y46849D01*
X125716Y46830D01*
X125753Y46810D01*
X125783Y46791D01*
X125811Y46776D01*
X125830Y46761D01*
X125845Y46750D01*
X125856Y46744D01*
X125858Y46742D01*
X125908Y46698D01*
X125953Y46653D01*
X125994Y46604D01*
X126032Y46552D01*
X126067Y46501D01*
X126099Y46449D01*
X126125Y46398D01*
X126151Y46348D01*
X126170Y46303D01*
X126189Y46258D01*
X126204Y46219D01*
X126215Y46185D01*
X126226Y46157D01*
X126232Y46135D01*
X126234Y46129D01*
Y46122D01*
X126237Y46120D01*
Y46118D01*
X125903Y46034D01*
X125888Y46092D01*
X125873Y46146D01*
X125854Y46195D01*
X125832Y46243D01*
X125811Y46286D01*
X125789Y46324D01*
X125768Y46359D01*
X125747Y46391D01*
X125725Y46419D01*
X125706Y46443D01*
X125686Y46464D01*
X125671Y46481D01*
X125658Y46494D01*
X125648Y46503D01*
X125641Y46509D01*
X125639Y46511D01*
X125602Y46539D01*
X125564Y46565D01*
X125523Y46587D01*
X125484Y46604D01*
X125443Y46621D01*
X125405Y46634D01*
X125368Y46645D01*
X125331Y46653D01*
X125297Y46660D01*
X125267Y46664D01*
X125239Y46668D01*
X125215Y46670D01*
X125196D01*
X125181Y46673D01*
X125168D01*
X125125Y46670D01*
X125084Y46668D01*
X125005Y46653D01*
X124966Y46645D01*
X124932Y46636D01*
X124899Y46625D01*
X124867Y46613D01*
X124839Y46602D01*
X124815Y46591D01*
X124794Y46582D01*
X124775Y46574D01*
X124760Y46565D01*
X124749Y46559D01*
X124742Y46557D01*
X124740Y46554D01*
X124704Y46531D01*
X124671Y46505D01*
X124639Y46477D01*
X124611Y46449D01*
X124585Y46419D01*
X124562Y46389D01*
X124540Y46361D01*
X124521Y46331D01*
X124504Y46305D01*
X124489Y46279D01*
X124478Y46256D01*
X124467Y46236D01*
X124461Y46221D01*
X124454Y46208D01*
X124452Y46200D01*
X124450Y46198D01*
X124433Y46152D01*
X124420Y46105D01*
X124396Y46008D01*
X124381Y45916D01*
X124375Y45871D01*
X124368Y45828D01*
X124366Y45787D01*
X124362Y45750D01*
X124360Y45718D01*
Y45690D01*
X124357Y45669D01*
Y45651D01*
Y45641D01*
Y45636D01*
X124362Y45544D01*
X124371Y45456D01*
X124375Y45415D01*
X124381Y45376D01*
X124390Y45338D01*
X124396Y45303D01*
X124403Y45271D01*
X124411Y45243D01*
X124418Y45217D01*
X124422Y45196D01*
X124428Y45178D01*
X124431Y45166D01*
X124435Y45157D01*
Y45155D01*
X124452Y45112D01*
X124469Y45071D01*
X124489Y45032D01*
X124510Y44998D01*
X124534Y44963D01*
X124555Y44933D01*
X124579Y44905D01*
X124601Y44880D01*
X124622Y44858D01*
X124644Y44837D01*
X124661Y44819D01*
X124676Y44807D01*
X124689Y44796D01*
X124699Y44787D01*
X124706Y44783D01*
X124708Y44781D01*
X124747Y44757D01*
X124785Y44736D01*
X124826Y44716D01*
X124867Y44699D01*
X124908Y44686D01*
X124949Y44675D01*
X124987Y44667D01*
X125024Y44658D01*
X125061Y44652D01*
X125093Y44647D01*
X125121Y44645D01*
X125147Y44643D01*
X125166Y44641D01*
X125194D01*
X125239Y44643D01*
X125284Y44647D01*
X125325Y44652D01*
X125366Y44660D01*
X125402Y44671D01*
X125437Y44682D01*
X125469Y44693D01*
X125497Y44703D01*
X125523Y44716D01*
X125544Y44727D01*
X125566Y44738D01*
X125581Y44748D01*
X125594Y44757D01*
X125602Y44761D01*
X125609Y44766D01*
X125611Y44768D01*
X125641Y44794D01*
X125671Y44822D01*
X125697Y44852D01*
X125723Y44882D01*
X125766Y44948D01*
X125802Y45015D01*
X125817Y45045D01*
X125830Y45073D01*
X125841Y45101D01*
X125850Y45123D01*
X125858Y45142D01*
X125863Y45155D01*
X125867Y45166D01*
Y45168D01*
X126194Y45090D01*
X126172Y45026D01*
X126148Y44968D01*
X126123Y44912D01*
X126095Y44858D01*
X126065Y44811D01*
X126034Y44766D01*
X126004Y44727D01*
X125974Y44690D01*
X125946Y44658D01*
X125921Y44630D01*
X125895Y44607D01*
X125875Y44585D01*
X125856Y44570D01*
X125843Y44559D01*
X125835Y44553D01*
X125832Y44551D01*
X125783Y44516D01*
X125731Y44486D01*
X125680Y44460D01*
X125626Y44439D01*
X125572Y44420D01*
X125521Y44404D01*
X125469Y44392D01*
X125420Y44381D01*
X125374Y44374D01*
X125334Y44368D01*
X125295Y44364D01*
X125263Y44359D01*
X125237D01*
X125218Y44357D01*
X125200D01*
X125138Y44359D01*
X125078Y44364D01*
X125020Y44372D01*
X124964Y44381D01*
X124910Y44392D01*
X124861Y44404D01*
X124813Y44420D01*
X124770Y44432D01*
X124730Y44447D01*
X124695Y44462D01*
X124665Y44475D01*
X124639Y44486D01*
X124618Y44495D01*
X124603Y44503D01*
X124594Y44508D01*
X124590Y44510D01*
X124540Y44540D01*
X124493Y44572D01*
X124448Y44607D01*
X124407Y44643D01*
X124368Y44680D01*
X124334Y44718D01*
X124302Y44755D01*
X124274Y44789D01*
X124248Y44824D01*
X124226Y44854D01*
X124207Y44882D01*
X124192Y44908D01*
X124179Y44927D01*
X124170Y44942D01*
X124166Y44951D01*
X124164Y44955D01*
X124138Y45011D01*
X124115Y45069D01*
X124095Y45127D01*
X124078Y45185D01*
X124063Y45243D01*
X124052Y45299D01*
X124041Y45355D01*
X124035Y45406D01*
X124029Y45456D01*
X124024Y45499D01*
X124020Y45540D01*
X124018Y45572D01*
X124016Y45600D01*
Y45621D01*
Y45634D01*
Y45636D01*
Y45638D01*
X124018Y45705D01*
X124022Y45772D01*
X124029Y45834D01*
X124037Y45897D01*
X124046Y45955D01*
X124056Y46011D01*
X124069Y46062D01*
X124082Y46112D01*
X124093Y46157D01*
X124106Y46195D01*
X124117Y46230D01*
X124127Y46260D01*
X124134Y46281D01*
X124140Y46299D01*
X124145Y46309D01*
X124147Y46314D01*
X124173Y46372D01*
X124203Y46423D01*
X124233Y46475D01*
X124263Y46520D01*
X124295Y46563D01*
X124327Y46604D01*
X124360Y46638D01*
X124390Y46670D01*
X124420Y46698D01*
X124446Y46724D01*
X124471Y46746D01*
X124493Y46763D01*
X124510Y46776D01*
X124523Y46784D01*
X124532Y46791D01*
X124534Y46793D01*
X124583Y46821D01*
X124635Y46847D01*
X124691Y46868D01*
X124745Y46888D01*
X124801Y46903D01*
X124856Y46916D01*
X124910Y46926D01*
X124962Y46935D01*
X125009Y46944D01*
X125054Y46948D01*
X125095Y46952D01*
X125129Y46954D01*
X125157D01*
X125179Y46957D01*
X125196D01*
X125267Y46954D01*
D02*
G37*
G36*
X128144Y46617D02*
X126910D01*
X126931Y46584D01*
X126953Y46554D01*
X126974Y46527D01*
X126996Y46503D01*
X127013Y46481D01*
X127028Y46466D01*
X127036Y46455D01*
X127041Y46451D01*
X127058Y46434D01*
X127079Y46413D01*
X127103Y46391D01*
X127131Y46367D01*
X127189Y46314D01*
X127249Y46262D01*
X127277Y46236D01*
X127305Y46213D01*
X127331Y46191D01*
X127352Y46172D01*
X127372Y46157D01*
X127385Y46146D01*
X127395Y46137D01*
X127398Y46135D01*
X127458Y46084D01*
X127514Y46036D01*
X127565Y45989D01*
X127611Y45948D01*
X127654Y45907D01*
X127692Y45871D01*
X127727Y45838D01*
X127759Y45808D01*
X127785Y45780D01*
X127808Y45759D01*
X127828Y45737D01*
X127843Y45722D01*
X127856Y45709D01*
X127864Y45699D01*
X127868Y45694D01*
X127871Y45692D01*
X127920Y45632D01*
X127963Y45576D01*
X128000Y45525D01*
X128028Y45477D01*
X128041Y45458D01*
X128049Y45439D01*
X128058Y45423D01*
X128064Y45411D01*
X128071Y45400D01*
X128075Y45391D01*
X128077Y45387D01*
Y45385D01*
X128099Y45331D01*
X128114Y45277D01*
X128124Y45226D01*
X128131Y45181D01*
X128135Y45161D01*
X128137Y45144D01*
Y45127D01*
X128139Y45114D01*
Y45103D01*
Y45095D01*
Y45090D01*
Y45088D01*
X128137Y45034D01*
X128131Y44981D01*
X128120Y44931D01*
X128107Y44886D01*
X128090Y44841D01*
X128073Y44800D01*
X128053Y44763D01*
X128034Y44729D01*
X128013Y44697D01*
X127993Y44671D01*
X127976Y44647D01*
X127961Y44628D01*
X127946Y44611D01*
X127935Y44600D01*
X127929Y44594D01*
X127927Y44592D01*
X127886Y44555D01*
X127841Y44525D01*
X127795Y44497D01*
X127748Y44475D01*
X127701Y44456D01*
X127654Y44439D01*
X127606Y44426D01*
X127561Y44415D01*
X127520Y44407D01*
X127479Y44400D01*
X127445Y44396D01*
X127415Y44392D01*
X127389D01*
X127370Y44389D01*
X127355D01*
X127290Y44392D01*
X127228Y44398D01*
X127168Y44407D01*
X127114Y44420D01*
X127062Y44432D01*
X127015Y44447D01*
X126972Y44465D01*
X126933Y44482D01*
X126899Y44501D01*
X126869Y44516D01*
X126843Y44533D01*
X126821Y44546D01*
X126804Y44559D01*
X126794Y44568D01*
X126785Y44574D01*
X126783Y44576D01*
X126746Y44613D01*
X126712Y44652D01*
X126682Y44695D01*
X126656Y44738D01*
X126632Y44783D01*
X126613Y44828D01*
X126596Y44873D01*
X126583Y44916D01*
X126570Y44957D01*
X126561Y44993D01*
X126555Y45028D01*
X126548Y45058D01*
X126544Y45082D01*
X126542Y45101D01*
X126540Y45112D01*
Y45116D01*
X126858Y45148D01*
X126860Y45105D01*
X126865Y45064D01*
X126871Y45028D01*
X126880Y44991D01*
X126888Y44959D01*
X126901Y44929D01*
X126912Y44901D01*
X126925Y44877D01*
X126938Y44854D01*
X126948Y44834D01*
X126961Y44819D01*
X126970Y44804D01*
X126978Y44794D01*
X126985Y44787D01*
X126989Y44783D01*
X126991Y44781D01*
X127017Y44757D01*
X127045Y44736D01*
X127073Y44718D01*
X127103Y44703D01*
X127133Y44688D01*
X127163Y44677D01*
X127219Y44662D01*
X127247Y44656D01*
X127271Y44652D01*
X127292Y44649D01*
X127312Y44647D01*
X127327Y44645D01*
X127348D01*
X127387Y44647D01*
X127424Y44652D01*
X127458Y44656D01*
X127490Y44665D01*
X127520Y44675D01*
X127548Y44686D01*
X127574Y44697D01*
X127598Y44708D01*
X127619Y44721D01*
X127638Y44731D01*
X127654Y44742D01*
X127666Y44753D01*
X127677Y44761D01*
X127684Y44766D01*
X127688Y44770D01*
X127690Y44772D01*
X127714Y44796D01*
X127733Y44822D01*
X127750Y44847D01*
X127765Y44873D01*
X127778Y44901D01*
X127789Y44925D01*
X127804Y44974D01*
X127810Y44996D01*
X127815Y45017D01*
X127817Y45034D01*
X127819Y45052D01*
X127821Y45064D01*
Y45073D01*
Y45079D01*
Y45082D01*
X127819Y45114D01*
X127815Y45148D01*
X127808Y45181D01*
X127800Y45213D01*
X127776Y45275D01*
X127750Y45333D01*
X127735Y45359D01*
X127722Y45383D01*
X127712Y45402D01*
X127701Y45419D01*
X127690Y45434D01*
X127684Y45445D01*
X127679Y45452D01*
X127677Y45454D01*
X127647Y45492D01*
X127613Y45533D01*
X127572Y45576D01*
X127531Y45619D01*
X127486Y45664D01*
X127438Y45707D01*
X127393Y45753D01*
X127346Y45793D01*
X127303Y45832D01*
X127262Y45869D01*
X127224Y45903D01*
X127191Y45931D01*
X127163Y45955D01*
X127142Y45972D01*
X127129Y45983D01*
X127127Y45987D01*
X127125D01*
X127077Y46025D01*
X127032Y46064D01*
X126989Y46101D01*
X126951Y46137D01*
X126914Y46170D01*
X126880Y46202D01*
X126849Y46230D01*
X126824Y46258D01*
X126800Y46281D01*
X126778Y46303D01*
X126761Y46322D01*
X126746Y46337D01*
X126735Y46350D01*
X126727Y46359D01*
X126723Y46365D01*
X126720Y46367D01*
X126671Y46428D01*
X126630Y46488D01*
X126594Y46544D01*
X126566Y46595D01*
X126555Y46617D01*
X126544Y46638D01*
X126535Y46655D01*
X126529Y46670D01*
X126523Y46683D01*
X126518Y46692D01*
X126516Y46698D01*
Y46701D01*
X126503Y46739D01*
X126495Y46778D01*
X126488Y46812D01*
X126484Y46845D01*
X126482Y46873D01*
Y46894D01*
Y46903D01*
Y46909D01*
Y46911D01*
Y46913D01*
X128144D01*
Y46617D01*
D02*
G37*
G36*
X125267Y31206D02*
X125338Y31200D01*
X125402Y31189D01*
X125465Y31174D01*
X125523Y31159D01*
X125577Y31140D01*
X125628Y31120D01*
X125673Y31101D01*
X125716Y31082D01*
X125753Y31062D01*
X125783Y31043D01*
X125811Y31028D01*
X125830Y31013D01*
X125845Y31002D01*
X125856Y30996D01*
X125858Y30994D01*
X125908Y30950D01*
X125953Y30905D01*
X125994Y30856D01*
X126032Y30804D01*
X126067Y30753D01*
X126099Y30701D01*
X126125Y30650D01*
X126151Y30600D01*
X126170Y30555D01*
X126189Y30510D01*
X126204Y30471D01*
X126215Y30437D01*
X126226Y30409D01*
X126232Y30387D01*
X126234Y30381D01*
Y30374D01*
X126237Y30372D01*
Y30370D01*
X125903Y30286D01*
X125888Y30344D01*
X125873Y30398D01*
X125854Y30447D01*
X125832Y30495D01*
X125811Y30538D01*
X125789Y30576D01*
X125768Y30611D01*
X125746Y30643D01*
X125725Y30671D01*
X125706Y30695D01*
X125686Y30716D01*
X125671Y30733D01*
X125658Y30746D01*
X125647Y30755D01*
X125641Y30761D01*
X125639Y30763D01*
X125602Y30791D01*
X125564Y30817D01*
X125523Y30839D01*
X125484Y30856D01*
X125443Y30873D01*
X125405Y30886D01*
X125368Y30897D01*
X125331Y30905D01*
X125297Y30912D01*
X125267Y30916D01*
X125239Y30920D01*
X125215Y30922D01*
X125196D01*
X125181Y30925D01*
X125168D01*
X125125Y30922D01*
X125084Y30920D01*
X125005Y30905D01*
X124966Y30897D01*
X124932Y30888D01*
X124899Y30877D01*
X124867Y30864D01*
X124839Y30854D01*
X124815Y30843D01*
X124794Y30834D01*
X124775Y30826D01*
X124760Y30817D01*
X124749Y30811D01*
X124742Y30809D01*
X124740Y30806D01*
X124704Y30783D01*
X124671Y30757D01*
X124639Y30729D01*
X124611Y30701D01*
X124585Y30671D01*
X124562Y30641D01*
X124540Y30613D01*
X124521Y30583D01*
X124504Y30557D01*
X124489Y30531D01*
X124478Y30507D01*
X124467Y30488D01*
X124461Y30473D01*
X124454Y30460D01*
X124452Y30452D01*
X124450Y30450D01*
X124433Y30404D01*
X124420Y30357D01*
X124396Y30260D01*
X124381Y30168D01*
X124375Y30123D01*
X124368Y30080D01*
X124366Y30039D01*
X124362Y30002D01*
X124360Y29970D01*
Y29942D01*
X124357Y29921D01*
Y29903D01*
Y29893D01*
Y29888D01*
X124362Y29796D01*
X124370Y29708D01*
X124375Y29667D01*
X124381Y29628D01*
X124390Y29590D01*
X124396Y29555D01*
X124403Y29523D01*
X124411Y29495D01*
X124418Y29469D01*
X124422Y29448D01*
X124428Y29430D01*
X124431Y29417D01*
X124435Y29409D01*
Y29407D01*
X124452Y29364D01*
X124469Y29323D01*
X124489Y29284D01*
X124510Y29250D01*
X124534Y29215D01*
X124555Y29185D01*
X124579Y29157D01*
X124601Y29131D01*
X124622Y29110D01*
X124644Y29089D01*
X124661Y29071D01*
X124676Y29058D01*
X124689Y29048D01*
X124699Y29039D01*
X124706Y29035D01*
X124708Y29033D01*
X124747Y29009D01*
X124785Y28988D01*
X124826Y28968D01*
X124867Y28951D01*
X124908Y28938D01*
X124949Y28927D01*
X124987Y28919D01*
X125024Y28910D01*
X125061Y28904D01*
X125093Y28899D01*
X125121Y28897D01*
X125147Y28895D01*
X125166Y28893D01*
X125194D01*
X125239Y28895D01*
X125284Y28899D01*
X125325Y28904D01*
X125366Y28912D01*
X125402Y28923D01*
X125437Y28934D01*
X125469Y28945D01*
X125497Y28955D01*
X125523Y28968D01*
X125544Y28979D01*
X125566Y28990D01*
X125581Y29000D01*
X125594Y29009D01*
X125602Y29013D01*
X125609Y29018D01*
X125611Y29020D01*
X125641Y29046D01*
X125671Y29074D01*
X125697Y29104D01*
X125723Y29134D01*
X125766Y29200D01*
X125802Y29267D01*
X125817Y29297D01*
X125830Y29325D01*
X125841Y29353D01*
X125850Y29375D01*
X125858Y29394D01*
X125863Y29407D01*
X125867Y29417D01*
Y29420D01*
X126194Y29342D01*
X126172Y29278D01*
X126148Y29220D01*
X126123Y29164D01*
X126095Y29110D01*
X126065Y29063D01*
X126034Y29018D01*
X126004Y28979D01*
X125974Y28942D01*
X125946Y28910D01*
X125921Y28882D01*
X125895Y28859D01*
X125875Y28837D01*
X125856Y28822D01*
X125843Y28811D01*
X125835Y28805D01*
X125832Y28803D01*
X125783Y28768D01*
X125731Y28738D01*
X125680Y28712D01*
X125626Y28691D01*
X125572Y28671D01*
X125521Y28656D01*
X125469Y28644D01*
X125420Y28633D01*
X125374Y28626D01*
X125334Y28620D01*
X125295Y28616D01*
X125263Y28611D01*
X125237D01*
X125217Y28609D01*
X125200D01*
X125138Y28611D01*
X125078Y28616D01*
X125020Y28624D01*
X124964Y28633D01*
X124910Y28644D01*
X124861Y28656D01*
X124813Y28671D01*
X124770Y28684D01*
X124730Y28699D01*
X124695Y28714D01*
X124665Y28727D01*
X124639Y28738D01*
X124618Y28747D01*
X124603Y28755D01*
X124594Y28760D01*
X124590Y28762D01*
X124540Y28792D01*
X124493Y28824D01*
X124448Y28859D01*
X124407Y28895D01*
X124368Y28932D01*
X124334Y28970D01*
X124302Y29007D01*
X124274Y29041D01*
X124248Y29076D01*
X124226Y29106D01*
X124207Y29134D01*
X124192Y29160D01*
X124179Y29179D01*
X124170Y29194D01*
X124166Y29202D01*
X124164Y29207D01*
X124138Y29263D01*
X124115Y29321D01*
X124095Y29379D01*
X124078Y29437D01*
X124063Y29495D01*
X124052Y29551D01*
X124041Y29607D01*
X124035Y29658D01*
X124029Y29708D01*
X124024Y29751D01*
X124020Y29792D01*
X124018Y29824D01*
X124016Y29852D01*
Y29873D01*
Y29886D01*
Y29888D01*
Y29890D01*
X124018Y29957D01*
X124022Y30024D01*
X124029Y30086D01*
X124037Y30149D01*
X124046Y30207D01*
X124056Y30263D01*
X124069Y30314D01*
X124082Y30364D01*
X124093Y30409D01*
X124106Y30447D01*
X124117Y30482D01*
X124127Y30512D01*
X124134Y30533D01*
X124140Y30551D01*
X124145Y30561D01*
X124147Y30566D01*
X124173Y30624D01*
X124203Y30675D01*
X124233Y30727D01*
X124263Y30772D01*
X124295Y30815D01*
X124327Y30856D01*
X124360Y30890D01*
X124390Y30922D01*
X124420Y30950D01*
X124446Y30976D01*
X124471Y30998D01*
X124493Y31015D01*
X124510Y31028D01*
X124523Y31036D01*
X124532Y31043D01*
X124534Y31045D01*
X124583Y31073D01*
X124635Y31099D01*
X124691Y31120D01*
X124744Y31140D01*
X124800Y31155D01*
X124856Y31168D01*
X124910Y31178D01*
X124962Y31187D01*
X125009Y31196D01*
X125054Y31200D01*
X125095Y31204D01*
X125129Y31206D01*
X125157D01*
X125179Y31208D01*
X125196D01*
X125267Y31206D01*
D02*
G37*
G36*
X127684Y28641D02*
X127484D01*
X127466Y28671D01*
X127449Y28704D01*
X127406Y28764D01*
X127361Y28820D01*
X127316Y28871D01*
X127294Y28895D01*
X127275Y28914D01*
X127256Y28934D01*
X127241Y28949D01*
X127228Y28962D01*
X127217Y28970D01*
X127211Y28977D01*
X127208Y28979D01*
X127133Y29041D01*
X127058Y29097D01*
X126983Y29147D01*
X126946Y29170D01*
X126912Y29190D01*
X126880Y29209D01*
X126851Y29226D01*
X126826Y29239D01*
X126802Y29252D01*
X126785Y29261D01*
X126770Y29267D01*
X126761Y29271D01*
X126759Y29274D01*
Y29572D01*
X126813Y29551D01*
X126869Y29525D01*
X126923Y29499D01*
X126974Y29473D01*
X126996Y29460D01*
X127017Y29450D01*
X127036Y29439D01*
X127051Y29430D01*
X127064Y29424D01*
X127073Y29417D01*
X127079Y29415D01*
X127082Y29413D01*
X127146Y29372D01*
X127204Y29334D01*
X127254Y29299D01*
X127297Y29267D01*
X127314Y29252D01*
X127329Y29239D01*
X127342Y29228D01*
X127355Y29217D01*
X127363Y29211D01*
X127370Y29205D01*
X127372Y29202D01*
X127374Y29200D01*
Y31165D01*
X127684D01*
Y28641D01*
D02*
G37*
G36*
X33465Y91578D02*
X33131D01*
Y92694D01*
X32701D01*
X32663Y92692D01*
X32630Y92690D01*
X32605Y92688D01*
X32585Y92686D01*
X32572Y92684D01*
X32564Y92681D01*
X32562D01*
X32534Y92673D01*
X32506Y92662D01*
X32480Y92651D01*
X32456Y92641D01*
X32439Y92630D01*
X32424Y92623D01*
X32413Y92617D01*
X32411Y92615D01*
X32383Y92593D01*
X32353Y92570D01*
X32325Y92542D01*
X32297Y92514D01*
X32276Y92488D01*
X32256Y92466D01*
X32250Y92458D01*
X32246Y92451D01*
X32241Y92449D01*
Y92447D01*
X32222Y92423D01*
X32205Y92397D01*
X32164Y92342D01*
X32123Y92284D01*
X32084Y92230D01*
X32067Y92202D01*
X32052Y92178D01*
X32037Y92157D01*
X32024Y92137D01*
X32015Y92122D01*
X32007Y92112D01*
X32003Y92103D01*
X32000Y92101D01*
X31667Y91578D01*
X31252D01*
X31687Y92262D01*
X31736Y92333D01*
X31786Y92397D01*
X31833Y92456D01*
X31854Y92481D01*
X31874Y92503D01*
X31893Y92524D01*
X31910Y92544D01*
X31925Y92559D01*
X31938Y92572D01*
X31949Y92582D01*
X31958Y92589D01*
X31962Y92593D01*
X31964Y92595D01*
X31992Y92619D01*
X32024Y92641D01*
X32056Y92662D01*
X32089Y92681D01*
X32119Y92699D01*
X32142Y92711D01*
X32151Y92716D01*
X32157Y92720D01*
X32162Y92722D01*
X32164D01*
X32097Y92733D01*
X32037Y92746D01*
X31981Y92763D01*
X31927Y92780D01*
X31880Y92797D01*
X31835Y92817D01*
X31796Y92838D01*
X31760Y92858D01*
X31730Y92877D01*
X31702Y92894D01*
X31680Y92911D01*
X31661Y92924D01*
X31648Y92937D01*
X31637Y92946D01*
X31631Y92952D01*
X31629Y92954D01*
X31598Y92989D01*
X31571Y93025D01*
X31547Y93064D01*
X31528Y93103D01*
X31510Y93139D01*
X31497Y93178D01*
X31484Y93214D01*
X31476Y93249D01*
X31469Y93281D01*
X31463Y93311D01*
X31459Y93337D01*
X31457Y93361D01*
Y93380D01*
X31454Y93393D01*
Y93404D01*
Y93406D01*
X31457Y93445D01*
X31459Y93481D01*
X31472Y93552D01*
X31487Y93617D01*
X31497Y93644D01*
X31506Y93673D01*
X31517Y93696D01*
X31525Y93720D01*
X31536Y93739D01*
X31543Y93754D01*
X31549Y93767D01*
X31555Y93776D01*
X31558Y93782D01*
X31560Y93784D01*
X31581Y93814D01*
X31603Y93844D01*
X31624Y93870D01*
X31648Y93894D01*
X31672Y93915D01*
X31695Y93935D01*
X31738Y93969D01*
X31779Y93993D01*
X31796Y94001D01*
X31811Y94010D01*
X31822Y94016D01*
X31831Y94021D01*
X31837Y94023D01*
X31839D01*
X31874Y94036D01*
X31910Y94047D01*
X31951Y94055D01*
X31992Y94064D01*
X32078Y94074D01*
X32160Y94083D01*
X32198Y94085D01*
X32235Y94087D01*
X32267Y94090D01*
X32295Y94092D01*
X33465D01*
Y91578D01*
D02*
G37*
G36*
X30928D02*
X29053D01*
Y91875D01*
X30594D01*
Y92731D01*
X29206D01*
Y93028D01*
X30594D01*
Y93795D01*
X29111D01*
Y94092D01*
X30928D01*
Y91578D01*
D02*
G37*
G36*
X27819Y94130D02*
X27907Y94122D01*
X27948Y94115D01*
X27986Y94107D01*
X28021Y94100D01*
X28055Y94092D01*
X28085Y94083D01*
X28111Y94077D01*
X28135Y94068D01*
X28154Y94062D01*
X28169Y94057D01*
X28182Y94053D01*
X28188Y94049D01*
X28191D01*
X28227Y94032D01*
X28264Y94014D01*
X28296Y93993D01*
X28326Y93973D01*
X28354Y93952D01*
X28380Y93931D01*
X28403Y93911D01*
X28425Y93892D01*
X28444Y93872D01*
X28459Y93855D01*
X28472Y93838D01*
X28485Y93825D01*
X28494Y93812D01*
X28500Y93804D01*
X28502Y93799D01*
X28505Y93797D01*
X28524Y93765D01*
X28539Y93735D01*
X28554Y93703D01*
X28567Y93673D01*
X28586Y93612D01*
X28599Y93556D01*
X28604Y93533D01*
X28606Y93509D01*
X28608Y93490D01*
X28610Y93472D01*
X28612Y93460D01*
Y93449D01*
Y93442D01*
Y93440D01*
X28608Y93378D01*
X28599Y93320D01*
X28584Y93266D01*
X28567Y93221D01*
X28561Y93199D01*
X28552Y93182D01*
X28543Y93167D01*
X28537Y93152D01*
X28532Y93144D01*
X28528Y93135D01*
X28524Y93131D01*
Y93129D01*
X28487Y93079D01*
X28444Y93034D01*
X28401Y92993D01*
X28358Y92959D01*
X28317Y92931D01*
X28300Y92920D01*
X28287Y92911D01*
X28275Y92905D01*
X28266Y92898D01*
X28260Y92896D01*
X28257Y92894D01*
X28229Y92879D01*
X28197Y92866D01*
X28161Y92851D01*
X28122Y92838D01*
X28042Y92810D01*
X27963Y92787D01*
X27924Y92776D01*
X27887Y92765D01*
X27855Y92757D01*
X27827Y92750D01*
X27804Y92744D01*
X27786Y92739D01*
X27776Y92735D01*
X27771D01*
X27709Y92720D01*
X27651Y92707D01*
X27602Y92694D01*
X27554Y92681D01*
X27513Y92671D01*
X27477Y92662D01*
X27445Y92651D01*
X27417Y92645D01*
X27393Y92638D01*
X27371Y92632D01*
X27356Y92625D01*
X27344Y92621D01*
X27333Y92619D01*
X27326Y92617D01*
X27324Y92615D01*
X27322D01*
X27266Y92591D01*
X27219Y92565D01*
X27180Y92542D01*
X27148Y92518D01*
X27124Y92496D01*
X27107Y92479D01*
X27096Y92469D01*
X27094Y92464D01*
X27071Y92430D01*
X27053Y92395D01*
X27043Y92361D01*
X27034Y92329D01*
X27030Y92301D01*
X27025Y92277D01*
Y92269D01*
Y92262D01*
Y92260D01*
Y92258D01*
X27027Y92215D01*
X27036Y92176D01*
X27049Y92140D01*
X27062Y92107D01*
X27075Y92079D01*
X27088Y92060D01*
X27096Y92047D01*
X27099Y92045D01*
Y92043D01*
X27129Y92008D01*
X27163Y91976D01*
X27197Y91950D01*
X27234Y91929D01*
X27266Y91912D01*
X27292Y91899D01*
X27301Y91894D01*
X27309Y91890D01*
X27314Y91888D01*
X27316D01*
X27371Y91869D01*
X27430Y91856D01*
X27485Y91845D01*
X27537Y91839D01*
X27561Y91836D01*
X27582Y91834D01*
X27602D01*
X27619Y91832D01*
X27651D01*
X27728Y91834D01*
X27801Y91843D01*
X27868Y91856D01*
X27898Y91862D01*
X27924Y91869D01*
X27950Y91875D01*
X27971Y91882D01*
X27991Y91888D01*
X28008Y91894D01*
X28021Y91899D01*
X28029Y91903D01*
X28036Y91905D01*
X28038D01*
X28098Y91935D01*
X28150Y91967D01*
X28193Y92000D01*
X28227Y92032D01*
X28255Y92058D01*
X28275Y92081D01*
X28281Y92090D01*
X28285Y92097D01*
X28290Y92099D01*
Y92101D01*
X28317Y92150D01*
X28339Y92202D01*
X28358Y92254D01*
X28371Y92303D01*
X28378Y92324D01*
X28382Y92346D01*
X28384Y92365D01*
X28389Y92380D01*
X28391Y92395D01*
Y92404D01*
X28393Y92410D01*
Y92413D01*
X28707Y92385D01*
X28705Y92337D01*
X28698Y92292D01*
X28692Y92249D01*
X28683Y92206D01*
X28672Y92168D01*
X28659Y92129D01*
X28649Y92094D01*
X28636Y92062D01*
X28623Y92034D01*
X28610Y92008D01*
X28599Y91985D01*
X28591Y91965D01*
X28582Y91950D01*
X28576Y91940D01*
X28571Y91933D01*
X28569Y91931D01*
X28543Y91894D01*
X28515Y91862D01*
X28487Y91830D01*
X28457Y91802D01*
X28427Y91774D01*
X28397Y91750D01*
X28367Y91729D01*
X28339Y91710D01*
X28313Y91690D01*
X28287Y91675D01*
X28266Y91664D01*
X28247Y91654D01*
X28229Y91645D01*
X28219Y91639D01*
X28210Y91636D01*
X28208Y91634D01*
X28163Y91617D01*
X28118Y91602D01*
X28021Y91576D01*
X27926Y91559D01*
X27879Y91553D01*
X27836Y91548D01*
X27795Y91544D01*
X27756Y91540D01*
X27722Y91537D01*
X27692D01*
X27668Y91535D01*
X27636D01*
X27586Y91537D01*
X27537Y91540D01*
X27492Y91544D01*
X27447Y91550D01*
X27404Y91557D01*
X27365Y91566D01*
X27329Y91574D01*
X27294Y91585D01*
X27262Y91593D01*
X27234Y91602D01*
X27210Y91611D01*
X27191Y91617D01*
X27174Y91624D01*
X27163Y91628D01*
X27154Y91632D01*
X27152D01*
X27114Y91651D01*
X27075Y91673D01*
X27040Y91694D01*
X27008Y91716D01*
X26978Y91740D01*
X26952Y91763D01*
X26926Y91785D01*
X26905Y91806D01*
X26886Y91828D01*
X26868Y91847D01*
X26853Y91864D01*
X26843Y91879D01*
X26834Y91890D01*
X26825Y91899D01*
X26823Y91905D01*
X26821Y91907D01*
X26800Y91942D01*
X26782Y91974D01*
X26767Y92008D01*
X26755Y92043D01*
X26733Y92107D01*
X26720Y92165D01*
X26714Y92191D01*
X26711Y92215D01*
X26709Y92236D01*
X26707Y92254D01*
X26705Y92269D01*
Y92279D01*
Y92286D01*
Y92288D01*
X26707Y92324D01*
X26709Y92361D01*
X26722Y92430D01*
X26737Y92490D01*
X26748Y92518D01*
X26757Y92542D01*
X26767Y92565D01*
X26776Y92585D01*
X26787Y92602D01*
X26793Y92617D01*
X26800Y92630D01*
X26806Y92638D01*
X26808Y92643D01*
X26810Y92645D01*
X26832Y92673D01*
X26855Y92701D01*
X26905Y92750D01*
X26959Y92793D01*
X27013Y92832D01*
X27036Y92847D01*
X27060Y92860D01*
X27081Y92873D01*
X27099Y92883D01*
X27114Y92890D01*
X27124Y92896D01*
X27133Y92898D01*
X27135Y92901D01*
X27165Y92914D01*
X27202Y92926D01*
X27242Y92941D01*
X27286Y92954D01*
X27378Y92982D01*
X27470Y93006D01*
X27513Y93017D01*
X27554Y93028D01*
X27593Y93036D01*
X27625Y93045D01*
X27653Y93051D01*
X27675Y93055D01*
X27688Y93060D01*
X27692D01*
X27765Y93077D01*
X27830Y93094D01*
X27890Y93111D01*
X27941Y93126D01*
X27989Y93144D01*
X28029Y93159D01*
X28066Y93172D01*
X28096Y93184D01*
X28122Y93197D01*
X28143Y93208D01*
X28161Y93217D01*
X28174Y93225D01*
X28184Y93232D01*
X28191Y93236D01*
X28193Y93240D01*
X28195D01*
X28212Y93257D01*
X28227Y93275D01*
X28251Y93313D01*
X28268Y93350D01*
X28279Y93384D01*
X28287Y93417D01*
X28290Y93442D01*
X28292Y93451D01*
Y93458D01*
Y93462D01*
Y93464D01*
X28290Y93492D01*
X28285Y93520D01*
X28279Y93548D01*
X28270Y93571D01*
X28249Y93617D01*
X28223Y93655D01*
X28197Y93687D01*
X28186Y93700D01*
X28176Y93711D01*
X28167Y93720D01*
X28161Y93726D01*
X28156Y93728D01*
X28154Y93730D01*
X28126Y93750D01*
X28096Y93767D01*
X28062Y93782D01*
X28027Y93795D01*
X27954Y93814D01*
X27881Y93829D01*
X27849Y93834D01*
X27817Y93836D01*
X27789Y93838D01*
X27763Y93840D01*
X27741Y93842D01*
X27713D01*
X27660Y93840D01*
X27610Y93838D01*
X27565Y93832D01*
X27522Y93823D01*
X27483Y93814D01*
X27447Y93804D01*
X27415Y93793D01*
X27384Y93782D01*
X27359Y93769D01*
X27337Y93758D01*
X27318Y93748D01*
X27303Y93739D01*
X27290Y93730D01*
X27281Y93724D01*
X27277Y93722D01*
X27275Y93720D01*
X27249Y93696D01*
X27223Y93668D01*
X27202Y93640D01*
X27185Y93612D01*
X27167Y93582D01*
X27152Y93552D01*
X27131Y93494D01*
X27122Y93468D01*
X27114Y93442D01*
X27109Y93419D01*
X27105Y93399D01*
X27103Y93384D01*
X27101Y93371D01*
X27099Y93363D01*
Y93361D01*
X26780Y93384D01*
X26782Y93425D01*
X26789Y93464D01*
X26804Y93539D01*
X26812Y93574D01*
X26823Y93606D01*
X26834Y93636D01*
X26845Y93664D01*
X26858Y93690D01*
X26868Y93711D01*
X26877Y93730D01*
X26886Y93748D01*
X26894Y93761D01*
X26901Y93769D01*
X26903Y93776D01*
X26905Y93778D01*
X26926Y93810D01*
X26952Y93840D01*
X27004Y93894D01*
X27060Y93939D01*
X27111Y93978D01*
X27137Y93993D01*
X27161Y94006D01*
X27180Y94019D01*
X27200Y94027D01*
X27212Y94036D01*
X27225Y94040D01*
X27232Y94044D01*
X27234D01*
X27316Y94074D01*
X27402Y94096D01*
X27483Y94113D01*
X27522Y94120D01*
X27561Y94124D01*
X27595Y94128D01*
X27627Y94130D01*
X27655Y94133D01*
X27679D01*
X27698Y94135D01*
X27726D01*
X27819Y94130D01*
D02*
G37*
G36*
X106855Y41826D02*
X106825Y41809D01*
X106792Y41791D01*
X106732Y41748D01*
X106676Y41703D01*
X106625Y41658D01*
X106601Y41637D01*
X106582Y41617D01*
X106562Y41598D01*
X106547Y41583D01*
X106534Y41570D01*
X106526Y41559D01*
X106519Y41553D01*
X106517Y41551D01*
X106455Y41475D01*
X106399Y41400D01*
X106350Y41325D01*
X106326Y41288D01*
X106307Y41254D01*
X106287Y41222D01*
X106270Y41194D01*
X106257Y41168D01*
X106244Y41144D01*
X106236Y41127D01*
X106229Y41112D01*
X106225Y41103D01*
X106223Y41101D01*
X105924D01*
X105945Y41155D01*
X105971Y41211D01*
X105997Y41265D01*
X106023Y41316D01*
X106036Y41338D01*
X106046Y41359D01*
X106057Y41379D01*
X106066Y41394D01*
X106072Y41407D01*
X106079Y41415D01*
X106081Y41422D01*
X106083Y41424D01*
X106124Y41488D01*
X106163Y41546D01*
X106197Y41596D01*
X106229Y41639D01*
X106244Y41656D01*
X106257Y41671D01*
X106268Y41684D01*
X106279Y41697D01*
X106285Y41705D01*
X106291Y41712D01*
X106294Y41714D01*
X106296Y41716D01*
X104331D01*
Y42026D01*
X106855D01*
Y41826D01*
D02*
G37*
G36*
X106844Y40304D02*
X106104Y39818D01*
X106014Y39760D01*
X105930Y39706D01*
X105892Y39682D01*
X105855Y39661D01*
X105821Y39639D01*
X105790Y39620D01*
X105763Y39603D01*
X105737Y39588D01*
X105715Y39575D01*
X105696Y39562D01*
X105681Y39553D01*
X105670Y39547D01*
X105664Y39545D01*
X105661Y39542D01*
X105741Y39497D01*
X105818Y39452D01*
X105889Y39409D01*
X105922Y39388D01*
X105954Y39368D01*
X105982Y39351D01*
X106008Y39334D01*
X106029Y39321D01*
X106049Y39308D01*
X106064Y39297D01*
X106077Y39291D01*
X106083Y39287D01*
X106085Y39285D01*
X106844Y38790D01*
Y38386D01*
X105395Y39355D01*
X104331D01*
Y39689D01*
X105395D01*
X106844Y40691D01*
Y40304D01*
D02*
G37*
G36*
X24452Y64191D02*
X24495Y64189D01*
X24536Y64182D01*
X24574Y64174D01*
X24609Y64165D01*
X24643Y64154D01*
X24673Y64141D01*
X24701Y64131D01*
X24727Y64120D01*
X24749Y64107D01*
X24768Y64096D01*
X24785Y64088D01*
X24796Y64079D01*
X24807Y64075D01*
X24811Y64071D01*
X24813Y64068D01*
X24843Y64045D01*
X24869Y64019D01*
X24893Y63991D01*
X24914Y63963D01*
X24934Y63933D01*
X24951Y63905D01*
X24981Y63849D01*
X24992Y63823D01*
X25000Y63800D01*
X25009Y63778D01*
X25015Y63759D01*
X25019Y63744D01*
X25024Y63733D01*
X25026Y63724D01*
Y63722D01*
X25058Y63783D01*
X25093Y63836D01*
X25129Y63879D01*
X25161Y63918D01*
X25192Y63946D01*
X25217Y63965D01*
X25226Y63974D01*
X25232Y63978D01*
X25237Y63982D01*
X25239D01*
X25290Y64012D01*
X25342Y64034D01*
X25392Y64049D01*
X25437Y64060D01*
X25477Y64066D01*
X25495Y64068D01*
X25508D01*
X25520Y64071D01*
X25529D01*
X25533D01*
X25536D01*
X25568D01*
X25598Y64066D01*
X25658Y64056D01*
X25714Y64040D01*
X25761Y64025D01*
X25783Y64017D01*
X25802Y64008D01*
X25817Y64000D01*
X25832Y63993D01*
X25843Y63987D01*
X25852Y63982D01*
X25856Y63980D01*
X25858Y63978D01*
X25912Y63939D01*
X25959Y63899D01*
X26002Y63853D01*
X26037Y63810D01*
X26062Y63772D01*
X26073Y63754D01*
X26084Y63740D01*
X26090Y63729D01*
X26094Y63720D01*
X26099Y63714D01*
Y63712D01*
X26129Y63647D01*
X26150Y63580D01*
X26168Y63516D01*
X26178Y63458D01*
X26183Y63432D01*
X26185Y63408D01*
X26187Y63387D01*
Y63367D01*
X26189Y63353D01*
Y63333D01*
X26187Y63279D01*
X26183Y63226D01*
X26174Y63176D01*
X26163Y63129D01*
X26148Y63086D01*
X26135Y63045D01*
X26118Y63006D01*
X26103Y62972D01*
X26088Y62940D01*
X26071Y62914D01*
X26058Y62890D01*
X26045Y62871D01*
X26032Y62856D01*
X26024Y62843D01*
X26019Y62836D01*
X26017Y62834D01*
X25985Y62798D01*
X25948Y62766D01*
X25910Y62738D01*
X25871Y62710D01*
X25830Y62686D01*
X25791Y62667D01*
X25753Y62647D01*
X25714Y62632D01*
X25677Y62617D01*
X25645Y62606D01*
X25615Y62598D01*
X25589Y62591D01*
X25568Y62585D01*
X25551Y62581D01*
X25542Y62578D01*
X25538D01*
X25482Y62888D01*
X25523Y62894D01*
X25561Y62903D01*
X25598Y62914D01*
X25630Y62925D01*
X25660Y62937D01*
X25688Y62950D01*
X25714Y62963D01*
X25735Y62976D01*
X25757Y62989D01*
X25774Y63002D01*
X25789Y63013D01*
X25800Y63021D01*
X25809Y63030D01*
X25817Y63036D01*
X25819Y63039D01*
X25821Y63041D01*
X25841Y63064D01*
X25860Y63088D01*
X25875Y63114D01*
X25888Y63138D01*
X25907Y63189D01*
X25920Y63236D01*
X25929Y63277D01*
X25931Y63294D01*
X25933Y63310D01*
X25935Y63322D01*
Y63340D01*
X25933Y63374D01*
X25931Y63404D01*
X25918Y63462D01*
X25901Y63514D01*
X25879Y63557D01*
X25869Y63574D01*
X25858Y63591D01*
X25849Y63604D01*
X25841Y63615D01*
X25834Y63626D01*
X25828Y63632D01*
X25826Y63634D01*
X25824Y63636D01*
X25802Y63658D01*
X25778Y63675D01*
X25757Y63690D01*
X25733Y63703D01*
X25686Y63724D01*
X25641Y63737D01*
X25602Y63746D01*
X25585Y63748D01*
X25570Y63750D01*
X25559Y63752D01*
X25551D01*
X25544D01*
X25542D01*
X25503Y63750D01*
X25467Y63746D01*
X25434Y63737D01*
X25402Y63727D01*
X25374Y63716D01*
X25348Y63703D01*
X25325Y63688D01*
X25303Y63673D01*
X25286Y63658D01*
X25269Y63643D01*
X25256Y63630D01*
X25245Y63619D01*
X25237Y63608D01*
X25230Y63600D01*
X25228Y63595D01*
X25226Y63593D01*
X25209Y63563D01*
X25192Y63533D01*
X25166Y63473D01*
X25148Y63413D01*
X25136Y63359D01*
X25131Y63333D01*
X25129Y63312D01*
X25125Y63290D01*
Y63273D01*
X25123Y63260D01*
Y63226D01*
X25125Y63208D01*
X25127Y63196D01*
Y63191D01*
X24856Y63157D01*
X24867Y63204D01*
X24875Y63245D01*
X24880Y63282D01*
X24884Y63314D01*
X24886Y63340D01*
X24888Y63359D01*
Y63374D01*
X24886Y63413D01*
X24882Y63451D01*
X24875Y63486D01*
X24867Y63520D01*
X24856Y63550D01*
X24845Y63580D01*
X24833Y63606D01*
X24820Y63632D01*
X24807Y63653D01*
X24794Y63673D01*
X24783Y63688D01*
X24772Y63701D01*
X24764Y63712D01*
X24757Y63720D01*
X24753Y63724D01*
X24751Y63727D01*
X24725Y63750D01*
X24697Y63772D01*
X24667Y63791D01*
X24639Y63808D01*
X24609Y63821D01*
X24579Y63832D01*
X24525Y63849D01*
X24499Y63856D01*
X24476Y63860D01*
X24454Y63862D01*
X24437Y63864D01*
X24422Y63866D01*
X24409D01*
X24402D01*
X24400D01*
X24360Y63864D01*
X24321Y63860D01*
X24284Y63853D01*
X24250Y63843D01*
X24215Y63832D01*
X24185Y63819D01*
X24157Y63806D01*
X24132Y63791D01*
X24108Y63778D01*
X24089Y63763D01*
X24069Y63750D01*
X24056Y63740D01*
X24043Y63729D01*
X24035Y63722D01*
X24031Y63718D01*
X24028Y63716D01*
X24002Y63688D01*
X23979Y63658D01*
X23959Y63628D01*
X23942Y63595D01*
X23927Y63565D01*
X23914Y63535D01*
X23904Y63505D01*
X23897Y63477D01*
X23891Y63449D01*
X23886Y63426D01*
X23882Y63404D01*
X23880Y63385D01*
X23878Y63370D01*
Y63348D01*
X23880Y63314D01*
X23882Y63282D01*
X23895Y63221D01*
X23914Y63168D01*
X23925Y63144D01*
X23936Y63122D01*
X23945Y63103D01*
X23955Y63086D01*
X23966Y63071D01*
X23975Y63060D01*
X23981Y63049D01*
X23988Y63043D01*
X23990Y63039D01*
X23992Y63036D01*
X24015Y63013D01*
X24041Y62993D01*
X24069Y62972D01*
X24099Y62955D01*
X24162Y62925D01*
X24224Y62899D01*
X24254Y62890D01*
X24282Y62882D01*
X24306Y62873D01*
X24327Y62869D01*
X24344Y62864D01*
X24360Y62860D01*
X24368Y62858D01*
X24370D01*
X24329Y62548D01*
X24271Y62557D01*
X24217Y62568D01*
X24166Y62583D01*
X24116Y62600D01*
X24071Y62619D01*
X24031Y62641D01*
X23992Y62662D01*
X23955Y62684D01*
X23925Y62705D01*
X23897Y62725D01*
X23874Y62744D01*
X23854Y62761D01*
X23837Y62776D01*
X23826Y62787D01*
X23820Y62793D01*
X23818Y62796D01*
X23783Y62839D01*
X23753Y62882D01*
X23727Y62929D01*
X23704Y62974D01*
X23686Y63021D01*
X23669Y63067D01*
X23656Y63112D01*
X23646Y63152D01*
X23639Y63193D01*
X23633Y63230D01*
X23629Y63262D01*
X23624Y63290D01*
Y63314D01*
X23622Y63331D01*
Y63346D01*
X23624Y63413D01*
X23633Y63477D01*
X23643Y63537D01*
X23659Y63595D01*
X23676Y63649D01*
X23695Y63699D01*
X23714Y63744D01*
X23736Y63787D01*
X23757Y63823D01*
X23777Y63858D01*
X23796Y63886D01*
X23813Y63909D01*
X23828Y63929D01*
X23839Y63942D01*
X23848Y63950D01*
X23850Y63952D01*
X23893Y63995D01*
X23940Y64032D01*
X23985Y64064D01*
X24033Y64092D01*
X24080Y64116D01*
X24127Y64135D01*
X24170Y64150D01*
X24213Y64163D01*
X24254Y64174D01*
X24291Y64180D01*
X24323Y64187D01*
X24351Y64189D01*
X24374Y64191D01*
X24392Y64193D01*
X24402D01*
X24407D01*
X24452Y64191D01*
D02*
G37*
G36*
X24544Y61927D02*
X24486Y61912D01*
X24433Y61897D01*
X24383Y61878D01*
X24336Y61856D01*
X24293Y61835D01*
X24254Y61813D01*
X24220Y61792D01*
X24187Y61770D01*
X24160Y61749D01*
X24136Y61729D01*
X24114Y61710D01*
X24097Y61695D01*
X24084Y61682D01*
X24076Y61671D01*
X24069Y61665D01*
X24067Y61663D01*
X24039Y61626D01*
X24013Y61587D01*
X23992Y61546D01*
X23975Y61508D01*
X23957Y61467D01*
X23945Y61428D01*
X23934Y61392D01*
X23925Y61355D01*
X23919Y61321D01*
X23914Y61291D01*
X23910Y61263D01*
X23908Y61239D01*
Y61220D01*
X23906Y61205D01*
Y61192D01*
X23908Y61149D01*
X23910Y61108D01*
X23925Y61028D01*
X23934Y60990D01*
X23942Y60955D01*
X23953Y60923D01*
X23966Y60891D01*
X23977Y60863D01*
X23988Y60839D01*
X23996Y60818D01*
X24005Y60798D01*
X24013Y60783D01*
X24020Y60773D01*
X24022Y60766D01*
X24024Y60764D01*
X24048Y60727D01*
X24073Y60695D01*
X24101Y60663D01*
X24129Y60635D01*
X24160Y60609D01*
X24190Y60585D01*
X24217Y60564D01*
X24248Y60545D01*
X24273Y60527D01*
X24299Y60512D01*
X24323Y60502D01*
X24342Y60491D01*
X24357Y60484D01*
X24370Y60478D01*
X24379Y60476D01*
X24381Y60474D01*
X24426Y60456D01*
X24473Y60444D01*
X24570Y60420D01*
X24663Y60405D01*
X24708Y60398D01*
X24751Y60392D01*
X24792Y60390D01*
X24828Y60386D01*
X24860Y60383D01*
X24888D01*
X24910Y60381D01*
X24927D01*
X24938D01*
X24942D01*
X25034Y60386D01*
X25123Y60394D01*
X25164Y60398D01*
X25202Y60405D01*
X25241Y60413D01*
X25275Y60420D01*
X25308Y60426D01*
X25336Y60435D01*
X25361Y60441D01*
X25383Y60446D01*
X25400Y60452D01*
X25413Y60454D01*
X25422Y60459D01*
X25424D01*
X25467Y60476D01*
X25508Y60493D01*
X25546Y60512D01*
X25581Y60534D01*
X25615Y60558D01*
X25645Y60579D01*
X25673Y60603D01*
X25699Y60624D01*
X25720Y60646D01*
X25742Y60667D01*
X25759Y60684D01*
X25772Y60699D01*
X25783Y60712D01*
X25791Y60723D01*
X25796Y60729D01*
X25798Y60732D01*
X25821Y60770D01*
X25843Y60809D01*
X25862Y60850D01*
X25879Y60891D01*
X25892Y60932D01*
X25903Y60972D01*
X25912Y61011D01*
X25920Y61048D01*
X25927Y61084D01*
X25931Y61116D01*
X25933Y61144D01*
X25935Y61170D01*
X25938Y61190D01*
Y61217D01*
X25935Y61263D01*
X25931Y61308D01*
X25927Y61349D01*
X25918Y61389D01*
X25907Y61426D01*
X25897Y61461D01*
X25886Y61493D01*
X25875Y61521D01*
X25862Y61546D01*
X25852Y61568D01*
X25841Y61589D01*
X25830Y61604D01*
X25821Y61617D01*
X25817Y61626D01*
X25813Y61633D01*
X25811Y61635D01*
X25785Y61665D01*
X25757Y61695D01*
X25727Y61721D01*
X25697Y61746D01*
X25630Y61789D01*
X25563Y61826D01*
X25533Y61841D01*
X25505Y61854D01*
X25477Y61865D01*
X25456Y61873D01*
X25437Y61882D01*
X25424Y61886D01*
X25413Y61891D01*
X25411D01*
X25488Y62217D01*
X25553Y62196D01*
X25611Y62172D01*
X25667Y62146D01*
X25720Y62118D01*
X25768Y62088D01*
X25813Y62058D01*
X25852Y62028D01*
X25888Y61998D01*
X25920Y61970D01*
X25948Y61944D01*
X25972Y61918D01*
X25993Y61899D01*
X26008Y61880D01*
X26019Y61867D01*
X26026Y61858D01*
X26028Y61856D01*
X26062Y61807D01*
X26092Y61755D01*
X26118Y61703D01*
X26140Y61650D01*
X26159Y61596D01*
X26174Y61544D01*
X26187Y61493D01*
X26198Y61443D01*
X26204Y61398D01*
X26211Y61357D01*
X26215Y61319D01*
X26219Y61286D01*
Y61260D01*
X26221Y61241D01*
Y61224D01*
X26219Y61162D01*
X26215Y61101D01*
X26206Y61043D01*
X26198Y60988D01*
X26187Y60934D01*
X26174Y60884D01*
X26159Y60837D01*
X26146Y60794D01*
X26131Y60753D01*
X26116Y60719D01*
X26103Y60689D01*
X26092Y60663D01*
X26084Y60641D01*
X26075Y60626D01*
X26071Y60618D01*
X26069Y60613D01*
X26039Y60564D01*
X26006Y60517D01*
X25972Y60471D01*
X25935Y60431D01*
X25899Y60392D01*
X25860Y60357D01*
X25824Y60325D01*
X25789Y60297D01*
X25755Y60272D01*
X25725Y60250D01*
X25697Y60231D01*
X25671Y60216D01*
X25652Y60203D01*
X25637Y60194D01*
X25628Y60190D01*
X25624Y60188D01*
X25568Y60162D01*
X25510Y60138D01*
X25452Y60119D01*
X25394Y60102D01*
X25336Y60087D01*
X25280Y60076D01*
X25224Y60065D01*
X25172Y60059D01*
X25123Y60052D01*
X25080Y60048D01*
X25039Y60044D01*
X25007Y60041D01*
X24979Y60039D01*
X24957D01*
X24944D01*
X24942D01*
X24940D01*
X24873Y60041D01*
X24807Y60046D01*
X24744Y60052D01*
X24682Y60061D01*
X24624Y60069D01*
X24568Y60080D01*
X24516Y60093D01*
X24467Y60106D01*
X24422Y60117D01*
X24383Y60130D01*
X24349Y60140D01*
X24319Y60151D01*
X24297Y60158D01*
X24280Y60164D01*
X24269Y60168D01*
X24265Y60171D01*
X24207Y60196D01*
X24155Y60226D01*
X24104Y60256D01*
X24058Y60287D01*
X24015Y60319D01*
X23975Y60351D01*
X23940Y60383D01*
X23908Y60413D01*
X23880Y60444D01*
X23854Y60469D01*
X23833Y60495D01*
X23816Y60517D01*
X23803Y60534D01*
X23794Y60547D01*
X23787Y60555D01*
X23785Y60558D01*
X23757Y60607D01*
X23732Y60659D01*
X23710Y60714D01*
X23691Y60768D01*
X23676Y60824D01*
X23663Y60880D01*
X23652Y60934D01*
X23643Y60985D01*
X23635Y61033D01*
X23631Y61078D01*
X23626Y61119D01*
X23624Y61153D01*
Y61181D01*
X23622Y61203D01*
Y61220D01*
X23624Y61291D01*
X23631Y61362D01*
X23641Y61426D01*
X23656Y61488D01*
X23671Y61546D01*
X23691Y61600D01*
X23710Y61652D01*
X23730Y61697D01*
X23749Y61740D01*
X23768Y61777D01*
X23787Y61807D01*
X23803Y61835D01*
X23818Y61854D01*
X23828Y61869D01*
X23835Y61880D01*
X23837Y61882D01*
X23880Y61931D01*
X23925Y61976D01*
X23975Y62017D01*
X24026Y62056D01*
X24078Y62090D01*
X24129Y62123D01*
X24181Y62148D01*
X24230Y62174D01*
X24276Y62194D01*
X24321Y62213D01*
X24360Y62228D01*
X24394Y62239D01*
X24422Y62249D01*
X24443Y62256D01*
X24450Y62258D01*
X24456D01*
X24458Y62260D01*
X24461D01*
X24544Y61927D01*
D02*
G37*
%LPC*%
G36*
X33131Y93814D02*
X32336D01*
X32284Y93812D01*
X32237Y93810D01*
X32194Y93804D01*
X32153Y93797D01*
X32117Y93789D01*
X32084Y93778D01*
X32054Y93767D01*
X32026Y93756D01*
X32003Y93746D01*
X31983Y93735D01*
X31966Y93726D01*
X31951Y93716D01*
X31940Y93709D01*
X31934Y93703D01*
X31929Y93700D01*
X31927Y93698D01*
X31904Y93677D01*
X31884Y93653D01*
X31867Y93629D01*
X31852Y93604D01*
X31839Y93580D01*
X31828Y93556D01*
X31813Y93509D01*
X31803Y93468D01*
X31800Y93451D01*
X31798Y93436D01*
X31796Y93423D01*
Y93414D01*
Y93408D01*
Y93406D01*
X31798Y93361D01*
X31807Y93318D01*
X31818Y93279D01*
X31831Y93247D01*
X31844Y93219D01*
X31854Y93197D01*
X31859Y93189D01*
X31863Y93182D01*
X31865Y93180D01*
Y93178D01*
X31893Y93141D01*
X31923Y93111D01*
X31955Y93085D01*
X31988Y93064D01*
X32015Y93049D01*
X32039Y93036D01*
X32048Y93032D01*
X32054Y93030D01*
X32059Y93028D01*
X32061D01*
X32087Y93019D01*
X32112Y93012D01*
X32170Y93002D01*
X32230Y92993D01*
X32286Y92989D01*
X32314Y92987D01*
X32338Y92984D01*
X32362D01*
X32379Y92982D01*
X33131D01*
Y93814D01*
D02*
G37*
%LPD*%
D10*
X19291Y102559D02*
X47638D01*
X19291Y80512D02*
Y102559D01*
Y80512D02*
X47638D01*
Y102559D01*
X118783Y43110D02*
Y49410D01*
X129249D01*
Y43110D02*
Y49410D01*
X118783Y43110D02*
X129249D01*
X118783Y27362D02*
Y33662D01*
X129248D01*
Y27362D02*
Y33662D01*
X118783Y27362D02*
X129248D01*
X97244Y26181D02*
X111417D01*
X97244D02*
Y50591D01*
X111417D01*
Y26181D02*
Y50591D01*
X26772Y54807D02*
Y65272D01*
X20472D02*
X26772D01*
X20472Y54807D02*
Y65272D01*
Y54807D02*
X26772D01*
M02*
