G04*
G04 #@! TF.GenerationSoftware,Altium Limited,Altium Designer,23.7.1 (13)*
G04*
G04 Layer_Color=255*
%FSLAX25Y25*%
%MOIN*%
G70*
G04*
G04 #@! TF.SameCoordinates,2AD03240-4C21-4CDD-82D0-605F0999EC7E*
G04*
G04*
G04 #@! TF.FilePolarity,Positive*
G04*
G01*
G75*
%ADD14R,0.08082X0.01791*%
G04:AMPARAMS|DCode=15|XSize=80.82mil|YSize=17.91mil|CornerRadius=8.96mil|HoleSize=0mil|Usage=FLASHONLY|Rotation=0.000|XOffset=0mil|YOffset=0mil|HoleType=Round|Shape=RoundedRectangle|*
%AMROUNDEDRECTD15*
21,1,0.08082,0.00000,0,0,0.0*
21,1,0.06291,0.01791,0,0,0.0*
1,1,0.01791,0.03146,0.00000*
1,1,0.01791,-0.03146,0.00000*
1,1,0.01791,-0.03146,0.00000*
1,1,0.01791,0.03146,0.00000*
%
%ADD15ROUNDEDRECTD15*%
%ADD16R,0.02500X0.05000*%
%ADD17R,0.05315X0.03937*%
%ADD18R,0.07480X0.09449*%
%ADD19R,0.05151X0.03960*%
%ADD20R,0.05000X0.02500*%
%ADD38C,0.06378*%
%ADD39C,0.05394*%
%ADD40R,0.05394X0.05394*%
%ADD41R,0.05394X0.05394*%
D14*
X45570Y79626D02*
D03*
D15*
Y77067D02*
D03*
Y74508D02*
D03*
Y71949D02*
D03*
Y69390D02*
D03*
Y66831D02*
D03*
Y64272D02*
D03*
Y61713D02*
D03*
Y59153D02*
D03*
Y56594D02*
D03*
Y54035D02*
D03*
Y51476D02*
D03*
Y48917D02*
D03*
Y46358D02*
D03*
X72540D02*
D03*
Y48917D02*
D03*
Y51476D02*
D03*
Y54035D02*
D03*
Y56594D02*
D03*
Y59153D02*
D03*
Y61713D02*
D03*
Y64272D02*
D03*
Y66831D02*
D03*
Y69390D02*
D03*
Y71949D02*
D03*
Y74508D02*
D03*
Y77067D02*
D03*
Y79626D02*
D03*
D16*
X85014Y46260D02*
D03*
X88214D02*
D03*
D17*
X22638Y80709D02*
D03*
Y74803D02*
D03*
X89567Y63976D02*
D03*
Y58071D02*
D03*
D18*
X29724Y43307D02*
D03*
X13583D02*
D03*
D19*
X13779Y27465D02*
D03*
Y21747D02*
D03*
X29528Y27466D02*
D03*
Y21747D02*
D03*
D20*
X50197Y30759D02*
D03*
Y27559D02*
D03*
X22638Y60408D02*
D03*
Y63608D02*
D03*
D38*
X92008Y10827D02*
D03*
X82008D02*
D03*
X72008D02*
D03*
X62008D02*
D03*
X52008D02*
D03*
X42008D02*
D03*
D39*
X7874Y64646D02*
D03*
Y74646D02*
D03*
Y84646D02*
D03*
X110079Y10827D02*
D03*
X120079D02*
D03*
X131890Y72835D02*
D03*
Y62835D02*
D03*
X107205Y82835D02*
D03*
X117205D02*
D03*
X107205Y72835D02*
D03*
X117205D02*
D03*
X107205Y62835D02*
D03*
X66772Y103347D02*
D03*
X76772D02*
D03*
X114331D02*
D03*
X104331D02*
D03*
D40*
X7874Y94646D02*
D03*
X131890Y82835D02*
D03*
X117205Y62835D02*
D03*
D41*
X130079Y10827D02*
D03*
X86772Y103347D02*
D03*
X124331D02*
D03*
M02*
