G04*
G04 #@! TF.GenerationSoftware,Altium Limited,Altium Designer,23.2.1 (34)*
G04*
G04 Layer_Color=32768*
%FSLAX25Y25*%
%MOIN*%
G70*
G04*
G04 #@! TF.SameCoordinates,26DCB771-F187-4795-AA7E-67AAF857B4AA*
G04*
G04*
G04 #@! TF.FilePolarity,Positive*
G04*
G01*
G75*
%ADD61C,0.00600*%
D61*
X83214Y50260D02*
X82507Y49967D01*
X82214Y49260D01*
X91014D02*
X90721Y49967D01*
X90014Y50260D01*
Y42260D02*
X90721Y42553D01*
X91014Y43260D01*
X82214D02*
X82507Y42553D01*
X83214Y42260D01*
X53197Y24759D02*
X53904Y25052D01*
X54197Y25759D01*
Y32559D02*
X53904Y33266D01*
X53197Y33559D01*
X47197D02*
X46490Y33266D01*
X46197Y32559D01*
Y25759D02*
X46490Y25052D01*
X47197Y24759D01*
X19638Y66408D02*
X18931Y66115D01*
X18638Y65408D01*
Y58608D02*
X18931Y57901D01*
X19638Y57608D01*
X25638D02*
X26345Y57901D01*
X26638Y58608D01*
Y65408D02*
X26345Y66115D01*
X25638Y66408D01*
X83214Y42260D02*
X90014D01*
X91014Y43260D02*
Y49260D01*
X82214Y43260D02*
Y49260D01*
X83214Y50260D02*
X90014D01*
X46197Y25759D02*
Y32559D01*
X47197Y24759D02*
X53197D01*
X47197Y33559D02*
X53197D01*
X54197Y25759D02*
Y32559D01*
X26638Y58608D02*
Y65408D01*
X19638Y66408D02*
X25638D01*
X19638Y57608D02*
X25638D01*
X18638Y58608D02*
Y65408D01*
M02*
