G04*
G04 #@! TF.GenerationSoftware,Altium Limited,Altium Designer,23.2.1 (34)*
G04*
G04 Layer_Color=128*
%FSLAX25Y25*%
%MOIN*%
G70*
G04*
G04 #@! TF.SameCoordinates,26DCB771-F187-4795-AA7E-67AAF857B4AA*
G04*
G04*
G04 #@! TF.FilePolarity,Positive*
G04*
G01*
G75*
%ADD19R,0.05151X0.03960*%
%ADD45O,0.07677X0.02362*%
%ADD46O,0.02362X0.07677*%
%ADD47R,0.03937X0.02756*%
%ADD48R,0.03740X0.08268*%
%ADD49R,0.21654X0.25591*%
%ADD50R,0.03960X0.05151*%
%ADD51R,0.09449X0.07480*%
%ADD52R,0.03937X0.05315*%
D19*
X23622Y57180D02*
D03*
Y62899D02*
D03*
D45*
X86614Y72047D02*
D03*
Y68898D02*
D03*
Y65748D02*
D03*
Y62599D02*
D03*
Y59449D02*
D03*
Y56299D02*
D03*
Y53150D02*
D03*
Y50000D02*
D03*
X53150D02*
D03*
Y53150D02*
D03*
Y56299D02*
D03*
Y59449D02*
D03*
Y62599D02*
D03*
Y65748D02*
D03*
Y68898D02*
D03*
Y72047D02*
D03*
D46*
X80906Y44292D02*
D03*
X77756D02*
D03*
X74606D02*
D03*
X71457D02*
D03*
X68307D02*
D03*
X65158D02*
D03*
X62008D02*
D03*
X58858D02*
D03*
Y77756D02*
D03*
X62008D02*
D03*
X65158D02*
D03*
X68307D02*
D03*
X71457D02*
D03*
X74606D02*
D03*
X77756D02*
D03*
X80906D02*
D03*
D47*
X45276Y98819D02*
D03*
X21654D02*
D03*
X45276Y84252D02*
D03*
X21654D02*
D03*
D48*
X6654Y46260D02*
D03*
X24606D02*
D03*
D49*
X15630Y21457D02*
D03*
D50*
X126875Y46260D02*
D03*
X121157D02*
D03*
X126875Y30512D02*
D03*
X121157D02*
D03*
D51*
X104331Y46457D02*
D03*
Y30315D02*
D03*
D52*
X66929Y87599D02*
D03*
X61023D02*
D03*
M02*
