G04*
G04 #@! TF.GenerationSoftware,Altium Limited,Altium Designer,23.7.1 (13)*
G04*
G04 Layer_Color=32768*
%FSLAX25Y25*%
%MOIN*%
G70*
G04*
G04 #@! TF.SameCoordinates,2AD03240-4C21-4CDD-82D0-605F0999EC7E*
G04*
G04*
G04 #@! TF.FilePolarity,Positive*
G04*
G01*
G75*
%ADD62C,0.00394*%
%ADD63C,0.00197*%
D62*
X67913Y61024D02*
X71850D01*
X69882Y59055D02*
Y62992D01*
X22638Y75788D02*
Y79725D01*
X20669Y77756D02*
X24606D01*
X15630Y27559D02*
Y31496D01*
X13661Y29528D02*
X17598D01*
X62008Y87599D02*
X65945D01*
X63976Y85630D02*
Y89567D01*
X87598Y61023D02*
X91535D01*
X89567Y59055D02*
Y62992D01*
D63*
X92323Y38583D02*
Y83465D01*
X47441Y38583D02*
Y83465D01*
X92323D01*
X47441Y38583D02*
X92323D01*
X1890Y58661D02*
Y100630D01*
Y58661D02*
X13858D01*
Y100630D01*
X1890D02*
X13858D01*
X104094Y16811D02*
X136063D01*
X104094Y4843D02*
Y16811D01*
Y4843D02*
X136063D01*
Y16811D01*
X125906Y88819D02*
X137874D01*
Y56850D02*
Y88819D01*
X125906Y56850D02*
X137874D01*
X125906D02*
Y88819D01*
X123189Y56851D02*
Y88819D01*
X101221D02*
X123189D01*
X101221Y56851D02*
Y88819D01*
Y56851D02*
X123189D01*
X19291Y83071D02*
X25984D01*
X19291Y72441D02*
X25984D01*
Y83071D01*
X19291Y72441D02*
Y83071D01*
X1654Y51378D02*
X29606D01*
X1654Y7677D02*
X29606D01*
X1654D02*
Y51378D01*
X29606Y7677D02*
Y51378D01*
X60787Y109331D02*
X92756D01*
X60787Y97362D02*
Y109331D01*
Y97362D02*
X92756D01*
Y109331D01*
X130315Y97362D02*
Y109331D01*
X98346Y97362D02*
X130315D01*
X98346D02*
Y109331D01*
X130315D01*
X69291Y84252D02*
Y90945D01*
X58661Y84252D02*
Y90945D01*
X69291D01*
X58661Y84252D02*
X69291D01*
X92913Y55708D02*
Y66338D01*
X86220Y55708D02*
Y66338D01*
X92913D01*
X86220Y55708D02*
X92913D01*
M02*
