M48
;Layer_Color=9474304
;FILE_FORMAT=2:4
INCH,TZ
;TYPE=PLATED
T01F00S00C0.0197
T02F00S00C0.0280
T03F00S00C0.0402
T04F00S00C0.0827
%
T01
X4232Y3642
X5880Y3014
X6439Y2349
X7290Y3608
X8169Y3051
X9220Y2928
X6323Y5623
X6053Y6277
X6393Y6890
X5413Y8760
X7776Y8408
X8270Y8738
X8268Y9547
X2410Y10758
T02
X1575Y9252
X9055Y7972
T03
X4201Y1083
X5201
X6201
X7201
X8201
X9201
X11008
X12008
X13008
X13189Y6283
Y7283
Y8283
X11720Y8283
X10720
Y7283
X11720
Y6283
X10720
X10433Y10335
X11433
X12433
X8677
X7677
X6677
X787Y9465
Y8465
Y7465
Y6465
T04
X787Y10925
M30
