G04*
G04 #@! TF.GenerationSoftware,Altium Limited,Altium Designer,23.7.1 (13)*
G04*
G04 Layer_Physical_Order=1*
G04 Layer_Color=255*
%FSLAX25Y25*%
%MOIN*%
G70*
G04*
G04 #@! TF.SameCoordinates,2AD03240-4C21-4CDD-82D0-605F0999EC7E*
G04*
G04*
G04 #@! TF.FilePolarity,Positive*
G04*
G01*
G75*
%ADD14R,0.08082X0.01791*%
G04:AMPARAMS|DCode=15|XSize=80.82mil|YSize=17.91mil|CornerRadius=8.96mil|HoleSize=0mil|Usage=FLASHONLY|Rotation=0.000|XOffset=0mil|YOffset=0mil|HoleType=Round|Shape=RoundedRectangle|*
%AMROUNDEDRECTD15*
21,1,0.08082,0.00000,0,0,0.0*
21,1,0.06291,0.01791,0,0,0.0*
1,1,0.01791,0.03146,0.00000*
1,1,0.01791,-0.03146,0.00000*
1,1,0.01791,-0.03146,0.00000*
1,1,0.01791,0.03146,0.00000*
%
%ADD15ROUNDEDRECTD15*%
%ADD16R,0.02500X0.05000*%
%ADD17R,0.05315X0.03937*%
%ADD18R,0.07480X0.09449*%
%ADD19R,0.05151X0.03960*%
%ADD20R,0.05000X0.02500*%
%ADD36C,0.01000*%
%ADD37C,0.01500*%
%ADD38C,0.06378*%
%ADD39C,0.05394*%
%ADD40R,0.05394X0.05394*%
%ADD41R,0.05394X0.05394*%
%ADD42C,0.09843*%
%ADD43C,0.03937*%
%ADD44C,0.05000*%
G36*
X138961Y803D02*
X803D01*
Y116323D01*
X138961D01*
Y803D01*
D02*
G37*
%LPC*%
G36*
X90468Y107044D02*
X87772D01*
Y104347D01*
X90468D01*
Y107044D01*
D02*
G37*
G36*
X128028D02*
X125331D01*
Y104347D01*
X128028D01*
Y107044D01*
D02*
G37*
G36*
X123331D02*
X120634D01*
Y104347D01*
X123331D01*
Y107044D01*
D02*
G37*
G36*
X114791Y106843D02*
X113870D01*
X112981Y106605D01*
X112184Y106145D01*
X111533Y105494D01*
X111072Y104696D01*
X110834Y103807D01*
Y102886D01*
X111072Y101997D01*
X111533Y101199D01*
X112184Y100548D01*
X112981Y100088D01*
X113870Y99850D01*
X114791D01*
X115681Y100088D01*
X116478Y100548D01*
X117129Y101199D01*
X117589Y101997D01*
X117828Y102886D01*
Y103807D01*
X117589Y104696D01*
X117129Y105494D01*
X116478Y106145D01*
X115681Y106605D01*
X114791Y106843D01*
D02*
G37*
G36*
X128028Y102347D02*
X125331D01*
Y99650D01*
X128028D01*
Y102347D01*
D02*
G37*
G36*
X123331D02*
X120634D01*
Y99650D01*
X123331D01*
Y102347D01*
D02*
G37*
G36*
X90468D02*
X87772D01*
Y99650D01*
X90468D01*
Y102347D01*
D02*
G37*
G36*
X24464Y110352D02*
X23735D01*
X23031Y110163D01*
X22400Y109799D01*
X21885Y109283D01*
X21520Y108652D01*
X21331Y107948D01*
Y107219D01*
X21520Y106515D01*
X21885Y105884D01*
X22400Y105368D01*
X23031Y105004D01*
X23735Y104815D01*
X24464D01*
X25169Y105004D01*
X25800Y105368D01*
X26315Y105884D01*
X26531Y106258D01*
X63323D01*
X63558Y105982D01*
X63837Y105258D01*
X63513Y104696D01*
X63275Y103807D01*
Y102886D01*
X63444Y102254D01*
X59541Y98351D01*
X56156D01*
X55551Y98230D01*
X55038Y97888D01*
X51250Y94100D01*
X18646D01*
X18389Y94546D01*
X17774Y95160D01*
X17022Y95595D01*
X16183Y95820D01*
X15314D01*
X14474Y95595D01*
X13722Y95160D01*
X13107Y94546D01*
X12673Y93793D01*
X12448Y92954D01*
Y92085D01*
X12673Y91246D01*
X13107Y90493D01*
X13722Y89879D01*
X14474Y89445D01*
X15314Y89220D01*
X16183D01*
X17022Y89445D01*
X17774Y89879D01*
X18389Y90493D01*
X18646Y90939D01*
X46783D01*
X47166Y90015D01*
X44453Y87302D01*
X44110Y86790D01*
X43990Y86185D01*
Y81322D01*
X40729D01*
Y77930D01*
X40729Y77930D01*
X40696Y77067D01*
X40742Y76833D01*
X40179Y75958D01*
X39216Y75848D01*
X32433Y82630D01*
X32003Y82917D01*
X31496Y83018D01*
X26095D01*
Y83477D01*
X19180D01*
Y82034D01*
X13937D01*
X13430Y81933D01*
X13000Y81646D01*
X9245Y77892D01*
X9224Y77904D01*
X8334Y78142D01*
X7414D01*
X6524Y77904D01*
X5727Y77444D01*
X5076Y76793D01*
X4615Y75995D01*
X4377Y75106D01*
Y74185D01*
X4615Y73296D01*
X5076Y72499D01*
X5727Y71847D01*
X6524Y71387D01*
X7414Y71149D01*
X8334D01*
X9224Y71387D01*
X10021Y71847D01*
X10672Y72499D01*
X11133Y73296D01*
X11371Y74185D01*
Y75106D01*
X11133Y75995D01*
X11120Y76017D01*
X14486Y79383D01*
X19180D01*
Y77940D01*
X19180D01*
Y77572D01*
X19180D01*
Y72035D01*
X21312D01*
Y65658D01*
X19338D01*
Y61734D01*
X17843D01*
X13994Y65583D01*
X13564Y65870D01*
X13057Y65971D01*
X11139D01*
X11133Y65995D01*
X10672Y66793D01*
X10021Y67444D01*
X9224Y67904D01*
X8334Y68142D01*
X7414D01*
X6524Y67904D01*
X5727Y67444D01*
X5076Y66793D01*
X4615Y65995D01*
X4377Y65106D01*
Y64185D01*
X4615Y63296D01*
X5076Y62498D01*
X5727Y61847D01*
X6524Y61387D01*
X7414Y61149D01*
X8334D01*
X9224Y61387D01*
X10021Y61847D01*
X10672Y62498D01*
X11133Y63296D01*
X11139Y63320D01*
X12508D01*
X16357Y59471D01*
X16787Y59183D01*
X17294Y59083D01*
X19338D01*
Y58358D01*
X25938D01*
Y59083D01*
X26943D01*
X27451Y59183D01*
X27881Y59471D01*
X38935Y70525D01*
X39967Y70463D01*
X40017Y70390D01*
X41706D01*
X41763Y70351D01*
X42425Y70220D01*
X48716D01*
X49377Y70351D01*
X49434Y70390D01*
X50327D01*
X50082Y70756D01*
X49996Y70814D01*
X50313Y71287D01*
X50444Y71949D01*
X50313Y72610D01*
X49938Y73171D01*
Y73285D01*
X50313Y73846D01*
X50444Y74508D01*
X50313Y75169D01*
X49938Y75730D01*
Y75844D01*
X50313Y76405D01*
X50418Y76933D01*
X50444Y77067D01*
X50411Y77930D01*
X50411Y77930D01*
Y81322D01*
X47151D01*
Y85530D01*
X50673Y89052D01*
X50922Y88943D01*
X51500Y88465D01*
X51365Y87963D01*
Y87234D01*
X51554Y86530D01*
X51918Y85899D01*
X52434Y85383D01*
X53065Y85019D01*
X53769Y84830D01*
X54498D01*
X55202Y85019D01*
X55834Y85383D01*
X56349Y85899D01*
X56714Y86530D01*
X56902Y87234D01*
Y87963D01*
X56790Y88380D01*
X58168Y89758D01*
X64508D01*
X65016Y89859D01*
X65446Y90146D01*
X75400Y100101D01*
X75422Y100088D01*
X76311Y99850D01*
X77232D01*
X78121Y100088D01*
X78919Y100548D01*
X79570Y101199D01*
X80030Y101997D01*
X80648Y102336D01*
X81162Y102357D01*
X81352Y102130D01*
Y97904D01*
X80977Y97688D01*
X80462Y97172D01*
X80097Y96541D01*
X79909Y95837D01*
Y95108D01*
X80097Y94404D01*
X80462Y93773D01*
X80977Y93257D01*
X81609Y92893D01*
X82313Y92704D01*
X83042D01*
X83746Y92893D01*
X84377Y93257D01*
X84892Y93773D01*
X85257Y94404D01*
X85446Y95108D01*
Y95837D01*
X85257Y96541D01*
X84892Y97172D01*
X84377Y97688D01*
X84003Y97904D01*
Y99650D01*
X85772D01*
Y103347D01*
Y107044D01*
X83075D01*
Y106390D01*
X82151Y106007D01*
X79637Y108521D01*
X79207Y108808D01*
X78700Y108909D01*
X26531D01*
X26315Y109283D01*
X25800Y109799D01*
X25169Y110163D01*
X24464Y110352D01*
D02*
G37*
G36*
X11371Y98142D02*
X4377D01*
Y91149D01*
X11371D01*
Y98142D01*
D02*
G37*
G36*
X8874Y88205D02*
Y85646D01*
X11433D01*
X11319Y86072D01*
X10832Y86915D01*
X10144Y87604D01*
X9301Y88090D01*
X8874Y88205D01*
D02*
G37*
G36*
X6874D02*
X6447Y88090D01*
X5604Y87604D01*
X4916Y86915D01*
X4429Y86072D01*
X4315Y85646D01*
X6874D01*
Y88205D01*
D02*
G37*
G36*
X104791Y106843D02*
X103870D01*
X102981Y106605D01*
X102184Y106145D01*
X101533Y105494D01*
X101072Y104696D01*
X100834Y103807D01*
Y102886D01*
X101072Y101997D01*
X101533Y101199D01*
X102184Y100548D01*
X102981Y100088D01*
X103315Y99998D01*
X103394Y99882D01*
X103824Y99594D01*
X104331Y99493D01*
X104838Y99594D01*
X105268Y99882D01*
X106208Y99595D01*
X111676Y94127D01*
Y84294D01*
X110676Y84162D01*
X110650Y84262D01*
X110163Y85105D01*
X109475Y85793D01*
X108632Y86280D01*
X108205Y86394D01*
Y82835D01*
Y79276D01*
X108632Y79390D01*
X109475Y79877D01*
X110163Y80565D01*
X110650Y81408D01*
X110676Y81507D01*
X111676Y81375D01*
Y74200D01*
X111349Y73336D01*
X111349Y73336D01*
Y73336D01*
X110702Y73295D01*
X110688Y73346D01*
X110463Y74185D01*
X110003Y74982D01*
X109352Y75633D01*
X108554Y76093D01*
X107665Y76332D01*
X106744D01*
X105855Y76093D01*
X105058Y75633D01*
X104407Y74982D01*
X103946Y74185D01*
X103708Y73295D01*
Y72374D01*
X103946Y71485D01*
X103959Y71463D01*
X94535Y62040D01*
X94248Y61610D01*
X94147Y61102D01*
Y45927D01*
X91264Y43044D01*
X90264Y43459D01*
Y49560D01*
X82964D01*
Y48708D01*
X81964Y48294D01*
X78548Y51710D01*
X78962Y52710D01*
X84843D01*
X85350Y52811D01*
X85780Y53098D01*
X87984Y55302D01*
X93024D01*
Y60839D01*
X93024D01*
Y61208D01*
X93024D01*
Y66745D01*
X90892D01*
Y68348D01*
X97394Y74850D01*
X97681Y75280D01*
X97782Y75787D01*
Y84060D01*
X97681Y84567D01*
X97394Y84997D01*
X96808Y85583D01*
X96378Y85870D01*
X95871Y85971D01*
X88158D01*
X87650Y85870D01*
X87220Y85583D01*
X80030Y78392D01*
X78103D01*
X77937Y78508D01*
X77368Y79392D01*
X77414Y79626D01*
X77282Y80288D01*
X77233Y80362D01*
X77245Y80434D01*
X77799Y81315D01*
X78120D01*
X78825Y81504D01*
X79456Y81868D01*
X79971Y82384D01*
X80336Y83015D01*
X80524Y83719D01*
Y84288D01*
X80924Y84654D01*
X81434Y84918D01*
X81631Y84804D01*
X82336Y84615D01*
X83065D01*
X83769Y84804D01*
X84400Y85168D01*
X84915Y85684D01*
X85280Y86315D01*
X85469Y87019D01*
Y87748D01*
X85280Y88452D01*
X84915Y89083D01*
X84400Y89599D01*
X83769Y89963D01*
X83065Y90152D01*
X82336D01*
X81631Y89963D01*
X81000Y89599D01*
X80485Y89083D01*
X80269Y88709D01*
X66500D01*
X65993Y88608D01*
X65563Y88321D01*
X52212Y74970D01*
X51925Y74540D01*
X51824Y74033D01*
Y49953D01*
X50836Y49508D01*
X50337Y49896D01*
X50277Y50762D01*
X50313Y50815D01*
X50444Y51476D01*
X50313Y52138D01*
X49938Y52699D01*
Y52813D01*
X50313Y53374D01*
X50444Y54035D01*
X50313Y54697D01*
X49997Y55171D01*
X50082Y55228D01*
X50327Y55594D01*
X49435D01*
X49377Y55633D01*
X48716Y55764D01*
X42425D01*
X41763Y55633D01*
X41706Y55594D01*
X40813D01*
X41058Y55228D01*
X41144Y55171D01*
X40828Y54697D01*
X40696Y54035D01*
X40828Y53374D01*
X41171Y52756D01*
X40828Y52138D01*
X40696Y51476D01*
X40828Y50815D01*
X41202Y50254D01*
Y50140D01*
X40828Y49579D01*
X40696Y48917D01*
X40828Y48256D01*
X41202Y47695D01*
Y47581D01*
X40828Y47020D01*
X40696Y46358D01*
X40828Y45697D01*
X41202Y45136D01*
X41298Y45072D01*
Y39009D01*
X41254Y38997D01*
X40623Y38633D01*
X40108Y38117D01*
X39743Y37486D01*
X39554Y36782D01*
Y36053D01*
X39743Y35349D01*
X40108Y34717D01*
X40623Y34202D01*
X41074Y33941D01*
Y22832D01*
X36563Y18321D01*
X36275Y17891D01*
X36174Y17383D01*
Y7883D01*
X36275Y7376D01*
X36563Y6946D01*
X40463Y3046D01*
X40893Y2759D01*
X41400Y2658D01*
X95000D01*
X95507Y2759D01*
X95937Y3046D01*
X122237Y29346D01*
X122525Y29776D01*
X122626Y30283D01*
Y68740D01*
X122525Y69247D01*
X122237Y69677D01*
X120451Y71463D01*
X120463Y71485D01*
X120702Y72374D01*
Y73295D01*
X120463Y74185D01*
X120003Y74982D01*
X119352Y75633D01*
X118554Y76093D01*
X117665Y76332D01*
X116744D01*
X115855Y76093D01*
X115327Y75789D01*
X114552Y76107D01*
X114327Y76317D01*
Y79353D01*
X114552Y79563D01*
X115327Y79881D01*
X115855Y79576D01*
X116744Y79338D01*
X117665D01*
X118554Y79576D01*
X119352Y80037D01*
X120003Y80688D01*
X120463Y81485D01*
X120702Y82374D01*
Y83295D01*
X120463Y84184D01*
X120003Y84982D01*
X119352Y85633D01*
X118554Y86093D01*
X117665Y86332D01*
X116744D01*
X115855Y86093D01*
X115327Y85789D01*
X114552Y86107D01*
X114327Y86317D01*
Y94676D01*
X114226Y95183D01*
X113939Y95613D01*
X107577Y101975D01*
X107589Y101997D01*
X107828Y102886D01*
Y103807D01*
X107589Y104696D01*
X107129Y105494D01*
X106478Y106145D01*
X105681Y106605D01*
X104791Y106843D01*
D02*
G37*
G36*
X106205Y86394D02*
X105778Y86280D01*
X104935Y85793D01*
X104247Y85105D01*
X103760Y84262D01*
X103646Y83835D01*
X106205D01*
Y86394D01*
D02*
G37*
G36*
X135587Y86531D02*
X132890D01*
Y83835D01*
X135587D01*
Y86531D01*
D02*
G37*
G36*
X130890D02*
X128193D01*
Y83835D01*
X130890D01*
Y86531D01*
D02*
G37*
G36*
X11433Y83646D02*
X8874D01*
Y81086D01*
X9301Y81201D01*
X10144Y81687D01*
X10832Y82376D01*
X11319Y83219D01*
X11433Y83646D01*
D02*
G37*
G36*
X6874D02*
X4315D01*
X4429Y83219D01*
X4916Y82376D01*
X5604Y81687D01*
X6447Y81201D01*
X6874Y81086D01*
Y83646D01*
D02*
G37*
G36*
X106205Y81835D02*
X103646D01*
X103760Y81408D01*
X104247Y80565D01*
X104935Y79877D01*
X105778Y79390D01*
X106205Y79276D01*
Y81835D01*
D02*
G37*
G36*
X135587Y81835D02*
X132890D01*
Y79138D01*
X135587D01*
Y81835D01*
D02*
G37*
G36*
X130890D02*
X128193D01*
Y79138D01*
X130890D01*
Y81835D01*
D02*
G37*
G36*
X132350Y76331D02*
X131429D01*
X130540Y76093D01*
X129743Y75633D01*
X129092Y74982D01*
X128631Y74184D01*
X128393Y73295D01*
Y72374D01*
X128631Y71485D01*
X129092Y70688D01*
X129743Y70036D01*
X130540Y69576D01*
X131429Y69338D01*
X132350D01*
X133239Y69576D01*
X134037Y70036D01*
X134688Y70688D01*
X135148Y71485D01*
X135387Y72374D01*
Y73295D01*
X135148Y74184D01*
X134688Y74982D01*
X134037Y75633D01*
X133239Y76093D01*
X132350Y76331D01*
D02*
G37*
G36*
X48716Y68560D02*
X42425D01*
X41763Y68428D01*
X41706Y68390D01*
X40813D01*
X41058Y68023D01*
X41144Y67966D01*
X40828Y67492D01*
X40696Y66831D01*
X40828Y66169D01*
X41202Y65608D01*
Y65494D01*
X40828Y64933D01*
X40696Y64272D01*
X40742Y64038D01*
X40173Y63154D01*
X40007Y63038D01*
X37827D01*
X37320Y62937D01*
X36890Y62650D01*
X25421Y51181D01*
X7874D01*
Y35433D01*
X12454D01*
Y30245D01*
X10404D01*
Y24727D01*
X10204D01*
Y22747D01*
X13779D01*
X17355D01*
Y24727D01*
X17155D01*
Y30245D01*
X15105D01*
Y35433D01*
X28399D01*
Y30245D01*
X26152D01*
Y24727D01*
X25952D01*
Y22747D01*
X29528D01*
X33103D01*
Y24727D01*
X32903D01*
Y30245D01*
X31050D01*
Y35433D01*
X35433D01*
Y51181D01*
X33806D01*
Y52601D01*
X38935Y57730D01*
X39967Y57668D01*
X40017Y57594D01*
X41706D01*
X41763Y57556D01*
X42425Y57424D01*
X48716D01*
X49377Y57556D01*
X49435Y57594D01*
X50327D01*
X50082Y57961D01*
X49997Y58018D01*
X50313Y58492D01*
X50444Y59153D01*
X50313Y59815D01*
X49938Y60376D01*
Y60490D01*
X50313Y61051D01*
X50444Y61713D01*
X50313Y62374D01*
X49938Y62935D01*
Y63049D01*
X50313Y63610D01*
X50444Y64272D01*
X50313Y64933D01*
X49938Y65494D01*
Y65608D01*
X50313Y66169D01*
X50444Y66831D01*
X50313Y67492D01*
X49997Y67966D01*
X50082Y68023D01*
X50327Y68390D01*
X49435D01*
X49377Y68428D01*
X48716Y68560D01*
D02*
G37*
G36*
X33103Y20747D02*
X30528D01*
Y18767D01*
X33103D01*
Y20747D01*
D02*
G37*
G36*
X28528D02*
X25952D01*
Y18767D01*
X28528D01*
Y20747D01*
D02*
G37*
G36*
X17355D02*
X14779D01*
Y18767D01*
X17355D01*
Y20747D01*
D02*
G37*
G36*
X12779D02*
X10204D01*
Y18767D01*
X12779D01*
Y20747D01*
D02*
G37*
G36*
X132350Y66331D02*
X131429D01*
X130540Y66093D01*
X129743Y65633D01*
X129092Y64982D01*
X128631Y64184D01*
X128393Y63295D01*
Y62374D01*
X128631Y61485D01*
X129092Y60688D01*
X129743Y60036D01*
X130540Y59576D01*
X130564Y59570D01*
Y33187D01*
X111450Y14073D01*
X111428Y14085D01*
X110539Y14324D01*
X109618D01*
X108729Y14085D01*
X107932Y13625D01*
X107281Y12974D01*
X106820Y12177D01*
X106582Y11287D01*
Y10366D01*
X106820Y9477D01*
X107281Y8680D01*
X107932Y8029D01*
X108729Y7568D01*
X109618Y7330D01*
X110539D01*
X111428Y7568D01*
X112226Y8029D01*
X112877Y8680D01*
X113337Y9477D01*
X113576Y10366D01*
Y11287D01*
X113337Y12177D01*
X113325Y12198D01*
X132827Y31701D01*
X133114Y32131D01*
X133215Y32638D01*
Y59570D01*
X133239Y59576D01*
X134037Y60036D01*
X134688Y60688D01*
X135148Y61485D01*
X135387Y62374D01*
Y63295D01*
X135148Y64184D01*
X134688Y64982D01*
X134037Y65633D01*
X133239Y66093D01*
X132350Y66331D01*
D02*
G37*
G36*
X133776Y14524D02*
X131079D01*
Y11827D01*
X133776D01*
Y14524D01*
D02*
G37*
G36*
X129079D02*
X126382D01*
Y11827D01*
X129079D01*
Y14524D01*
D02*
G37*
G36*
X120539Y14324D02*
X119618D01*
X118729Y14085D01*
X117932Y13625D01*
X117281Y12974D01*
X116820Y12177D01*
X116582Y11287D01*
Y10366D01*
X116820Y9477D01*
X117281Y8680D01*
X117932Y8029D01*
X118729Y7568D01*
X119618Y7330D01*
X120539D01*
X121429Y7568D01*
X122226Y8029D01*
X122877Y8680D01*
X123337Y9477D01*
X123576Y10366D01*
Y11287D01*
X123337Y12177D01*
X122877Y12974D01*
X122226Y13625D01*
X121429Y14085D01*
X120539Y14324D01*
D02*
G37*
G36*
X133776Y9827D02*
X131079D01*
Y7130D01*
X133776D01*
Y9827D01*
D02*
G37*
G36*
X129079D02*
X126382D01*
Y7130D01*
X129079D01*
Y9827D01*
D02*
G37*
%LPD*%
G36*
X73558Y105982D02*
X73837Y105258D01*
X73513Y104696D01*
X73275Y103807D01*
Y102886D01*
X73513Y101997D01*
X73526Y101975D01*
X63959Y92409D01*
X57619D01*
X57112Y92308D01*
X57112Y92308D01*
X57112Y92308D01*
X56682Y92021D01*
X54916Y90255D01*
X54498Y90367D01*
X53769D01*
X53267Y90232D01*
X52789Y90810D01*
X52680Y91059D01*
X56810Y95190D01*
X60195D01*
X60800Y95310D01*
X61313Y95653D01*
X65679Y100019D01*
X66311Y99850D01*
X67232D01*
X68121Y100088D01*
X68919Y100548D01*
X69570Y101199D01*
X70030Y101997D01*
X70268Y102886D01*
Y103807D01*
X70030Y104696D01*
X69706Y105258D01*
X69985Y105982D01*
X70220Y106258D01*
X73323D01*
X73558Y105982D01*
D02*
G37*
G36*
X37354Y73960D02*
X37437Y73496D01*
X37388Y72810D01*
X37315Y72654D01*
X26938Y62277D01*
X26467Y62362D01*
X25938Y62691D01*
Y65658D01*
X23963D01*
Y72035D01*
X26095D01*
Y77572D01*
X26095D01*
Y77940D01*
X26095D01*
Y80367D01*
X30947D01*
X37354Y73960D01*
D02*
G37*
G36*
X68519Y85058D02*
X68463Y85021D01*
X55399Y71957D01*
X54475Y72339D01*
Y73484D01*
X67049Y86058D01*
X68215D01*
X68519Y85058D01*
D02*
G37*
G36*
X65873Y77268D02*
Y72127D01*
X65246Y71661D01*
X64873Y71511D01*
X64295Y71666D01*
X63566D01*
X62862Y71478D01*
X62230Y71113D01*
X61715Y70597D01*
X61351Y69966D01*
X61162Y69262D01*
Y68533D01*
X61351Y67829D01*
X61715Y67198D01*
X62120Y66792D01*
X62164Y66228D01*
X62152Y66151D01*
X62090Y66061D01*
X61159Y65469D01*
X60893Y65540D01*
X60164D01*
X59460Y65351D01*
X58828Y64987D01*
X58313Y64471D01*
X57948Y63840D01*
X57760Y63136D01*
Y62640D01*
X57657Y62540D01*
X56657Y62963D01*
Y69466D01*
X64873Y77682D01*
X65873Y77268D01*
D02*
G37*
G36*
X111349Y72334D02*
Y72334D01*
X111349Y72334D01*
X111676Y71469D01*
Y69181D01*
X108576Y66081D01*
X108554Y66093D01*
X107665Y66332D01*
X106744D01*
X105855Y66093D01*
X105058Y65633D01*
X104407Y64982D01*
X103946Y64184D01*
X103708Y63295D01*
Y62374D01*
X103946Y61485D01*
X104407Y60688D01*
X105058Y60037D01*
X105855Y59576D01*
X106744Y59338D01*
X107665D01*
X108554Y59576D01*
X109352Y60037D01*
X110003Y60688D01*
X110463Y61485D01*
X110702Y62374D01*
Y63295D01*
X110463Y64184D01*
X110451Y64206D01*
X112801Y66557D01*
X113708Y66049D01*
Y59338D01*
X115879D01*
Y37232D01*
X113129Y34482D01*
X112205Y34864D01*
Y52165D01*
X96798D01*
Y60553D01*
X105833Y69589D01*
X105855Y69576D01*
X106744Y69338D01*
X107665D01*
X108554Y69576D01*
X109352Y70037D01*
X110003Y70688D01*
X110463Y71485D01*
X110688Y72323D01*
X110702Y72374D01*
X111349Y72334D01*
D02*
G37*
G36*
X95131Y76336D02*
X88630Y69835D01*
X88342Y69405D01*
X88241Y68897D01*
Y66745D01*
X86109D01*
Y64683D01*
X85995D01*
X85488Y64582D01*
X85058Y64295D01*
X79168Y58404D01*
X78837Y58470D01*
X78508Y59556D01*
X78818Y59866D01*
X79105Y60296D01*
X79206Y60803D01*
Y67740D01*
X79105Y68247D01*
X78818Y68677D01*
X77518Y69977D01*
X77316Y70225D01*
X77247Y71234D01*
X77282Y71287D01*
X77414Y71949D01*
X77282Y72610D01*
X76966Y73084D01*
X77052Y73141D01*
X77297Y73508D01*
X76404D01*
X76347Y73546D01*
X75685Y73678D01*
X72540D01*
Y75338D01*
X75685D01*
X76347Y75469D01*
X76404Y75508D01*
X78093D01*
X78252Y75741D01*
X80579D01*
X81086Y75842D01*
X81516Y76130D01*
X88707Y83320D01*
X95131D01*
Y76336D01*
D02*
G37*
G36*
X67682Y54118D02*
X67666Y54035D01*
X67797Y53374D01*
X68140Y52756D01*
X67797Y52138D01*
X67666Y51476D01*
X67721Y51196D01*
X67770Y50782D01*
X67131Y50011D01*
X66897Y49854D01*
X65863Y48821D01*
X65575Y48391D01*
X65474Y47883D01*
Y42183D01*
X65516Y41975D01*
X64594Y41482D01*
X61288Y44788D01*
Y53000D01*
X61916Y53466D01*
X62288Y53616D01*
X62867Y53461D01*
X63596D01*
X64300Y53650D01*
X64931Y54015D01*
X65447Y54530D01*
X65786Y55118D01*
X66967D01*
X67682Y54118D01*
D02*
G37*
G36*
X69394Y44629D02*
X75685D01*
X76188Y44217D01*
Y37926D01*
X75188Y37658D01*
X75115Y37783D01*
X74600Y38299D01*
X73969Y38663D01*
X73264Y38852D01*
X72536D01*
X72118Y38740D01*
X68125Y42732D01*
Y43964D01*
X68259Y44140D01*
X69125Y44683D01*
X69394Y44629D01*
D02*
G37*
G36*
X81186Y45322D02*
X81616Y45035D01*
X82124Y44934D01*
X82964D01*
Y42960D01*
X86889D01*
Y41918D01*
X80756Y35785D01*
X80468Y35355D01*
X80367Y34848D01*
Y33351D01*
X79839Y32992D01*
X78839Y33476D01*
Y45627D01*
X78738Y46134D01*
X78451Y46564D01*
X78340Y46674D01*
X78393Y47586D01*
X78718Y47791D01*
X81186Y45322D01*
D02*
G37*
G36*
X50574Y41923D02*
Y32809D01*
X47722D01*
Y40377D01*
X49651Y42305D01*
X50574Y41923D01*
D02*
G37*
G36*
X54394Y40433D02*
X60591Y34237D01*
X60526Y33353D01*
X59658Y32780D01*
X59165Y32912D01*
X58435D01*
X57731Y32724D01*
X57100Y32359D01*
X56585Y31844D01*
X56220Y31212D01*
X56032Y30508D01*
Y29779D01*
X56177Y29235D01*
X54421Y27479D01*
X53497Y27861D01*
Y32809D01*
X53225D01*
Y40519D01*
X53374Y40578D01*
X54225Y40686D01*
X54394Y40433D01*
D02*
G37*
G36*
X119975Y30832D02*
X94451Y5309D01*
X78214D01*
X77800Y6309D01*
X78437Y6946D01*
X78596Y7183D01*
X79115Y7427D01*
X79771Y7512D01*
X80468Y7110D01*
X81483Y6838D01*
X82533D01*
X83548Y7110D01*
X84457Y7635D01*
X85200Y8377D01*
X85725Y9287D01*
X85997Y10302D01*
Y11352D01*
X85725Y12366D01*
X85200Y13276D01*
X84457Y14019D01*
X83548Y14544D01*
X82533Y14816D01*
X81483D01*
X80468Y14544D01*
X79826Y14173D01*
X78825Y14581D01*
Y16694D01*
X84137Y22006D01*
X87706Y25574D01*
X87993Y26005D01*
X88094Y26512D01*
Y36125D01*
X95457Y43488D01*
X96457Y43074D01*
Y30609D01*
X94631D01*
X94415Y30983D01*
X93900Y31499D01*
X93269Y31863D01*
X92564Y32052D01*
X91835D01*
X91131Y31863D01*
X90500Y31499D01*
X89985Y30983D01*
X89620Y30352D01*
X89432Y29648D01*
Y28919D01*
X89620Y28215D01*
X89985Y27584D01*
X90500Y27068D01*
X91131Y26704D01*
X91835Y26515D01*
X92564D01*
X93269Y26704D01*
X93900Y27068D01*
X94415Y27584D01*
X94631Y27958D01*
X96457D01*
Y24606D01*
X112205D01*
Y29809D01*
X118142Y35746D01*
X118429Y36176D01*
X118530Y36683D01*
Y59338D01*
X119975D01*
Y30832D01*
D02*
G37*
G36*
X60087Y26587D02*
X51070Y17571D01*
X50783Y17141D01*
X50682Y16634D01*
Y14601D01*
X50468Y14544D01*
X49826Y14173D01*
X48825Y14581D01*
Y18134D01*
X58144Y27453D01*
X58435Y27375D01*
X59165D01*
X59569Y27484D01*
X60087Y26587D01*
D02*
G37*
G36*
X61250Y23220D02*
X61660Y22997D01*
X61815Y22420D01*
X62179Y21789D01*
X62695Y21273D01*
X63326Y20909D01*
X64030Y20720D01*
X64759D01*
X65463Y20909D01*
X65588Y20981D01*
X66588Y20404D01*
Y17281D01*
X63740Y14433D01*
X63547Y14544D01*
X62533Y14816D01*
X61483D01*
X60468Y14544D01*
X59558Y14019D01*
X58816Y13276D01*
X58291Y12366D01*
X58019Y11352D01*
Y10302D01*
X58291Y9287D01*
X58682Y8609D01*
X58408Y7892D01*
X58170Y7609D01*
X55845D01*
X55607Y7892D01*
X55333Y8609D01*
X55725Y9287D01*
X55997Y10302D01*
Y11352D01*
X55725Y12366D01*
X55200Y13276D01*
X54457Y14019D01*
X53548Y14544D01*
X53333Y14601D01*
Y16085D01*
X60626Y23378D01*
X61250Y23220D01*
D02*
G37*
G36*
X70320Y35015D02*
X70685Y34383D01*
X71200Y33868D01*
X71831Y33504D01*
X72536Y33315D01*
X73264D01*
X73969Y33504D01*
X74600Y33868D01*
X75115Y34383D01*
X75188Y34509D01*
X76188Y34241D01*
Y23529D01*
X76289Y23022D01*
X76576Y22592D01*
X77162Y22006D01*
X77592Y21719D01*
X78099Y21618D01*
X78693D01*
X79076Y20694D01*
X76563Y18180D01*
X76275Y17750D01*
X76174Y17243D01*
Y13588D01*
X75292Y13306D01*
X75174Y13301D01*
X74457Y14019D01*
X73548Y14544D01*
X72533Y14816D01*
X71483D01*
X70468Y14544D01*
X69559Y14019D01*
X68816Y13276D01*
X68291Y12366D01*
X68019Y11352D01*
Y10302D01*
X68291Y9287D01*
X68682Y8609D01*
X68408Y7892D01*
X68170Y7609D01*
X65845D01*
X65607Y7892D01*
X65333Y8609D01*
X65725Y9287D01*
X65997Y10302D01*
Y11352D01*
X65725Y12366D01*
X65614Y12559D01*
X68851Y15795D01*
X69138Y16225D01*
X69239Y16732D01*
Y35186D01*
X70239Y35318D01*
X70320Y35015D01*
D02*
G37*
G36*
X45071Y33008D02*
Y28971D01*
X45172Y28463D01*
X45460Y28033D01*
X46221Y27272D01*
X46651Y26984D01*
X46897Y26936D01*
Y25509D01*
X51144D01*
X51527Y24585D01*
X46563Y19621D01*
X46275Y19191D01*
X46174Y18683D01*
Y13588D01*
X45292Y13306D01*
X45175Y13301D01*
X44457Y14019D01*
X43547Y14544D01*
X42533Y14816D01*
X41483D01*
X40468Y14544D01*
X39825Y14173D01*
X38826Y14581D01*
Y16834D01*
X43337Y21346D01*
X43625Y21776D01*
X43725Y22283D01*
Y33311D01*
X44071Y33542D01*
X45071Y33008D01*
D02*
G37*
%LPC*%
G36*
X93008Y14896D02*
Y11827D01*
X96077D01*
X95911Y12444D01*
X95360Y13399D01*
X94580Y14179D01*
X93625Y14730D01*
X93008Y14896D01*
D02*
G37*
G36*
X91008D02*
X90391Y14730D01*
X89436Y14179D01*
X88656Y13399D01*
X88104Y12444D01*
X87939Y11827D01*
X91008D01*
Y14896D01*
D02*
G37*
G36*
X96077Y9827D02*
X93008D01*
Y6758D01*
X93625Y6923D01*
X94580Y7475D01*
X95360Y8255D01*
X95911Y9210D01*
X96077Y9827D01*
D02*
G37*
G36*
X91008D02*
X87939D01*
X88104Y9210D01*
X88656Y8255D01*
X89436Y7475D01*
X90391Y6923D01*
X91008Y6758D01*
Y9827D01*
D02*
G37*
%LPD*%
D14*
X45570Y79626D02*
D03*
D15*
Y77067D02*
D03*
Y74508D02*
D03*
Y71949D02*
D03*
Y69390D02*
D03*
Y66831D02*
D03*
Y64272D02*
D03*
Y61713D02*
D03*
Y59153D02*
D03*
Y56594D02*
D03*
Y54035D02*
D03*
Y51476D02*
D03*
Y48917D02*
D03*
Y46358D02*
D03*
X72540D02*
D03*
Y48917D02*
D03*
Y51476D02*
D03*
Y54035D02*
D03*
Y56594D02*
D03*
Y59153D02*
D03*
Y61713D02*
D03*
Y64272D02*
D03*
Y66831D02*
D03*
Y69390D02*
D03*
Y71949D02*
D03*
Y74508D02*
D03*
Y77067D02*
D03*
Y79626D02*
D03*
D16*
X85014Y46260D02*
D03*
X88214D02*
D03*
D17*
X22638Y80709D02*
D03*
Y74803D02*
D03*
X89567Y63976D02*
D03*
Y58071D02*
D03*
D18*
X29724Y43307D02*
D03*
X13583D02*
D03*
D19*
X13779Y27465D02*
D03*
Y21747D02*
D03*
X29528Y27466D02*
D03*
Y21747D02*
D03*
D20*
X50197Y30759D02*
D03*
Y27559D02*
D03*
X22638Y60408D02*
D03*
Y63608D02*
D03*
D36*
X26943Y60408D02*
X38484Y71949D01*
X45570D01*
X22638Y60408D02*
X26943D01*
X32480Y53150D02*
X38484Y59153D01*
X45570D01*
X45419Y69238D02*
X45570Y69390D01*
X54134Y87598D02*
X57619Y91083D01*
X78700Y107583D02*
X82677Y103606D01*
X24100Y107583D02*
X78700D01*
X57619Y91083D02*
X64508D01*
X96457Y75787D02*
Y84060D01*
X88158Y84646D02*
X95871D01*
X96457Y84060D01*
X80579Y77067D02*
X88158Y84646D01*
X77513Y23529D02*
Y45627D01*
X72685Y46213D02*
X76928D01*
X77513Y45627D01*
X72540Y46358D02*
X72685Y46213D01*
X78099Y22943D02*
X83200D01*
X77513Y23529D02*
X78099Y22943D01*
X87564Y45610D02*
X88214Y44960D01*
Y41369D02*
Y44960D01*
X81693Y30512D02*
Y34848D01*
X88214Y41369D01*
X86769Y26512D02*
Y36674D01*
X95472Y45378D01*
X83200Y22943D02*
X86769Y26512D01*
X87564Y45610D02*
X88214Y46260D01*
X95472Y45378D02*
Y61102D01*
X82124Y46260D02*
X85014D01*
X76907Y51476D02*
X82124Y46260D01*
X89567Y68897D02*
X96457Y75787D01*
X89567Y63976D02*
Y68897D01*
X72540Y56594D02*
X79232D01*
X88948Y63357D02*
X89567Y63976D01*
X85995Y63357D02*
X88948D01*
X79232Y56594D02*
X85995Y63357D01*
X88878Y58071D02*
X89567D01*
X84843Y54035D02*
X88878Y58071D01*
X72540Y54035D02*
X84843D01*
X59963Y57584D02*
X63930Y61551D01*
Y68898D01*
X58163Y41446D02*
Y60232D01*
X60528Y62597D01*
Y62771D01*
X59963Y44239D02*
Y57584D01*
X37500Y7883D02*
X41400Y3983D01*
X37500Y17383D02*
X42400Y22283D01*
X41400Y3983D02*
X95000D01*
X37500Y7883D02*
Y17383D01*
X95000Y3983D02*
X121300Y30283D01*
X13779Y27465D02*
Y43110D01*
X31496Y81693D02*
X38681Y74508D01*
X45570D01*
X24311Y81693D02*
X31496D01*
X22638Y80709D02*
X23327D01*
X24311Y81693D01*
X22638Y63608D02*
Y74803D01*
X7874Y64646D02*
X13057D01*
X13937Y80709D02*
X22638D01*
X7874Y74646D02*
X13937Y80709D01*
X17294Y60408D02*
X22638D01*
X29724Y44291D02*
X32480Y47047D01*
X29724Y27662D02*
Y43307D01*
X13583D02*
X19421D01*
X29528Y27466D02*
X29724Y27662D01*
Y43307D02*
Y44291D01*
X13583Y43307D02*
X13779Y43110D01*
X104331Y100819D02*
Y103347D01*
X113002Y94676D01*
X19421Y43307D02*
X37827Y61713D01*
X13057Y64646D02*
X17294Y60408D01*
X32480Y47047D02*
Y53150D01*
X37827Y61713D02*
X45570D01*
X64508Y91083D02*
X76772Y103347D01*
X82677Y95472D02*
Y103606D01*
X113002Y68632D02*
Y94676D01*
X67199Y63362D02*
Y77976D01*
X76383Y69238D02*
X77881Y67740D01*
X67199Y63362D02*
X68697Y61864D01*
X72691Y69238D02*
X76383D01*
X72540Y69390D02*
X72691Y69238D01*
X77881Y60803D02*
Y67740D01*
X66500Y87383D02*
X82700D01*
X131890Y32638D02*
Y62835D01*
X121300Y30283D02*
Y68740D01*
X117205Y36683D02*
Y62835D01*
Y72835D02*
X121300Y68740D01*
X92200Y29283D02*
X109805D01*
X110079Y10827D02*
X131890Y32638D01*
X109805Y29283D02*
X117205Y36683D01*
X107205Y62835D02*
X113002Y68632D01*
X95472Y61102D02*
X107205Y72835D01*
X45419Y56443D02*
X45570Y56594D01*
Y48917D02*
X45722Y48766D01*
X42989Y46358D02*
X45570D01*
X42624Y45993D02*
X42989Y46358D01*
X47500Y7883D02*
X49100Y6283D01*
X77500Y7883D02*
Y17243D01*
X47500Y7883D02*
Y18683D01*
X49100Y6283D02*
X75900D01*
X77500Y7883D01*
Y17243D02*
X83200Y22943D01*
X52008Y16634D02*
X62131Y26757D01*
X67913Y16732D02*
Y36289D01*
X49547Y28209D02*
X50197Y27559D01*
X47500Y18683D02*
X58800Y29983D01*
X52008Y10827D02*
Y16634D01*
X62008Y10827D02*
X67913Y16732D01*
X55331Y41371D02*
X62131Y34571D01*
X58163Y41446D02*
X64395Y35215D01*
X58800Y29983D02*
Y30144D01*
X64395Y23489D02*
Y35215D01*
X62131Y26757D02*
Y34571D01*
X59963Y44239D02*
X67913Y36289D01*
X66800Y42183D02*
X72900Y36083D01*
X63445Y56443D02*
X72388D01*
X68697Y61864D02*
X72388D01*
X72540Y61713D01*
X76382Y59305D02*
X77881Y60803D01*
X72691Y59305D02*
X76382D01*
X72388Y56443D02*
X72540Y56594D01*
Y59153D02*
X72691Y59305D01*
X66800Y47883D02*
X67834Y48917D01*
X72540D01*
Y51476D02*
X76907D01*
X45722Y48766D02*
X49413D01*
X50911Y47268D01*
X46397Y40926D02*
X50911Y45440D01*
Y47268D01*
X51900Y43883D02*
X53150Y45133D01*
Y74033D01*
X55331Y41371D02*
Y70015D01*
X63231Y56230D02*
X63445Y56443D01*
X69400Y84083D02*
X77756D01*
X55331Y70015D02*
X69400Y84083D01*
X53150Y74033D02*
X66500Y87383D01*
X72388Y79475D02*
X72540Y79626D01*
X67199Y77976D02*
X68697Y79475D01*
X72388D01*
X72540Y77067D02*
X80579D01*
X66800Y42183D02*
Y47883D01*
X42400Y22283D02*
Y36494D01*
X46397Y28971D02*
X47158Y28209D01*
X51150Y30759D02*
X51900Y31509D01*
X47158Y28209D02*
X49547D01*
X46397Y28971D02*
Y40926D01*
X51900Y31509D02*
Y43883D01*
X50197Y30759D02*
X51150D01*
X42323Y36417D02*
X42400Y36494D01*
X42624Y36718D02*
Y45993D01*
X42400Y36494D02*
X42624Y36718D01*
D37*
X51905Y92520D02*
X56156Y96770D01*
X45570Y86185D02*
X51905Y92520D01*
X56156Y96770D02*
X60195D01*
X66772Y103347D01*
X45570Y79626D02*
Y86185D01*
X15748Y92520D02*
X51905D01*
D38*
X92008Y10827D02*
D03*
X82008D02*
D03*
X72008D02*
D03*
X62008D02*
D03*
X52008D02*
D03*
X42008D02*
D03*
D39*
X7874Y64646D02*
D03*
Y74646D02*
D03*
Y84646D02*
D03*
X110079Y10827D02*
D03*
X120079D02*
D03*
X131890Y72835D02*
D03*
Y62835D02*
D03*
X107205Y82835D02*
D03*
X117205D02*
D03*
X107205Y72835D02*
D03*
X117205D02*
D03*
X107205Y62835D02*
D03*
X66772Y103347D02*
D03*
X76772D02*
D03*
X114331D02*
D03*
X104331D02*
D03*
D40*
X7874Y94646D02*
D03*
X131890Y82835D02*
D03*
X117205Y62835D02*
D03*
D41*
X130079Y10827D02*
D03*
X86772Y103347D02*
D03*
X124331D02*
D03*
D42*
X7874Y109252D02*
D03*
D43*
X54134Y87598D02*
D03*
X24100Y107583D02*
D03*
X81693Y30512D02*
D03*
X63930Y68898D02*
D03*
X60528Y62771D02*
D03*
X92200Y29283D02*
D03*
X82700Y87383D02*
D03*
X77756Y84083D02*
D03*
X82677Y95472D02*
D03*
X58800Y30144D02*
D03*
X72900Y36083D02*
D03*
X63231Y56230D02*
D03*
X42323Y36417D02*
D03*
X64395Y23489D02*
D03*
D44*
X15748Y92520D02*
D03*
X90551Y79724D02*
D03*
M02*
