G04*
G04 #@! TF.GenerationSoftware,Altium Limited,Altium Designer,23.7.1 (13)*
G04*
G04 Layer_Color=32896*
%FSLAX25Y25*%
%MOIN*%
G70*
G04*
G04 #@! TF.SameCoordinates,2AD03240-4C21-4CDD-82D0-605F0999EC7E*
G04*
G04*
G04 #@! TF.FilePolarity,Positive*
G04*
G01*
G75*
%ADD10C,0.00787*%
G36*
X125271Y46953D02*
X125341Y46946D01*
X125406Y46938D01*
X125468Y46924D01*
X125526Y46905D01*
X125581Y46887D01*
X125632Y46869D01*
X125679Y46847D01*
X125719Y46829D01*
X125759Y46811D01*
X125788Y46793D01*
X125818Y46775D01*
X125836Y46760D01*
X125854Y46753D01*
X125861Y46745D01*
X125865Y46742D01*
X125916Y46698D01*
X125960Y46654D01*
X125999Y46603D01*
X126040Y46552D01*
X126105Y46450D01*
X126156Y46349D01*
X126178Y46301D01*
X126196Y46258D01*
X126211Y46218D01*
X126222Y46185D01*
X126233Y46156D01*
X126240Y46134D01*
X126243Y46119D01*
Y46116D01*
X125909Y46032D01*
X125894Y46090D01*
X125876Y46145D01*
X125857Y46196D01*
X125839Y46243D01*
X125818Y46287D01*
X125796Y46323D01*
X125770Y46360D01*
X125748Y46392D01*
X125730Y46421D01*
X125708Y46443D01*
X125690Y46465D01*
X125675Y46483D01*
X125661Y46494D01*
X125650Y46505D01*
X125646Y46509D01*
X125643Y46512D01*
X125606Y46542D01*
X125566Y46563D01*
X125486Y46603D01*
X125410Y46633D01*
X125333Y46651D01*
X125268Y46665D01*
X125242Y46669D01*
X125217D01*
X125195Y46673D01*
X125170D01*
X125086Y46669D01*
X125006Y46654D01*
X124933Y46636D01*
X124867Y46614D01*
X124817Y46593D01*
X124795Y46582D01*
X124776Y46574D01*
X124762Y46567D01*
X124751Y46560D01*
X124744Y46556D01*
X124740D01*
X124671Y46505D01*
X124613Y46450D01*
X124562Y46389D01*
X124522Y46330D01*
X124489Y46279D01*
X124467Y46236D01*
X124460Y46218D01*
X124452Y46207D01*
X124449Y46199D01*
Y46196D01*
X124420Y46101D01*
X124398Y46006D01*
X124380Y45912D01*
X124369Y45824D01*
X124365Y45784D01*
X124362Y45748D01*
Y45715D01*
X124358Y45690D01*
Y45668D01*
Y45650D01*
Y45639D01*
Y45635D01*
X124362Y45540D01*
X124369Y45453D01*
X124383Y45373D01*
X124398Y45300D01*
X124409Y45238D01*
X124416Y45213D01*
X124423Y45191D01*
X124427Y45173D01*
X124431Y45162D01*
X124434Y45155D01*
Y45151D01*
X124471Y45067D01*
X124511Y44991D01*
X124554Y44929D01*
X124602Y44874D01*
X124642Y44831D01*
X124674Y44802D01*
X124700Y44783D01*
X124704Y44776D01*
X124707D01*
X124784Y44729D01*
X124867Y44692D01*
X124948Y44667D01*
X125024Y44652D01*
X125093Y44641D01*
X125122Y44638D01*
X125148D01*
X125166Y44634D01*
X125195D01*
X125286Y44638D01*
X125370Y44652D01*
X125439Y44674D01*
X125501Y44696D01*
X125548Y44721D01*
X125584Y44740D01*
X125606Y44754D01*
X125614Y44761D01*
X125672Y44816D01*
X125726Y44878D01*
X125770Y44943D01*
X125807Y45009D01*
X125836Y45067D01*
X125847Y45096D01*
X125854Y45118D01*
X125861Y45136D01*
X125868Y45151D01*
X125872Y45158D01*
Y45162D01*
X126200Y45085D01*
X126178Y45020D01*
X126156Y44962D01*
X126127Y44907D01*
X126101Y44853D01*
X126072Y44805D01*
X126040Y44761D01*
X126010Y44718D01*
X125981Y44682D01*
X125952Y44652D01*
X125927Y44623D01*
X125901Y44598D01*
X125883Y44580D01*
X125865Y44561D01*
X125850Y44550D01*
X125843Y44547D01*
X125839Y44543D01*
X125788Y44510D01*
X125737Y44478D01*
X125687Y44452D01*
X125632Y44430D01*
X125523Y44398D01*
X125424Y44376D01*
X125377Y44365D01*
X125337Y44361D01*
X125297Y44357D01*
X125264Y44354D01*
X125239Y44350D01*
X125202D01*
X125082Y44357D01*
X124966Y44376D01*
X124864Y44398D01*
X124817Y44412D01*
X124773Y44427D01*
X124733Y44441D01*
X124696Y44456D01*
X124667Y44467D01*
X124638Y44478D01*
X124620Y44488D01*
X124605Y44496D01*
X124594Y44499D01*
X124591Y44503D01*
X124493Y44565D01*
X124409Y44638D01*
X124336Y44711D01*
X124274Y44783D01*
X124227Y44849D01*
X124209Y44878D01*
X124194Y44903D01*
X124179Y44922D01*
X124172Y44936D01*
X124169Y44947D01*
X124165Y44951D01*
X124114Y45064D01*
X124078Y45180D01*
X124052Y45297D01*
X124034Y45402D01*
X124027Y45450D01*
X124023Y45497D01*
X124019Y45533D01*
Y45570D01*
X124016Y45595D01*
Y45617D01*
Y45632D01*
Y45635D01*
X124023Y45766D01*
X124038Y45894D01*
X124056Y46006D01*
X124070Y46061D01*
X124081Y46108D01*
X124092Y46152D01*
X124107Y46192D01*
X124118Y46229D01*
X124125Y46258D01*
X124136Y46279D01*
X124139Y46298D01*
X124147Y46309D01*
Y46312D01*
X124201Y46421D01*
X124263Y46520D01*
X124329Y46603D01*
X124362Y46636D01*
X124391Y46669D01*
X124420Y46698D01*
X124449Y46723D01*
X124474Y46745D01*
X124496Y46760D01*
X124511Y46775D01*
X124525Y46785D01*
X124533Y46789D01*
X124536Y46793D01*
X124587Y46822D01*
X124638Y46847D01*
X124747Y46887D01*
X124856Y46916D01*
X124962Y46935D01*
X125013Y46942D01*
X125057Y46949D01*
X125097Y46953D01*
X125129D01*
X125159Y46957D01*
X125199D01*
X125271Y46953D01*
D02*
G37*
G36*
X128154Y46614D02*
X126913D01*
X126957Y46552D01*
X126979Y46527D01*
X126997Y46501D01*
X127015Y46480D01*
X127030Y46465D01*
X127041Y46454D01*
X127044Y46450D01*
X127062Y46432D01*
X127084Y46414D01*
X127135Y46367D01*
X127193Y46312D01*
X127255Y46258D01*
X127313Y46210D01*
X127339Y46188D01*
X127361Y46167D01*
X127379Y46152D01*
X127394Y46141D01*
X127401Y46134D01*
X127404Y46130D01*
X127463Y46079D01*
X127521Y46032D01*
X127572Y45985D01*
X127619Y45944D01*
X127663Y45904D01*
X127699Y45868D01*
X127736Y45835D01*
X127765Y45806D01*
X127794Y45777D01*
X127816Y45755D01*
X127834Y45737D01*
X127852Y45719D01*
X127871Y45697D01*
X127878Y45690D01*
X127929Y45628D01*
X127972Y45573D01*
X128009Y45519D01*
X128038Y45475D01*
X128060Y45435D01*
X128074Y45406D01*
X128082Y45388D01*
X128085Y45380D01*
X128107Y45326D01*
X128122Y45271D01*
X128136Y45220D01*
X128144Y45177D01*
X128147Y45136D01*
X128151Y45107D01*
Y45089D01*
Y45082D01*
X128147Y45027D01*
X128140Y44976D01*
X128132Y44925D01*
X128118Y44882D01*
X128082Y44794D01*
X128045Y44725D01*
X128023Y44692D01*
X128005Y44667D01*
X127987Y44641D01*
X127969Y44623D01*
X127954Y44609D01*
X127947Y44594D01*
X127940Y44590D01*
X127936Y44587D01*
X127896Y44550D01*
X127852Y44518D01*
X127805Y44492D01*
X127758Y44470D01*
X127663Y44434D01*
X127568Y44409D01*
X127528Y44401D01*
X127488Y44394D01*
X127452Y44390D01*
X127423Y44387D01*
X127397Y44383D01*
X127361D01*
X127295Y44387D01*
X127234Y44390D01*
X127175Y44401D01*
X127121Y44412D01*
X127070Y44427D01*
X127022Y44441D01*
X126979Y44459D01*
X126939Y44478D01*
X126902Y44496D01*
X126873Y44514D01*
X126848Y44529D01*
X126826Y44543D01*
X126808Y44554D01*
X126797Y44565D01*
X126789Y44569D01*
X126786Y44572D01*
X126749Y44609D01*
X126717Y44649D01*
X126684Y44692D01*
X126658Y44736D01*
X126615Y44823D01*
X126585Y44911D01*
X126575Y44951D01*
X126564Y44991D01*
X126556Y45024D01*
X126549Y45053D01*
X126546Y45078D01*
Y45096D01*
X126542Y45107D01*
Y45111D01*
X126858Y45144D01*
X126866Y45060D01*
X126880Y44987D01*
X126902Y44922D01*
X126928Y44871D01*
X126950Y44827D01*
X126971Y44798D01*
X126986Y44780D01*
X126993Y44772D01*
X127048Y44729D01*
X127106Y44696D01*
X127168Y44671D01*
X127223Y44656D01*
X127273Y44645D01*
X127317Y44641D01*
X127332Y44638D01*
X127354D01*
X127430Y44641D01*
X127499Y44656D01*
X127557Y44678D01*
X127608Y44700D01*
X127648Y44725D01*
X127674Y44743D01*
X127692Y44758D01*
X127699Y44765D01*
X127743Y44816D01*
X127776Y44867D01*
X127801Y44918D01*
X127816Y44969D01*
X127827Y45009D01*
X127830Y45046D01*
X127834Y45067D01*
Y45071D01*
Y45075D01*
X127827Y45140D01*
X127812Y45209D01*
X127787Y45271D01*
X127761Y45329D01*
X127732Y45377D01*
X127707Y45417D01*
X127699Y45431D01*
X127692Y45442D01*
X127685Y45446D01*
Y45450D01*
X127656Y45490D01*
X127619Y45530D01*
X127579Y45573D01*
X127536Y45617D01*
X127445Y45704D01*
X127354Y45792D01*
X127306Y45832D01*
X127266Y45868D01*
X127226Y45901D01*
X127193Y45930D01*
X127168Y45952D01*
X127146Y45970D01*
X127131Y45981D01*
X127128Y45985D01*
X127037Y46061D01*
X126953Y46134D01*
X126884Y46199D01*
X126829Y46254D01*
X126782Y46301D01*
X126749Y46334D01*
X126731Y46356D01*
X126724Y46360D01*
Y46363D01*
X126673Y46425D01*
X126633Y46483D01*
X126596Y46542D01*
X126567Y46593D01*
X126546Y46636D01*
X126531Y46669D01*
X126524Y46691D01*
X126520Y46694D01*
Y46698D01*
X126505Y46738D01*
X126498Y46775D01*
X126491Y46811D01*
X126487Y46844D01*
X126484Y46873D01*
Y46895D01*
Y46909D01*
Y46913D01*
X128154D01*
Y46614D01*
D02*
G37*
G36*
X125271Y31205D02*
X125341Y31198D01*
X125406Y31190D01*
X125468Y31176D01*
X125526Y31157D01*
X125581Y31139D01*
X125632Y31121D01*
X125679Y31099D01*
X125719Y31081D01*
X125759Y31063D01*
X125788Y31045D01*
X125818Y31026D01*
X125836Y31012D01*
X125854Y31005D01*
X125861Y30997D01*
X125865Y30994D01*
X125916Y30950D01*
X125959Y30906D01*
X125999Y30855D01*
X126040Y30804D01*
X126105Y30702D01*
X126156Y30601D01*
X126178Y30553D01*
X126196Y30510D01*
X126211Y30470D01*
X126222Y30437D01*
X126232Y30408D01*
X126240Y30386D01*
X126243Y30371D01*
Y30368D01*
X125909Y30284D01*
X125894Y30342D01*
X125876Y30397D01*
X125857Y30448D01*
X125839Y30495D01*
X125818Y30539D01*
X125796Y30575D01*
X125770Y30612D01*
X125748Y30644D01*
X125730Y30673D01*
X125708Y30695D01*
X125690Y30717D01*
X125675Y30735D01*
X125661Y30746D01*
X125650Y30757D01*
X125646Y30761D01*
X125643Y30764D01*
X125606Y30793D01*
X125566Y30815D01*
X125486Y30855D01*
X125410Y30885D01*
X125333Y30903D01*
X125268Y30917D01*
X125242Y30921D01*
X125217D01*
X125195Y30924D01*
X125170D01*
X125086Y30921D01*
X125006Y30906D01*
X124933Y30888D01*
X124867Y30866D01*
X124817Y30844D01*
X124795Y30834D01*
X124776Y30826D01*
X124762Y30819D01*
X124751Y30812D01*
X124744Y30808D01*
X124740D01*
X124671Y30757D01*
X124613Y30702D01*
X124562Y30641D01*
X124522Y30582D01*
X124489Y30531D01*
X124467Y30488D01*
X124460Y30470D01*
X124452Y30459D01*
X124449Y30451D01*
Y30448D01*
X124420Y30353D01*
X124398Y30258D01*
X124380Y30164D01*
X124369Y30076D01*
X124365Y30036D01*
X124362Y30000D01*
Y29967D01*
X124358Y29942D01*
Y29920D01*
Y29902D01*
Y29891D01*
Y29887D01*
X124362Y29792D01*
X124369Y29705D01*
X124383Y29625D01*
X124398Y29552D01*
X124409Y29490D01*
X124416Y29465D01*
X124423Y29443D01*
X124427Y29425D01*
X124431Y29414D01*
X124434Y29407D01*
Y29403D01*
X124471Y29319D01*
X124511Y29243D01*
X124554Y29181D01*
X124602Y29126D01*
X124642Y29083D01*
X124674Y29054D01*
X124700Y29035D01*
X124704Y29028D01*
X124707D01*
X124784Y28981D01*
X124867Y28944D01*
X124948Y28919D01*
X125024Y28904D01*
X125093Y28893D01*
X125122Y28890D01*
X125148D01*
X125166Y28886D01*
X125195D01*
X125286Y28890D01*
X125370Y28904D01*
X125439Y28926D01*
X125501Y28948D01*
X125548Y28973D01*
X125584Y28992D01*
X125606Y29006D01*
X125614Y29013D01*
X125672Y29068D01*
X125726Y29130D01*
X125770Y29195D01*
X125806Y29261D01*
X125836Y29319D01*
X125847Y29348D01*
X125854Y29370D01*
X125861Y29388D01*
X125868Y29403D01*
X125872Y29410D01*
Y29414D01*
X126200Y29337D01*
X126178Y29272D01*
X126156Y29214D01*
X126127Y29159D01*
X126101Y29105D01*
X126072Y29057D01*
X126040Y29013D01*
X126010Y28970D01*
X125981Y28933D01*
X125952Y28904D01*
X125927Y28875D01*
X125901Y28850D01*
X125883Y28831D01*
X125865Y28813D01*
X125850Y28802D01*
X125843Y28799D01*
X125839Y28795D01*
X125788Y28762D01*
X125737Y28730D01*
X125686Y28704D01*
X125632Y28682D01*
X125523Y28650D01*
X125424Y28628D01*
X125377Y28617D01*
X125337Y28613D01*
X125297Y28609D01*
X125264Y28606D01*
X125239Y28602D01*
X125202D01*
X125082Y28609D01*
X124966Y28628D01*
X124864Y28650D01*
X124817Y28664D01*
X124773Y28679D01*
X124733Y28693D01*
X124696Y28708D01*
X124667Y28719D01*
X124638Y28730D01*
X124620Y28741D01*
X124605Y28748D01*
X124594Y28751D01*
X124591Y28755D01*
X124493Y28817D01*
X124409Y28890D01*
X124336Y28962D01*
X124274Y29035D01*
X124227Y29101D01*
X124209Y29130D01*
X124194Y29155D01*
X124179Y29174D01*
X124172Y29188D01*
X124169Y29199D01*
X124165Y29203D01*
X124114Y29316D01*
X124077Y29432D01*
X124052Y29549D01*
X124034Y29654D01*
X124027Y29702D01*
X124023Y29749D01*
X124019Y29785D01*
Y29822D01*
X124016Y29847D01*
Y29869D01*
Y29884D01*
Y29887D01*
X124023Y30018D01*
X124038Y30145D01*
X124056Y30258D01*
X124070Y30313D01*
X124081Y30360D01*
X124092Y30404D01*
X124107Y30444D01*
X124118Y30480D01*
X124125Y30510D01*
X124136Y30531D01*
X124139Y30550D01*
X124147Y30560D01*
Y30564D01*
X124201Y30673D01*
X124263Y30772D01*
X124329Y30855D01*
X124362Y30888D01*
X124391Y30921D01*
X124420Y30950D01*
X124449Y30975D01*
X124474Y30997D01*
X124496Y31012D01*
X124511Y31026D01*
X124525Y31037D01*
X124532Y31041D01*
X124536Y31045D01*
X124587Y31074D01*
X124638Y31099D01*
X124747Y31139D01*
X124856Y31168D01*
X124962Y31187D01*
X125013Y31194D01*
X125057Y31201D01*
X125097Y31205D01*
X125129D01*
X125159Y31208D01*
X125199D01*
X125271Y31205D01*
D02*
G37*
G36*
X127692Y28635D02*
X127492D01*
X127455Y28697D01*
X127415Y28755D01*
X127368Y28813D01*
X127324Y28864D01*
X127281Y28908D01*
X127248Y28944D01*
X127233Y28955D01*
X127223Y28966D01*
X127219Y28970D01*
X127215Y28973D01*
X127139Y29035D01*
X127062Y29094D01*
X126990Y29144D01*
X126917Y29185D01*
X126855Y29221D01*
X126829Y29236D01*
X126807Y29247D01*
X126789Y29257D01*
X126775Y29261D01*
X126768Y29268D01*
X126764D01*
Y29567D01*
X126819Y29545D01*
X126873Y29520D01*
X126928Y29494D01*
X126979Y29469D01*
X127022Y29447D01*
X127059Y29428D01*
X127081Y29414D01*
X127084Y29410D01*
X127088D01*
X127153Y29370D01*
X127212Y29330D01*
X127263Y29294D01*
X127303Y29261D01*
X127339Y29236D01*
X127361Y29214D01*
X127379Y29199D01*
X127383Y29195D01*
Y31165D01*
X127692D01*
Y28635D01*
D02*
G37*
G36*
X33465Y91579D02*
X33130D01*
Y92697D01*
X32700D01*
X32660Y92693D01*
X32631D01*
X32606Y92689D01*
X32587Y92686D01*
X32573D01*
X32566Y92682D01*
X32562D01*
X32504Y92664D01*
X32478Y92653D01*
X32456Y92642D01*
X32434Y92631D01*
X32420Y92624D01*
X32413Y92620D01*
X32409Y92616D01*
X32380Y92595D01*
X32351Y92569D01*
X32296Y92514D01*
X32271Y92489D01*
X32252Y92467D01*
X32242Y92453D01*
X32238Y92449D01*
X32201Y92398D01*
X32162Y92343D01*
X32122Y92285D01*
X32081Y92231D01*
X32049Y92180D01*
X32023Y92140D01*
X32012Y92125D01*
X32005Y92114D01*
X31998Y92107D01*
Y92103D01*
X31666Y91579D01*
X31251D01*
X31685Y92263D01*
X31736Y92336D01*
X31783Y92402D01*
X31830Y92456D01*
X31870Y92507D01*
X31907Y92544D01*
X31936Y92573D01*
X31954Y92591D01*
X31961Y92598D01*
X31990Y92620D01*
X32023Y92646D01*
X32089Y92686D01*
X32118Y92700D01*
X32140Y92715D01*
X32154Y92722D01*
X32162Y92726D01*
X32096Y92737D01*
X32034Y92747D01*
X31980Y92766D01*
X31925Y92780D01*
X31878Y92799D01*
X31834Y92820D01*
X31794Y92839D01*
X31758Y92857D01*
X31728Y92879D01*
X31699Y92897D01*
X31677Y92911D01*
X31659Y92926D01*
X31645Y92937D01*
X31634Y92948D01*
X31630Y92951D01*
X31626Y92955D01*
X31597Y92991D01*
X31568Y93028D01*
X31525Y93104D01*
X31495Y93181D01*
X31473Y93253D01*
X31459Y93315D01*
X31455Y93341D01*
Y93366D01*
X31452Y93384D01*
Y93399D01*
Y93406D01*
Y93410D01*
X31455Y93486D01*
X31466Y93556D01*
X31484Y93621D01*
X31503Y93676D01*
X31525Y93723D01*
X31539Y93759D01*
X31554Y93781D01*
X31557Y93785D01*
Y93788D01*
X31601Y93847D01*
X31645Y93898D01*
X31692Y93941D01*
X31736Y93974D01*
X31776Y94000D01*
X31808Y94014D01*
X31830Y94025D01*
X31834Y94029D01*
X31837D01*
X31870Y94040D01*
X31910Y94051D01*
X31990Y94069D01*
X32078Y94080D01*
X32158Y94091D01*
X32234Y94094D01*
X32267D01*
X32296Y94098D01*
X33465D01*
Y91579D01*
D02*
G37*
G36*
X30924D02*
X29042D01*
Y91878D01*
X30589D01*
Y92733D01*
X29195D01*
Y93031D01*
X30589D01*
Y93800D01*
X29100D01*
Y94098D01*
X30924D01*
Y91579D01*
D02*
G37*
G36*
X27808Y94138D02*
X27892Y94127D01*
X27972Y94112D01*
X28041Y94098D01*
X28096Y94083D01*
X28121Y94076D01*
X28139Y94069D01*
X28154Y94061D01*
X28165Y94058D01*
X28172Y94054D01*
X28176D01*
X28249Y94018D01*
X28314Y93978D01*
X28369Y93934D01*
X28412Y93894D01*
X28445Y93858D01*
X28471Y93829D01*
X28489Y93807D01*
X28492Y93803D01*
Y93800D01*
X28529Y93738D01*
X28554Y93676D01*
X28572Y93614D01*
X28583Y93559D01*
X28591Y93512D01*
X28598Y93476D01*
Y93461D01*
Y93450D01*
Y93446D01*
Y93443D01*
X28594Y93381D01*
X28583Y93323D01*
X28569Y93268D01*
X28554Y93221D01*
X28540Y93184D01*
X28525Y93155D01*
X28514Y93137D01*
X28511Y93130D01*
X28474Y93079D01*
X28431Y93031D01*
X28387Y92991D01*
X28343Y92959D01*
X28307Y92930D01*
X28274Y92911D01*
X28252Y92897D01*
X28249Y92893D01*
X28245D01*
X28216Y92879D01*
X28183Y92864D01*
X28110Y92839D01*
X28027Y92813D01*
X27946Y92787D01*
X27874Y92766D01*
X27841Y92758D01*
X27812Y92751D01*
X27790Y92744D01*
X27772Y92740D01*
X27761Y92737D01*
X27757D01*
X27695Y92722D01*
X27637Y92708D01*
X27586Y92693D01*
X27542Y92682D01*
X27499Y92671D01*
X27462Y92660D01*
X27430Y92653D01*
X27404Y92642D01*
X27378Y92635D01*
X27360Y92631D01*
X27331Y92620D01*
X27313Y92616D01*
X27309Y92613D01*
X27255Y92591D01*
X27207Y92566D01*
X27167Y92540D01*
X27138Y92518D01*
X27113Y92496D01*
X27098Y92482D01*
X27087Y92471D01*
X27084Y92467D01*
X27058Y92435D01*
X27040Y92398D01*
X27029Y92362D01*
X27018Y92333D01*
X27014Y92303D01*
X27011Y92282D01*
Y92263D01*
Y92260D01*
X27014Y92216D01*
X27022Y92176D01*
X27033Y92140D01*
X27047Y92111D01*
X27062Y92081D01*
X27073Y92063D01*
X27080Y92049D01*
X27084Y92045D01*
X27113Y92009D01*
X27149Y91979D01*
X27186Y91954D01*
X27218Y91928D01*
X27251Y91914D01*
X27277Y91899D01*
X27295Y91892D01*
X27302Y91888D01*
X27357Y91870D01*
X27415Y91856D01*
X27473Y91848D01*
X27524Y91841D01*
X27568Y91838D01*
X27604Y91834D01*
X27637D01*
X27717Y91838D01*
X27790Y91845D01*
X27855Y91856D01*
X27914Y91870D01*
X27961Y91885D01*
X27997Y91896D01*
X28008Y91899D01*
X28019Y91903D01*
X28023Y91907D01*
X28027D01*
X28085Y91936D01*
X28139Y91969D01*
X28179Y92001D01*
X28216Y92034D01*
X28245Y92060D01*
X28263Y92085D01*
X28274Y92100D01*
X28278Y92103D01*
X28303Y92150D01*
X28329Y92202D01*
X28343Y92256D01*
X28358Y92303D01*
X28369Y92351D01*
X28376Y92383D01*
Y92398D01*
X28379Y92409D01*
Y92413D01*
Y92416D01*
X28693Y92387D01*
X28685Y92296D01*
X28671Y92209D01*
X28649Y92132D01*
X28623Y92063D01*
X28598Y92009D01*
X28587Y91987D01*
X28580Y91969D01*
X28569Y91954D01*
X28565Y91943D01*
X28558Y91936D01*
Y91932D01*
X28503Y91863D01*
X28445Y91801D01*
X28383Y91750D01*
X28325Y91707D01*
X28274Y91674D01*
X28230Y91652D01*
X28216Y91645D01*
X28205Y91637D01*
X28198Y91634D01*
X28194D01*
X28103Y91601D01*
X28008Y91575D01*
X27914Y91561D01*
X27823Y91546D01*
X27779Y91543D01*
X27742Y91539D01*
X27710D01*
X27681Y91535D01*
X27622D01*
X27524Y91539D01*
X27433Y91550D01*
X27349Y91568D01*
X27280Y91586D01*
X27222Y91601D01*
X27196Y91612D01*
X27175Y91619D01*
X27160Y91626D01*
X27149Y91630D01*
X27142Y91634D01*
X27138D01*
X27062Y91674D01*
X26996Y91717D01*
X26938Y91765D01*
X26891Y91808D01*
X26854Y91845D01*
X26829Y91878D01*
X26811Y91899D01*
X26807Y91903D01*
Y91907D01*
X26767Y91976D01*
X26738Y92041D01*
X26720Y92103D01*
X26705Y92162D01*
X26698Y92212D01*
X26691Y92252D01*
Y92267D01*
Y92278D01*
Y92282D01*
Y92285D01*
X26694Y92358D01*
X26705Y92427D01*
X26723Y92489D01*
X26741Y92540D01*
X26763Y92584D01*
X26778Y92616D01*
X26792Y92635D01*
X26796Y92642D01*
X26840Y92697D01*
X26891Y92747D01*
X26945Y92791D01*
X27000Y92831D01*
X27047Y92860D01*
X27087Y92882D01*
X27102Y92889D01*
X27113Y92897D01*
X27120Y92900D01*
X27124D01*
X27153Y92915D01*
X27189Y92926D01*
X27229Y92940D01*
X27273Y92955D01*
X27364Y92980D01*
X27459Y93006D01*
X27502Y93017D01*
X27542Y93028D01*
X27582Y93039D01*
X27615Y93046D01*
X27641Y93053D01*
X27663Y93057D01*
X27677Y93061D01*
X27681D01*
X27753Y93079D01*
X27819Y93093D01*
X27877Y93111D01*
X27928Y93126D01*
X27975Y93144D01*
X28016Y93159D01*
X28052Y93173D01*
X28085Y93184D01*
X28110Y93199D01*
X28132Y93210D01*
X28147Y93217D01*
X28161Y93228D01*
X28179Y93239D01*
X28183Y93243D01*
X28216Y93279D01*
X28238Y93315D01*
X28256Y93352D01*
X28267Y93388D01*
X28274Y93417D01*
X28278Y93443D01*
Y93457D01*
Y93465D01*
X28270Y93523D01*
X28256Y93574D01*
X28234Y93617D01*
X28209Y93657D01*
X28187Y93687D01*
X28165Y93712D01*
X28150Y93727D01*
X28143Y93730D01*
X28114Y93748D01*
X28085Y93767D01*
X28016Y93796D01*
X27943Y93814D01*
X27870Y93829D01*
X27804Y93836D01*
X27775Y93840D01*
X27753Y93843D01*
X27703D01*
X27601Y93840D01*
X27510Y93825D01*
X27437Y93803D01*
X27375Y93781D01*
X27328Y93759D01*
X27291Y93738D01*
X27273Y93723D01*
X27266Y93719D01*
X27215Y93668D01*
X27175Y93614D01*
X27142Y93556D01*
X27120Y93497D01*
X27106Y93443D01*
X27095Y93403D01*
X27091Y93384D01*
X27087Y93374D01*
Y93366D01*
Y93363D01*
X26767Y93388D01*
X26774Y93468D01*
X26792Y93541D01*
X26811Y93610D01*
X26836Y93668D01*
X26858Y93716D01*
X26876Y93752D01*
X26884Y93763D01*
X26891Y93774D01*
X26894Y93778D01*
Y93781D01*
X26942Y93843D01*
X26993Y93898D01*
X27047Y93945D01*
X27102Y93981D01*
X27149Y94014D01*
X27186Y94032D01*
X27200Y94040D01*
X27211Y94047D01*
X27218Y94051D01*
X27222D01*
X27302Y94080D01*
X27389Y94102D01*
X27470Y94120D01*
X27546Y94131D01*
X27615Y94138D01*
X27641D01*
X27666Y94142D01*
X27713D01*
X27808Y94138D01*
D02*
G37*
G36*
X106860Y41837D02*
X106799Y41800D01*
X106740Y41760D01*
X106682Y41713D01*
X106631Y41669D01*
X106588Y41625D01*
X106551Y41593D01*
X106540Y41578D01*
X106529Y41567D01*
X106526Y41563D01*
X106522Y41560D01*
X106460Y41483D01*
X106402Y41407D01*
X106351Y41334D01*
X106311Y41261D01*
X106274Y41199D01*
X106260Y41174D01*
X106249Y41152D01*
X106238Y41134D01*
X106234Y41119D01*
X106227Y41112D01*
Y41109D01*
X105929D01*
X105950Y41163D01*
X105976Y41218D01*
X106001Y41272D01*
X106027Y41323D01*
X106049Y41367D01*
X106067Y41403D01*
X106081Y41425D01*
X106085Y41429D01*
Y41432D01*
X106125Y41498D01*
X106165Y41556D01*
X106202Y41607D01*
X106234Y41647D01*
X106260Y41684D01*
X106282Y41706D01*
X106296Y41724D01*
X106300Y41727D01*
X104331D01*
Y42037D01*
X106860D01*
Y41837D01*
D02*
G37*
G36*
X106850Y40308D02*
X106107Y39824D01*
X106016Y39765D01*
X105932Y39711D01*
X105856Y39663D01*
X105790Y39623D01*
X105736Y39591D01*
X105714Y39576D01*
X105696Y39565D01*
X105681Y39554D01*
X105670Y39547D01*
X105663Y39543D01*
X105659D01*
X105739Y39500D01*
X105816Y39452D01*
X105889Y39409D01*
X105954Y39369D01*
X106009Y39336D01*
X106030Y39321D01*
X106049Y39307D01*
X106063Y39299D01*
X106074Y39292D01*
X106081Y39285D01*
X106085D01*
X106850Y38790D01*
Y38386D01*
X105397Y39358D01*
X104331D01*
Y39693D01*
X105397D01*
X106850Y40697D01*
Y40308D01*
D02*
G37*
G36*
X24496Y64200D02*
X24576Y64185D01*
X24645Y64163D01*
X24703Y64142D01*
X24750Y64120D01*
X24787Y64098D01*
X24809Y64083D01*
X24816Y64080D01*
X24870Y64029D01*
X24918Y63974D01*
X24954Y63916D01*
X24983Y63858D01*
X25005Y63807D01*
X25020Y63767D01*
X25023Y63752D01*
X25027Y63741D01*
X25031Y63734D01*
Y63730D01*
X25063Y63792D01*
X25096Y63843D01*
X25133Y63887D01*
X25165Y63923D01*
X25194Y63952D01*
X25220Y63974D01*
X25234Y63985D01*
X25242Y63989D01*
X25293Y64018D01*
X25344Y64040D01*
X25395Y64058D01*
X25442Y64069D01*
X25482Y64076D01*
X25511Y64080D01*
X25533D01*
X25540D01*
X25602Y64076D01*
X25664Y64065D01*
X25719Y64051D01*
X25766Y64032D01*
X25806Y64014D01*
X25839Y64000D01*
X25857Y63989D01*
X25864Y63985D01*
X25919Y63949D01*
X25966Y63905D01*
X26006Y63861D01*
X26043Y63818D01*
X26068Y63781D01*
X26090Y63749D01*
X26101Y63727D01*
X26105Y63723D01*
Y63719D01*
X26134Y63654D01*
X26155Y63588D01*
X26174Y63523D01*
X26185Y63465D01*
X26192Y63417D01*
X26195Y63377D01*
Y63286D01*
X26188Y63235D01*
X26170Y63137D01*
X26141Y63053D01*
X26112Y62980D01*
X26094Y62948D01*
X26079Y62922D01*
X26064Y62897D01*
X26050Y62879D01*
X26039Y62864D01*
X26032Y62853D01*
X26028Y62846D01*
X26024Y62842D01*
X25955Y62773D01*
X25879Y62718D01*
X25799Y62675D01*
X25719Y62638D01*
X25649Y62616D01*
X25620Y62606D01*
X25595Y62598D01*
X25573Y62595D01*
X25559Y62591D01*
X25548Y62587D01*
X25544D01*
X25489Y62897D01*
X25569Y62911D01*
X25639Y62933D01*
X25697Y62959D01*
X25744Y62984D01*
X25780Y63010D01*
X25806Y63031D01*
X25824Y63046D01*
X25828Y63050D01*
X25864Y63097D01*
X25893Y63148D01*
X25912Y63195D01*
X25926Y63243D01*
X25933Y63286D01*
X25941Y63319D01*
Y63348D01*
X25937Y63414D01*
X25923Y63472D01*
X25904Y63523D01*
X25886Y63566D01*
X25864Y63599D01*
X25846Y63625D01*
X25831Y63643D01*
X25828Y63647D01*
X25784Y63687D01*
X25737Y63716D01*
X25690Y63734D01*
X25646Y63749D01*
X25606Y63756D01*
X25577Y63763D01*
X25555D01*
X25551D01*
X25548D01*
X25508D01*
X25471Y63756D01*
X25409Y63738D01*
X25355Y63712D01*
X25307Y63683D01*
X25275Y63654D01*
X25249Y63628D01*
X25234Y63610D01*
X25231Y63607D01*
Y63603D01*
X25198Y63541D01*
X25173Y63483D01*
X25154Y63421D01*
X25144Y63366D01*
X25136Y63319D01*
X25129Y63279D01*
Y63232D01*
X25133Y63217D01*
Y63199D01*
X24860Y63162D01*
X24870Y63210D01*
X24878Y63253D01*
X24885Y63290D01*
X24889Y63323D01*
X24892Y63348D01*
Y63381D01*
X24885Y63457D01*
X24870Y63526D01*
X24849Y63588D01*
X24823Y63639D01*
X24798Y63679D01*
X24776Y63708D01*
X24761Y63727D01*
X24754Y63734D01*
X24699Y63781D01*
X24641Y63818D01*
X24583Y63843D01*
X24525Y63858D01*
X24477Y63869D01*
X24437Y63872D01*
X24423Y63876D01*
X24412D01*
X24405D01*
X24401D01*
X24321Y63869D01*
X24248Y63850D01*
X24186Y63829D01*
X24132Y63799D01*
X24088Y63770D01*
X24055Y63749D01*
X24033Y63730D01*
X24026Y63723D01*
X23975Y63665D01*
X23939Y63603D01*
X23913Y63541D01*
X23895Y63483D01*
X23884Y63432D01*
X23880Y63392D01*
X23877Y63377D01*
Y63355D01*
X23880Y63290D01*
X23895Y63228D01*
X23913Y63173D01*
X23935Y63130D01*
X23953Y63093D01*
X23971Y63064D01*
X23986Y63050D01*
X23990Y63042D01*
X24041Y62999D01*
X24099Y62962D01*
X24161Y62929D01*
X24226Y62904D01*
X24281Y62886D01*
X24306Y62879D01*
X24328Y62875D01*
X24346Y62871D01*
X24361Y62868D01*
X24368Y62864D01*
X24372D01*
X24332Y62555D01*
X24274Y62562D01*
X24219Y62573D01*
X24117Y62606D01*
X24030Y62646D01*
X23993Y62667D01*
X23957Y62689D01*
X23924Y62711D01*
X23899Y62733D01*
X23873Y62751D01*
X23855Y62769D01*
X23840Y62780D01*
X23830Y62791D01*
X23822Y62798D01*
X23819Y62802D01*
X23786Y62846D01*
X23753Y62889D01*
X23728Y62933D01*
X23706Y62980D01*
X23669Y63071D01*
X23648Y63159D01*
X23640Y63199D01*
X23633Y63235D01*
X23629Y63268D01*
X23626Y63297D01*
X23622Y63319D01*
Y63352D01*
X23626Y63421D01*
X23633Y63483D01*
X23644Y63545D01*
X23658Y63603D01*
X23677Y63657D01*
X23695Y63705D01*
X23717Y63752D01*
X23739Y63792D01*
X23757Y63832D01*
X23778Y63865D01*
X23797Y63894D01*
X23815Y63916D01*
X23830Y63934D01*
X23840Y63949D01*
X23848Y63956D01*
X23851Y63960D01*
X23895Y64003D01*
X23942Y64040D01*
X23990Y64072D01*
X24037Y64102D01*
X24081Y64123D01*
X24128Y64145D01*
X24215Y64174D01*
X24255Y64182D01*
X24292Y64189D01*
X24325Y64196D01*
X24354Y64200D01*
X24375Y64204D01*
X24394D01*
X24405D01*
X24408D01*
X24496Y64200D01*
D02*
G37*
G36*
X24547Y61932D02*
X24488Y61918D01*
X24434Y61899D01*
X24383Y61881D01*
X24335Y61863D01*
X24292Y61841D01*
X24255Y61819D01*
X24219Y61794D01*
X24186Y61772D01*
X24157Y61754D01*
X24135Y61732D01*
X24113Y61714D01*
X24095Y61699D01*
X24084Y61685D01*
X24073Y61674D01*
X24070Y61670D01*
X24066Y61666D01*
X24037Y61630D01*
X24015Y61590D01*
X23975Y61510D01*
X23946Y61433D01*
X23928Y61357D01*
X23913Y61291D01*
X23910Y61266D01*
Y61241D01*
X23906Y61219D01*
Y61193D01*
X23910Y61110D01*
X23924Y61029D01*
X23942Y60957D01*
X23964Y60891D01*
X23986Y60840D01*
X23997Y60818D01*
X24004Y60800D01*
X24012Y60786D01*
X24019Y60775D01*
X24022Y60767D01*
Y60764D01*
X24073Y60694D01*
X24128Y60636D01*
X24190Y60585D01*
X24248Y60545D01*
X24299Y60513D01*
X24343Y60491D01*
X24361Y60483D01*
X24372Y60476D01*
X24379Y60473D01*
X24383D01*
X24477Y60443D01*
X24572Y60422D01*
X24667Y60403D01*
X24754Y60392D01*
X24794Y60389D01*
X24830Y60385D01*
X24863D01*
X24889Y60382D01*
X24911D01*
X24929D01*
X24940D01*
X24943D01*
X25038Y60385D01*
X25125Y60392D01*
X25205Y60407D01*
X25278Y60422D01*
X25340Y60432D01*
X25366Y60440D01*
X25387Y60447D01*
X25406Y60451D01*
X25416Y60454D01*
X25424Y60458D01*
X25427D01*
X25511Y60494D01*
X25588Y60534D01*
X25649Y60578D01*
X25704Y60625D01*
X25748Y60665D01*
X25777Y60698D01*
X25795Y60724D01*
X25802Y60727D01*
Y60731D01*
X25850Y60807D01*
X25886Y60891D01*
X25912Y60971D01*
X25926Y61048D01*
X25937Y61117D01*
X25941Y61146D01*
Y61171D01*
X25944Y61190D01*
Y61219D01*
X25941Y61310D01*
X25926Y61393D01*
X25904Y61463D01*
X25882Y61524D01*
X25857Y61572D01*
X25839Y61608D01*
X25824Y61630D01*
X25817Y61637D01*
X25762Y61695D01*
X25700Y61750D01*
X25635Y61794D01*
X25569Y61830D01*
X25511Y61859D01*
X25482Y61870D01*
X25460Y61878D01*
X25442Y61885D01*
X25427Y61892D01*
X25420Y61896D01*
X25416D01*
X25493Y62223D01*
X25559Y62201D01*
X25617Y62180D01*
X25671Y62151D01*
X25726Y62125D01*
X25773Y62096D01*
X25817Y62063D01*
X25861Y62034D01*
X25897Y62005D01*
X25926Y61976D01*
X25955Y61950D01*
X25981Y61925D01*
X25999Y61907D01*
X26017Y61888D01*
X26028Y61874D01*
X26032Y61867D01*
X26035Y61863D01*
X26068Y61812D01*
X26101Y61761D01*
X26126Y61710D01*
X26148Y61655D01*
X26181Y61546D01*
X26203Y61448D01*
X26214Y61401D01*
X26217Y61361D01*
X26221Y61321D01*
X26225Y61288D01*
X26228Y61262D01*
Y61226D01*
X26221Y61106D01*
X26203Y60989D01*
X26181Y60887D01*
X26166Y60840D01*
X26152Y60796D01*
X26137Y60756D01*
X26123Y60720D01*
X26112Y60691D01*
X26101Y60662D01*
X26090Y60644D01*
X26083Y60629D01*
X26079Y60618D01*
X26075Y60614D01*
X26013Y60516D01*
X25941Y60432D01*
X25868Y60360D01*
X25795Y60298D01*
X25730Y60250D01*
X25700Y60232D01*
X25675Y60218D01*
X25657Y60203D01*
X25642Y60196D01*
X25631Y60192D01*
X25628Y60189D01*
X25515Y60138D01*
X25398Y60101D01*
X25282Y60076D01*
X25176Y60057D01*
X25129Y60050D01*
X25082Y60047D01*
X25045Y60043D01*
X25009D01*
X24983Y60039D01*
X24961D01*
X24947D01*
X24943D01*
X24812Y60047D01*
X24685Y60061D01*
X24572Y60079D01*
X24517Y60094D01*
X24470Y60105D01*
X24426Y60116D01*
X24386Y60130D01*
X24350Y60141D01*
X24321Y60149D01*
X24299Y60159D01*
X24281Y60163D01*
X24270Y60170D01*
X24266D01*
X24157Y60225D01*
X24059Y60287D01*
X23975Y60352D01*
X23942Y60385D01*
X23910Y60414D01*
X23880Y60443D01*
X23855Y60473D01*
X23833Y60498D01*
X23819Y60520D01*
X23804Y60534D01*
X23793Y60549D01*
X23789Y60556D01*
X23786Y60560D01*
X23757Y60611D01*
X23731Y60662D01*
X23691Y60771D01*
X23662Y60880D01*
X23644Y60986D01*
X23637Y61037D01*
X23629Y61080D01*
X23626Y61120D01*
Y61153D01*
X23622Y61182D01*
Y61222D01*
X23626Y61295D01*
X23633Y61364D01*
X23640Y61430D01*
X23655Y61492D01*
X23673Y61550D01*
X23691Y61604D01*
X23709Y61655D01*
X23731Y61703D01*
X23749Y61743D01*
X23768Y61783D01*
X23786Y61812D01*
X23804Y61841D01*
X23819Y61859D01*
X23826Y61878D01*
X23833Y61885D01*
X23837Y61888D01*
X23880Y61939D01*
X23924Y61983D01*
X23975Y62023D01*
X24026Y62063D01*
X24128Y62129D01*
X24230Y62180D01*
X24277Y62201D01*
X24321Y62220D01*
X24361Y62234D01*
X24394Y62245D01*
X24423Y62256D01*
X24445Y62263D01*
X24459Y62267D01*
X24463D01*
X24547Y61932D01*
D02*
G37*
%LPC*%
G36*
X33130Y93818D02*
X32336D01*
X32238Y93814D01*
X32154Y93800D01*
X32081Y93781D01*
X32027Y93759D01*
X31980Y93738D01*
X31950Y93719D01*
X31932Y93705D01*
X31925Y93701D01*
X31881Y93654D01*
X31848Y93607D01*
X31827Y93556D01*
X31808Y93512D01*
X31801Y93468D01*
X31798Y93436D01*
X31794Y93414D01*
Y93410D01*
Y93406D01*
X31798Y93363D01*
X31805Y93319D01*
X31816Y93283D01*
X31827Y93250D01*
X31841Y93221D01*
X31852Y93199D01*
X31859Y93184D01*
X31863Y93181D01*
X31888Y93144D01*
X31921Y93111D01*
X31954Y93086D01*
X31987Y93064D01*
X32016Y93050D01*
X32038Y93039D01*
X32052Y93031D01*
X32060Y93028D01*
X32111Y93013D01*
X32169Y93002D01*
X32227Y92995D01*
X32285Y92991D01*
X32336Y92988D01*
X32380Y92984D01*
X33130D01*
Y93818D01*
D02*
G37*
%LPD*%
D10*
X19291Y102559D02*
X47638D01*
X19291Y80512D02*
Y102559D01*
Y80512D02*
X47638D01*
Y102559D01*
X118783Y43110D02*
Y49410D01*
X129249D01*
Y43110D02*
Y49410D01*
X118783Y43110D02*
X129249D01*
X118783Y27362D02*
Y33662D01*
X129248D01*
Y27362D02*
Y33662D01*
X118783Y27362D02*
X129248D01*
X97244Y26181D02*
X111417D01*
X97244D02*
Y50591D01*
X111417D01*
Y26181D02*
Y50591D01*
X26772Y54807D02*
Y65272D01*
X20472D02*
X26772D01*
X20472Y54807D02*
Y65272D01*
Y54807D02*
X26772D01*
M02*
