G04*
G04 #@! TF.GenerationSoftware,Altium Limited,Altium Designer,23.7.1 (13)*
G04*
G04 Layer_Color=32896*
%FSLAX25Y25*%
%MOIN*%
G70*
G04*
G04 #@! TF.SameCoordinates,2AD03240-4C21-4CDD-82D0-605F0999EC7E*
G04*
G04*
G04 #@! TF.FilePolarity,Positive*
G04*
G01*
G75*
%ADD21C,0.00000*%
G36*
X66338Y24207D02*
X66336Y24206D01*
X66333Y24203D01*
X66328Y24197D01*
X66322Y24189D01*
X66313Y24179D01*
X66302Y24168D01*
X66290Y24153D01*
X66277Y24136D01*
X66265Y24119D01*
X66249Y24099D01*
X66233Y24076D01*
X66217Y24053D01*
X66200Y24027D01*
X66183Y24000D01*
X66166Y23970D01*
X66149Y23940D01*
X66147Y23939D01*
X66144Y23933D01*
X66140Y23924D01*
X66133Y23911D01*
X66126Y23896D01*
X66117Y23879D01*
X66107Y23859D01*
X66097Y23836D01*
X66086Y23810D01*
X66073Y23784D01*
X66062Y23756D01*
X66050Y23726D01*
X66027Y23664D01*
X66006Y23598D01*
Y23597D01*
X66004Y23593D01*
X66003Y23585D01*
X66000Y23577D01*
X65997Y23565D01*
X65994Y23551D01*
X65990Y23535D01*
X65987Y23518D01*
X65983Y23498D01*
X65979Y23477D01*
X65971Y23431D01*
X65964Y23381D01*
X65960Y23327D01*
X65836D01*
Y23328D01*
Y23332D01*
Y23338D01*
X65837Y23347D01*
Y23358D01*
X65838Y23372D01*
X65840Y23388D01*
X65841Y23405D01*
X65844Y23425D01*
X65847Y23445D01*
X65851Y23470D01*
X65856Y23494D01*
X65860Y23520D01*
X65866Y23548D01*
X65880Y23607D01*
Y23608D01*
X65881Y23614D01*
X65884Y23623D01*
X65889Y23636D01*
X65893Y23650D01*
X65899Y23667D01*
X65904Y23687D01*
X65913Y23708D01*
X65921Y23733D01*
X65930Y23757D01*
X65951Y23811D01*
X65977Y23869D01*
X66006Y23926D01*
X66007Y23927D01*
X66010Y23933D01*
X66014Y23940D01*
X66020Y23952D01*
X66027Y23964D01*
X66037Y23980D01*
X66047Y23997D01*
X66059Y24016D01*
X66086Y24057D01*
X66114Y24100D01*
X66147Y24145D01*
X66182Y24186D01*
X65697D01*
Y24303D01*
X66338D01*
Y24207D01*
D02*
G37*
G36*
X65511Y23327D02*
X65372D01*
Y23465D01*
X65511D01*
Y23327D01*
D02*
G37*
G36*
X64886Y24319D02*
X64898Y24318D01*
X64912Y24316D01*
X64928Y24313D01*
X64943Y24310D01*
X64980Y24300D01*
X65018Y24286D01*
X65036Y24278D01*
X65055Y24268D01*
X65072Y24255D01*
X65088Y24240D01*
X65089Y24239D01*
X65092Y24238D01*
X65095Y24232D01*
X65101Y24226D01*
X65108Y24219D01*
X65115Y24209D01*
X65122Y24199D01*
X65131Y24186D01*
X65145Y24159D01*
X65159Y24125D01*
X65165Y24107D01*
X65168Y24087D01*
X65171Y24067D01*
X65172Y24046D01*
Y24043D01*
Y24036D01*
X65171Y24024D01*
X65169Y24009D01*
X65166Y23992D01*
X65161Y23971D01*
X65155Y23950D01*
X65146Y23929D01*
X65145Y23926D01*
X65142Y23919D01*
X65136Y23907D01*
X65128Y23891D01*
X65116Y23874D01*
X65102Y23853D01*
X65085Y23831D01*
X65065Y23807D01*
X65062Y23804D01*
X65055Y23796D01*
X65048Y23788D01*
X65040Y23781D01*
X65032Y23773D01*
X65021Y23761D01*
X65009Y23750D01*
X64995Y23737D01*
X64980Y23723D01*
X64963Y23707D01*
X64945Y23691D01*
X64925Y23673D01*
X64902Y23654D01*
X64879Y23634D01*
X64877Y23633D01*
X64875Y23630D01*
X64869Y23626D01*
X64862Y23620D01*
X64853Y23611D01*
X64843Y23603D01*
X64820Y23584D01*
X64796Y23563D01*
X64773Y23541D01*
X64753Y23523D01*
X64745Y23515D01*
X64737Y23508D01*
X64736Y23507D01*
X64732Y23503D01*
X64726Y23497D01*
X64719Y23488D01*
X64712Y23478D01*
X64703Y23468D01*
X64686Y23444D01*
X65174D01*
Y23327D01*
X64517D01*
Y23328D01*
Y23334D01*
Y23342D01*
X64518Y23354D01*
X64520Y23367D01*
X64523Y23381D01*
X64526Y23395D01*
X64531Y23411D01*
Y23412D01*
X64533Y23414D01*
X64536Y23422D01*
X64541Y23435D01*
X64550Y23452D01*
X64561Y23472D01*
X64576Y23495D01*
X64591Y23518D01*
X64612Y23542D01*
Y23544D01*
X64614Y23545D01*
X64622Y23554D01*
X64634Y23567D01*
X64653Y23585D01*
X64674Y23607D01*
X64702Y23633D01*
X64735Y23661D01*
X64770Y23691D01*
X64772Y23693D01*
X64777Y23697D01*
X64786Y23704D01*
X64796Y23713D01*
X64809Y23724D01*
X64824Y23737D01*
X64840Y23751D01*
X64859Y23767D01*
X64895Y23801D01*
X64930Y23836D01*
X64947Y23853D01*
X64963Y23870D01*
X64978Y23886D01*
X64989Y23901D01*
Y23903D01*
X64992Y23904D01*
X64995Y23909D01*
X64998Y23914D01*
X65008Y23930D01*
X65019Y23949D01*
X65029Y23971D01*
X65039Y23996D01*
X65045Y24023D01*
X65048Y24049D01*
Y24050D01*
Y24052D01*
X65046Y24060D01*
X65045Y24074D01*
X65040Y24090D01*
X65035Y24110D01*
X65025Y24130D01*
X65012Y24150D01*
X64995Y24170D01*
X64992Y24173D01*
X64985Y24179D01*
X64975Y24186D01*
X64959Y24196D01*
X64939Y24205D01*
X64916Y24213D01*
X64889Y24219D01*
X64859Y24220D01*
X64850D01*
X64845Y24219D01*
X64827Y24217D01*
X64807Y24213D01*
X64786Y24207D01*
X64762Y24197D01*
X64739Y24185D01*
X64717Y24168D01*
X64714Y24165D01*
X64709Y24158D01*
X64700Y24146D01*
X64692Y24129D01*
X64682Y24109D01*
X64673Y24083D01*
X64667Y24055D01*
X64664Y24022D01*
X64540Y24035D01*
Y24036D01*
X64541Y24040D01*
Y24047D01*
X64543Y24057D01*
X64546Y24069D01*
X64549Y24082D01*
X64553Y24097D01*
X64557Y24113D01*
X64569Y24147D01*
X64586Y24182D01*
X64596Y24199D01*
X64609Y24216D01*
X64622Y24232D01*
X64636Y24246D01*
X64637Y24248D01*
X64640Y24249D01*
X64644Y24253D01*
X64652Y24258D01*
X64660Y24263D01*
X64670Y24269D01*
X64682Y24276D01*
X64696Y24283D01*
X64712Y24290D01*
X64729Y24298D01*
X64747Y24303D01*
X64767Y24309D01*
X64789Y24313D01*
X64812Y24318D01*
X64836Y24319D01*
X64862Y24320D01*
X64876D01*
X64886Y24319D01*
D02*
G37*
G36*
X64223Y23327D02*
X64101D01*
Y24100D01*
X64100Y24099D01*
X64092Y24093D01*
X64084Y24084D01*
X64069Y24074D01*
X64054Y24062D01*
X64034Y24047D01*
X64011Y24032D01*
X63985Y24016D01*
X63984D01*
X63982Y24014D01*
X63974Y24009D01*
X63959Y24002D01*
X63942Y23993D01*
X63922Y23983D01*
X63901Y23973D01*
X63879Y23963D01*
X63858Y23954D01*
Y24072D01*
X63859D01*
X63862Y24074D01*
X63868Y24076D01*
X63875Y24080D01*
X63884Y24084D01*
X63894Y24090D01*
X63918Y24104D01*
X63946Y24120D01*
X63975Y24140D01*
X64005Y24163D01*
X64035Y24187D01*
X64037Y24189D01*
X64038Y24190D01*
X64042Y24195D01*
X64048Y24199D01*
X64061Y24213D01*
X64078Y24230D01*
X64095Y24250D01*
X64114Y24273D01*
X64130Y24296D01*
X64144Y24320D01*
X64223D01*
Y23327D01*
D02*
G37*
G36*
X67579Y24319D02*
X67597Y24316D01*
X67619Y24312D01*
X67642Y24306D01*
X67666Y24299D01*
X67689Y24288D01*
X67690D01*
X67692Y24286D01*
X67699Y24282D01*
X67710Y24275D01*
X67725Y24265D01*
X67740Y24250D01*
X67757Y24235D01*
X67773Y24216D01*
X67789Y24195D01*
X67790Y24192D01*
X67796Y24185D01*
X67802Y24172D01*
X67812Y24153D01*
X67820Y24132D01*
X67832Y24107D01*
X67842Y24079D01*
X67850Y24047D01*
Y24046D01*
X67852Y24043D01*
X67853Y24039D01*
X67855Y24032D01*
X67856Y24023D01*
X67858Y24013D01*
X67860Y24000D01*
X67862Y23986D01*
X67865Y23970D01*
X67866Y23953D01*
X67868Y23933D01*
X67870Y23913D01*
X67872Y23890D01*
Y23867D01*
X67873Y23841D01*
Y23814D01*
Y23813D01*
Y23807D01*
Y23797D01*
Y23786D01*
X67872Y23770D01*
Y23753D01*
X67870Y23734D01*
X67869Y23714D01*
X67865Y23668D01*
X67858Y23621D01*
X67849Y23575D01*
X67843Y23554D01*
X67836Y23532D01*
Y23531D01*
X67835Y23528D01*
X67832Y23523D01*
X67829Y23515D01*
X67826Y23505D01*
X67820Y23495D01*
X67809Y23471D01*
X67795Y23445D01*
X67776Y23417D01*
X67755Y23391D01*
X67729Y23367D01*
X67727D01*
X67726Y23364D01*
X67722Y23361D01*
X67716Y23358D01*
X67709Y23354D01*
X67702Y23348D01*
X67680Y23338D01*
X67655Y23328D01*
X67624Y23318D01*
X67589Y23312D01*
X67550Y23310D01*
X67536D01*
X67526Y23311D01*
X67514Y23312D01*
X67500Y23315D01*
X67484Y23318D01*
X67467Y23322D01*
X67450Y23328D01*
X67431Y23334D01*
X67413Y23342D01*
X67394Y23352D01*
X67376Y23364D01*
X67357Y23378D01*
X67340Y23394D01*
X67324Y23411D01*
X67323Y23412D01*
X67320Y23417D01*
X67316Y23424D01*
X67308Y23435D01*
X67301Y23448D01*
X67294Y23465D01*
X67284Y23485D01*
X67276Y23508D01*
X67267Y23534D01*
X67258Y23564D01*
X67250Y23597D01*
X67243Y23634D01*
X67235Y23674D01*
X67231Y23717D01*
X67228Y23764D01*
X67227Y23814D01*
Y23816D01*
Y23821D01*
Y23831D01*
Y23843D01*
X67228Y23859D01*
Y23876D01*
X67230Y23894D01*
X67231Y23916D01*
X67235Y23960D01*
X67243Y24007D01*
X67251Y24055D01*
X67257Y24076D01*
X67263Y24097D01*
Y24099D01*
X67264Y24102D01*
X67267Y24107D01*
X67270Y24114D01*
X67273Y24125D01*
X67278Y24135D01*
X67290Y24159D01*
X67304Y24185D01*
X67323Y24212D01*
X67344Y24239D01*
X67370Y24262D01*
X67371D01*
X67373Y24265D01*
X67377Y24268D01*
X67383Y24270D01*
X67390Y24276D01*
X67399Y24280D01*
X67420Y24292D01*
X67446Y24302D01*
X67476Y24312D01*
X67511Y24318D01*
X67550Y24320D01*
X67563D01*
X67579Y24319D01*
D02*
G37*
G36*
X66809D02*
X66828Y24316D01*
X66849Y24312D01*
X66872Y24306D01*
X66897Y24299D01*
X66919Y24288D01*
X66921D01*
X66922Y24286D01*
X66930Y24282D01*
X66941Y24275D01*
X66955Y24265D01*
X66971Y24250D01*
X66988Y24235D01*
X67004Y24216D01*
X67020Y24195D01*
X67021Y24192D01*
X67027Y24185D01*
X67032Y24172D01*
X67042Y24153D01*
X67051Y24132D01*
X67062Y24107D01*
X67072Y24079D01*
X67081Y24047D01*
Y24046D01*
X67083Y24043D01*
X67084Y24039D01*
X67085Y24032D01*
X67087Y24023D01*
X67088Y24013D01*
X67091Y24000D01*
X67093Y23986D01*
X67095Y23970D01*
X67097Y23953D01*
X67098Y23933D01*
X67101Y23913D01*
X67102Y23890D01*
Y23867D01*
X67104Y23841D01*
Y23814D01*
Y23813D01*
Y23807D01*
Y23797D01*
Y23786D01*
X67102Y23770D01*
Y23753D01*
X67101Y23734D01*
X67100Y23714D01*
X67095Y23668D01*
X67088Y23621D01*
X67080Y23575D01*
X67074Y23554D01*
X67067Y23532D01*
Y23531D01*
X67065Y23528D01*
X67062Y23523D01*
X67060Y23515D01*
X67057Y23505D01*
X67051Y23495D01*
X67040Y23471D01*
X67025Y23445D01*
X67007Y23417D01*
X66985Y23391D01*
X66960Y23367D01*
X66958D01*
X66957Y23364D01*
X66952Y23361D01*
X66947Y23358D01*
X66940Y23354D01*
X66932Y23348D01*
X66911Y23338D01*
X66885Y23328D01*
X66855Y23318D01*
X66819Y23312D01*
X66781Y23310D01*
X66767D01*
X66756Y23311D01*
X66745Y23312D01*
X66731Y23315D01*
X66715Y23318D01*
X66698Y23322D01*
X66681Y23328D01*
X66662Y23334D01*
X66644Y23342D01*
X66625Y23352D01*
X66606Y23364D01*
X66588Y23378D01*
X66571Y23394D01*
X66555Y23411D01*
X66553Y23412D01*
X66551Y23417D01*
X66546Y23424D01*
X66539Y23435D01*
X66532Y23448D01*
X66525Y23465D01*
X66515Y23485D01*
X66506Y23508D01*
X66498Y23534D01*
X66489Y23564D01*
X66480Y23597D01*
X66473Y23634D01*
X66466Y23674D01*
X66462Y23717D01*
X66459Y23764D01*
X66458Y23814D01*
Y23816D01*
Y23821D01*
Y23831D01*
Y23843D01*
X66459Y23859D01*
Y23876D01*
X66461Y23894D01*
X66462Y23916D01*
X66466Y23960D01*
X66473Y24007D01*
X66482Y24055D01*
X66488Y24076D01*
X66493Y24097D01*
Y24099D01*
X66495Y24102D01*
X66498Y24107D01*
X66501Y24114D01*
X66503Y24125D01*
X66509Y24135D01*
X66521Y24159D01*
X66535Y24185D01*
X66553Y24212D01*
X66575Y24239D01*
X66601Y24262D01*
X66602D01*
X66603Y24265D01*
X66608Y24268D01*
X66614Y24270D01*
X66621Y24276D01*
X66629Y24280D01*
X66651Y24292D01*
X66676Y24302D01*
X66706Y24312D01*
X66742Y24318D01*
X66781Y24320D01*
X66794D01*
X66809Y24319D01*
D02*
G37*
G36*
X65143Y-5565D02*
X64747D01*
X64694Y-5832D01*
X64696Y-5830D01*
X64699Y-5829D01*
X64703Y-5826D01*
X64710Y-5822D01*
X64719Y-5818D01*
X64729Y-5812D01*
X64752Y-5801D01*
X64780Y-5789D01*
X64812Y-5779D01*
X64846Y-5772D01*
X64863Y-5769D01*
X64895D01*
X64903Y-5770D01*
X64915Y-5772D01*
X64928Y-5773D01*
X64942Y-5776D01*
X64957Y-5780D01*
X64992Y-5790D01*
X65010Y-5798D01*
X65029Y-5808D01*
X65048Y-5818D01*
X65066Y-5829D01*
X65083Y-5843D01*
X65101Y-5859D01*
X65102Y-5861D01*
X65105Y-5863D01*
X65109Y-5868D01*
X65115Y-5875D01*
X65122Y-5885D01*
X65129Y-5895D01*
X65138Y-5908D01*
X65146Y-5922D01*
X65153Y-5938D01*
X65162Y-5955D01*
X65169Y-5975D01*
X65176Y-5995D01*
X65182Y-6016D01*
X65186Y-6041D01*
X65189Y-6065D01*
X65191Y-6091D01*
Y-6092D01*
Y-6097D01*
Y-6104D01*
X65189Y-6114D01*
X65188Y-6125D01*
X65186Y-6138D01*
X65184Y-6154D01*
X65181Y-6169D01*
X65172Y-6207D01*
X65158Y-6245D01*
X65149Y-6265D01*
X65138Y-6284D01*
X65126Y-6304D01*
X65112Y-6322D01*
X65111Y-6324D01*
X65108Y-6328D01*
X65102Y-6334D01*
X65095Y-6341D01*
X65085Y-6350D01*
X65073Y-6361D01*
X65059Y-6371D01*
X65043Y-6382D01*
X65026Y-6394D01*
X65006Y-6404D01*
X64985Y-6414D01*
X64962Y-6424D01*
X64938Y-6431D01*
X64910Y-6437D01*
X64882Y-6441D01*
X64852Y-6442D01*
X64839D01*
X64829Y-6441D01*
X64817Y-6440D01*
X64805Y-6438D01*
X64789Y-6437D01*
X64773Y-6432D01*
X64737Y-6424D01*
X64702Y-6411D01*
X64683Y-6402D01*
X64664Y-6392D01*
X64647Y-6381D01*
X64630Y-6368D01*
X64629Y-6367D01*
X64626Y-6365D01*
X64623Y-6360D01*
X64617Y-6354D01*
X64610Y-6347D01*
X64603Y-6338D01*
X64594Y-6327D01*
X64587Y-6314D01*
X64579Y-6301D01*
X64570Y-6285D01*
X64554Y-6251D01*
X64541Y-6211D01*
X64537Y-6189D01*
X64534Y-6167D01*
X64662Y-6157D01*
Y-6158D01*
Y-6161D01*
X64663Y-6165D01*
X64664Y-6172D01*
X64669Y-6188D01*
X64674Y-6209D01*
X64683Y-6231D01*
X64694Y-6255D01*
X64709Y-6277D01*
X64726Y-6297D01*
X64729Y-6298D01*
X64735Y-6304D01*
X64746Y-6311D01*
X64762Y-6320D01*
X64779Y-6328D01*
X64800Y-6335D01*
X64824Y-6341D01*
X64852Y-6342D01*
X64860D01*
X64866Y-6341D01*
X64883Y-6340D01*
X64903Y-6334D01*
X64928Y-6327D01*
X64952Y-6315D01*
X64978Y-6298D01*
X64989Y-6288D01*
X65000Y-6277D01*
X65002Y-6275D01*
X65003Y-6274D01*
X65006Y-6269D01*
X65010Y-6265D01*
X65021Y-6250D01*
X65032Y-6230D01*
X65042Y-6205D01*
X65052Y-6175D01*
X65059Y-6139D01*
X65062Y-6121D01*
Y-6101D01*
Y-6099D01*
Y-6097D01*
Y-6091D01*
X65061Y-6084D01*
Y-6075D01*
X65059Y-6065D01*
X65055Y-6042D01*
X65048Y-6015D01*
X65038Y-5988D01*
X65023Y-5962D01*
X65003Y-5938D01*
Y-5936D01*
X65000Y-5935D01*
X64993Y-5928D01*
X64980Y-5918D01*
X64963Y-5906D01*
X64940Y-5896D01*
X64915Y-5886D01*
X64885Y-5879D01*
X64867Y-5876D01*
X64840D01*
X64829Y-5878D01*
X64815Y-5879D01*
X64797Y-5883D01*
X64780Y-5888D01*
X64762Y-5895D01*
X64743Y-5903D01*
X64742Y-5905D01*
X64736Y-5908D01*
X64727Y-5915D01*
X64716Y-5922D01*
X64704Y-5932D01*
X64693Y-5945D01*
X64680Y-5958D01*
X64670Y-5974D01*
X64556Y-5958D01*
X64652Y-5449D01*
X65143D01*
Y-5565D01*
D02*
G37*
G36*
X66968Y-6076D02*
X67102D01*
Y-6188D01*
X66968D01*
Y-6425D01*
X66847D01*
Y-6188D01*
X66416D01*
Y-6076D01*
X66869Y-5436D01*
X66968D01*
Y-6076D01*
D02*
G37*
G36*
X66040Y-5433D02*
X66052Y-5434D01*
X66066Y-5436D01*
X66082Y-5439D01*
X66097Y-5441D01*
X66134Y-5452D01*
X66172Y-5466D01*
X66190Y-5474D01*
X66209Y-5484D01*
X66226Y-5497D01*
X66242Y-5512D01*
X66243Y-5513D01*
X66246Y-5514D01*
X66249Y-5520D01*
X66255Y-5526D01*
X66262Y-5533D01*
X66269Y-5543D01*
X66276Y-5553D01*
X66285Y-5566D01*
X66299Y-5593D01*
X66313Y-5627D01*
X66319Y-5645D01*
X66322Y-5665D01*
X66325Y-5685D01*
X66326Y-5706D01*
Y-5709D01*
Y-5716D01*
X66325Y-5728D01*
X66323Y-5743D01*
X66320Y-5760D01*
X66315Y-5780D01*
X66309Y-5802D01*
X66300Y-5823D01*
X66299Y-5826D01*
X66296Y-5833D01*
X66290Y-5845D01*
X66282Y-5861D01*
X66270Y-5878D01*
X66256Y-5899D01*
X66239Y-5921D01*
X66219Y-5945D01*
X66216Y-5948D01*
X66209Y-5956D01*
X66202Y-5963D01*
X66194Y-5971D01*
X66186Y-5979D01*
X66175Y-5991D01*
X66163Y-6002D01*
X66149Y-6015D01*
X66134Y-6029D01*
X66117Y-6045D01*
X66099Y-6061D01*
X66079Y-6079D01*
X66056Y-6098D01*
X66033Y-6118D01*
X66031Y-6119D01*
X66029Y-6122D01*
X66023Y-6126D01*
X66016Y-6132D01*
X66007Y-6141D01*
X65997Y-6149D01*
X65974Y-6168D01*
X65950Y-6189D01*
X65927Y-6211D01*
X65907Y-6230D01*
X65899Y-6237D01*
X65891Y-6244D01*
X65890Y-6245D01*
X65886Y-6250D01*
X65880Y-6255D01*
X65873Y-6264D01*
X65866Y-6274D01*
X65857Y-6284D01*
X65840Y-6308D01*
X66328D01*
Y-6425D01*
X65671D01*
Y-6424D01*
Y-6418D01*
Y-6410D01*
X65672Y-6398D01*
X65674Y-6385D01*
X65677Y-6371D01*
X65680Y-6357D01*
X65685Y-6341D01*
Y-6340D01*
X65687Y-6338D01*
X65690Y-6330D01*
X65695Y-6317D01*
X65704Y-6300D01*
X65715Y-6279D01*
X65730Y-6257D01*
X65746Y-6234D01*
X65766Y-6209D01*
Y-6208D01*
X65768Y-6207D01*
X65776Y-6198D01*
X65788Y-6185D01*
X65807Y-6167D01*
X65828Y-6145D01*
X65856Y-6119D01*
X65889Y-6091D01*
X65924Y-6061D01*
X65926Y-6059D01*
X65931Y-6055D01*
X65940Y-6048D01*
X65950Y-6039D01*
X65963Y-6028D01*
X65979Y-6015D01*
X65994Y-6001D01*
X66013Y-5985D01*
X66049Y-5951D01*
X66084Y-5916D01*
X66101Y-5899D01*
X66117Y-5882D01*
X66132Y-5866D01*
X66143Y-5850D01*
Y-5849D01*
X66146Y-5848D01*
X66149Y-5843D01*
X66152Y-5838D01*
X66162Y-5822D01*
X66173Y-5803D01*
X66183Y-5780D01*
X66193Y-5756D01*
X66199Y-5729D01*
X66202Y-5703D01*
Y-5702D01*
Y-5700D01*
X66200Y-5692D01*
X66199Y-5677D01*
X66194Y-5662D01*
X66189Y-5642D01*
X66179Y-5622D01*
X66166Y-5602D01*
X66149Y-5582D01*
X66146Y-5579D01*
X66139Y-5573D01*
X66129Y-5566D01*
X66113Y-5556D01*
X66093Y-5547D01*
X66070Y-5539D01*
X66043Y-5533D01*
X66013Y-5532D01*
X66004D01*
X65999Y-5533D01*
X65981Y-5534D01*
X65961Y-5539D01*
X65940Y-5545D01*
X65916Y-5554D01*
X65893Y-5567D01*
X65871Y-5584D01*
X65868Y-5587D01*
X65863Y-5595D01*
X65854Y-5606D01*
X65846Y-5623D01*
X65836Y-5643D01*
X65827Y-5669D01*
X65821Y-5697D01*
X65818Y-5730D01*
X65694Y-5717D01*
Y-5716D01*
X65695Y-5712D01*
Y-5705D01*
X65697Y-5695D01*
X65700Y-5683D01*
X65703Y-5670D01*
X65707Y-5655D01*
X65711Y-5639D01*
X65723Y-5605D01*
X65740Y-5570D01*
X65750Y-5553D01*
X65763Y-5536D01*
X65776Y-5520D01*
X65790Y-5506D01*
X65791Y-5505D01*
X65794Y-5503D01*
X65798Y-5499D01*
X65806Y-5494D01*
X65814Y-5489D01*
X65824Y-5483D01*
X65836Y-5476D01*
X65850Y-5469D01*
X65866Y-5462D01*
X65883Y-5454D01*
X65901Y-5449D01*
X65921Y-5443D01*
X65943Y-5439D01*
X65966Y-5434D01*
X65990Y-5433D01*
X66016Y-5432D01*
X66030D01*
X66040Y-5433D01*
D02*
G37*
G36*
X65511Y-6425D02*
X65372D01*
Y-6287D01*
X65511D01*
Y-6425D01*
D02*
G37*
G36*
X64223D02*
X64101D01*
Y-5652D01*
X64100Y-5653D01*
X64092Y-5659D01*
X64084Y-5667D01*
X64069Y-5677D01*
X64054Y-5690D01*
X64034Y-5705D01*
X64011Y-5720D01*
X63985Y-5736D01*
X63984D01*
X63982Y-5738D01*
X63974Y-5743D01*
X63959Y-5750D01*
X63942Y-5759D01*
X63922Y-5769D01*
X63901Y-5779D01*
X63879Y-5789D01*
X63858Y-5798D01*
Y-5680D01*
X63859D01*
X63862Y-5677D01*
X63868Y-5676D01*
X63875Y-5672D01*
X63884Y-5667D01*
X63894Y-5662D01*
X63918Y-5647D01*
X63946Y-5632D01*
X63975Y-5612D01*
X64005Y-5589D01*
X64035Y-5565D01*
X64037Y-5563D01*
X64038Y-5562D01*
X64042Y-5557D01*
X64048Y-5553D01*
X64061Y-5539D01*
X64078Y-5522D01*
X64095Y-5502D01*
X64114Y-5479D01*
X64130Y-5456D01*
X64144Y-5432D01*
X64223D01*
Y-6425D01*
D02*
G37*
G36*
X67579Y-5433D02*
X67597Y-5436D01*
X67619Y-5440D01*
X67642Y-5446D01*
X67666Y-5453D01*
X67689Y-5464D01*
X67690D01*
X67692Y-5466D01*
X67699Y-5470D01*
X67710Y-5477D01*
X67725Y-5487D01*
X67740Y-5502D01*
X67757Y-5517D01*
X67773Y-5536D01*
X67789Y-5557D01*
X67790Y-5560D01*
X67796Y-5567D01*
X67802Y-5580D01*
X67812Y-5599D01*
X67820Y-5620D01*
X67832Y-5645D01*
X67842Y-5673D01*
X67850Y-5705D01*
Y-5706D01*
X67852Y-5709D01*
X67853Y-5713D01*
X67855Y-5720D01*
X67856Y-5729D01*
X67858Y-5739D01*
X67860Y-5752D01*
X67862Y-5766D01*
X67865Y-5782D01*
X67866Y-5799D01*
X67868Y-5819D01*
X67870Y-5839D01*
X67872Y-5862D01*
Y-5885D01*
X67873Y-5911D01*
Y-5938D01*
Y-5939D01*
Y-5945D01*
Y-5955D01*
Y-5966D01*
X67872Y-5982D01*
Y-5999D01*
X67870Y-6018D01*
X67869Y-6038D01*
X67865Y-6084D01*
X67858Y-6131D01*
X67849Y-6177D01*
X67843Y-6198D01*
X67836Y-6219D01*
Y-6221D01*
X67835Y-6224D01*
X67832Y-6230D01*
X67829Y-6237D01*
X67826Y-6247D01*
X67820Y-6257D01*
X67809Y-6281D01*
X67795Y-6307D01*
X67776Y-6335D01*
X67755Y-6361D01*
X67729Y-6385D01*
X67727D01*
X67726Y-6388D01*
X67722Y-6391D01*
X67716Y-6394D01*
X67709Y-6398D01*
X67702Y-6404D01*
X67680Y-6414D01*
X67655Y-6424D01*
X67624Y-6434D01*
X67589Y-6440D01*
X67550Y-6442D01*
X67536D01*
X67526Y-6441D01*
X67514Y-6440D01*
X67500Y-6437D01*
X67484Y-6434D01*
X67467Y-6430D01*
X67450Y-6424D01*
X67431Y-6418D01*
X67413Y-6410D01*
X67394Y-6400D01*
X67376Y-6388D01*
X67357Y-6374D01*
X67340Y-6358D01*
X67324Y-6341D01*
X67323Y-6340D01*
X67320Y-6335D01*
X67316Y-6328D01*
X67308Y-6317D01*
X67301Y-6304D01*
X67294Y-6287D01*
X67284Y-6267D01*
X67276Y-6244D01*
X67267Y-6218D01*
X67258Y-6188D01*
X67250Y-6155D01*
X67243Y-6118D01*
X67235Y-6078D01*
X67231Y-6035D01*
X67228Y-5988D01*
X67227Y-5938D01*
Y-5936D01*
Y-5931D01*
Y-5921D01*
Y-5909D01*
X67228Y-5893D01*
Y-5876D01*
X67230Y-5858D01*
X67231Y-5836D01*
X67235Y-5792D01*
X67243Y-5745D01*
X67251Y-5697D01*
X67257Y-5676D01*
X67263Y-5655D01*
Y-5653D01*
X67264Y-5650D01*
X67267Y-5645D01*
X67270Y-5637D01*
X67273Y-5627D01*
X67278Y-5617D01*
X67290Y-5593D01*
X67304Y-5567D01*
X67323Y-5540D01*
X67344Y-5513D01*
X67370Y-5490D01*
X67371D01*
X67373Y-5487D01*
X67377Y-5484D01*
X67383Y-5482D01*
X67390Y-5476D01*
X67399Y-5472D01*
X67420Y-5460D01*
X67446Y-5450D01*
X67476Y-5440D01*
X67511Y-5434D01*
X67550Y-5432D01*
X67563D01*
X67579Y-5433D01*
D02*
G37*
G36*
X33692Y18436D02*
X33296D01*
X33243Y18168D01*
X33244Y18169D01*
X33247Y18171D01*
X33251Y18174D01*
X33258Y18178D01*
X33267Y18182D01*
X33277Y18188D01*
X33300Y18200D01*
X33328Y18211D01*
X33360Y18221D01*
X33394Y18228D01*
X33411Y18231D01*
X33443D01*
X33451Y18230D01*
X33463Y18228D01*
X33476Y18227D01*
X33490Y18224D01*
X33506Y18220D01*
X33540Y18210D01*
X33559Y18202D01*
X33577Y18192D01*
X33596Y18182D01*
X33614Y18171D01*
X33632Y18157D01*
X33649Y18141D01*
X33650Y18139D01*
X33653Y18137D01*
X33657Y18132D01*
X33663Y18125D01*
X33670Y18115D01*
X33677Y18105D01*
X33686Y18092D01*
X33694Y18078D01*
X33702Y18062D01*
X33710Y18045D01*
X33717Y18025D01*
X33724Y18005D01*
X33730Y17984D01*
X33735Y17959D01*
X33737Y17935D01*
X33739Y17909D01*
Y17908D01*
Y17903D01*
Y17896D01*
X33737Y17886D01*
X33736Y17875D01*
X33735Y17862D01*
X33732Y17846D01*
X33729Y17831D01*
X33720Y17793D01*
X33706Y17755D01*
X33697Y17735D01*
X33686Y17716D01*
X33674Y17696D01*
X33660Y17678D01*
X33659Y17676D01*
X33656Y17672D01*
X33650Y17666D01*
X33643Y17659D01*
X33633Y17650D01*
X33622Y17639D01*
X33607Y17629D01*
X33592Y17617D01*
X33574Y17606D01*
X33554Y17596D01*
X33533Y17586D01*
X33510Y17576D01*
X33486Y17569D01*
X33459Y17563D01*
X33430Y17559D01*
X33400Y17558D01*
X33387D01*
X33377Y17559D01*
X33366Y17560D01*
X33353Y17562D01*
X33337Y17563D01*
X33321Y17568D01*
X33285Y17576D01*
X33250Y17589D01*
X33231Y17597D01*
X33213Y17607D01*
X33195Y17619D01*
X33178Y17632D01*
X33177Y17633D01*
X33174Y17635D01*
X33171Y17640D01*
X33165Y17646D01*
X33158Y17653D01*
X33151Y17662D01*
X33143Y17673D01*
X33135Y17686D01*
X33127Y17699D01*
X33118Y17715D01*
X33103Y17749D01*
X33090Y17789D01*
X33085Y17811D01*
X33083Y17833D01*
X33210Y17843D01*
Y17842D01*
Y17839D01*
X33211Y17835D01*
X33213Y17828D01*
X33217Y17812D01*
X33223Y17790D01*
X33231Y17769D01*
X33243Y17745D01*
X33257Y17723D01*
X33274Y17703D01*
X33277Y17702D01*
X33283Y17696D01*
X33294Y17689D01*
X33310Y17680D01*
X33327Y17672D01*
X33349Y17665D01*
X33373Y17659D01*
X33400Y17658D01*
X33408D01*
X33414Y17659D01*
X33431Y17660D01*
X33451Y17666D01*
X33476Y17673D01*
X33500Y17685D01*
X33526Y17702D01*
X33537Y17712D01*
X33549Y17723D01*
X33550Y17725D01*
X33551Y17726D01*
X33554Y17730D01*
X33559Y17735D01*
X33569Y17751D01*
X33580Y17771D01*
X33590Y17795D01*
X33600Y17825D01*
X33607Y17861D01*
X33610Y17879D01*
Y17899D01*
Y17901D01*
Y17903D01*
Y17909D01*
X33609Y17916D01*
Y17925D01*
X33607Y17935D01*
X33603Y17958D01*
X33596Y17985D01*
X33586Y18012D01*
X33571Y18038D01*
X33551Y18062D01*
Y18064D01*
X33549Y18065D01*
X33542Y18072D01*
X33529Y18082D01*
X33511Y18094D01*
X33489Y18104D01*
X33463Y18114D01*
X33433Y18121D01*
X33416Y18124D01*
X33389D01*
X33377Y18122D01*
X33363Y18121D01*
X33346Y18117D01*
X33328Y18112D01*
X33310Y18105D01*
X33291Y18097D01*
X33290Y18095D01*
X33284Y18092D01*
X33275Y18085D01*
X33264Y18078D01*
X33253Y18068D01*
X33241Y18055D01*
X33228Y18042D01*
X33218Y18026D01*
X33104Y18042D01*
X33200Y18551D01*
X33692D01*
Y18436D01*
D02*
G37*
G36*
X34362Y17923D02*
X34497D01*
Y17812D01*
X34362D01*
Y17575D01*
X34241D01*
Y17812D01*
X33810D01*
Y17923D01*
X34264Y18564D01*
X34362D01*
Y17923D01*
D02*
G37*
G36*
X32905Y17575D02*
X32766D01*
Y17713D01*
X32905D01*
Y17575D01*
D02*
G37*
G36*
X32280Y18567D02*
X32292Y18566D01*
X32306Y18564D01*
X32322Y18561D01*
X32337Y18559D01*
X32375Y18548D01*
X32412Y18534D01*
X32430Y18526D01*
X32449Y18516D01*
X32466Y18503D01*
X32482Y18488D01*
X32483Y18487D01*
X32486Y18485D01*
X32489Y18480D01*
X32495Y18474D01*
X32502Y18467D01*
X32509Y18457D01*
X32516Y18447D01*
X32525Y18434D01*
X32539Y18407D01*
X32553Y18373D01*
X32559Y18355D01*
X32562Y18335D01*
X32565Y18315D01*
X32566Y18294D01*
Y18291D01*
Y18284D01*
X32565Y18272D01*
X32563Y18257D01*
X32561Y18240D01*
X32555Y18220D01*
X32549Y18198D01*
X32541Y18177D01*
X32539Y18174D01*
X32536Y18167D01*
X32531Y18155D01*
X32522Y18139D01*
X32511Y18122D01*
X32496Y18101D01*
X32479Y18079D01*
X32459Y18055D01*
X32456Y18052D01*
X32449Y18044D01*
X32442Y18036D01*
X32435Y18029D01*
X32426Y18021D01*
X32415Y18009D01*
X32403Y17998D01*
X32389Y17985D01*
X32375Y17971D01*
X32357Y17955D01*
X32339Y17939D01*
X32319Y17921D01*
X32296Y17902D01*
X32273Y17882D01*
X32272Y17881D01*
X32269Y17878D01*
X32263Y17874D01*
X32256Y17868D01*
X32247Y17859D01*
X32237Y17851D01*
X32214Y17832D01*
X32190Y17811D01*
X32167Y17789D01*
X32147Y17771D01*
X32139Y17763D01*
X32131Y17756D01*
X32130Y17755D01*
X32126Y17751D01*
X32120Y17745D01*
X32113Y17736D01*
X32106Y17726D01*
X32097Y17716D01*
X32080Y17692D01*
X32568D01*
Y17575D01*
X31911D01*
Y17576D01*
Y17582D01*
Y17590D01*
X31913Y17602D01*
X31914Y17615D01*
X31917Y17629D01*
X31920Y17643D01*
X31926Y17659D01*
Y17660D01*
X31927Y17662D01*
X31930Y17670D01*
X31936Y17683D01*
X31944Y17700D01*
X31956Y17720D01*
X31970Y17743D01*
X31986Y17766D01*
X32006Y17790D01*
Y17792D01*
X32008Y17793D01*
X32016Y17802D01*
X32029Y17815D01*
X32047Y17833D01*
X32069Y17855D01*
X32096Y17881D01*
X32129Y17909D01*
X32164Y17939D01*
X32166Y17941D01*
X32172Y17945D01*
X32180Y17952D01*
X32190Y17961D01*
X32203Y17972D01*
X32219Y17985D01*
X32234Y17999D01*
X32253Y18015D01*
X32289Y18049D01*
X32325Y18084D01*
X32342Y18101D01*
X32357Y18118D01*
X32372Y18134D01*
X32383Y18149D01*
Y18151D01*
X32386Y18152D01*
X32389Y18157D01*
X32392Y18162D01*
X32402Y18178D01*
X32413Y18197D01*
X32423Y18220D01*
X32433Y18244D01*
X32439Y18271D01*
X32442Y18297D01*
Y18298D01*
Y18300D01*
X32440Y18308D01*
X32439Y18323D01*
X32435Y18338D01*
X32429Y18358D01*
X32419Y18378D01*
X32406Y18398D01*
X32389Y18418D01*
X32386Y18421D01*
X32379Y18427D01*
X32369Y18434D01*
X32353Y18444D01*
X32333Y18453D01*
X32310Y18461D01*
X32283Y18467D01*
X32253Y18468D01*
X32245D01*
X32239Y18467D01*
X32222Y18465D01*
X32202Y18461D01*
X32180Y18455D01*
X32156Y18446D01*
X32133Y18433D01*
X32111Y18416D01*
X32109Y18413D01*
X32103Y18405D01*
X32094Y18394D01*
X32086Y18377D01*
X32076Y18357D01*
X32067Y18331D01*
X32061Y18303D01*
X32059Y18270D01*
X31934Y18282D01*
Y18284D01*
X31936Y18288D01*
Y18295D01*
X31937Y18305D01*
X31940Y18317D01*
X31943Y18330D01*
X31947Y18345D01*
X31951Y18361D01*
X31963Y18395D01*
X31980Y18430D01*
X31990Y18447D01*
X32003Y18464D01*
X32016Y18480D01*
X32030Y18494D01*
X32031Y18496D01*
X32034Y18497D01*
X32039Y18501D01*
X32046Y18506D01*
X32054Y18511D01*
X32064Y18517D01*
X32076Y18524D01*
X32090Y18531D01*
X32106Y18538D01*
X32123Y18546D01*
X32142Y18551D01*
X32162Y18557D01*
X32183Y18561D01*
X32206Y18566D01*
X32230Y18567D01*
X32256Y18568D01*
X32270D01*
X32280Y18567D01*
D02*
G37*
G36*
X34973D02*
X34991Y18564D01*
X35013Y18560D01*
X35036Y18554D01*
X35060Y18547D01*
X35083Y18536D01*
X35085D01*
X35086Y18534D01*
X35093Y18530D01*
X35105Y18523D01*
X35119Y18513D01*
X35135Y18498D01*
X35152Y18483D01*
X35167Y18464D01*
X35183Y18443D01*
X35185Y18440D01*
X35190Y18433D01*
X35196Y18420D01*
X35206Y18401D01*
X35215Y18380D01*
X35226Y18355D01*
X35236Y18327D01*
X35245Y18295D01*
Y18294D01*
X35246Y18291D01*
X35247Y18287D01*
X35249Y18280D01*
X35250Y18271D01*
X35252Y18261D01*
X35255Y18248D01*
X35256Y18234D01*
X35259Y18218D01*
X35260Y18201D01*
X35262Y18181D01*
X35265Y18161D01*
X35266Y18138D01*
Y18115D01*
X35267Y18089D01*
Y18062D01*
Y18061D01*
Y18055D01*
Y18045D01*
Y18034D01*
X35266Y18018D01*
Y18001D01*
X35265Y17982D01*
X35263Y17962D01*
X35259Y17916D01*
X35252Y17869D01*
X35243Y17823D01*
X35238Y17802D01*
X35230Y17781D01*
Y17779D01*
X35229Y17776D01*
X35226Y17771D01*
X35223Y17763D01*
X35220Y17753D01*
X35215Y17743D01*
X35203Y17719D01*
X35189Y17693D01*
X35170Y17665D01*
X35149Y17639D01*
X35123Y17615D01*
X35122D01*
X35120Y17612D01*
X35116Y17609D01*
X35110Y17606D01*
X35103Y17602D01*
X35096Y17596D01*
X35074Y17586D01*
X35049Y17576D01*
X35019Y17566D01*
X34983Y17560D01*
X34944Y17558D01*
X34930D01*
X34920Y17559D01*
X34909Y17560D01*
X34894Y17563D01*
X34879Y17566D01*
X34861Y17570D01*
X34844Y17576D01*
X34826Y17582D01*
X34807Y17590D01*
X34789Y17600D01*
X34770Y17612D01*
X34751Y17626D01*
X34734Y17642D01*
X34718Y17659D01*
X34717Y17660D01*
X34714Y17665D01*
X34710Y17672D01*
X34703Y17683D01*
X34696Y17696D01*
X34688Y17713D01*
X34678Y17733D01*
X34670Y17756D01*
X34661Y17782D01*
X34653Y17812D01*
X34644Y17845D01*
X34637Y17882D01*
X34630Y17922D01*
X34625Y17965D01*
X34623Y18012D01*
X34621Y18062D01*
Y18064D01*
Y18069D01*
Y18079D01*
Y18091D01*
X34623Y18107D01*
Y18124D01*
X34624Y18142D01*
X34625Y18164D01*
X34630Y18208D01*
X34637Y18255D01*
X34646Y18303D01*
X34651Y18324D01*
X34657Y18345D01*
Y18347D01*
X34658Y18350D01*
X34661Y18355D01*
X34664Y18362D01*
X34667Y18373D01*
X34673Y18383D01*
X34684Y18407D01*
X34698Y18433D01*
X34717Y18460D01*
X34738Y18487D01*
X34764Y18510D01*
X34766D01*
X34767Y18513D01*
X34771Y18516D01*
X34777Y18518D01*
X34784Y18524D01*
X34793Y18528D01*
X34814Y18540D01*
X34840Y18550D01*
X34870Y18560D01*
X34906Y18566D01*
X34944Y18568D01*
X34957D01*
X34973Y18567D01*
D02*
G37*
G36*
X11692Y11187D02*
X11295D01*
X11243Y10920D01*
X11244Y10921D01*
X11247Y10923D01*
X11251Y10926D01*
X11258Y10930D01*
X11267Y10934D01*
X11277Y10940D01*
X11300Y10951D01*
X11328Y10963D01*
X11360Y10973D01*
X11394Y10980D01*
X11411Y10983D01*
X11443D01*
X11451Y10982D01*
X11463Y10980D01*
X11476Y10979D01*
X11490Y10976D01*
X11506Y10972D01*
X11540Y10961D01*
X11559Y10954D01*
X11577Y10944D01*
X11596Y10934D01*
X11614Y10923D01*
X11632Y10909D01*
X11649Y10893D01*
X11650Y10892D01*
X11653Y10889D01*
X11657Y10884D01*
X11663Y10877D01*
X11670Y10867D01*
X11677Y10857D01*
X11686Y10844D01*
X11694Y10830D01*
X11702Y10814D01*
X11710Y10797D01*
X11717Y10777D01*
X11725Y10757D01*
X11730Y10736D01*
X11735Y10711D01*
X11737Y10687D01*
X11739Y10661D01*
Y10660D01*
Y10655D01*
Y10648D01*
X11737Y10638D01*
X11736Y10627D01*
X11735Y10614D01*
X11732Y10598D01*
X11729Y10583D01*
X11720Y10545D01*
X11706Y10507D01*
X11697Y10487D01*
X11686Y10468D01*
X11675Y10448D01*
X11660Y10430D01*
X11659Y10428D01*
X11656Y10424D01*
X11650Y10418D01*
X11643Y10411D01*
X11633Y10402D01*
X11622Y10391D01*
X11607Y10381D01*
X11592Y10369D01*
X11574Y10358D01*
X11554Y10348D01*
X11533Y10338D01*
X11510Y10328D01*
X11486Y10321D01*
X11459Y10315D01*
X11430Y10311D01*
X11400Y10310D01*
X11387D01*
X11377Y10311D01*
X11366Y10312D01*
X11353Y10314D01*
X11337Y10315D01*
X11321Y10319D01*
X11286Y10328D01*
X11250Y10341D01*
X11231Y10350D01*
X11213Y10360D01*
X11195Y10371D01*
X11178Y10384D01*
X11177Y10385D01*
X11174Y10387D01*
X11171Y10392D01*
X11165Y10398D01*
X11158Y10405D01*
X11151Y10414D01*
X11142Y10425D01*
X11135Y10438D01*
X11127Y10451D01*
X11118Y10467D01*
X11102Y10501D01*
X11090Y10541D01*
X11085Y10563D01*
X11083Y10586D01*
X11210Y10595D01*
Y10594D01*
Y10591D01*
X11211Y10587D01*
X11213Y10580D01*
X11217Y10564D01*
X11223Y10543D01*
X11231Y10521D01*
X11243Y10497D01*
X11257Y10475D01*
X11274Y10455D01*
X11277Y10454D01*
X11283Y10448D01*
X11294Y10441D01*
X11310Y10432D01*
X11327Y10424D01*
X11348Y10417D01*
X11373Y10411D01*
X11400Y10410D01*
X11408D01*
X11414Y10411D01*
X11431Y10412D01*
X11451Y10418D01*
X11476Y10425D01*
X11500Y10437D01*
X11526Y10454D01*
X11537Y10464D01*
X11549Y10475D01*
X11550Y10477D01*
X11552Y10478D01*
X11554Y10482D01*
X11559Y10487D01*
X11569Y10503D01*
X11580Y10522D01*
X11590Y10547D01*
X11600Y10577D01*
X11607Y10613D01*
X11610Y10631D01*
Y10651D01*
Y10653D01*
Y10655D01*
Y10661D01*
X11609Y10668D01*
Y10677D01*
X11607Y10687D01*
X11603Y10710D01*
X11596Y10737D01*
X11586Y10764D01*
X11571Y10790D01*
X11552Y10814D01*
Y10816D01*
X11549Y10817D01*
X11541Y10824D01*
X11529Y10834D01*
X11512Y10846D01*
X11489Y10856D01*
X11463Y10866D01*
X11433Y10873D01*
X11416Y10876D01*
X11389D01*
X11377Y10874D01*
X11363Y10873D01*
X11346Y10869D01*
X11328Y10864D01*
X11310Y10857D01*
X11291Y10849D01*
X11290Y10847D01*
X11284Y10844D01*
X11276Y10837D01*
X11264Y10830D01*
X11253Y10820D01*
X11241Y10807D01*
X11228Y10794D01*
X11218Y10779D01*
X11104Y10794D01*
X11200Y11303D01*
X11692D01*
Y11187D01*
D02*
G37*
G36*
X12362Y10676D02*
X12497D01*
Y10564D01*
X12362D01*
Y10327D01*
X12241D01*
Y10564D01*
X11810D01*
Y10676D01*
X12264Y11316D01*
X12362D01*
Y10676D01*
D02*
G37*
G36*
X10905Y10327D02*
X10766D01*
Y10465D01*
X10905D01*
Y10327D01*
D02*
G37*
G36*
X10280Y11319D02*
X10292Y11318D01*
X10306Y11316D01*
X10322Y11313D01*
X10337Y11310D01*
X10375Y11300D01*
X10412Y11286D01*
X10430Y11278D01*
X10449Y11268D01*
X10466Y11255D01*
X10482Y11240D01*
X10483Y11239D01*
X10486Y11237D01*
X10489Y11232D01*
X10495Y11226D01*
X10502Y11219D01*
X10509Y11209D01*
X10516Y11199D01*
X10525Y11186D01*
X10539Y11159D01*
X10553Y11125D01*
X10559Y11107D01*
X10562Y11087D01*
X10565Y11067D01*
X10566Y11046D01*
Y11043D01*
Y11036D01*
X10565Y11024D01*
X10563Y11009D01*
X10560Y10992D01*
X10555Y10972D01*
X10549Y10950D01*
X10541Y10929D01*
X10539Y10926D01*
X10536Y10919D01*
X10531Y10907D01*
X10522Y10892D01*
X10510Y10874D01*
X10496Y10853D01*
X10479Y10831D01*
X10459Y10807D01*
X10456Y10804D01*
X10449Y10796D01*
X10442Y10789D01*
X10435Y10781D01*
X10426Y10773D01*
X10415Y10761D01*
X10403Y10750D01*
X10389Y10737D01*
X10375Y10723D01*
X10357Y10707D01*
X10339Y10691D01*
X10319Y10673D01*
X10296Y10654D01*
X10273Y10634D01*
X10272Y10633D01*
X10269Y10630D01*
X10263Y10626D01*
X10256Y10620D01*
X10247Y10611D01*
X10237Y10603D01*
X10215Y10584D01*
X10190Y10563D01*
X10167Y10541D01*
X10147Y10522D01*
X10139Y10515D01*
X10131Y10508D01*
X10130Y10507D01*
X10126Y10503D01*
X10120Y10497D01*
X10113Y10488D01*
X10106Y10478D01*
X10097Y10468D01*
X10080Y10444D01*
X10568D01*
Y10327D01*
X9911D01*
Y10328D01*
Y10334D01*
Y10342D01*
X9913Y10354D01*
X9914Y10367D01*
X9917Y10381D01*
X9920Y10395D01*
X9926Y10411D01*
Y10412D01*
X9927Y10414D01*
X9930Y10422D01*
X9936Y10435D01*
X9944Y10452D01*
X9956Y10473D01*
X9970Y10495D01*
X9986Y10518D01*
X10006Y10543D01*
Y10544D01*
X10008Y10545D01*
X10016Y10554D01*
X10029Y10567D01*
X10047Y10586D01*
X10069Y10607D01*
X10096Y10633D01*
X10129Y10661D01*
X10164Y10691D01*
X10166Y10693D01*
X10172Y10697D01*
X10180Y10704D01*
X10190Y10713D01*
X10203Y10724D01*
X10219Y10737D01*
X10234Y10751D01*
X10253Y10767D01*
X10289Y10801D01*
X10325Y10836D01*
X10342Y10853D01*
X10357Y10870D01*
X10372Y10886D01*
X10383Y10902D01*
Y10903D01*
X10386Y10904D01*
X10389Y10909D01*
X10392Y10914D01*
X10402Y10930D01*
X10413Y10949D01*
X10423Y10972D01*
X10433Y10996D01*
X10439Y11023D01*
X10442Y11049D01*
Y11050D01*
Y11052D01*
X10440Y11060D01*
X10439Y11074D01*
X10435Y11090D01*
X10429Y11110D01*
X10419Y11130D01*
X10406Y11150D01*
X10389Y11170D01*
X10386Y11173D01*
X10379Y11179D01*
X10369Y11186D01*
X10353Y11196D01*
X10333Y11205D01*
X10310Y11213D01*
X10283Y11219D01*
X10253Y11220D01*
X10244D01*
X10239Y11219D01*
X10222Y11218D01*
X10202Y11213D01*
X10180Y11208D01*
X10156Y11197D01*
X10133Y11185D01*
X10112Y11168D01*
X10109Y11165D01*
X10103Y11157D01*
X10094Y11146D01*
X10086Y11129D01*
X10076Y11109D01*
X10067Y11083D01*
X10062Y11055D01*
X10059Y11022D01*
X9934Y11034D01*
Y11036D01*
X9936Y11040D01*
Y11047D01*
X9937Y11057D01*
X9940Y11069D01*
X9943Y11082D01*
X9947Y11097D01*
X9951Y11113D01*
X9963Y11147D01*
X9980Y11182D01*
X9990Y11199D01*
X10003Y11216D01*
X10016Y11232D01*
X10030Y11246D01*
X10031Y11248D01*
X10034Y11249D01*
X10039Y11253D01*
X10046Y11258D01*
X10054Y11263D01*
X10064Y11269D01*
X10076Y11276D01*
X10090Y11283D01*
X10106Y11290D01*
X10123Y11298D01*
X10142Y11303D01*
X10161Y11309D01*
X10183Y11313D01*
X10206Y11318D01*
X10230Y11319D01*
X10256Y11321D01*
X10270D01*
X10280Y11319D01*
D02*
G37*
G36*
X12973D02*
X12991Y11316D01*
X13013Y11312D01*
X13036Y11306D01*
X13060Y11299D01*
X13083Y11288D01*
X13084D01*
X13086Y11286D01*
X13093Y11282D01*
X13104Y11275D01*
X13119Y11265D01*
X13135Y11250D01*
X13152Y11235D01*
X13167Y11216D01*
X13183Y11195D01*
X13185Y11192D01*
X13190Y11185D01*
X13196Y11172D01*
X13206Y11153D01*
X13215Y11132D01*
X13226Y11107D01*
X13236Y11079D01*
X13245Y11047D01*
Y11046D01*
X13246Y11043D01*
X13248Y11039D01*
X13249Y11032D01*
X13250Y11023D01*
X13252Y11013D01*
X13255Y11000D01*
X13256Y10986D01*
X13259Y10970D01*
X13260Y10953D01*
X13262Y10933D01*
X13265Y10913D01*
X13266Y10890D01*
Y10867D01*
X13268Y10841D01*
Y10814D01*
Y10813D01*
Y10807D01*
Y10797D01*
Y10786D01*
X13266Y10770D01*
Y10753D01*
X13265Y10734D01*
X13263Y10714D01*
X13259Y10668D01*
X13252Y10621D01*
X13243Y10575D01*
X13238Y10554D01*
X13230Y10532D01*
Y10531D01*
X13229Y10528D01*
X13226Y10522D01*
X13223Y10515D01*
X13220Y10505D01*
X13215Y10495D01*
X13203Y10471D01*
X13189Y10445D01*
X13170Y10417D01*
X13149Y10391D01*
X13123Y10367D01*
X13122D01*
X13120Y10364D01*
X13116Y10361D01*
X13110Y10358D01*
X13103Y10354D01*
X13096Y10348D01*
X13074Y10338D01*
X13049Y10328D01*
X13019Y10318D01*
X12983Y10312D01*
X12944Y10310D01*
X12930D01*
X12920Y10311D01*
X12909Y10312D01*
X12894Y10315D01*
X12879Y10318D01*
X12861Y10322D01*
X12844Y10328D01*
X12826Y10334D01*
X12807Y10342D01*
X12788Y10352D01*
X12770Y10364D01*
X12751Y10378D01*
X12734Y10394D01*
X12718Y10411D01*
X12717Y10412D01*
X12714Y10417D01*
X12710Y10424D01*
X12703Y10435D01*
X12696Y10448D01*
X12688Y10465D01*
X12678Y10485D01*
X12670Y10508D01*
X12661Y10534D01*
X12653Y10564D01*
X12644Y10597D01*
X12637Y10634D01*
X12630Y10674D01*
X12625Y10717D01*
X12623Y10764D01*
X12621Y10814D01*
Y10816D01*
Y10821D01*
Y10831D01*
Y10843D01*
X12623Y10859D01*
Y10876D01*
X12624Y10894D01*
X12625Y10916D01*
X12630Y10960D01*
X12637Y11007D01*
X12645Y11055D01*
X12651Y11076D01*
X12657Y11097D01*
Y11099D01*
X12658Y11102D01*
X12661Y11107D01*
X12664Y11114D01*
X12667Y11125D01*
X12673Y11135D01*
X12684Y11159D01*
X12698Y11185D01*
X12717Y11212D01*
X12738Y11239D01*
X12764Y11262D01*
X12766D01*
X12767Y11265D01*
X12771Y11268D01*
X12777Y11270D01*
X12784Y11276D01*
X12793Y11280D01*
X12814Y11292D01*
X12840Y11302D01*
X12870Y11312D01*
X12906Y11318D01*
X12944Y11321D01*
X12957D01*
X12973Y11319D01*
D02*
G37*
%LPC*%
G36*
X67549Y24220D02*
X67540D01*
X67534Y24219D01*
X67519Y24216D01*
X67500Y24212D01*
X67479Y24203D01*
X67456Y24190D01*
X67444Y24182D01*
X67433Y24173D01*
X67423Y24162D01*
X67413Y24149D01*
Y24147D01*
X67410Y24145D01*
X67407Y24139D01*
X67403Y24132D01*
X67399Y24120D01*
X67393Y24107D01*
X67388Y24092D01*
X67383Y24073D01*
X67377Y24052D01*
X67371Y24027D01*
X67366Y24000D01*
X67361Y23970D01*
X67357Y23936D01*
X67354Y23899D01*
X67353Y23859D01*
X67351Y23814D01*
Y23811D01*
Y23804D01*
Y23791D01*
X67353Y23774D01*
Y23756D01*
X67354Y23733D01*
X67356Y23708D01*
X67358Y23683D01*
X67366Y23627D01*
X67370Y23600D01*
X67376Y23574D01*
X67381Y23550D01*
X67390Y23527D01*
X67399Y23507D01*
X67409Y23490D01*
Y23488D01*
X67411Y23487D01*
X67419Y23477D01*
X67431Y23464D01*
X67447Y23450D01*
X67469Y23435D01*
X67493Y23422D01*
X67520Y23412D01*
X67534Y23411D01*
X67550Y23410D01*
X67559D01*
X67564Y23411D01*
X67579Y23414D01*
X67599Y23420D01*
X67620Y23430D01*
X67645Y23444D01*
X67656Y23452D01*
X67667Y23464D01*
X67679Y23475D01*
X67690Y23490D01*
Y23491D01*
X67693Y23494D01*
X67696Y23498D01*
X67699Y23505D01*
X67705Y23515D01*
X67709Y23528D01*
X67715Y23542D01*
X67720Y23560D01*
X67725Y23581D01*
X67730Y23604D01*
X67736Y23631D01*
X67740Y23660D01*
X67743Y23694D01*
X67746Y23730D01*
X67749Y23770D01*
Y23814D01*
Y23816D01*
Y23817D01*
Y23824D01*
Y23837D01*
X67747Y23854D01*
Y23873D01*
X67746Y23896D01*
X67745Y23920D01*
X67742Y23947D01*
X67735Y24002D01*
X67730Y24029D01*
X67725Y24055D01*
X67719Y24079D01*
X67710Y24102D01*
X67702Y24122D01*
X67692Y24139D01*
Y24140D01*
X67689Y24142D01*
X67686Y24146D01*
X67682Y24152D01*
X67669Y24165D01*
X67653Y24180D01*
X67632Y24195D01*
X67607Y24207D01*
X67594Y24213D01*
X67580Y24217D01*
X67564Y24219D01*
X67549Y24220D01*
D02*
G37*
G36*
X66779D02*
X66771D01*
X66765Y24219D01*
X66749Y24216D01*
X66731Y24212D01*
X66709Y24203D01*
X66686Y24190D01*
X66675Y24182D01*
X66663Y24173D01*
X66654Y24162D01*
X66644Y24149D01*
Y24147D01*
X66641Y24145D01*
X66638Y24139D01*
X66633Y24132D01*
X66629Y24120D01*
X66624Y24107D01*
X66619Y24092D01*
X66614Y24073D01*
X66608Y24052D01*
X66602Y24027D01*
X66596Y24000D01*
X66592Y23970D01*
X66588Y23936D01*
X66585Y23899D01*
X66584Y23859D01*
X66582Y23814D01*
Y23811D01*
Y23804D01*
Y23791D01*
X66584Y23774D01*
Y23756D01*
X66585Y23733D01*
X66586Y23708D01*
X66589Y23683D01*
X66596Y23627D01*
X66601Y23600D01*
X66606Y23574D01*
X66612Y23550D01*
X66621Y23527D01*
X66629Y23507D01*
X66639Y23490D01*
Y23488D01*
X66642Y23487D01*
X66649Y23477D01*
X66662Y23464D01*
X66678Y23450D01*
X66699Y23435D01*
X66724Y23422D01*
X66751Y23412D01*
X66765Y23411D01*
X66781Y23410D01*
X66789D01*
X66795Y23411D01*
X66809Y23414D01*
X66829Y23420D01*
X66851Y23430D01*
X66875Y23444D01*
X66887Y23452D01*
X66898Y23464D01*
X66909Y23475D01*
X66921Y23490D01*
Y23491D01*
X66924Y23494D01*
X66927Y23498D01*
X66930Y23505D01*
X66935Y23515D01*
X66940Y23528D01*
X66945Y23542D01*
X66951Y23560D01*
X66955Y23581D01*
X66961Y23604D01*
X66967Y23631D01*
X66971Y23660D01*
X66974Y23694D01*
X66977Y23730D01*
X66980Y23770D01*
Y23814D01*
Y23816D01*
Y23817D01*
Y23824D01*
Y23837D01*
X66978Y23854D01*
Y23873D01*
X66977Y23896D01*
X66975Y23920D01*
X66972Y23947D01*
X66965Y24002D01*
X66961Y24029D01*
X66955Y24055D01*
X66949Y24079D01*
X66941Y24102D01*
X66932Y24122D01*
X66922Y24139D01*
Y24140D01*
X66919Y24142D01*
X66917Y24146D01*
X66912Y24152D01*
X66900Y24165D01*
X66884Y24180D01*
X66862Y24195D01*
X66838Y24207D01*
X66825Y24213D01*
X66811Y24217D01*
X66795Y24219D01*
X66779Y24220D01*
D02*
G37*
G36*
X66847Y-5633D02*
X66535Y-6076D01*
X66847D01*
Y-5633D01*
D02*
G37*
G36*
X67549Y-5532D02*
X67540D01*
X67534Y-5533D01*
X67519Y-5536D01*
X67500Y-5540D01*
X67479Y-5549D01*
X67456Y-5562D01*
X67444Y-5570D01*
X67433Y-5579D01*
X67423Y-5590D01*
X67413Y-5603D01*
Y-5605D01*
X67410Y-5607D01*
X67407Y-5613D01*
X67403Y-5620D01*
X67399Y-5632D01*
X67393Y-5645D01*
X67388Y-5660D01*
X67383Y-5679D01*
X67377Y-5700D01*
X67371Y-5725D01*
X67366Y-5752D01*
X67361Y-5782D01*
X67357Y-5816D01*
X67354Y-5853D01*
X67353Y-5893D01*
X67351Y-5938D01*
Y-5941D01*
Y-5948D01*
Y-5961D01*
X67353Y-5978D01*
Y-5996D01*
X67354Y-6019D01*
X67356Y-6044D01*
X67358Y-6069D01*
X67366Y-6125D01*
X67370Y-6152D01*
X67376Y-6178D01*
X67381Y-6202D01*
X67390Y-6225D01*
X67399Y-6245D01*
X67409Y-6262D01*
Y-6264D01*
X67411Y-6265D01*
X67419Y-6275D01*
X67431Y-6288D01*
X67447Y-6302D01*
X67469Y-6317D01*
X67493Y-6330D01*
X67520Y-6340D01*
X67534Y-6341D01*
X67550Y-6342D01*
X67559D01*
X67564Y-6341D01*
X67579Y-6338D01*
X67599Y-6332D01*
X67620Y-6322D01*
X67645Y-6308D01*
X67656Y-6300D01*
X67667Y-6288D01*
X67679Y-6277D01*
X67690Y-6262D01*
Y-6261D01*
X67693Y-6258D01*
X67696Y-6254D01*
X67699Y-6247D01*
X67705Y-6237D01*
X67709Y-6224D01*
X67715Y-6209D01*
X67720Y-6192D01*
X67725Y-6171D01*
X67730Y-6148D01*
X67736Y-6121D01*
X67740Y-6092D01*
X67743Y-6058D01*
X67746Y-6022D01*
X67749Y-5982D01*
Y-5938D01*
Y-5936D01*
Y-5935D01*
Y-5928D01*
Y-5915D01*
X67747Y-5898D01*
Y-5879D01*
X67746Y-5856D01*
X67745Y-5832D01*
X67742Y-5805D01*
X67735Y-5750D01*
X67730Y-5723D01*
X67725Y-5697D01*
X67719Y-5673D01*
X67710Y-5650D01*
X67702Y-5630D01*
X67692Y-5613D01*
Y-5612D01*
X67689Y-5610D01*
X67686Y-5606D01*
X67682Y-5600D01*
X67669Y-5587D01*
X67653Y-5572D01*
X67632Y-5557D01*
X67607Y-5545D01*
X67594Y-5539D01*
X67580Y-5534D01*
X67564Y-5533D01*
X67549Y-5532D01*
D02*
G37*
G36*
X34241Y18367D02*
X33929Y17923D01*
X34241D01*
Y18367D01*
D02*
G37*
G36*
X34943Y18468D02*
X34934D01*
X34929Y18467D01*
X34913Y18464D01*
X34894Y18460D01*
X34873Y18451D01*
X34850Y18438D01*
X34839Y18430D01*
X34827Y18421D01*
X34817Y18410D01*
X34807Y18397D01*
Y18395D01*
X34804Y18393D01*
X34801Y18387D01*
X34797Y18380D01*
X34793Y18368D01*
X34787Y18355D01*
X34783Y18340D01*
X34777Y18321D01*
X34771Y18300D01*
X34766Y18275D01*
X34760Y18248D01*
X34756Y18218D01*
X34751Y18184D01*
X34748Y18147D01*
X34747Y18107D01*
X34746Y18062D01*
Y18059D01*
Y18052D01*
Y18039D01*
X34747Y18022D01*
Y18004D01*
X34748Y17981D01*
X34750Y17956D01*
X34753Y17931D01*
X34760Y17875D01*
X34764Y17848D01*
X34770Y17822D01*
X34776Y17798D01*
X34784Y17775D01*
X34793Y17755D01*
X34803Y17738D01*
Y17736D01*
X34806Y17735D01*
X34813Y17725D01*
X34826Y17712D01*
X34841Y17698D01*
X34863Y17683D01*
X34887Y17670D01*
X34914Y17660D01*
X34929Y17659D01*
X34944Y17658D01*
X34953D01*
X34959Y17659D01*
X34973Y17662D01*
X34993Y17668D01*
X35014Y17678D01*
X35039Y17692D01*
X35050Y17700D01*
X35062Y17712D01*
X35073Y17723D01*
X35085Y17738D01*
Y17739D01*
X35087Y17742D01*
X35090Y17746D01*
X35093Y17753D01*
X35099Y17763D01*
X35103Y17776D01*
X35109Y17790D01*
X35114Y17808D01*
X35119Y17829D01*
X35124Y17852D01*
X35130Y17879D01*
X35135Y17908D01*
X35137Y17942D01*
X35140Y17978D01*
X35143Y18018D01*
Y18062D01*
Y18064D01*
Y18065D01*
Y18072D01*
Y18085D01*
X35142Y18102D01*
Y18121D01*
X35140Y18144D01*
X35139Y18168D01*
X35136Y18195D01*
X35129Y18250D01*
X35124Y18277D01*
X35119Y18303D01*
X35113Y18327D01*
X35105Y18350D01*
X35096Y18370D01*
X35086Y18387D01*
Y18388D01*
X35083Y18390D01*
X35080Y18394D01*
X35076Y18400D01*
X35063Y18413D01*
X35047Y18428D01*
X35026Y18443D01*
X35002Y18455D01*
X34989Y18461D01*
X34974Y18465D01*
X34959Y18467D01*
X34943Y18468D01*
D02*
G37*
G36*
X12241Y11119D02*
X11929Y10676D01*
X12241D01*
Y11119D01*
D02*
G37*
G36*
X12943Y11220D02*
X12934D01*
X12929Y11219D01*
X12913Y11216D01*
X12894Y11212D01*
X12873Y11203D01*
X12850Y11190D01*
X12839Y11182D01*
X12827Y11173D01*
X12817Y11162D01*
X12807Y11149D01*
Y11147D01*
X12804Y11145D01*
X12801Y11139D01*
X12797Y11132D01*
X12793Y11120D01*
X12787Y11107D01*
X12783Y11092D01*
X12777Y11073D01*
X12771Y11052D01*
X12766Y11027D01*
X12760Y11000D01*
X12756Y10970D01*
X12751Y10936D01*
X12748Y10899D01*
X12747Y10859D01*
X12746Y10814D01*
Y10811D01*
Y10804D01*
Y10791D01*
X12747Y10774D01*
Y10756D01*
X12748Y10733D01*
X12750Y10708D01*
X12753Y10683D01*
X12760Y10627D01*
X12764Y10600D01*
X12770Y10574D01*
X12776Y10550D01*
X12784Y10527D01*
X12793Y10507D01*
X12803Y10490D01*
Y10488D01*
X12806Y10487D01*
X12813Y10477D01*
X12826Y10464D01*
X12841Y10450D01*
X12863Y10435D01*
X12887Y10422D01*
X12914Y10412D01*
X12929Y10411D01*
X12944Y10410D01*
X12953D01*
X12959Y10411D01*
X12973Y10414D01*
X12993Y10420D01*
X13014Y10430D01*
X13039Y10444D01*
X13050Y10452D01*
X13062Y10464D01*
X13073Y10475D01*
X13084Y10490D01*
Y10491D01*
X13087Y10494D01*
X13090Y10498D01*
X13093Y10505D01*
X13099Y10515D01*
X13103Y10528D01*
X13109Y10543D01*
X13115Y10560D01*
X13119Y10581D01*
X13125Y10604D01*
X13130Y10631D01*
X13135Y10660D01*
X13137Y10694D01*
X13140Y10730D01*
X13143Y10770D01*
Y10814D01*
Y10816D01*
Y10817D01*
Y10824D01*
Y10837D01*
X13142Y10854D01*
Y10873D01*
X13140Y10896D01*
X13139Y10920D01*
X13136Y10947D01*
X13129Y11002D01*
X13125Y11029D01*
X13119Y11055D01*
X13113Y11079D01*
X13104Y11102D01*
X13096Y11122D01*
X13086Y11139D01*
Y11140D01*
X13083Y11142D01*
X13080Y11146D01*
X13076Y11152D01*
X13063Y11165D01*
X13047Y11180D01*
X13026Y11195D01*
X13002Y11208D01*
X12989Y11213D01*
X12974Y11218D01*
X12959Y11219D01*
X12943Y11220D01*
D02*
G37*
%LPD*%
D21*
X97008Y-8685D02*
Y3067D01*
X89508Y23201D02*
X89756Y23516D01*
X92008Y23827D01*
X90008D02*
X92008D01*
X89756Y24138D02*
X90008Y23827D01*
X89756Y24138D02*
X92008Y23827D01*
X89508Y23201D02*
X90008Y23827D01*
X89508Y24453D02*
X90008Y23827D01*
X89508Y24453D02*
X92008Y23827D01*
X89508Y23201D02*
X92008Y23827D01*
Y13587D02*
Y26587D01*
X94508Y-6547D02*
X94756Y-6236D01*
X97008Y-5921D01*
X95008D02*
X97008D01*
X94756Y-5610D02*
X95008Y-5921D01*
X94756Y-5610D02*
X97008Y-5921D01*
X94508Y-6547D02*
X95008Y-5921D01*
X94508Y-5299D02*
X95008Y-5921D01*
X94508Y-5299D02*
X97008Y-5921D01*
X94508Y-6547D02*
X97008Y-5921D01*
X70910Y23827D02*
X92008D01*
X70910Y-5921D02*
X97008D01*
X49508Y17453D02*
X49756Y17764D01*
X52008Y18079D01*
X50008D02*
X52008D01*
X49756Y18390D02*
X50008Y18079D01*
X49756Y18390D02*
X52008Y18079D01*
X49508Y17453D02*
X50008Y18079D01*
X49508Y18701D02*
X50008Y18079D01*
X49508Y18701D02*
X52008Y18079D01*
X49508Y17453D02*
X52008Y18079D01*
Y13587D02*
Y20839D01*
X44260Y24138D02*
X44508Y24453D01*
X42008Y23827D02*
X44260Y24138D01*
X42008Y23827D02*
X44008D01*
X44260Y23516D01*
X42008Y23827D02*
X44260Y23516D01*
X44008Y23827D02*
X44508Y24453D01*
X44008Y23827D02*
X44508Y23201D01*
X42008Y23827D02*
X44508Y23201D01*
X42008Y23827D02*
X44508Y24453D01*
X42008Y23827D02*
X63106D01*
X42008Y18079D02*
X52008D01*
X44260Y18390D02*
X44508Y18701D01*
X42008Y18079D02*
X44260Y18390D01*
X42008Y18079D02*
X44008D01*
X44260Y17764D01*
X42008Y18079D02*
X44260Y17764D01*
X44008Y18079D02*
X44508Y18701D01*
X44008Y18079D02*
X44508Y17453D01*
X42008Y18079D02*
X44508Y17453D01*
X42008Y18079D02*
X44508Y18701D01*
X37858Y18079D02*
X42008D01*
Y13587D02*
Y26587D01*
Y13587D02*
Y20839D01*
X39260Y-5610D02*
X39508Y-5299D01*
X37008Y-5921D02*
X39260Y-5610D01*
X37008Y-5921D02*
X39008D01*
X39260Y-6236D01*
X37008Y-5921D02*
X39260Y-6236D01*
X39008Y-5921D02*
X39508Y-5299D01*
X39008Y-5921D02*
X39508Y-6547D01*
X37008Y-5921D02*
X39508Y-6547D01*
X37008Y-5921D02*
X39508Y-5299D01*
X37008Y-5921D02*
X63106D01*
X37008Y-8685D02*
Y3067D01*
X12819Y13575D02*
X13134Y13327D01*
X12508Y15827D02*
X12819Y13575D01*
X12508Y13827D02*
Y15827D01*
X12197Y13575D02*
X12508Y13827D01*
X12197Y13575D02*
X12508Y15827D01*
Y13827D02*
X13134Y13327D01*
X11882D02*
X12508Y13827D01*
X11882Y13327D02*
X12508Y15827D01*
X13134Y13327D01*
X12508Y12079D02*
Y15827D01*
X11882Y8327D02*
X12197Y8079D01*
X12508Y5827D01*
Y7827D01*
X12819Y8079D01*
X12508Y5827D02*
X12819Y8079D01*
X11882Y8327D02*
X12508Y7827D01*
X13134Y8327D01*
X12508Y5827D02*
X13134Y8327D01*
X11882D02*
X12508Y5827D01*
Y9575D01*
X9748Y5827D02*
X34248D01*
X9748Y15827D02*
X34248D01*
M02*
