G04*
G04 #@! TF.GenerationSoftware,Altium Limited,Altium Designer,23.2.1 (34)*
G04*
G04 Layer_Color=2752767*
%FSLAX25Y25*%
%MOIN*%
G70*
G04*
G04 #@! TF.SameCoordinates,26DCB771-F187-4795-AA7E-67AAF857B4AA*
G04*
G04*
G04 #@! TF.FilePolarity,Positive*
G04*
G01*
G75*
%ADD65C,0.00200*%
%ADD66C,0.00267*%
D65*
X92008Y10027D02*
X91208Y11627D01*
X92808D01*
X92008Y10027D01*
X82008D02*
X81208Y11627D01*
X82808D01*
X82008Y10027D01*
X72008D02*
X71208Y11627D01*
X72808D01*
X72008Y10027D01*
X62008D02*
X61208Y11627D01*
X62808D01*
X62008Y10027D01*
X52008D02*
X51208Y11627D01*
X52808D01*
X52008Y10027D01*
X42008D02*
X41208Y11627D01*
X42808D01*
X42008Y10027D01*
X7074Y63846D02*
Y65446D01*
X8674D01*
Y63846D01*
X7074D01*
Y73846D02*
Y75446D01*
X8674D01*
Y73846D01*
X7074D01*
Y83846D02*
Y85446D01*
X8674D01*
Y83846D01*
X7074D01*
Y93846D02*
Y95446D01*
X8674D01*
Y93846D01*
X7074D01*
X109279Y10027D02*
Y11627D01*
X110879D01*
Y10027D01*
X109279D01*
X119279D02*
Y11627D01*
X120879D01*
Y10027D01*
X119279D01*
X129279D02*
Y11627D01*
X130879D01*
Y10027D01*
X129279D01*
X131090Y82035D02*
Y83635D01*
X132690D01*
Y82035D01*
X131090D01*
Y72035D02*
Y73635D01*
X132690D01*
Y72035D01*
X131090D01*
Y62035D02*
Y63635D01*
X132690D01*
Y62035D01*
X131090D01*
X106405Y82035D02*
Y83635D01*
X108005D01*
Y82035D01*
X106405D01*
X116405D02*
Y83635D01*
X118005D01*
Y82035D01*
X116405D01*
X106405Y72035D02*
Y73635D01*
X108005D01*
Y72035D01*
X106405D01*
X116405D02*
Y73635D01*
X118005D01*
Y72035D01*
X116405D01*
X106405Y62035D02*
Y63635D01*
X108005D01*
Y62035D01*
X106405D01*
X116405D02*
Y63635D01*
X118005D01*
Y62035D01*
X116405D01*
X65972Y102547D02*
Y104147D01*
X67572D01*
Y102547D01*
X65972D01*
X75972D02*
Y104147D01*
X77572D01*
Y102547D01*
X75972D01*
X85972D02*
Y104147D01*
X87572D01*
Y102547D01*
X85972D01*
X123531D02*
Y104147D01*
X125131D01*
Y102547D01*
X123531D01*
X113531D02*
Y104147D01*
X115131D01*
Y102547D01*
X113531D01*
X103531D02*
Y104147D01*
X105131D01*
Y102547D01*
X103531D01*
X7074Y108452D02*
X7474Y109252D01*
X7074Y110052D01*
X7874Y109652D01*
X8674Y110052D01*
X8274Y109252D01*
X8674Y108452D01*
X7874Y108852D01*
X7074Y108452D01*
X15748Y91720D02*
X16148Y92120D01*
X16548D01*
X16148Y92520D01*
X16548Y92920D01*
X16148D01*
X15748Y93320D01*
X15348Y92920D01*
X14948D01*
X15348Y92520D01*
X14948Y92120D01*
X15348D01*
X15748Y91720D01*
X90551Y78924D02*
X90951Y79324D01*
X91351D01*
X90951Y79724D01*
X91351Y80124D01*
X90951D01*
X90551Y80524D01*
X90151Y80124D01*
X89751D01*
X90151Y79724D01*
X89751Y79324D01*
X90151D01*
X90551Y78924D01*
D66*
X54934Y87598D02*
X54381Y88359D01*
X53487Y88069D01*
Y87128D01*
X54381Y86838D01*
X54934Y87598D01*
X24900Y107583D02*
X24347Y108344D01*
X23453Y108054D01*
Y107113D01*
X24347Y106823D01*
X24900Y107583D01*
X82493Y30512D02*
X81940Y31273D01*
X81046Y30982D01*
Y30042D01*
X81940Y29751D01*
X82493Y30512D01*
X64730Y68898D02*
X64178Y69658D01*
X63283Y69368D01*
Y68427D01*
X64178Y68137D01*
X64730Y68898D01*
X61328Y62771D02*
X60776Y63532D01*
X59881Y63242D01*
Y62301D01*
X60776Y62011D01*
X61328Y62771D01*
X93000Y29283D02*
X92447Y30044D01*
X91553Y29754D01*
Y28813D01*
X92447Y28523D01*
X93000Y29283D01*
X83500Y87383D02*
X82947Y88144D01*
X82053Y87854D01*
Y86913D01*
X82947Y86623D01*
X83500Y87383D01*
X78556Y84083D02*
X78003Y84844D01*
X77109Y84554D01*
Y83613D01*
X78003Y83323D01*
X78556Y84083D01*
X83477Y95472D02*
X82924Y96233D01*
X82030Y95943D01*
Y95002D01*
X82924Y94712D01*
X83477Y95472D01*
X59600Y30144D02*
X59047Y30905D01*
X58153Y30614D01*
Y29674D01*
X59047Y29383D01*
X59600Y30144D01*
X73700Y36083D02*
X73147Y36844D01*
X72253Y36554D01*
Y35613D01*
X73147Y35323D01*
X73700Y36083D01*
X64031Y56230D02*
X63479Y56991D01*
X62584Y56700D01*
Y55760D01*
X63479Y55469D01*
X64031Y56230D01*
X43123Y36417D02*
X42570Y37178D01*
X41676Y36887D01*
Y35947D01*
X42570Y35656D01*
X43123Y36417D01*
X65195Y23489D02*
X64642Y24250D01*
X63747Y23959D01*
Y23019D01*
X64642Y22728D01*
X65195Y23489D01*
M02*
