G04*
G04 #@! TF.GenerationSoftware,Altium Limited,Altium Designer,23.7.1 (13)*
G04*
G04 Layer_Color=0*
%FSLAX25Y25*%
%MOIN*%
G70*
G04*
G04 #@! TF.SameCoordinates,2AD03240-4C21-4CDD-82D0-605F0999EC7E*
G04*
G04*
G04 #@! TF.FilePolarity,Positive*
G04*
G01*
G75*
%ADD62C,0.00394*%
%ADD64C,0.00394*%
G36*
X102008Y13303D02*
X102058D01*
X102115Y13295D01*
X102251Y13267D01*
X102402Y13231D01*
X102560Y13173D01*
X102717Y13088D01*
X102796Y13037D01*
X102868Y12980D01*
X102875Y12973D01*
X102882Y12966D01*
X102904Y12944D01*
X102925Y12923D01*
X102961Y12887D01*
X102990Y12844D01*
X103069Y12743D01*
X103148Y12614D01*
X103219Y12456D01*
X103284Y12277D01*
X103327Y12077D01*
X102717Y12026D01*
Y12033D01*
X102710Y12041D01*
X102703Y12084D01*
X102682Y12148D01*
X102653Y12227D01*
X102624Y12313D01*
X102581Y12399D01*
X102531Y12478D01*
X102481Y12543D01*
X102466Y12557D01*
X102438Y12586D01*
X102388Y12629D01*
X102316Y12679D01*
X102223Y12722D01*
X102122Y12765D01*
X102000Y12794D01*
X101871Y12808D01*
X101821D01*
X101764Y12801D01*
X101699Y12786D01*
X101613Y12765D01*
X101527Y12736D01*
X101441Y12700D01*
X101355Y12643D01*
X101341Y12636D01*
X101305Y12607D01*
X101255Y12557D01*
X101190Y12485D01*
X101119Y12399D01*
X101040Y12299D01*
X100968Y12170D01*
X100896Y12026D01*
Y12019D01*
X100889Y12005D01*
X100882Y11983D01*
X100868Y11955D01*
X100860Y11912D01*
X100846Y11861D01*
X100832Y11804D01*
X100817Y11732D01*
X100796Y11654D01*
X100782Y11568D01*
X100767Y11474D01*
X100760Y11374D01*
X100746Y11259D01*
X100739Y11144D01*
X100731Y11015D01*
Y10886D01*
X100739Y10893D01*
X100767Y10937D01*
X100817Y10994D01*
X100882Y11066D01*
X100954Y11152D01*
X101047Y11231D01*
X101147Y11309D01*
X101262Y11381D01*
X101269D01*
X101276Y11388D01*
X101319Y11410D01*
X101384Y11431D01*
X101470Y11467D01*
X101570Y11496D01*
X101685Y11517D01*
X101807Y11539D01*
X101936Y11546D01*
X101993D01*
X102036Y11539D01*
X102094Y11532D01*
X102151Y11524D01*
X102223Y11510D01*
X102294Y11489D01*
X102459Y11438D01*
X102545Y11402D01*
X102631Y11352D01*
X102717Y11302D01*
X102811Y11245D01*
X102897Y11173D01*
X102975Y11094D01*
X102983Y11087D01*
X102997Y11073D01*
X103019Y11051D01*
X103040Y11015D01*
X103076Y10965D01*
X103112Y10915D01*
X103148Y10851D01*
X103191Y10779D01*
X103234Y10700D01*
X103270Y10614D01*
X103305Y10514D01*
X103341Y10413D01*
X103363Y10306D01*
X103384Y10184D01*
X103399Y10062D01*
X103406Y9933D01*
Y9926D01*
Y9911D01*
Y9890D01*
Y9854D01*
X103399Y9811D01*
Y9768D01*
X103377Y9653D01*
X103356Y9517D01*
X103320Y9373D01*
X103270Y9216D01*
X103198Y9065D01*
Y9058D01*
X103191Y9051D01*
X103176Y9029D01*
X103162Y9001D01*
X103119Y8929D01*
X103054Y8836D01*
X102975Y8735D01*
X102882Y8635D01*
X102768Y8535D01*
X102646Y8449D01*
X102638D01*
X102631Y8441D01*
X102610Y8427D01*
X102581Y8420D01*
X102509Y8384D01*
X102416Y8348D01*
X102294Y8305D01*
X102158Y8276D01*
X102008Y8248D01*
X101843Y8241D01*
X101807D01*
X101771Y8248D01*
X101714D01*
X101649Y8255D01*
X101577Y8269D01*
X101491Y8291D01*
X101405Y8312D01*
X101305Y8341D01*
X101205Y8377D01*
X101104Y8420D01*
X100997Y8477D01*
X100896Y8542D01*
X100796Y8613D01*
X100696Y8699D01*
X100602Y8800D01*
X100595Y8807D01*
X100581Y8828D01*
X100559Y8857D01*
X100531Y8907D01*
X100487Y8972D01*
X100452Y9044D01*
X100409Y9137D01*
X100366Y9237D01*
X100315Y9359D01*
X100272Y9495D01*
X100237Y9646D01*
X100201Y9811D01*
X100165Y9997D01*
X100143Y10198D01*
X100129Y10413D01*
X100122Y10643D01*
Y10650D01*
Y10657D01*
Y10678D01*
Y10707D01*
X100129Y10779D01*
Y10879D01*
X100136Y10994D01*
X100151Y11130D01*
X100165Y11281D01*
X100186Y11446D01*
X100215Y11610D01*
X100251Y11790D01*
X100294Y11962D01*
X100344Y12134D01*
X100409Y12299D01*
X100480Y12456D01*
X100559Y12607D01*
X100652Y12736D01*
X100660Y12743D01*
X100674Y12758D01*
X100703Y12786D01*
X100739Y12829D01*
X100782Y12872D01*
X100839Y12915D01*
X100911Y12973D01*
X100982Y13023D01*
X101068Y13073D01*
X101162Y13130D01*
X101269Y13173D01*
X101377Y13224D01*
X101498Y13260D01*
X101628Y13288D01*
X101764Y13303D01*
X101907Y13310D01*
X101965D01*
X102008Y13303D01*
D02*
G37*
G36*
X31671Y8327D02*
X31062D01*
Y12206D01*
X31055Y12198D01*
X31019Y12170D01*
X30976Y12127D01*
X30904Y12077D01*
X30825Y12012D01*
X30725Y11940D01*
X30610Y11861D01*
X30481Y11783D01*
X30474D01*
X30467Y11775D01*
X30424Y11747D01*
X30352Y11711D01*
X30266Y11668D01*
X30165Y11618D01*
X30058Y11568D01*
X29950Y11517D01*
X29843Y11474D01*
Y12062D01*
X29850D01*
X29864Y12077D01*
X29893Y12084D01*
X29929Y12105D01*
X29972Y12127D01*
X30022Y12155D01*
X30144Y12227D01*
X30287Y12306D01*
X30431Y12406D01*
X30581Y12521D01*
X30732Y12643D01*
X30739Y12650D01*
X30746Y12657D01*
X30768Y12679D01*
X30797Y12700D01*
X30861Y12772D01*
X30947Y12858D01*
X31033Y12958D01*
X31126Y13073D01*
X31205Y13188D01*
X31277Y13310D01*
X31671D01*
Y8327D01*
D02*
G37*
%LPC*%
G36*
X101814Y11008D02*
X101771D01*
X101742Y11001D01*
X101671Y10994D01*
X101570Y10972D01*
X101463Y10937D01*
X101341Y10879D01*
X101226Y10807D01*
X101111Y10707D01*
X101097Y10693D01*
X101068Y10657D01*
X101018Y10592D01*
X100968Y10499D01*
X100918Y10392D01*
X100868Y10255D01*
X100839Y10105D01*
X100824Y9933D01*
Y9918D01*
Y9883D01*
X100832Y9818D01*
X100839Y9739D01*
X100853Y9646D01*
X100882Y9545D01*
X100911Y9438D01*
X100954Y9330D01*
X100961Y9316D01*
X100982Y9280D01*
X101011Y9230D01*
X101054Y9166D01*
X101104Y9101D01*
X101169Y9022D01*
X101240Y8958D01*
X101326Y8893D01*
X101341Y8886D01*
X101369Y8872D01*
X101420Y8843D01*
X101484Y8821D01*
X101556Y8793D01*
X101642Y8764D01*
X101735Y8750D01*
X101836Y8743D01*
X101871D01*
X101900Y8750D01*
X101972Y8757D01*
X102065Y8778D01*
X102165Y8821D01*
X102280Y8872D01*
X102395Y8950D01*
X102452Y8993D01*
X102502Y9051D01*
Y9058D01*
X102517Y9065D01*
X102545Y9108D01*
X102588Y9180D01*
X102646Y9273D01*
X102696Y9395D01*
X102739Y9538D01*
X102768Y9703D01*
X102782Y9897D01*
Y9904D01*
Y9918D01*
Y9947D01*
X102775Y9983D01*
Y10026D01*
X102768Y10076D01*
X102746Y10191D01*
X102717Y10320D01*
X102667Y10456D01*
X102595Y10585D01*
X102502Y10707D01*
X102488Y10721D01*
X102452Y10757D01*
X102395Y10800D01*
X102316Y10858D01*
X102216Y10915D01*
X102101Y10958D01*
X101965Y10994D01*
X101814Y11008D01*
D02*
G37*
%LPD*%
D62*
X57086Y62992D02*
X61023D01*
X59055Y61024D02*
Y64961D01*
X21654Y41339D02*
Y45276D01*
X19685Y43307D02*
X23622D01*
X13779Y22638D02*
Y26575D01*
X11811Y24606D02*
X15748D01*
X29528Y22638D02*
Y26575D01*
X27559Y24606D02*
X31496D01*
D64*
X87008Y14827D02*
X87520D01*
X88008Y15827D01*
X97008D01*
Y5827D02*
Y15827D01*
X88008Y5827D02*
X97008D01*
X87520Y6827D02*
X88008Y5827D01*
X87008Y6827D02*
X87520D01*
X90756Y12079D02*
X93260D01*
Y9575D02*
Y12079D01*
X90756Y9575D02*
X93260D01*
X90756D02*
Y12079D01*
X77008Y6827D02*
X77520D01*
X77008Y14827D02*
X77520D01*
X80756Y12079D02*
X83260D01*
Y9575D02*
Y12079D01*
X80756Y9575D02*
X83260D01*
X80756D02*
Y12079D01*
X86496Y6827D02*
X87008D01*
X86008Y5827D02*
X86496Y6827D01*
X78008Y5827D02*
X86008D01*
X77520Y6827D02*
X78008Y5827D01*
X86496Y14827D02*
X87008D01*
X86008Y15827D02*
X86496Y14827D01*
X78008Y15827D02*
X86008D01*
X77520Y14827D02*
X78008Y15827D01*
X67008Y6827D02*
X67520D01*
X67008Y14827D02*
X67520D01*
X70756Y12079D02*
X73260D01*
Y9575D02*
Y12079D01*
X70756Y9575D02*
X73260D01*
X70756D02*
Y12079D01*
X76496Y6827D02*
X77008D01*
X76008Y5827D02*
X76496Y6827D01*
X68008Y5827D02*
X76008D01*
X67520Y6827D02*
X68008Y5827D01*
X76496Y14827D02*
X77008D01*
X76008Y15827D02*
X76496Y14827D01*
X68008Y15827D02*
X76008D01*
X67520Y14827D02*
X68008Y15827D01*
X60756Y12079D02*
X63260D01*
Y9575D02*
Y12079D01*
X60756Y9575D02*
X63260D01*
X60756D02*
Y12079D01*
X57008Y6827D02*
X57520D01*
X57008Y14827D02*
X57520D01*
X66496Y6827D02*
X67008D01*
X66008Y5827D02*
X66496Y6827D01*
X58008Y5827D02*
X66008D01*
X57520Y6827D02*
X58008Y5827D01*
X66496Y14827D02*
X67008D01*
X66008Y15827D02*
X66496Y14827D01*
X58008Y15827D02*
X66008D01*
X57520Y14827D02*
X58008Y15827D01*
X50756Y12079D02*
X53260D01*
Y9575D02*
Y12079D01*
X50756Y9575D02*
X53260D01*
X50756D02*
Y12079D01*
X56496Y6827D02*
X57008D01*
X56008Y5827D02*
X56496Y6827D01*
X48008Y5827D02*
X56008D01*
X47520Y6827D02*
X48008Y5827D01*
X56496Y14827D02*
X57008D01*
X56008Y15827D02*
X56496Y14827D01*
X48008Y15827D02*
X56008D01*
X47520Y14827D02*
X48008Y15827D01*
X47008Y6827D02*
X47520D01*
X47008Y14827D02*
X47520D01*
X40756Y12079D02*
X43260D01*
Y9575D02*
Y12079D01*
X40756Y9575D02*
X43260D01*
X40756D02*
Y12079D01*
X46496Y6827D02*
X47008D01*
X46008Y5827D02*
X46496Y6827D01*
X37008Y5827D02*
X46008D01*
X37008D02*
Y7126D01*
X37807D01*
Y14528D01*
X37008D02*
X37807D01*
X37008D02*
Y15827D01*
X46008D01*
X46496Y14827D01*
X47008D01*
M02*
