G04*
G04 #@! TF.GenerationSoftware,Altium Limited,Altium Designer,23.2.1 (34)*
G04*
G04 Layer_Color=8421504*
%FSLAX25Y25*%
%MOIN*%
G70*
G04*
G04 #@! TF.SameCoordinates,26DCB771-F187-4795-AA7E-67AAF857B4AA*
G04*
G04*
G04 #@! TF.FilePolarity,Positive*
G04*
G01*
G75*
%ADD14R,0.08082X0.01791*%
G04:AMPARAMS|DCode=15|XSize=80.82mil|YSize=17.91mil|CornerRadius=8.96mil|HoleSize=0mil|Usage=FLASHONLY|Rotation=0.000|XOffset=0mil|YOffset=0mil|HoleType=Round|Shape=RoundedRectangle|*
%AMROUNDEDRECTD15*
21,1,0.08082,0.00000,0,0,0.0*
21,1,0.06291,0.01791,0,0,0.0*
1,1,0.01791,0.03146,0.00000*
1,1,0.01791,-0.03146,0.00000*
1,1,0.01791,-0.03146,0.00000*
1,1,0.01791,0.03146,0.00000*
%
%ADD15ROUNDEDRECTD15*%
%ADD16R,0.02500X0.05000*%
%ADD17R,0.05315X0.03937*%
%ADD18R,0.07480X0.09449*%
%ADD19R,0.05151X0.03960*%
%ADD20R,0.05000X0.02500*%
D14*
X45570Y79626D02*
D03*
D15*
Y77067D02*
D03*
Y74508D02*
D03*
Y71949D02*
D03*
Y69390D02*
D03*
Y66831D02*
D03*
Y64272D02*
D03*
Y61713D02*
D03*
Y59153D02*
D03*
Y56594D02*
D03*
Y54035D02*
D03*
Y51476D02*
D03*
Y48917D02*
D03*
Y46358D02*
D03*
X72540D02*
D03*
Y48917D02*
D03*
Y51476D02*
D03*
Y54035D02*
D03*
Y56594D02*
D03*
Y59153D02*
D03*
Y61713D02*
D03*
Y64272D02*
D03*
Y66831D02*
D03*
Y69390D02*
D03*
Y71949D02*
D03*
Y74508D02*
D03*
Y77067D02*
D03*
Y79626D02*
D03*
D16*
X85014Y46260D02*
D03*
X88214D02*
D03*
D17*
X22638Y80709D02*
D03*
Y74803D02*
D03*
X89567Y63976D02*
D03*
Y58071D02*
D03*
D18*
X29724Y43307D02*
D03*
X13583D02*
D03*
D19*
X13779Y27465D02*
D03*
Y21747D02*
D03*
X29528Y27466D02*
D03*
Y21747D02*
D03*
D20*
X50197Y30759D02*
D03*
Y27559D02*
D03*
X22638Y60408D02*
D03*
Y63608D02*
D03*
M02*
