G04*
G04 #@! TF.GenerationSoftware,Altium Limited,Altium Designer,23.7.1 (13)*
G04*
G04 Layer_Color=128*
%FSLAX25Y25*%
%MOIN*%
G70*
G04*
G04 #@! TF.SameCoordinates,2AD03240-4C21-4CDD-82D0-605F0999EC7E*
G04*
G04*
G04 #@! TF.FilePolarity,Positive*
G04*
G01*
G75*
%ADD65C,0.00200*%
D65*
X90000Y10827D02*
X94016D01*
X92008Y8819D02*
Y12835D01*
X80000Y10827D02*
X84016D01*
X82008Y8819D02*
Y12835D01*
X70000Y10827D02*
X74016D01*
X72008Y8819D02*
Y12835D01*
X60000Y10827D02*
X64016D01*
X62008Y8819D02*
Y12835D01*
X50000Y10827D02*
X54016D01*
X52008Y8819D02*
Y12835D01*
X40000Y10827D02*
X44016D01*
X42008Y8819D02*
Y12835D01*
X5866Y64646D02*
X9882D01*
X7874Y62638D02*
Y66654D01*
X5866Y74646D02*
X9882D01*
X7874Y72638D02*
Y76653D01*
X5866Y84646D02*
X9882D01*
X7874Y82638D02*
Y86654D01*
X5866Y94646D02*
X9882D01*
X7874Y92638D02*
Y96653D01*
X108071Y10827D02*
X112087D01*
X110079Y8819D02*
Y12835D01*
X118071Y10827D02*
X122087D01*
X120079Y8819D02*
Y12835D01*
X128071Y10827D02*
X132087D01*
X130079Y8819D02*
Y12835D01*
X129882Y82835D02*
X133898D01*
X131890Y80827D02*
Y84842D01*
X129882Y72835D02*
X133898D01*
X131890Y70827D02*
Y74843D01*
X129882Y62835D02*
X133898D01*
X131890Y60827D02*
Y64842D01*
X105197Y82835D02*
X109213D01*
X107205Y80827D02*
Y84843D01*
X115197Y82835D02*
X119213D01*
X117205Y80827D02*
Y84843D01*
X105197Y72835D02*
X109213D01*
X107205Y70827D02*
Y74843D01*
X115197Y72835D02*
X119213D01*
X117205Y70827D02*
Y74843D01*
X105197Y62835D02*
X109213D01*
X107205Y60827D02*
Y64843D01*
X115197Y62835D02*
X119213D01*
X117205Y60827D02*
Y64843D01*
X64764Y103347D02*
X68779D01*
X66772Y101339D02*
Y105354D01*
X74764Y103347D02*
X78780D01*
X76772Y101339D02*
Y105354D01*
X84764Y103347D02*
X88779D01*
X86772Y101339D02*
Y105354D01*
X122323Y103347D02*
X126339D01*
X124331Y101339D02*
Y105354D01*
X112323Y103347D02*
X116339D01*
X114331Y101339D02*
Y105354D01*
X102323Y103347D02*
X106339D01*
X104331Y101339D02*
Y105354D01*
X3740Y109252D02*
X12008D01*
X7874Y105118D02*
Y113386D01*
X53149Y87598D02*
X55118D01*
X54134Y86614D02*
Y88583D01*
X23116Y107583D02*
X25084D01*
X24100Y106599D02*
Y108568D01*
X14348Y92520D02*
X17148D01*
X15748Y91120D02*
Y93920D01*
X80709Y30512D02*
X82677D01*
X81693Y29528D02*
Y31496D01*
X62946Y68898D02*
X64915D01*
X63930Y67913D02*
Y69882D01*
X59544Y62771D02*
X61513D01*
X60528Y61787D02*
Y63756D01*
X91216Y29283D02*
X93184D01*
X92200Y28299D02*
Y30268D01*
X89151Y79724D02*
X91951D01*
X90551Y78324D02*
Y81124D01*
X81716Y87383D02*
X83684D01*
X82700Y86399D02*
Y88368D01*
X76772Y84083D02*
X78740D01*
X77756Y83099D02*
Y85068D01*
X81693Y95472D02*
X83661D01*
X82677Y94488D02*
Y96457D01*
X57816Y30144D02*
X59784D01*
X58800Y29160D02*
Y31128D01*
X71916Y36083D02*
X73884D01*
X72900Y35099D02*
Y37068D01*
X62247Y56230D02*
X64216D01*
X63231Y55246D02*
Y57214D01*
X41339Y36417D02*
X43307D01*
X42323Y35433D02*
Y37402D01*
X63410Y23489D02*
X65379D01*
X64395Y22505D02*
Y24473D01*
M02*
