G04*
G04 #@! TF.GenerationSoftware,Altium Limited,Altium Designer,23.7.1 (13)*
G04*
G04 Layer_Color=8388736*
%FSLAX25Y25*%
%MOIN*%
G70*
G04*
G04 #@! TF.SameCoordinates,2AD03240-4C21-4CDD-82D0-605F0999EC7E*
G04*
G04*
G04 #@! TF.FilePolarity,Negative*
G04*
G01*
G75*
%ADD21C,0.00000*%
%ADD22R,0.08382X0.02091*%
G04:AMPARAMS|DCode=23|XSize=83.82mil|YSize=20.91mil|CornerRadius=10.46mil|HoleSize=0mil|Usage=FLASHONLY|Rotation=0.000|XOffset=0mil|YOffset=0mil|HoleType=Round|Shape=RoundedRectangle|*
%AMROUNDEDRECTD23*
21,1,0.08382,0.00000,0,0,0.0*
21,1,0.06291,0.02091,0,0,0.0*
1,1,0.02091,0.03146,0.00000*
1,1,0.02091,-0.03146,0.00000*
1,1,0.02091,-0.03146,0.00000*
1,1,0.02091,0.03146,0.00000*
%
%ADD23ROUNDEDRECTD23*%
%ADD24R,0.03300X0.05800*%
%ADD25R,0.06115X0.04737*%
%ADD26R,0.08280X0.10249*%
%ADD27R,0.05951X0.04760*%
%ADD28R,0.05800X0.03300*%
%ADD29C,0.07178*%
%ADD30C,0.06194*%
%ADD31R,0.06194X0.06194*%
%ADD32R,0.06194X0.06194*%
%ADD33C,0.10642*%
%ADD34C,0.04737*%
%ADD35C,0.05800*%
D21*
X95398Y10827D02*
X95247Y11826D01*
X94809Y12736D01*
X94121Y13477D01*
X93246Y13982D01*
X92261Y14207D01*
X91254Y14132D01*
X90313Y13762D01*
X89523Y13132D01*
X88954Y12297D01*
X88656Y11332D01*
Y10321D01*
X88954Y9356D01*
X89523Y8521D01*
X90313Y7891D01*
X91254Y7522D01*
X92261Y7446D01*
X93246Y7671D01*
X94121Y8176D01*
X94809Y8917D01*
X95247Y9827D01*
X95398Y10827D01*
X85398D02*
X85247Y11826D01*
X84809Y12736D01*
X84122Y13477D01*
X83246Y13982D01*
X82261Y14207D01*
X81253Y14132D01*
X80313Y13762D01*
X79523Y13132D01*
X78954Y12297D01*
X78656Y11332D01*
Y10321D01*
X78954Y9356D01*
X79523Y8521D01*
X80313Y7891D01*
X81253Y7522D01*
X82261Y7446D01*
X83246Y7671D01*
X84122Y8176D01*
X84809Y8917D01*
X85247Y9827D01*
X85398Y10827D01*
X75398D02*
X75247Y11826D01*
X74809Y12736D01*
X74121Y13477D01*
X73246Y13982D01*
X72261Y14207D01*
X71254Y14132D01*
X70313Y13762D01*
X69523Y13132D01*
X68954Y12297D01*
X68656Y11332D01*
Y10321D01*
X68954Y9356D01*
X69523Y8521D01*
X70313Y7891D01*
X71254Y7522D01*
X72261Y7446D01*
X73246Y7671D01*
X74121Y8176D01*
X74809Y8917D01*
X75247Y9827D01*
X75398Y10827D01*
X65398D02*
X65247Y11826D01*
X64809Y12736D01*
X64122Y13477D01*
X63246Y13982D01*
X62261Y14207D01*
X61253Y14132D01*
X60313Y13762D01*
X59523Y13132D01*
X58954Y12297D01*
X58656Y11332D01*
Y10321D01*
X58954Y9356D01*
X59523Y8521D01*
X60313Y7891D01*
X61253Y7522D01*
X62261Y7446D01*
X63246Y7671D01*
X64122Y8176D01*
X64809Y8917D01*
X65247Y9827D01*
X65398Y10827D01*
X55398D02*
X55247Y11826D01*
X54809Y12736D01*
X54122Y13477D01*
X53246Y13982D01*
X52261Y14207D01*
X51253Y14132D01*
X50313Y13762D01*
X49523Y13132D01*
X48954Y12297D01*
X48656Y11332D01*
Y10321D01*
X48954Y9356D01*
X49523Y8521D01*
X50313Y7891D01*
X51253Y7522D01*
X52261Y7446D01*
X53246Y7671D01*
X54122Y8176D01*
X54809Y8917D01*
X55247Y9827D01*
X55398Y10827D01*
X45398D02*
X45247Y11826D01*
X44809Y12736D01*
X44122Y13477D01*
X43246Y13982D01*
X42261Y14207D01*
X41254Y14132D01*
X40313Y13762D01*
X39523Y13132D01*
X38954Y12297D01*
X38656Y11332D01*
Y10321D01*
X38954Y9356D01*
X39523Y8521D01*
X40313Y7891D01*
X41254Y7522D01*
X42261Y7446D01*
X43246Y7671D01*
X44122Y8176D01*
X44809Y8917D01*
X45247Y9827D01*
X45398Y10827D01*
D22*
X45570Y79626D02*
D03*
D23*
Y77067D02*
D03*
Y74508D02*
D03*
Y71949D02*
D03*
Y69390D02*
D03*
Y66831D02*
D03*
Y64272D02*
D03*
Y61713D02*
D03*
Y59153D02*
D03*
Y56594D02*
D03*
Y54035D02*
D03*
Y51476D02*
D03*
Y48917D02*
D03*
Y46358D02*
D03*
X72540D02*
D03*
Y48917D02*
D03*
Y51476D02*
D03*
Y54035D02*
D03*
Y56594D02*
D03*
Y59153D02*
D03*
Y61713D02*
D03*
Y64272D02*
D03*
Y66831D02*
D03*
Y69390D02*
D03*
Y71949D02*
D03*
Y74508D02*
D03*
Y77067D02*
D03*
Y79626D02*
D03*
D24*
X85014Y46260D02*
D03*
X88214D02*
D03*
D25*
X22638Y80709D02*
D03*
Y74803D02*
D03*
X89567Y63976D02*
D03*
Y58071D02*
D03*
D26*
X29724Y43307D02*
D03*
X13583D02*
D03*
D27*
X13779Y27465D02*
D03*
Y21747D02*
D03*
X29528Y27466D02*
D03*
Y21747D02*
D03*
D28*
X50197Y30759D02*
D03*
Y27559D02*
D03*
X22638Y60408D02*
D03*
Y63608D02*
D03*
D29*
X92008Y10827D02*
D03*
X82008D02*
D03*
X72008D02*
D03*
X62008D02*
D03*
X52008D02*
D03*
X42008D02*
D03*
D30*
X7874Y64646D02*
D03*
Y74646D02*
D03*
Y84646D02*
D03*
X110079Y10827D02*
D03*
X120079D02*
D03*
X131890Y72835D02*
D03*
Y62835D02*
D03*
X107205Y82835D02*
D03*
X117205D02*
D03*
X107205Y72835D02*
D03*
X117205D02*
D03*
X107205Y62835D02*
D03*
X66772Y103347D02*
D03*
X76772D02*
D03*
X114331D02*
D03*
X104331D02*
D03*
D31*
X7874Y94646D02*
D03*
X131890Y82835D02*
D03*
X117205Y62835D02*
D03*
D32*
X130079Y10827D02*
D03*
X86772Y103347D02*
D03*
X124331D02*
D03*
D33*
X7874Y109252D02*
D03*
D34*
X54134Y87598D02*
D03*
X24100Y107583D02*
D03*
X81693Y30512D02*
D03*
X63930Y68898D02*
D03*
X60528Y62771D02*
D03*
X92200Y29283D02*
D03*
X82700Y87383D02*
D03*
X77756Y84083D02*
D03*
X82677Y95472D02*
D03*
X58800Y30144D02*
D03*
X72900Y36083D02*
D03*
X63231Y56230D02*
D03*
X42323Y36417D02*
D03*
X64395Y23489D02*
D03*
D35*
X15748Y92520D02*
D03*
X90551Y79724D02*
D03*
M02*
