G04*
G04 #@! TF.GenerationSoftware,Altium Limited,Altium Designer,23.2.1 (34)*
G04*
G04 Layer_Color=32896*
%FSLAX25Y25*%
%MOIN*%
G70*
G04*
G04 #@! TF.SameCoordinates,26DCB771-F187-4795-AA7E-67AAF857B4AA*
G04*
G04*
G04 #@! TF.FilePolarity,Positive*
G04*
G01*
G75*
%ADD21C,0.00000*%
G36*
X66342Y24212D02*
X66341Y24211D01*
X66338Y24207D01*
X66333Y24202D01*
X66326Y24194D01*
X66317Y24183D01*
X66307Y24171D01*
X66296Y24157D01*
X66283Y24141D01*
X66269Y24122D01*
X66254Y24102D01*
X66239Y24080D01*
X66223Y24056D01*
X66206Y24030D01*
X66189Y24003D01*
X66171Y23974D01*
X66154Y23943D01*
X66153Y23941D01*
X66150Y23936D01*
X66145Y23926D01*
X66139Y23914D01*
X66131Y23899D01*
X66122Y23881D01*
X66112Y23860D01*
X66101Y23837D01*
X66090Y23812D01*
X66078Y23786D01*
X66066Y23757D01*
X66054Y23727D01*
X66042Y23697D01*
X66031Y23665D01*
X66010Y23599D01*
Y23598D01*
X66008Y23593D01*
X66007Y23587D01*
X66004Y23577D01*
X66001Y23566D01*
X65998Y23552D01*
X65995Y23536D01*
X65991Y23519D01*
X65987Y23499D01*
X65983Y23478D01*
X65979Y23456D01*
X65975Y23432D01*
X65972Y23407D01*
X65969Y23381D01*
X65964Y23327D01*
X65839D01*
Y23328D01*
Y23332D01*
Y23339D01*
X65840Y23348D01*
X65841Y23359D01*
X65842Y23373D01*
X65843Y23389D01*
X65845Y23406D01*
X65848Y23426D01*
X65851Y23448D01*
X65855Y23471D01*
X65859Y23496D01*
X65864Y23522D01*
X65870Y23550D01*
X65876Y23579D01*
X65884Y23610D01*
X65885Y23612D01*
X65886Y23617D01*
X65889Y23626D01*
X65892Y23638D01*
X65897Y23653D01*
X65902Y23671D01*
X65909Y23690D01*
X65916Y23712D01*
X65925Y23736D01*
X65934Y23761D01*
X65944Y23788D01*
X65956Y23815D01*
X65981Y23872D01*
X66010Y23930D01*
X66011Y23932D01*
X66014Y23937D01*
X66018Y23945D01*
X66024Y23956D01*
X66032Y23969D01*
X66041Y23984D01*
X66052Y24002D01*
X66063Y24020D01*
X66076Y24040D01*
X66089Y24061D01*
X66119Y24105D01*
X66152Y24148D01*
X66169Y24170D01*
X66186Y24190D01*
X65700D01*
Y24307D01*
X66342D01*
Y24212D01*
D02*
G37*
G36*
X65514Y23327D02*
X65375D01*
Y23466D01*
X65514D01*
Y23327D01*
D02*
G37*
G36*
X64889Y24323D02*
X64901Y24322D01*
X64915Y24320D01*
X64930Y24317D01*
X64947Y24314D01*
X64965Y24310D01*
X64983Y24305D01*
X65002Y24298D01*
X65021Y24290D01*
X65039Y24281D01*
X65057Y24270D01*
X65075Y24258D01*
X65091Y24244D01*
X65092Y24243D01*
X65095Y24240D01*
X65099Y24236D01*
X65104Y24230D01*
X65111Y24222D01*
X65118Y24213D01*
X65125Y24202D01*
X65133Y24190D01*
X65141Y24176D01*
X65148Y24161D01*
X65156Y24145D01*
X65162Y24128D01*
X65167Y24110D01*
X65171Y24090D01*
X65174Y24070D01*
X65175Y24048D01*
Y24047D01*
Y24045D01*
Y24042D01*
Y24038D01*
X65174Y24032D01*
Y24026D01*
X65172Y24011D01*
X65169Y23993D01*
X65164Y23973D01*
X65158Y23952D01*
X65150Y23930D01*
Y23929D01*
X65149Y23927D01*
X65147Y23924D01*
X65145Y23920D01*
X65143Y23915D01*
X65139Y23909D01*
X65131Y23894D01*
X65120Y23875D01*
X65106Y23855D01*
X65089Y23833D01*
X65069Y23809D01*
X65068Y23808D01*
X65066Y23806D01*
X65063Y23802D01*
X65058Y23797D01*
X65052Y23791D01*
X65044Y23783D01*
X65035Y23774D01*
X65024Y23764D01*
X65012Y23752D01*
X64998Y23739D01*
X64983Y23725D01*
X64966Y23709D01*
X64947Y23692D01*
X64927Y23674D01*
X64905Y23655D01*
X64881Y23635D01*
X64880Y23634D01*
X64876Y23631D01*
X64871Y23626D01*
X64864Y23620D01*
X64855Y23612D01*
X64845Y23604D01*
X64823Y23584D01*
X64799Y23563D01*
X64776Y23543D01*
X64765Y23533D01*
X64755Y23524D01*
X64747Y23516D01*
X64740Y23509D01*
X64739Y23508D01*
X64735Y23504D01*
X64729Y23497D01*
X64722Y23489D01*
X64714Y23479D01*
X64705Y23468D01*
X64697Y23456D01*
X64689Y23444D01*
X65176D01*
Y23327D01*
X64520D01*
Y23328D01*
Y23329D01*
Y23335D01*
Y23343D01*
X64521Y23354D01*
X64523Y23367D01*
X64525Y23381D01*
X64529Y23396D01*
X64534Y23411D01*
Y23412D01*
X64535Y23414D01*
X64537Y23418D01*
X64539Y23423D01*
X64542Y23429D01*
X64545Y23436D01*
X64553Y23453D01*
X64565Y23473D01*
X64578Y23495D01*
X64595Y23519D01*
X64614Y23543D01*
X64615Y23544D01*
X64617Y23546D01*
X64620Y23550D01*
X64624Y23555D01*
X64630Y23561D01*
X64637Y23568D01*
X64645Y23577D01*
X64655Y23586D01*
X64665Y23597D01*
X64677Y23608D01*
X64690Y23621D01*
X64704Y23634D01*
X64720Y23648D01*
X64736Y23662D01*
X64754Y23677D01*
X64773Y23693D01*
X64775Y23695D01*
X64780Y23699D01*
X64788Y23706D01*
X64799Y23715D01*
X64812Y23726D01*
X64827Y23739D01*
X64844Y23754D01*
X64861Y23770D01*
X64898Y23803D01*
X64934Y23839D01*
X64951Y23856D01*
X64966Y23873D01*
X64980Y23889D01*
X64992Y23904D01*
X64993Y23905D01*
X64995Y23907D01*
X64997Y23912D01*
X65001Y23917D01*
X65005Y23924D01*
X65010Y23932D01*
X65016Y23941D01*
X65021Y23951D01*
X65032Y23974D01*
X65041Y23999D01*
X65045Y24011D01*
X65048Y24025D01*
X65049Y24038D01*
X65050Y24051D01*
Y24052D01*
Y24054D01*
Y24058D01*
X65049Y24063D01*
X65048Y24069D01*
X65047Y24076D01*
X65044Y24093D01*
X65037Y24112D01*
X65028Y24133D01*
X65022Y24143D01*
X65015Y24153D01*
X65007Y24163D01*
X64998Y24173D01*
X64997Y24174D01*
X64996Y24175D01*
X64993Y24178D01*
X64989Y24181D01*
X64983Y24185D01*
X64977Y24189D01*
X64970Y24193D01*
X64962Y24198D01*
X64942Y24207D01*
X64919Y24215D01*
X64892Y24221D01*
X64877Y24222D01*
X64862Y24223D01*
X64854D01*
X64847Y24222D01*
X64840Y24221D01*
X64831Y24220D01*
X64811Y24216D01*
X64789Y24210D01*
X64765Y24201D01*
X64754Y24195D01*
X64742Y24188D01*
X64731Y24179D01*
X64721Y24170D01*
X64720Y24169D01*
X64719Y24168D01*
X64716Y24165D01*
X64713Y24160D01*
X64709Y24155D01*
X64704Y24148D01*
X64699Y24141D01*
X64695Y24132D01*
X64690Y24122D01*
X64685Y24111D01*
X64680Y24099D01*
X64676Y24086D01*
X64673Y24072D01*
X64670Y24057D01*
X64669Y24041D01*
X64668Y24024D01*
X64543Y24037D01*
Y24039D01*
X64544Y24043D01*
X64545Y24050D01*
X64546Y24060D01*
X64548Y24072D01*
X64551Y24085D01*
X64555Y24100D01*
X64560Y24116D01*
X64565Y24133D01*
X64572Y24151D01*
X64580Y24168D01*
X64589Y24186D01*
X64599Y24203D01*
X64611Y24220D01*
X64624Y24236D01*
X64639Y24250D01*
X64640Y24251D01*
X64643Y24253D01*
X64648Y24257D01*
X64654Y24262D01*
X64663Y24267D01*
X64673Y24273D01*
X64685Y24280D01*
X64699Y24287D01*
X64714Y24294D01*
X64731Y24301D01*
X64750Y24307D01*
X64770Y24312D01*
X64791Y24317D01*
X64815Y24321D01*
X64839Y24323D01*
X64865Y24324D01*
X64879D01*
X64889Y24323D01*
D02*
G37*
G36*
X64223Y23327D02*
X64101D01*
Y24103D01*
X64099Y24101D01*
X64093Y24096D01*
X64083Y24088D01*
X64070Y24077D01*
X64053Y24064D01*
X64034Y24050D01*
X64011Y24035D01*
X63985Y24019D01*
X63984D01*
X63982Y24017D01*
X63978Y24015D01*
X63973Y24012D01*
X63967Y24009D01*
X63960Y24005D01*
X63943Y23995D01*
X63923Y23985D01*
X63902Y23975D01*
X63880Y23965D01*
X63858Y23956D01*
Y24074D01*
X63859Y24075D01*
X63863Y24076D01*
X63868Y24079D01*
X63875Y24083D01*
X63884Y24087D01*
X63894Y24093D01*
X63905Y24099D01*
X63918Y24107D01*
X63946Y24123D01*
X63975Y24143D01*
X64006Y24166D01*
X64035Y24190D01*
X64036Y24191D01*
X64038Y24193D01*
X64042Y24197D01*
X64048Y24202D01*
X64054Y24208D01*
X64061Y24215D01*
X64078Y24233D01*
X64095Y24253D01*
X64114Y24276D01*
X64130Y24300D01*
X64138Y24312D01*
X64144Y24324D01*
X64223D01*
Y23327D01*
D02*
G37*
G36*
X67577Y24323D02*
X67586Y24322D01*
X67605Y24320D01*
X67626Y24316D01*
X67650Y24310D01*
X67674Y24302D01*
X67697Y24291D01*
X67698D01*
X67700Y24290D01*
X67703Y24288D01*
X67707Y24285D01*
X67718Y24278D01*
X67732Y24267D01*
X67748Y24254D01*
X67765Y24238D01*
X67782Y24220D01*
X67797Y24198D01*
Y24197D01*
X67799Y24195D01*
X67801Y24192D01*
X67803Y24187D01*
X67807Y24181D01*
X67811Y24174D01*
X67815Y24166D01*
X67819Y24157D01*
X67824Y24147D01*
X67829Y24136D01*
X67839Y24111D01*
X67849Y24082D01*
X67858Y24051D01*
Y24050D01*
X67859Y24047D01*
X67860Y24042D01*
X67862Y24035D01*
X67863Y24026D01*
X67865Y24016D01*
X67867Y24003D01*
X67870Y23989D01*
X67872Y23973D01*
X67874Y23955D01*
X67876Y23936D01*
X67877Y23915D01*
X67879Y23893D01*
X67880Y23869D01*
X67881Y23843D01*
Y23816D01*
Y23814D01*
Y23808D01*
Y23799D01*
X67880Y23787D01*
Y23772D01*
X67879Y23755D01*
X67878Y23736D01*
X67877Y23715D01*
X67875Y23693D01*
X67872Y23670D01*
X67866Y23623D01*
X67857Y23576D01*
X67851Y23554D01*
X67845Y23533D01*
Y23532D01*
X67843Y23528D01*
X67841Y23523D01*
X67838Y23515D01*
X67834Y23506D01*
X67830Y23496D01*
X67824Y23485D01*
X67818Y23472D01*
X67803Y23446D01*
X67784Y23418D01*
X67762Y23392D01*
X67750Y23379D01*
X67737Y23368D01*
X67736Y23367D01*
X67734Y23366D01*
X67730Y23363D01*
X67724Y23359D01*
X67717Y23355D01*
X67709Y23350D01*
X67699Y23344D01*
X67688Y23339D01*
X67676Y23334D01*
X67662Y23328D01*
X67647Y23323D01*
X67631Y23319D01*
X67614Y23315D01*
X67596Y23313D01*
X67577Y23311D01*
X67557Y23310D01*
X67551D01*
X67543Y23311D01*
X67533Y23312D01*
X67521Y23313D01*
X67507Y23315D01*
X67492Y23319D01*
X67475Y23323D01*
X67458Y23328D01*
X67439Y23335D01*
X67421Y23343D01*
X67402Y23353D01*
X67383Y23365D01*
X67365Y23378D01*
X67348Y23394D01*
X67332Y23412D01*
X67331Y23413D01*
X67328Y23418D01*
X67323Y23425D01*
X67317Y23436D01*
X67309Y23449D01*
X67301Y23466D01*
X67292Y23486D01*
X67283Y23509D01*
X67274Y23535D01*
X67265Y23565D01*
X67257Y23598D01*
X67249Y23635D01*
X67243Y23675D01*
X67238Y23718D01*
X67235Y23765D01*
X67234Y23816D01*
Y23817D01*
Y23818D01*
Y23824D01*
Y23833D01*
X67235Y23845D01*
Y23860D01*
X67236Y23877D01*
X67237Y23897D01*
X67239Y23918D01*
X67240Y23940D01*
X67243Y23963D01*
X67249Y24010D01*
X67258Y24057D01*
X67264Y24079D01*
X67270Y24100D01*
Y24101D01*
X67272Y24105D01*
X67274Y24110D01*
X67277Y24118D01*
X67281Y24127D01*
X67285Y24137D01*
X67291Y24149D01*
X67297Y24161D01*
X67312Y24188D01*
X67330Y24216D01*
X67352Y24242D01*
X67364Y24255D01*
X67377Y24266D01*
X67378Y24267D01*
X67380Y24269D01*
X67384Y24271D01*
X67390Y24275D01*
X67397Y24279D01*
X67406Y24284D01*
X67415Y24290D01*
X67427Y24295D01*
X67439Y24300D01*
X67453Y24306D01*
X67467Y24311D01*
X67483Y24315D01*
X67500Y24319D01*
X67518Y24322D01*
X67537Y24323D01*
X67557Y24324D01*
X67570D01*
X67577Y24323D01*
D02*
G37*
G36*
X66806D02*
X66815Y24322D01*
X66834Y24320D01*
X66855Y24316D01*
X66879Y24310D01*
X66903Y24302D01*
X66926Y24291D01*
X66927D01*
X66929Y24290D01*
X66932Y24288D01*
X66936Y24285D01*
X66947Y24278D01*
X66961Y24267D01*
X66977Y24254D01*
X66994Y24238D01*
X67011Y24220D01*
X67026Y24198D01*
Y24197D01*
X67028Y24195D01*
X67030Y24192D01*
X67032Y24187D01*
X67036Y24181D01*
X67040Y24174D01*
X67044Y24166D01*
X67048Y24157D01*
X67053Y24147D01*
X67058Y24136D01*
X67068Y24111D01*
X67078Y24082D01*
X67087Y24051D01*
Y24050D01*
X67088Y24047D01*
X67089Y24042D01*
X67091Y24035D01*
X67092Y24026D01*
X67094Y24016D01*
X67096Y24003D01*
X67099Y23989D01*
X67101Y23973D01*
X67103Y23955D01*
X67105Y23936D01*
X67106Y23915D01*
X67108Y23893D01*
X67109Y23869D01*
X67110Y23843D01*
Y23816D01*
Y23814D01*
Y23808D01*
Y23799D01*
X67109Y23787D01*
Y23772D01*
X67108Y23755D01*
X67107Y23736D01*
X67106Y23715D01*
X67104Y23693D01*
X67101Y23670D01*
X67095Y23623D01*
X67086Y23576D01*
X67080Y23554D01*
X67074Y23533D01*
Y23532D01*
X67072Y23528D01*
X67070Y23523D01*
X67067Y23515D01*
X67063Y23506D01*
X67059Y23496D01*
X67053Y23485D01*
X67047Y23472D01*
X67032Y23446D01*
X67013Y23418D01*
X66991Y23392D01*
X66979Y23379D01*
X66966Y23368D01*
X66965Y23367D01*
X66963Y23366D01*
X66959Y23363D01*
X66953Y23359D01*
X66946Y23355D01*
X66938Y23350D01*
X66928Y23344D01*
X66917Y23339D01*
X66905Y23334D01*
X66891Y23328D01*
X66876Y23323D01*
X66860Y23319D01*
X66843Y23315D01*
X66825Y23313D01*
X66806Y23311D01*
X66786Y23310D01*
X66780D01*
X66772Y23311D01*
X66762Y23312D01*
X66750Y23313D01*
X66736Y23315D01*
X66721Y23319D01*
X66704Y23323D01*
X66687Y23328D01*
X66668Y23335D01*
X66650Y23343D01*
X66631Y23353D01*
X66612Y23365D01*
X66594Y23378D01*
X66577Y23394D01*
X66561Y23412D01*
X66560Y23413D01*
X66557Y23418D01*
X66552Y23425D01*
X66546Y23436D01*
X66538Y23449D01*
X66530Y23466D01*
X66521Y23486D01*
X66512Y23509D01*
X66503Y23535D01*
X66494Y23565D01*
X66486Y23598D01*
X66478Y23635D01*
X66472Y23675D01*
X66467Y23718D01*
X66464Y23765D01*
X66463Y23816D01*
Y23817D01*
Y23818D01*
Y23824D01*
Y23833D01*
X66464Y23845D01*
Y23860D01*
X66465Y23877D01*
X66466Y23897D01*
X66468Y23918D01*
X66469Y23940D01*
X66472Y23963D01*
X66478Y24010D01*
X66487Y24057D01*
X66493Y24079D01*
X66499Y24100D01*
Y24101D01*
X66501Y24105D01*
X66503Y24110D01*
X66506Y24118D01*
X66510Y24127D01*
X66514Y24137D01*
X66520Y24149D01*
X66526Y24161D01*
X66541Y24188D01*
X66559Y24216D01*
X66581Y24242D01*
X66593Y24255D01*
X66606Y24266D01*
X66607Y24267D01*
X66609Y24269D01*
X66613Y24271D01*
X66619Y24275D01*
X66626Y24279D01*
X66635Y24284D01*
X66644Y24290D01*
X66656Y24295D01*
X66668Y24300D01*
X66682Y24306D01*
X66696Y24311D01*
X66712Y24315D01*
X66729Y24319D01*
X66747Y24322D01*
X66766Y24323D01*
X66786Y24324D01*
X66799D01*
X66806Y24323D01*
D02*
G37*
G36*
X65146Y-5561D02*
X64751D01*
X64698Y-5829D01*
X64699Y-5828D01*
X64702Y-5826D01*
X64707Y-5823D01*
X64713Y-5819D01*
X64722Y-5814D01*
X64731Y-5809D01*
X64742Y-5803D01*
X64755Y-5797D01*
X64768Y-5792D01*
X64783Y-5786D01*
X64814Y-5776D01*
X64831Y-5772D01*
X64849Y-5769D01*
X64867Y-5767D01*
X64885Y-5766D01*
X64891D01*
X64898Y-5767D01*
X64907D01*
X64918Y-5769D01*
X64931Y-5771D01*
X64945Y-5774D01*
X64961Y-5777D01*
X64977Y-5782D01*
X64995Y-5788D01*
X65013Y-5796D01*
X65031Y-5804D01*
X65050Y-5815D01*
X65068Y-5827D01*
X65086Y-5841D01*
X65103Y-5857D01*
X65104Y-5858D01*
X65107Y-5861D01*
X65111Y-5866D01*
X65117Y-5873D01*
X65124Y-5882D01*
X65132Y-5893D01*
X65140Y-5905D01*
X65148Y-5920D01*
X65156Y-5936D01*
X65165Y-5953D01*
X65172Y-5972D01*
X65179Y-5993D01*
X65185Y-6015D01*
X65189Y-6038D01*
X65192Y-6063D01*
X65193Y-6089D01*
Y-6090D01*
Y-6095D01*
Y-6102D01*
X65192Y-6111D01*
X65191Y-6123D01*
X65189Y-6137D01*
X65186Y-6152D01*
X65183Y-6168D01*
X65179Y-6186D01*
X65174Y-6205D01*
X65167Y-6224D01*
X65160Y-6244D01*
X65151Y-6264D01*
X65140Y-6284D01*
X65128Y-6303D01*
X65114Y-6322D01*
X65113Y-6323D01*
X65110Y-6327D01*
X65104Y-6333D01*
X65097Y-6341D01*
X65087Y-6350D01*
X65075Y-6360D01*
X65062Y-6371D01*
X65046Y-6382D01*
X65028Y-6393D01*
X65009Y-6404D01*
X64987Y-6414D01*
X64964Y-6423D01*
X64939Y-6431D01*
X64913Y-6437D01*
X64884Y-6441D01*
X64854Y-6442D01*
X64848D01*
X64841Y-6441D01*
X64832D01*
X64820Y-6440D01*
X64807Y-6438D01*
X64792Y-6436D01*
X64776Y-6433D01*
X64759Y-6429D01*
X64741Y-6424D01*
X64722Y-6418D01*
X64704Y-6410D01*
X64685Y-6402D01*
X64667Y-6392D01*
X64650Y-6380D01*
X64633Y-6367D01*
X64632Y-6366D01*
X64629Y-6363D01*
X64625Y-6359D01*
X64620Y-6353D01*
X64613Y-6345D01*
X64606Y-6336D01*
X64597Y-6326D01*
X64589Y-6313D01*
X64580Y-6299D01*
X64572Y-6284D01*
X64564Y-6268D01*
X64556Y-6250D01*
X64549Y-6230D01*
X64544Y-6210D01*
X64539Y-6188D01*
X64536Y-6165D01*
X64664Y-6154D01*
Y-6155D01*
X64665Y-6158D01*
X64666Y-6163D01*
X64667Y-6169D01*
X64669Y-6177D01*
X64671Y-6186D01*
X64677Y-6207D01*
X64686Y-6230D01*
X64697Y-6253D01*
X64712Y-6275D01*
X64720Y-6286D01*
X64729Y-6295D01*
X64730D01*
X64731Y-6297D01*
X64734Y-6299D01*
X64738Y-6302D01*
X64743Y-6306D01*
X64749Y-6310D01*
X64764Y-6318D01*
X64782Y-6327D01*
X64804Y-6335D01*
X64828Y-6340D01*
X64841Y-6341D01*
X64854Y-6342D01*
X64863D01*
X64869Y-6341D01*
X64877Y-6340D01*
X64885Y-6338D01*
X64895Y-6336D01*
X64906Y-6334D01*
X64930Y-6326D01*
X64942Y-6321D01*
X64954Y-6314D01*
X64967Y-6307D01*
X64979Y-6298D01*
X64991Y-6288D01*
X65003Y-6276D01*
X65004Y-6275D01*
X65006Y-6273D01*
X65009Y-6269D01*
X65013Y-6264D01*
X65017Y-6257D01*
X65022Y-6249D01*
X65028Y-6240D01*
X65034Y-6229D01*
X65039Y-6217D01*
X65045Y-6204D01*
X65050Y-6190D01*
X65055Y-6174D01*
X65058Y-6157D01*
X65061Y-6139D01*
X65063Y-6120D01*
X65064Y-6100D01*
Y-6099D01*
Y-6095D01*
Y-6090D01*
X65063Y-6083D01*
X65062Y-6074D01*
X65061Y-6064D01*
X65059Y-6052D01*
X65057Y-6040D01*
X65050Y-6014D01*
X65045Y-6000D01*
X65039Y-5986D01*
X65032Y-5972D01*
X65025Y-5959D01*
X65015Y-5947D01*
X65005Y-5935D01*
X65004Y-5934D01*
X65002Y-5932D01*
X64999Y-5929D01*
X64994Y-5925D01*
X64989Y-5921D01*
X64982Y-5916D01*
X64973Y-5910D01*
X64964Y-5904D01*
X64954Y-5899D01*
X64942Y-5893D01*
X64930Y-5888D01*
X64916Y-5883D01*
X64901Y-5880D01*
X64886Y-5877D01*
X64869Y-5875D01*
X64852Y-5874D01*
X64842D01*
X64831Y-5875D01*
X64817Y-5877D01*
X64800Y-5881D01*
X64782Y-5885D01*
X64764Y-5892D01*
X64746Y-5901D01*
X64745D01*
X64744Y-5902D01*
X64738Y-5906D01*
X64730Y-5912D01*
X64719Y-5920D01*
X64707Y-5930D01*
X64695Y-5941D01*
X64683Y-5955D01*
X64672Y-5970D01*
X64558Y-5955D01*
X64654Y-5445D01*
X65146D01*
Y-5561D01*
D02*
G37*
G36*
X66975Y-6075D02*
X67109D01*
Y-6187D01*
X66975D01*
Y-6425D01*
X66853D01*
Y-6187D01*
X66423D01*
Y-6075D01*
X66875Y-5432D01*
X66975D01*
Y-6075D01*
D02*
G37*
G36*
X66045Y-5429D02*
X66057Y-5430D01*
X66071Y-5432D01*
X66086Y-5435D01*
X66103Y-5438D01*
X66121Y-5442D01*
X66139Y-5447D01*
X66158Y-5454D01*
X66177Y-5462D01*
X66195Y-5471D01*
X66213Y-5482D01*
X66231Y-5494D01*
X66247Y-5508D01*
X66248Y-5509D01*
X66251Y-5512D01*
X66255Y-5516D01*
X66260Y-5522D01*
X66267Y-5530D01*
X66274Y-5539D01*
X66281Y-5550D01*
X66289Y-5562D01*
X66297Y-5576D01*
X66304Y-5591D01*
X66312Y-5607D01*
X66318Y-5624D01*
X66323Y-5642D01*
X66327Y-5662D01*
X66330Y-5682D01*
X66331Y-5704D01*
Y-5705D01*
Y-5707D01*
Y-5710D01*
Y-5714D01*
X66330Y-5720D01*
Y-5726D01*
X66328Y-5741D01*
X66325Y-5759D01*
X66320Y-5779D01*
X66314Y-5800D01*
X66306Y-5822D01*
Y-5823D01*
X66305Y-5825D01*
X66303Y-5828D01*
X66301Y-5832D01*
X66299Y-5837D01*
X66295Y-5843D01*
X66287Y-5858D01*
X66276Y-5877D01*
X66262Y-5897D01*
X66245Y-5919D01*
X66225Y-5943D01*
X66224Y-5944D01*
X66222Y-5946D01*
X66219Y-5950D01*
X66214Y-5955D01*
X66208Y-5961D01*
X66200Y-5969D01*
X66191Y-5978D01*
X66180Y-5988D01*
X66168Y-6000D01*
X66154Y-6013D01*
X66139Y-6027D01*
X66122Y-6043D01*
X66103Y-6060D01*
X66083Y-6078D01*
X66061Y-6097D01*
X66037Y-6117D01*
X66036Y-6118D01*
X66032Y-6121D01*
X66027Y-6126D01*
X66020Y-6132D01*
X66011Y-6140D01*
X66001Y-6148D01*
X65979Y-6168D01*
X65955Y-6189D01*
X65932Y-6209D01*
X65921Y-6219D01*
X65911Y-6228D01*
X65903Y-6236D01*
X65896Y-6243D01*
X65895Y-6244D01*
X65891Y-6248D01*
X65885Y-6255D01*
X65878Y-6263D01*
X65870Y-6273D01*
X65861Y-6284D01*
X65853Y-6296D01*
X65845Y-6308D01*
X66332D01*
Y-6425D01*
X65676D01*
Y-6424D01*
Y-6423D01*
Y-6417D01*
Y-6409D01*
X65677Y-6398D01*
X65679Y-6385D01*
X65681Y-6371D01*
X65685Y-6356D01*
X65690Y-6341D01*
Y-6340D01*
X65691Y-6338D01*
X65693Y-6334D01*
X65695Y-6329D01*
X65698Y-6323D01*
X65701Y-6316D01*
X65709Y-6299D01*
X65721Y-6279D01*
X65734Y-6257D01*
X65751Y-6233D01*
X65770Y-6209D01*
X65771Y-6208D01*
X65773Y-6206D01*
X65776Y-6202D01*
X65780Y-6197D01*
X65786Y-6191D01*
X65793Y-6184D01*
X65801Y-6175D01*
X65811Y-6166D01*
X65821Y-6155D01*
X65833Y-6144D01*
X65846Y-6131D01*
X65860Y-6118D01*
X65876Y-6104D01*
X65892Y-6090D01*
X65910Y-6075D01*
X65929Y-6059D01*
X65931Y-6057D01*
X65936Y-6053D01*
X65944Y-6046D01*
X65955Y-6037D01*
X65968Y-6026D01*
X65983Y-6013D01*
X66000Y-5998D01*
X66017Y-5982D01*
X66054Y-5949D01*
X66090Y-5913D01*
X66107Y-5896D01*
X66122Y-5879D01*
X66136Y-5863D01*
X66148Y-5848D01*
X66149Y-5847D01*
X66151Y-5845D01*
X66153Y-5840D01*
X66157Y-5835D01*
X66161Y-5828D01*
X66166Y-5820D01*
X66172Y-5811D01*
X66177Y-5801D01*
X66188Y-5778D01*
X66197Y-5753D01*
X66201Y-5741D01*
X66204Y-5727D01*
X66205Y-5714D01*
X66206Y-5701D01*
Y-5700D01*
Y-5698D01*
Y-5694D01*
X66205Y-5689D01*
X66204Y-5683D01*
X66203Y-5676D01*
X66200Y-5659D01*
X66193Y-5640D01*
X66184Y-5619D01*
X66178Y-5609D01*
X66171Y-5599D01*
X66163Y-5589D01*
X66154Y-5579D01*
X66153Y-5578D01*
X66152Y-5577D01*
X66149Y-5574D01*
X66145Y-5571D01*
X66139Y-5567D01*
X66133Y-5563D01*
X66126Y-5559D01*
X66118Y-5554D01*
X66098Y-5545D01*
X66075Y-5537D01*
X66048Y-5531D01*
X66033Y-5530D01*
X66018Y-5529D01*
X66010D01*
X66003Y-5530D01*
X65996Y-5531D01*
X65987Y-5532D01*
X65967Y-5536D01*
X65945Y-5542D01*
X65921Y-5551D01*
X65910Y-5557D01*
X65898Y-5564D01*
X65887Y-5573D01*
X65877Y-5582D01*
X65876Y-5583D01*
X65875Y-5584D01*
X65872Y-5587D01*
X65869Y-5592D01*
X65865Y-5597D01*
X65860Y-5604D01*
X65855Y-5611D01*
X65851Y-5620D01*
X65846Y-5630D01*
X65841Y-5641D01*
X65836Y-5653D01*
X65832Y-5666D01*
X65829Y-5680D01*
X65826Y-5695D01*
X65825Y-5711D01*
X65824Y-5728D01*
X65699Y-5715D01*
Y-5713D01*
X65700Y-5709D01*
X65701Y-5702D01*
X65702Y-5692D01*
X65704Y-5680D01*
X65707Y-5667D01*
X65711Y-5652D01*
X65716Y-5636D01*
X65721Y-5619D01*
X65728Y-5601D01*
X65736Y-5584D01*
X65745Y-5566D01*
X65755Y-5549D01*
X65767Y-5532D01*
X65780Y-5516D01*
X65795Y-5502D01*
X65796Y-5501D01*
X65799Y-5499D01*
X65804Y-5495D01*
X65810Y-5490D01*
X65819Y-5485D01*
X65829Y-5479D01*
X65841Y-5472D01*
X65855Y-5465D01*
X65870Y-5458D01*
X65887Y-5451D01*
X65906Y-5445D01*
X65926Y-5440D01*
X65947Y-5435D01*
X65971Y-5431D01*
X65995Y-5429D01*
X66021Y-5428D01*
X66035D01*
X66045Y-5429D01*
D02*
G37*
G36*
X65514Y-6425D02*
X65375D01*
Y-6286D01*
X65514D01*
Y-6425D01*
D02*
G37*
G36*
X64223D02*
X64101D01*
Y-5649D01*
X64099Y-5651D01*
X64093Y-5656D01*
X64083Y-5664D01*
X64070Y-5675D01*
X64053Y-5688D01*
X64034Y-5702D01*
X64011Y-5717D01*
X63985Y-5733D01*
X63984D01*
X63982Y-5735D01*
X63978Y-5737D01*
X63973Y-5740D01*
X63967Y-5743D01*
X63960Y-5747D01*
X63943Y-5757D01*
X63923Y-5767D01*
X63902Y-5777D01*
X63880Y-5787D01*
X63858Y-5796D01*
Y-5678D01*
X63859Y-5677D01*
X63863Y-5676D01*
X63868Y-5673D01*
X63875Y-5669D01*
X63884Y-5665D01*
X63894Y-5659D01*
X63905Y-5653D01*
X63918Y-5645D01*
X63946Y-5629D01*
X63975Y-5609D01*
X64006Y-5586D01*
X64035Y-5562D01*
X64036Y-5561D01*
X64038Y-5559D01*
X64042Y-5555D01*
X64048Y-5550D01*
X64054Y-5544D01*
X64061Y-5537D01*
X64078Y-5519D01*
X64095Y-5499D01*
X64114Y-5476D01*
X64130Y-5452D01*
X64138Y-5440D01*
X64144Y-5428D01*
X64223D01*
Y-6425D01*
D02*
G37*
G36*
X67577Y-5429D02*
X67586Y-5430D01*
X67605Y-5432D01*
X67626Y-5436D01*
X67650Y-5442D01*
X67674Y-5450D01*
X67697Y-5461D01*
X67698D01*
X67700Y-5462D01*
X67703Y-5464D01*
X67707Y-5467D01*
X67718Y-5474D01*
X67732Y-5485D01*
X67748Y-5498D01*
X67765Y-5514D01*
X67782Y-5532D01*
X67797Y-5554D01*
Y-5555D01*
X67799Y-5557D01*
X67801Y-5560D01*
X67803Y-5565D01*
X67807Y-5571D01*
X67811Y-5578D01*
X67815Y-5586D01*
X67819Y-5595D01*
X67824Y-5605D01*
X67829Y-5616D01*
X67839Y-5641D01*
X67849Y-5670D01*
X67858Y-5701D01*
Y-5702D01*
X67859Y-5705D01*
X67860Y-5710D01*
X67862Y-5717D01*
X67863Y-5726D01*
X67865Y-5736D01*
X67867Y-5749D01*
X67870Y-5763D01*
X67872Y-5779D01*
X67874Y-5797D01*
X67876Y-5816D01*
X67877Y-5837D01*
X67879Y-5859D01*
X67880Y-5883D01*
X67881Y-5909D01*
Y-5936D01*
Y-5938D01*
Y-5944D01*
Y-5953D01*
X67880Y-5965D01*
Y-5980D01*
X67879Y-5997D01*
X67878Y-6016D01*
X67877Y-6037D01*
X67875Y-6059D01*
X67872Y-6082D01*
X67866Y-6129D01*
X67857Y-6176D01*
X67851Y-6198D01*
X67845Y-6219D01*
Y-6220D01*
X67843Y-6224D01*
X67841Y-6229D01*
X67838Y-6237D01*
X67834Y-6246D01*
X67830Y-6256D01*
X67824Y-6267D01*
X67818Y-6280D01*
X67803Y-6306D01*
X67784Y-6334D01*
X67762Y-6360D01*
X67750Y-6373D01*
X67737Y-6384D01*
X67736Y-6385D01*
X67734Y-6386D01*
X67730Y-6389D01*
X67724Y-6393D01*
X67717Y-6397D01*
X67709Y-6402D01*
X67699Y-6408D01*
X67688Y-6413D01*
X67676Y-6418D01*
X67662Y-6424D01*
X67647Y-6429D01*
X67631Y-6433D01*
X67614Y-6437D01*
X67596Y-6439D01*
X67577Y-6441D01*
X67557Y-6442D01*
X67551D01*
X67543Y-6441D01*
X67533Y-6440D01*
X67521Y-6439D01*
X67507Y-6437D01*
X67492Y-6433D01*
X67475Y-6429D01*
X67458Y-6424D01*
X67439Y-6417D01*
X67421Y-6409D01*
X67402Y-6399D01*
X67383Y-6387D01*
X67365Y-6374D01*
X67348Y-6358D01*
X67332Y-6340D01*
X67331Y-6339D01*
X67328Y-6334D01*
X67323Y-6327D01*
X67317Y-6316D01*
X67309Y-6303D01*
X67301Y-6286D01*
X67292Y-6266D01*
X67283Y-6243D01*
X67274Y-6217D01*
X67265Y-6187D01*
X67257Y-6154D01*
X67249Y-6117D01*
X67243Y-6077D01*
X67238Y-6034D01*
X67235Y-5987D01*
X67234Y-5936D01*
Y-5935D01*
Y-5934D01*
Y-5928D01*
Y-5919D01*
X67235Y-5907D01*
Y-5892D01*
X67236Y-5875D01*
X67237Y-5855D01*
X67239Y-5834D01*
X67240Y-5812D01*
X67243Y-5789D01*
X67249Y-5742D01*
X67258Y-5695D01*
X67264Y-5673D01*
X67270Y-5652D01*
Y-5651D01*
X67272Y-5647D01*
X67274Y-5642D01*
X67277Y-5634D01*
X67281Y-5625D01*
X67285Y-5615D01*
X67291Y-5603D01*
X67297Y-5591D01*
X67312Y-5564D01*
X67330Y-5536D01*
X67352Y-5510D01*
X67364Y-5497D01*
X67377Y-5486D01*
X67378Y-5485D01*
X67380Y-5483D01*
X67384Y-5481D01*
X67390Y-5477D01*
X67397Y-5473D01*
X67406Y-5468D01*
X67415Y-5462D01*
X67427Y-5457D01*
X67439Y-5452D01*
X67453Y-5446D01*
X67467Y-5441D01*
X67483Y-5437D01*
X67500Y-5433D01*
X67518Y-5430D01*
X67537Y-5429D01*
X67557Y-5428D01*
X67570D01*
X67577Y-5429D01*
D02*
G37*
G36*
X33693Y18439D02*
X33298D01*
X33245Y18171D01*
X33246Y18172D01*
X33249Y18174D01*
X33254Y18177D01*
X33260Y18181D01*
X33269Y18186D01*
X33278Y18191D01*
X33289Y18197D01*
X33302Y18203D01*
X33315Y18208D01*
X33330Y18214D01*
X33361Y18224D01*
X33378Y18228D01*
X33396Y18231D01*
X33414Y18233D01*
X33432Y18234D01*
X33438D01*
X33445Y18233D01*
X33454D01*
X33465Y18231D01*
X33478Y18229D01*
X33492Y18226D01*
X33508Y18223D01*
X33524Y18218D01*
X33542Y18212D01*
X33560Y18204D01*
X33578Y18196D01*
X33597Y18185D01*
X33615Y18173D01*
X33633Y18159D01*
X33650Y18143D01*
X33651Y18142D01*
X33654Y18139D01*
X33658Y18134D01*
X33664Y18127D01*
X33671Y18118D01*
X33679Y18107D01*
X33687Y18095D01*
X33695Y18080D01*
X33703Y18064D01*
X33712Y18047D01*
X33719Y18028D01*
X33726Y18007D01*
X33732Y17985D01*
X33736Y17962D01*
X33739Y17937D01*
X33740Y17911D01*
Y17910D01*
Y17905D01*
Y17898D01*
X33739Y17889D01*
X33738Y17877D01*
X33736Y17863D01*
X33733Y17848D01*
X33730Y17832D01*
X33726Y17814D01*
X33721Y17795D01*
X33714Y17776D01*
X33707Y17756D01*
X33698Y17736D01*
X33687Y17716D01*
X33675Y17697D01*
X33661Y17678D01*
X33660Y17677D01*
X33657Y17673D01*
X33651Y17667D01*
X33644Y17659D01*
X33634Y17650D01*
X33622Y17640D01*
X33609Y17629D01*
X33593Y17618D01*
X33575Y17607D01*
X33556Y17596D01*
X33534Y17586D01*
X33511Y17577D01*
X33486Y17569D01*
X33460Y17563D01*
X33431Y17559D01*
X33401Y17558D01*
X33395D01*
X33388Y17559D01*
X33379D01*
X33367Y17560D01*
X33354Y17562D01*
X33339Y17564D01*
X33323Y17567D01*
X33306Y17571D01*
X33288Y17576D01*
X33269Y17582D01*
X33251Y17590D01*
X33232Y17598D01*
X33214Y17608D01*
X33197Y17620D01*
X33180Y17633D01*
X33179Y17634D01*
X33176Y17637D01*
X33172Y17641D01*
X33167Y17647D01*
X33160Y17655D01*
X33153Y17664D01*
X33144Y17674D01*
X33136Y17687D01*
X33127Y17701D01*
X33119Y17716D01*
X33111Y17732D01*
X33103Y17750D01*
X33096Y17770D01*
X33091Y17790D01*
X33086Y17812D01*
X33083Y17835D01*
X33211Y17846D01*
Y17845D01*
X33212Y17842D01*
X33213Y17837D01*
X33214Y17831D01*
X33216Y17823D01*
X33218Y17814D01*
X33224Y17793D01*
X33233Y17770D01*
X33244Y17747D01*
X33259Y17725D01*
X33267Y17714D01*
X33276Y17705D01*
X33277D01*
X33278Y17703D01*
X33281Y17701D01*
X33285Y17698D01*
X33290Y17694D01*
X33296Y17690D01*
X33311Y17682D01*
X33329Y17673D01*
X33351Y17665D01*
X33375Y17660D01*
X33388Y17659D01*
X33401Y17658D01*
X33410D01*
X33416Y17659D01*
X33424Y17660D01*
X33432Y17662D01*
X33442Y17664D01*
X33453Y17666D01*
X33477Y17674D01*
X33489Y17679D01*
X33501Y17686D01*
X33514Y17693D01*
X33526Y17702D01*
X33538Y17712D01*
X33550Y17724D01*
X33551Y17725D01*
X33553Y17727D01*
X33556Y17731D01*
X33560Y17736D01*
X33564Y17743D01*
X33569Y17751D01*
X33575Y17760D01*
X33581Y17771D01*
X33586Y17783D01*
X33592Y17796D01*
X33597Y17810D01*
X33602Y17826D01*
X33605Y17843D01*
X33608Y17861D01*
X33610Y17880D01*
X33611Y17900D01*
Y17901D01*
Y17905D01*
Y17910D01*
X33610Y17917D01*
X33609Y17926D01*
X33608Y17936D01*
X33606Y17948D01*
X33604Y17960D01*
X33597Y17986D01*
X33592Y18000D01*
X33586Y18014D01*
X33579Y18028D01*
X33572Y18041D01*
X33562Y18053D01*
X33552Y18065D01*
X33551Y18066D01*
X33549Y18068D01*
X33546Y18071D01*
X33541Y18075D01*
X33536Y18079D01*
X33529Y18084D01*
X33520Y18090D01*
X33511Y18096D01*
X33501Y18101D01*
X33489Y18107D01*
X33477Y18112D01*
X33463Y18117D01*
X33448Y18120D01*
X33433Y18123D01*
X33416Y18125D01*
X33399Y18126D01*
X33389D01*
X33378Y18125D01*
X33364Y18123D01*
X33347Y18119D01*
X33329Y18115D01*
X33311Y18108D01*
X33293Y18099D01*
X33292D01*
X33291Y18098D01*
X33285Y18094D01*
X33277Y18088D01*
X33266Y18080D01*
X33254Y18070D01*
X33242Y18059D01*
X33230Y18045D01*
X33219Y18030D01*
X33105Y18045D01*
X33201Y18555D01*
X33693D01*
Y18439D01*
D02*
G37*
G36*
X34366Y17925D02*
X34500D01*
Y17813D01*
X34366D01*
Y17575D01*
X34244D01*
Y17813D01*
X33814D01*
Y17925D01*
X34266Y18568D01*
X34366D01*
Y17925D01*
D02*
G37*
G36*
X32905Y17575D02*
X32766D01*
Y17714D01*
X32905D01*
Y17575D01*
D02*
G37*
G36*
X32280Y18571D02*
X32292Y18570D01*
X32306Y18568D01*
X32321Y18565D01*
X32338Y18562D01*
X32356Y18558D01*
X32374Y18553D01*
X32393Y18546D01*
X32412Y18538D01*
X32430Y18529D01*
X32448Y18518D01*
X32466Y18506D01*
X32482Y18492D01*
X32483Y18491D01*
X32486Y18488D01*
X32490Y18484D01*
X32495Y18478D01*
X32502Y18470D01*
X32509Y18461D01*
X32516Y18450D01*
X32524Y18438D01*
X32532Y18424D01*
X32539Y18409D01*
X32547Y18393D01*
X32553Y18376D01*
X32558Y18358D01*
X32562Y18338D01*
X32565Y18318D01*
X32566Y18296D01*
Y18295D01*
Y18293D01*
Y18290D01*
Y18286D01*
X32565Y18280D01*
Y18274D01*
X32563Y18259D01*
X32560Y18241D01*
X32555Y18221D01*
X32549Y18200D01*
X32541Y18178D01*
Y18177D01*
X32540Y18175D01*
X32538Y18172D01*
X32536Y18168D01*
X32534Y18163D01*
X32530Y18157D01*
X32522Y18142D01*
X32511Y18123D01*
X32497Y18103D01*
X32480Y18081D01*
X32460Y18057D01*
X32459Y18056D01*
X32457Y18054D01*
X32454Y18050D01*
X32449Y18045D01*
X32443Y18039D01*
X32435Y18031D01*
X32426Y18022D01*
X32415Y18012D01*
X32403Y18000D01*
X32389Y17987D01*
X32374Y17973D01*
X32357Y17957D01*
X32338Y17940D01*
X32318Y17922D01*
X32296Y17903D01*
X32272Y17883D01*
X32271Y17882D01*
X32267Y17879D01*
X32262Y17874D01*
X32255Y17868D01*
X32246Y17860D01*
X32236Y17852D01*
X32214Y17832D01*
X32190Y17811D01*
X32167Y17791D01*
X32156Y17781D01*
X32146Y17772D01*
X32138Y17764D01*
X32131Y17757D01*
X32130Y17756D01*
X32126Y17752D01*
X32120Y17745D01*
X32113Y17737D01*
X32105Y17727D01*
X32096Y17716D01*
X32088Y17704D01*
X32080Y17692D01*
X32567D01*
Y17575D01*
X31911D01*
Y17576D01*
Y17577D01*
Y17583D01*
Y17591D01*
X31912Y17602D01*
X31914Y17615D01*
X31916Y17629D01*
X31920Y17644D01*
X31925Y17659D01*
Y17660D01*
X31926Y17662D01*
X31928Y17666D01*
X31930Y17671D01*
X31933Y17677D01*
X31936Y17684D01*
X31944Y17701D01*
X31956Y17721D01*
X31969Y17743D01*
X31986Y17767D01*
X32005Y17791D01*
X32006Y17792D01*
X32008Y17794D01*
X32011Y17798D01*
X32015Y17803D01*
X32021Y17809D01*
X32028Y17816D01*
X32036Y17825D01*
X32046Y17834D01*
X32056Y17845D01*
X32068Y17856D01*
X32081Y17869D01*
X32095Y17882D01*
X32111Y17896D01*
X32127Y17910D01*
X32145Y17925D01*
X32164Y17941D01*
X32166Y17943D01*
X32171Y17947D01*
X32179Y17954D01*
X32190Y17963D01*
X32203Y17974D01*
X32218Y17987D01*
X32235Y18002D01*
X32252Y18018D01*
X32289Y18051D01*
X32325Y18087D01*
X32342Y18104D01*
X32357Y18121D01*
X32371Y18137D01*
X32383Y18152D01*
X32384Y18153D01*
X32386Y18155D01*
X32388Y18160D01*
X32392Y18165D01*
X32396Y18172D01*
X32401Y18180D01*
X32407Y18189D01*
X32412Y18199D01*
X32423Y18222D01*
X32432Y18247D01*
X32436Y18259D01*
X32439Y18273D01*
X32440Y18286D01*
X32441Y18299D01*
Y18300D01*
Y18302D01*
Y18306D01*
X32440Y18311D01*
X32439Y18317D01*
X32438Y18324D01*
X32435Y18341D01*
X32428Y18360D01*
X32419Y18381D01*
X32413Y18391D01*
X32406Y18401D01*
X32398Y18411D01*
X32389Y18421D01*
X32388Y18422D01*
X32387Y18423D01*
X32384Y18426D01*
X32380Y18429D01*
X32374Y18433D01*
X32368Y18437D01*
X32361Y18441D01*
X32353Y18446D01*
X32333Y18455D01*
X32310Y18463D01*
X32283Y18469D01*
X32268Y18470D01*
X32253Y18471D01*
X32245D01*
X32238Y18470D01*
X32231Y18469D01*
X32222Y18468D01*
X32202Y18464D01*
X32180Y18458D01*
X32156Y18449D01*
X32145Y18443D01*
X32133Y18436D01*
X32122Y18427D01*
X32112Y18418D01*
X32111Y18417D01*
X32110Y18416D01*
X32107Y18413D01*
X32104Y18408D01*
X32100Y18403D01*
X32095Y18396D01*
X32090Y18389D01*
X32086Y18380D01*
X32081Y18370D01*
X32076Y18359D01*
X32071Y18347D01*
X32067Y18334D01*
X32064Y18320D01*
X32061Y18305D01*
X32060Y18289D01*
X32059Y18272D01*
X31934Y18285D01*
Y18287D01*
X31935Y18291D01*
X31936Y18298D01*
X31937Y18308D01*
X31939Y18320D01*
X31942Y18333D01*
X31946Y18348D01*
X31951Y18364D01*
X31956Y18381D01*
X31963Y18399D01*
X31971Y18416D01*
X31980Y18434D01*
X31990Y18451D01*
X32002Y18468D01*
X32015Y18484D01*
X32030Y18498D01*
X32031Y18499D01*
X32034Y18501D01*
X32039Y18505D01*
X32045Y18510D01*
X32054Y18515D01*
X32064Y18521D01*
X32076Y18528D01*
X32090Y18535D01*
X32105Y18542D01*
X32122Y18549D01*
X32141Y18555D01*
X32161Y18560D01*
X32182Y18565D01*
X32206Y18569D01*
X32230Y18571D01*
X32256Y18572D01*
X32270D01*
X32280Y18571D01*
D02*
G37*
G36*
X34968D02*
X34977Y18570D01*
X34996Y18568D01*
X35017Y18564D01*
X35041Y18558D01*
X35065Y18550D01*
X35088Y18539D01*
X35089D01*
X35091Y18538D01*
X35094Y18536D01*
X35098Y18533D01*
X35109Y18526D01*
X35123Y18515D01*
X35139Y18502D01*
X35156Y18486D01*
X35173Y18468D01*
X35188Y18446D01*
Y18445D01*
X35190Y18443D01*
X35192Y18440D01*
X35194Y18435D01*
X35198Y18429D01*
X35202Y18422D01*
X35206Y18414D01*
X35210Y18405D01*
X35215Y18395D01*
X35220Y18384D01*
X35230Y18359D01*
X35240Y18330D01*
X35249Y18299D01*
Y18298D01*
X35250Y18295D01*
X35251Y18290D01*
X35253Y18283D01*
X35254Y18274D01*
X35256Y18264D01*
X35258Y18251D01*
X35261Y18237D01*
X35263Y18221D01*
X35265Y18203D01*
X35267Y18184D01*
X35268Y18163D01*
X35270Y18141D01*
X35271Y18117D01*
X35272Y18091D01*
Y18064D01*
Y18062D01*
Y18056D01*
Y18047D01*
X35271Y18035D01*
Y18020D01*
X35270Y18003D01*
X35269Y17984D01*
X35268Y17963D01*
X35266Y17941D01*
X35263Y17918D01*
X35257Y17871D01*
X35248Y17824D01*
X35242Y17802D01*
X35236Y17781D01*
Y17780D01*
X35234Y17776D01*
X35232Y17771D01*
X35229Y17763D01*
X35225Y17754D01*
X35221Y17744D01*
X35215Y17733D01*
X35209Y17720D01*
X35194Y17694D01*
X35175Y17666D01*
X35153Y17640D01*
X35141Y17627D01*
X35128Y17616D01*
X35127Y17615D01*
X35125Y17614D01*
X35121Y17611D01*
X35115Y17607D01*
X35108Y17603D01*
X35100Y17598D01*
X35090Y17592D01*
X35079Y17587D01*
X35067Y17582D01*
X35053Y17576D01*
X35038Y17571D01*
X35022Y17567D01*
X35005Y17563D01*
X34987Y17561D01*
X34968Y17559D01*
X34948Y17558D01*
X34942D01*
X34934Y17559D01*
X34924Y17560D01*
X34912Y17561D01*
X34898Y17563D01*
X34883Y17567D01*
X34866Y17571D01*
X34849Y17576D01*
X34830Y17583D01*
X34812Y17591D01*
X34793Y17601D01*
X34774Y17613D01*
X34756Y17626D01*
X34739Y17642D01*
X34723Y17660D01*
X34722Y17661D01*
X34719Y17666D01*
X34714Y17673D01*
X34708Y17684D01*
X34700Y17697D01*
X34692Y17714D01*
X34683Y17734D01*
X34674Y17757D01*
X34665Y17783D01*
X34656Y17813D01*
X34648Y17846D01*
X34640Y17883D01*
X34634Y17923D01*
X34629Y17966D01*
X34626Y18013D01*
X34625Y18064D01*
Y18065D01*
Y18066D01*
Y18072D01*
Y18081D01*
X34626Y18093D01*
Y18108D01*
X34627Y18125D01*
X34628Y18145D01*
X34630Y18166D01*
X34631Y18188D01*
X34634Y18211D01*
X34640Y18258D01*
X34649Y18305D01*
X34655Y18327D01*
X34661Y18348D01*
Y18349D01*
X34663Y18353D01*
X34665Y18358D01*
X34668Y18366D01*
X34672Y18375D01*
X34676Y18385D01*
X34682Y18397D01*
X34688Y18409D01*
X34703Y18436D01*
X34721Y18464D01*
X34743Y18490D01*
X34755Y18503D01*
X34768Y18514D01*
X34769Y18515D01*
X34771Y18517D01*
X34775Y18519D01*
X34781Y18523D01*
X34788Y18527D01*
X34797Y18532D01*
X34806Y18538D01*
X34818Y18543D01*
X34830Y18548D01*
X34844Y18554D01*
X34858Y18559D01*
X34874Y18563D01*
X34891Y18567D01*
X34909Y18570D01*
X34928Y18571D01*
X34948Y18572D01*
X34961D01*
X34968Y18571D01*
D02*
G37*
G36*
X11693Y11191D02*
X11298D01*
X11245Y10923D01*
X11246Y10924D01*
X11249Y10926D01*
X11254Y10929D01*
X11260Y10933D01*
X11269Y10938D01*
X11278Y10943D01*
X11289Y10949D01*
X11302Y10955D01*
X11315Y10960D01*
X11330Y10966D01*
X11361Y10976D01*
X11378Y10980D01*
X11396Y10983D01*
X11414Y10985D01*
X11432Y10986D01*
X11438D01*
X11445Y10985D01*
X11454D01*
X11465Y10983D01*
X11478Y10981D01*
X11492Y10978D01*
X11508Y10975D01*
X11524Y10970D01*
X11542Y10964D01*
X11560Y10956D01*
X11578Y10948D01*
X11597Y10937D01*
X11615Y10925D01*
X11633Y10911D01*
X11650Y10895D01*
X11651Y10894D01*
X11654Y10891D01*
X11658Y10886D01*
X11664Y10879D01*
X11671Y10870D01*
X11679Y10859D01*
X11687Y10847D01*
X11695Y10832D01*
X11703Y10816D01*
X11712Y10799D01*
X11719Y10780D01*
X11726Y10759D01*
X11732Y10737D01*
X11736Y10714D01*
X11739Y10689D01*
X11740Y10663D01*
Y10662D01*
Y10657D01*
Y10650D01*
X11739Y10641D01*
X11738Y10629D01*
X11736Y10615D01*
X11733Y10600D01*
X11730Y10584D01*
X11726Y10566D01*
X11721Y10547D01*
X11714Y10528D01*
X11707Y10508D01*
X11698Y10488D01*
X11687Y10468D01*
X11675Y10449D01*
X11661Y10430D01*
X11660Y10429D01*
X11657Y10425D01*
X11651Y10419D01*
X11644Y10411D01*
X11634Y10402D01*
X11622Y10392D01*
X11609Y10381D01*
X11593Y10370D01*
X11575Y10359D01*
X11556Y10348D01*
X11534Y10338D01*
X11511Y10329D01*
X11486Y10321D01*
X11460Y10315D01*
X11431Y10311D01*
X11401Y10310D01*
X11395D01*
X11388Y10311D01*
X11379D01*
X11367Y10312D01*
X11354Y10314D01*
X11339Y10316D01*
X11323Y10319D01*
X11306Y10323D01*
X11288Y10328D01*
X11269Y10334D01*
X11251Y10342D01*
X11232Y10350D01*
X11214Y10360D01*
X11197Y10372D01*
X11180Y10385D01*
X11179Y10386D01*
X11176Y10389D01*
X11172Y10393D01*
X11167Y10399D01*
X11160Y10407D01*
X11153Y10416D01*
X11144Y10426D01*
X11136Y10439D01*
X11127Y10453D01*
X11119Y10468D01*
X11111Y10484D01*
X11103Y10502D01*
X11096Y10522D01*
X11091Y10542D01*
X11086Y10564D01*
X11083Y10587D01*
X11211Y10598D01*
Y10597D01*
X11212Y10594D01*
X11213Y10589D01*
X11214Y10583D01*
X11216Y10575D01*
X11218Y10566D01*
X11224Y10545D01*
X11233Y10522D01*
X11244Y10499D01*
X11259Y10477D01*
X11267Y10466D01*
X11276Y10457D01*
X11277D01*
X11278Y10455D01*
X11281Y10453D01*
X11285Y10450D01*
X11290Y10446D01*
X11296Y10442D01*
X11311Y10434D01*
X11329Y10425D01*
X11351Y10417D01*
X11375Y10412D01*
X11388Y10411D01*
X11401Y10410D01*
X11410D01*
X11416Y10411D01*
X11424Y10412D01*
X11432Y10414D01*
X11442Y10416D01*
X11453Y10418D01*
X11477Y10426D01*
X11489Y10431D01*
X11501Y10438D01*
X11514Y10445D01*
X11526Y10454D01*
X11538Y10464D01*
X11550Y10476D01*
X11551Y10477D01*
X11553Y10479D01*
X11556Y10483D01*
X11560Y10488D01*
X11564Y10495D01*
X11569Y10503D01*
X11575Y10512D01*
X11581Y10523D01*
X11586Y10535D01*
X11592Y10548D01*
X11597Y10562D01*
X11602Y10578D01*
X11605Y10595D01*
X11608Y10613D01*
X11610Y10632D01*
X11611Y10652D01*
Y10653D01*
Y10657D01*
Y10662D01*
X11610Y10669D01*
X11609Y10678D01*
X11608Y10688D01*
X11606Y10700D01*
X11604Y10712D01*
X11597Y10738D01*
X11592Y10752D01*
X11586Y10766D01*
X11579Y10780D01*
X11572Y10793D01*
X11562Y10805D01*
X11552Y10817D01*
X11551Y10818D01*
X11549Y10820D01*
X11546Y10823D01*
X11541Y10827D01*
X11536Y10831D01*
X11529Y10836D01*
X11520Y10842D01*
X11511Y10848D01*
X11501Y10853D01*
X11489Y10859D01*
X11477Y10864D01*
X11463Y10869D01*
X11448Y10872D01*
X11433Y10875D01*
X11416Y10877D01*
X11399Y10878D01*
X11389D01*
X11378Y10877D01*
X11364Y10875D01*
X11347Y10871D01*
X11329Y10867D01*
X11311Y10860D01*
X11293Y10851D01*
X11292D01*
X11291Y10850D01*
X11285Y10846D01*
X11277Y10840D01*
X11266Y10832D01*
X11254Y10822D01*
X11242Y10811D01*
X11230Y10797D01*
X11219Y10782D01*
X11105Y10797D01*
X11201Y11307D01*
X11693D01*
Y11191D01*
D02*
G37*
G36*
X12366Y10677D02*
X12500D01*
Y10565D01*
X12366D01*
Y10327D01*
X12244D01*
Y10565D01*
X11814D01*
Y10677D01*
X12266Y11320D01*
X12366D01*
Y10677D01*
D02*
G37*
G36*
X10905Y10327D02*
X10766D01*
Y10466D01*
X10905D01*
Y10327D01*
D02*
G37*
G36*
X10280Y11323D02*
X10292Y11322D01*
X10306Y11320D01*
X10321Y11317D01*
X10338Y11314D01*
X10356Y11310D01*
X10374Y11305D01*
X10393Y11298D01*
X10412Y11290D01*
X10430Y11281D01*
X10448Y11270D01*
X10466Y11258D01*
X10482Y11244D01*
X10483Y11243D01*
X10486Y11240D01*
X10490Y11236D01*
X10495Y11230D01*
X10502Y11222D01*
X10509Y11213D01*
X10516Y11202D01*
X10524Y11190D01*
X10532Y11176D01*
X10539Y11161D01*
X10547Y11145D01*
X10553Y11128D01*
X10558Y11110D01*
X10562Y11090D01*
X10565Y11070D01*
X10566Y11048D01*
Y11047D01*
Y11045D01*
Y11042D01*
Y11038D01*
X10565Y11032D01*
Y11026D01*
X10563Y11011D01*
X10560Y10993D01*
X10555Y10973D01*
X10549Y10952D01*
X10541Y10930D01*
Y10929D01*
X10540Y10927D01*
X10538Y10924D01*
X10536Y10920D01*
X10534Y10915D01*
X10530Y10909D01*
X10522Y10894D01*
X10511Y10875D01*
X10497Y10855D01*
X10480Y10833D01*
X10460Y10809D01*
X10459Y10808D01*
X10457Y10806D01*
X10454Y10802D01*
X10449Y10797D01*
X10443Y10791D01*
X10435Y10783D01*
X10426Y10774D01*
X10415Y10764D01*
X10403Y10752D01*
X10389Y10739D01*
X10374Y10725D01*
X10357Y10709D01*
X10338Y10692D01*
X10318Y10674D01*
X10296Y10655D01*
X10272Y10635D01*
X10271Y10634D01*
X10267Y10631D01*
X10262Y10626D01*
X10255Y10620D01*
X10246Y10612D01*
X10236Y10604D01*
X10214Y10584D01*
X10190Y10563D01*
X10167Y10543D01*
X10156Y10533D01*
X10146Y10524D01*
X10138Y10516D01*
X10131Y10509D01*
X10130Y10508D01*
X10126Y10504D01*
X10120Y10497D01*
X10113Y10489D01*
X10105Y10479D01*
X10096Y10468D01*
X10088Y10456D01*
X10080Y10444D01*
X10567D01*
Y10327D01*
X9911D01*
Y10328D01*
Y10329D01*
Y10335D01*
Y10343D01*
X9912Y10354D01*
X9914Y10367D01*
X9916Y10381D01*
X9920Y10396D01*
X9925Y10411D01*
Y10412D01*
X9926Y10414D01*
X9928Y10418D01*
X9930Y10423D01*
X9933Y10429D01*
X9936Y10436D01*
X9944Y10453D01*
X9956Y10473D01*
X9969Y10495D01*
X9986Y10519D01*
X10005Y10543D01*
X10006Y10544D01*
X10008Y10546D01*
X10011Y10550D01*
X10015Y10555D01*
X10021Y10561D01*
X10028Y10568D01*
X10036Y10577D01*
X10046Y10586D01*
X10056Y10597D01*
X10068Y10608D01*
X10081Y10621D01*
X10095Y10634D01*
X10111Y10648D01*
X10127Y10662D01*
X10145Y10677D01*
X10164Y10693D01*
X10166Y10695D01*
X10171Y10699D01*
X10179Y10706D01*
X10190Y10715D01*
X10203Y10726D01*
X10218Y10739D01*
X10235Y10754D01*
X10252Y10770D01*
X10289Y10803D01*
X10325Y10839D01*
X10342Y10856D01*
X10357Y10873D01*
X10371Y10889D01*
X10383Y10904D01*
X10384Y10905D01*
X10386Y10907D01*
X10388Y10912D01*
X10392Y10917D01*
X10396Y10924D01*
X10401Y10932D01*
X10407Y10941D01*
X10412Y10951D01*
X10423Y10974D01*
X10432Y10999D01*
X10436Y11011D01*
X10439Y11025D01*
X10440Y11038D01*
X10441Y11051D01*
Y11052D01*
Y11054D01*
Y11058D01*
X10440Y11063D01*
X10439Y11069D01*
X10438Y11076D01*
X10435Y11093D01*
X10428Y11112D01*
X10419Y11133D01*
X10413Y11143D01*
X10406Y11153D01*
X10398Y11163D01*
X10389Y11173D01*
X10388Y11174D01*
X10387Y11175D01*
X10384Y11178D01*
X10380Y11181D01*
X10374Y11185D01*
X10368Y11189D01*
X10361Y11193D01*
X10353Y11198D01*
X10333Y11207D01*
X10310Y11215D01*
X10283Y11221D01*
X10268Y11222D01*
X10253Y11223D01*
X10245D01*
X10238Y11222D01*
X10231Y11221D01*
X10222Y11220D01*
X10202Y11216D01*
X10180Y11210D01*
X10156Y11201D01*
X10145Y11195D01*
X10133Y11188D01*
X10122Y11179D01*
X10112Y11170D01*
X10111Y11169D01*
X10110Y11168D01*
X10107Y11165D01*
X10104Y11160D01*
X10100Y11155D01*
X10095Y11148D01*
X10090Y11141D01*
X10086Y11132D01*
X10081Y11122D01*
X10076Y11111D01*
X10071Y11099D01*
X10067Y11086D01*
X10064Y11072D01*
X10061Y11057D01*
X10060Y11041D01*
X10059Y11024D01*
X9934Y11037D01*
Y11039D01*
X9935Y11043D01*
X9936Y11050D01*
X9937Y11060D01*
X9939Y11072D01*
X9942Y11085D01*
X9946Y11100D01*
X9951Y11116D01*
X9956Y11133D01*
X9963Y11151D01*
X9971Y11168D01*
X9980Y11186D01*
X9990Y11203D01*
X10002Y11220D01*
X10015Y11236D01*
X10030Y11250D01*
X10031Y11251D01*
X10034Y11253D01*
X10039Y11257D01*
X10045Y11262D01*
X10054Y11267D01*
X10064Y11273D01*
X10076Y11280D01*
X10090Y11287D01*
X10105Y11294D01*
X10122Y11301D01*
X10141Y11307D01*
X10161Y11312D01*
X10182Y11317D01*
X10206Y11321D01*
X10230Y11323D01*
X10256Y11324D01*
X10270D01*
X10280Y11323D01*
D02*
G37*
G36*
X12968D02*
X12977Y11322D01*
X12996Y11320D01*
X13017Y11316D01*
X13041Y11310D01*
X13065Y11302D01*
X13088Y11291D01*
X13089D01*
X13091Y11290D01*
X13094Y11288D01*
X13098Y11285D01*
X13109Y11278D01*
X13123Y11267D01*
X13139Y11254D01*
X13156Y11238D01*
X13173Y11220D01*
X13188Y11198D01*
Y11197D01*
X13190Y11195D01*
X13192Y11192D01*
X13194Y11187D01*
X13198Y11181D01*
X13202Y11174D01*
X13206Y11166D01*
X13210Y11157D01*
X13215Y11147D01*
X13220Y11136D01*
X13230Y11111D01*
X13240Y11082D01*
X13249Y11051D01*
Y11050D01*
X13250Y11047D01*
X13251Y11042D01*
X13253Y11035D01*
X13254Y11026D01*
X13256Y11016D01*
X13258Y11003D01*
X13261Y10989D01*
X13263Y10973D01*
X13265Y10955D01*
X13267Y10936D01*
X13268Y10915D01*
X13270Y10893D01*
X13271Y10869D01*
X13272Y10843D01*
Y10816D01*
Y10814D01*
Y10808D01*
Y10799D01*
X13271Y10787D01*
Y10772D01*
X13270Y10755D01*
X13269Y10736D01*
X13268Y10715D01*
X13266Y10693D01*
X13263Y10670D01*
X13257Y10623D01*
X13248Y10576D01*
X13242Y10554D01*
X13236Y10533D01*
Y10532D01*
X13234Y10528D01*
X13232Y10523D01*
X13229Y10515D01*
X13225Y10506D01*
X13221Y10496D01*
X13215Y10485D01*
X13209Y10472D01*
X13194Y10446D01*
X13175Y10418D01*
X13153Y10392D01*
X13141Y10379D01*
X13128Y10368D01*
X13127Y10367D01*
X13125Y10366D01*
X13121Y10363D01*
X13115Y10359D01*
X13108Y10355D01*
X13100Y10350D01*
X13090Y10344D01*
X13079Y10339D01*
X13067Y10334D01*
X13053Y10328D01*
X13038Y10323D01*
X13022Y10319D01*
X13005Y10315D01*
X12987Y10313D01*
X12968Y10311D01*
X12948Y10310D01*
X12942D01*
X12934Y10311D01*
X12924Y10312D01*
X12912Y10313D01*
X12898Y10315D01*
X12883Y10319D01*
X12866Y10323D01*
X12849Y10328D01*
X12830Y10335D01*
X12812Y10343D01*
X12793Y10353D01*
X12774Y10365D01*
X12756Y10378D01*
X12739Y10394D01*
X12723Y10412D01*
X12722Y10413D01*
X12719Y10418D01*
X12714Y10425D01*
X12708Y10436D01*
X12700Y10449D01*
X12692Y10466D01*
X12683Y10486D01*
X12674Y10509D01*
X12665Y10535D01*
X12656Y10565D01*
X12648Y10598D01*
X12640Y10635D01*
X12634Y10675D01*
X12629Y10718D01*
X12626Y10765D01*
X12625Y10816D01*
Y10817D01*
Y10818D01*
Y10824D01*
Y10833D01*
X12626Y10845D01*
Y10860D01*
X12627Y10877D01*
X12628Y10897D01*
X12630Y10918D01*
X12631Y10940D01*
X12634Y10963D01*
X12640Y11010D01*
X12649Y11057D01*
X12655Y11079D01*
X12661Y11100D01*
Y11101D01*
X12663Y11105D01*
X12665Y11110D01*
X12668Y11118D01*
X12672Y11127D01*
X12676Y11137D01*
X12682Y11149D01*
X12688Y11161D01*
X12703Y11188D01*
X12721Y11216D01*
X12743Y11242D01*
X12755Y11255D01*
X12768Y11266D01*
X12769Y11267D01*
X12771Y11269D01*
X12775Y11271D01*
X12781Y11275D01*
X12788Y11279D01*
X12797Y11284D01*
X12806Y11290D01*
X12818Y11295D01*
X12830Y11300D01*
X12844Y11306D01*
X12858Y11311D01*
X12874Y11315D01*
X12891Y11319D01*
X12909Y11322D01*
X12928Y11323D01*
X12948Y11324D01*
X12961D01*
X12968Y11323D01*
D02*
G37*
%LPC*%
G36*
X67556Y24223D02*
X67548D01*
X67542Y24222D01*
X67535Y24221D01*
X67527Y24219D01*
X67508Y24214D01*
X67497Y24210D01*
X67486Y24205D01*
X67475Y24200D01*
X67464Y24193D01*
X67452Y24184D01*
X67441Y24175D01*
X67431Y24164D01*
X67421Y24151D01*
X67420Y24150D01*
X67418Y24147D01*
X67415Y24141D01*
X67411Y24133D01*
X67407Y24123D01*
X67401Y24110D01*
X67396Y24094D01*
X67390Y24075D01*
X67384Y24054D01*
X67379Y24030D01*
X67373Y24002D01*
X67369Y23972D01*
X67365Y23938D01*
X67362Y23901D01*
X67360Y23860D01*
X67359Y23816D01*
Y23815D01*
Y23813D01*
Y23810D01*
Y23805D01*
Y23800D01*
Y23793D01*
X67360Y23776D01*
X67361Y23757D01*
X67362Y23734D01*
X67364Y23710D01*
X67366Y23683D01*
X67373Y23629D01*
X67378Y23602D01*
X67383Y23575D01*
X67390Y23550D01*
X67397Y23527D01*
X67406Y23507D01*
X67416Y23490D01*
X67417Y23489D01*
X67419Y23487D01*
X67422Y23483D01*
X67426Y23478D01*
X67432Y23471D01*
X67438Y23465D01*
X67446Y23457D01*
X67455Y23450D01*
X67476Y23435D01*
X67500Y23423D01*
X67513Y23417D01*
X67527Y23413D01*
X67542Y23411D01*
X67557Y23410D01*
X67561D01*
X67565Y23411D01*
X67571D01*
X67578Y23413D01*
X67587Y23414D01*
X67606Y23420D01*
X67617Y23424D01*
X67628Y23430D01*
X67640Y23436D01*
X67652Y23444D01*
X67664Y23453D01*
X67676Y23464D01*
X67687Y23477D01*
X67698Y23491D01*
X67699Y23492D01*
X67701Y23495D01*
X67703Y23500D01*
X67707Y23508D01*
X67711Y23517D01*
X67716Y23530D01*
X67722Y23544D01*
X67727Y23562D01*
X67732Y23583D01*
X67738Y23606D01*
X67743Y23633D01*
X67747Y23662D01*
X67751Y23695D01*
X67754Y23732D01*
X67755Y23772D01*
X67756Y23816D01*
Y23817D01*
Y23819D01*
Y23822D01*
Y23827D01*
Y23832D01*
Y23839D01*
X67755Y23856D01*
X67754Y23875D01*
X67753Y23898D01*
X67751Y23922D01*
X67749Y23949D01*
X67742Y24003D01*
X67737Y24031D01*
X67732Y24057D01*
X67725Y24082D01*
X67717Y24105D01*
X67708Y24125D01*
X67698Y24142D01*
X67697Y24143D01*
X67695Y24146D01*
X67692Y24150D01*
X67688Y24155D01*
X67682Y24161D01*
X67676Y24168D01*
X67668Y24175D01*
X67659Y24183D01*
X67638Y24197D01*
X67614Y24210D01*
X67601Y24216D01*
X67587Y24220D01*
X67572Y24222D01*
X67556Y24223D01*
D02*
G37*
G36*
X66785D02*
X66777D01*
X66771Y24222D01*
X66764Y24221D01*
X66756Y24219D01*
X66737Y24214D01*
X66726Y24210D01*
X66715Y24205D01*
X66704Y24200D01*
X66693Y24193D01*
X66681Y24184D01*
X66670Y24175D01*
X66660Y24164D01*
X66650Y24151D01*
X66649Y24150D01*
X66647Y24147D01*
X66644Y24141D01*
X66640Y24133D01*
X66636Y24123D01*
X66630Y24110D01*
X66625Y24094D01*
X66619Y24075D01*
X66613Y24054D01*
X66608Y24030D01*
X66602Y24002D01*
X66598Y23972D01*
X66594Y23938D01*
X66591Y23901D01*
X66589Y23860D01*
X66588Y23816D01*
Y23815D01*
Y23813D01*
Y23810D01*
Y23805D01*
Y23800D01*
Y23793D01*
X66589Y23776D01*
X66590Y23757D01*
X66591Y23734D01*
X66593Y23710D01*
X66595Y23683D01*
X66602Y23629D01*
X66607Y23602D01*
X66612Y23575D01*
X66619Y23550D01*
X66626Y23527D01*
X66635Y23507D01*
X66645Y23490D01*
X66646Y23489D01*
X66648Y23487D01*
X66651Y23483D01*
X66655Y23478D01*
X66661Y23471D01*
X66667Y23465D01*
X66675Y23457D01*
X66684Y23450D01*
X66705Y23435D01*
X66729Y23423D01*
X66742Y23417D01*
X66756Y23413D01*
X66771Y23411D01*
X66786Y23410D01*
X66790D01*
X66794Y23411D01*
X66800D01*
X66807Y23413D01*
X66816Y23414D01*
X66835Y23420D01*
X66846Y23424D01*
X66857Y23430D01*
X66869Y23436D01*
X66881Y23444D01*
X66893Y23453D01*
X66905Y23464D01*
X66916Y23477D01*
X66927Y23491D01*
X66928Y23492D01*
X66930Y23495D01*
X66932Y23500D01*
X66936Y23508D01*
X66940Y23517D01*
X66945Y23530D01*
X66951Y23544D01*
X66956Y23562D01*
X66961Y23583D01*
X66967Y23606D01*
X66972Y23633D01*
X66976Y23662D01*
X66980Y23695D01*
X66983Y23732D01*
X66984Y23772D01*
X66985Y23816D01*
Y23817D01*
Y23819D01*
Y23822D01*
Y23827D01*
Y23832D01*
Y23839D01*
X66984Y23856D01*
X66983Y23875D01*
X66982Y23898D01*
X66980Y23922D01*
X66978Y23949D01*
X66971Y24003D01*
X66966Y24031D01*
X66961Y24057D01*
X66954Y24082D01*
X66946Y24105D01*
X66937Y24125D01*
X66927Y24142D01*
X66926Y24143D01*
X66924Y24146D01*
X66921Y24150D01*
X66917Y24155D01*
X66911Y24161D01*
X66905Y24168D01*
X66897Y24175D01*
X66888Y24183D01*
X66867Y24197D01*
X66843Y24210D01*
X66830Y24216D01*
X66816Y24220D01*
X66801Y24222D01*
X66785Y24223D01*
D02*
G37*
G36*
X66853Y-5627D02*
X66542Y-6075D01*
X66853D01*
Y-5627D01*
D02*
G37*
G36*
X67556Y-5529D02*
X67548D01*
X67542Y-5530D01*
X67535Y-5531D01*
X67527Y-5533D01*
X67508Y-5538D01*
X67497Y-5542D01*
X67486Y-5547D01*
X67475Y-5552D01*
X67464Y-5559D01*
X67452Y-5568D01*
X67441Y-5577D01*
X67431Y-5588D01*
X67421Y-5601D01*
X67420Y-5602D01*
X67418Y-5605D01*
X67415Y-5611D01*
X67411Y-5619D01*
X67407Y-5629D01*
X67401Y-5642D01*
X67396Y-5658D01*
X67390Y-5677D01*
X67384Y-5698D01*
X67379Y-5722D01*
X67373Y-5750D01*
X67369Y-5780D01*
X67365Y-5814D01*
X67362Y-5851D01*
X67360Y-5892D01*
X67359Y-5936D01*
Y-5937D01*
Y-5939D01*
Y-5942D01*
Y-5947D01*
Y-5952D01*
Y-5959D01*
X67360Y-5976D01*
X67361Y-5995D01*
X67362Y-6018D01*
X67364Y-6042D01*
X67366Y-6069D01*
X67373Y-6123D01*
X67378Y-6150D01*
X67383Y-6177D01*
X67390Y-6202D01*
X67397Y-6225D01*
X67406Y-6245D01*
X67416Y-6262D01*
X67417Y-6263D01*
X67419Y-6265D01*
X67422Y-6269D01*
X67426Y-6274D01*
X67432Y-6281D01*
X67438Y-6287D01*
X67446Y-6295D01*
X67455Y-6302D01*
X67476Y-6317D01*
X67500Y-6329D01*
X67513Y-6335D01*
X67527Y-6339D01*
X67542Y-6341D01*
X67557Y-6342D01*
X67561D01*
X67565Y-6341D01*
X67571D01*
X67578Y-6339D01*
X67587Y-6338D01*
X67606Y-6332D01*
X67617Y-6328D01*
X67628Y-6322D01*
X67640Y-6316D01*
X67652Y-6308D01*
X67664Y-6299D01*
X67676Y-6288D01*
X67687Y-6275D01*
X67698Y-6261D01*
X67699Y-6260D01*
X67701Y-6257D01*
X67703Y-6252D01*
X67707Y-6244D01*
X67711Y-6235D01*
X67716Y-6222D01*
X67722Y-6208D01*
X67727Y-6190D01*
X67732Y-6169D01*
X67738Y-6146D01*
X67743Y-6119D01*
X67747Y-6090D01*
X67751Y-6057D01*
X67754Y-6020D01*
X67755Y-5980D01*
X67756Y-5936D01*
Y-5935D01*
Y-5933D01*
Y-5930D01*
Y-5925D01*
Y-5920D01*
Y-5913D01*
X67755Y-5896D01*
X67754Y-5877D01*
X67753Y-5854D01*
X67751Y-5830D01*
X67749Y-5803D01*
X67742Y-5749D01*
X67737Y-5721D01*
X67732Y-5695D01*
X67725Y-5670D01*
X67717Y-5647D01*
X67708Y-5627D01*
X67698Y-5610D01*
X67697Y-5609D01*
X67695Y-5606D01*
X67692Y-5602D01*
X67688Y-5597D01*
X67682Y-5591D01*
X67676Y-5584D01*
X67668Y-5577D01*
X67659Y-5569D01*
X67638Y-5555D01*
X67614Y-5542D01*
X67601Y-5536D01*
X67587Y-5532D01*
X67572Y-5530D01*
X67556Y-5529D01*
D02*
G37*
G36*
X34244Y18373D02*
X33933Y17925D01*
X34244D01*
Y18373D01*
D02*
G37*
G36*
X34947Y18471D02*
X34939D01*
X34933Y18470D01*
X34926Y18469D01*
X34918Y18467D01*
X34899Y18462D01*
X34888Y18458D01*
X34877Y18453D01*
X34866Y18448D01*
X34855Y18441D01*
X34843Y18432D01*
X34832Y18423D01*
X34822Y18412D01*
X34812Y18399D01*
X34811Y18398D01*
X34809Y18395D01*
X34806Y18389D01*
X34802Y18381D01*
X34798Y18371D01*
X34792Y18358D01*
X34787Y18342D01*
X34781Y18323D01*
X34775Y18302D01*
X34770Y18278D01*
X34764Y18250D01*
X34760Y18220D01*
X34756Y18186D01*
X34753Y18149D01*
X34751Y18108D01*
X34750Y18064D01*
Y18063D01*
Y18061D01*
Y18058D01*
Y18053D01*
Y18048D01*
Y18041D01*
X34751Y18024D01*
X34752Y18005D01*
X34753Y17982D01*
X34755Y17958D01*
X34757Y17931D01*
X34764Y17877D01*
X34769Y17850D01*
X34774Y17823D01*
X34781Y17798D01*
X34788Y17775D01*
X34797Y17755D01*
X34807Y17738D01*
X34808Y17737D01*
X34810Y17735D01*
X34813Y17731D01*
X34817Y17726D01*
X34823Y17719D01*
X34829Y17713D01*
X34837Y17705D01*
X34846Y17698D01*
X34867Y17683D01*
X34891Y17671D01*
X34904Y17665D01*
X34918Y17661D01*
X34933Y17659D01*
X34948Y17658D01*
X34952D01*
X34956Y17659D01*
X34962D01*
X34969Y17661D01*
X34978Y17662D01*
X34997Y17668D01*
X35008Y17672D01*
X35019Y17678D01*
X35031Y17684D01*
X35043Y17692D01*
X35055Y17701D01*
X35067Y17712D01*
X35078Y17725D01*
X35089Y17739D01*
X35090Y17740D01*
X35092Y17743D01*
X35094Y17748D01*
X35098Y17756D01*
X35102Y17765D01*
X35107Y17778D01*
X35113Y17792D01*
X35118Y17810D01*
X35123Y17831D01*
X35129Y17854D01*
X35134Y17881D01*
X35138Y17910D01*
X35142Y17943D01*
X35145Y17980D01*
X35146Y18020D01*
X35147Y18064D01*
Y18065D01*
Y18067D01*
Y18070D01*
Y18075D01*
Y18080D01*
Y18087D01*
X35146Y18104D01*
X35145Y18123D01*
X35144Y18146D01*
X35142Y18170D01*
X35140Y18197D01*
X35133Y18251D01*
X35128Y18279D01*
X35123Y18305D01*
X35116Y18330D01*
X35108Y18353D01*
X35099Y18373D01*
X35089Y18390D01*
X35088Y18391D01*
X35086Y18394D01*
X35083Y18398D01*
X35079Y18403D01*
X35073Y18409D01*
X35067Y18416D01*
X35059Y18423D01*
X35050Y18431D01*
X35029Y18445D01*
X35005Y18458D01*
X34992Y18464D01*
X34978Y18468D01*
X34963Y18470D01*
X34947Y18471D01*
D02*
G37*
G36*
X12244Y11125D02*
X11933Y10677D01*
X12244D01*
Y11125D01*
D02*
G37*
G36*
X12947Y11223D02*
X12939D01*
X12933Y11222D01*
X12926Y11221D01*
X12918Y11219D01*
X12899Y11214D01*
X12888Y11210D01*
X12877Y11205D01*
X12866Y11200D01*
X12855Y11193D01*
X12843Y11184D01*
X12832Y11175D01*
X12822Y11164D01*
X12812Y11151D01*
X12811Y11150D01*
X12809Y11147D01*
X12806Y11141D01*
X12802Y11133D01*
X12798Y11123D01*
X12792Y11110D01*
X12787Y11094D01*
X12781Y11075D01*
X12775Y11054D01*
X12770Y11030D01*
X12764Y11002D01*
X12760Y10972D01*
X12756Y10938D01*
X12753Y10901D01*
X12751Y10860D01*
X12750Y10816D01*
Y10815D01*
Y10813D01*
Y10810D01*
Y10805D01*
Y10800D01*
Y10793D01*
X12751Y10776D01*
X12752Y10757D01*
X12753Y10734D01*
X12755Y10710D01*
X12757Y10683D01*
X12764Y10629D01*
X12769Y10602D01*
X12774Y10575D01*
X12781Y10550D01*
X12788Y10527D01*
X12797Y10507D01*
X12807Y10490D01*
X12808Y10489D01*
X12810Y10487D01*
X12813Y10483D01*
X12817Y10478D01*
X12823Y10471D01*
X12829Y10465D01*
X12837Y10457D01*
X12846Y10450D01*
X12867Y10435D01*
X12891Y10423D01*
X12904Y10417D01*
X12918Y10413D01*
X12933Y10411D01*
X12948Y10410D01*
X12952D01*
X12956Y10411D01*
X12962D01*
X12969Y10413D01*
X12978Y10414D01*
X12997Y10420D01*
X13008Y10424D01*
X13019Y10430D01*
X13031Y10436D01*
X13043Y10444D01*
X13055Y10453D01*
X13067Y10464D01*
X13078Y10477D01*
X13089Y10491D01*
X13090Y10492D01*
X13092Y10495D01*
X13094Y10500D01*
X13098Y10508D01*
X13102Y10517D01*
X13107Y10530D01*
X13113Y10544D01*
X13118Y10562D01*
X13123Y10583D01*
X13129Y10606D01*
X13134Y10633D01*
X13138Y10662D01*
X13142Y10695D01*
X13145Y10732D01*
X13146Y10772D01*
X13147Y10816D01*
Y10817D01*
Y10819D01*
Y10822D01*
Y10827D01*
Y10832D01*
Y10839D01*
X13146Y10856D01*
X13145Y10875D01*
X13144Y10898D01*
X13142Y10922D01*
X13140Y10949D01*
X13133Y11003D01*
X13128Y11031D01*
X13123Y11057D01*
X13116Y11082D01*
X13108Y11105D01*
X13099Y11125D01*
X13089Y11142D01*
X13088Y11143D01*
X13086Y11146D01*
X13083Y11150D01*
X13079Y11155D01*
X13073Y11161D01*
X13067Y11168D01*
X13059Y11175D01*
X13050Y11183D01*
X13029Y11197D01*
X13005Y11210D01*
X12992Y11216D01*
X12978Y11220D01*
X12963Y11222D01*
X12947Y11223D01*
D02*
G37*
%LPD*%
D21*
X97008Y-8685D02*
Y3067D01*
X89508Y23201D02*
X89756Y23516D01*
X92008Y23827D01*
X90008D02*
X92008D01*
X89756Y24138D02*
X90008Y23827D01*
X89756Y24138D02*
X92008Y23827D01*
X89508Y23201D02*
X90008Y23827D01*
X89508Y24453D02*
X90008Y23827D01*
X89508Y24453D02*
X92008Y23827D01*
X89508Y23201D02*
X92008Y23827D01*
Y13587D02*
Y26587D01*
X94508Y-6547D02*
X94756Y-6236D01*
X97008Y-5921D01*
X95008D02*
X97008D01*
X94756Y-5610D02*
X95008Y-5921D01*
X94756Y-5610D02*
X97008Y-5921D01*
X94508Y-6547D02*
X95008Y-5921D01*
X94508Y-5299D02*
X95008Y-5921D01*
X94508Y-5299D02*
X97008Y-5921D01*
X94508Y-6547D02*
X97008Y-5921D01*
X70910Y23827D02*
X92008D01*
X70910Y-5921D02*
X97008D01*
X49508Y17453D02*
X49756Y17764D01*
X52008Y18079D01*
X50008D02*
X52008D01*
X49756Y18390D02*
X50008Y18079D01*
X49756Y18390D02*
X52008Y18079D01*
X49508Y17453D02*
X50008Y18079D01*
X49508Y18701D02*
X50008Y18079D01*
X49508Y18701D02*
X52008Y18079D01*
X49508Y17453D02*
X52008Y18079D01*
Y13587D02*
Y20839D01*
X44260Y24138D02*
X44508Y24453D01*
X42008Y23827D02*
X44260Y24138D01*
X42008Y23827D02*
X44008D01*
X44260Y23516D01*
X42008Y23827D02*
X44260Y23516D01*
X44008Y23827D02*
X44508Y24453D01*
X44008Y23827D02*
X44508Y23201D01*
X42008Y23827D02*
X44508Y23201D01*
X42008Y23827D02*
X44508Y24453D01*
X42008Y23827D02*
X63106D01*
X42008Y18079D02*
X52008D01*
X44260Y18390D02*
X44508Y18701D01*
X42008Y18079D02*
X44260Y18390D01*
X42008Y18079D02*
X44008D01*
X44260Y17764D01*
X42008Y18079D02*
X44260Y17764D01*
X44008Y18079D02*
X44508Y18701D01*
X44008Y18079D02*
X44508Y17453D01*
X42008Y18079D02*
X44508Y17453D01*
X42008Y18079D02*
X44508Y18701D01*
X37858Y18079D02*
X42008D01*
Y13587D02*
Y26587D01*
Y13587D02*
Y20839D01*
X39260Y-5610D02*
X39508Y-5299D01*
X37008Y-5921D02*
X39260Y-5610D01*
X37008Y-5921D02*
X39008D01*
X39260Y-6236D01*
X37008Y-5921D02*
X39260Y-6236D01*
X39008Y-5921D02*
X39508Y-5299D01*
X39008Y-5921D02*
X39508Y-6547D01*
X37008Y-5921D02*
X39508Y-6547D01*
X37008Y-5921D02*
X39508Y-5299D01*
X37008Y-5921D02*
X63106D01*
X37008Y-8685D02*
Y3067D01*
X12819Y13575D02*
X13134Y13327D01*
X12508Y15827D02*
X12819Y13575D01*
X12508Y13827D02*
Y15827D01*
X12197Y13575D02*
X12508Y13827D01*
X12197Y13575D02*
X12508Y15827D01*
Y13827D02*
X13134Y13327D01*
X11882D02*
X12508Y13827D01*
X11882Y13327D02*
X12508Y15827D01*
X13134Y13327D01*
X12508Y12079D02*
Y15827D01*
X11882Y8327D02*
X12197Y8079D01*
X12508Y5827D01*
Y7827D01*
X12819Y8079D01*
X12508Y5827D02*
X12819Y8079D01*
X11882Y8327D02*
X12508Y7827D01*
X13134Y8327D01*
X12508Y5827D02*
X13134Y8327D01*
X11882D02*
X12508Y5827D01*
Y9575D01*
X9748Y5827D02*
X34248D01*
X9748Y15827D02*
X34248D01*
M02*
