G04*
G04 #@! TF.GenerationSoftware,Altium Limited,Altium Designer,23.7.1 (13)*
G04*
G04 Layer_Color=32896*
%FSLAX25Y25*%
%MOIN*%
G70*
G04*
G04 #@! TF.SameCoordinates,2AD03240-4C21-4CDD-82D0-605F0999EC7E*
G04*
G04*
G04 #@! TF.FilePolarity,Positive*
G04*
G01*
G75*
%ADD10C,0.00787*%
%ADD12C,0.00984*%
%ADD60C,0.02362*%
G36*
X35547Y53078D02*
X35103Y53016D01*
X35064Y53078D01*
X35014Y53127D01*
X34969Y53177D01*
X34925Y53216D01*
X34881Y53244D01*
X34847Y53272D01*
X34825Y53283D01*
X34820Y53288D01*
X34747Y53322D01*
X34675Y53349D01*
X34609Y53366D01*
X34542Y53383D01*
X34487Y53388D01*
X34442Y53394D01*
X34337D01*
X34270Y53383D01*
X34154Y53355D01*
X34054Y53316D01*
X33965Y53277D01*
X33898Y53233D01*
X33848Y53194D01*
X33821Y53166D01*
X33810Y53161D01*
Y53155D01*
X33732Y53061D01*
X33676Y52961D01*
X33637Y52855D01*
X33610Y52750D01*
X33593Y52661D01*
X33588Y52622D01*
Y52589D01*
X33582Y52561D01*
Y52539D01*
Y52528D01*
Y52522D01*
Y52445D01*
X33593Y52373D01*
X33621Y52234D01*
X33660Y52117D01*
X33698Y52023D01*
X33743Y51945D01*
X33782Y51884D01*
X33798Y51868D01*
X33810Y51851D01*
X33815Y51845D01*
X33821Y51840D01*
X33865Y51795D01*
X33909Y51757D01*
X34009Y51690D01*
X34104Y51646D01*
X34198Y51618D01*
X34276Y51596D01*
X34342Y51590D01*
X34365Y51585D01*
X34398D01*
X34503Y51590D01*
X34598Y51612D01*
X34681Y51640D01*
X34747Y51673D01*
X34808Y51707D01*
X34853Y51734D01*
X34875Y51757D01*
X34886Y51762D01*
X34953Y51840D01*
X35008Y51923D01*
X35053Y52017D01*
X35086Y52101D01*
X35108Y52184D01*
X35125Y52245D01*
X35130Y52273D01*
X35136Y52289D01*
Y52301D01*
Y52306D01*
X35630Y52267D01*
X35619Y52178D01*
X35602Y52095D01*
X35552Y51940D01*
X35491Y51806D01*
X35458Y51745D01*
X35425Y51696D01*
X35397Y51646D01*
X35364Y51601D01*
X35336Y51568D01*
X35308Y51540D01*
X35286Y51518D01*
X35275Y51496D01*
X35264Y51490D01*
X35258Y51485D01*
X35192Y51435D01*
X35125Y51390D01*
X35053Y51351D01*
X34981Y51318D01*
X34842Y51268D01*
X34703Y51235D01*
X34642Y51218D01*
X34581Y51213D01*
X34531Y51207D01*
X34487Y51202D01*
X34448Y51196D01*
X34398D01*
X34281Y51202D01*
X34170Y51218D01*
X34065Y51240D01*
X33970Y51268D01*
X33882Y51307D01*
X33798Y51346D01*
X33721Y51385D01*
X33654Y51429D01*
X33593Y51473D01*
X33538Y51512D01*
X33493Y51557D01*
X33454Y51590D01*
X33427Y51618D01*
X33404Y51640D01*
X33393Y51657D01*
X33388Y51662D01*
X33332Y51734D01*
X33288Y51812D01*
X33243Y51884D01*
X33210Y51962D01*
X33155Y52112D01*
X33121Y52256D01*
X33110Y52317D01*
X33099Y52378D01*
X33094Y52428D01*
X33088Y52473D01*
X33083Y52511D01*
Y52539D01*
Y52556D01*
Y52561D01*
X33088Y52661D01*
X33099Y52756D01*
X33116Y52850D01*
X33138Y52933D01*
X33166Y53011D01*
X33193Y53089D01*
X33227Y53155D01*
X33255Y53216D01*
X33288Y53272D01*
X33321Y53322D01*
X33349Y53360D01*
X33377Y53399D01*
X33399Y53427D01*
X33415Y53444D01*
X33427Y53455D01*
X33432Y53460D01*
X33499Y53522D01*
X33565Y53577D01*
X33637Y53621D01*
X33710Y53660D01*
X33782Y53699D01*
X33854Y53727D01*
X33987Y53766D01*
X34048Y53782D01*
X34104Y53793D01*
X34154Y53799D01*
X34198Y53804D01*
X34231Y53810D01*
X34353D01*
X34420Y53799D01*
X34553Y53771D01*
X34675Y53732D01*
X34786Y53688D01*
X34875Y53644D01*
X34914Y53621D01*
X34947Y53605D01*
X34975Y53588D01*
X34992Y53577D01*
X35003Y53571D01*
X35008Y53566D01*
X34803Y54604D01*
X33266D01*
Y55053D01*
X35175D01*
X35547Y53078D01*
D02*
G37*
G36*
X31362Y51263D02*
X30829D01*
X29331Y55103D01*
X29847D01*
X30890Y52312D01*
X30935Y52195D01*
X30974Y52084D01*
X31007Y51979D01*
X31034Y51884D01*
X31062Y51801D01*
X31079Y51740D01*
X31084Y51718D01*
X31090Y51701D01*
X31096Y51690D01*
Y51684D01*
X31162Y51906D01*
X31196Y52012D01*
X31229Y52106D01*
X31256Y52189D01*
X31268Y52223D01*
X31273Y52256D01*
X31284Y52278D01*
X31290Y52295D01*
X31295Y52306D01*
Y52312D01*
X32294Y55103D01*
X32849D01*
X31362Y51263D01*
D02*
G37*
G36*
X124139Y56065D02*
X124233Y56060D01*
X124322Y56043D01*
X124405Y56026D01*
X124483Y56004D01*
X124555Y55982D01*
X124622Y55954D01*
X124683Y55927D01*
X124738Y55899D01*
X124783Y55871D01*
X124821Y55849D01*
X124855Y55827D01*
X124883Y55810D01*
X124899Y55793D01*
X124910Y55788D01*
X124916Y55782D01*
X124971Y55727D01*
X125021Y55666D01*
X125071Y55599D01*
X125110Y55532D01*
X125177Y55399D01*
X125221Y55266D01*
X125238Y55205D01*
X125254Y55144D01*
X125266Y55094D01*
X125277Y55050D01*
X125282Y55011D01*
Y54983D01*
X125288Y54966D01*
Y54961D01*
X124805Y54911D01*
X124794Y55038D01*
X124772Y55150D01*
X124738Y55249D01*
X124699Y55327D01*
X124666Y55394D01*
X124633Y55438D01*
X124611Y55466D01*
X124600Y55477D01*
X124516Y55544D01*
X124427Y55594D01*
X124333Y55632D01*
X124250Y55655D01*
X124172Y55671D01*
X124106Y55677D01*
X124083Y55682D01*
X124050D01*
X123933Y55677D01*
X123828Y55655D01*
X123739Y55621D01*
X123662Y55588D01*
X123600Y55549D01*
X123562Y55521D01*
X123534Y55499D01*
X123523Y55488D01*
X123456Y55410D01*
X123406Y55333D01*
X123367Y55255D01*
X123345Y55177D01*
X123329Y55116D01*
X123323Y55061D01*
X123318Y55027D01*
Y55022D01*
Y55016D01*
X123329Y54916D01*
X123351Y54811D01*
X123390Y54717D01*
X123428Y54628D01*
X123473Y54556D01*
X123512Y54495D01*
X123523Y54472D01*
X123534Y54456D01*
X123545Y54450D01*
Y54445D01*
X123589Y54384D01*
X123645Y54323D01*
X123706Y54256D01*
X123773Y54189D01*
X123911Y54056D01*
X124050Y53923D01*
X124122Y53862D01*
X124183Y53806D01*
X124244Y53756D01*
X124294Y53712D01*
X124333Y53679D01*
X124366Y53651D01*
X124389Y53634D01*
X124394Y53629D01*
X124533Y53512D01*
X124661Y53401D01*
X124766Y53301D01*
X124849Y53218D01*
X124921Y53146D01*
X124971Y53096D01*
X124999Y53063D01*
X125010Y53057D01*
Y53052D01*
X125088Y52957D01*
X125149Y52868D01*
X125205Y52780D01*
X125249Y52702D01*
X125282Y52635D01*
X125304Y52585D01*
X125315Y52552D01*
X125321Y52547D01*
Y52541D01*
X125343Y52480D01*
X125354Y52425D01*
X125365Y52369D01*
X125371Y52319D01*
X125376Y52275D01*
Y52241D01*
Y52219D01*
Y52214D01*
X122829D01*
Y52669D01*
X124722D01*
X124655Y52763D01*
X124622Y52802D01*
X124594Y52841D01*
X124566Y52874D01*
X124544Y52896D01*
X124527Y52913D01*
X124522Y52918D01*
X124494Y52946D01*
X124461Y52974D01*
X124383Y53046D01*
X124294Y53129D01*
X124200Y53213D01*
X124111Y53285D01*
X124072Y53318D01*
X124039Y53351D01*
X124011Y53373D01*
X123989Y53390D01*
X123978Y53401D01*
X123972Y53407D01*
X123884Y53484D01*
X123795Y53557D01*
X123717Y53629D01*
X123645Y53690D01*
X123578Y53751D01*
X123523Y53806D01*
X123467Y53856D01*
X123423Y53901D01*
X123379Y53945D01*
X123345Y53979D01*
X123318Y54006D01*
X123290Y54034D01*
X123262Y54067D01*
X123251Y54078D01*
X123173Y54173D01*
X123107Y54256D01*
X123051Y54339D01*
X123007Y54406D01*
X122973Y54467D01*
X122951Y54511D01*
X122940Y54539D01*
X122934Y54550D01*
X122901Y54633D01*
X122879Y54717D01*
X122857Y54794D01*
X122846Y54861D01*
X122840Y54922D01*
X122835Y54966D01*
Y54994D01*
Y55005D01*
X122840Y55089D01*
X122851Y55166D01*
X122862Y55244D01*
X122885Y55310D01*
X122940Y55444D01*
X122996Y55549D01*
X123029Y55599D01*
X123057Y55638D01*
X123084Y55677D01*
X123112Y55704D01*
X123134Y55727D01*
X123145Y55749D01*
X123156Y55755D01*
X123162Y55760D01*
X123223Y55816D01*
X123290Y55866D01*
X123362Y55904D01*
X123434Y55938D01*
X123578Y55993D01*
X123723Y56032D01*
X123784Y56043D01*
X123845Y56054D01*
X123900Y56060D01*
X123945Y56065D01*
X123984Y56071D01*
X124039D01*
X124139Y56065D01*
D02*
G37*
G36*
X127513Y56110D02*
X127691Y56082D01*
X127846Y56049D01*
X127918Y56026D01*
X127985Y56004D01*
X128046Y55982D01*
X128102Y55960D01*
X128146Y55943D01*
X128190Y55927D01*
X128218Y55910D01*
X128240Y55899D01*
X128257Y55893D01*
X128262Y55888D01*
X128412Y55793D01*
X128540Y55682D01*
X128651Y55571D01*
X128745Y55460D01*
X128817Y55360D01*
X128845Y55316D01*
X128867Y55277D01*
X128890Y55249D01*
X128901Y55227D01*
X128906Y55211D01*
X128912Y55205D01*
X128990Y55033D01*
X129045Y54855D01*
X129084Y54678D01*
X129112Y54517D01*
X129123Y54445D01*
X129128Y54373D01*
X129134Y54317D01*
Y54261D01*
X129139Y54223D01*
Y54189D01*
Y54167D01*
Y54162D01*
X129128Y53962D01*
X129106Y53768D01*
X129078Y53596D01*
X129056Y53512D01*
X129040Y53440D01*
X129023Y53373D01*
X129001Y53312D01*
X128984Y53257D01*
X128973Y53213D01*
X128956Y53179D01*
X128951Y53152D01*
X128940Y53135D01*
Y53129D01*
X128856Y52963D01*
X128762Y52813D01*
X128662Y52685D01*
X128612Y52635D01*
X128568Y52585D01*
X128523Y52541D01*
X128479Y52502D01*
X128440Y52469D01*
X128407Y52447D01*
X128385Y52425D01*
X128362Y52408D01*
X128351Y52402D01*
X128346Y52397D01*
X128268Y52352D01*
X128190Y52314D01*
X128024Y52252D01*
X127857Y52208D01*
X127696Y52180D01*
X127619Y52169D01*
X127552Y52158D01*
X127491Y52153D01*
X127441D01*
X127397Y52147D01*
X127336D01*
X127225Y52153D01*
X127119Y52164D01*
X127019Y52175D01*
X126925Y52197D01*
X126836Y52225D01*
X126753Y52252D01*
X126675Y52280D01*
X126603Y52314D01*
X126542Y52341D01*
X126481Y52369D01*
X126437Y52397D01*
X126392Y52425D01*
X126364Y52447D01*
X126337Y52458D01*
X126326Y52469D01*
X126320Y52474D01*
X126242Y52541D01*
X126176Y52608D01*
X126115Y52685D01*
X126054Y52763D01*
X125954Y52918D01*
X125876Y53074D01*
X125843Y53146D01*
X125815Y53213D01*
X125793Y53274D01*
X125776Y53324D01*
X125759Y53368D01*
X125748Y53401D01*
X125743Y53424D01*
Y53429D01*
X126253Y53557D01*
X126276Y53468D01*
X126303Y53385D01*
X126331Y53307D01*
X126359Y53235D01*
X126392Y53168D01*
X126426Y53113D01*
X126464Y53057D01*
X126498Y53007D01*
X126525Y52963D01*
X126559Y52930D01*
X126586Y52896D01*
X126609Y52868D01*
X126631Y52852D01*
X126647Y52835D01*
X126653Y52830D01*
X126659Y52824D01*
X126714Y52780D01*
X126775Y52746D01*
X126897Y52685D01*
X127014Y52641D01*
X127130Y52613D01*
X127230Y52591D01*
X127269Y52585D01*
X127308D01*
X127341Y52580D01*
X127380D01*
X127508Y52585D01*
X127630Y52608D01*
X127741Y52635D01*
X127841Y52669D01*
X127918Y52702D01*
X127952Y52719D01*
X127980Y52730D01*
X128002Y52741D01*
X128018Y52752D01*
X128029Y52758D01*
X128035D01*
X128140Y52835D01*
X128229Y52918D01*
X128307Y53013D01*
X128368Y53102D01*
X128418Y53179D01*
X128451Y53246D01*
X128462Y53274D01*
X128473Y53290D01*
X128479Y53301D01*
Y53307D01*
X128523Y53451D01*
X128557Y53596D01*
X128584Y53740D01*
X128601Y53873D01*
X128607Y53934D01*
X128612Y53990D01*
Y54040D01*
X128618Y54078D01*
Y54112D01*
Y54139D01*
Y54156D01*
Y54162D01*
X128612Y54306D01*
X128601Y54439D01*
X128579Y54561D01*
X128557Y54672D01*
X128540Y54767D01*
X128529Y54805D01*
X128518Y54839D01*
X128512Y54866D01*
X128507Y54883D01*
X128501Y54894D01*
Y54900D01*
X128446Y55027D01*
X128385Y55144D01*
X128318Y55238D01*
X128246Y55322D01*
X128185Y55388D01*
X128135Y55433D01*
X128096Y55460D01*
X128091Y55471D01*
X128085D01*
X127968Y55544D01*
X127841Y55599D01*
X127719Y55638D01*
X127602Y55660D01*
X127497Y55677D01*
X127452Y55682D01*
X127413D01*
X127386Y55688D01*
X127341D01*
X127202Y55682D01*
X127075Y55660D01*
X126969Y55627D01*
X126875Y55594D01*
X126803Y55555D01*
X126747Y55527D01*
X126714Y55505D01*
X126703Y55494D01*
X126614Y55410D01*
X126531Y55316D01*
X126464Y55216D01*
X126409Y55116D01*
X126364Y55027D01*
X126348Y54983D01*
X126337Y54950D01*
X126326Y54922D01*
X126314Y54900D01*
X126309Y54889D01*
Y54883D01*
X125809Y55000D01*
X125843Y55100D01*
X125876Y55188D01*
X125920Y55272D01*
X125959Y55355D01*
X126004Y55427D01*
X126054Y55494D01*
X126098Y55560D01*
X126142Y55616D01*
X126187Y55660D01*
X126226Y55704D01*
X126265Y55743D01*
X126292Y55771D01*
X126320Y55799D01*
X126342Y55816D01*
X126353Y55821D01*
X126359Y55827D01*
X126437Y55877D01*
X126514Y55927D01*
X126592Y55965D01*
X126675Y55999D01*
X126842Y56049D01*
X126992Y56082D01*
X127064Y56099D01*
X127125Y56104D01*
X127186Y56110D01*
X127236Y56115D01*
X127275Y56121D01*
X127330D01*
X127513Y56110D01*
D02*
G37*
G36*
X124527Y40228D02*
X124588Y40140D01*
X124660Y40051D01*
X124726Y39973D01*
X124793Y39906D01*
X124843Y39851D01*
X124865Y39834D01*
X124882Y39818D01*
X124887Y39812D01*
X124893Y39807D01*
X125009Y39712D01*
X125126Y39623D01*
X125237Y39546D01*
X125348Y39485D01*
X125442Y39429D01*
X125481Y39407D01*
X125514Y39390D01*
X125542Y39374D01*
X125564Y39368D01*
X125575Y39357D01*
X125581D01*
Y38902D01*
X125498Y38935D01*
X125415Y38974D01*
X125331Y39013D01*
X125253Y39052D01*
X125187Y39085D01*
X125131Y39113D01*
X125098Y39135D01*
X125093Y39141D01*
X125087D01*
X124987Y39202D01*
X124898Y39263D01*
X124821Y39318D01*
X124760Y39368D01*
X124704Y39407D01*
X124671Y39440D01*
X124643Y39463D01*
X124637Y39468D01*
Y36465D01*
X124166D01*
Y40323D01*
X124471D01*
X124527Y40228D01*
D02*
G37*
G36*
X128145Y40362D02*
X128323Y40334D01*
X128478Y40301D01*
X128550Y40278D01*
X128617Y40256D01*
X128678Y40234D01*
X128733Y40212D01*
X128778Y40195D01*
X128822Y40178D01*
X128850Y40162D01*
X128872Y40151D01*
X128889Y40145D01*
X128894Y40140D01*
X129044Y40045D01*
X129172Y39934D01*
X129283Y39823D01*
X129377Y39712D01*
X129449Y39612D01*
X129477Y39568D01*
X129499Y39529D01*
X129522Y39501D01*
X129533Y39479D01*
X129538Y39463D01*
X129544Y39457D01*
X129621Y39285D01*
X129677Y39107D01*
X129716Y38930D01*
X129744Y38769D01*
X129755Y38697D01*
X129760Y38625D01*
X129766Y38569D01*
Y38513D01*
X129771Y38475D01*
Y38441D01*
Y38419D01*
Y38414D01*
X129760Y38214D01*
X129738Y38019D01*
X129710Y37848D01*
X129688Y37764D01*
X129671Y37692D01*
X129655Y37626D01*
X129632Y37564D01*
X129616Y37509D01*
X129605Y37464D01*
X129588Y37431D01*
X129583Y37404D01*
X129571Y37387D01*
Y37381D01*
X129488Y37215D01*
X129394Y37065D01*
X129294Y36937D01*
X129244Y36887D01*
X129200Y36837D01*
X129155Y36793D01*
X129111Y36754D01*
X129072Y36721D01*
X129039Y36699D01*
X129016Y36676D01*
X128994Y36660D01*
X128983Y36654D01*
X128978Y36649D01*
X128900Y36604D01*
X128822Y36565D01*
X128656Y36504D01*
X128489Y36460D01*
X128328Y36432D01*
X128251Y36421D01*
X128184Y36410D01*
X128123Y36404D01*
X128073D01*
X128029Y36399D01*
X127968D01*
X127857Y36404D01*
X127751Y36416D01*
X127651Y36427D01*
X127557Y36449D01*
X127468Y36477D01*
X127385Y36504D01*
X127307Y36532D01*
X127235Y36565D01*
X127174Y36593D01*
X127113Y36621D01*
X127068Y36649D01*
X127024Y36676D01*
X126996Y36699D01*
X126969Y36710D01*
X126957Y36721D01*
X126952Y36726D01*
X126874Y36793D01*
X126807Y36860D01*
X126746Y36937D01*
X126685Y37015D01*
X126585Y37170D01*
X126508Y37326D01*
X126474Y37398D01*
X126447Y37464D01*
X126425Y37526D01*
X126408Y37576D01*
X126391Y37620D01*
X126380Y37653D01*
X126375Y37675D01*
Y37681D01*
X126885Y37809D01*
X126907Y37720D01*
X126935Y37637D01*
X126963Y37559D01*
X126991Y37487D01*
X127024Y37420D01*
X127057Y37365D01*
X127096Y37309D01*
X127129Y37259D01*
X127157Y37215D01*
X127190Y37181D01*
X127218Y37148D01*
X127241Y37120D01*
X127263Y37104D01*
X127279Y37087D01*
X127285Y37082D01*
X127290Y37076D01*
X127346Y37032D01*
X127407Y36998D01*
X127529Y36937D01*
X127646Y36893D01*
X127762Y36865D01*
X127862Y36843D01*
X127901Y36837D01*
X127940D01*
X127973Y36832D01*
X128012D01*
X128140Y36837D01*
X128262Y36860D01*
X128373Y36887D01*
X128473Y36921D01*
X128550Y36954D01*
X128584Y36971D01*
X128611Y36982D01*
X128633Y36993D01*
X128650Y37004D01*
X128661Y37009D01*
X128667D01*
X128772Y37087D01*
X128861Y37170D01*
X128939Y37265D01*
X129000Y37354D01*
X129050Y37431D01*
X129083Y37498D01*
X129094Y37526D01*
X129105Y37542D01*
X129111Y37553D01*
Y37559D01*
X129155Y37703D01*
X129189Y37848D01*
X129216Y37992D01*
X129233Y38125D01*
X129238Y38186D01*
X129244Y38241D01*
Y38291D01*
X129250Y38330D01*
Y38364D01*
Y38391D01*
Y38408D01*
Y38414D01*
X129244Y38558D01*
X129233Y38691D01*
X129211Y38813D01*
X129189Y38924D01*
X129172Y39018D01*
X129161Y39057D01*
X129150Y39091D01*
X129144Y39118D01*
X129139Y39135D01*
X129133Y39146D01*
Y39152D01*
X129077Y39279D01*
X129016Y39396D01*
X128950Y39490D01*
X128878Y39573D01*
X128817Y39640D01*
X128767Y39685D01*
X128728Y39712D01*
X128722Y39723D01*
X128717D01*
X128600Y39796D01*
X128473Y39851D01*
X128350Y39890D01*
X128234Y39912D01*
X128128Y39929D01*
X128084Y39934D01*
X128045D01*
X128017Y39940D01*
X127973D01*
X127834Y39934D01*
X127707Y39912D01*
X127601Y39879D01*
X127507Y39845D01*
X127435Y39807D01*
X127379Y39779D01*
X127346Y39757D01*
X127335Y39746D01*
X127246Y39662D01*
X127163Y39568D01*
X127096Y39468D01*
X127041Y39368D01*
X126996Y39279D01*
X126980Y39235D01*
X126969Y39202D01*
X126957Y39174D01*
X126946Y39152D01*
X126941Y39141D01*
Y39135D01*
X126441Y39252D01*
X126474Y39351D01*
X126508Y39440D01*
X126552Y39524D01*
X126591Y39607D01*
X126636Y39679D01*
X126685Y39746D01*
X126730Y39812D01*
X126774Y39868D01*
X126819Y39912D01*
X126857Y39957D01*
X126896Y39995D01*
X126924Y40023D01*
X126952Y40051D01*
X126974Y40067D01*
X126985Y40073D01*
X126991Y40079D01*
X127068Y40128D01*
X127146Y40178D01*
X127224Y40217D01*
X127307Y40251D01*
X127474Y40301D01*
X127623Y40334D01*
X127696Y40350D01*
X127757Y40356D01*
X127818Y40362D01*
X127868Y40367D01*
X127906Y40373D01*
X127962D01*
X128145Y40362D01*
D02*
G37*
G36*
X50708Y104997D02*
X50197D01*
Y106701D01*
X49543D01*
X49482Y106695D01*
X49437D01*
X49398Y106690D01*
X49371Y106684D01*
X49348D01*
X49337Y106678D01*
X49332D01*
X49243Y106651D01*
X49204Y106634D01*
X49171Y106617D01*
X49137Y106601D01*
X49115Y106590D01*
X49104Y106584D01*
X49099Y106579D01*
X49054Y106545D01*
X49010Y106507D01*
X48927Y106423D01*
X48888Y106384D01*
X48860Y106351D01*
X48843Y106329D01*
X48838Y106323D01*
X48782Y106246D01*
X48721Y106162D01*
X48660Y106074D01*
X48599Y105990D01*
X48549Y105913D01*
X48510Y105852D01*
X48494Y105829D01*
X48483Y105813D01*
X48472Y105802D01*
Y105796D01*
X47966Y104997D01*
X47334D01*
X47994Y106040D01*
X48072Y106151D01*
X48144Y106251D01*
X48216Y106334D01*
X48277Y106412D01*
X48333Y106468D01*
X48377Y106512D01*
X48405Y106540D01*
X48416Y106551D01*
X48460Y106584D01*
X48510Y106623D01*
X48610Y106684D01*
X48655Y106706D01*
X48688Y106728D01*
X48710Y106740D01*
X48721Y106745D01*
X48621Y106762D01*
X48527Y106778D01*
X48444Y106806D01*
X48360Y106828D01*
X48288Y106856D01*
X48222Y106889D01*
X48161Y106917D01*
X48105Y106945D01*
X48061Y106978D01*
X48016Y107006D01*
X47983Y107028D01*
X47955Y107050D01*
X47933Y107067D01*
X47916Y107084D01*
X47911Y107089D01*
X47905Y107095D01*
X47861Y107150D01*
X47817Y107206D01*
X47750Y107322D01*
X47706Y107439D01*
X47672Y107550D01*
X47650Y107644D01*
X47644Y107683D01*
Y107722D01*
X47639Y107750D01*
Y107772D01*
Y107783D01*
Y107789D01*
X47644Y107905D01*
X47661Y108010D01*
X47689Y108110D01*
X47717Y108194D01*
X47750Y108266D01*
X47772Y108321D01*
X47794Y108355D01*
X47800Y108360D01*
Y108366D01*
X47866Y108455D01*
X47933Y108532D01*
X48005Y108599D01*
X48072Y108649D01*
X48133Y108688D01*
X48183Y108710D01*
X48216Y108727D01*
X48222Y108732D01*
X48227D01*
X48277Y108749D01*
X48338Y108765D01*
X48460Y108793D01*
X48594Y108810D01*
X48716Y108826D01*
X48832Y108832D01*
X48882D01*
X48927Y108837D01*
X50708D01*
Y104997D01*
D02*
G37*
G36*
X46834D02*
X43965D01*
Y105452D01*
X46324D01*
Y106756D01*
X44198D01*
Y107211D01*
X46324D01*
Y108382D01*
X44054D01*
Y108837D01*
X46834D01*
Y104997D01*
D02*
G37*
G36*
X42083Y108898D02*
X42211Y108882D01*
X42333Y108860D01*
X42439Y108837D01*
X42522Y108815D01*
X42561Y108804D01*
X42588Y108793D01*
X42611Y108782D01*
X42627Y108776D01*
X42638Y108771D01*
X42644D01*
X42755Y108715D01*
X42855Y108654D01*
X42938Y108588D01*
X43005Y108527D01*
X43055Y108471D01*
X43093Y108427D01*
X43121Y108394D01*
X43127Y108388D01*
Y108382D01*
X43182Y108288D01*
X43221Y108194D01*
X43249Y108099D01*
X43266Y108016D01*
X43277Y107944D01*
X43288Y107888D01*
Y107866D01*
Y107850D01*
Y107844D01*
Y107838D01*
X43282Y107744D01*
X43266Y107655D01*
X43243Y107572D01*
X43221Y107500D01*
X43199Y107444D01*
X43177Y107400D01*
X43160Y107372D01*
X43155Y107361D01*
X43099Y107283D01*
X43033Y107211D01*
X42966Y107150D01*
X42899Y107100D01*
X42844Y107056D01*
X42794Y107028D01*
X42761Y107006D01*
X42755Y107000D01*
X42749D01*
X42705Y106978D01*
X42655Y106956D01*
X42544Y106917D01*
X42416Y106878D01*
X42294Y106840D01*
X42183Y106806D01*
X42133Y106795D01*
X42089Y106784D01*
X42056Y106773D01*
X42028Y106767D01*
X42011Y106762D01*
X42006D01*
X41911Y106740D01*
X41823Y106717D01*
X41745Y106695D01*
X41678Y106678D01*
X41612Y106662D01*
X41556Y106645D01*
X41506Y106634D01*
X41467Y106617D01*
X41429Y106606D01*
X41401Y106601D01*
X41356Y106584D01*
X41329Y106579D01*
X41323Y106573D01*
X41240Y106540D01*
X41168Y106501D01*
X41107Y106462D01*
X41062Y106429D01*
X41023Y106395D01*
X41001Y106373D01*
X40984Y106357D01*
X40979Y106351D01*
X40940Y106301D01*
X40912Y106246D01*
X40896Y106190D01*
X40879Y106146D01*
X40874Y106101D01*
X40868Y106068D01*
Y106040D01*
Y106035D01*
X40874Y105968D01*
X40885Y105907D01*
X40901Y105852D01*
X40924Y105807D01*
X40946Y105763D01*
X40962Y105735D01*
X40973Y105713D01*
X40979Y105707D01*
X41023Y105652D01*
X41079Y105607D01*
X41134Y105569D01*
X41184Y105530D01*
X41234Y105508D01*
X41273Y105485D01*
X41301Y105474D01*
X41312Y105469D01*
X41395Y105441D01*
X41484Y105419D01*
X41573Y105408D01*
X41651Y105396D01*
X41717Y105391D01*
X41773Y105385D01*
X41823D01*
X41945Y105391D01*
X42056Y105402D01*
X42156Y105419D01*
X42244Y105441D01*
X42316Y105463D01*
X42372Y105480D01*
X42389Y105485D01*
X42405Y105491D01*
X42411Y105496D01*
X42416D01*
X42505Y105541D01*
X42588Y105591D01*
X42649Y105641D01*
X42705Y105691D01*
X42749Y105729D01*
X42777Y105768D01*
X42794Y105790D01*
X42799Y105796D01*
X42838Y105868D01*
X42877Y105946D01*
X42899Y106029D01*
X42922Y106101D01*
X42938Y106174D01*
X42949Y106223D01*
Y106246D01*
X42955Y106262D01*
Y106268D01*
Y106273D01*
X43432Y106229D01*
X43421Y106090D01*
X43399Y105957D01*
X43365Y105841D01*
X43327Y105735D01*
X43288Y105652D01*
X43271Y105619D01*
X43260Y105591D01*
X43243Y105569D01*
X43238Y105552D01*
X43227Y105541D01*
Y105535D01*
X43143Y105430D01*
X43055Y105335D01*
X42960Y105258D01*
X42871Y105191D01*
X42794Y105141D01*
X42727Y105108D01*
X42705Y105097D01*
X42688Y105086D01*
X42677Y105080D01*
X42672D01*
X42533Y105030D01*
X42389Y104991D01*
X42244Y104969D01*
X42106Y104947D01*
X42039Y104941D01*
X41984Y104936D01*
X41934D01*
X41889Y104930D01*
X41800D01*
X41651Y104936D01*
X41512Y104953D01*
X41384Y104980D01*
X41279Y105008D01*
X41190Y105030D01*
X41151Y105047D01*
X41118Y105058D01*
X41096Y105069D01*
X41079Y105075D01*
X41068Y105080D01*
X41062D01*
X40946Y105141D01*
X40846Y105208D01*
X40757Y105280D01*
X40685Y105347D01*
X40629Y105402D01*
X40591Y105452D01*
X40563Y105485D01*
X40557Y105491D01*
Y105496D01*
X40496Y105602D01*
X40452Y105702D01*
X40424Y105796D01*
X40402Y105885D01*
X40391Y105963D01*
X40380Y106024D01*
Y106046D01*
Y106062D01*
Y106068D01*
Y106074D01*
X40385Y106185D01*
X40402Y106290D01*
X40429Y106384D01*
X40457Y106462D01*
X40491Y106529D01*
X40513Y106579D01*
X40535Y106606D01*
X40541Y106617D01*
X40607Y106701D01*
X40685Y106778D01*
X40768Y106845D01*
X40851Y106906D01*
X40924Y106950D01*
X40984Y106984D01*
X41007Y106995D01*
X41023Y107006D01*
X41034Y107011D01*
X41040D01*
X41084Y107034D01*
X41140Y107050D01*
X41201Y107073D01*
X41268Y107095D01*
X41406Y107134D01*
X41551Y107173D01*
X41617Y107189D01*
X41678Y107206D01*
X41739Y107222D01*
X41789Y107234D01*
X41828Y107245D01*
X41861Y107250D01*
X41884Y107256D01*
X41889D01*
X42000Y107283D01*
X42100Y107306D01*
X42189Y107333D01*
X42267Y107356D01*
X42339Y107383D01*
X42400Y107406D01*
X42455Y107428D01*
X42505Y107444D01*
X42544Y107467D01*
X42577Y107483D01*
X42600Y107494D01*
X42622Y107511D01*
X42649Y107528D01*
X42655Y107533D01*
X42705Y107589D01*
X42738Y107644D01*
X42766Y107700D01*
X42783Y107755D01*
X42794Y107800D01*
X42799Y107838D01*
Y107861D01*
Y107872D01*
X42788Y107961D01*
X42766Y108038D01*
X42733Y108105D01*
X42694Y108166D01*
X42661Y108210D01*
X42627Y108249D01*
X42605Y108271D01*
X42594Y108277D01*
X42550Y108305D01*
X42505Y108332D01*
X42400Y108377D01*
X42289Y108405D01*
X42178Y108427D01*
X42078Y108438D01*
X42033Y108443D01*
X42000Y108449D01*
X41923D01*
X41767Y108443D01*
X41628Y108421D01*
X41517Y108388D01*
X41423Y108355D01*
X41351Y108321D01*
X41295Y108288D01*
X41268Y108266D01*
X41256Y108260D01*
X41179Y108183D01*
X41118Y108099D01*
X41068Y108010D01*
X41034Y107922D01*
X41012Y107838D01*
X40996Y107777D01*
X40990Y107750D01*
X40984Y107733D01*
Y107722D01*
Y107716D01*
X40496Y107755D01*
X40507Y107877D01*
X40535Y107988D01*
X40563Y108094D01*
X40602Y108183D01*
X40635Y108255D01*
X40663Y108310D01*
X40674Y108327D01*
X40685Y108344D01*
X40690Y108349D01*
Y108355D01*
X40762Y108449D01*
X40840Y108532D01*
X40924Y108604D01*
X41007Y108660D01*
X41079Y108710D01*
X41134Y108738D01*
X41157Y108749D01*
X41173Y108760D01*
X41184Y108765D01*
X41190D01*
X41312Y108810D01*
X41445Y108843D01*
X41567Y108871D01*
X41684Y108887D01*
X41789Y108898D01*
X41828D01*
X41867Y108904D01*
X41939D01*
X42083Y108898D01*
D02*
G37*
G36*
X106601Y56760D02*
X106662Y56671D01*
X106734Y56582D01*
X106801Y56504D01*
X106867Y56438D01*
X106917Y56382D01*
X106939Y56366D01*
X106956Y56349D01*
X106962Y56343D01*
X106967Y56338D01*
X107084Y56243D01*
X107200Y56155D01*
X107311Y56077D01*
X107422Y56016D01*
X107517Y55960D01*
X107555Y55938D01*
X107589Y55922D01*
X107617Y55905D01*
X107639Y55899D01*
X107650Y55888D01*
X107655D01*
Y55433D01*
X107572Y55467D01*
X107489Y55505D01*
X107406Y55544D01*
X107328Y55583D01*
X107261Y55616D01*
X107206Y55644D01*
X107173Y55666D01*
X107167Y55672D01*
X107161D01*
X107062Y55733D01*
X106973Y55794D01*
X106895Y55849D01*
X106834Y55899D01*
X106779Y55938D01*
X106745Y55971D01*
X106718Y55994D01*
X106712Y55999D01*
Y52997D01*
X106240D01*
Y56854D01*
X106545D01*
X106601Y56760D01*
D02*
G37*
G36*
X110325Y54623D02*
Y52997D01*
X109814D01*
Y54623D01*
X108282Y56837D01*
X108876D01*
X109615Y55705D01*
X109703Y55566D01*
X109787Y55439D01*
X109859Y55322D01*
X109920Y55222D01*
X109970Y55139D01*
X109992Y55106D01*
X110009Y55078D01*
X110025Y55056D01*
X110036Y55039D01*
X110042Y55028D01*
Y55023D01*
X110108Y55145D01*
X110181Y55261D01*
X110247Y55372D01*
X110308Y55472D01*
X110358Y55555D01*
X110380Y55589D01*
X110403Y55616D01*
X110414Y55638D01*
X110425Y55655D01*
X110436Y55666D01*
Y55672D01*
X111191Y56837D01*
X111807D01*
X110325Y54623D01*
D02*
G37*
G36*
X64315Y96760D02*
X64376Y96671D01*
X64448Y96582D01*
X64515Y96504D01*
X64581Y96438D01*
X64631Y96382D01*
X64653Y96366D01*
X64670Y96349D01*
X64676Y96343D01*
X64681Y96338D01*
X64798Y96244D01*
X64914Y96155D01*
X65025Y96077D01*
X65136Y96016D01*
X65231Y95960D01*
X65270Y95938D01*
X65303Y95922D01*
X65331Y95905D01*
X65353Y95899D01*
X65364Y95888D01*
X65369D01*
Y95433D01*
X65286Y95467D01*
X65203Y95505D01*
X65120Y95544D01*
X65042Y95583D01*
X64975Y95616D01*
X64920Y95644D01*
X64887Y95666D01*
X64881Y95672D01*
X64876D01*
X64776Y95733D01*
X64687Y95794D01*
X64609Y95849D01*
X64548Y95899D01*
X64492Y95938D01*
X64459Y95972D01*
X64432Y95994D01*
X64426Y95999D01*
Y92997D01*
X63954D01*
Y96854D01*
X64259D01*
X64315Y96760D01*
D02*
G37*
G36*
X69404Y92997D02*
X68894D01*
Y94701D01*
X68239D01*
X68178Y94695D01*
X68133D01*
X68094Y94690D01*
X68067Y94684D01*
X68045D01*
X68033Y94678D01*
X68028D01*
X67939Y94651D01*
X67900Y94634D01*
X67867Y94617D01*
X67834Y94601D01*
X67811Y94590D01*
X67800Y94584D01*
X67795Y94578D01*
X67750Y94545D01*
X67706Y94506D01*
X67623Y94423D01*
X67584Y94384D01*
X67556Y94351D01*
X67540Y94329D01*
X67534Y94323D01*
X67478Y94245D01*
X67417Y94162D01*
X67356Y94073D01*
X67295Y93990D01*
X67245Y93913D01*
X67207Y93851D01*
X67190Y93829D01*
X67179Y93813D01*
X67168Y93801D01*
Y93796D01*
X66663Y92997D01*
X66030D01*
X66690Y94040D01*
X66768Y94151D01*
X66840Y94251D01*
X66912Y94334D01*
X66973Y94412D01*
X67029Y94468D01*
X67073Y94512D01*
X67101Y94540D01*
X67112Y94551D01*
X67156Y94584D01*
X67207Y94623D01*
X67306Y94684D01*
X67351Y94706D01*
X67384Y94728D01*
X67406Y94739D01*
X67417Y94745D01*
X67317Y94762D01*
X67223Y94778D01*
X67140Y94806D01*
X67057Y94828D01*
X66984Y94856D01*
X66918Y94889D01*
X66857Y94917D01*
X66801Y94945D01*
X66757Y94978D01*
X66712Y95006D01*
X66679Y95028D01*
X66651Y95050D01*
X66629Y95067D01*
X66613Y95083D01*
X66607Y95089D01*
X66602Y95095D01*
X66557Y95150D01*
X66513Y95206D01*
X66446Y95322D01*
X66402Y95439D01*
X66368Y95550D01*
X66346Y95644D01*
X66341Y95683D01*
Y95722D01*
X66335Y95749D01*
Y95772D01*
Y95783D01*
Y95788D01*
X66341Y95905D01*
X66357Y96010D01*
X66385Y96110D01*
X66413Y96193D01*
X66446Y96266D01*
X66468Y96321D01*
X66491Y96355D01*
X66496Y96360D01*
Y96366D01*
X66563Y96454D01*
X66629Y96532D01*
X66701Y96599D01*
X66768Y96649D01*
X66829Y96688D01*
X66879Y96710D01*
X66912Y96726D01*
X66918Y96732D01*
X66923D01*
X66973Y96749D01*
X67034Y96765D01*
X67156Y96793D01*
X67290Y96810D01*
X67412Y96826D01*
X67528Y96832D01*
X67578D01*
X67623Y96837D01*
X69404D01*
Y92997D01*
D02*
G37*
G36*
X98067Y85711D02*
X97579D01*
Y88980D01*
X96469Y85711D01*
X96013D01*
X94892Y88925D01*
Y85711D01*
X94404D01*
Y89552D01*
X95087D01*
X96008Y86877D01*
X96058Y86733D01*
X96097Y86611D01*
X96135Y86505D01*
X96163Y86416D01*
X96185Y86350D01*
X96202Y86300D01*
X96208Y86272D01*
X96213Y86261D01*
X96235Y86339D01*
X96263Y86427D01*
X96297Y86522D01*
X96324Y86616D01*
X96352Y86699D01*
X96374Y86766D01*
X96385Y86794D01*
X96391Y86810D01*
X96396Y86821D01*
Y86827D01*
X97307Y89552D01*
X98067D01*
Y85711D01*
D02*
G37*
G36*
X89992Y87332D02*
Y87221D01*
X89986Y87116D01*
X89981Y87016D01*
X89969Y86921D01*
X89958Y86838D01*
X89947Y86760D01*
X89931Y86688D01*
X89920Y86622D01*
X89908Y86561D01*
X89892Y86511D01*
X89881Y86466D01*
X89870Y86433D01*
X89859Y86405D01*
X89853Y86383D01*
X89847Y86372D01*
Y86366D01*
X89786Y86244D01*
X89709Y86133D01*
X89631Y86044D01*
X89548Y85967D01*
X89476Y85906D01*
X89415Y85861D01*
X89392Y85850D01*
X89376Y85839D01*
X89364Y85828D01*
X89359D01*
X89220Y85767D01*
X89076Y85723D01*
X88926Y85689D01*
X88787Y85667D01*
X88726Y85662D01*
X88665Y85656D01*
X88610Y85650D01*
X88565D01*
X88526Y85645D01*
X88477D01*
X88277Y85656D01*
X88188Y85667D01*
X88105Y85678D01*
X88021Y85695D01*
X87949Y85711D01*
X87883Y85728D01*
X87822Y85750D01*
X87766Y85773D01*
X87722Y85789D01*
X87677Y85806D01*
X87644Y85822D01*
X87616Y85839D01*
X87600Y85845D01*
X87589Y85856D01*
X87583D01*
X87461Y85939D01*
X87361Y86033D01*
X87283Y86122D01*
X87217Y86211D01*
X87167Y86289D01*
X87133Y86350D01*
X87122Y86372D01*
X87111Y86388D01*
X87106Y86400D01*
Y86405D01*
X87084Y86472D01*
X87061Y86544D01*
X87028Y86694D01*
X87006Y86849D01*
X86989Y86999D01*
X86984Y87066D01*
X86978Y87132D01*
Y87188D01*
X86972Y87238D01*
Y87277D01*
Y87304D01*
Y87327D01*
Y87332D01*
Y89552D01*
X87483D01*
Y87332D01*
Y87204D01*
X87494Y87082D01*
X87505Y86977D01*
X87522Y86877D01*
X87539Y86788D01*
X87561Y86705D01*
X87577Y86633D01*
X87600Y86572D01*
X87622Y86522D01*
X87644Y86472D01*
X87666Y86439D01*
X87683Y86405D01*
X87700Y86383D01*
X87711Y86366D01*
X87716Y86361D01*
X87722Y86355D01*
X87772Y86311D01*
X87827Y86272D01*
X87949Y86211D01*
X88077Y86167D01*
X88210Y86139D01*
X88332Y86117D01*
X88382Y86111D01*
X88432D01*
X88465Y86106D01*
X88521D01*
X88638Y86111D01*
X88743Y86128D01*
X88843Y86144D01*
X88920Y86172D01*
X88987Y86194D01*
X89037Y86211D01*
X89065Y86228D01*
X89076Y86233D01*
X89154Y86283D01*
X89220Y86344D01*
X89276Y86405D01*
X89315Y86461D01*
X89348Y86516D01*
X89376Y86555D01*
X89387Y86583D01*
X89392Y86594D01*
X89409Y86644D01*
X89420Y86694D01*
X89442Y86810D01*
X89459Y86932D01*
X89470Y87055D01*
X89476Y87160D01*
Y87210D01*
X89481Y87249D01*
Y87282D01*
Y87310D01*
Y87327D01*
Y87332D01*
Y89552D01*
X89992D01*
Y87332D01*
D02*
G37*
G36*
X93577Y85711D02*
X93066D01*
Y87271D01*
X92084D01*
X91940Y87277D01*
X91801Y87288D01*
X91679Y87304D01*
X91568Y87327D01*
X91462Y87349D01*
X91374Y87376D01*
X91290Y87410D01*
X91218Y87443D01*
X91157Y87471D01*
X91102Y87504D01*
X91057Y87532D01*
X91024Y87560D01*
X90996Y87576D01*
X90980Y87593D01*
X90969Y87604D01*
X90963Y87609D01*
X90907Y87676D01*
X90857Y87743D01*
X90819Y87809D01*
X90780Y87881D01*
X90746Y87954D01*
X90724Y88020D01*
X90685Y88148D01*
X90674Y88209D01*
X90663Y88264D01*
X90658Y88314D01*
X90652Y88353D01*
X90647Y88392D01*
Y88414D01*
Y88431D01*
Y88437D01*
X90652Y88542D01*
X90663Y88642D01*
X90685Y88731D01*
X90702Y88808D01*
X90724Y88875D01*
X90746Y88925D01*
X90758Y88953D01*
X90763Y88964D01*
X90807Y89047D01*
X90863Y89119D01*
X90913Y89186D01*
X90963Y89236D01*
X91007Y89275D01*
X91041Y89308D01*
X91063Y89324D01*
X91074Y89330D01*
X91146Y89374D01*
X91229Y89413D01*
X91307Y89447D01*
X91379Y89474D01*
X91446Y89491D01*
X91496Y89502D01*
X91535Y89513D01*
X91546D01*
X91629Y89524D01*
X91723Y89535D01*
X91823Y89541D01*
X91918Y89547D01*
X92001Y89552D01*
X93577D01*
Y85711D01*
D02*
G37*
G36*
X23433Y71543D02*
X23583Y71515D01*
X23711Y71471D01*
X23822Y71426D01*
X23872Y71399D01*
X23911Y71377D01*
X23949Y71354D01*
X23977Y71332D01*
X23999Y71315D01*
X24016Y71304D01*
X24027Y71299D01*
X24033Y71293D01*
X24138Y71188D01*
X24221Y71071D01*
X24288Y70949D01*
X24343Y70827D01*
X24377Y70722D01*
X24393Y70677D01*
X24405Y70638D01*
X24410Y70605D01*
X24416Y70583D01*
X24421Y70566D01*
Y70561D01*
X23949Y70477D01*
X23927Y70600D01*
X23894Y70705D01*
X23855Y70794D01*
X23816Y70866D01*
X23777Y70921D01*
X23744Y70960D01*
X23722Y70988D01*
X23716Y70994D01*
X23644Y71049D01*
X23566Y71093D01*
X23494Y71121D01*
X23422Y71143D01*
X23356Y71154D01*
X23306Y71166D01*
X23261D01*
X23161Y71160D01*
X23073Y71138D01*
X22995Y71110D01*
X22928Y71082D01*
X22878Y71049D01*
X22839Y71021D01*
X22812Y70999D01*
X22806Y70994D01*
X22745Y70927D01*
X22701Y70855D01*
X22673Y70783D01*
X22651Y70716D01*
X22640Y70655D01*
X22628Y70611D01*
Y70577D01*
Y70572D01*
Y70566D01*
Y70505D01*
X22640Y70450D01*
X22667Y70355D01*
X22706Y70272D01*
X22751Y70200D01*
X22795Y70150D01*
X22834Y70111D01*
X22862Y70089D01*
X22867Y70083D01*
X22873D01*
X22967Y70033D01*
X23056Y69995D01*
X23150Y69967D01*
X23233Y69950D01*
X23306Y69939D01*
X23367Y69928D01*
X23439D01*
X23461Y69933D01*
X23489D01*
X23544Y69517D01*
X23472Y69534D01*
X23405Y69545D01*
X23350Y69556D01*
X23300Y69562D01*
X23261Y69567D01*
X23211D01*
X23095Y69556D01*
X22989Y69534D01*
X22895Y69501D01*
X22817Y69462D01*
X22756Y69423D01*
X22712Y69390D01*
X22684Y69367D01*
X22673Y69356D01*
X22601Y69273D01*
X22545Y69184D01*
X22506Y69095D01*
X22484Y69007D01*
X22467Y68935D01*
X22462Y68874D01*
X22456Y68851D01*
Y68835D01*
Y68823D01*
Y68818D01*
X22467Y68696D01*
X22495Y68585D01*
X22529Y68490D01*
X22573Y68407D01*
X22617Y68341D01*
X22651Y68291D01*
X22678Y68257D01*
X22690Y68246D01*
X22778Y68169D01*
X22873Y68113D01*
X22967Y68074D01*
X23056Y68046D01*
X23133Y68030D01*
X23195Y68024D01*
X23217Y68019D01*
X23250D01*
X23350Y68024D01*
X23444Y68046D01*
X23528Y68074D01*
X23594Y68108D01*
X23650Y68135D01*
X23694Y68163D01*
X23716Y68185D01*
X23727Y68191D01*
X23794Y68269D01*
X23850Y68357D01*
X23899Y68452D01*
X23938Y68552D01*
X23966Y68635D01*
X23977Y68674D01*
X23983Y68707D01*
X23988Y68735D01*
X23994Y68757D01*
X23999Y68768D01*
Y68774D01*
X24471Y68713D01*
X24460Y68624D01*
X24443Y68541D01*
X24393Y68385D01*
X24332Y68252D01*
X24299Y68196D01*
X24266Y68141D01*
X24232Y68091D01*
X24199Y68052D01*
X24171Y68013D01*
X24144Y67985D01*
X24127Y67963D01*
X24110Y67947D01*
X24099Y67936D01*
X24094Y67930D01*
X24027Y67880D01*
X23960Y67830D01*
X23894Y67791D01*
X23822Y67758D01*
X23683Y67702D01*
X23550Y67669D01*
X23489Y67658D01*
X23433Y67647D01*
X23383Y67641D01*
X23339Y67636D01*
X23306Y67630D01*
X23256D01*
X23150Y67636D01*
X23056Y67647D01*
X22962Y67664D01*
X22873Y67686D01*
X22789Y67713D01*
X22717Y67741D01*
X22645Y67775D01*
X22584Y67808D01*
X22523Y67836D01*
X22473Y67869D01*
X22429Y67897D01*
X22395Y67924D01*
X22368Y67947D01*
X22345Y67963D01*
X22334Y67974D01*
X22329Y67980D01*
X22262Y68046D01*
X22207Y68119D01*
X22157Y68191D01*
X22112Y68263D01*
X22079Y68330D01*
X22046Y68402D01*
X22001Y68535D01*
X21990Y68596D01*
X21979Y68651D01*
X21968Y68701D01*
X21962Y68746D01*
X21957Y68779D01*
Y68807D01*
Y68823D01*
Y68829D01*
X21962Y68962D01*
X21985Y69084D01*
X22018Y69190D01*
X22051Y69279D01*
X22085Y69351D01*
X22118Y69406D01*
X22140Y69440D01*
X22146Y69451D01*
X22223Y69534D01*
X22307Y69606D01*
X22395Y69662D01*
X22484Y69706D01*
X22562Y69739D01*
X22623Y69762D01*
X22645Y69767D01*
X22662Y69773D01*
X22673Y69778D01*
X22678D01*
X22584Y69828D01*
X22506Y69878D01*
X22440Y69933D01*
X22384Y69984D01*
X22340Y70028D01*
X22307Y70067D01*
X22290Y70089D01*
X22284Y70100D01*
X22240Y70178D01*
X22207Y70255D01*
X22179Y70333D01*
X22162Y70405D01*
X22151Y70466D01*
X22146Y70511D01*
Y70544D01*
Y70555D01*
X22151Y70649D01*
X22168Y70744D01*
X22190Y70827D01*
X22218Y70899D01*
X22245Y70960D01*
X22268Y71010D01*
X22284Y71038D01*
X22290Y71049D01*
X22345Y71132D01*
X22412Y71205D01*
X22479Y71266D01*
X22545Y71321D01*
X22601Y71360D01*
X22651Y71393D01*
X22684Y71410D01*
X22690Y71415D01*
X22695D01*
X22795Y71460D01*
X22895Y71493D01*
X22995Y71521D01*
X23084Y71538D01*
X23156Y71549D01*
X23217Y71554D01*
X23356D01*
X23433Y71543D01*
D02*
G37*
G36*
X26680Y71593D02*
X26858Y71565D01*
X27013Y71532D01*
X27085Y71510D01*
X27152Y71487D01*
X27213Y71465D01*
X27268Y71443D01*
X27313Y71426D01*
X27357Y71410D01*
X27385Y71393D01*
X27407Y71382D01*
X27424Y71377D01*
X27429Y71371D01*
X27579Y71277D01*
X27707Y71166D01*
X27818Y71055D01*
X27912Y70944D01*
X27984Y70844D01*
X28012Y70799D01*
X28034Y70761D01*
X28056Y70733D01*
X28067Y70710D01*
X28073Y70694D01*
X28079Y70688D01*
X28156Y70516D01*
X28212Y70339D01*
X28251Y70161D01*
X28278Y70000D01*
X28289Y69928D01*
X28295Y69856D01*
X28301Y69800D01*
Y69745D01*
X28306Y69706D01*
Y69673D01*
Y69651D01*
Y69645D01*
X28295Y69445D01*
X28273Y69251D01*
X28245Y69079D01*
X28223Y68996D01*
X28206Y68923D01*
X28190Y68857D01*
X28167Y68796D01*
X28151Y68740D01*
X28140Y68696D01*
X28123Y68663D01*
X28117Y68635D01*
X28106Y68618D01*
Y68613D01*
X28023Y68446D01*
X27929Y68296D01*
X27829Y68169D01*
X27779Y68119D01*
X27735Y68069D01*
X27690Y68024D01*
X27646Y67985D01*
X27607Y67952D01*
X27573Y67930D01*
X27551Y67908D01*
X27529Y67891D01*
X27518Y67886D01*
X27512Y67880D01*
X27435Y67836D01*
X27357Y67797D01*
X27191Y67736D01*
X27024Y67691D01*
X26863Y67664D01*
X26785Y67652D01*
X26719Y67641D01*
X26658Y67636D01*
X26608D01*
X26563Y67630D01*
X26502D01*
X26391Y67636D01*
X26286Y67647D01*
X26186Y67658D01*
X26092Y67680D01*
X26003Y67708D01*
X25920Y67736D01*
X25842Y67764D01*
X25770Y67797D01*
X25709Y67825D01*
X25648Y67852D01*
X25603Y67880D01*
X25559Y67908D01*
X25531Y67930D01*
X25503Y67941D01*
X25492Y67952D01*
X25487Y67958D01*
X25409Y68024D01*
X25342Y68091D01*
X25281Y68169D01*
X25220Y68246D01*
X25120Y68402D01*
X25043Y68557D01*
X25009Y68629D01*
X24982Y68696D01*
X24960Y68757D01*
X24943Y68807D01*
X24926Y68851D01*
X24915Y68885D01*
X24909Y68907D01*
Y68912D01*
X25420Y69040D01*
X25442Y68951D01*
X25470Y68868D01*
X25498Y68790D01*
X25526Y68718D01*
X25559Y68651D01*
X25592Y68596D01*
X25631Y68541D01*
X25664Y68490D01*
X25692Y68446D01*
X25725Y68413D01*
X25753Y68379D01*
X25775Y68352D01*
X25798Y68335D01*
X25814Y68318D01*
X25820Y68313D01*
X25825Y68307D01*
X25881Y68263D01*
X25942Y68230D01*
X26064Y68169D01*
X26180Y68124D01*
X26297Y68097D01*
X26397Y68074D01*
X26436Y68069D01*
X26475D01*
X26508Y68063D01*
X26547D01*
X26674Y68069D01*
X26796Y68091D01*
X26908Y68119D01*
X27007Y68152D01*
X27085Y68185D01*
X27118Y68202D01*
X27146Y68213D01*
X27168Y68224D01*
X27185Y68235D01*
X27196Y68241D01*
X27202D01*
X27307Y68318D01*
X27396Y68402D01*
X27474Y68496D01*
X27535Y68585D01*
X27585Y68663D01*
X27618Y68729D01*
X27629Y68757D01*
X27640Y68774D01*
X27646Y68785D01*
Y68790D01*
X27690Y68935D01*
X27723Y69079D01*
X27751Y69223D01*
X27768Y69356D01*
X27773Y69417D01*
X27779Y69473D01*
Y69523D01*
X27784Y69562D01*
Y69595D01*
Y69623D01*
Y69639D01*
Y69645D01*
X27779Y69789D01*
X27768Y69922D01*
X27746Y70044D01*
X27723Y70156D01*
X27707Y70250D01*
X27696Y70289D01*
X27685Y70322D01*
X27679Y70350D01*
X27673Y70366D01*
X27668Y70377D01*
Y70383D01*
X27612Y70511D01*
X27551Y70627D01*
X27485Y70722D01*
X27413Y70805D01*
X27351Y70872D01*
X27302Y70916D01*
X27263Y70944D01*
X27257Y70955D01*
X27252D01*
X27135Y71027D01*
X27007Y71082D01*
X26885Y71121D01*
X26769Y71143D01*
X26663Y71160D01*
X26619Y71166D01*
X26580D01*
X26552Y71171D01*
X26508D01*
X26369Y71166D01*
X26241Y71143D01*
X26136Y71110D01*
X26042Y71077D01*
X25970Y71038D01*
X25914Y71010D01*
X25881Y70988D01*
X25870Y70977D01*
X25781Y70894D01*
X25698Y70799D01*
X25631Y70699D01*
X25576Y70600D01*
X25531Y70511D01*
X25515Y70466D01*
X25503Y70433D01*
X25492Y70405D01*
X25481Y70383D01*
X25476Y70372D01*
Y70366D01*
X24976Y70483D01*
X25009Y70583D01*
X25043Y70672D01*
X25087Y70755D01*
X25126Y70838D01*
X25170Y70910D01*
X25220Y70977D01*
X25265Y71043D01*
X25309Y71099D01*
X25354Y71143D01*
X25392Y71188D01*
X25431Y71227D01*
X25459Y71254D01*
X25487Y71282D01*
X25509Y71299D01*
X25520Y71304D01*
X25526Y71310D01*
X25603Y71360D01*
X25681Y71410D01*
X25759Y71449D01*
X25842Y71482D01*
X26008Y71532D01*
X26158Y71565D01*
X26230Y71582D01*
X26291Y71587D01*
X26353Y71593D01*
X26403Y71599D01*
X26441Y71604D01*
X26497D01*
X26680Y71593D01*
D02*
G37*
%LPC*%
G36*
X50197Y108410D02*
X48988D01*
X48838Y108405D01*
X48710Y108382D01*
X48599Y108355D01*
X48516Y108321D01*
X48444Y108288D01*
X48399Y108260D01*
X48372Y108238D01*
X48360Y108232D01*
X48294Y108160D01*
X48244Y108088D01*
X48211Y108010D01*
X48183Y107944D01*
X48172Y107877D01*
X48166Y107827D01*
X48161Y107794D01*
Y107789D01*
Y107783D01*
X48166Y107716D01*
X48177Y107650D01*
X48194Y107594D01*
X48211Y107544D01*
X48233Y107500D01*
X48250Y107467D01*
X48261Y107444D01*
X48266Y107439D01*
X48305Y107383D01*
X48355Y107333D01*
X48405Y107295D01*
X48455Y107261D01*
X48499Y107239D01*
X48533Y107222D01*
X48555Y107211D01*
X48566Y107206D01*
X48643Y107184D01*
X48732Y107167D01*
X48821Y107156D01*
X48910Y107150D01*
X48988Y107145D01*
X49054Y107139D01*
X50197D01*
Y108410D01*
D02*
G37*
G36*
X68894Y96410D02*
X67684D01*
X67534Y96404D01*
X67406Y96382D01*
X67295Y96355D01*
X67212Y96321D01*
X67140Y96288D01*
X67096Y96260D01*
X67068Y96238D01*
X67057Y96232D01*
X66990Y96160D01*
X66940Y96088D01*
X66907Y96010D01*
X66879Y95944D01*
X66868Y95877D01*
X66862Y95827D01*
X66857Y95794D01*
Y95788D01*
Y95783D01*
X66862Y95716D01*
X66874Y95650D01*
X66890Y95594D01*
X66907Y95544D01*
X66929Y95500D01*
X66946Y95467D01*
X66957Y95444D01*
X66962Y95439D01*
X67001Y95383D01*
X67051Y95333D01*
X67101Y95294D01*
X67151Y95261D01*
X67195Y95239D01*
X67229Y95222D01*
X67251Y95211D01*
X67262Y95206D01*
X67340Y95183D01*
X67428Y95167D01*
X67517Y95156D01*
X67606Y95150D01*
X67684Y95145D01*
X67750Y95139D01*
X68894D01*
Y96410D01*
D02*
G37*
G36*
X93066Y89097D02*
X91967D01*
X91868Y89091D01*
X91784Y89086D01*
X91718Y89080D01*
X91673Y89069D01*
X91640Y89064D01*
X91618Y89058D01*
X91612D01*
X91540Y89030D01*
X91479Y88997D01*
X91424Y88964D01*
X91374Y88925D01*
X91340Y88886D01*
X91313Y88858D01*
X91296Y88836D01*
X91290Y88831D01*
X91251Y88764D01*
X91218Y88697D01*
X91196Y88625D01*
X91185Y88564D01*
X91174Y88509D01*
X91168Y88459D01*
Y88431D01*
Y88425D01*
Y88420D01*
X91179Y88303D01*
X91202Y88203D01*
X91235Y88115D01*
X91274Y88042D01*
X91313Y87987D01*
X91346Y87942D01*
X91368Y87920D01*
X91379Y87909D01*
X91418Y87876D01*
X91468Y87848D01*
X91573Y87804D01*
X91690Y87770D01*
X91807Y87748D01*
X91912Y87737D01*
X91956Y87732D01*
X91995D01*
X92034Y87726D01*
X93066D01*
Y89097D01*
D02*
G37*
%LPD*%
D10*
X81102Y49803D02*
Y72244D01*
X58661Y49803D02*
Y72244D01*
X81102D01*
X58661Y49803D02*
X81102D01*
X22835Y102166D02*
X44094D01*
X22835Y80906D02*
Y81398D01*
Y87106D02*
Y95965D01*
Y101673D02*
Y102166D01*
Y80906D02*
X44094D01*
Y81398D01*
Y87106D02*
Y95965D01*
Y101673D02*
Y102166D01*
X2638Y35827D02*
Y37402D01*
X28622Y35827D02*
Y37402D01*
X2638D02*
X28622D01*
X119177Y41929D02*
X128855D01*
X119177Y50591D02*
X128855D01*
X119177Y26181D02*
X128855D01*
X119177Y34843D02*
X128855D01*
X110531Y28150D02*
X111024D01*
X97638D02*
X98130D01*
X97638D02*
Y48622D01*
X110531D02*
X111024D01*
X97638D02*
X98130D01*
X111024Y28150D02*
Y48622D01*
X19291Y55201D02*
Y64879D01*
X27953Y55201D02*
Y64879D01*
D12*
X87106Y75394D02*
X86368Y75820D01*
Y74967D01*
X87106Y75394D01*
X50197Y100197D02*
X49459Y100623D01*
Y99771D01*
X50197Y100197D01*
X3110Y46260D02*
X2372Y46686D01*
Y45834D01*
X3110Y46260D01*
D60*
X78347Y68307D02*
X77902Y69231D01*
X76903Y69459D01*
X76101Y68820D01*
Y67795D01*
X76903Y67156D01*
X77902Y67384D01*
X78347Y68307D01*
M02*
