G04*
G04 #@! TF.GenerationSoftware,Altium Limited,Altium Designer,22.0.2 (36)*
G04*
G04 Layer_Color=65535*
%FSLAX25Y25*%
%MOIN*%
G70*
G04*
G04 #@! TF.SameCoordinates,531B55E9-8988-4262-B8BE-2375E0DFDCCA*
G04*
G04*
G04 #@! TF.FilePolarity,Positive*
G04*
G01*
G75*
%ADD10C,0.00984*%
%ADD11C,0.01968*%
%ADD12C,0.00500*%
%ADD13C,0.00787*%
%ADD14C,0.02362*%
%ADD15C,0.00787*%
%ADD16C,0.01000*%
%ADD17C,0.00600*%
G36*
X25361Y226942D02*
X21482D01*
X21489Y226935D01*
X21518Y226899D01*
X21561Y226856D01*
X21611Y226785D01*
X21676Y226706D01*
X21747Y226605D01*
X21826Y226491D01*
X21905Y226362D01*
Y226354D01*
X21912Y226347D01*
X21941Y226304D01*
X21977Y226233D01*
X22020Y226147D01*
X22070Y226046D01*
X22120Y225939D01*
X22170Y225831D01*
X22213Y225724D01*
X21625D01*
Y225731D01*
X21611Y225745D01*
X21604Y225774D01*
X21582Y225810D01*
X21561Y225852D01*
X21532Y225903D01*
X21460Y226025D01*
X21382Y226168D01*
X21281Y226311D01*
X21166Y226462D01*
X21045Y226612D01*
X21037Y226620D01*
X21030Y226627D01*
X21009Y226648D01*
X20987Y226677D01*
X20915Y226742D01*
X20829Y226828D01*
X20729Y226914D01*
X20614Y227007D01*
X20500Y227086D01*
X20378Y227157D01*
Y227552D01*
X25361D01*
Y226942D01*
D02*
G37*
G36*
Y256010D02*
X25354D01*
X25325D01*
X25282D01*
X25225Y256017D01*
X25160Y256024D01*
X25088Y256038D01*
X25017Y256053D01*
X24938Y256081D01*
X24931D01*
X24924Y256088D01*
X24881Y256103D01*
X24816Y256132D01*
X24730Y256174D01*
X24630Y256232D01*
X24515Y256304D01*
X24400Y256382D01*
X24278Y256483D01*
X24271D01*
X24264Y256497D01*
X24221Y256533D01*
X24156Y256598D01*
X24063Y256691D01*
X23956Y256798D01*
X23826Y256934D01*
X23683Y257100D01*
X23532Y257279D01*
X23525Y257286D01*
X23504Y257315D01*
X23468Y257358D01*
X23425Y257408D01*
X23368Y257472D01*
X23303Y257551D01*
X23231Y257630D01*
X23153Y257723D01*
X22980Y257903D01*
X22808Y258082D01*
X22722Y258168D01*
X22636Y258247D01*
X22557Y258318D01*
X22479Y258376D01*
X22471D01*
X22464Y258390D01*
X22443Y258404D01*
X22414Y258419D01*
X22335Y258469D01*
X22242Y258526D01*
X22127Y258576D01*
X22005Y258627D01*
X21869Y258655D01*
X21740Y258670D01*
X21733D01*
X21726D01*
X21683Y258663D01*
X21611Y258655D01*
X21532Y258634D01*
X21432Y258605D01*
X21331Y258555D01*
X21231Y258490D01*
X21131Y258404D01*
X21116Y258390D01*
X21088Y258354D01*
X21052Y258304D01*
X21001Y258225D01*
X20958Y258125D01*
X20915Y258010D01*
X20887Y257874D01*
X20880Y257723D01*
Y257680D01*
X20887Y257651D01*
X20894Y257565D01*
X20915Y257465D01*
X20944Y257358D01*
X20994Y257236D01*
X21059Y257121D01*
X21145Y257013D01*
X21159Y256999D01*
X21195Y256970D01*
X21252Y256927D01*
X21339Y256884D01*
X21439Y256834D01*
X21568Y256791D01*
X21711Y256763D01*
X21876Y256748D01*
X21812Y256124D01*
X21805D01*
X21783Y256132D01*
X21747D01*
X21697Y256139D01*
X21640Y256153D01*
X21575Y256167D01*
X21496Y256189D01*
X21417Y256210D01*
X21245Y256268D01*
X21073Y256354D01*
X20987Y256404D01*
X20901Y256469D01*
X20822Y256533D01*
X20751Y256605D01*
X20743Y256612D01*
X20736Y256626D01*
X20715Y256648D01*
X20693Y256684D01*
X20664Y256727D01*
X20636Y256777D01*
X20600Y256834D01*
X20564Y256906D01*
X20528Y256985D01*
X20493Y257071D01*
X20464Y257164D01*
X20435Y257264D01*
X20414Y257372D01*
X20392Y257487D01*
X20385Y257609D01*
X20378Y257738D01*
Y257809D01*
X20385Y257859D01*
X20392Y257917D01*
X20399Y257989D01*
X20414Y258067D01*
X20428Y258146D01*
X20478Y258333D01*
X20550Y258519D01*
X20593Y258612D01*
X20643Y258705D01*
X20708Y258792D01*
X20779Y258870D01*
X20786Y258878D01*
X20794Y258892D01*
X20822Y258906D01*
X20851Y258935D01*
X20887Y258971D01*
X20937Y259007D01*
X20987Y259043D01*
X21052Y259086D01*
X21188Y259157D01*
X21360Y259229D01*
X21446Y259258D01*
X21546Y259272D01*
X21647Y259286D01*
X21754Y259294D01*
X21769D01*
X21805D01*
X21862Y259286D01*
X21941Y259279D01*
X22027Y259265D01*
X22127Y259236D01*
X22235Y259207D01*
X22342Y259164D01*
X22357Y259157D01*
X22392Y259143D01*
X22450Y259114D01*
X22529Y259071D01*
X22615Y259014D01*
X22722Y258942D01*
X22830Y258856D01*
X22952Y258756D01*
X22966Y258741D01*
X23009Y258705D01*
X23045Y258670D01*
X23081Y258634D01*
X23124Y258591D01*
X23181Y258534D01*
X23239Y258476D01*
X23303Y258404D01*
X23375Y258333D01*
X23454Y258247D01*
X23532Y258154D01*
X23626Y258053D01*
X23719Y257938D01*
X23819Y257824D01*
X23826Y257817D01*
X23841Y257802D01*
X23862Y257773D01*
X23891Y257738D01*
X23934Y257695D01*
X23977Y257644D01*
X24070Y257530D01*
X24178Y257408D01*
X24285Y257293D01*
X24379Y257193D01*
X24414Y257150D01*
X24450Y257114D01*
X24457Y257107D01*
X24479Y257085D01*
X24508Y257056D01*
X24551Y257021D01*
X24601Y256985D01*
X24651Y256942D01*
X24773Y256856D01*
Y259301D01*
X25361D01*
Y256010D01*
D02*
G37*
G36*
X216163Y64500D02*
X215554D01*
Y68379D01*
X215547Y68372D01*
X215511Y68343D01*
X215468Y68300D01*
X215396Y68250D01*
X215317Y68185D01*
X215217Y68114D01*
X215102Y68035D01*
X214973Y67956D01*
X214966D01*
X214959Y67949D01*
X214916Y67920D01*
X214844Y67884D01*
X214758Y67841D01*
X214658Y67791D01*
X214550Y67741D01*
X214442Y67691D01*
X214335Y67648D01*
Y68235D01*
X214342D01*
X214356Y68250D01*
X214385Y68257D01*
X214421Y68278D01*
X214464Y68300D01*
X214514Y68329D01*
X214636Y68400D01*
X214779Y68479D01*
X214923Y68580D01*
X215073Y68694D01*
X215224Y68816D01*
X215231Y68823D01*
X215238Y68831D01*
X215260Y68852D01*
X215289Y68874D01*
X215353Y68945D01*
X215439Y69031D01*
X215525Y69132D01*
X215618Y69247D01*
X215697Y69361D01*
X215769Y69483D01*
X216163D01*
Y64500D01*
D02*
G37*
G36*
X246471Y69476D02*
X246528Y69469D01*
X246600Y69462D01*
X246679Y69447D01*
X246758Y69433D01*
X246944Y69383D01*
X247131Y69311D01*
X247224Y69268D01*
X247317Y69218D01*
X247403Y69153D01*
X247482Y69082D01*
X247489Y69074D01*
X247503Y69067D01*
X247518Y69039D01*
X247547Y69010D01*
X247582Y68974D01*
X247618Y68924D01*
X247654Y68874D01*
X247697Y68809D01*
X247769Y68673D01*
X247840Y68501D01*
X247869Y68415D01*
X247884Y68314D01*
X247898Y68214D01*
X247905Y68107D01*
Y68092D01*
Y68056D01*
X247898Y67999D01*
X247891Y67920D01*
X247876Y67834D01*
X247848Y67734D01*
X247819Y67626D01*
X247776Y67519D01*
X247769Y67504D01*
X247755Y67468D01*
X247726Y67411D01*
X247683Y67332D01*
X247625Y67246D01*
X247554Y67138D01*
X247468Y67031D01*
X247367Y66909D01*
X247353Y66895D01*
X247317Y66852D01*
X247281Y66816D01*
X247245Y66780D01*
X247202Y66737D01*
X247145Y66680D01*
X247088Y66622D01*
X247016Y66558D01*
X246944Y66486D01*
X246858Y66407D01*
X246765Y66328D01*
X246665Y66235D01*
X246550Y66142D01*
X246435Y66041D01*
X246428Y66034D01*
X246414Y66020D01*
X246385Y65999D01*
X246349Y65970D01*
X246306Y65927D01*
X246256Y65884D01*
X246141Y65790D01*
X246019Y65683D01*
X245905Y65575D01*
X245804Y65482D01*
X245761Y65446D01*
X245725Y65411D01*
X245718Y65403D01*
X245697Y65382D01*
X245668Y65353D01*
X245632Y65310D01*
X245596Y65260D01*
X245553Y65210D01*
X245467Y65088D01*
X247912D01*
Y64500D01*
X244621D01*
Y64507D01*
Y64536D01*
Y64579D01*
X244628Y64636D01*
X244636Y64701D01*
X244650Y64772D01*
X244664Y64844D01*
X244693Y64923D01*
Y64930D01*
X244700Y64937D01*
X244714Y64980D01*
X244743Y65045D01*
X244786Y65131D01*
X244843Y65231D01*
X244915Y65346D01*
X244994Y65461D01*
X245094Y65583D01*
Y65590D01*
X245109Y65597D01*
X245145Y65640D01*
X245209Y65705D01*
X245302Y65798D01*
X245410Y65905D01*
X245546Y66034D01*
X245711Y66178D01*
X245890Y66328D01*
X245897Y66335D01*
X245926Y66357D01*
X245969Y66393D01*
X246019Y66436D01*
X246084Y66493D01*
X246163Y66558D01*
X246242Y66629D01*
X246335Y66708D01*
X246514Y66880D01*
X246693Y67053D01*
X246779Y67138D01*
X246858Y67225D01*
X246930Y67303D01*
X246987Y67382D01*
Y67390D01*
X247002Y67397D01*
X247016Y67418D01*
X247030Y67447D01*
X247080Y67526D01*
X247138Y67619D01*
X247188Y67734D01*
X247238Y67856D01*
X247267Y67992D01*
X247281Y68121D01*
Y68128D01*
Y68135D01*
X247274Y68178D01*
X247267Y68250D01*
X247245Y68329D01*
X247217Y68429D01*
X247166Y68529D01*
X247102Y68630D01*
X247016Y68730D01*
X247002Y68745D01*
X246966Y68773D01*
X246916Y68809D01*
X246837Y68859D01*
X246736Y68902D01*
X246622Y68945D01*
X246485Y68974D01*
X246335Y68981D01*
X246292D01*
X246263Y68974D01*
X246177Y68967D01*
X246077Y68945D01*
X245969Y68917D01*
X245847Y68866D01*
X245732Y68802D01*
X245625Y68716D01*
X245611Y68702D01*
X245582Y68666D01*
X245539Y68608D01*
X245496Y68522D01*
X245446Y68422D01*
X245403Y68293D01*
X245374Y68150D01*
X245360Y67985D01*
X244736Y68049D01*
Y68056D01*
X244743Y68078D01*
Y68114D01*
X244750Y68164D01*
X244765Y68221D01*
X244779Y68286D01*
X244800Y68365D01*
X244822Y68443D01*
X244879Y68616D01*
X244965Y68788D01*
X245016Y68874D01*
X245080Y68960D01*
X245145Y69039D01*
X245216Y69110D01*
X245223Y69117D01*
X245238Y69125D01*
X245259Y69146D01*
X245295Y69168D01*
X245338Y69196D01*
X245388Y69225D01*
X245446Y69261D01*
X245517Y69297D01*
X245596Y69332D01*
X245682Y69368D01*
X245776Y69397D01*
X245876Y69426D01*
X245984Y69447D01*
X246098Y69469D01*
X246220Y69476D01*
X246349Y69483D01*
X246421D01*
X246471Y69476D01*
D02*
G37*
G36*
X215663Y39500D02*
X215054D01*
Y43379D01*
X215047Y43372D01*
X215011Y43343D01*
X214968Y43300D01*
X214896Y43250D01*
X214817Y43185D01*
X214717Y43114D01*
X214602Y43035D01*
X214473Y42956D01*
X214466D01*
X214459Y42949D01*
X214416Y42920D01*
X214344Y42884D01*
X214258Y42841D01*
X214158Y42791D01*
X214050Y42741D01*
X213943Y42691D01*
X213835Y42648D01*
Y43235D01*
X213842D01*
X213857Y43250D01*
X213885Y43257D01*
X213921Y43279D01*
X213964Y43300D01*
X214014Y43329D01*
X214136Y43400D01*
X214280Y43479D01*
X214423Y43580D01*
X214574Y43694D01*
X214724Y43816D01*
X214731Y43824D01*
X214738Y43831D01*
X214760Y43852D01*
X214789Y43874D01*
X214853Y43945D01*
X214939Y44031D01*
X215025Y44132D01*
X215118Y44247D01*
X215197Y44361D01*
X215269Y44483D01*
X215663D01*
Y39500D01*
D02*
G37*
G36*
X245971Y44476D02*
X246028Y44469D01*
X246100Y44462D01*
X246179Y44447D01*
X246258Y44433D01*
X246444Y44383D01*
X246631Y44311D01*
X246724Y44268D01*
X246817Y44218D01*
X246903Y44153D01*
X246982Y44082D01*
X246989Y44074D01*
X247004Y44067D01*
X247018Y44039D01*
X247046Y44010D01*
X247082Y43974D01*
X247118Y43924D01*
X247154Y43874D01*
X247197Y43809D01*
X247269Y43673D01*
X247340Y43501D01*
X247369Y43415D01*
X247383Y43314D01*
X247398Y43214D01*
X247405Y43106D01*
Y43092D01*
Y43056D01*
X247398Y42999D01*
X247391Y42920D01*
X247376Y42834D01*
X247348Y42734D01*
X247319Y42626D01*
X247276Y42518D01*
X247269Y42504D01*
X247254Y42468D01*
X247226Y42411D01*
X247183Y42332D01*
X247125Y42246D01*
X247054Y42138D01*
X246968Y42031D01*
X246867Y41909D01*
X246853Y41895D01*
X246817Y41852D01*
X246781Y41816D01*
X246745Y41780D01*
X246702Y41737D01*
X246645Y41680D01*
X246588Y41622D01*
X246516Y41558D01*
X246444Y41486D01*
X246358Y41407D01*
X246265Y41328D01*
X246165Y41235D01*
X246050Y41142D01*
X245935Y41041D01*
X245928Y41034D01*
X245914Y41020D01*
X245885Y40999D01*
X245849Y40970D01*
X245806Y40927D01*
X245756Y40884D01*
X245641Y40791D01*
X245519Y40683D01*
X245405Y40576D01*
X245304Y40482D01*
X245261Y40446D01*
X245225Y40411D01*
X245218Y40403D01*
X245197Y40382D01*
X245168Y40353D01*
X245132Y40310D01*
X245096Y40260D01*
X245053Y40210D01*
X244967Y40088D01*
X247412D01*
Y39500D01*
X244121D01*
Y39507D01*
Y39536D01*
Y39579D01*
X244128Y39636D01*
X244135Y39701D01*
X244150Y39772D01*
X244164Y39844D01*
X244193Y39923D01*
Y39930D01*
X244200Y39937D01*
X244214Y39980D01*
X244243Y40045D01*
X244286Y40131D01*
X244343Y40231D01*
X244415Y40346D01*
X244494Y40461D01*
X244594Y40583D01*
Y40590D01*
X244609Y40597D01*
X244645Y40640D01*
X244709Y40705D01*
X244802Y40798D01*
X244910Y40905D01*
X245046Y41034D01*
X245211Y41178D01*
X245390Y41328D01*
X245397Y41335D01*
X245426Y41357D01*
X245469Y41393D01*
X245519Y41436D01*
X245584Y41493D01*
X245663Y41558D01*
X245742Y41629D01*
X245835Y41708D01*
X246014Y41880D01*
X246193Y42053D01*
X246279Y42138D01*
X246358Y42224D01*
X246430Y42303D01*
X246487Y42382D01*
Y42390D01*
X246502Y42397D01*
X246516Y42418D01*
X246530Y42447D01*
X246581Y42526D01*
X246638Y42619D01*
X246688Y42734D01*
X246738Y42856D01*
X246767Y42992D01*
X246781Y43121D01*
Y43128D01*
Y43135D01*
X246774Y43178D01*
X246767Y43250D01*
X246745Y43329D01*
X246717Y43429D01*
X246667Y43529D01*
X246602Y43630D01*
X246516Y43730D01*
X246502Y43745D01*
X246466Y43773D01*
X246416Y43809D01*
X246337Y43859D01*
X246236Y43902D01*
X246122Y43945D01*
X245985Y43974D01*
X245835Y43981D01*
X245792D01*
X245763Y43974D01*
X245677Y43967D01*
X245577Y43945D01*
X245469Y43917D01*
X245347Y43867D01*
X245233Y43802D01*
X245125Y43716D01*
X245111Y43702D01*
X245082Y43666D01*
X245039Y43608D01*
X244996Y43522D01*
X244946Y43422D01*
X244903Y43293D01*
X244874Y43150D01*
X244860Y42985D01*
X244236Y43049D01*
Y43056D01*
X244243Y43078D01*
Y43114D01*
X244250Y43164D01*
X244265Y43221D01*
X244279Y43286D01*
X244300Y43365D01*
X244322Y43444D01*
X244379Y43615D01*
X244465Y43788D01*
X244515Y43874D01*
X244580Y43960D01*
X244645Y44039D01*
X244716Y44110D01*
X244724Y44117D01*
X244738Y44125D01*
X244759Y44146D01*
X244795Y44168D01*
X244838Y44196D01*
X244888Y44225D01*
X244946Y44261D01*
X245017Y44297D01*
X245096Y44333D01*
X245182Y44368D01*
X245275Y44397D01*
X245376Y44426D01*
X245483Y44447D01*
X245598Y44469D01*
X245720Y44476D01*
X245849Y44483D01*
X245921D01*
X245971Y44476D01*
D02*
G37*
G36*
X76361Y147415D02*
X72482D01*
X72489Y147408D01*
X72518Y147372D01*
X72561Y147329D01*
X72611Y147257D01*
X72676Y147178D01*
X72747Y147078D01*
X72826Y146963D01*
X72905Y146834D01*
Y146827D01*
X72912Y146820D01*
X72941Y146777D01*
X72977Y146705D01*
X73020Y146619D01*
X73070Y146519D01*
X73120Y146411D01*
X73170Y146303D01*
X73213Y146196D01*
X72625D01*
Y146203D01*
X72611Y146217D01*
X72604Y146246D01*
X72582Y146282D01*
X72561Y146325D01*
X72532Y146375D01*
X72460Y146497D01*
X72382Y146640D01*
X72281Y146784D01*
X72166Y146934D01*
X72045Y147085D01*
X72037Y147092D01*
X72030Y147099D01*
X72009Y147121D01*
X71987Y147150D01*
X71916Y147214D01*
X71829Y147300D01*
X71729Y147386D01*
X71614Y147479D01*
X71500Y147558D01*
X71378Y147630D01*
Y148024D01*
X76361D01*
Y147415D01*
D02*
G37*
G36*
X74877Y219752D02*
X74920D01*
X75034Y219730D01*
X75171Y219709D01*
X75314Y219673D01*
X75472Y219622D01*
X75622Y219551D01*
X75630D01*
X75637Y219544D01*
X75658Y219529D01*
X75687Y219515D01*
X75759Y219472D01*
X75852Y219407D01*
X75952Y219329D01*
X76053Y219235D01*
X76153Y219121D01*
X76239Y218999D01*
Y218992D01*
X76246Y218984D01*
X76261Y218963D01*
X76268Y218934D01*
X76303Y218863D01*
X76339Y218769D01*
X76382Y218647D01*
X76411Y218511D01*
X76440Y218361D01*
X76447Y218196D01*
Y218160D01*
X76440Y218124D01*
Y218067D01*
X76433Y218002D01*
X76418Y217930D01*
X76397Y217844D01*
X76375Y217758D01*
X76347Y217658D01*
X76311Y217558D01*
X76268Y217457D01*
X76210Y217350D01*
X76146Y217249D01*
X76074Y217149D01*
X75988Y217049D01*
X75888Y216955D01*
X75880Y216948D01*
X75859Y216934D01*
X75830Y216912D01*
X75780Y216884D01*
X75716Y216841D01*
X75644Y216805D01*
X75551Y216762D01*
X75450Y216719D01*
X75328Y216669D01*
X75192Y216625D01*
X75042Y216590D01*
X74877Y216554D01*
X74690Y216518D01*
X74489Y216496D01*
X74274Y216482D01*
X74045Y216475D01*
X74038D01*
X74031D01*
X74009D01*
X73980D01*
X73909Y216482D01*
X73808D01*
X73694Y216489D01*
X73557Y216504D01*
X73407Y216518D01*
X73242Y216539D01*
X73077Y216568D01*
X72898Y216604D01*
X72726Y216647D01*
X72554Y216697D01*
X72389Y216762D01*
X72231Y216833D01*
X72080Y216912D01*
X71951Y217005D01*
X71944Y217013D01*
X71930Y217027D01*
X71901Y217056D01*
X71858Y217091D01*
X71815Y217134D01*
X71772Y217192D01*
X71715Y217264D01*
X71665Y217335D01*
X71614Y217421D01*
X71557Y217515D01*
X71514Y217622D01*
X71464Y217730D01*
X71428Y217851D01*
X71399Y217981D01*
X71385Y218117D01*
X71378Y218260D01*
Y218318D01*
X71385Y218361D01*
Y218411D01*
X71392Y218468D01*
X71421Y218604D01*
X71457Y218755D01*
X71514Y218913D01*
X71600Y219070D01*
X71650Y219149D01*
X71708Y219221D01*
X71715Y219228D01*
X71722Y219235D01*
X71743Y219257D01*
X71765Y219278D01*
X71801Y219314D01*
X71844Y219343D01*
X71944Y219422D01*
X72073Y219501D01*
X72231Y219572D01*
X72410Y219637D01*
X72611Y219680D01*
X72661Y219070D01*
X72654D01*
X72647Y219063D01*
X72604Y219056D01*
X72539Y219035D01*
X72460Y219006D01*
X72374Y218977D01*
X72288Y218934D01*
X72210Y218884D01*
X72145Y218834D01*
X72131Y218819D01*
X72102Y218791D01*
X72059Y218741D01*
X72009Y218669D01*
X71966Y218576D01*
X71923Y218475D01*
X71894Y218353D01*
X71880Y218224D01*
Y218174D01*
X71887Y218117D01*
X71901Y218052D01*
X71923Y217966D01*
X71951Y217880D01*
X71987Y217794D01*
X72045Y217708D01*
X72052Y217694D01*
X72080Y217658D01*
X72131Y217608D01*
X72202Y217543D01*
X72288Y217472D01*
X72389Y217393D01*
X72518Y217321D01*
X72661Y217249D01*
X72668D01*
X72683Y217242D01*
X72704Y217235D01*
X72733Y217221D01*
X72776Y217213D01*
X72826Y217199D01*
X72883Y217185D01*
X72955Y217170D01*
X73034Y217149D01*
X73120Y217134D01*
X73213Y217120D01*
X73314Y217113D01*
X73428Y217099D01*
X73543Y217091D01*
X73672Y217084D01*
X73801D01*
X73794Y217091D01*
X73751Y217120D01*
X73694Y217170D01*
X73622Y217235D01*
X73536Y217307D01*
X73457Y217400D01*
X73378Y217500D01*
X73307Y217615D01*
Y217622D01*
X73299Y217629D01*
X73278Y217672D01*
X73256Y217737D01*
X73220Y217823D01*
X73192Y217923D01*
X73170Y218038D01*
X73149Y218160D01*
X73142Y218289D01*
Y218346D01*
X73149Y218389D01*
X73156Y218447D01*
X73163Y218504D01*
X73177Y218576D01*
X73199Y218647D01*
X73249Y218812D01*
X73285Y218898D01*
X73335Y218984D01*
X73385Y219070D01*
X73443Y219164D01*
X73514Y219250D01*
X73593Y219329D01*
X73600Y219336D01*
X73615Y219350D01*
X73636Y219372D01*
X73672Y219393D01*
X73722Y219429D01*
X73773Y219465D01*
X73837Y219501D01*
X73909Y219544D01*
X73988Y219587D01*
X74074Y219622D01*
X74174Y219658D01*
X74274Y219694D01*
X74382Y219716D01*
X74504Y219737D01*
X74626Y219752D01*
X74755Y219759D01*
X74762D01*
X74776D01*
X74798D01*
X74834D01*
X74877Y219752D01*
D02*
G37*
G36*
X193861Y147415D02*
X189982D01*
X189989Y147408D01*
X190018Y147372D01*
X190061Y147329D01*
X190111Y147257D01*
X190175Y147178D01*
X190247Y147078D01*
X190326Y146963D01*
X190405Y146834D01*
Y146827D01*
X190412Y146820D01*
X190441Y146777D01*
X190477Y146705D01*
X190520Y146619D01*
X190570Y146519D01*
X190620Y146411D01*
X190670Y146303D01*
X190713Y146196D01*
X190125D01*
Y146203D01*
X190111Y146217D01*
X190104Y146246D01*
X190082Y146282D01*
X190061Y146325D01*
X190032Y146375D01*
X189960Y146497D01*
X189882Y146640D01*
X189781Y146784D01*
X189666Y146934D01*
X189545Y147085D01*
X189537Y147092D01*
X189530Y147099D01*
X189509Y147121D01*
X189487Y147150D01*
X189416Y147214D01*
X189329Y147300D01*
X189229Y147386D01*
X189114Y147479D01*
X189000Y147558D01*
X188878Y147630D01*
Y148024D01*
X193861D01*
Y147415D01*
D02*
G37*
G36*
X192377Y219752D02*
X192420D01*
X192534Y219730D01*
X192671Y219709D01*
X192814Y219673D01*
X192972Y219622D01*
X193122Y219551D01*
X193130D01*
X193137Y219544D01*
X193158Y219529D01*
X193187Y219515D01*
X193259Y219472D01*
X193352Y219407D01*
X193452Y219329D01*
X193553Y219235D01*
X193653Y219121D01*
X193739Y218999D01*
Y218992D01*
X193746Y218984D01*
X193761Y218963D01*
X193768Y218934D01*
X193804Y218863D01*
X193839Y218769D01*
X193882Y218647D01*
X193911Y218511D01*
X193940Y218361D01*
X193947Y218196D01*
Y218160D01*
X193940Y218124D01*
Y218067D01*
X193933Y218002D01*
X193918Y217930D01*
X193897Y217844D01*
X193875Y217758D01*
X193847Y217658D01*
X193811Y217558D01*
X193768Y217457D01*
X193710Y217350D01*
X193646Y217249D01*
X193574Y217149D01*
X193488Y217049D01*
X193388Y216955D01*
X193380Y216948D01*
X193359Y216934D01*
X193330Y216912D01*
X193280Y216884D01*
X193216Y216841D01*
X193144Y216805D01*
X193051Y216762D01*
X192950Y216719D01*
X192828Y216669D01*
X192692Y216625D01*
X192542Y216590D01*
X192377Y216554D01*
X192190Y216518D01*
X191990Y216496D01*
X191774Y216482D01*
X191545Y216475D01*
X191538D01*
X191531D01*
X191509D01*
X191480D01*
X191409Y216482D01*
X191308D01*
X191194Y216489D01*
X191057Y216504D01*
X190907Y216518D01*
X190742Y216539D01*
X190577Y216568D01*
X190398Y216604D01*
X190226Y216647D01*
X190054Y216697D01*
X189889Y216762D01*
X189731Y216833D01*
X189580Y216912D01*
X189451Y217005D01*
X189444Y217013D01*
X189430Y217027D01*
X189401Y217056D01*
X189358Y217091D01*
X189315Y217134D01*
X189272Y217192D01*
X189215Y217264D01*
X189164Y217335D01*
X189114Y217421D01*
X189057Y217515D01*
X189014Y217622D01*
X188964Y217730D01*
X188928Y217851D01*
X188899Y217981D01*
X188885Y218117D01*
X188878Y218260D01*
Y218318D01*
X188885Y218361D01*
Y218411D01*
X188892Y218468D01*
X188921Y218604D01*
X188957Y218755D01*
X189014Y218913D01*
X189100Y219070D01*
X189150Y219149D01*
X189208Y219221D01*
X189215Y219228D01*
X189222Y219235D01*
X189243Y219257D01*
X189265Y219278D01*
X189301Y219314D01*
X189344Y219343D01*
X189444Y219422D01*
X189573Y219501D01*
X189731Y219572D01*
X189910Y219637D01*
X190111Y219680D01*
X190161Y219070D01*
X190154D01*
X190147Y219063D01*
X190104Y219056D01*
X190039Y219035D01*
X189960Y219006D01*
X189874Y218977D01*
X189788Y218934D01*
X189709Y218884D01*
X189645Y218834D01*
X189631Y218819D01*
X189602Y218791D01*
X189559Y218741D01*
X189509Y218669D01*
X189466Y218576D01*
X189423Y218475D01*
X189394Y218353D01*
X189380Y218224D01*
Y218174D01*
X189387Y218117D01*
X189401Y218052D01*
X189423Y217966D01*
X189451Y217880D01*
X189487Y217794D01*
X189545Y217708D01*
X189552Y217694D01*
X189580Y217658D01*
X189631Y217608D01*
X189702Y217543D01*
X189788Y217472D01*
X189889Y217393D01*
X190018Y217321D01*
X190161Y217249D01*
X190168D01*
X190183Y217242D01*
X190204Y217235D01*
X190233Y217221D01*
X190276Y217213D01*
X190326Y217199D01*
X190383Y217185D01*
X190455Y217170D01*
X190534Y217149D01*
X190620Y217134D01*
X190713Y217120D01*
X190814Y217113D01*
X190928Y217099D01*
X191043Y217091D01*
X191172Y217084D01*
X191301D01*
X191294Y217091D01*
X191251Y217120D01*
X191194Y217170D01*
X191122Y217235D01*
X191036Y217307D01*
X190957Y217400D01*
X190878Y217500D01*
X190806Y217615D01*
Y217622D01*
X190799Y217629D01*
X190778Y217672D01*
X190756Y217737D01*
X190720Y217823D01*
X190692Y217923D01*
X190670Y218038D01*
X190649Y218160D01*
X190642Y218289D01*
Y218346D01*
X190649Y218389D01*
X190656Y218447D01*
X190663Y218504D01*
X190677Y218576D01*
X190699Y218647D01*
X190749Y218812D01*
X190785Y218898D01*
X190835Y218984D01*
X190885Y219070D01*
X190943Y219164D01*
X191014Y219250D01*
X191093Y219329D01*
X191100Y219336D01*
X191115Y219350D01*
X191136Y219372D01*
X191172Y219393D01*
X191222Y219429D01*
X191272Y219465D01*
X191337Y219501D01*
X191409Y219544D01*
X191488Y219587D01*
X191574Y219622D01*
X191674Y219658D01*
X191774Y219694D01*
X191882Y219716D01*
X192004Y219737D01*
X192126Y219752D01*
X192255Y219759D01*
X192262D01*
X192276D01*
X192298D01*
X192334D01*
X192377Y219752D01*
D02*
G37*
G36*
X227478Y151863D02*
X227528Y151857D01*
X227589Y151851D01*
X227650Y151846D01*
X227722Y151829D01*
X227872Y151796D01*
X228039Y151746D01*
X228122Y151713D01*
X228200Y151674D01*
X228277Y151624D01*
X228355Y151574D01*
X228360Y151568D01*
X228372Y151563D01*
X228394Y151546D01*
X228421Y151518D01*
X228449Y151491D01*
X228488Y151452D01*
X228527Y151407D01*
X228571Y151363D01*
X228616Y151307D01*
X228660Y151241D01*
X228710Y151174D01*
X228754Y151102D01*
X228793Y151019D01*
X228838Y150936D01*
X228871Y150847D01*
X228904Y150747D01*
X228405Y150630D01*
Y150636D01*
X228399Y150647D01*
X228388Y150669D01*
X228377Y150697D01*
X228366Y150730D01*
X228349Y150775D01*
X228305Y150864D01*
X228249Y150963D01*
X228183Y151063D01*
X228100Y151158D01*
X228011Y151241D01*
X228000Y151252D01*
X227966Y151274D01*
X227911Y151302D01*
X227839Y151341D01*
X227744Y151374D01*
X227639Y151407D01*
X227511Y151430D01*
X227373Y151435D01*
X227328D01*
X227300Y151430D01*
X227261D01*
X227217Y151424D01*
X227112Y151407D01*
X226995Y151385D01*
X226873Y151346D01*
X226745Y151291D01*
X226629Y151219D01*
X226623D01*
X226618Y151208D01*
X226579Y151180D01*
X226529Y151136D01*
X226468Y151069D01*
X226396Y150986D01*
X226329Y150891D01*
X226268Y150775D01*
X226213Y150647D01*
Y150642D01*
X226207Y150630D01*
X226202Y150614D01*
X226196Y150586D01*
X226185Y150553D01*
X226174Y150514D01*
X226157Y150420D01*
X226135Y150309D01*
X226113Y150186D01*
X226102Y150053D01*
X226096Y149909D01*
Y149903D01*
Y149887D01*
Y149859D01*
Y149826D01*
X226102Y149787D01*
Y149737D01*
X226107Y149681D01*
X226113Y149620D01*
X226129Y149487D01*
X226157Y149343D01*
X226190Y149199D01*
X226235Y149054D01*
Y149049D01*
X226240Y149038D01*
X226251Y149021D01*
X226262Y148993D01*
X226296Y148927D01*
X226346Y148849D01*
X226407Y148760D01*
X226484Y148666D01*
X226573Y148582D01*
X226679Y148505D01*
X226684D01*
X226695Y148499D01*
X226712Y148488D01*
X226734Y148477D01*
X226762Y148466D01*
X226795Y148449D01*
X226873Y148416D01*
X226973Y148383D01*
X227084Y148355D01*
X227206Y148333D01*
X227334Y148327D01*
X227373D01*
X227406Y148333D01*
X227445D01*
X227484Y148338D01*
X227583Y148361D01*
X227700Y148388D01*
X227817Y148433D01*
X227939Y148494D01*
X228000Y148527D01*
X228055Y148571D01*
X228061Y148577D01*
X228066Y148582D01*
X228083Y148599D01*
X228105Y148616D01*
X228127Y148644D01*
X228155Y148677D01*
X228188Y148710D01*
X228216Y148755D01*
X228249Y148804D01*
X228288Y148860D01*
X228322Y148916D01*
X228355Y148982D01*
X228383Y149054D01*
X228410Y149132D01*
X228438Y149215D01*
X228460Y149304D01*
X228971Y149176D01*
Y149171D01*
X228965Y149149D01*
X228954Y149115D01*
X228938Y149071D01*
X228921Y149021D01*
X228899Y148960D01*
X228871Y148893D01*
X228838Y148821D01*
X228760Y148666D01*
X228660Y148510D01*
X228599Y148433D01*
X228538Y148355D01*
X228471Y148288D01*
X228394Y148222D01*
X228388Y148216D01*
X228377Y148205D01*
X228349Y148194D01*
X228322Y148172D01*
X228277Y148144D01*
X228233Y148116D01*
X228172Y148089D01*
X228111Y148061D01*
X228039Y148028D01*
X227961Y148000D01*
X227878Y147972D01*
X227789Y147944D01*
X227694Y147922D01*
X227594Y147911D01*
X227489Y147900D01*
X227378Y147894D01*
X227317D01*
X227273Y147900D01*
X227223D01*
X227162Y147905D01*
X227095Y147916D01*
X227017Y147928D01*
X226856Y147955D01*
X226690Y148000D01*
X226523Y148061D01*
X226446Y148100D01*
X226368Y148144D01*
X226362Y148150D01*
X226351Y148155D01*
X226329Y148172D01*
X226307Y148194D01*
X226274Y148216D01*
X226235Y148249D01*
X226190Y148288D01*
X226146Y148333D01*
X226102Y148383D01*
X226052Y148433D01*
X225952Y148560D01*
X225857Y148710D01*
X225774Y148877D01*
Y148882D01*
X225763Y148899D01*
X225758Y148927D01*
X225741Y148960D01*
X225730Y149004D01*
X225713Y149060D01*
X225691Y149121D01*
X225674Y149187D01*
X225658Y149260D01*
X225635Y149343D01*
X225608Y149515D01*
X225585Y149709D01*
X225574Y149909D01*
Y149915D01*
Y149937D01*
Y149970D01*
X225580Y150009D01*
Y150064D01*
X225585Y150120D01*
X225591Y150192D01*
X225602Y150264D01*
X225630Y150425D01*
X225669Y150603D01*
X225724Y150780D01*
X225802Y150952D01*
X225807Y150958D01*
X225813Y150975D01*
X225824Y150997D01*
X225846Y151024D01*
X225869Y151063D01*
X225896Y151108D01*
X225968Y151208D01*
X226063Y151319D01*
X226174Y151430D01*
X226301Y151541D01*
X226451Y151635D01*
X226457Y151641D01*
X226473Y151646D01*
X226496Y151657D01*
X226523Y151674D01*
X226568Y151690D01*
X226612Y151707D01*
X226668Y151729D01*
X226729Y151751D01*
X226795Y151774D01*
X226868Y151796D01*
X227023Y151829D01*
X227201Y151857D01*
X227384Y151868D01*
X227439D01*
X227478Y151863D01*
D02*
G37*
G36*
X213164D02*
X213214Y151857D01*
X213276Y151851D01*
X213337Y151846D01*
X213409Y151829D01*
X213559Y151796D01*
X213725Y151746D01*
X213808Y151713D01*
X213886Y151674D01*
X213964Y151624D01*
X214041Y151574D01*
X214047Y151568D01*
X214058Y151563D01*
X214080Y151546D01*
X214108Y151518D01*
X214136Y151491D01*
X214175Y151452D01*
X214213Y151407D01*
X214258Y151363D01*
X214302Y151307D01*
X214347Y151241D01*
X214397Y151174D01*
X214441Y151102D01*
X214480Y151019D01*
X214524Y150936D01*
X214558Y150847D01*
X214591Y150747D01*
X214091Y150630D01*
Y150636D01*
X214086Y150647D01*
X214075Y150669D01*
X214064Y150697D01*
X214053Y150730D01*
X214036Y150775D01*
X213991Y150864D01*
X213936Y150963D01*
X213869Y151063D01*
X213786Y151158D01*
X213697Y151241D01*
X213686Y151252D01*
X213653Y151274D01*
X213597Y151302D01*
X213525Y151341D01*
X213431Y151374D01*
X213326Y151407D01*
X213198Y151430D01*
X213059Y151435D01*
X213015D01*
X212987Y151430D01*
X212948D01*
X212904Y151424D01*
X212798Y151407D01*
X212682Y151385D01*
X212560Y151346D01*
X212432Y151291D01*
X212315Y151219D01*
X212310D01*
X212304Y151208D01*
X212265Y151180D01*
X212215Y151136D01*
X212154Y151069D01*
X212082Y150986D01*
X212016Y150891D01*
X211955Y150775D01*
X211899Y150647D01*
Y150642D01*
X211894Y150630D01*
X211888Y150614D01*
X211882Y150586D01*
X211871Y150553D01*
X211860Y150514D01*
X211844Y150420D01*
X211821Y150309D01*
X211799Y150186D01*
X211788Y150053D01*
X211783Y149909D01*
Y149903D01*
Y149887D01*
Y149859D01*
Y149826D01*
X211788Y149787D01*
Y149737D01*
X211794Y149681D01*
X211799Y149620D01*
X211816Y149487D01*
X211844Y149343D01*
X211877Y149199D01*
X211921Y149054D01*
Y149049D01*
X211927Y149038D01*
X211938Y149021D01*
X211949Y148993D01*
X211982Y148927D01*
X212032Y148849D01*
X212093Y148760D01*
X212171Y148666D01*
X212260Y148582D01*
X212365Y148505D01*
X212371D01*
X212382Y148499D01*
X212399Y148488D01*
X212421Y148477D01*
X212449Y148466D01*
X212482Y148449D01*
X212560Y148416D01*
X212660Y148383D01*
X212771Y148355D01*
X212893Y148333D01*
X213020Y148327D01*
X213059D01*
X213092Y148333D01*
X213131D01*
X213170Y148338D01*
X213270Y148361D01*
X213387Y148388D01*
X213503Y148433D01*
X213625Y148494D01*
X213686Y148527D01*
X213742Y148571D01*
X213747Y148577D01*
X213753Y148582D01*
X213770Y148599D01*
X213792Y148616D01*
X213814Y148644D01*
X213842Y148677D01*
X213875Y148710D01*
X213903Y148755D01*
X213936Y148804D01*
X213975Y148860D01*
X214008Y148916D01*
X214041Y148982D01*
X214069Y149054D01*
X214097Y149132D01*
X214125Y149215D01*
X214147Y149304D01*
X214657Y149176D01*
Y149171D01*
X214652Y149149D01*
X214641Y149115D01*
X214624Y149071D01*
X214608Y149021D01*
X214585Y148960D01*
X214558Y148893D01*
X214524Y148821D01*
X214447Y148666D01*
X214347Y148510D01*
X214286Y148433D01*
X214225Y148355D01*
X214158Y148288D01*
X214080Y148222D01*
X214075Y148216D01*
X214064Y148205D01*
X214036Y148194D01*
X214008Y148172D01*
X213964Y148144D01*
X213919Y148116D01*
X213858Y148089D01*
X213797Y148061D01*
X213725Y148028D01*
X213647Y148000D01*
X213564Y147972D01*
X213475Y147944D01*
X213381Y147922D01*
X213281Y147911D01*
X213176Y147900D01*
X213065Y147894D01*
X213004D01*
X212959Y147900D01*
X212909D01*
X212848Y147905D01*
X212782Y147916D01*
X212704Y147928D01*
X212543Y147955D01*
X212376Y148000D01*
X212210Y148061D01*
X212132Y148100D01*
X212054Y148144D01*
X212049Y148150D01*
X212038Y148155D01*
X212016Y148172D01*
X211994Y148194D01*
X211960Y148216D01*
X211921Y148249D01*
X211877Y148288D01*
X211832Y148333D01*
X211788Y148383D01*
X211738Y148433D01*
X211638Y148560D01*
X211544Y148710D01*
X211461Y148877D01*
Y148882D01*
X211450Y148899D01*
X211444Y148927D01*
X211427Y148960D01*
X211416Y149004D01*
X211400Y149060D01*
X211377Y149121D01*
X211361Y149187D01*
X211344Y149260D01*
X211322Y149343D01*
X211294Y149515D01*
X211272Y149709D01*
X211261Y149909D01*
Y149915D01*
Y149937D01*
Y149970D01*
X211266Y150009D01*
Y150064D01*
X211272Y150120D01*
X211278Y150192D01*
X211289Y150264D01*
X211316Y150425D01*
X211355Y150603D01*
X211411Y150780D01*
X211488Y150952D01*
X211494Y150958D01*
X211500Y150975D01*
X211511Y150997D01*
X211533Y151024D01*
X211555Y151063D01*
X211583Y151108D01*
X211655Y151208D01*
X211749Y151319D01*
X211860Y151430D01*
X211988Y151541D01*
X212138Y151635D01*
X212143Y151641D01*
X212160Y151646D01*
X212182Y151657D01*
X212210Y151674D01*
X212254Y151690D01*
X212299Y151707D01*
X212354Y151729D01*
X212415Y151751D01*
X212482Y151774D01*
X212554Y151796D01*
X212709Y151829D01*
X212887Y151857D01*
X213070Y151868D01*
X213126D01*
X213164Y151863D01*
D02*
G37*
G36*
X249434Y150803D02*
X249495Y150797D01*
X249567Y150786D01*
X249645Y150769D01*
X249728Y150747D01*
X249806Y150714D01*
X249817Y150708D01*
X249839Y150697D01*
X249878Y150680D01*
X249922Y150653D01*
X249978Y150619D01*
X250028Y150575D01*
X250078Y150531D01*
X250122Y150475D01*
X250128Y150470D01*
X250139Y150447D01*
X250155Y150420D01*
X250183Y150381D01*
X250205Y150325D01*
X250227Y150270D01*
X250255Y150203D01*
X250272Y150131D01*
Y150125D01*
X250277Y150103D01*
X250283Y150070D01*
X250289Y150025D01*
Y149959D01*
X250294Y149881D01*
X250300Y149787D01*
Y149670D01*
Y147961D01*
X249828D01*
Y149648D01*
Y149654D01*
Y149659D01*
Y149698D01*
Y149748D01*
X249822Y149809D01*
X249817Y149881D01*
X249806Y149953D01*
X249789Y150020D01*
X249772Y150081D01*
Y150087D01*
X249761Y150103D01*
X249745Y150131D01*
X249728Y150164D01*
X249700Y150198D01*
X249667Y150236D01*
X249623Y150275D01*
X249572Y150309D01*
X249567Y150314D01*
X249550Y150325D01*
X249517Y150336D01*
X249478Y150353D01*
X249434Y150370D01*
X249378Y150386D01*
X249312Y150392D01*
X249245Y150397D01*
X249217D01*
X249195Y150392D01*
X249140Y150386D01*
X249067Y150375D01*
X248990Y150347D01*
X248901Y150314D01*
X248812Y150270D01*
X248729Y150203D01*
X248718Y150192D01*
X248696Y150164D01*
X248679Y150142D01*
X248662Y150114D01*
X248640Y150081D01*
X248623Y150042D01*
X248601Y149998D01*
X248579Y149942D01*
X248562Y149881D01*
X248546Y149815D01*
X248535Y149742D01*
X248524Y149665D01*
X248513Y149570D01*
Y149476D01*
Y147961D01*
X248041D01*
Y150747D01*
X248463D01*
Y150347D01*
X248468Y150353D01*
X248479Y150370D01*
X248496Y150392D01*
X248518Y150420D01*
X248551Y150453D01*
X248590Y150492D01*
X248635Y150536D01*
X248690Y150581D01*
X248746Y150619D01*
X248812Y150664D01*
X248884Y150703D01*
X248962Y150736D01*
X249051Y150764D01*
X249140Y150786D01*
X249239Y150803D01*
X249345Y150808D01*
X249389D01*
X249434Y150803D01*
D02*
G37*
G36*
X233916D02*
X233977Y150797D01*
X234049Y150786D01*
X234127Y150769D01*
X234210Y150747D01*
X234288Y150714D01*
X234299Y150708D01*
X234321Y150697D01*
X234360Y150680D01*
X234404Y150653D01*
X234460Y150619D01*
X234510Y150575D01*
X234560Y150531D01*
X234604Y150475D01*
X234610Y150470D01*
X234621Y150447D01*
X234637Y150420D01*
X234665Y150381D01*
X234687Y150325D01*
X234710Y150270D01*
X234737Y150203D01*
X234754Y150131D01*
Y150125D01*
X234760Y150103D01*
X234765Y150070D01*
X234771Y150025D01*
Y149959D01*
X234776Y149881D01*
X234782Y149787D01*
Y149670D01*
Y147961D01*
X234310D01*
Y149648D01*
Y149654D01*
Y149659D01*
Y149698D01*
Y149748D01*
X234304Y149809D01*
X234299Y149881D01*
X234288Y149953D01*
X234271Y150020D01*
X234255Y150081D01*
Y150087D01*
X234243Y150103D01*
X234227Y150131D01*
X234210Y150164D01*
X234182Y150198D01*
X234149Y150236D01*
X234105Y150275D01*
X234055Y150309D01*
X234049Y150314D01*
X234033Y150325D01*
X233999Y150336D01*
X233960Y150353D01*
X233916Y150370D01*
X233860Y150386D01*
X233794Y150392D01*
X233727Y150397D01*
X233699D01*
X233677Y150392D01*
X233622Y150386D01*
X233550Y150375D01*
X233472Y150347D01*
X233383Y150314D01*
X233294Y150270D01*
X233211Y150203D01*
X233200Y150192D01*
X233178Y150164D01*
X233161Y150142D01*
X233144Y150114D01*
X233122Y150081D01*
X233106Y150042D01*
X233084Y149998D01*
X233061Y149942D01*
X233045Y149881D01*
X233028Y149815D01*
X233017Y149742D01*
X233006Y149665D01*
X232995Y149570D01*
Y149476D01*
Y147961D01*
X232523D01*
Y150747D01*
X232945D01*
Y150347D01*
X232950Y150353D01*
X232961Y150370D01*
X232978Y150392D01*
X233000Y150420D01*
X233033Y150453D01*
X233072Y150492D01*
X233117Y150536D01*
X233172Y150581D01*
X233228Y150619D01*
X233294Y150664D01*
X233366Y150703D01*
X233444Y150736D01*
X233533Y150764D01*
X233622Y150786D01*
X233722Y150803D01*
X233827Y150808D01*
X233872D01*
X233916Y150803D01*
D02*
G37*
G36*
X244378D02*
X244439Y150791D01*
X244511Y150769D01*
X244589Y150742D01*
X244677Y150703D01*
X244772Y150653D01*
X244600Y150220D01*
X244594Y150225D01*
X244572Y150236D01*
X244539Y150253D01*
X244494Y150270D01*
X244444Y150286D01*
X244383Y150303D01*
X244322Y150314D01*
X244261Y150320D01*
X244233D01*
X244206Y150314D01*
X244167Y150309D01*
X244128Y150297D01*
X244078Y150281D01*
X244028Y150259D01*
X243984Y150225D01*
X243978Y150220D01*
X243962Y150209D01*
X243945Y150186D01*
X243917Y150159D01*
X243889Y150120D01*
X243862Y150075D01*
X243834Y150025D01*
X243812Y149964D01*
X243806Y149953D01*
X243800Y149920D01*
X243789Y149870D01*
X243773Y149803D01*
X243756Y149720D01*
X243745Y149626D01*
X243740Y149526D01*
X243734Y149415D01*
Y147961D01*
X243262D01*
Y150747D01*
X243689D01*
Y150325D01*
X243695Y150331D01*
X243717Y150370D01*
X243745Y150420D01*
X243789Y150481D01*
X243834Y150542D01*
X243884Y150608D01*
X243934Y150664D01*
X243984Y150708D01*
X243989Y150714D01*
X244006Y150725D01*
X244039Y150742D01*
X244073Y150758D01*
X244117Y150775D01*
X244172Y150791D01*
X244228Y150803D01*
X244289Y150808D01*
X244328D01*
X244378Y150803D01*
D02*
G37*
G36*
X252053D02*
X252137Y150797D01*
X252225Y150786D01*
X252320Y150764D01*
X252420Y150742D01*
X252514Y150708D01*
X252520D01*
X252525Y150703D01*
X252553Y150691D01*
X252597Y150669D01*
X252653Y150642D01*
X252714Y150603D01*
X252775Y150558D01*
X252830Y150508D01*
X252880Y150453D01*
X252886Y150447D01*
X252897Y150425D01*
X252919Y150386D01*
X252947Y150342D01*
X252975Y150275D01*
X253002Y150203D01*
X253025Y150120D01*
X253047Y150025D01*
X252586Y149964D01*
Y149976D01*
X252581Y149998D01*
X252570Y150037D01*
X252553Y150087D01*
X252525Y150136D01*
X252492Y150192D01*
X252453Y150248D01*
X252397Y150297D01*
X252392Y150303D01*
X252370Y150314D01*
X252336Y150336D01*
X252287Y150358D01*
X252231Y150381D01*
X252159Y150403D01*
X252070Y150414D01*
X251976Y150420D01*
X251920D01*
X251865Y150414D01*
X251793Y150408D01*
X251720Y150392D01*
X251643Y150375D01*
X251571Y150347D01*
X251509Y150309D01*
X251504Y150303D01*
X251487Y150292D01*
X251465Y150270D01*
X251443Y150236D01*
X251415Y150203D01*
X251393Y150159D01*
X251376Y150109D01*
X251371Y150059D01*
Y150053D01*
Y150042D01*
X251376Y150025D01*
Y150003D01*
X251393Y149948D01*
X251426Y149892D01*
X251432Y149887D01*
X251437Y149881D01*
X251448Y149865D01*
X251471Y149848D01*
X251493Y149831D01*
X251526Y149809D01*
X251565Y149792D01*
X251609Y149770D01*
X251615D01*
X251626Y149765D01*
X251648Y149759D01*
X251687Y149742D01*
X251743Y149726D01*
X251815Y149709D01*
X251859Y149692D01*
X251909Y149681D01*
X251965Y149665D01*
X252026Y149648D01*
X252031D01*
X252048Y149643D01*
X252076Y149637D01*
X252109Y149626D01*
X252148Y149615D01*
X252198Y149604D01*
X252303Y149570D01*
X252420Y149537D01*
X252536Y149498D01*
X252642Y149459D01*
X252686Y149443D01*
X252725Y149426D01*
X252736Y149421D01*
X252758Y149409D01*
X252792Y149393D01*
X252841Y149365D01*
X252891Y149332D01*
X252941Y149287D01*
X252991Y149237D01*
X253036Y149182D01*
X253041Y149176D01*
X253052Y149154D01*
X253075Y149121D01*
X253097Y149071D01*
X253113Y149010D01*
X253136Y148943D01*
X253147Y148866D01*
X253152Y148777D01*
Y148766D01*
Y148738D01*
X253147Y148694D01*
X253136Y148632D01*
X253119Y148566D01*
X253091Y148494D01*
X253058Y148410D01*
X253013Y148333D01*
X253008Y148322D01*
X252986Y148300D01*
X252958Y148261D01*
X252914Y148216D01*
X252853Y148166D01*
X252786Y148111D01*
X252708Y148061D01*
X252614Y148011D01*
X252608D01*
X252603Y148005D01*
X252570Y147994D01*
X252514Y147977D01*
X252442Y147955D01*
X252353Y147933D01*
X252253Y147916D01*
X252148Y147905D01*
X252026Y147900D01*
X251976D01*
X251937Y147905D01*
X251892D01*
X251837Y147911D01*
X251781Y147916D01*
X251720Y147928D01*
X251587Y147955D01*
X251448Y147994D01*
X251315Y148050D01*
X251254Y148083D01*
X251199Y148122D01*
X251193Y148127D01*
X251188Y148133D01*
X251154Y148166D01*
X251104Y148216D01*
X251049Y148294D01*
X250988Y148388D01*
X250927Y148499D01*
X250877Y148638D01*
X250838Y148793D01*
X251304Y148866D01*
Y148860D01*
Y148854D01*
X251315Y148821D01*
X251326Y148766D01*
X251348Y148705D01*
X251376Y148638D01*
X251410Y148566D01*
X251460Y148494D01*
X251521Y148433D01*
X251532Y148427D01*
X251554Y148410D01*
X251598Y148388D01*
X251654Y148361D01*
X251726Y148333D01*
X251809Y148310D01*
X251909Y148294D01*
X252026Y148288D01*
X252081D01*
X252137Y148294D01*
X252209Y148305D01*
X252287Y148322D01*
X252370Y148344D01*
X252442Y148372D01*
X252508Y148416D01*
X252514Y148422D01*
X252536Y148438D01*
X252558Y148466D01*
X252592Y148505D01*
X252620Y148549D01*
X252647Y148605D01*
X252664Y148660D01*
X252669Y148727D01*
Y148732D01*
Y148755D01*
X252664Y148782D01*
X252653Y148821D01*
X252636Y148860D01*
X252608Y148899D01*
X252575Y148943D01*
X252525Y148977D01*
X252520Y148982D01*
X252503Y148988D01*
X252475Y149004D01*
X252431Y149021D01*
X252364Y149043D01*
X252325Y149060D01*
X252281Y149071D01*
X252231Y149088D01*
X252175Y149104D01*
X252114Y149121D01*
X252042Y149137D01*
X252037D01*
X252020Y149143D01*
X251992Y149149D01*
X251959Y149160D01*
X251915Y149171D01*
X251865Y149187D01*
X251759Y149215D01*
X251637Y149254D01*
X251521Y149287D01*
X251410Y149326D01*
X251360Y149348D01*
X251321Y149365D01*
X251310Y149371D01*
X251288Y149382D01*
X251254Y149404D01*
X251210Y149432D01*
X251160Y149470D01*
X251110Y149515D01*
X251060Y149565D01*
X251015Y149626D01*
X251010Y149631D01*
X250999Y149654D01*
X250982Y149692D01*
X250966Y149737D01*
X250949Y149792D01*
X250932Y149859D01*
X250921Y149926D01*
X250916Y150003D01*
Y150014D01*
Y150037D01*
X250921Y150070D01*
X250927Y150120D01*
X250938Y150170D01*
X250949Y150231D01*
X250971Y150286D01*
X250999Y150347D01*
X251004Y150353D01*
X251015Y150375D01*
X251032Y150403D01*
X251060Y150442D01*
X251093Y150481D01*
X251132Y150531D01*
X251177Y150575D01*
X251232Y150614D01*
X251238Y150619D01*
X251254Y150625D01*
X251276Y150642D01*
X251310Y150658D01*
X251354Y150680D01*
X251404Y150703D01*
X251465Y150725D01*
X251532Y150747D01*
X251543Y150752D01*
X251565Y150758D01*
X251604Y150769D01*
X251654Y150780D01*
X251715Y150791D01*
X251781Y150797D01*
X251859Y150808D01*
X251992D01*
X252053Y150803D01*
D02*
G37*
G36*
X221884Y147961D02*
X221356D01*
X219347Y150975D01*
Y147961D01*
X218859D01*
Y151802D01*
X219380D01*
X221395Y148782D01*
Y151802D01*
X221884D01*
Y147961D01*
D02*
G37*
G36*
X246354Y150803D02*
X246437Y150797D01*
X246531Y150786D01*
X246625Y150769D01*
X246720Y150747D01*
X246809Y150719D01*
X246820Y150714D01*
X246848Y150703D01*
X246886Y150686D01*
X246936Y150664D01*
X246992Y150630D01*
X247047Y150597D01*
X247097Y150553D01*
X247142Y150508D01*
X247147Y150503D01*
X247158Y150486D01*
X247175Y150458D01*
X247197Y150425D01*
X247225Y150375D01*
X247247Y150325D01*
X247269Y150264D01*
X247286Y150192D01*
Y150186D01*
X247291Y150170D01*
X247297Y150136D01*
X247303Y150092D01*
Y150031D01*
X247308Y149959D01*
X247314Y149865D01*
Y149759D01*
Y149126D01*
Y149121D01*
Y149099D01*
Y149065D01*
Y149021D01*
Y148971D01*
Y148910D01*
X247319Y148777D01*
Y148638D01*
X247325Y148499D01*
X247330Y148438D01*
Y148383D01*
X247336Y148333D01*
X247341Y148294D01*
Y148288D01*
X247347Y148266D01*
X247353Y148233D01*
X247369Y148188D01*
X247380Y148138D01*
X247403Y148083D01*
X247430Y148022D01*
X247458Y147961D01*
X246964D01*
X246958Y147967D01*
X246953Y147989D01*
X246942Y148016D01*
X246925Y148061D01*
X246908Y148111D01*
X246897Y148172D01*
X246886Y148238D01*
X246875Y148310D01*
X246870D01*
X246864Y148300D01*
X246831Y148272D01*
X246781Y148233D01*
X246714Y148183D01*
X246631Y148133D01*
X246548Y148077D01*
X246459Y148028D01*
X246365Y147989D01*
X246354Y147983D01*
X246320Y147977D01*
X246270Y147961D01*
X246209Y147944D01*
X246131Y147928D01*
X246043Y147916D01*
X245943Y147905D01*
X245843Y147900D01*
X245798D01*
X245765Y147905D01*
X245726D01*
X245682Y147911D01*
X245582Y147928D01*
X245471Y147955D01*
X245349Y147994D01*
X245238Y148050D01*
X245138Y148122D01*
X245127Y148133D01*
X245099Y148161D01*
X245060Y148211D01*
X245016Y148277D01*
X244972Y148361D01*
X244933Y148455D01*
X244905Y148571D01*
X244899Y148627D01*
X244894Y148694D01*
Y148705D01*
Y148727D01*
X244899Y148766D01*
X244905Y148816D01*
X244916Y148877D01*
X244933Y148938D01*
X244955Y149004D01*
X244983Y149065D01*
X244988Y149071D01*
X244999Y149093D01*
X245022Y149126D01*
X245049Y149165D01*
X245083Y149210D01*
X245127Y149254D01*
X245171Y149299D01*
X245227Y149337D01*
X245232Y149343D01*
X245255Y149354D01*
X245282Y149376D01*
X245327Y149398D01*
X245377Y149421D01*
X245438Y149448D01*
X245499Y149470D01*
X245571Y149493D01*
X245577D01*
X245599Y149498D01*
X245632Y149509D01*
X245676Y149515D01*
X245732Y149526D01*
X245804Y149537D01*
X245887Y149554D01*
X245987Y149565D01*
X245993D01*
X246015Y149570D01*
X246043D01*
X246082Y149576D01*
X246126Y149582D01*
X246182Y149593D01*
X246242Y149598D01*
X246309Y149609D01*
X246442Y149637D01*
X246587Y149665D01*
X246714Y149698D01*
X246775Y149715D01*
X246831Y149731D01*
Y149737D01*
Y149748D01*
X246836Y149781D01*
Y149820D01*
Y149842D01*
Y149853D01*
Y149859D01*
Y149865D01*
Y149898D01*
X246831Y149953D01*
X246820Y150014D01*
X246803Y150081D01*
X246775Y150148D01*
X246742Y150209D01*
X246698Y150259D01*
X246692Y150264D01*
X246664Y150286D01*
X246620Y150309D01*
X246564Y150342D01*
X246487Y150370D01*
X246398Y150397D01*
X246287Y150414D01*
X246159Y150420D01*
X246104D01*
X246048Y150414D01*
X245971Y150403D01*
X245893Y150392D01*
X245810Y150370D01*
X245732Y150342D01*
X245665Y150303D01*
X245660Y150297D01*
X245638Y150281D01*
X245610Y150253D01*
X245577Y150209D01*
X245543Y150153D01*
X245504Y150081D01*
X245471Y149992D01*
X245438Y149892D01*
X244977Y149953D01*
Y149959D01*
X244983Y149964D01*
Y149981D01*
X244988Y150003D01*
X245005Y150053D01*
X245027Y150125D01*
X245055Y150198D01*
X245088Y150275D01*
X245132Y150353D01*
X245182Y150425D01*
X245188Y150431D01*
X245210Y150453D01*
X245244Y150486D01*
X245288Y150531D01*
X245349Y150575D01*
X245421Y150619D01*
X245504Y150669D01*
X245599Y150708D01*
X245604D01*
X245610Y150714D01*
X245626Y150719D01*
X245649Y150725D01*
X245704Y150742D01*
X245782Y150758D01*
X245871Y150775D01*
X245982Y150791D01*
X246098Y150803D01*
X246231Y150808D01*
X246292D01*
X246354Y150803D01*
D02*
G37*
G36*
X242801Y151346D02*
X241536D01*
Y147961D01*
X241025D01*
Y151346D01*
X239760D01*
Y151802D01*
X242801D01*
Y151346D01*
D02*
G37*
G36*
X218454Y147961D02*
X217877D01*
X217427Y149126D01*
X215817D01*
X215401Y147961D01*
X214863D01*
X216328Y151802D01*
X216883D01*
X218454Y147961D01*
D02*
G37*
G36*
X236058Y150747D02*
X236536D01*
Y150381D01*
X236058D01*
Y148743D01*
Y148732D01*
Y148710D01*
Y148677D01*
X236064Y148638D01*
X236069Y148549D01*
X236075Y148510D01*
X236081Y148483D01*
X236086Y148471D01*
X236103Y148449D01*
X236125Y148422D01*
X236164Y148394D01*
X236175Y148388D01*
X236203Y148377D01*
X236252Y148366D01*
X236325Y148361D01*
X236380D01*
X236408Y148366D01*
X236447D01*
X236491Y148372D01*
X236536Y148377D01*
X236597Y147961D01*
X236585D01*
X236563Y147955D01*
X236525Y147950D01*
X236474Y147944D01*
X236419Y147933D01*
X236358Y147928D01*
X236236Y147922D01*
X236192D01*
X236147Y147928D01*
X236092Y147933D01*
X236025Y147939D01*
X235958Y147955D01*
X235897Y147972D01*
X235836Y148000D01*
X235831Y148005D01*
X235814Y148016D01*
X235792Y148033D01*
X235759Y148061D01*
X235731Y148089D01*
X235698Y148127D01*
X235664Y148166D01*
X235642Y148216D01*
Y148222D01*
X235631Y148244D01*
X235625Y148283D01*
X235614Y148338D01*
X235603Y148410D01*
X235598Y148455D01*
Y148505D01*
X235592Y148566D01*
X235587Y148627D01*
Y148694D01*
Y148771D01*
Y150381D01*
X235237D01*
Y150747D01*
X235587D01*
Y151435D01*
X236058Y151718D01*
Y150747D01*
D02*
G37*
G36*
X230758Y150803D02*
X230808Y150797D01*
X230863Y150786D01*
X230925Y150775D01*
X230997Y150764D01*
X231147Y150714D01*
X231224Y150686D01*
X231302Y150647D01*
X231380Y150608D01*
X231457Y150553D01*
X231529Y150497D01*
X231602Y150431D01*
X231607Y150425D01*
X231618Y150414D01*
X231635Y150392D01*
X231657Y150364D01*
X231685Y150325D01*
X231718Y150275D01*
X231751Y150220D01*
X231785Y150159D01*
X231818Y150092D01*
X231851Y150009D01*
X231885Y149926D01*
X231912Y149831D01*
X231935Y149731D01*
X231951Y149626D01*
X231962Y149515D01*
X231968Y149393D01*
Y149387D01*
Y149371D01*
Y149343D01*
Y149304D01*
X231962Y149260D01*
X231957Y149204D01*
Y149149D01*
X231946Y149088D01*
X231929Y148949D01*
X231896Y148810D01*
X231857Y148671D01*
X231801Y148544D01*
Y148538D01*
X231796Y148532D01*
X231785Y148516D01*
X231774Y148494D01*
X231735Y148438D01*
X231685Y148372D01*
X231618Y148294D01*
X231535Y148216D01*
X231441Y148138D01*
X231330Y148066D01*
X231324D01*
X231319Y148061D01*
X231302Y148050D01*
X231274Y148039D01*
X231246Y148028D01*
X231213Y148016D01*
X231130Y147983D01*
X231035Y147955D01*
X230919Y147928D01*
X230797Y147905D01*
X230664Y147900D01*
X230608D01*
X230564Y147905D01*
X230514Y147911D01*
X230458Y147922D01*
X230392Y147933D01*
X230325Y147944D01*
X230175Y147989D01*
X230092Y148022D01*
X230014Y148055D01*
X229937Y148100D01*
X229859Y148150D01*
X229787Y148205D01*
X229715Y148272D01*
X229709Y148277D01*
X229698Y148288D01*
X229681Y148310D01*
X229659Y148344D01*
X229631Y148383D01*
X229604Y148427D01*
X229570Y148483D01*
X229537Y148549D01*
X229504Y148621D01*
X229470Y148705D01*
X229443Y148793D01*
X229415Y148888D01*
X229393Y148993D01*
X229376Y149104D01*
X229365Y149226D01*
X229359Y149354D01*
Y149365D01*
Y149387D01*
X229365Y149426D01*
Y149482D01*
X229370Y149543D01*
X229382Y149620D01*
X229393Y149698D01*
X229415Y149787D01*
X229437Y149876D01*
X229465Y149970D01*
X229498Y150070D01*
X229543Y150164D01*
X229587Y150253D01*
X229648Y150342D01*
X229709Y150425D01*
X229787Y150497D01*
X229792Y150503D01*
X229803Y150508D01*
X229826Y150525D01*
X229853Y150547D01*
X229887Y150569D01*
X229931Y150597D01*
X229976Y150625D01*
X230031Y150653D01*
X230092Y150680D01*
X230159Y150708D01*
X230309Y150758D01*
X230481Y150797D01*
X230569Y150803D01*
X230664Y150808D01*
X230719D01*
X230758Y150803D01*
D02*
G37*
G36*
X239688Y146895D02*
X236563D01*
Y147234D01*
X239688D01*
Y146895D01*
D02*
G37*
G36*
X225363D02*
X222239D01*
Y147234D01*
X225363D01*
Y146895D01*
D02*
G37*
G36*
X177734Y65377D02*
X177795Y65366D01*
X177867Y65344D01*
X177945Y65316D01*
X178033Y65277D01*
X178128Y65227D01*
X177956Y64794D01*
X177950Y64800D01*
X177928Y64811D01*
X177895Y64828D01*
X177850Y64844D01*
X177800Y64861D01*
X177739Y64877D01*
X177678Y64889D01*
X177617Y64894D01*
X177589D01*
X177562Y64889D01*
X177523Y64883D01*
X177484Y64872D01*
X177434Y64855D01*
X177384Y64833D01*
X177340Y64800D01*
X177334Y64794D01*
X177318Y64783D01*
X177301Y64761D01*
X177273Y64733D01*
X177245Y64694D01*
X177218Y64650D01*
X177190Y64600D01*
X177168Y64539D01*
X177162Y64528D01*
X177157Y64495D01*
X177146Y64445D01*
X177129Y64378D01*
X177112Y64295D01*
X177101Y64200D01*
X177096Y64100D01*
X177090Y63990D01*
Y62535D01*
X176618D01*
Y65321D01*
X177046D01*
Y64900D01*
X177051Y64905D01*
X177073Y64944D01*
X177101Y64994D01*
X177146Y65055D01*
X177190Y65116D01*
X177240Y65183D01*
X177290Y65238D01*
X177340Y65283D01*
X177345Y65288D01*
X177362Y65299D01*
X177395Y65316D01*
X177429Y65333D01*
X177473Y65349D01*
X177529Y65366D01*
X177584Y65377D01*
X177645Y65383D01*
X177684D01*
X177734Y65377D01*
D02*
G37*
G36*
X181391D02*
X181430D01*
X181469Y65372D01*
X181563Y65355D01*
X181663Y65327D01*
X181769Y65283D01*
X181874Y65227D01*
X181963Y65149D01*
X181974Y65138D01*
X181996Y65105D01*
X182035Y65055D01*
X182052Y65016D01*
X182074Y64977D01*
X182096Y64928D01*
X182113Y64877D01*
X182135Y64822D01*
X182152Y64755D01*
X182163Y64689D01*
X182174Y64611D01*
X182185Y64533D01*
Y64445D01*
Y62535D01*
X181713D01*
Y64284D01*
Y64289D01*
Y64295D01*
Y64328D01*
Y64378D01*
X181708Y64439D01*
X181702Y64506D01*
X181696Y64572D01*
X181685Y64639D01*
X181669Y64689D01*
Y64694D01*
X181658Y64711D01*
X181647Y64733D01*
X181630Y64761D01*
X181608Y64794D01*
X181580Y64828D01*
X181547Y64861D01*
X181502Y64894D01*
X181497Y64900D01*
X181480Y64905D01*
X181458Y64916D01*
X181419Y64933D01*
X181380Y64950D01*
X181330Y64961D01*
X181280Y64966D01*
X181219Y64972D01*
X181192D01*
X181169Y64966D01*
X181114Y64961D01*
X181047Y64950D01*
X180970Y64922D01*
X180886Y64889D01*
X180803Y64839D01*
X180725Y64772D01*
X180720Y64761D01*
X180698Y64733D01*
X180664Y64689D01*
X180631Y64622D01*
X180592Y64533D01*
X180564Y64428D01*
X180542Y64300D01*
X180531Y64151D01*
Y62535D01*
X180059D01*
Y64339D01*
Y64345D01*
Y64356D01*
Y64367D01*
Y64389D01*
X180054Y64450D01*
X180043Y64517D01*
X180032Y64595D01*
X180009Y64672D01*
X179982Y64744D01*
X179943Y64811D01*
X179937Y64816D01*
X179920Y64839D01*
X179893Y64861D01*
X179854Y64894D01*
X179804Y64922D01*
X179737Y64950D01*
X179660Y64966D01*
X179565Y64972D01*
X179532D01*
X179493Y64966D01*
X179449Y64961D01*
X179393Y64944D01*
X179327Y64928D01*
X179266Y64900D01*
X179199Y64866D01*
X179193Y64861D01*
X179171Y64844D01*
X179144Y64822D01*
X179105Y64789D01*
X179066Y64744D01*
X179027Y64689D01*
X178988Y64628D01*
X178955Y64556D01*
X178949Y64544D01*
X178944Y64517D01*
X178933Y64472D01*
X178916Y64411D01*
X178899Y64328D01*
X178888Y64228D01*
X178883Y64112D01*
X178877Y63978D01*
Y62535D01*
X178405D01*
Y65321D01*
X178827D01*
Y64922D01*
X178833Y64933D01*
X178849Y64955D01*
X178883Y64994D01*
X178921Y65039D01*
X178972Y65094D01*
X179033Y65149D01*
X179099Y65205D01*
X179177Y65255D01*
X179188Y65260D01*
X179216Y65277D01*
X179260Y65294D01*
X179321Y65321D01*
X179393Y65344D01*
X179476Y65360D01*
X179571Y65377D01*
X179671Y65383D01*
X179721D01*
X179782Y65377D01*
X179848Y65366D01*
X179932Y65349D01*
X180015Y65327D01*
X180098Y65294D01*
X180176Y65249D01*
X180187Y65244D01*
X180209Y65227D01*
X180242Y65199D01*
X180287Y65155D01*
X180331Y65105D01*
X180381Y65044D01*
X180426Y64972D01*
X180459Y64889D01*
X180464Y64894D01*
X180475Y64911D01*
X180492Y64933D01*
X180520Y64966D01*
X180553Y65005D01*
X180592Y65044D01*
X180637Y65088D01*
X180692Y65138D01*
X180753Y65183D01*
X180814Y65227D01*
X180886Y65266D01*
X180964Y65305D01*
X181047Y65338D01*
X181136Y65360D01*
X181225Y65377D01*
X181325Y65383D01*
X181363D01*
X181391Y65377D01*
D02*
G37*
G36*
X190771D02*
X190854Y65372D01*
X190943Y65360D01*
X191037Y65338D01*
X191137Y65316D01*
X191231Y65283D01*
X191237D01*
X191243Y65277D01*
X191270Y65266D01*
X191315Y65244D01*
X191370Y65216D01*
X191431Y65177D01*
X191492Y65133D01*
X191548Y65083D01*
X191598Y65027D01*
X191603Y65022D01*
X191614Y65000D01*
X191637Y64961D01*
X191664Y64916D01*
X191692Y64850D01*
X191720Y64778D01*
X191742Y64694D01*
X191764Y64600D01*
X191304Y64539D01*
Y64550D01*
X191298Y64572D01*
X191287Y64611D01*
X191270Y64661D01*
X191243Y64711D01*
X191209Y64767D01*
X191170Y64822D01*
X191115Y64872D01*
X191109Y64877D01*
X191087Y64889D01*
X191054Y64911D01*
X191004Y64933D01*
X190948Y64955D01*
X190876Y64977D01*
X190787Y64988D01*
X190693Y64994D01*
X190638D01*
X190582Y64988D01*
X190510Y64983D01*
X190438Y64966D01*
X190360Y64950D01*
X190288Y64922D01*
X190227Y64883D01*
X190221Y64877D01*
X190205Y64866D01*
X190182Y64844D01*
X190160Y64811D01*
X190132Y64778D01*
X190110Y64733D01*
X190094Y64683D01*
X190088Y64633D01*
Y64628D01*
Y64617D01*
X190094Y64600D01*
Y64578D01*
X190110Y64522D01*
X190144Y64467D01*
X190149Y64461D01*
X190155Y64456D01*
X190166Y64439D01*
X190188Y64422D01*
X190210Y64406D01*
X190243Y64384D01*
X190282Y64367D01*
X190327Y64345D01*
X190332D01*
X190343Y64339D01*
X190366Y64334D01*
X190404Y64317D01*
X190460Y64300D01*
X190532Y64284D01*
X190577Y64267D01*
X190627Y64256D01*
X190682Y64239D01*
X190743Y64223D01*
X190749D01*
X190765Y64217D01*
X190793Y64211D01*
X190826Y64200D01*
X190865Y64189D01*
X190915Y64178D01*
X191021Y64145D01*
X191137Y64112D01*
X191254Y64073D01*
X191359Y64034D01*
X191403Y64017D01*
X191442Y64001D01*
X191453Y63995D01*
X191476Y63984D01*
X191509Y63967D01*
X191559Y63940D01*
X191609Y63906D01*
X191659Y63862D01*
X191709Y63812D01*
X191753Y63756D01*
X191759Y63751D01*
X191770Y63729D01*
X191792Y63695D01*
X191814Y63645D01*
X191831Y63584D01*
X191853Y63518D01*
X191864Y63440D01*
X191870Y63351D01*
Y63340D01*
Y63312D01*
X191864Y63268D01*
X191853Y63207D01*
X191836Y63140D01*
X191809Y63068D01*
X191775Y62985D01*
X191731Y62907D01*
X191725Y62896D01*
X191703Y62874D01*
X191675Y62835D01*
X191631Y62791D01*
X191570Y62741D01*
X191503Y62685D01*
X191426Y62635D01*
X191331Y62585D01*
X191326D01*
X191320Y62580D01*
X191287Y62569D01*
X191231Y62552D01*
X191159Y62530D01*
X191070Y62508D01*
X190971Y62491D01*
X190865Y62480D01*
X190743Y62474D01*
X190693D01*
X190654Y62480D01*
X190610D01*
X190554Y62485D01*
X190499Y62491D01*
X190438Y62502D01*
X190305Y62530D01*
X190166Y62569D01*
X190033Y62624D01*
X189972Y62657D01*
X189916Y62696D01*
X189910Y62702D01*
X189905Y62708D01*
X189872Y62741D01*
X189822Y62791D01*
X189766Y62868D01*
X189705Y62963D01*
X189644Y63074D01*
X189594Y63213D01*
X189555Y63368D01*
X190022Y63440D01*
Y63434D01*
Y63429D01*
X190033Y63396D01*
X190044Y63340D01*
X190066Y63279D01*
X190094Y63213D01*
X190127Y63140D01*
X190177Y63068D01*
X190238Y63007D01*
X190249Y63002D01*
X190271Y62985D01*
X190316Y62963D01*
X190371Y62935D01*
X190443Y62907D01*
X190527Y62885D01*
X190627Y62868D01*
X190743Y62863D01*
X190798D01*
X190854Y62868D01*
X190926Y62880D01*
X191004Y62896D01*
X191087Y62918D01*
X191159Y62946D01*
X191226Y62990D01*
X191231Y62996D01*
X191254Y63013D01*
X191276Y63041D01*
X191309Y63079D01*
X191337Y63124D01*
X191365Y63179D01*
X191381Y63235D01*
X191387Y63301D01*
Y63307D01*
Y63329D01*
X191381Y63357D01*
X191370Y63396D01*
X191353Y63434D01*
X191326Y63473D01*
X191293Y63518D01*
X191243Y63551D01*
X191237Y63557D01*
X191220Y63562D01*
X191193Y63579D01*
X191148Y63595D01*
X191082Y63618D01*
X191043Y63634D01*
X190998Y63645D01*
X190948Y63662D01*
X190893Y63679D01*
X190832Y63695D01*
X190760Y63712D01*
X190754D01*
X190737Y63718D01*
X190710Y63723D01*
X190676Y63734D01*
X190632Y63745D01*
X190582Y63762D01*
X190477Y63790D01*
X190355Y63829D01*
X190238Y63862D01*
X190127Y63901D01*
X190077Y63923D01*
X190038Y63940D01*
X190027Y63945D01*
X190005Y63956D01*
X189972Y63978D01*
X189927Y64006D01*
X189877Y64045D01*
X189827Y64089D01*
X189777Y64139D01*
X189733Y64200D01*
X189727Y64206D01*
X189716Y64228D01*
X189700Y64267D01*
X189683Y64311D01*
X189666Y64367D01*
X189650Y64433D01*
X189639Y64500D01*
X189633Y64578D01*
Y64589D01*
Y64611D01*
X189639Y64644D01*
X189644Y64694D01*
X189655Y64744D01*
X189666Y64805D01*
X189689Y64861D01*
X189716Y64922D01*
X189722Y64928D01*
X189733Y64950D01*
X189750Y64977D01*
X189777Y65016D01*
X189811Y65055D01*
X189849Y65105D01*
X189894Y65149D01*
X189949Y65188D01*
X189955Y65194D01*
X189972Y65199D01*
X189994Y65216D01*
X190027Y65233D01*
X190071Y65255D01*
X190121Y65277D01*
X190182Y65299D01*
X190249Y65321D01*
X190260Y65327D01*
X190282Y65333D01*
X190321Y65344D01*
X190371Y65355D01*
X190432Y65366D01*
X190499Y65372D01*
X190577Y65383D01*
X190710D01*
X190771Y65377D01*
D02*
G37*
G36*
X184777Y66370D02*
X184827D01*
X184943Y66365D01*
X185065Y66348D01*
X185199Y66332D01*
X185321Y66304D01*
X185382Y66287D01*
X185432Y66271D01*
X185437D01*
X185443Y66265D01*
X185476Y66248D01*
X185526Y66226D01*
X185587Y66187D01*
X185654Y66137D01*
X185726Y66071D01*
X185792Y65993D01*
X185859Y65904D01*
Y65899D01*
X185865Y65893D01*
X185887Y65860D01*
X185909Y65804D01*
X185942Y65732D01*
X185970Y65649D01*
X185998Y65549D01*
X186014Y65444D01*
X186020Y65327D01*
Y65321D01*
Y65310D01*
Y65288D01*
X186014Y65260D01*
Y65222D01*
X186009Y65183D01*
X185987Y65088D01*
X185953Y64977D01*
X185909Y64861D01*
X185842Y64744D01*
X185798Y64689D01*
X185754Y64633D01*
X185748Y64628D01*
X185742Y64622D01*
X185726Y64606D01*
X185704Y64589D01*
X185676Y64567D01*
X185643Y64544D01*
X185598Y64517D01*
X185554Y64483D01*
X185498Y64456D01*
X185437Y64428D01*
X185371Y64395D01*
X185299Y64367D01*
X185215Y64345D01*
X185132Y64317D01*
X185038Y64300D01*
X184938Y64284D01*
X184949Y64278D01*
X184971Y64267D01*
X185004Y64245D01*
X185049Y64223D01*
X185149Y64162D01*
X185199Y64123D01*
X185243Y64089D01*
X185254Y64078D01*
X185282Y64051D01*
X185326Y64006D01*
X185382Y63951D01*
X185443Y63873D01*
X185515Y63790D01*
X185587Y63690D01*
X185665Y63579D01*
X186325Y62535D01*
X185693D01*
X185187Y63335D01*
Y63340D01*
X185176Y63351D01*
X185165Y63368D01*
X185149Y63390D01*
X185110Y63451D01*
X185060Y63529D01*
X184999Y63612D01*
X184938Y63701D01*
X184877Y63784D01*
X184821Y63862D01*
X184816Y63867D01*
X184799Y63890D01*
X184771Y63923D01*
X184732Y63962D01*
X184649Y64045D01*
X184605Y64084D01*
X184560Y64117D01*
X184555Y64123D01*
X184544Y64128D01*
X184521Y64139D01*
X184488Y64156D01*
X184455Y64173D01*
X184416Y64189D01*
X184327Y64217D01*
X184322D01*
X184311Y64223D01*
X184288D01*
X184261Y64228D01*
X184222Y64234D01*
X184177D01*
X184116Y64239D01*
X183461D01*
Y62535D01*
X182951D01*
Y66376D01*
X184732D01*
X184777Y66370D01*
D02*
G37*
G36*
X173172Y65921D02*
X171906D01*
Y62535D01*
X171396D01*
Y65921D01*
X170130D01*
Y66376D01*
X173172D01*
Y65921D01*
D02*
G37*
G36*
X187990Y65377D02*
X188035Y65372D01*
X188090Y65360D01*
X188151Y65349D01*
X188223Y65333D01*
X188290Y65316D01*
X188368Y65288D01*
X188440Y65260D01*
X188517Y65222D01*
X188595Y65177D01*
X188673Y65127D01*
X188745Y65066D01*
X188812Y65000D01*
X188817Y64994D01*
X188828Y64983D01*
X188845Y64961D01*
X188867Y64928D01*
X188895Y64889D01*
X188923Y64844D01*
X188956Y64789D01*
X188989Y64722D01*
X189023Y64650D01*
X189056Y64572D01*
X189084Y64483D01*
X189111Y64389D01*
X189134Y64284D01*
X189150Y64173D01*
X189161Y64056D01*
X189167Y63929D01*
Y63923D01*
Y63901D01*
Y63862D01*
X189161Y63806D01*
X187080D01*
Y63801D01*
Y63784D01*
X187086Y63762D01*
Y63729D01*
X187091Y63690D01*
X187102Y63645D01*
X187119Y63546D01*
X187152Y63434D01*
X187197Y63312D01*
X187258Y63201D01*
X187335Y63102D01*
X187341D01*
X187346Y63090D01*
X187380Y63063D01*
X187430Y63024D01*
X187496Y62985D01*
X187585Y62941D01*
X187685Y62902D01*
X187796Y62874D01*
X187857Y62868D01*
X187924Y62863D01*
X187968D01*
X188018Y62868D01*
X188079Y62880D01*
X188146Y62896D01*
X188223Y62918D01*
X188295Y62952D01*
X188368Y62996D01*
X188373Y63002D01*
X188401Y63024D01*
X188434Y63057D01*
X188473Y63102D01*
X188517Y63163D01*
X188567Y63240D01*
X188617Y63329D01*
X188662Y63434D01*
X189150Y63374D01*
Y63368D01*
X189145Y63357D01*
X189139Y63335D01*
X189128Y63301D01*
X189111Y63268D01*
X189095Y63224D01*
X189050Y63129D01*
X188995Y63024D01*
X188917Y62913D01*
X188828Y62807D01*
X188717Y62708D01*
X188712D01*
X188701Y62696D01*
X188684Y62685D01*
X188662Y62669D01*
X188628Y62652D01*
X188595Y62635D01*
X188551Y62613D01*
X188501Y62591D01*
X188445Y62569D01*
X188390Y62546D01*
X188251Y62513D01*
X188096Y62485D01*
X187924Y62474D01*
X187863D01*
X187824Y62480D01*
X187774Y62485D01*
X187713Y62497D01*
X187646Y62508D01*
X187574Y62519D01*
X187419Y62563D01*
X187335Y62596D01*
X187258Y62630D01*
X187174Y62674D01*
X187097Y62724D01*
X187024Y62780D01*
X186952Y62846D01*
X186947Y62852D01*
X186936Y62863D01*
X186919Y62885D01*
X186897Y62918D01*
X186869Y62957D01*
X186841Y63002D01*
X186808Y63057D01*
X186775Y63118D01*
X186741Y63190D01*
X186708Y63268D01*
X186680Y63357D01*
X186653Y63451D01*
X186630Y63551D01*
X186614Y63662D01*
X186603Y63779D01*
X186597Y63901D01*
Y63906D01*
Y63934D01*
Y63967D01*
X186603Y64017D01*
X186608Y64078D01*
X186614Y64145D01*
X186625Y64223D01*
X186642Y64300D01*
X186686Y64478D01*
X186714Y64567D01*
X186747Y64661D01*
X186791Y64750D01*
X186841Y64833D01*
X186897Y64916D01*
X186958Y64994D01*
X186963Y65000D01*
X186975Y65011D01*
X186997Y65027D01*
X187024Y65055D01*
X187058Y65083D01*
X187102Y65116D01*
X187152Y65155D01*
X187213Y65188D01*
X187274Y65227D01*
X187346Y65260D01*
X187424Y65294D01*
X187507Y65321D01*
X187596Y65349D01*
X187690Y65366D01*
X187790Y65377D01*
X187896Y65383D01*
X187951D01*
X187990Y65377D01*
D02*
G37*
G36*
X174870D02*
X174914Y65372D01*
X174970Y65360D01*
X175031Y65349D01*
X175103Y65333D01*
X175170Y65316D01*
X175247Y65288D01*
X175320Y65260D01*
X175397Y65222D01*
X175475Y65177D01*
X175553Y65127D01*
X175625Y65066D01*
X175691Y65000D01*
X175697Y64994D01*
X175708Y64983D01*
X175725Y64961D01*
X175747Y64928D01*
X175775Y64889D01*
X175802Y64844D01*
X175836Y64789D01*
X175869Y64722D01*
X175902Y64650D01*
X175936Y64572D01*
X175963Y64483D01*
X175991Y64389D01*
X176013Y64284D01*
X176030Y64173D01*
X176041Y64056D01*
X176047Y63929D01*
Y63923D01*
Y63901D01*
Y63862D01*
X176041Y63806D01*
X173960D01*
Y63801D01*
Y63784D01*
X173965Y63762D01*
Y63729D01*
X173971Y63690D01*
X173982Y63645D01*
X173999Y63546D01*
X174032Y63434D01*
X174076Y63312D01*
X174137Y63201D01*
X174215Y63102D01*
X174221D01*
X174226Y63090D01*
X174259Y63063D01*
X174310Y63024D01*
X174376Y62985D01*
X174465Y62941D01*
X174565Y62902D01*
X174676Y62874D01*
X174737Y62868D01*
X174803Y62863D01*
X174848D01*
X174898Y62868D01*
X174959Y62880D01*
X175025Y62896D01*
X175103Y62918D01*
X175175Y62952D01*
X175247Y62996D01*
X175253Y63002D01*
X175281Y63024D01*
X175314Y63057D01*
X175353Y63102D01*
X175397Y63163D01*
X175447Y63240D01*
X175497Y63329D01*
X175542Y63434D01*
X176030Y63374D01*
Y63368D01*
X176024Y63357D01*
X176019Y63335D01*
X176008Y63301D01*
X175991Y63268D01*
X175975Y63224D01*
X175930Y63129D01*
X175875Y63024D01*
X175797Y62913D01*
X175708Y62807D01*
X175597Y62708D01*
X175592D01*
X175580Y62696D01*
X175564Y62685D01*
X175542Y62669D01*
X175508Y62652D01*
X175475Y62635D01*
X175431Y62613D01*
X175381Y62591D01*
X175325Y62569D01*
X175270Y62546D01*
X175131Y62513D01*
X174976Y62485D01*
X174803Y62474D01*
X174742D01*
X174704Y62480D01*
X174654Y62485D01*
X174592Y62497D01*
X174526Y62508D01*
X174454Y62519D01*
X174298Y62563D01*
X174215Y62596D01*
X174137Y62630D01*
X174054Y62674D01*
X173977Y62724D01*
X173904Y62780D01*
X173832Y62846D01*
X173827Y62852D01*
X173816Y62863D01*
X173799Y62885D01*
X173777Y62918D01*
X173749Y62957D01*
X173721Y63002D01*
X173688Y63057D01*
X173655Y63118D01*
X173621Y63190D01*
X173588Y63268D01*
X173560Y63357D01*
X173532Y63451D01*
X173510Y63551D01*
X173494Y63662D01*
X173483Y63779D01*
X173477Y63901D01*
Y63906D01*
Y63934D01*
Y63967D01*
X173483Y64017D01*
X173488Y64078D01*
X173494Y64145D01*
X173505Y64223D01*
X173521Y64300D01*
X173566Y64478D01*
X173593Y64567D01*
X173627Y64661D01*
X173671Y64750D01*
X173721Y64833D01*
X173777Y64916D01*
X173838Y64994D01*
X173843Y65000D01*
X173854Y65011D01*
X173877Y65027D01*
X173904Y65055D01*
X173938Y65083D01*
X173982Y65116D01*
X174032Y65155D01*
X174093Y65188D01*
X174154Y65227D01*
X174226Y65260D01*
X174304Y65294D01*
X174387Y65321D01*
X174476Y65349D01*
X174570Y65366D01*
X174670Y65377D01*
X174776Y65383D01*
X174831D01*
X174870Y65377D01*
D02*
G37*
G36*
X66061Y269842D02*
X66100D01*
X66205Y269831D01*
X66321Y269814D01*
X66444Y269787D01*
X66577Y269754D01*
X66699Y269709D01*
X66704D01*
X66716Y269704D01*
X66732Y269692D01*
X66754Y269681D01*
X66810Y269654D01*
X66882Y269604D01*
X66965Y269548D01*
X67049Y269476D01*
X67126Y269393D01*
X67198Y269298D01*
Y269293D01*
X67204Y269287D01*
X67215Y269271D01*
X67226Y269254D01*
X67254Y269198D01*
X67287Y269126D01*
X67326Y269038D01*
X67354Y268932D01*
X67382Y268821D01*
X67393Y268699D01*
X66904Y268660D01*
Y268666D01*
Y268677D01*
X66899Y268693D01*
X66893Y268721D01*
X66877Y268782D01*
X66854Y268865D01*
X66821Y268954D01*
X66771Y269043D01*
X66710Y269126D01*
X66632Y269204D01*
X66621Y269210D01*
X66593Y269232D01*
X66538Y269265D01*
X66466Y269298D01*
X66372Y269332D01*
X66260Y269365D01*
X66122Y269387D01*
X65966Y269393D01*
X65889D01*
X65855Y269387D01*
X65811Y269382D01*
X65711Y269371D01*
X65600Y269348D01*
X65489Y269321D01*
X65384Y269276D01*
X65339Y269248D01*
X65295Y269221D01*
X65284Y269215D01*
X65262Y269193D01*
X65228Y269154D01*
X65195Y269110D01*
X65156Y269049D01*
X65123Y268982D01*
X65101Y268904D01*
X65089Y268815D01*
Y268804D01*
Y268782D01*
X65095Y268743D01*
X65106Y268699D01*
X65123Y268643D01*
X65150Y268588D01*
X65184Y268532D01*
X65234Y268477D01*
X65239Y268471D01*
X65267Y268455D01*
X65289Y268438D01*
X65311Y268427D01*
X65345Y268410D01*
X65384Y268388D01*
X65434Y268372D01*
X65489Y268349D01*
X65550Y268327D01*
X65622Y268299D01*
X65700Y268277D01*
X65789Y268249D01*
X65889Y268227D01*
X66000Y268199D01*
X66005D01*
X66027Y268194D01*
X66061Y268188D01*
X66100Y268177D01*
X66149Y268166D01*
X66211Y268149D01*
X66272Y268133D01*
X66338Y268116D01*
X66483Y268077D01*
X66621Y268039D01*
X66688Y268016D01*
X66749Y267994D01*
X66804Y267977D01*
X66849Y267955D01*
X66854D01*
X66865Y267950D01*
X66882Y267939D01*
X66904Y267928D01*
X66965Y267894D01*
X67037Y267850D01*
X67121Y267789D01*
X67204Y267722D01*
X67282Y267645D01*
X67348Y267561D01*
X67354Y267550D01*
X67376Y267522D01*
X67398Y267472D01*
X67431Y267406D01*
X67459Y267328D01*
X67487Y267234D01*
X67504Y267128D01*
X67509Y267017D01*
Y267012D01*
Y267006D01*
Y266990D01*
Y266967D01*
X67498Y266906D01*
X67487Y266829D01*
X67465Y266740D01*
X67437Y266645D01*
X67393Y266546D01*
X67332Y266440D01*
Y266435D01*
X67326Y266429D01*
X67298Y266396D01*
X67260Y266346D01*
X67204Y266290D01*
X67132Y266224D01*
X67043Y266151D01*
X66943Y266085D01*
X66827Y266024D01*
X66821D01*
X66810Y266018D01*
X66793Y266013D01*
X66771Y266002D01*
X66738Y265990D01*
X66699Y265974D01*
X66610Y265952D01*
X66505Y265924D01*
X66377Y265896D01*
X66238Y265880D01*
X66088Y265874D01*
X66000D01*
X65955Y265880D01*
X65905D01*
X65850Y265885D01*
X65783Y265891D01*
X65644Y265913D01*
X65500Y265935D01*
X65356Y265974D01*
X65217Y266024D01*
X65211D01*
X65200Y266029D01*
X65184Y266040D01*
X65162Y266052D01*
X65095Y266085D01*
X65017Y266135D01*
X64929Y266201D01*
X64834Y266279D01*
X64745Y266373D01*
X64662Y266479D01*
Y266484D01*
X64651Y266496D01*
X64645Y266512D01*
X64629Y266534D01*
X64618Y266562D01*
X64601Y266596D01*
X64562Y266679D01*
X64523Y266784D01*
X64490Y266901D01*
X64468Y267034D01*
X64457Y267173D01*
X64934Y267217D01*
Y267212D01*
Y267206D01*
X64940Y267189D01*
Y267167D01*
X64951Y267117D01*
X64967Y267045D01*
X64990Y266973D01*
X65012Y266890D01*
X65051Y266812D01*
X65089Y266740D01*
X65095Y266734D01*
X65112Y266712D01*
X65139Y266673D01*
X65184Y266634D01*
X65239Y266584D01*
X65300Y266534D01*
X65384Y266484D01*
X65472Y266440D01*
X65478D01*
X65483Y266435D01*
X65500Y266429D01*
X65517Y266424D01*
X65572Y266407D01*
X65644Y266385D01*
X65733Y266362D01*
X65833Y266346D01*
X65944Y266335D01*
X66066Y266329D01*
X66116D01*
X66172Y266335D01*
X66238Y266340D01*
X66316Y266351D01*
X66405Y266362D01*
X66494Y266385D01*
X66577Y266412D01*
X66588Y266418D01*
X66616Y266429D01*
X66654Y266451D01*
X66704Y266473D01*
X66754Y266512D01*
X66810Y266551D01*
X66865Y266596D01*
X66910Y266651D01*
X66915Y266657D01*
X66926Y266679D01*
X66943Y266706D01*
X66965Y266751D01*
X66988Y266795D01*
X67004Y266851D01*
X67015Y266912D01*
X67021Y266979D01*
Y266984D01*
Y267012D01*
X67015Y267045D01*
X67010Y267089D01*
X66993Y267134D01*
X66976Y267189D01*
X66949Y267245D01*
X66910Y267295D01*
X66904Y267300D01*
X66888Y267317D01*
X66865Y267339D01*
X66827Y267372D01*
X66782Y267406D01*
X66721Y267445D01*
X66649Y267483D01*
X66566Y267517D01*
X66560Y267522D01*
X66532Y267528D01*
X66488Y267545D01*
X66460Y267550D01*
X66421Y267561D01*
X66383Y267578D01*
X66333Y267589D01*
X66277Y267606D01*
X66211Y267622D01*
X66144Y267639D01*
X66066Y267661D01*
X65977Y267683D01*
X65883Y267705D01*
X65877D01*
X65861Y267711D01*
X65833Y267717D01*
X65800Y267728D01*
X65755Y267739D01*
X65706Y267750D01*
X65595Y267783D01*
X65472Y267822D01*
X65345Y267861D01*
X65234Y267900D01*
X65184Y267922D01*
X65139Y267944D01*
X65134D01*
X65128Y267950D01*
X65095Y267972D01*
X65045Y268000D01*
X64990Y268044D01*
X64923Y268094D01*
X64856Y268155D01*
X64790Y268227D01*
X64734Y268305D01*
X64729Y268316D01*
X64712Y268344D01*
X64690Y268388D01*
X64668Y268444D01*
X64645Y268516D01*
X64623Y268599D01*
X64607Y268688D01*
X64601Y268782D01*
Y268788D01*
Y268793D01*
Y268810D01*
Y268832D01*
X64612Y268888D01*
X64623Y268960D01*
X64640Y269043D01*
X64668Y269137D01*
X64706Y269232D01*
X64762Y269326D01*
Y269332D01*
X64767Y269337D01*
X64795Y269371D01*
X64834Y269415D01*
X64884Y269470D01*
X64951Y269531D01*
X65034Y269598D01*
X65134Y269659D01*
X65245Y269715D01*
X65250D01*
X65262Y269720D01*
X65278Y269726D01*
X65300Y269737D01*
X65328Y269748D01*
X65367Y269759D01*
X65450Y269781D01*
X65556Y269803D01*
X65678Y269826D01*
X65805Y269842D01*
X65950Y269848D01*
X66022D01*
X66061Y269842D01*
D02*
G37*
G36*
X70961Y269326D02*
X69696D01*
Y265941D01*
X69185D01*
Y269326D01*
X67920D01*
Y269781D01*
X70961D01*
Y269326D01*
D02*
G37*
G36*
X62586Y269776D02*
X62636D01*
X62753Y269770D01*
X62875Y269754D01*
X63008Y269737D01*
X63130Y269709D01*
X63191Y269692D01*
X63241Y269676D01*
X63247D01*
X63252Y269670D01*
X63286Y269654D01*
X63336Y269631D01*
X63397Y269592D01*
X63463Y269543D01*
X63535Y269476D01*
X63602Y269398D01*
X63669Y269309D01*
Y269304D01*
X63674Y269298D01*
X63696Y269265D01*
X63719Y269210D01*
X63752Y269137D01*
X63780Y269054D01*
X63807Y268954D01*
X63824Y268849D01*
X63830Y268732D01*
Y268727D01*
Y268716D01*
Y268693D01*
X63824Y268666D01*
Y268627D01*
X63819Y268588D01*
X63796Y268494D01*
X63763Y268383D01*
X63719Y268266D01*
X63652Y268149D01*
X63608Y268094D01*
X63563Y268039D01*
X63558Y268033D01*
X63552Y268027D01*
X63535Y268011D01*
X63513Y267994D01*
X63485Y267972D01*
X63452Y267950D01*
X63408Y267922D01*
X63363Y267889D01*
X63308Y267861D01*
X63247Y267833D01*
X63180Y267800D01*
X63108Y267772D01*
X63025Y267750D01*
X62942Y267722D01*
X62847Y267705D01*
X62747Y267689D01*
X62758Y267683D01*
X62781Y267672D01*
X62814Y267650D01*
X62858Y267628D01*
X62958Y267567D01*
X63008Y267528D01*
X63053Y267495D01*
X63064Y267483D01*
X63091Y267456D01*
X63136Y267411D01*
X63191Y267356D01*
X63252Y267278D01*
X63324Y267195D01*
X63397Y267095D01*
X63474Y266984D01*
X64135Y265941D01*
X63502D01*
X62997Y266740D01*
Y266745D01*
X62986Y266756D01*
X62975Y266773D01*
X62958Y266795D01*
X62919Y266856D01*
X62869Y266934D01*
X62808Y267017D01*
X62747Y267106D01*
X62686Y267189D01*
X62631Y267267D01*
X62625Y267273D01*
X62609Y267295D01*
X62581Y267328D01*
X62542Y267367D01*
X62459Y267450D01*
X62414Y267489D01*
X62370Y267522D01*
X62364Y267528D01*
X62353Y267533D01*
X62331Y267545D01*
X62298Y267561D01*
X62265Y267578D01*
X62226Y267595D01*
X62137Y267622D01*
X62131D01*
X62120Y267628D01*
X62098D01*
X62070Y267633D01*
X62031Y267639D01*
X61987D01*
X61926Y267645D01*
X61271D01*
Y265941D01*
X60760D01*
Y269781D01*
X62542D01*
X62586Y269776D01*
D02*
G37*
G36*
X42693Y263313D02*
X42754Y263307D01*
X42826Y263296D01*
X42904Y263279D01*
X42987Y263257D01*
X43065Y263224D01*
X43076Y263218D01*
X43098Y263207D01*
X43137Y263191D01*
X43182Y263163D01*
X43237Y263130D01*
X43287Y263085D01*
X43337Y263041D01*
X43381Y262985D01*
X43387Y262980D01*
X43398Y262958D01*
X43415Y262930D01*
X43442Y262891D01*
X43465Y262835D01*
X43487Y262780D01*
X43515Y262713D01*
X43531Y262641D01*
Y262636D01*
X43537Y262613D01*
X43542Y262580D01*
X43548Y262536D01*
Y262469D01*
X43554Y262391D01*
X43559Y262297D01*
Y262180D01*
Y260471D01*
X43087D01*
Y262158D01*
Y262164D01*
Y262169D01*
Y262208D01*
Y262258D01*
X43082Y262319D01*
X43076Y262391D01*
X43065Y262464D01*
X43048Y262530D01*
X43032Y262591D01*
Y262597D01*
X43021Y262613D01*
X43004Y262641D01*
X42987Y262674D01*
X42960Y262708D01*
X42926Y262747D01*
X42882Y262786D01*
X42832Y262819D01*
X42826Y262824D01*
X42810Y262835D01*
X42777Y262846D01*
X42738Y262863D01*
X42693Y262880D01*
X42638Y262896D01*
X42571Y262902D01*
X42505Y262908D01*
X42477D01*
X42455Y262902D01*
X42399Y262896D01*
X42327Y262885D01*
X42249Y262858D01*
X42160Y262824D01*
X42072Y262780D01*
X41988Y262713D01*
X41977Y262702D01*
X41955Y262674D01*
X41938Y262652D01*
X41922Y262625D01*
X41900Y262591D01*
X41883Y262552D01*
X41861Y262508D01*
X41838Y262453D01*
X41822Y262391D01*
X41805Y262325D01*
X41794Y262253D01*
X41783Y262175D01*
X41772Y262081D01*
Y261986D01*
Y260471D01*
X41300D01*
Y263257D01*
X41722D01*
Y262858D01*
X41728Y262863D01*
X41739Y262880D01*
X41755Y262902D01*
X41778Y262930D01*
X41811Y262963D01*
X41850Y263002D01*
X41894Y263046D01*
X41949Y263091D01*
X42005Y263130D01*
X42072Y263174D01*
X42144Y263213D01*
X42222Y263246D01*
X42310Y263274D01*
X42399Y263296D01*
X42499Y263313D01*
X42604Y263318D01*
X42649D01*
X42693Y263313D01*
D02*
G37*
G36*
X37637D02*
X37698Y263302D01*
X37770Y263279D01*
X37848Y263252D01*
X37937Y263213D01*
X38031Y263163D01*
X37859Y262730D01*
X37854Y262736D01*
X37831Y262747D01*
X37798Y262763D01*
X37754Y262780D01*
X37704Y262797D01*
X37643Y262813D01*
X37582Y262824D01*
X37521Y262830D01*
X37493D01*
X37465Y262824D01*
X37426Y262819D01*
X37387Y262808D01*
X37337Y262791D01*
X37288Y262769D01*
X37243Y262736D01*
X37238Y262730D01*
X37221Y262719D01*
X37204Y262697D01*
X37176Y262669D01*
X37149Y262630D01*
X37121Y262586D01*
X37093Y262536D01*
X37071Y262475D01*
X37066Y262464D01*
X37060Y262430D01*
X37049Y262380D01*
X37032Y262314D01*
X37016Y262230D01*
X37005Y262136D01*
X36999Y262036D01*
X36993Y261925D01*
Y260471D01*
X36522D01*
Y263257D01*
X36949D01*
Y262835D01*
X36955Y262841D01*
X36977Y262880D01*
X37005Y262930D01*
X37049Y262991D01*
X37093Y263052D01*
X37143Y263119D01*
X37193Y263174D01*
X37243Y263218D01*
X37249Y263224D01*
X37265Y263235D01*
X37299Y263252D01*
X37332Y263268D01*
X37376Y263285D01*
X37432Y263302D01*
X37487Y263313D01*
X37548Y263318D01*
X37587D01*
X37637Y263313D01*
D02*
G37*
G36*
X32265Y260471D02*
X31782D01*
X31338Y262136D01*
X31227Y262613D01*
X30666Y260471D01*
X30167D01*
X29323Y263257D01*
X29817D01*
X30261Y261648D01*
X30417Y261048D01*
Y261054D01*
X30422Y261065D01*
X30428Y261093D01*
X30433Y261109D01*
X30439Y261137D01*
X30444Y261170D01*
X30455Y261209D01*
X30467Y261254D01*
X30483Y261309D01*
X30500Y261370D01*
X30516Y261442D01*
X30539Y261526D01*
X30561Y261620D01*
X31005Y263257D01*
X31488D01*
X31904Y261637D01*
X32043Y261104D01*
X32204Y261642D01*
X32681Y263257D01*
X33142D01*
X32265Y260471D01*
D02*
G37*
G36*
X40462D02*
X39952D01*
Y264312D01*
X40462D01*
Y260471D01*
D02*
G37*
G36*
X24822Y264306D02*
X24917Y264301D01*
X25016Y264295D01*
X25111Y264284D01*
X25194Y264273D01*
X25205D01*
X25244Y264262D01*
X25294Y264251D01*
X25361Y264234D01*
X25433Y264206D01*
X25510Y264173D01*
X25594Y264134D01*
X25666Y264090D01*
X25677Y264084D01*
X25699Y264068D01*
X25732Y264034D01*
X25777Y263995D01*
X25827Y263945D01*
X25877Y263879D01*
X25932Y263807D01*
X25977Y263723D01*
X25982Y263712D01*
X25993Y263685D01*
X26015Y263635D01*
X26038Y263568D01*
X26054Y263490D01*
X26076Y263402D01*
X26088Y263302D01*
X26093Y263196D01*
Y263191D01*
Y263174D01*
Y263152D01*
X26088Y263113D01*
X26082Y263074D01*
X26076Y263024D01*
X26065Y262969D01*
X26054Y262908D01*
X26015Y262780D01*
X25993Y262713D01*
X25960Y262641D01*
X25921Y262569D01*
X25882Y262502D01*
X25832Y262436D01*
X25777Y262369D01*
X25771Y262364D01*
X25760Y262353D01*
X25743Y262336D01*
X25716Y262319D01*
X25683Y262292D01*
X25638Y262264D01*
X25583Y262230D01*
X25521Y262203D01*
X25449Y262169D01*
X25366Y262136D01*
X25277Y262108D01*
X25172Y262086D01*
X25061Y262064D01*
X24939Y262047D01*
X24800Y262036D01*
X24656Y262031D01*
X23673D01*
Y260471D01*
X23163D01*
Y264312D01*
X24739D01*
X24822Y264306D01*
D02*
G37*
G36*
X34773Y263313D02*
X34818Y263307D01*
X34873Y263296D01*
X34934Y263285D01*
X35006Y263268D01*
X35073Y263252D01*
X35151Y263224D01*
X35223Y263196D01*
X35301Y263157D01*
X35378Y263113D01*
X35456Y263063D01*
X35528Y263002D01*
X35595Y262935D01*
X35600Y262930D01*
X35611Y262919D01*
X35628Y262896D01*
X35650Y262863D01*
X35678Y262824D01*
X35706Y262780D01*
X35739Y262724D01*
X35772Y262658D01*
X35806Y262586D01*
X35839Y262508D01*
X35867Y262419D01*
X35895Y262325D01*
X35917Y262219D01*
X35933Y262108D01*
X35944Y261992D01*
X35950Y261864D01*
Y261859D01*
Y261836D01*
Y261798D01*
X35944Y261742D01*
X33863D01*
Y261736D01*
Y261720D01*
X33869Y261698D01*
Y261664D01*
X33874Y261626D01*
X33885Y261581D01*
X33902Y261481D01*
X33935Y261370D01*
X33980Y261248D01*
X34041Y261137D01*
X34119Y261037D01*
X34124D01*
X34130Y261026D01*
X34163Y260998D01*
X34213Y260960D01*
X34279Y260921D01*
X34368Y260876D01*
X34468Y260837D01*
X34579Y260810D01*
X34640Y260804D01*
X34707Y260799D01*
X34751D01*
X34801Y260804D01*
X34862Y260815D01*
X34929Y260832D01*
X35006Y260854D01*
X35079Y260887D01*
X35151Y260932D01*
X35156Y260937D01*
X35184Y260960D01*
X35217Y260993D01*
X35256Y261037D01*
X35301Y261098D01*
X35351Y261176D01*
X35401Y261265D01*
X35445Y261370D01*
X35933Y261309D01*
Y261304D01*
X35928Y261293D01*
X35922Y261270D01*
X35911Y261237D01*
X35895Y261204D01*
X35878Y261159D01*
X35833Y261065D01*
X35778Y260960D01*
X35700Y260848D01*
X35611Y260743D01*
X35500Y260643D01*
X35495D01*
X35484Y260632D01*
X35467Y260621D01*
X35445Y260604D01*
X35412Y260588D01*
X35378Y260571D01*
X35334Y260549D01*
X35284Y260527D01*
X35228Y260504D01*
X35173Y260482D01*
X35034Y260449D01*
X34879Y260421D01*
X34707Y260410D01*
X34646D01*
X34607Y260416D01*
X34557Y260421D01*
X34496Y260432D01*
X34429Y260443D01*
X34357Y260455D01*
X34202Y260499D01*
X34119Y260532D01*
X34041Y260565D01*
X33957Y260610D01*
X33880Y260660D01*
X33808Y260715D01*
X33735Y260782D01*
X33730Y260788D01*
X33719Y260799D01*
X33702Y260821D01*
X33680Y260854D01*
X33652Y260893D01*
X33625Y260937D01*
X33591Y260993D01*
X33558Y261054D01*
X33525Y261126D01*
X33491Y261204D01*
X33464Y261293D01*
X33436Y261387D01*
X33414Y261487D01*
X33397Y261598D01*
X33386Y261714D01*
X33380Y261836D01*
Y261842D01*
Y261870D01*
Y261903D01*
X33386Y261953D01*
X33391Y262014D01*
X33397Y262081D01*
X33408Y262158D01*
X33425Y262236D01*
X33469Y262414D01*
X33497Y262502D01*
X33530Y262597D01*
X33575Y262686D01*
X33625Y262769D01*
X33680Y262852D01*
X33741Y262930D01*
X33747Y262935D01*
X33758Y262946D01*
X33780Y262963D01*
X33808Y262991D01*
X33841Y263019D01*
X33885Y263052D01*
X33935Y263091D01*
X33996Y263124D01*
X34057Y263163D01*
X34130Y263196D01*
X34207Y263229D01*
X34291Y263257D01*
X34379Y263285D01*
X34474Y263302D01*
X34574Y263313D01*
X34679Y263318D01*
X34734D01*
X34773Y263313D01*
D02*
G37*
G36*
X27902D02*
X27952Y263307D01*
X28008Y263296D01*
X28069Y263285D01*
X28141Y263274D01*
X28291Y263224D01*
X28369Y263196D01*
X28446Y263157D01*
X28524Y263119D01*
X28602Y263063D01*
X28674Y263007D01*
X28746Y262941D01*
X28752Y262935D01*
X28763Y262924D01*
X28779Y262902D01*
X28802Y262874D01*
X28829Y262835D01*
X28863Y262786D01*
X28896Y262730D01*
X28929Y262669D01*
X28962Y262602D01*
X28996Y262519D01*
X29029Y262436D01*
X29057Y262341D01*
X29079Y262242D01*
X29096Y262136D01*
X29107Y262025D01*
X29112Y261903D01*
Y261897D01*
Y261881D01*
Y261853D01*
Y261814D01*
X29107Y261770D01*
X29101Y261714D01*
Y261659D01*
X29090Y261598D01*
X29074Y261459D01*
X29040Y261320D01*
X29001Y261181D01*
X28946Y261054D01*
Y261048D01*
X28940Y261043D01*
X28929Y261026D01*
X28918Y261004D01*
X28879Y260948D01*
X28829Y260882D01*
X28763Y260804D01*
X28679Y260726D01*
X28585Y260649D01*
X28474Y260577D01*
X28469D01*
X28463Y260571D01*
X28446Y260560D01*
X28419Y260549D01*
X28391Y260538D01*
X28358Y260527D01*
X28274Y260493D01*
X28180Y260466D01*
X28063Y260438D01*
X27941Y260416D01*
X27808Y260410D01*
X27753D01*
X27708Y260416D01*
X27658Y260421D01*
X27603Y260432D01*
X27536Y260443D01*
X27470Y260455D01*
X27320Y260499D01*
X27237Y260532D01*
X27159Y260565D01*
X27081Y260610D01*
X27003Y260660D01*
X26931Y260715D01*
X26859Y260782D01*
X26853Y260788D01*
X26842Y260799D01*
X26826Y260821D01*
X26804Y260854D01*
X26776Y260893D01*
X26748Y260937D01*
X26715Y260993D01*
X26682Y261059D01*
X26648Y261132D01*
X26615Y261215D01*
X26587Y261304D01*
X26559Y261398D01*
X26537Y261503D01*
X26520Y261614D01*
X26509Y261736D01*
X26504Y261864D01*
Y261875D01*
Y261897D01*
X26509Y261936D01*
Y261992D01*
X26515Y262053D01*
X26526Y262131D01*
X26537Y262208D01*
X26559Y262297D01*
X26582Y262386D01*
X26609Y262480D01*
X26643Y262580D01*
X26687Y262674D01*
X26731Y262763D01*
X26792Y262852D01*
X26853Y262935D01*
X26931Y263007D01*
X26937Y263013D01*
X26948Y263019D01*
X26970Y263035D01*
X26998Y263057D01*
X27031Y263080D01*
X27075Y263107D01*
X27120Y263135D01*
X27175Y263163D01*
X27237Y263191D01*
X27303Y263218D01*
X27453Y263268D01*
X27625Y263307D01*
X27714Y263313D01*
X27808Y263318D01*
X27864D01*
X27902Y263313D01*
D02*
G37*
G36*
X39632Y234342D02*
X39699Y234337D01*
X39776Y234326D01*
X39854Y234314D01*
X39943Y234298D01*
X39871Y233887D01*
X39865D01*
X39849Y233893D01*
X39821Y233898D01*
X39782Y233904D01*
X39737D01*
X39693Y233909D01*
X39593Y233915D01*
X39560D01*
X39521Y233909D01*
X39477Y233904D01*
X39427Y233893D01*
X39377Y233876D01*
X39332Y233854D01*
X39294Y233821D01*
X39288Y233815D01*
X39282Y233804D01*
X39266Y233782D01*
X39249Y233743D01*
X39232Y233699D01*
X39221Y233643D01*
X39210Y233571D01*
X39205Y233482D01*
Y233227D01*
X39743D01*
Y232860D01*
X39205D01*
Y230441D01*
X38733D01*
Y232860D01*
X38317D01*
Y233227D01*
X38733D01*
Y233521D01*
Y233526D01*
Y233532D01*
Y233565D01*
X38739Y233615D01*
Y233676D01*
X38744Y233743D01*
X38755Y233815D01*
X38766Y233882D01*
X38783Y233937D01*
X38788Y233943D01*
X38794Y233970D01*
X38811Y234004D01*
X38838Y234043D01*
X38872Y234087D01*
X38910Y234137D01*
X38960Y234187D01*
X39022Y234231D01*
X39027Y234237D01*
X39055Y234248D01*
X39094Y234270D01*
X39149Y234292D01*
X39216Y234309D01*
X39299Y234331D01*
X39393Y234342D01*
X39504Y234348D01*
X39582D01*
X39632Y234342D01*
D02*
G37*
G36*
X44916D02*
X44966Y234337D01*
X45027Y234331D01*
X45088Y234326D01*
X45160Y234309D01*
X45310Y234276D01*
X45476Y234226D01*
X45559Y234192D01*
X45637Y234154D01*
X45715Y234104D01*
X45792Y234054D01*
X45798Y234048D01*
X45809Y234043D01*
X45831Y234026D01*
X45859Y233998D01*
X45887Y233970D01*
X45926Y233932D01*
X45965Y233887D01*
X46009Y233843D01*
X46053Y233787D01*
X46098Y233721D01*
X46148Y233654D01*
X46192Y233582D01*
X46231Y233499D01*
X46275Y233415D01*
X46309Y233327D01*
X46342Y233227D01*
X45842Y233110D01*
Y233116D01*
X45837Y233127D01*
X45826Y233149D01*
X45815Y233177D01*
X45804Y233210D01*
X45787Y233254D01*
X45743Y233343D01*
X45687Y233443D01*
X45621Y233543D01*
X45537Y233637D01*
X45448Y233721D01*
X45437Y233732D01*
X45404Y233754D01*
X45349Y233782D01*
X45276Y233821D01*
X45182Y233854D01*
X45077Y233887D01*
X44949Y233909D01*
X44810Y233915D01*
X44766D01*
X44738Y233909D01*
X44699D01*
X44655Y233904D01*
X44549Y233887D01*
X44433Y233865D01*
X44311Y233826D01*
X44183Y233771D01*
X44067Y233699D01*
X44061D01*
X44055Y233687D01*
X44017Y233660D01*
X43967Y233615D01*
X43905Y233549D01*
X43833Y233465D01*
X43767Y233371D01*
X43706Y233254D01*
X43650Y233127D01*
Y233121D01*
X43645Y233110D01*
X43639Y233094D01*
X43634Y233066D01*
X43622Y233032D01*
X43611Y232994D01*
X43595Y232899D01*
X43573Y232788D01*
X43550Y232666D01*
X43539Y232533D01*
X43534Y232389D01*
Y232383D01*
Y232366D01*
Y232339D01*
Y232305D01*
X43539Y232267D01*
Y232217D01*
X43545Y232161D01*
X43550Y232100D01*
X43567Y231967D01*
X43595Y231823D01*
X43628Y231678D01*
X43672Y231534D01*
Y231528D01*
X43678Y231517D01*
X43689Y231501D01*
X43700Y231473D01*
X43734Y231406D01*
X43783Y231329D01*
X43845Y231240D01*
X43922Y231145D01*
X44011Y231062D01*
X44116Y230984D01*
X44122D01*
X44133Y230979D01*
X44150Y230968D01*
X44172Y230957D01*
X44200Y230946D01*
X44233Y230929D01*
X44311Y230896D01*
X44411Y230862D01*
X44522Y230835D01*
X44644Y230812D01*
X44771Y230807D01*
X44810D01*
X44844Y230812D01*
X44882D01*
X44921Y230818D01*
X45021Y230840D01*
X45138Y230868D01*
X45254Y230912D01*
X45376Y230973D01*
X45437Y231007D01*
X45493Y231051D01*
X45498Y231057D01*
X45504Y231062D01*
X45521Y231079D01*
X45543Y231096D01*
X45565Y231123D01*
X45593Y231157D01*
X45626Y231190D01*
X45654Y231234D01*
X45687Y231284D01*
X45726Y231340D01*
X45759Y231395D01*
X45792Y231462D01*
X45820Y231534D01*
X45848Y231612D01*
X45876Y231695D01*
X45898Y231784D01*
X46409Y231656D01*
Y231650D01*
X46403Y231628D01*
X46392Y231595D01*
X46375Y231551D01*
X46359Y231501D01*
X46336Y231440D01*
X46309Y231373D01*
X46275Y231301D01*
X46198Y231145D01*
X46098Y230990D01*
X46037Y230912D01*
X45976Y230835D01*
X45909Y230768D01*
X45831Y230701D01*
X45826Y230696D01*
X45815Y230685D01*
X45787Y230674D01*
X45759Y230651D01*
X45715Y230624D01*
X45670Y230596D01*
X45609Y230568D01*
X45548Y230540D01*
X45476Y230507D01*
X45399Y230479D01*
X45315Y230452D01*
X45226Y230424D01*
X45132Y230402D01*
X45032Y230391D01*
X44927Y230380D01*
X44816Y230374D01*
X44755D01*
X44710Y230380D01*
X44660D01*
X44599Y230385D01*
X44533Y230396D01*
X44455Y230407D01*
X44294Y230435D01*
X44128Y230479D01*
X43961Y230540D01*
X43883Y230579D01*
X43806Y230624D01*
X43800Y230629D01*
X43789Y230635D01*
X43767Y230651D01*
X43745Y230674D01*
X43711Y230696D01*
X43672Y230729D01*
X43628Y230768D01*
X43584Y230812D01*
X43539Y230862D01*
X43489Y230912D01*
X43389Y231040D01*
X43295Y231190D01*
X43212Y231356D01*
Y231362D01*
X43201Y231379D01*
X43195Y231406D01*
X43178Y231440D01*
X43167Y231484D01*
X43151Y231540D01*
X43128Y231601D01*
X43112Y231667D01*
X43095Y231739D01*
X43073Y231823D01*
X43045Y231995D01*
X43023Y232189D01*
X43012Y232389D01*
Y232394D01*
Y232416D01*
Y232450D01*
X43018Y232488D01*
Y232544D01*
X43023Y232599D01*
X43029Y232672D01*
X43040Y232744D01*
X43067Y232905D01*
X43106Y233082D01*
X43162Y233260D01*
X43240Y233432D01*
X43245Y233438D01*
X43251Y233454D01*
X43262Y233476D01*
X43284Y233504D01*
X43306Y233543D01*
X43334Y233587D01*
X43406Y233687D01*
X43500Y233798D01*
X43611Y233909D01*
X43739Y234020D01*
X43889Y234115D01*
X43894Y234120D01*
X43911Y234126D01*
X43933Y234137D01*
X43961Y234154D01*
X44005Y234170D01*
X44050Y234187D01*
X44105Y234209D01*
X44166Y234231D01*
X44233Y234254D01*
X44305Y234276D01*
X44460Y234309D01*
X44638Y234337D01*
X44821Y234348D01*
X44877D01*
X44916Y234342D01*
D02*
G37*
G36*
X57414Y233282D02*
X57453D01*
X57492Y233277D01*
X57586Y233260D01*
X57686Y233232D01*
X57792Y233188D01*
X57897Y233132D01*
X57986Y233055D01*
X57997Y233044D01*
X58019Y233010D01*
X58058Y232960D01*
X58075Y232922D01*
X58097Y232883D01*
X58119Y232833D01*
X58136Y232783D01*
X58158Y232727D01*
X58175Y232661D01*
X58186Y232594D01*
X58197Y232516D01*
X58208Y232439D01*
Y232350D01*
Y230441D01*
X57736D01*
Y232189D01*
Y232194D01*
Y232200D01*
Y232233D01*
Y232283D01*
X57731Y232344D01*
X57725Y232411D01*
X57719Y232477D01*
X57708Y232544D01*
X57692Y232594D01*
Y232599D01*
X57681Y232616D01*
X57670Y232638D01*
X57653Y232666D01*
X57631Y232699D01*
X57603Y232733D01*
X57570Y232766D01*
X57525Y232799D01*
X57520Y232805D01*
X57503Y232810D01*
X57481Y232821D01*
X57442Y232838D01*
X57403Y232855D01*
X57353Y232866D01*
X57303Y232872D01*
X57242Y232877D01*
X57214D01*
X57192Y232872D01*
X57137Y232866D01*
X57070Y232855D01*
X56992Y232827D01*
X56909Y232794D01*
X56826Y232744D01*
X56748Y232677D01*
X56743Y232666D01*
X56721Y232638D01*
X56687Y232594D01*
X56654Y232527D01*
X56615Y232439D01*
X56587Y232333D01*
X56565Y232206D01*
X56554Y232056D01*
Y230441D01*
X56082D01*
Y232244D01*
Y232250D01*
Y232261D01*
Y232272D01*
Y232294D01*
X56077Y232355D01*
X56066Y232422D01*
X56055Y232500D01*
X56032Y232577D01*
X56005Y232649D01*
X55966Y232716D01*
X55960Y232722D01*
X55944Y232744D01*
X55916Y232766D01*
X55877Y232799D01*
X55827Y232827D01*
X55760Y232855D01*
X55683Y232872D01*
X55588Y232877D01*
X55555D01*
X55516Y232872D01*
X55472Y232866D01*
X55416Y232849D01*
X55350Y232833D01*
X55289Y232805D01*
X55222Y232772D01*
X55216Y232766D01*
X55194Y232749D01*
X55167Y232727D01*
X55128Y232694D01*
X55089Y232649D01*
X55050Y232594D01*
X55011Y232533D01*
X54978Y232461D01*
X54972Y232450D01*
X54967Y232422D01*
X54956Y232378D01*
X54939Y232316D01*
X54922Y232233D01*
X54911Y232133D01*
X54906Y232017D01*
X54900Y231884D01*
Y230441D01*
X54428D01*
Y233227D01*
X54850D01*
Y232827D01*
X54856Y232838D01*
X54872Y232860D01*
X54906Y232899D01*
X54944Y232944D01*
X54994Y232999D01*
X55055Y233055D01*
X55122Y233110D01*
X55200Y233160D01*
X55211Y233166D01*
X55239Y233182D01*
X55283Y233199D01*
X55344Y233227D01*
X55416Y233249D01*
X55500Y233265D01*
X55594Y233282D01*
X55694Y233288D01*
X55744D01*
X55805Y233282D01*
X55871Y233271D01*
X55955Y233254D01*
X56038Y233232D01*
X56121Y233199D01*
X56199Y233155D01*
X56210Y233149D01*
X56232Y233132D01*
X56265Y233105D01*
X56310Y233060D01*
X56354Y233010D01*
X56404Y232949D01*
X56449Y232877D01*
X56482Y232794D01*
X56487Y232799D01*
X56498Y232816D01*
X56515Y232838D01*
X56543Y232872D01*
X56576Y232910D01*
X56615Y232949D01*
X56659Y232994D01*
X56715Y233044D01*
X56776Y233088D01*
X56837Y233132D01*
X56909Y233171D01*
X56987Y233210D01*
X57070Y233243D01*
X57159Y233265D01*
X57248Y233282D01*
X57348Y233288D01*
X57386D01*
X57414Y233282D01*
D02*
G37*
G36*
X52941D02*
X52980D01*
X53019Y233277D01*
X53113Y233260D01*
X53213Y233232D01*
X53318Y233188D01*
X53424Y233132D01*
X53513Y233055D01*
X53524Y233044D01*
X53546Y233010D01*
X53585Y232960D01*
X53601Y232922D01*
X53624Y232883D01*
X53646Y232833D01*
X53662Y232783D01*
X53685Y232727D01*
X53701Y232661D01*
X53712Y232594D01*
X53724Y232516D01*
X53735Y232439D01*
Y232350D01*
Y230441D01*
X53263D01*
Y232189D01*
Y232194D01*
Y232200D01*
Y232233D01*
Y232283D01*
X53257Y232344D01*
X53252Y232411D01*
X53246Y232477D01*
X53235Y232544D01*
X53218Y232594D01*
Y232599D01*
X53207Y232616D01*
X53196Y232638D01*
X53180Y232666D01*
X53157Y232699D01*
X53130Y232733D01*
X53096Y232766D01*
X53052Y232799D01*
X53046Y232805D01*
X53030Y232810D01*
X53008Y232821D01*
X52969Y232838D01*
X52930Y232855D01*
X52880Y232866D01*
X52830Y232872D01*
X52769Y232877D01*
X52741D01*
X52719Y232872D01*
X52663Y232866D01*
X52597Y232855D01*
X52519Y232827D01*
X52436Y232794D01*
X52353Y232744D01*
X52275Y232677D01*
X52269Y232666D01*
X52247Y232638D01*
X52214Y232594D01*
X52181Y232527D01*
X52142Y232439D01*
X52114Y232333D01*
X52092Y232206D01*
X52081Y232056D01*
Y230441D01*
X51609D01*
Y232244D01*
Y232250D01*
Y232261D01*
Y232272D01*
Y232294D01*
X51603Y232355D01*
X51592Y232422D01*
X51581Y232500D01*
X51559Y232577D01*
X51531Y232649D01*
X51492Y232716D01*
X51487Y232722D01*
X51470Y232744D01*
X51442Y232766D01*
X51404Y232799D01*
X51354Y232827D01*
X51287Y232855D01*
X51209Y232872D01*
X51115Y232877D01*
X51082D01*
X51043Y232872D01*
X50998Y232866D01*
X50943Y232849D01*
X50876Y232833D01*
X50815Y232805D01*
X50749Y232772D01*
X50743Y232766D01*
X50721Y232749D01*
X50693Y232727D01*
X50654Y232694D01*
X50616Y232649D01*
X50577Y232594D01*
X50538Y232533D01*
X50504Y232461D01*
X50499Y232450D01*
X50493Y232422D01*
X50482Y232378D01*
X50466Y232316D01*
X50449Y232233D01*
X50438Y232133D01*
X50432Y232017D01*
X50427Y231884D01*
Y230441D01*
X49955D01*
Y233227D01*
X50377D01*
Y232827D01*
X50382Y232838D01*
X50399Y232860D01*
X50432Y232899D01*
X50471Y232944D01*
X50521Y232999D01*
X50582Y233055D01*
X50649Y233110D01*
X50726Y233160D01*
X50738Y233166D01*
X50765Y233182D01*
X50810Y233199D01*
X50871Y233227D01*
X50943Y233249D01*
X51026Y233265D01*
X51121Y233282D01*
X51220Y233288D01*
X51270D01*
X51331Y233282D01*
X51398Y233271D01*
X51481Y233254D01*
X51565Y233232D01*
X51648Y233199D01*
X51726Y233155D01*
X51737Y233149D01*
X51759Y233132D01*
X51792Y233105D01*
X51837Y233060D01*
X51881Y233010D01*
X51931Y232949D01*
X51975Y232877D01*
X52008Y232794D01*
X52014Y232799D01*
X52025Y232816D01*
X52042Y232838D01*
X52070Y232872D01*
X52103Y232910D01*
X52142Y232949D01*
X52186Y232994D01*
X52242Y233044D01*
X52303Y233088D01*
X52364Y233132D01*
X52436Y233171D01*
X52514Y233210D01*
X52597Y233243D01*
X52686Y233265D01*
X52774Y233282D01*
X52874Y233288D01*
X52913D01*
X52941Y233282D01*
D02*
G37*
G36*
X59934D02*
X60017Y233277D01*
X60106Y233265D01*
X60200Y233243D01*
X60300Y233221D01*
X60395Y233188D01*
X60400D01*
X60406Y233182D01*
X60433Y233171D01*
X60478Y233149D01*
X60533Y233121D01*
X60594Y233082D01*
X60655Y233038D01*
X60711Y232988D01*
X60761Y232932D01*
X60766Y232927D01*
X60777Y232905D01*
X60800Y232866D01*
X60827Y232821D01*
X60855Y232755D01*
X60883Y232683D01*
X60905Y232599D01*
X60927Y232505D01*
X60467Y232444D01*
Y232455D01*
X60461Y232477D01*
X60450Y232516D01*
X60433Y232566D01*
X60406Y232616D01*
X60372Y232672D01*
X60334Y232727D01*
X60278Y232777D01*
X60273Y232783D01*
X60250Y232794D01*
X60217Y232816D01*
X60167Y232838D01*
X60111Y232860D01*
X60039Y232883D01*
X59951Y232894D01*
X59856Y232899D01*
X59801D01*
X59745Y232894D01*
X59673Y232888D01*
X59601Y232872D01*
X59523Y232855D01*
X59451Y232827D01*
X59390Y232788D01*
X59385Y232783D01*
X59368Y232772D01*
X59346Y232749D01*
X59323Y232716D01*
X59296Y232683D01*
X59273Y232638D01*
X59257Y232589D01*
X59251Y232539D01*
Y232533D01*
Y232522D01*
X59257Y232505D01*
Y232483D01*
X59273Y232428D01*
X59307Y232372D01*
X59312Y232366D01*
X59318Y232361D01*
X59329Y232344D01*
X59351Y232328D01*
X59373Y232311D01*
X59407Y232289D01*
X59446Y232272D01*
X59490Y232250D01*
X59496D01*
X59507Y232244D01*
X59529Y232239D01*
X59568Y232222D01*
X59623Y232206D01*
X59695Y232189D01*
X59740Y232172D01*
X59790Y232161D01*
X59845Y232144D01*
X59906Y232128D01*
X59912D01*
X59928Y232122D01*
X59956Y232117D01*
X59989Y232106D01*
X60028Y232095D01*
X60078Y232083D01*
X60184Y232050D01*
X60300Y232017D01*
X60417Y231978D01*
X60522Y231939D01*
X60567Y231922D01*
X60606Y231906D01*
X60617Y231900D01*
X60639Y231889D01*
X60672Y231873D01*
X60722Y231845D01*
X60772Y231811D01*
X60822Y231767D01*
X60872Y231717D01*
X60916Y231662D01*
X60922Y231656D01*
X60933Y231634D01*
X60955Y231601D01*
X60977Y231551D01*
X60994Y231490D01*
X61016Y231423D01*
X61027Y231345D01*
X61033Y231256D01*
Y231245D01*
Y231218D01*
X61027Y231173D01*
X61016Y231112D01*
X61000Y231046D01*
X60972Y230973D01*
X60939Y230890D01*
X60894Y230812D01*
X60888Y230801D01*
X60866Y230779D01*
X60839Y230740D01*
X60794Y230696D01*
X60733Y230646D01*
X60667Y230591D01*
X60589Y230540D01*
X60495Y230490D01*
X60489D01*
X60483Y230485D01*
X60450Y230474D01*
X60395Y230457D01*
X60322Y230435D01*
X60234Y230413D01*
X60134Y230396D01*
X60028Y230385D01*
X59906Y230380D01*
X59856D01*
X59817Y230385D01*
X59773D01*
X59718Y230391D01*
X59662Y230396D01*
X59601Y230407D01*
X59468Y230435D01*
X59329Y230474D01*
X59196Y230529D01*
X59135Y230563D01*
X59079Y230602D01*
X59074Y230607D01*
X59068Y230613D01*
X59035Y230646D01*
X58985Y230696D01*
X58929Y230774D01*
X58868Y230868D01*
X58807Y230979D01*
X58757Y231118D01*
X58719Y231273D01*
X59185Y231345D01*
Y231340D01*
Y231334D01*
X59196Y231301D01*
X59207Y231245D01*
X59229Y231184D01*
X59257Y231118D01*
X59290Y231046D01*
X59340Y230973D01*
X59401Y230912D01*
X59412Y230907D01*
X59434Y230890D01*
X59479Y230868D01*
X59534Y230840D01*
X59606Y230812D01*
X59690Y230790D01*
X59790Y230774D01*
X59906Y230768D01*
X59962D01*
X60017Y230774D01*
X60089Y230785D01*
X60167Y230801D01*
X60250Y230823D01*
X60322Y230851D01*
X60389Y230896D01*
X60395Y230901D01*
X60417Y230918D01*
X60439Y230946D01*
X60472Y230984D01*
X60500Y231029D01*
X60528Y231084D01*
X60544Y231140D01*
X60550Y231206D01*
Y231212D01*
Y231234D01*
X60544Y231262D01*
X60533Y231301D01*
X60517Y231340D01*
X60489Y231379D01*
X60456Y231423D01*
X60406Y231456D01*
X60400Y231462D01*
X60383Y231467D01*
X60356Y231484D01*
X60311Y231501D01*
X60245Y231523D01*
X60206Y231540D01*
X60162Y231551D01*
X60111Y231567D01*
X60056Y231584D01*
X59995Y231601D01*
X59923Y231617D01*
X59917D01*
X59901Y231623D01*
X59873Y231628D01*
X59840Y231639D01*
X59795Y231650D01*
X59745Y231667D01*
X59640Y231695D01*
X59518Y231734D01*
X59401Y231767D01*
X59290Y231806D01*
X59240Y231828D01*
X59201Y231845D01*
X59190Y231850D01*
X59168Y231861D01*
X59135Y231884D01*
X59090Y231911D01*
X59040Y231950D01*
X58990Y231995D01*
X58941Y232045D01*
X58896Y232106D01*
X58890Y232111D01*
X58879Y232133D01*
X58863Y232172D01*
X58846Y232217D01*
X58829Y232272D01*
X58813Y232339D01*
X58802Y232405D01*
X58796Y232483D01*
Y232494D01*
Y232516D01*
X58802Y232550D01*
X58807Y232599D01*
X58818Y232649D01*
X58829Y232711D01*
X58852Y232766D01*
X58879Y232827D01*
X58885Y232833D01*
X58896Y232855D01*
X58913Y232883D01*
X58941Y232922D01*
X58974Y232960D01*
X59013Y233010D01*
X59057Y233055D01*
X59113Y233094D01*
X59118Y233099D01*
X59135Y233105D01*
X59157Y233121D01*
X59190Y233138D01*
X59235Y233160D01*
X59285Y233182D01*
X59346Y233205D01*
X59412Y233227D01*
X59423Y233232D01*
X59446Y233238D01*
X59484Y233249D01*
X59534Y233260D01*
X59595Y233271D01*
X59662Y233277D01*
X59740Y233288D01*
X59873D01*
X59934Y233282D01*
D02*
G37*
G36*
X33200Y230896D02*
X35092D01*
Y230441D01*
X32689D01*
Y234281D01*
X33200D01*
Y230896D01*
D02*
G37*
G36*
X40664Y233227D02*
X41142D01*
Y232860D01*
X40664D01*
Y231223D01*
Y231212D01*
Y231190D01*
Y231157D01*
X40670Y231118D01*
X40675Y231029D01*
X40681Y230990D01*
X40687Y230962D01*
X40692Y230951D01*
X40709Y230929D01*
X40731Y230901D01*
X40770Y230873D01*
X40781Y230868D01*
X40809Y230857D01*
X40859Y230846D01*
X40931Y230840D01*
X40986D01*
X41014Y230846D01*
X41053D01*
X41097Y230851D01*
X41142Y230857D01*
X41203Y230441D01*
X41192D01*
X41169Y230435D01*
X41131Y230430D01*
X41081Y230424D01*
X41025Y230413D01*
X40964Y230407D01*
X40842Y230402D01*
X40797D01*
X40753Y230407D01*
X40698Y230413D01*
X40631Y230418D01*
X40564Y230435D01*
X40503Y230452D01*
X40442Y230479D01*
X40437Y230485D01*
X40420Y230496D01*
X40398Y230513D01*
X40365Y230540D01*
X40337Y230568D01*
X40304Y230607D01*
X40270Y230646D01*
X40248Y230696D01*
Y230701D01*
X40237Y230724D01*
X40231Y230763D01*
X40220Y230818D01*
X40209Y230890D01*
X40204Y230935D01*
Y230984D01*
X40198Y231046D01*
X40193Y231107D01*
Y231173D01*
Y231251D01*
Y232860D01*
X39843D01*
Y233227D01*
X40193D01*
Y233915D01*
X40664Y234198D01*
Y233227D01*
D02*
G37*
G36*
X48196Y233282D02*
X48246Y233277D01*
X48301Y233265D01*
X48362Y233254D01*
X48434Y233243D01*
X48584Y233193D01*
X48662Y233166D01*
X48740Y233127D01*
X48817Y233088D01*
X48895Y233032D01*
X48967Y232977D01*
X49039Y232910D01*
X49045Y232905D01*
X49056Y232894D01*
X49073Y232872D01*
X49095Y232844D01*
X49123Y232805D01*
X49156Y232755D01*
X49189Y232699D01*
X49222Y232638D01*
X49256Y232572D01*
X49289Y232488D01*
X49322Y232405D01*
X49350Y232311D01*
X49372Y232211D01*
X49389Y232106D01*
X49400Y231995D01*
X49406Y231873D01*
Y231867D01*
Y231850D01*
Y231823D01*
Y231784D01*
X49400Y231739D01*
X49395Y231684D01*
Y231628D01*
X49383Y231567D01*
X49367Y231429D01*
X49333Y231290D01*
X49295Y231151D01*
X49239Y231023D01*
Y231018D01*
X49233Y231012D01*
X49222Y230996D01*
X49211Y230973D01*
X49172Y230918D01*
X49123Y230851D01*
X49056Y230774D01*
X48973Y230696D01*
X48878Y230618D01*
X48767Y230546D01*
X48762D01*
X48756Y230540D01*
X48740Y230529D01*
X48712Y230518D01*
X48684Y230507D01*
X48651Y230496D01*
X48568Y230463D01*
X48473Y230435D01*
X48357Y230407D01*
X48235Y230385D01*
X48101Y230380D01*
X48046D01*
X48001Y230385D01*
X47951Y230391D01*
X47896Y230402D01*
X47829Y230413D01*
X47763Y230424D01*
X47613Y230468D01*
X47530Y230502D01*
X47452Y230535D01*
X47374Y230579D01*
X47297Y230629D01*
X47224Y230685D01*
X47152Y230751D01*
X47147Y230757D01*
X47136Y230768D01*
X47119Y230790D01*
X47097Y230823D01*
X47069Y230862D01*
X47041Y230907D01*
X47008Y230962D01*
X46975Y231029D01*
X46941Y231101D01*
X46908Y231184D01*
X46880Y231273D01*
X46853Y231367D01*
X46830Y231473D01*
X46814Y231584D01*
X46803Y231706D01*
X46797Y231834D01*
Y231845D01*
Y231867D01*
X46803Y231906D01*
Y231961D01*
X46808Y232022D01*
X46819Y232100D01*
X46830Y232178D01*
X46853Y232267D01*
X46875Y232355D01*
X46902Y232450D01*
X46936Y232550D01*
X46980Y232644D01*
X47025Y232733D01*
X47086Y232821D01*
X47147Y232905D01*
X47224Y232977D01*
X47230Y232982D01*
X47241Y232988D01*
X47263Y233005D01*
X47291Y233027D01*
X47324Y233049D01*
X47369Y233077D01*
X47413Y233105D01*
X47469Y233132D01*
X47530Y233160D01*
X47596Y233188D01*
X47746Y233238D01*
X47918Y233277D01*
X48007Y233282D01*
X48101Y233288D01*
X48157D01*
X48196Y233282D01*
D02*
G37*
G36*
X36868D02*
X36913Y233277D01*
X36968Y233265D01*
X37029Y233254D01*
X37101Y233238D01*
X37168Y233221D01*
X37246Y233193D01*
X37318Y233166D01*
X37395Y233127D01*
X37473Y233082D01*
X37551Y233032D01*
X37623Y232971D01*
X37690Y232905D01*
X37695Y232899D01*
X37706Y232888D01*
X37723Y232866D01*
X37745Y232833D01*
X37773Y232794D01*
X37800Y232749D01*
X37834Y232694D01*
X37867Y232627D01*
X37900Y232555D01*
X37934Y232477D01*
X37962Y232389D01*
X37989Y232294D01*
X38011Y232189D01*
X38028Y232078D01*
X38039Y231961D01*
X38045Y231834D01*
Y231828D01*
Y231806D01*
Y231767D01*
X38039Y231712D01*
X35958D01*
Y231706D01*
Y231689D01*
X35963Y231667D01*
Y231634D01*
X35969Y231595D01*
X35980Y231551D01*
X35997Y231451D01*
X36030Y231340D01*
X36075Y231218D01*
X36136Y231107D01*
X36213Y231007D01*
X36219D01*
X36224Y230996D01*
X36258Y230968D01*
X36308Y230929D01*
X36374Y230890D01*
X36463Y230846D01*
X36563Y230807D01*
X36674Y230779D01*
X36735Y230774D01*
X36801Y230768D01*
X36846D01*
X36896Y230774D01*
X36957Y230785D01*
X37023Y230801D01*
X37101Y230823D01*
X37173Y230857D01*
X37246Y230901D01*
X37251Y230907D01*
X37279Y230929D01*
X37312Y230962D01*
X37351Y231007D01*
X37395Y231068D01*
X37445Y231145D01*
X37495Y231234D01*
X37540Y231340D01*
X38028Y231279D01*
Y231273D01*
X38023Y231262D01*
X38017Y231240D01*
X38006Y231206D01*
X37989Y231173D01*
X37973Y231129D01*
X37928Y231034D01*
X37873Y230929D01*
X37795Y230818D01*
X37706Y230713D01*
X37595Y230613D01*
X37590D01*
X37578Y230602D01*
X37562Y230591D01*
X37540Y230574D01*
X37506Y230557D01*
X37473Y230540D01*
X37429Y230518D01*
X37379Y230496D01*
X37323Y230474D01*
X37268Y230452D01*
X37129Y230418D01*
X36974Y230391D01*
X36801Y230380D01*
X36740D01*
X36702Y230385D01*
X36652Y230391D01*
X36591Y230402D01*
X36524Y230413D01*
X36452Y230424D01*
X36296Y230468D01*
X36213Y230502D01*
X36136Y230535D01*
X36052Y230579D01*
X35975Y230629D01*
X35902Y230685D01*
X35830Y230751D01*
X35825Y230757D01*
X35814Y230768D01*
X35797Y230790D01*
X35775Y230823D01*
X35747Y230862D01*
X35719Y230907D01*
X35686Y230962D01*
X35653Y231023D01*
X35619Y231096D01*
X35586Y231173D01*
X35558Y231262D01*
X35531Y231356D01*
X35508Y231456D01*
X35492Y231567D01*
X35481Y231684D01*
X35475Y231806D01*
Y231811D01*
Y231839D01*
Y231873D01*
X35481Y231922D01*
X35486Y231983D01*
X35492Y232050D01*
X35503Y232128D01*
X35519Y232206D01*
X35564Y232383D01*
X35592Y232472D01*
X35625Y232566D01*
X35669Y232655D01*
X35719Y232738D01*
X35775Y232821D01*
X35836Y232899D01*
X35841Y232905D01*
X35853Y232916D01*
X35875Y232932D01*
X35902Y232960D01*
X35936Y232988D01*
X35980Y233021D01*
X36030Y233060D01*
X36091Y233094D01*
X36152Y233132D01*
X36224Y233166D01*
X36302Y233199D01*
X36385Y233227D01*
X36474Y233254D01*
X36568Y233271D01*
X36668Y233282D01*
X36774Y233288D01*
X36829D01*
X36868Y233282D01*
D02*
G37*
G36*
X197592Y63454D02*
X197642Y63448D01*
X197703Y63443D01*
X197764Y63437D01*
X197836Y63420D01*
X197986Y63387D01*
X198153Y63337D01*
X198236Y63304D01*
X198314Y63265D01*
X198391Y63215D01*
X198469Y63165D01*
X198475Y63160D01*
X198486Y63154D01*
X198508Y63137D01*
X198536Y63110D01*
X198564Y63082D01*
X198602Y63043D01*
X198641Y62999D01*
X198686Y62954D01*
X198730Y62899D01*
X198775Y62832D01*
X198824Y62766D01*
X198869Y62693D01*
X198908Y62610D01*
X198952Y62527D01*
X198985Y62438D01*
X199019Y62338D01*
X198519Y62222D01*
Y62227D01*
X198514Y62238D01*
X198503Y62261D01*
X198491Y62288D01*
X198480Y62322D01*
X198464Y62366D01*
X198419Y62455D01*
X198364Y62555D01*
X198297Y62655D01*
X198214Y62749D01*
X198125Y62832D01*
X198114Y62843D01*
X198081Y62865D01*
X198025Y62893D01*
X197953Y62932D01*
X197859Y62965D01*
X197753Y62999D01*
X197626Y63021D01*
X197487Y63026D01*
X197442D01*
X197415Y63021D01*
X197376D01*
X197331Y63015D01*
X197226Y62999D01*
X197109Y62976D01*
X196987Y62938D01*
X196860Y62882D01*
X196743Y62810D01*
X196738D01*
X196732Y62799D01*
X196693Y62771D01*
X196643Y62727D01*
X196582Y62660D01*
X196510Y62577D01*
X196443Y62483D01*
X196382Y62366D01*
X196327Y62238D01*
Y62233D01*
X196321Y62222D01*
X196316Y62205D01*
X196310Y62177D01*
X196299Y62144D01*
X196288Y62105D01*
X196271Y62011D01*
X196249Y61900D01*
X196227Y61778D01*
X196216Y61644D01*
X196210Y61500D01*
Y61495D01*
Y61478D01*
Y61450D01*
Y61417D01*
X196216Y61378D01*
Y61328D01*
X196221Y61273D01*
X196227Y61212D01*
X196244Y61078D01*
X196271Y60934D01*
X196305Y60790D01*
X196349Y60646D01*
Y60640D01*
X196355Y60629D01*
X196366Y60612D01*
X196377Y60584D01*
X196410Y60518D01*
X196460Y60440D01*
X196521Y60351D01*
X196599Y60257D01*
X196688Y60174D01*
X196793Y60096D01*
X196799D01*
X196810Y60090D01*
X196826Y60079D01*
X196849Y60068D01*
X196876Y60057D01*
X196910Y60040D01*
X196987Y60007D01*
X197087Y59974D01*
X197198Y59946D01*
X197320Y59924D01*
X197448Y59918D01*
X197487D01*
X197520Y59924D01*
X197559D01*
X197598Y59930D01*
X197698Y59952D01*
X197814Y59979D01*
X197931Y60024D01*
X198053Y60085D01*
X198114Y60118D01*
X198170Y60163D01*
X198175Y60168D01*
X198181Y60174D01*
X198197Y60190D01*
X198220Y60207D01*
X198242Y60235D01*
X198269Y60268D01*
X198303Y60301D01*
X198330Y60346D01*
X198364Y60396D01*
X198403Y60451D01*
X198436Y60507D01*
X198469Y60573D01*
X198497Y60646D01*
X198525Y60723D01*
X198552Y60806D01*
X198575Y60895D01*
X199085Y60768D01*
Y60762D01*
X199080Y60740D01*
X199069Y60707D01*
X199052Y60662D01*
X199035Y60612D01*
X199013Y60551D01*
X198985Y60484D01*
X198952Y60412D01*
X198874Y60257D01*
X198775Y60101D01*
X198713Y60024D01*
X198652Y59946D01*
X198586Y59879D01*
X198508Y59813D01*
X198503Y59807D01*
X198491Y59796D01*
X198464Y59785D01*
X198436Y59763D01*
X198391Y59735D01*
X198347Y59707D01*
X198286Y59680D01*
X198225Y59652D01*
X198153Y59619D01*
X198075Y59591D01*
X197992Y59563D01*
X197903Y59535D01*
X197809Y59513D01*
X197709Y59502D01*
X197603Y59491D01*
X197492Y59486D01*
X197431D01*
X197387Y59491D01*
X197337D01*
X197276Y59497D01*
X197209Y59508D01*
X197132Y59519D01*
X196971Y59547D01*
X196804Y59591D01*
X196638Y59652D01*
X196560Y59691D01*
X196482Y59735D01*
X196477Y59741D01*
X196466Y59746D01*
X196443Y59763D01*
X196421Y59785D01*
X196388Y59807D01*
X196349Y59841D01*
X196305Y59879D01*
X196260Y59924D01*
X196216Y59974D01*
X196166Y60024D01*
X196066Y60151D01*
X195972Y60301D01*
X195888Y60468D01*
Y60473D01*
X195877Y60490D01*
X195872Y60518D01*
X195855Y60551D01*
X195844Y60596D01*
X195827Y60651D01*
X195805Y60712D01*
X195789Y60779D01*
X195772Y60851D01*
X195750Y60934D01*
X195722Y61106D01*
X195700Y61300D01*
X195689Y61500D01*
Y61506D01*
Y61528D01*
Y61561D01*
X195694Y61600D01*
Y61656D01*
X195700Y61711D01*
X195705Y61783D01*
X195716Y61855D01*
X195744Y62016D01*
X195783Y62194D01*
X195838Y62371D01*
X195916Y62544D01*
X195922Y62549D01*
X195927Y62566D01*
X195938Y62588D01*
X195961Y62616D01*
X195983Y62655D01*
X196010Y62699D01*
X196083Y62799D01*
X196177Y62910D01*
X196288Y63021D01*
X196416Y63132D01*
X196566Y63226D01*
X196571Y63232D01*
X196588Y63237D01*
X196610Y63248D01*
X196638Y63265D01*
X196682Y63282D01*
X196727Y63298D01*
X196782Y63321D01*
X196843Y63343D01*
X196910Y63365D01*
X196982Y63387D01*
X197137Y63420D01*
X197315Y63448D01*
X197498Y63459D01*
X197553D01*
X197592Y63454D01*
D02*
G37*
G36*
X206311Y59552D02*
X205784D01*
X203775Y62566D01*
Y59552D01*
X203287D01*
Y63393D01*
X203808D01*
X205823Y60374D01*
Y63393D01*
X206311D01*
Y59552D01*
D02*
G37*
G36*
X202881D02*
X202304D01*
X201855Y60718D01*
X200245D01*
X199829Y59552D01*
X199291D01*
X200756Y63393D01*
X201311D01*
X202881Y59552D01*
D02*
G37*
G36*
X238527Y197342D02*
X238577Y197337D01*
X238638Y197331D01*
X238699Y197326D01*
X238771Y197309D01*
X238921Y197276D01*
X239087Y197226D01*
X239170Y197192D01*
X239248Y197153D01*
X239326Y197104D01*
X239404Y197054D01*
X239409Y197048D01*
X239420Y197043D01*
X239442Y197026D01*
X239470Y196998D01*
X239498Y196970D01*
X239537Y196932D01*
X239576Y196887D01*
X239620Y196843D01*
X239664Y196787D01*
X239709Y196721D01*
X239759Y196654D01*
X239803Y196582D01*
X239842Y196499D01*
X239886Y196415D01*
X239920Y196327D01*
X239953Y196227D01*
X239453Y196110D01*
Y196116D01*
X239448Y196127D01*
X239437Y196149D01*
X239426Y196177D01*
X239415Y196210D01*
X239398Y196254D01*
X239353Y196343D01*
X239298Y196443D01*
X239231Y196543D01*
X239148Y196637D01*
X239059Y196721D01*
X239048Y196732D01*
X239015Y196754D01*
X238960Y196782D01*
X238887Y196821D01*
X238793Y196854D01*
X238687Y196887D01*
X238560Y196909D01*
X238421Y196915D01*
X238377D01*
X238349Y196909D01*
X238310D01*
X238266Y196904D01*
X238160Y196887D01*
X238044Y196865D01*
X237922Y196826D01*
X237794Y196771D01*
X237677Y196698D01*
X237672D01*
X237666Y196687D01*
X237628Y196660D01*
X237578Y196615D01*
X237516Y196549D01*
X237444Y196465D01*
X237378Y196371D01*
X237317Y196254D01*
X237261Y196127D01*
Y196121D01*
X237256Y196110D01*
X237250Y196093D01*
X237245Y196066D01*
X237233Y196032D01*
X237222Y195994D01*
X237206Y195899D01*
X237183Y195788D01*
X237161Y195666D01*
X237150Y195533D01*
X237145Y195389D01*
Y195383D01*
Y195367D01*
Y195339D01*
Y195305D01*
X237150Y195267D01*
Y195217D01*
X237156Y195161D01*
X237161Y195100D01*
X237178Y194967D01*
X237206Y194823D01*
X237239Y194678D01*
X237283Y194534D01*
Y194528D01*
X237289Y194517D01*
X237300Y194501D01*
X237311Y194473D01*
X237344Y194406D01*
X237394Y194329D01*
X237455Y194240D01*
X237533Y194146D01*
X237622Y194062D01*
X237727Y193984D01*
X237733D01*
X237744Y193979D01*
X237761Y193968D01*
X237783Y193957D01*
X237811Y193946D01*
X237844Y193929D01*
X237922Y193896D01*
X238021Y193862D01*
X238133Y193835D01*
X238255Y193812D01*
X238382Y193807D01*
X238421D01*
X238454Y193812D01*
X238493D01*
X238532Y193818D01*
X238632Y193840D01*
X238749Y193868D01*
X238865Y193912D01*
X238987Y193973D01*
X239048Y194007D01*
X239104Y194051D01*
X239109Y194057D01*
X239115Y194062D01*
X239131Y194079D01*
X239154Y194096D01*
X239176Y194123D01*
X239204Y194157D01*
X239237Y194190D01*
X239265Y194234D01*
X239298Y194284D01*
X239337Y194340D01*
X239370Y194395D01*
X239404Y194462D01*
X239431Y194534D01*
X239459Y194612D01*
X239487Y194695D01*
X239509Y194784D01*
X240019Y194656D01*
Y194650D01*
X240014Y194628D01*
X240003Y194595D01*
X239986Y194551D01*
X239970Y194501D01*
X239947Y194440D01*
X239920Y194373D01*
X239886Y194301D01*
X239809Y194146D01*
X239709Y193990D01*
X239648Y193912D01*
X239587Y193835D01*
X239520Y193768D01*
X239442Y193701D01*
X239437Y193696D01*
X239426Y193685D01*
X239398Y193674D01*
X239370Y193651D01*
X239326Y193624D01*
X239281Y193596D01*
X239220Y193568D01*
X239159Y193541D01*
X239087Y193507D01*
X239009Y193479D01*
X238926Y193452D01*
X238837Y193424D01*
X238743Y193402D01*
X238643Y193391D01*
X238538Y193379D01*
X238427Y193374D01*
X238366D01*
X238321Y193379D01*
X238271D01*
X238210Y193385D01*
X238144Y193396D01*
X238066Y193407D01*
X237905Y193435D01*
X237738Y193479D01*
X237572Y193541D01*
X237494Y193579D01*
X237417Y193624D01*
X237411Y193629D01*
X237400Y193635D01*
X237378Y193651D01*
X237355Y193674D01*
X237322Y193696D01*
X237283Y193729D01*
X237239Y193768D01*
X237195Y193812D01*
X237150Y193862D01*
X237100Y193912D01*
X237000Y194040D01*
X236906Y194190D01*
X236823Y194356D01*
Y194362D01*
X236812Y194378D01*
X236806Y194406D01*
X236789Y194440D01*
X236778Y194484D01*
X236762Y194539D01*
X236739Y194600D01*
X236723Y194667D01*
X236706Y194739D01*
X236684Y194823D01*
X236656Y194995D01*
X236634Y195189D01*
X236623Y195389D01*
Y195394D01*
Y195416D01*
Y195450D01*
X236629Y195489D01*
Y195544D01*
X236634Y195599D01*
X236640Y195672D01*
X236651Y195744D01*
X236678Y195905D01*
X236717Y196082D01*
X236773Y196260D01*
X236851Y196432D01*
X236856Y196438D01*
X236862Y196454D01*
X236873Y196476D01*
X236895Y196504D01*
X236917Y196543D01*
X236945Y196587D01*
X237017Y196687D01*
X237111Y196798D01*
X237222Y196909D01*
X237350Y197020D01*
X237500Y197115D01*
X237505Y197120D01*
X237522Y197126D01*
X237544Y197137D01*
X237572Y197153D01*
X237616Y197170D01*
X237661Y197187D01*
X237716Y197209D01*
X237777Y197231D01*
X237844Y197253D01*
X237916Y197276D01*
X238071Y197309D01*
X238249Y197337D01*
X238432Y197348D01*
X238488D01*
X238527Y197342D01*
D02*
G37*
G36*
X252418Y196282D02*
X252479Y196277D01*
X252551Y196266D01*
X252629Y196249D01*
X252712Y196227D01*
X252790Y196193D01*
X252801Y196188D01*
X252823Y196177D01*
X252862Y196160D01*
X252907Y196132D01*
X252962Y196099D01*
X253012Y196055D01*
X253062Y196010D01*
X253106Y195955D01*
X253112Y195949D01*
X253123Y195927D01*
X253140Y195899D01*
X253168Y195860D01*
X253190Y195805D01*
X253212Y195749D01*
X253240Y195683D01*
X253256Y195611D01*
Y195605D01*
X253262Y195583D01*
X253267Y195550D01*
X253273Y195505D01*
Y195439D01*
X253278Y195361D01*
X253284Y195267D01*
Y195150D01*
Y193441D01*
X252812D01*
Y195128D01*
Y195133D01*
Y195139D01*
Y195178D01*
Y195228D01*
X252807Y195289D01*
X252801Y195361D01*
X252790Y195433D01*
X252773Y195500D01*
X252757Y195561D01*
Y195566D01*
X252746Y195583D01*
X252729Y195611D01*
X252712Y195644D01*
X252685Y195677D01*
X252651Y195716D01*
X252607Y195755D01*
X252557Y195788D01*
X252551Y195794D01*
X252535Y195805D01*
X252502Y195816D01*
X252463Y195833D01*
X252418Y195849D01*
X252363Y195866D01*
X252296Y195871D01*
X252229Y195877D01*
X252202D01*
X252180Y195871D01*
X252124Y195866D01*
X252052Y195855D01*
X251974Y195827D01*
X251885Y195794D01*
X251797Y195749D01*
X251713Y195683D01*
X251702Y195672D01*
X251680Y195644D01*
X251663Y195622D01*
X251647Y195594D01*
X251625Y195561D01*
X251608Y195522D01*
X251586Y195477D01*
X251564Y195422D01*
X251547Y195361D01*
X251530Y195294D01*
X251519Y195222D01*
X251508Y195144D01*
X251497Y195050D01*
Y194956D01*
Y193441D01*
X251025D01*
Y196227D01*
X251447D01*
Y195827D01*
X251452Y195833D01*
X251464Y195849D01*
X251480Y195871D01*
X251502Y195899D01*
X251536Y195932D01*
X251575Y195971D01*
X251619Y196016D01*
X251675Y196060D01*
X251730Y196099D01*
X251797Y196143D01*
X251869Y196182D01*
X251946Y196216D01*
X252035Y196243D01*
X252124Y196266D01*
X252224Y196282D01*
X252329Y196288D01*
X252374D01*
X252418Y196282D01*
D02*
G37*
G36*
X247246Y193441D02*
X246718D01*
X244709Y196454D01*
Y193441D01*
X244221D01*
Y197281D01*
X244743D01*
X246757Y194262D01*
Y197281D01*
X247246D01*
Y193441D01*
D02*
G37*
G36*
X250187D02*
X249676D01*
Y197281D01*
X250187D01*
Y193441D01*
D02*
G37*
G36*
X243816D02*
X243238D01*
X242789Y194606D01*
X241179D01*
X240763Y193441D01*
X240225D01*
X241690Y197281D01*
X242245D01*
X243816Y193441D01*
D02*
G37*
G36*
X254560Y196227D02*
X255038D01*
Y195860D01*
X254560D01*
Y194223D01*
Y194212D01*
Y194190D01*
Y194157D01*
X254566Y194118D01*
X254572Y194029D01*
X254577Y193990D01*
X254583Y193962D01*
X254588Y193951D01*
X254605Y193929D01*
X254627Y193901D01*
X254666Y193874D01*
X254677Y193868D01*
X254705Y193857D01*
X254755Y193846D01*
X254827Y193840D01*
X254882D01*
X254910Y193846D01*
X254949D01*
X254993Y193851D01*
X255038Y193857D01*
X255099Y193441D01*
X255088D01*
X255066Y193435D01*
X255027Y193430D01*
X254977Y193424D01*
X254921Y193413D01*
X254860Y193407D01*
X254738Y193402D01*
X254694D01*
X254649Y193407D01*
X254594Y193413D01*
X254527Y193418D01*
X254461Y193435D01*
X254400Y193452D01*
X254339Y193479D01*
X254333Y193485D01*
X254316Y193496D01*
X254294Y193513D01*
X254261Y193541D01*
X254233Y193568D01*
X254200Y193607D01*
X254167Y193646D01*
X254144Y193696D01*
Y193701D01*
X254133Y193724D01*
X254128Y193763D01*
X254117Y193818D01*
X254105Y193890D01*
X254100Y193935D01*
Y193984D01*
X254094Y194046D01*
X254089Y194107D01*
Y194173D01*
Y194251D01*
Y195860D01*
X253739D01*
Y196227D01*
X254089D01*
Y196915D01*
X254560Y197198D01*
Y196227D01*
D02*
G37*
G36*
X276775Y195342D02*
X276814D01*
X276919Y195331D01*
X277035Y195315D01*
X277158Y195287D01*
X277291Y195253D01*
X277413Y195209D01*
X277418D01*
X277430Y195203D01*
X277446Y195192D01*
X277468Y195181D01*
X277524Y195153D01*
X277596Y195104D01*
X277679Y195048D01*
X277763Y194976D01*
X277840Y194893D01*
X277912Y194798D01*
Y194793D01*
X277918Y194787D01*
X277929Y194771D01*
X277940Y194754D01*
X277968Y194699D01*
X278001Y194626D01*
X278040Y194537D01*
X278068Y194432D01*
X278096Y194321D01*
X278107Y194199D01*
X277618Y194160D01*
Y194166D01*
Y194177D01*
X277613Y194193D01*
X277607Y194221D01*
X277590Y194282D01*
X277568Y194366D01*
X277535Y194454D01*
X277485Y194543D01*
X277424Y194626D01*
X277346Y194704D01*
X277335Y194710D01*
X277308Y194732D01*
X277252Y194765D01*
X277180Y194798D01*
X277085Y194832D01*
X276975Y194865D01*
X276836Y194887D01*
X276680Y194893D01*
X276603D01*
X276569Y194887D01*
X276525Y194882D01*
X276425Y194870D01*
X276314Y194848D01*
X276203Y194821D01*
X276098Y194776D01*
X276053Y194748D01*
X276009Y194721D01*
X275998Y194715D01*
X275975Y194693D01*
X275942Y194654D01*
X275909Y194610D01*
X275870Y194549D01*
X275837Y194482D01*
X275815Y194404D01*
X275803Y194316D01*
Y194304D01*
Y194282D01*
X275809Y194243D01*
X275820Y194199D01*
X275837Y194143D01*
X275865Y194088D01*
X275898Y194032D01*
X275948Y193977D01*
X275953Y193971D01*
X275981Y193955D01*
X276003Y193938D01*
X276025Y193927D01*
X276059Y193910D01*
X276098Y193888D01*
X276148Y193871D01*
X276203Y193849D01*
X276264Y193827D01*
X276336Y193799D01*
X276414Y193777D01*
X276503Y193749D01*
X276603Y193727D01*
X276714Y193700D01*
X276719D01*
X276741Y193694D01*
X276775Y193688D01*
X276814Y193677D01*
X276864Y193666D01*
X276924Y193649D01*
X276986Y193633D01*
X277052Y193616D01*
X277197Y193577D01*
X277335Y193538D01*
X277402Y193516D01*
X277463Y193494D01*
X277518Y193477D01*
X277563Y193455D01*
X277568D01*
X277579Y193450D01*
X277596Y193439D01*
X277618Y193428D01*
X277679Y193394D01*
X277751Y193350D01*
X277835Y193289D01*
X277918Y193222D01*
X277996Y193145D01*
X278062Y193061D01*
X278068Y193050D01*
X278090Y193022D01*
X278112Y192972D01*
X278146Y192906D01*
X278173Y192828D01*
X278201Y192734D01*
X278218Y192628D01*
X278223Y192517D01*
Y192512D01*
Y192506D01*
Y192490D01*
Y192467D01*
X278212Y192406D01*
X278201Y192329D01*
X278179Y192240D01*
X278151Y192146D01*
X278107Y192046D01*
X278046Y191940D01*
Y191935D01*
X278040Y191929D01*
X278012Y191896D01*
X277974Y191846D01*
X277918Y191790D01*
X277846Y191724D01*
X277757Y191651D01*
X277657Y191585D01*
X277541Y191524D01*
X277535D01*
X277524Y191518D01*
X277507Y191513D01*
X277485Y191502D01*
X277452Y191491D01*
X277413Y191474D01*
X277324Y191452D01*
X277219Y191424D01*
X277091Y191396D01*
X276952Y191379D01*
X276802Y191374D01*
X276714D01*
X276669Y191379D01*
X276619D01*
X276564Y191385D01*
X276497Y191391D01*
X276358Y191413D01*
X276214Y191435D01*
X276070Y191474D01*
X275931Y191524D01*
X275925D01*
X275914Y191529D01*
X275898Y191541D01*
X275876Y191552D01*
X275809Y191585D01*
X275731Y191635D01*
X275642Y191701D01*
X275548Y191779D01*
X275459Y191874D01*
X275376Y191979D01*
Y191984D01*
X275365Y191996D01*
X275359Y192012D01*
X275343Y192034D01*
X275332Y192062D01*
X275315Y192095D01*
X275276Y192179D01*
X275237Y192284D01*
X275204Y192401D01*
X275182Y192534D01*
X275171Y192673D01*
X275648Y192717D01*
Y192712D01*
Y192706D01*
X275654Y192689D01*
Y192667D01*
X275665Y192617D01*
X275681Y192545D01*
X275704Y192473D01*
X275726Y192390D01*
X275765Y192312D01*
X275803Y192240D01*
X275809Y192234D01*
X275826Y192212D01*
X275853Y192173D01*
X275898Y192134D01*
X275953Y192084D01*
X276014Y192034D01*
X276098Y191984D01*
X276186Y191940D01*
X276192D01*
X276198Y191935D01*
X276214Y191929D01*
X276231Y191923D01*
X276286Y191907D01*
X276358Y191885D01*
X276447Y191862D01*
X276547Y191846D01*
X276658Y191835D01*
X276780Y191829D01*
X276830D01*
X276886Y191835D01*
X276952Y191840D01*
X277030Y191851D01*
X277119Y191862D01*
X277208Y191885D01*
X277291Y191912D01*
X277302Y191918D01*
X277330Y191929D01*
X277368Y191951D01*
X277418Y191973D01*
X277468Y192012D01*
X277524Y192051D01*
X277579Y192095D01*
X277624Y192151D01*
X277629Y192157D01*
X277641Y192179D01*
X277657Y192207D01*
X277679Y192251D01*
X277701Y192295D01*
X277718Y192351D01*
X277729Y192412D01*
X277735Y192478D01*
Y192484D01*
Y192512D01*
X277729Y192545D01*
X277724Y192589D01*
X277707Y192634D01*
X277690Y192689D01*
X277663Y192745D01*
X277624Y192795D01*
X277618Y192800D01*
X277602Y192817D01*
X277579Y192839D01*
X277541Y192873D01*
X277496Y192906D01*
X277435Y192945D01*
X277363Y192983D01*
X277280Y193017D01*
X277274Y193022D01*
X277246Y193028D01*
X277202Y193045D01*
X277174Y193050D01*
X277135Y193061D01*
X277097Y193078D01*
X277047Y193089D01*
X276991Y193106D01*
X276924Y193122D01*
X276858Y193139D01*
X276780Y193161D01*
X276691Y193183D01*
X276597Y193205D01*
X276591D01*
X276575Y193211D01*
X276547Y193217D01*
X276514Y193228D01*
X276469Y193239D01*
X276419Y193250D01*
X276308Y193283D01*
X276186Y193322D01*
X276059Y193361D01*
X275948Y193400D01*
X275898Y193422D01*
X275853Y193444D01*
X275848D01*
X275842Y193450D01*
X275809Y193472D01*
X275759Y193500D01*
X275704Y193544D01*
X275637Y193594D01*
X275570Y193655D01*
X275504Y193727D01*
X275448Y193805D01*
X275443Y193816D01*
X275426Y193844D01*
X275404Y193888D01*
X275382Y193944D01*
X275359Y194016D01*
X275337Y194099D01*
X275321Y194188D01*
X275315Y194282D01*
Y194288D01*
Y194293D01*
Y194310D01*
Y194332D01*
X275326Y194388D01*
X275337Y194460D01*
X275354Y194543D01*
X275382Y194637D01*
X275420Y194732D01*
X275476Y194826D01*
Y194832D01*
X275482Y194837D01*
X275509Y194870D01*
X275548Y194915D01*
X275598Y194970D01*
X275665Y195031D01*
X275748Y195098D01*
X275848Y195159D01*
X275959Y195215D01*
X275964D01*
X275975Y195220D01*
X275992Y195226D01*
X276014Y195237D01*
X276042Y195248D01*
X276081Y195259D01*
X276164Y195281D01*
X276270Y195303D01*
X276392Y195326D01*
X276519Y195342D01*
X276664Y195348D01*
X276736D01*
X276775Y195342D01*
D02*
G37*
G36*
X273223D02*
X273273Y195337D01*
X273334Y195331D01*
X273395Y195326D01*
X273467Y195309D01*
X273617Y195276D01*
X273783Y195226D01*
X273867Y195192D01*
X273944Y195153D01*
X274022Y195104D01*
X274100Y195054D01*
X274105Y195048D01*
X274116Y195043D01*
X274138Y195026D01*
X274166Y194998D01*
X274194Y194970D01*
X274233Y194931D01*
X274272Y194887D01*
X274316Y194843D01*
X274360Y194787D01*
X274405Y194721D01*
X274455Y194654D01*
X274499Y194582D01*
X274538Y194499D01*
X274582Y194415D01*
X274616Y194327D01*
X274649Y194227D01*
X274149Y194110D01*
Y194116D01*
X274144Y194127D01*
X274133Y194149D01*
X274122Y194177D01*
X274111Y194210D01*
X274094Y194254D01*
X274050Y194343D01*
X273994Y194443D01*
X273927Y194543D01*
X273844Y194637D01*
X273756Y194721D01*
X273744Y194732D01*
X273711Y194754D01*
X273656Y194782D01*
X273583Y194821D01*
X273489Y194854D01*
X273384Y194887D01*
X273256Y194909D01*
X273117Y194915D01*
X273073D01*
X273045Y194909D01*
X273006D01*
X272962Y194904D01*
X272856Y194887D01*
X272740Y194865D01*
X272618Y194826D01*
X272490Y194771D01*
X272374Y194699D01*
X272368D01*
X272362Y194687D01*
X272324Y194660D01*
X272274Y194615D01*
X272213Y194549D01*
X272140Y194465D01*
X272074Y194371D01*
X272013Y194254D01*
X271957Y194127D01*
Y194121D01*
X271952Y194110D01*
X271946Y194094D01*
X271941Y194066D01*
X271930Y194032D01*
X271918Y193994D01*
X271902Y193899D01*
X271880Y193788D01*
X271857Y193666D01*
X271846Y193533D01*
X271841Y193389D01*
Y193383D01*
Y193367D01*
Y193339D01*
Y193305D01*
X271846Y193267D01*
Y193217D01*
X271852Y193161D01*
X271857Y193100D01*
X271874Y192967D01*
X271902Y192823D01*
X271935Y192678D01*
X271979Y192534D01*
Y192528D01*
X271985Y192517D01*
X271996Y192501D01*
X272007Y192473D01*
X272041Y192406D01*
X272091Y192329D01*
X272151Y192240D01*
X272229Y192146D01*
X272318Y192062D01*
X272424Y191984D01*
X272429D01*
X272440Y191979D01*
X272457Y191968D01*
X272479Y191957D01*
X272507Y191946D01*
X272540Y191929D01*
X272618Y191896D01*
X272718Y191862D01*
X272829Y191835D01*
X272951Y191812D01*
X273078Y191807D01*
X273117D01*
X273150Y191812D01*
X273189D01*
X273228Y191818D01*
X273328Y191840D01*
X273445Y191868D01*
X273561Y191912D01*
X273683Y191973D01*
X273744Y192007D01*
X273800Y192051D01*
X273805Y192057D01*
X273811Y192062D01*
X273828Y192079D01*
X273850Y192095D01*
X273872Y192123D01*
X273900Y192157D01*
X273933Y192190D01*
X273961Y192234D01*
X273994Y192284D01*
X274033Y192340D01*
X274066Y192395D01*
X274100Y192462D01*
X274127Y192534D01*
X274155Y192612D01*
X274183Y192695D01*
X274205Y192784D01*
X274716Y192656D01*
Y192650D01*
X274710Y192628D01*
X274699Y192595D01*
X274682Y192551D01*
X274666Y192501D01*
X274643Y192440D01*
X274616Y192373D01*
X274582Y192301D01*
X274505Y192146D01*
X274405Y191990D01*
X274344Y191912D01*
X274283Y191835D01*
X274216Y191768D01*
X274138Y191701D01*
X274133Y191696D01*
X274122Y191685D01*
X274094Y191674D01*
X274066Y191651D01*
X274022Y191624D01*
X273977Y191596D01*
X273916Y191568D01*
X273855Y191541D01*
X273783Y191507D01*
X273706Y191479D01*
X273622Y191452D01*
X273534Y191424D01*
X273439Y191402D01*
X273339Y191391D01*
X273234Y191379D01*
X273123Y191374D01*
X273062D01*
X273017Y191379D01*
X272967D01*
X272906Y191385D01*
X272840Y191396D01*
X272762Y191407D01*
X272601Y191435D01*
X272435Y191479D01*
X272268Y191541D01*
X272190Y191579D01*
X272113Y191624D01*
X272107Y191629D01*
X272096Y191635D01*
X272074Y191651D01*
X272052Y191674D01*
X272018Y191696D01*
X271979Y191729D01*
X271935Y191768D01*
X271891Y191812D01*
X271846Y191862D01*
X271796Y191912D01*
X271696Y192040D01*
X271602Y192190D01*
X271519Y192356D01*
Y192362D01*
X271508Y192378D01*
X271502Y192406D01*
X271485Y192440D01*
X271474Y192484D01*
X271458Y192540D01*
X271436Y192601D01*
X271419Y192667D01*
X271402Y192739D01*
X271380Y192823D01*
X271352Y192995D01*
X271330Y193189D01*
X271319Y193389D01*
Y193394D01*
Y193416D01*
Y193450D01*
X271325Y193489D01*
Y193544D01*
X271330Y193599D01*
X271336Y193672D01*
X271347Y193744D01*
X271375Y193905D01*
X271413Y194082D01*
X271469Y194260D01*
X271547Y194432D01*
X271552Y194438D01*
X271558Y194454D01*
X271569Y194476D01*
X271591Y194504D01*
X271613Y194543D01*
X271641Y194587D01*
X271713Y194687D01*
X271807Y194798D01*
X271918Y194909D01*
X272046Y195020D01*
X272196Y195115D01*
X272201Y195120D01*
X272218Y195126D01*
X272240Y195137D01*
X272268Y195153D01*
X272312Y195170D01*
X272357Y195187D01*
X272412Y195209D01*
X272473Y195231D01*
X272540Y195253D01*
X272612Y195276D01*
X272768Y195309D01*
X272945Y195337D01*
X273128Y195348D01*
X273184D01*
X273223Y195342D01*
D02*
G37*
G36*
X260402D02*
X260452Y195337D01*
X260513Y195331D01*
X260574Y195326D01*
X260646Y195309D01*
X260796Y195276D01*
X260963Y195226D01*
X261046Y195192D01*
X261124Y195153D01*
X261201Y195104D01*
X261279Y195054D01*
X261285Y195048D01*
X261296Y195043D01*
X261318Y195026D01*
X261346Y194998D01*
X261373Y194970D01*
X261412Y194931D01*
X261451Y194887D01*
X261495Y194843D01*
X261540Y194787D01*
X261584Y194721D01*
X261634Y194654D01*
X261679Y194582D01*
X261718Y194499D01*
X261762Y194415D01*
X261795Y194327D01*
X261828Y194227D01*
X261329Y194110D01*
Y194116D01*
X261323Y194127D01*
X261312Y194149D01*
X261301Y194177D01*
X261290Y194210D01*
X261274Y194254D01*
X261229Y194343D01*
X261174Y194443D01*
X261107Y194543D01*
X261024Y194637D01*
X260935Y194721D01*
X260924Y194732D01*
X260891Y194754D01*
X260835Y194782D01*
X260763Y194821D01*
X260669Y194854D01*
X260563Y194887D01*
X260436Y194909D01*
X260297Y194915D01*
X260252D01*
X260225Y194909D01*
X260186D01*
X260141Y194904D01*
X260036Y194887D01*
X259919Y194865D01*
X259797Y194826D01*
X259670Y194771D01*
X259553Y194699D01*
X259547D01*
X259542Y194687D01*
X259503Y194660D01*
X259453Y194615D01*
X259392Y194549D01*
X259320Y194465D01*
X259253Y194371D01*
X259192Y194254D01*
X259137Y194127D01*
Y194121D01*
X259131Y194110D01*
X259126Y194094D01*
X259120Y194066D01*
X259109Y194032D01*
X259098Y193994D01*
X259081Y193899D01*
X259059Y193788D01*
X259037Y193666D01*
X259026Y193533D01*
X259020Y193389D01*
Y193383D01*
Y193367D01*
Y193339D01*
Y193305D01*
X259026Y193267D01*
Y193217D01*
X259031Y193161D01*
X259037Y193100D01*
X259053Y192967D01*
X259081Y192823D01*
X259115Y192678D01*
X259159Y192534D01*
Y192528D01*
X259165Y192517D01*
X259176Y192501D01*
X259187Y192473D01*
X259220Y192406D01*
X259270Y192329D01*
X259331Y192240D01*
X259409Y192146D01*
X259497Y192062D01*
X259603Y191984D01*
X259609D01*
X259620Y191979D01*
X259636Y191968D01*
X259659Y191957D01*
X259686Y191946D01*
X259719Y191929D01*
X259797Y191896D01*
X259897Y191862D01*
X260008Y191835D01*
X260130Y191812D01*
X260258Y191807D01*
X260297D01*
X260330Y191812D01*
X260369D01*
X260408Y191818D01*
X260508Y191840D01*
X260624Y191868D01*
X260741Y191912D01*
X260863Y191973D01*
X260924Y192007D01*
X260979Y192051D01*
X260985Y192057D01*
X260991Y192062D01*
X261007Y192079D01*
X261029Y192095D01*
X261052Y192123D01*
X261079Y192157D01*
X261113Y192190D01*
X261140Y192234D01*
X261174Y192284D01*
X261212Y192340D01*
X261246Y192395D01*
X261279Y192462D01*
X261307Y192534D01*
X261335Y192612D01*
X261362Y192695D01*
X261385Y192784D01*
X261895Y192656D01*
Y192650D01*
X261890Y192628D01*
X261878Y192595D01*
X261862Y192551D01*
X261845Y192501D01*
X261823Y192440D01*
X261795Y192373D01*
X261762Y192301D01*
X261684Y192146D01*
X261584Y191990D01*
X261523Y191912D01*
X261462Y191835D01*
X261396Y191768D01*
X261318Y191701D01*
X261312Y191696D01*
X261301Y191685D01*
X261274Y191674D01*
X261246Y191651D01*
X261201Y191624D01*
X261157Y191596D01*
X261096Y191568D01*
X261035Y191541D01*
X260963Y191507D01*
X260885Y191479D01*
X260802Y191452D01*
X260713Y191424D01*
X260619Y191402D01*
X260519Y191391D01*
X260413Y191379D01*
X260302Y191374D01*
X260241D01*
X260197Y191379D01*
X260147D01*
X260086Y191385D01*
X260019Y191396D01*
X259942Y191407D01*
X259781Y191435D01*
X259614Y191479D01*
X259448Y191541D01*
X259370Y191579D01*
X259292Y191624D01*
X259287Y191629D01*
X259276Y191635D01*
X259253Y191651D01*
X259231Y191674D01*
X259198Y191696D01*
X259159Y191729D01*
X259115Y191768D01*
X259070Y191812D01*
X259026Y191862D01*
X258976Y191912D01*
X258876Y192040D01*
X258782Y192190D01*
X258698Y192356D01*
Y192362D01*
X258687Y192378D01*
X258682Y192406D01*
X258665Y192440D01*
X258654Y192484D01*
X258637Y192540D01*
X258615Y192601D01*
X258598Y192667D01*
X258582Y192739D01*
X258560Y192823D01*
X258532Y192995D01*
X258510Y193189D01*
X258499Y193389D01*
Y193394D01*
Y193416D01*
Y193450D01*
X258504Y193489D01*
Y193544D01*
X258510Y193599D01*
X258515Y193672D01*
X258526Y193744D01*
X258554Y193905D01*
X258593Y194082D01*
X258648Y194260D01*
X258726Y194432D01*
X258732Y194438D01*
X258737Y194454D01*
X258748Y194476D01*
X258770Y194504D01*
X258793Y194543D01*
X258820Y194587D01*
X258893Y194687D01*
X258987Y194798D01*
X259098Y194909D01*
X259226Y195020D01*
X259375Y195115D01*
X259381Y195120D01*
X259398Y195126D01*
X259420Y195137D01*
X259448Y195153D01*
X259492Y195170D01*
X259536Y195187D01*
X259592Y195209D01*
X259653Y195231D01*
X259719Y195253D01*
X259792Y195276D01*
X259947Y195309D01*
X260125Y195337D01*
X260308Y195348D01*
X260363D01*
X260402Y195342D01*
D02*
G37*
G36*
X269121Y191441D02*
X268594D01*
X266585Y194454D01*
Y191441D01*
X266096D01*
Y195281D01*
X266618D01*
X268633Y192262D01*
Y195281D01*
X269121D01*
Y191441D01*
D02*
G37*
G36*
X265691D02*
X265114D01*
X264665Y192606D01*
X263055D01*
X262639Y191441D01*
X262101D01*
X263566Y195281D01*
X264121D01*
X265691Y191441D01*
D02*
G37*
G36*
X33477Y125496D02*
X33028D01*
X31979Y128282D01*
X32478D01*
X33078Y126611D01*
Y126606D01*
X33083Y126600D01*
X33089Y126583D01*
X33094Y126567D01*
X33111Y126511D01*
X33133Y126439D01*
X33161Y126356D01*
X33194Y126261D01*
X33222Y126156D01*
X33255Y126051D01*
X33261Y126062D01*
X33266Y126090D01*
X33283Y126134D01*
X33300Y126200D01*
X33327Y126273D01*
X33355Y126367D01*
X33394Y126467D01*
X33433Y126578D01*
X34049Y128282D01*
X34537D01*
X33477Y125496D01*
D02*
G37*
G36*
X31518Y128837D02*
X29981D01*
X29776Y127799D01*
X29781Y127804D01*
X29792Y127810D01*
X29809Y127821D01*
X29837Y127838D01*
X29870Y127854D01*
X29909Y127876D01*
X29998Y127921D01*
X30108Y127965D01*
X30231Y128004D01*
X30364Y128032D01*
X30430Y128043D01*
X30553D01*
X30586Y128038D01*
X30630Y128032D01*
X30680Y128026D01*
X30736Y128015D01*
X30797Y127999D01*
X30930Y127960D01*
X31002Y127932D01*
X31074Y127893D01*
X31146Y127854D01*
X31218Y127810D01*
X31285Y127754D01*
X31352Y127693D01*
X31357Y127688D01*
X31368Y127677D01*
X31385Y127660D01*
X31407Y127632D01*
X31435Y127594D01*
X31463Y127555D01*
X31496Y127505D01*
X31529Y127449D01*
X31557Y127388D01*
X31590Y127322D01*
X31618Y127244D01*
X31646Y127166D01*
X31668Y127083D01*
X31685Y126989D01*
X31696Y126894D01*
X31701Y126794D01*
Y126789D01*
Y126772D01*
Y126744D01*
X31696Y126706D01*
X31690Y126661D01*
X31685Y126611D01*
X31674Y126550D01*
X31662Y126489D01*
X31629Y126345D01*
X31574Y126195D01*
X31540Y126117D01*
X31496Y126045D01*
X31452Y125967D01*
X31396Y125895D01*
X31391Y125890D01*
X31380Y125873D01*
X31357Y125851D01*
X31330Y125823D01*
X31291Y125790D01*
X31246Y125745D01*
X31191Y125707D01*
X31130Y125662D01*
X31063Y125618D01*
X30985Y125579D01*
X30902Y125540D01*
X30813Y125501D01*
X30719Y125473D01*
X30614Y125451D01*
X30503Y125435D01*
X30386Y125429D01*
X30336D01*
X30297Y125435D01*
X30253Y125440D01*
X30203Y125446D01*
X30142Y125451D01*
X30081Y125468D01*
X29942Y125501D01*
X29803Y125551D01*
X29731Y125584D01*
X29659Y125623D01*
X29592Y125668D01*
X29526Y125718D01*
X29520Y125723D01*
X29509Y125729D01*
X29498Y125751D01*
X29476Y125773D01*
X29448Y125801D01*
X29420Y125834D01*
X29387Y125879D01*
X29359Y125928D01*
X29326Y125978D01*
X29293Y126040D01*
X29232Y126173D01*
X29182Y126328D01*
X29165Y126411D01*
X29154Y126500D01*
X29648Y126539D01*
Y126533D01*
Y126522D01*
X29653Y126506D01*
X29659Y126478D01*
X29676Y126417D01*
X29698Y126334D01*
X29731Y126250D01*
X29776Y126156D01*
X29831Y126073D01*
X29898Y125995D01*
X29909Y125990D01*
X29931Y125967D01*
X29975Y125940D01*
X30036Y125906D01*
X30103Y125873D01*
X30186Y125845D01*
X30281Y125823D01*
X30386Y125818D01*
X30419D01*
X30441Y125823D01*
X30508Y125829D01*
X30586Y125851D01*
X30680Y125879D01*
X30775Y125923D01*
X30874Y125990D01*
X30919Y126028D01*
X30963Y126073D01*
X30969Y126078D01*
X30974Y126084D01*
X30985Y126101D01*
X31002Y126117D01*
X31041Y126178D01*
X31085Y126256D01*
X31124Y126350D01*
X31163Y126467D01*
X31191Y126606D01*
X31202Y126678D01*
Y126755D01*
Y126761D01*
Y126772D01*
Y126794D01*
X31196Y126822D01*
Y126855D01*
X31191Y126894D01*
X31174Y126983D01*
X31146Y127088D01*
X31108Y127194D01*
X31052Y127294D01*
X30974Y127388D01*
Y127394D01*
X30963Y127399D01*
X30935Y127427D01*
X30885Y127466D01*
X30819Y127510D01*
X30730Y127549D01*
X30630Y127588D01*
X30514Y127616D01*
X30447Y127627D01*
X30342D01*
X30297Y127621D01*
X30242Y127616D01*
X30175Y127599D01*
X30108Y127582D01*
X30036Y127555D01*
X29964Y127521D01*
X29959Y127516D01*
X29937Y127505D01*
X29903Y127477D01*
X29859Y127449D01*
X29814Y127410D01*
X29770Y127360D01*
X29720Y127310D01*
X29681Y127249D01*
X29237Y127310D01*
X29609Y129286D01*
X31518D01*
Y128837D01*
D02*
G37*
G36*
X41331Y129331D02*
X41381D01*
X41497Y129325D01*
X41619Y129308D01*
X41752Y129292D01*
X41875Y129264D01*
X41936Y129247D01*
X41985Y129231D01*
X41991D01*
X41997Y129225D01*
X42030Y129209D01*
X42080Y129186D01*
X42141Y129148D01*
X42208Y129098D01*
X42280Y129031D01*
X42346Y128953D01*
X42413Y128865D01*
Y128859D01*
X42418Y128853D01*
X42441Y128820D01*
X42463Y128765D01*
X42496Y128692D01*
X42524Y128609D01*
X42552Y128509D01*
X42568Y128404D01*
X42574Y128287D01*
Y128282D01*
Y128271D01*
Y128248D01*
X42568Y128221D01*
Y128182D01*
X42563Y128143D01*
X42540Y128049D01*
X42507Y127938D01*
X42463Y127821D01*
X42396Y127705D01*
X42352Y127649D01*
X42307Y127594D01*
X42302Y127588D01*
X42296Y127582D01*
X42280Y127566D01*
X42257Y127549D01*
X42230Y127527D01*
X42196Y127505D01*
X42152Y127477D01*
X42108Y127444D01*
X42052Y127416D01*
X41991Y127388D01*
X41925Y127355D01*
X41852Y127327D01*
X41769Y127305D01*
X41686Y127277D01*
X41592Y127260D01*
X41492Y127244D01*
X41503Y127238D01*
X41525Y127227D01*
X41558Y127205D01*
X41603Y127183D01*
X41702Y127122D01*
X41752Y127083D01*
X41797Y127050D01*
X41808Y127039D01*
X41836Y127011D01*
X41880Y126966D01*
X41936Y126911D01*
X41997Y126833D01*
X42069Y126750D01*
X42141Y126650D01*
X42219Y126539D01*
X42879Y125496D01*
X42246D01*
X41741Y126295D01*
Y126300D01*
X41730Y126311D01*
X41719Y126328D01*
X41702Y126350D01*
X41664Y126411D01*
X41614Y126489D01*
X41553Y126572D01*
X41492Y126661D01*
X41431Y126744D01*
X41375Y126822D01*
X41370Y126828D01*
X41353Y126850D01*
X41325Y126883D01*
X41286Y126922D01*
X41203Y127005D01*
X41159Y127044D01*
X41114Y127077D01*
X41109Y127083D01*
X41098Y127088D01*
X41075Y127100D01*
X41042Y127116D01*
X41009Y127133D01*
X40970Y127149D01*
X40881Y127177D01*
X40876D01*
X40864Y127183D01*
X40842D01*
X40815Y127188D01*
X40776Y127194D01*
X40731D01*
X40670Y127199D01*
X40015D01*
Y125496D01*
X39505D01*
Y129336D01*
X41286D01*
X41331Y129331D01*
D02*
G37*
G36*
X44544Y128337D02*
X44589Y128332D01*
X44644Y128321D01*
X44705Y128309D01*
X44777Y128293D01*
X44844Y128276D01*
X44921Y128248D01*
X44994Y128221D01*
X45071Y128182D01*
X45149Y128137D01*
X45227Y128087D01*
X45299Y128026D01*
X45366Y127960D01*
X45371Y127954D01*
X45382Y127943D01*
X45399Y127921D01*
X45421Y127888D01*
X45449Y127849D01*
X45476Y127804D01*
X45510Y127749D01*
X45543Y127682D01*
X45576Y127610D01*
X45610Y127532D01*
X45637Y127444D01*
X45665Y127349D01*
X45687Y127244D01*
X45704Y127133D01*
X45715Y127016D01*
X45721Y126889D01*
Y126883D01*
Y126861D01*
Y126822D01*
X45715Y126767D01*
X43634D01*
Y126761D01*
Y126744D01*
X43639Y126722D01*
Y126689D01*
X43645Y126650D01*
X43656Y126606D01*
X43673Y126506D01*
X43706Y126395D01*
X43750Y126273D01*
X43812Y126162D01*
X43889Y126062D01*
X43895D01*
X43900Y126051D01*
X43934Y126023D01*
X43984Y125984D01*
X44050Y125945D01*
X44139Y125901D01*
X44239Y125862D01*
X44350Y125834D01*
X44411Y125829D01*
X44477Y125823D01*
X44522D01*
X44572Y125829D01*
X44633Y125840D01*
X44699Y125856D01*
X44777Y125879D01*
X44849Y125912D01*
X44921Y125956D01*
X44927Y125962D01*
X44955Y125984D01*
X44988Y126017D01*
X45027Y126062D01*
X45071Y126123D01*
X45121Y126200D01*
X45171Y126289D01*
X45216Y126395D01*
X45704Y126334D01*
Y126328D01*
X45698Y126317D01*
X45693Y126295D01*
X45682Y126261D01*
X45665Y126228D01*
X45649Y126184D01*
X45604Y126090D01*
X45549Y125984D01*
X45471Y125873D01*
X45382Y125768D01*
X45271Y125668D01*
X45266D01*
X45254Y125656D01*
X45238Y125645D01*
X45216Y125629D01*
X45182Y125612D01*
X45149Y125595D01*
X45105Y125573D01*
X45055Y125551D01*
X44999Y125529D01*
X44944Y125507D01*
X44805Y125473D01*
X44649Y125446D01*
X44477Y125435D01*
X44416D01*
X44378Y125440D01*
X44328Y125446D01*
X44267Y125457D01*
X44200Y125468D01*
X44128Y125479D01*
X43972Y125523D01*
X43889Y125557D01*
X43812Y125590D01*
X43728Y125634D01*
X43650Y125684D01*
X43578Y125740D01*
X43506Y125806D01*
X43501Y125812D01*
X43490Y125823D01*
X43473Y125845D01*
X43451Y125879D01*
X43423Y125917D01*
X43395Y125962D01*
X43362Y126017D01*
X43329Y126078D01*
X43295Y126151D01*
X43262Y126228D01*
X43234Y126317D01*
X43207Y126411D01*
X43184Y126511D01*
X43168Y126622D01*
X43157Y126739D01*
X43151Y126861D01*
Y126866D01*
Y126894D01*
Y126927D01*
X43157Y126977D01*
X43162Y127039D01*
X43168Y127105D01*
X43179Y127183D01*
X43195Y127260D01*
X43240Y127438D01*
X43268Y127527D01*
X43301Y127621D01*
X43345Y127710D01*
X43395Y127793D01*
X43451Y127876D01*
X43512Y127954D01*
X43517Y127960D01*
X43528Y127971D01*
X43551Y127988D01*
X43578Y128015D01*
X43612Y128043D01*
X43656Y128076D01*
X43706Y128115D01*
X43767Y128148D01*
X43828Y128187D01*
X43900Y128221D01*
X43978Y128254D01*
X44061Y128282D01*
X44150Y128309D01*
X44244Y128326D01*
X44344Y128337D01*
X44450Y128343D01*
X44505D01*
X44544Y128337D01*
D02*
G37*
G36*
X36191Y129347D02*
X36263Y129336D01*
X36347Y129320D01*
X36435Y129297D01*
X36530Y129270D01*
X36619Y129225D01*
X36624D01*
X36630Y129220D01*
X36658Y129203D01*
X36702Y129175D01*
X36757Y129136D01*
X36819Y129081D01*
X36885Y129020D01*
X36946Y128948D01*
X37007Y128865D01*
X37013Y128853D01*
X37035Y128826D01*
X37057Y128776D01*
X37096Y128703D01*
X37129Y128620D01*
X37174Y128526D01*
X37212Y128415D01*
X37246Y128293D01*
Y128287D01*
X37251Y128276D01*
X37257Y128260D01*
X37262Y128232D01*
X37268Y128199D01*
X37274Y128160D01*
X37285Y128110D01*
X37290Y128054D01*
X37301Y127993D01*
X37307Y127927D01*
X37312Y127849D01*
X37323Y127771D01*
X37329Y127682D01*
Y127594D01*
X37335Y127494D01*
Y127388D01*
Y127383D01*
Y127360D01*
Y127322D01*
Y127277D01*
X37329Y127216D01*
Y127149D01*
X37323Y127077D01*
X37318Y127000D01*
X37301Y126822D01*
X37274Y126639D01*
X37240Y126461D01*
X37218Y126378D01*
X37190Y126295D01*
Y126289D01*
X37185Y126278D01*
X37174Y126256D01*
X37163Y126228D01*
X37152Y126189D01*
X37129Y126151D01*
X37085Y126056D01*
X37029Y125956D01*
X36957Y125845D01*
X36874Y125745D01*
X36774Y125651D01*
X36768D01*
X36763Y125640D01*
X36746Y125629D01*
X36724Y125618D01*
X36696Y125601D01*
X36669Y125579D01*
X36585Y125540D01*
X36485Y125501D01*
X36369Y125462D01*
X36230Y125440D01*
X36080Y125429D01*
X36025D01*
X35986Y125435D01*
X35942Y125440D01*
X35886Y125451D01*
X35825Y125462D01*
X35758Y125479D01*
X35692Y125501D01*
X35620Y125523D01*
X35548Y125557D01*
X35475Y125595D01*
X35403Y125640D01*
X35331Y125695D01*
X35265Y125756D01*
X35203Y125823D01*
X35198Y125829D01*
X35187Y125845D01*
X35170Y125873D01*
X35142Y125917D01*
X35115Y125967D01*
X35087Y126034D01*
X35048Y126112D01*
X35015Y126200D01*
X34981Y126300D01*
X34948Y126417D01*
X34915Y126545D01*
X34887Y126689D01*
X34859Y126844D01*
X34843Y127011D01*
X34832Y127194D01*
X34826Y127388D01*
Y127394D01*
Y127416D01*
Y127455D01*
Y127499D01*
X34832Y127560D01*
Y127627D01*
X34837Y127699D01*
X34843Y127782D01*
X34859Y127954D01*
X34887Y128137D01*
X34920Y128321D01*
X34943Y128404D01*
X34965Y128487D01*
Y128493D01*
X34970Y128504D01*
X34981Y128526D01*
X34993Y128554D01*
X35004Y128593D01*
X35026Y128631D01*
X35070Y128726D01*
X35126Y128826D01*
X35198Y128931D01*
X35281Y129036D01*
X35381Y129125D01*
X35387D01*
X35392Y129136D01*
X35409Y129148D01*
X35431Y129159D01*
X35459Y129181D01*
X35492Y129198D01*
X35575Y129242D01*
X35675Y129281D01*
X35792Y129320D01*
X35930Y129342D01*
X36080Y129353D01*
X36130D01*
X36191Y129347D01*
D02*
G37*
G36*
X47402Y128337D02*
X47441Y128332D01*
X47491Y128321D01*
X47547Y128309D01*
X47608Y128293D01*
X47669Y128271D01*
X47735Y128243D01*
X47802Y128209D01*
X47874Y128171D01*
X47941Y128126D01*
X48007Y128071D01*
X48074Y128010D01*
X48135Y127938D01*
Y128282D01*
X48568D01*
Y125873D01*
Y125867D01*
Y125845D01*
Y125812D01*
Y125768D01*
X48562Y125718D01*
Y125656D01*
X48557Y125590D01*
X48551Y125518D01*
X48535Y125368D01*
X48512Y125213D01*
X48496Y125140D01*
X48479Y125074D01*
X48457Y125013D01*
X48435Y124957D01*
Y124952D01*
X48429Y124946D01*
X48407Y124913D01*
X48379Y124863D01*
X48335Y124802D01*
X48274Y124735D01*
X48202Y124663D01*
X48113Y124591D01*
X48013Y124530D01*
X48007D01*
X48002Y124524D01*
X47985Y124513D01*
X47963Y124508D01*
X47935Y124491D01*
X47902Y124480D01*
X47819Y124452D01*
X47719Y124419D01*
X47597Y124397D01*
X47458Y124374D01*
X47308Y124369D01*
X47258D01*
X47225Y124374D01*
X47180D01*
X47136Y124380D01*
X47080Y124386D01*
X47019Y124397D01*
X46892Y124425D01*
X46758Y124463D01*
X46625Y124519D01*
X46503Y124597D01*
X46498Y124602D01*
X46492Y124608D01*
X46453Y124641D01*
X46409Y124691D01*
X46353Y124763D01*
X46298Y124857D01*
X46248Y124974D01*
X46231Y125040D01*
X46220Y125113D01*
X46209Y125185D01*
Y125268D01*
X46670Y125207D01*
Y125196D01*
X46675Y125174D01*
X46686Y125135D01*
X46698Y125085D01*
X46720Y125035D01*
X46747Y124985D01*
X46781Y124935D01*
X46825Y124896D01*
X46836Y124891D01*
X46858Y124874D01*
X46897Y124852D01*
X46953Y124830D01*
X47019Y124802D01*
X47103Y124780D01*
X47203Y124763D01*
X47308Y124757D01*
X47363D01*
X47419Y124763D01*
X47497Y124774D01*
X47574Y124791D01*
X47658Y124813D01*
X47741Y124846D01*
X47813Y124891D01*
X47819Y124896D01*
X47841Y124913D01*
X47874Y124946D01*
X47913Y124985D01*
X47952Y125040D01*
X47991Y125101D01*
X48030Y125174D01*
X48057Y125257D01*
Y125262D01*
X48063Y125285D01*
X48068Y125329D01*
X48074Y125385D01*
X48079Y125424D01*
Y125468D01*
X48085Y125518D01*
Y125573D01*
Y125634D01*
X48090Y125707D01*
Y125779D01*
Y125862D01*
X48085Y125856D01*
X48074Y125845D01*
X48057Y125829D01*
X48035Y125806D01*
X48007Y125779D01*
X47968Y125745D01*
X47924Y125712D01*
X47880Y125679D01*
X47763Y125612D01*
X47635Y125551D01*
X47563Y125529D01*
X47486Y125512D01*
X47402Y125501D01*
X47319Y125496D01*
X47291D01*
X47264Y125501D01*
X47225D01*
X47175Y125507D01*
X47119Y125518D01*
X47058Y125529D01*
X46992Y125546D01*
X46920Y125568D01*
X46847Y125595D01*
X46775Y125629D01*
X46698Y125668D01*
X46625Y125718D01*
X46553Y125773D01*
X46487Y125834D01*
X46426Y125906D01*
X46420Y125912D01*
X46414Y125923D01*
X46398Y125951D01*
X46376Y125978D01*
X46353Y126023D01*
X46326Y126067D01*
X46298Y126123D01*
X46270Y126189D01*
X46242Y126256D01*
X46215Y126334D01*
X46187Y126411D01*
X46165Y126500D01*
X46126Y126689D01*
X46120Y126794D01*
X46115Y126900D01*
Y126905D01*
Y126916D01*
Y126939D01*
Y126966D01*
X46120Y127005D01*
Y127044D01*
X46131Y127144D01*
X46148Y127255D01*
X46176Y127377D01*
X46209Y127505D01*
X46259Y127632D01*
Y127638D01*
X46265Y127649D01*
X46276Y127666D01*
X46287Y127688D01*
X46320Y127749D01*
X46365Y127827D01*
X46426Y127910D01*
X46498Y127993D01*
X46581Y128082D01*
X46675Y128154D01*
X46681D01*
X46686Y128160D01*
X46703Y128171D01*
X46725Y128182D01*
X46781Y128215D01*
X46858Y128248D01*
X46953Y128282D01*
X47064Y128315D01*
X47186Y128337D01*
X47319Y128343D01*
X47369D01*
X47402Y128337D01*
D02*
G37*
G36*
X89644Y46847D02*
X89716Y46836D01*
X89805Y46819D01*
X89905Y46792D01*
X90005Y46758D01*
X90105Y46714D01*
X90110D01*
X90116Y46709D01*
X90149Y46692D01*
X90199Y46659D01*
X90255Y46620D01*
X90321Y46564D01*
X90388Y46503D01*
X90455Y46431D01*
X90510Y46348D01*
X90516Y46337D01*
X90532Y46309D01*
X90554Y46259D01*
X90582Y46198D01*
X90610Y46126D01*
X90632Y46042D01*
X90649Y45948D01*
X90654Y45854D01*
Y45843D01*
Y45809D01*
X90649Y45765D01*
X90638Y45704D01*
X90621Y45632D01*
X90593Y45554D01*
X90560Y45476D01*
X90516Y45399D01*
X90510Y45388D01*
X90493Y45365D01*
X90460Y45327D01*
X90416Y45282D01*
X90360Y45232D01*
X90294Y45177D01*
X90216Y45127D01*
X90122Y45077D01*
X90127D01*
X90138Y45071D01*
X90155Y45066D01*
X90177Y45060D01*
X90238Y45038D01*
X90316Y45005D01*
X90404Y44960D01*
X90493Y44905D01*
X90577Y44833D01*
X90654Y44749D01*
X90660Y44738D01*
X90682Y44705D01*
X90715Y44649D01*
X90749Y44577D01*
X90782Y44488D01*
X90815Y44383D01*
X90837Y44261D01*
X90843Y44128D01*
Y44122D01*
Y44106D01*
Y44078D01*
X90837Y44045D01*
X90832Y44000D01*
X90821Y43950D01*
X90810Y43895D01*
X90799Y43834D01*
X90754Y43701D01*
X90721Y43628D01*
X90688Y43562D01*
X90643Y43490D01*
X90593Y43417D01*
X90538Y43345D01*
X90471Y43279D01*
X90466Y43273D01*
X90455Y43262D01*
X90432Y43245D01*
X90404Y43223D01*
X90371Y43195D01*
X90327Y43168D01*
X90277Y43134D01*
X90216Y43107D01*
X90155Y43073D01*
X90083Y43040D01*
X90010Y43012D01*
X89927Y42985D01*
X89838Y42962D01*
X89744Y42946D01*
X89650Y42935D01*
X89544Y42929D01*
X89494D01*
X89461Y42935D01*
X89417Y42940D01*
X89367Y42946D01*
X89311Y42957D01*
X89250Y42968D01*
X89117Y43001D01*
X88978Y43057D01*
X88906Y43090D01*
X88839Y43129D01*
X88773Y43179D01*
X88706Y43229D01*
X88701Y43234D01*
X88690Y43245D01*
X88673Y43262D01*
X88656Y43284D01*
X88629Y43312D01*
X88601Y43351D01*
X88568Y43390D01*
X88534Y43440D01*
X88501Y43495D01*
X88468Y43551D01*
X88406Y43684D01*
X88357Y43839D01*
X88340Y43922D01*
X88329Y44011D01*
X88801Y44072D01*
Y44067D01*
X88806Y44056D01*
X88812Y44033D01*
X88817Y44006D01*
X88823Y43972D01*
X88834Y43934D01*
X88862Y43850D01*
X88901Y43750D01*
X88950Y43656D01*
X89006Y43567D01*
X89073Y43490D01*
X89084Y43484D01*
X89106Y43462D01*
X89150Y43434D01*
X89206Y43406D01*
X89272Y43373D01*
X89356Y43345D01*
X89450Y43323D01*
X89550Y43317D01*
X89583D01*
X89605Y43323D01*
X89666Y43329D01*
X89744Y43345D01*
X89833Y43373D01*
X89927Y43412D01*
X90022Y43467D01*
X90110Y43545D01*
X90122Y43556D01*
X90149Y43589D01*
X90183Y43639D01*
X90227Y43706D01*
X90271Y43789D01*
X90305Y43884D01*
X90332Y43995D01*
X90343Y44117D01*
Y44122D01*
Y44133D01*
Y44150D01*
X90338Y44172D01*
X90332Y44233D01*
X90316Y44305D01*
X90294Y44394D01*
X90255Y44483D01*
X90199Y44572D01*
X90127Y44655D01*
X90116Y44666D01*
X90088Y44688D01*
X90044Y44722D01*
X89983Y44761D01*
X89905Y44799D01*
X89811Y44833D01*
X89705Y44855D01*
X89589Y44866D01*
X89539D01*
X89500Y44860D01*
X89450Y44855D01*
X89394Y44844D01*
X89328Y44833D01*
X89256Y44816D01*
X89311Y45232D01*
X89339D01*
X89361Y45227D01*
X89433D01*
X89494Y45238D01*
X89566Y45249D01*
X89650Y45266D01*
X89744Y45293D01*
X89833Y45332D01*
X89927Y45382D01*
X89933D01*
X89938Y45388D01*
X89966Y45410D01*
X90005Y45449D01*
X90049Y45499D01*
X90094Y45571D01*
X90133Y45654D01*
X90160Y45748D01*
X90171Y45804D01*
Y45865D01*
Y45871D01*
Y45876D01*
Y45909D01*
X90160Y45954D01*
X90149Y46015D01*
X90127Y46081D01*
X90099Y46154D01*
X90055Y46226D01*
X89994Y46292D01*
X89988Y46298D01*
X89960Y46320D01*
X89922Y46348D01*
X89872Y46381D01*
X89805Y46409D01*
X89727Y46437D01*
X89639Y46459D01*
X89539Y46464D01*
X89494D01*
X89444Y46453D01*
X89378Y46442D01*
X89306Y46420D01*
X89233Y46392D01*
X89156Y46348D01*
X89084Y46292D01*
X89078Y46287D01*
X89056Y46259D01*
X89023Y46220D01*
X88984Y46165D01*
X88945Y46093D01*
X88906Y46004D01*
X88873Y45898D01*
X88850Y45776D01*
X88379Y45859D01*
Y45865D01*
X88384Y45882D01*
X88390Y45904D01*
X88395Y45937D01*
X88406Y45976D01*
X88423Y46020D01*
X88456Y46126D01*
X88512Y46248D01*
X88579Y46370D01*
X88662Y46486D01*
X88767Y46592D01*
X88773Y46598D01*
X88784Y46603D01*
X88801Y46614D01*
X88823Y46631D01*
X88850Y46653D01*
X88889Y46675D01*
X88928Y46697D01*
X88978Y46725D01*
X89089Y46770D01*
X89217Y46814D01*
X89367Y46842D01*
X89444Y46853D01*
X89583D01*
X89644Y46847D01*
D02*
G37*
G36*
X83972D02*
X84044Y46836D01*
X84133Y46819D01*
X84233Y46792D01*
X84333Y46758D01*
X84433Y46714D01*
X84438D01*
X84444Y46709D01*
X84477Y46692D01*
X84527Y46659D01*
X84583Y46620D01*
X84649Y46564D01*
X84716Y46503D01*
X84782Y46431D01*
X84838Y46348D01*
X84843Y46337D01*
X84860Y46309D01*
X84882Y46259D01*
X84910Y46198D01*
X84938Y46126D01*
X84960Y46042D01*
X84977Y45948D01*
X84982Y45854D01*
Y45843D01*
Y45809D01*
X84977Y45765D01*
X84965Y45704D01*
X84949Y45632D01*
X84921Y45554D01*
X84888Y45476D01*
X84843Y45399D01*
X84838Y45388D01*
X84821Y45365D01*
X84788Y45327D01*
X84743Y45282D01*
X84688Y45232D01*
X84621Y45177D01*
X84544Y45127D01*
X84449Y45077D01*
X84455D01*
X84466Y45071D01*
X84483Y45066D01*
X84505Y45060D01*
X84566Y45038D01*
X84644Y45005D01*
X84732Y44960D01*
X84821Y44905D01*
X84904Y44833D01*
X84982Y44749D01*
X84988Y44738D01*
X85010Y44705D01*
X85043Y44649D01*
X85076Y44577D01*
X85110Y44488D01*
X85143Y44383D01*
X85165Y44261D01*
X85171Y44128D01*
Y44122D01*
Y44106D01*
Y44078D01*
X85165Y44045D01*
X85160Y44000D01*
X85149Y43950D01*
X85138Y43895D01*
X85127Y43834D01*
X85082Y43701D01*
X85049Y43628D01*
X85015Y43562D01*
X84971Y43490D01*
X84921Y43417D01*
X84866Y43345D01*
X84799Y43279D01*
X84794Y43273D01*
X84782Y43262D01*
X84760Y43245D01*
X84732Y43223D01*
X84699Y43195D01*
X84655Y43168D01*
X84605Y43134D01*
X84544Y43107D01*
X84483Y43073D01*
X84411Y43040D01*
X84338Y43012D01*
X84255Y42985D01*
X84166Y42962D01*
X84072Y42946D01*
X83978Y42935D01*
X83872Y42929D01*
X83822D01*
X83789Y42935D01*
X83745Y42940D01*
X83695Y42946D01*
X83639Y42957D01*
X83578Y42968D01*
X83445Y43001D01*
X83306Y43057D01*
X83234Y43090D01*
X83167Y43129D01*
X83101Y43179D01*
X83034Y43229D01*
X83029Y43234D01*
X83017Y43245D01*
X83001Y43262D01*
X82984Y43284D01*
X82956Y43312D01*
X82929Y43351D01*
X82895Y43390D01*
X82862Y43440D01*
X82829Y43495D01*
X82796Y43551D01*
X82734Y43684D01*
X82684Y43839D01*
X82668Y43922D01*
X82657Y44011D01*
X83128Y44072D01*
Y44067D01*
X83134Y44056D01*
X83140Y44033D01*
X83145Y44006D01*
X83151Y43972D01*
X83162Y43934D01*
X83189Y43850D01*
X83228Y43750D01*
X83278Y43656D01*
X83334Y43567D01*
X83400Y43490D01*
X83412Y43484D01*
X83434Y43462D01*
X83478Y43434D01*
X83534Y43406D01*
X83600Y43373D01*
X83684Y43345D01*
X83778Y43323D01*
X83878Y43317D01*
X83911D01*
X83933Y43323D01*
X83994Y43329D01*
X84072Y43345D01*
X84161Y43373D01*
X84255Y43412D01*
X84350Y43467D01*
X84438Y43545D01*
X84449Y43556D01*
X84477Y43589D01*
X84510Y43639D01*
X84555Y43706D01*
X84599Y43789D01*
X84632Y43884D01*
X84660Y43995D01*
X84671Y44117D01*
Y44122D01*
Y44133D01*
Y44150D01*
X84666Y44172D01*
X84660Y44233D01*
X84644Y44305D01*
X84621Y44394D01*
X84583Y44483D01*
X84527Y44572D01*
X84455Y44655D01*
X84444Y44666D01*
X84416Y44688D01*
X84372Y44722D01*
X84311Y44761D01*
X84233Y44799D01*
X84139Y44833D01*
X84033Y44855D01*
X83917Y44866D01*
X83867D01*
X83828Y44860D01*
X83778Y44855D01*
X83722Y44844D01*
X83656Y44833D01*
X83584Y44816D01*
X83639Y45232D01*
X83667D01*
X83689Y45227D01*
X83761D01*
X83822Y45238D01*
X83894Y45249D01*
X83978Y45266D01*
X84072Y45293D01*
X84161Y45332D01*
X84255Y45382D01*
X84261D01*
X84266Y45388D01*
X84294Y45410D01*
X84333Y45449D01*
X84377Y45499D01*
X84422Y45571D01*
X84461Y45654D01*
X84488Y45748D01*
X84499Y45804D01*
Y45865D01*
Y45871D01*
Y45876D01*
Y45909D01*
X84488Y45954D01*
X84477Y46015D01*
X84455Y46081D01*
X84427Y46154D01*
X84383Y46226D01*
X84322Y46292D01*
X84316Y46298D01*
X84288Y46320D01*
X84250Y46348D01*
X84200Y46381D01*
X84133Y46409D01*
X84055Y46437D01*
X83966Y46459D01*
X83867Y46464D01*
X83822D01*
X83772Y46453D01*
X83706Y46442D01*
X83634Y46420D01*
X83561Y46392D01*
X83484Y46348D01*
X83412Y46292D01*
X83406Y46287D01*
X83384Y46259D01*
X83350Y46220D01*
X83312Y46165D01*
X83273Y46093D01*
X83234Y46004D01*
X83201Y45898D01*
X83178Y45776D01*
X82707Y45859D01*
Y45865D01*
X82712Y45882D01*
X82718Y45904D01*
X82723Y45937D01*
X82734Y45976D01*
X82751Y46020D01*
X82784Y46126D01*
X82840Y46248D01*
X82907Y46370D01*
X82990Y46486D01*
X83095Y46592D01*
X83101Y46598D01*
X83112Y46603D01*
X83128Y46614D01*
X83151Y46631D01*
X83178Y46653D01*
X83217Y46675D01*
X83256Y46697D01*
X83306Y46725D01*
X83417Y46770D01*
X83545Y46814D01*
X83695Y46842D01*
X83772Y46853D01*
X83911D01*
X83972Y46847D01*
D02*
G37*
G36*
X86975Y42996D02*
X86525D01*
X85476Y45782D01*
X85976D01*
X86575Y44111D01*
Y44106D01*
X86581Y44100D01*
X86586Y44083D01*
X86592Y44067D01*
X86608Y44011D01*
X86630Y43939D01*
X86658Y43856D01*
X86692Y43762D01*
X86719Y43656D01*
X86753Y43551D01*
X86758Y43562D01*
X86764Y43589D01*
X86780Y43634D01*
X86797Y43701D01*
X86825Y43773D01*
X86853Y43867D01*
X86891Y43967D01*
X86930Y44078D01*
X87546Y45782D01*
X88035D01*
X86975Y42996D01*
D02*
G37*
G36*
X94828Y46831D02*
X94878D01*
X94994Y46825D01*
X95117Y46808D01*
X95250Y46792D01*
X95372Y46764D01*
X95433Y46747D01*
X95483Y46731D01*
X95488D01*
X95494Y46725D01*
X95527Y46709D01*
X95577Y46686D01*
X95638Y46648D01*
X95705Y46598D01*
X95777Y46531D01*
X95843Y46453D01*
X95910Y46364D01*
Y46359D01*
X95916Y46353D01*
X95938Y46320D01*
X95960Y46265D01*
X95993Y46192D01*
X96021Y46109D01*
X96049Y46009D01*
X96065Y45904D01*
X96071Y45787D01*
Y45782D01*
Y45771D01*
Y45748D01*
X96065Y45721D01*
Y45682D01*
X96060Y45643D01*
X96038Y45549D01*
X96004Y45438D01*
X95960Y45321D01*
X95894Y45204D01*
X95849Y45149D01*
X95805Y45094D01*
X95799Y45088D01*
X95794Y45082D01*
X95777Y45066D01*
X95755Y45049D01*
X95727Y45027D01*
X95694Y45005D01*
X95649Y44977D01*
X95605Y44944D01*
X95549Y44916D01*
X95488Y44888D01*
X95422Y44855D01*
X95350Y44827D01*
X95266Y44805D01*
X95183Y44777D01*
X95089Y44761D01*
X94989Y44744D01*
X95000Y44738D01*
X95022Y44727D01*
X95055Y44705D01*
X95100Y44683D01*
X95200Y44622D01*
X95250Y44583D01*
X95294Y44550D01*
X95305Y44539D01*
X95333Y44511D01*
X95377Y44466D01*
X95433Y44411D01*
X95494Y44333D01*
X95566Y44250D01*
X95638Y44150D01*
X95716Y44039D01*
X96376Y42996D01*
X95744D01*
X95239Y43795D01*
Y43800D01*
X95227Y43812D01*
X95216Y43828D01*
X95200Y43850D01*
X95161Y43911D01*
X95111Y43989D01*
X95050Y44072D01*
X94989Y44161D01*
X94928Y44244D01*
X94872Y44322D01*
X94867Y44328D01*
X94850Y44350D01*
X94822Y44383D01*
X94784Y44422D01*
X94700Y44505D01*
X94656Y44544D01*
X94611Y44577D01*
X94606Y44583D01*
X94595Y44589D01*
X94573Y44600D01*
X94539Y44616D01*
X94506Y44633D01*
X94467Y44649D01*
X94378Y44677D01*
X94373D01*
X94362Y44683D01*
X94340D01*
X94312Y44688D01*
X94273Y44694D01*
X94229D01*
X94167Y44699D01*
X93512D01*
Y42996D01*
X93002D01*
Y46836D01*
X94784D01*
X94828Y46831D01*
D02*
G37*
G36*
X98041Y45837D02*
X98086Y45832D01*
X98141Y45821D01*
X98202Y45809D01*
X98274Y45793D01*
X98341Y45776D01*
X98419Y45748D01*
X98491Y45721D01*
X98569Y45682D01*
X98646Y45637D01*
X98724Y45588D01*
X98796Y45526D01*
X98863Y45460D01*
X98868Y45454D01*
X98879Y45443D01*
X98896Y45421D01*
X98918Y45388D01*
X98946Y45349D01*
X98974Y45304D01*
X99007Y45249D01*
X99040Y45182D01*
X99074Y45110D01*
X99107Y45033D01*
X99135Y44944D01*
X99162Y44849D01*
X99185Y44744D01*
X99201Y44633D01*
X99212Y44516D01*
X99218Y44389D01*
Y44383D01*
Y44361D01*
Y44322D01*
X99212Y44267D01*
X97131D01*
Y44261D01*
Y44244D01*
X97137Y44222D01*
Y44189D01*
X97142Y44150D01*
X97153Y44106D01*
X97170Y44006D01*
X97203Y43895D01*
X97248Y43773D01*
X97309Y43662D01*
X97386Y43562D01*
X97392D01*
X97398Y43551D01*
X97431Y43523D01*
X97481Y43484D01*
X97547Y43445D01*
X97636Y43401D01*
X97736Y43362D01*
X97847Y43334D01*
X97908Y43329D01*
X97975Y43323D01*
X98019D01*
X98069Y43329D01*
X98130Y43340D01*
X98197Y43356D01*
X98274Y43379D01*
X98347Y43412D01*
X98419Y43456D01*
X98424Y43462D01*
X98452Y43484D01*
X98485Y43517D01*
X98524Y43562D01*
X98569Y43623D01*
X98619Y43701D01*
X98668Y43789D01*
X98713Y43895D01*
X99201Y43834D01*
Y43828D01*
X99196Y43817D01*
X99190Y43795D01*
X99179Y43762D01*
X99162Y43728D01*
X99146Y43684D01*
X99101Y43589D01*
X99046Y43484D01*
X98968Y43373D01*
X98879Y43268D01*
X98768Y43168D01*
X98763D01*
X98752Y43156D01*
X98735Y43145D01*
X98713Y43129D01*
X98680Y43112D01*
X98646Y43095D01*
X98602Y43073D01*
X98552Y43051D01*
X98496Y43029D01*
X98441Y43007D01*
X98302Y42973D01*
X98147Y42946D01*
X97975Y42935D01*
X97914D01*
X97875Y42940D01*
X97825Y42946D01*
X97764Y42957D01*
X97697Y42968D01*
X97625Y42979D01*
X97470Y43023D01*
X97386Y43057D01*
X97309Y43090D01*
X97225Y43134D01*
X97148Y43184D01*
X97076Y43240D01*
X97004Y43306D01*
X96998Y43312D01*
X96987Y43323D01*
X96970Y43345D01*
X96948Y43379D01*
X96920Y43417D01*
X96892Y43462D01*
X96859Y43517D01*
X96826Y43578D01*
X96793Y43650D01*
X96759Y43728D01*
X96732Y43817D01*
X96704Y43911D01*
X96682Y44011D01*
X96665Y44122D01*
X96654Y44239D01*
X96648Y44361D01*
Y44366D01*
Y44394D01*
Y44427D01*
X96654Y44477D01*
X96659Y44539D01*
X96665Y44605D01*
X96676Y44683D01*
X96693Y44761D01*
X96737Y44938D01*
X96765Y45027D01*
X96798Y45121D01*
X96842Y45210D01*
X96892Y45293D01*
X96948Y45377D01*
X97009Y45454D01*
X97015Y45460D01*
X97026Y45471D01*
X97048Y45487D01*
X97076Y45515D01*
X97109Y45543D01*
X97153Y45576D01*
X97203Y45615D01*
X97264Y45649D01*
X97325Y45687D01*
X97398Y45721D01*
X97475Y45754D01*
X97558Y45782D01*
X97647Y45809D01*
X97742Y45826D01*
X97842Y45837D01*
X97947Y45843D01*
X98002D01*
X98041Y45837D01*
D02*
G37*
G36*
X100900D02*
X100938Y45832D01*
X100988Y45821D01*
X101044Y45809D01*
X101105Y45793D01*
X101166Y45771D01*
X101233Y45743D01*
X101299Y45710D01*
X101371Y45671D01*
X101438Y45626D01*
X101505Y45571D01*
X101571Y45510D01*
X101632Y45438D01*
Y45782D01*
X102065D01*
Y43373D01*
Y43367D01*
Y43345D01*
Y43312D01*
Y43268D01*
X102059Y43218D01*
Y43156D01*
X102054Y43090D01*
X102048Y43018D01*
X102032Y42868D01*
X102010Y42713D01*
X101993Y42640D01*
X101976Y42574D01*
X101954Y42513D01*
X101932Y42457D01*
Y42452D01*
X101926Y42446D01*
X101904Y42413D01*
X101876Y42363D01*
X101832Y42302D01*
X101771Y42235D01*
X101699Y42163D01*
X101610Y42091D01*
X101510Y42030D01*
X101505D01*
X101499Y42024D01*
X101482Y42013D01*
X101460Y42008D01*
X101432Y41991D01*
X101399Y41980D01*
X101316Y41952D01*
X101216Y41919D01*
X101094Y41897D01*
X100955Y41875D01*
X100805Y41869D01*
X100755D01*
X100722Y41875D01*
X100678D01*
X100633Y41880D01*
X100578Y41886D01*
X100517Y41897D01*
X100389Y41925D01*
X100256Y41963D01*
X100123Y42019D01*
X100001Y42096D01*
X99995Y42102D01*
X99989Y42108D01*
X99950Y42141D01*
X99906Y42191D01*
X99851Y42263D01*
X99795Y42357D01*
X99745Y42474D01*
X99729Y42540D01*
X99717Y42613D01*
X99706Y42685D01*
Y42768D01*
X100167Y42707D01*
Y42696D01*
X100172Y42674D01*
X100184Y42635D01*
X100195Y42585D01*
X100217Y42535D01*
X100245Y42485D01*
X100278Y42435D01*
X100322Y42396D01*
X100333Y42391D01*
X100356Y42374D01*
X100394Y42352D01*
X100450Y42330D01*
X100517Y42302D01*
X100600Y42280D01*
X100700Y42263D01*
X100805Y42257D01*
X100861D01*
X100916Y42263D01*
X100994Y42274D01*
X101072Y42291D01*
X101155Y42313D01*
X101238Y42346D01*
X101310Y42391D01*
X101316Y42396D01*
X101338Y42413D01*
X101371Y42446D01*
X101410Y42485D01*
X101449Y42540D01*
X101488Y42601D01*
X101527Y42674D01*
X101555Y42757D01*
Y42763D01*
X101560Y42785D01*
X101566Y42829D01*
X101571Y42885D01*
X101577Y42924D01*
Y42968D01*
X101582Y43018D01*
Y43073D01*
Y43134D01*
X101588Y43207D01*
Y43279D01*
Y43362D01*
X101582Y43356D01*
X101571Y43345D01*
X101555Y43329D01*
X101532Y43306D01*
X101505Y43279D01*
X101466Y43245D01*
X101421Y43212D01*
X101377Y43179D01*
X101260Y43112D01*
X101133Y43051D01*
X101060Y43029D01*
X100983Y43012D01*
X100900Y43001D01*
X100816Y42996D01*
X100789D01*
X100761Y43001D01*
X100722D01*
X100672Y43007D01*
X100617Y43018D01*
X100556Y43029D01*
X100489Y43045D01*
X100417Y43068D01*
X100345Y43095D01*
X100272Y43129D01*
X100195Y43168D01*
X100123Y43218D01*
X100050Y43273D01*
X99984Y43334D01*
X99923Y43406D01*
X99917Y43412D01*
X99912Y43423D01*
X99895Y43451D01*
X99873Y43478D01*
X99851Y43523D01*
X99823Y43567D01*
X99795Y43623D01*
X99767Y43689D01*
X99740Y43756D01*
X99712Y43834D01*
X99684Y43911D01*
X99662Y44000D01*
X99623Y44189D01*
X99617Y44294D01*
X99612Y44400D01*
Y44405D01*
Y44416D01*
Y44439D01*
Y44466D01*
X99617Y44505D01*
Y44544D01*
X99629Y44644D01*
X99645Y44755D01*
X99673Y44877D01*
X99706Y45005D01*
X99756Y45132D01*
Y45138D01*
X99762Y45149D01*
X99773Y45166D01*
X99784Y45188D01*
X99817Y45249D01*
X99862Y45327D01*
X99923Y45410D01*
X99995Y45493D01*
X100078Y45582D01*
X100172Y45654D01*
X100178D01*
X100184Y45660D01*
X100200Y45671D01*
X100223Y45682D01*
X100278Y45715D01*
X100356Y45748D01*
X100450Y45782D01*
X100561Y45815D01*
X100683Y45837D01*
X100816Y45843D01*
X100866D01*
X100900Y45837D01*
D02*
G37*
%LPC*%
G36*
X74791Y219135D02*
X74783D01*
X74769D01*
X74740D01*
X74705Y219128D01*
X74662D01*
X74611Y219121D01*
X74497Y219099D01*
X74368Y219070D01*
X74231Y219020D01*
X74102Y218949D01*
X73980Y218855D01*
X73966Y218841D01*
X73930Y218805D01*
X73887Y218748D01*
X73830Y218669D01*
X73773Y218568D01*
X73729Y218454D01*
X73694Y218318D01*
X73679Y218167D01*
Y218124D01*
X73686Y218095D01*
X73694Y218024D01*
X73715Y217923D01*
X73751Y217816D01*
X73808Y217694D01*
X73880Y217579D01*
X73980Y217464D01*
X73995Y217450D01*
X74031Y217421D01*
X74095Y217371D01*
X74188Y217321D01*
X74296Y217271D01*
X74432Y217221D01*
X74583Y217192D01*
X74755Y217178D01*
X74769D01*
X74805D01*
X74870Y217185D01*
X74948Y217192D01*
X75042Y217206D01*
X75142Y217235D01*
X75249Y217264D01*
X75357Y217307D01*
X75371Y217314D01*
X75407Y217335D01*
X75458Y217364D01*
X75522Y217407D01*
X75586Y217457D01*
X75665Y217522D01*
X75730Y217593D01*
X75795Y217680D01*
X75802Y217694D01*
X75816Y217723D01*
X75845Y217773D01*
X75866Y217837D01*
X75895Y217909D01*
X75924Y217995D01*
X75938Y218088D01*
X75945Y218189D01*
Y218224D01*
X75938Y218253D01*
X75931Y218325D01*
X75909Y218418D01*
X75866Y218518D01*
X75816Y218633D01*
X75737Y218748D01*
X75694Y218805D01*
X75637Y218855D01*
X75630D01*
X75622Y218870D01*
X75579Y218898D01*
X75508Y218941D01*
X75414Y218999D01*
X75293Y219049D01*
X75149Y219092D01*
X74984Y219121D01*
X74791Y219135D01*
D02*
G37*
G36*
X192291D02*
X192283D01*
X192269D01*
X192241D01*
X192205Y219128D01*
X192162D01*
X192111Y219121D01*
X191997Y219099D01*
X191868Y219070D01*
X191731Y219020D01*
X191602Y218949D01*
X191480Y218855D01*
X191466Y218841D01*
X191430Y218805D01*
X191387Y218748D01*
X191330Y218669D01*
X191272Y218568D01*
X191229Y218454D01*
X191194Y218318D01*
X191179Y218167D01*
Y218124D01*
X191186Y218095D01*
X191194Y218024D01*
X191215Y217923D01*
X191251Y217816D01*
X191308Y217694D01*
X191380Y217579D01*
X191480Y217464D01*
X191495Y217450D01*
X191531Y217421D01*
X191595Y217371D01*
X191688Y217321D01*
X191796Y217271D01*
X191932Y217221D01*
X192083Y217192D01*
X192255Y217178D01*
X192269D01*
X192305D01*
X192369Y217185D01*
X192448Y217192D01*
X192542Y217206D01*
X192642Y217235D01*
X192750Y217264D01*
X192857Y217307D01*
X192871Y217314D01*
X192907Y217335D01*
X192957Y217364D01*
X193022Y217407D01*
X193087Y217457D01*
X193165Y217522D01*
X193230Y217593D01*
X193295Y217680D01*
X193302Y217694D01*
X193316Y217723D01*
X193345Y217773D01*
X193366Y217837D01*
X193395Y217909D01*
X193423Y217995D01*
X193438Y218088D01*
X193445Y218189D01*
Y218224D01*
X193438Y218253D01*
X193431Y218325D01*
X193409Y218418D01*
X193366Y218518D01*
X193316Y218633D01*
X193237Y218748D01*
X193194Y218805D01*
X193137Y218855D01*
X193130D01*
X193122Y218870D01*
X193079Y218898D01*
X193008Y218941D01*
X192914Y218999D01*
X192793Y219049D01*
X192649Y219092D01*
X192484Y219121D01*
X192291Y219135D01*
D02*
G37*
G36*
X246836Y149360D02*
X246831D01*
X246825Y149354D01*
X246809Y149348D01*
X246786Y149343D01*
X246759Y149332D01*
X246725Y149321D01*
X246687Y149310D01*
X246642Y149299D01*
X246592Y149282D01*
X246531Y149271D01*
X246470Y149254D01*
X246398Y149237D01*
X246320Y149221D01*
X246242Y149204D01*
X246154Y149193D01*
X246059Y149176D01*
X246048D01*
X246015Y149171D01*
X245959Y149160D01*
X245898Y149149D01*
X245832Y149137D01*
X245765Y149121D01*
X245704Y149104D01*
X245649Y149082D01*
X245643D01*
X245626Y149071D01*
X245604Y149060D01*
X245582Y149043D01*
X245515Y148999D01*
X245460Y148932D01*
Y148927D01*
X245449Y148916D01*
X245443Y148893D01*
X245432Y148866D01*
X245421Y148832D01*
X245410Y148799D01*
X245405Y148755D01*
X245399Y148710D01*
Y148705D01*
Y148677D01*
X245405Y148644D01*
X245416Y148599D01*
X245432Y148549D01*
X245460Y148499D01*
X245493Y148444D01*
X245538Y148394D01*
X245543Y148388D01*
X245565Y148377D01*
X245599Y148355D01*
X245643Y148333D01*
X245704Y148310D01*
X245776Y148288D01*
X245860Y148277D01*
X245959Y148272D01*
X246004D01*
X246059Y148277D01*
X246120Y148288D01*
X246198Y148300D01*
X246276Y148322D01*
X246359Y148349D01*
X246442Y148388D01*
X246453Y148394D01*
X246476Y148410D01*
X246515Y148438D01*
X246559Y148477D01*
X246609Y148521D01*
X246664Y148577D01*
X246709Y148644D01*
X246753Y148716D01*
X246759Y148721D01*
X246764Y148743D01*
X246775Y148782D01*
X246792Y148832D01*
X246809Y148899D01*
X246820Y148977D01*
X246825Y149071D01*
X246831Y149182D01*
X246836Y149360D01*
D02*
G37*
G36*
X216594Y151402D02*
Y151396D01*
X216589Y151385D01*
Y151363D01*
X216578Y151341D01*
X216572Y151302D01*
X216561Y151263D01*
X216539Y151169D01*
X216511Y151058D01*
X216472Y150936D01*
X216434Y150803D01*
X216384Y150664D01*
X215967Y149543D01*
X217266D01*
X216866Y150597D01*
Y150603D01*
X216861Y150619D01*
X216850Y150647D01*
X216839Y150680D01*
X216822Y150719D01*
X216805Y150769D01*
X216789Y150825D01*
X216767Y150880D01*
X216722Y151008D01*
X216678Y151141D01*
X216633Y151274D01*
X216594Y151402D01*
D02*
G37*
G36*
X230664Y150420D02*
X230630D01*
X230603Y150414D01*
X230542Y150408D01*
X230458Y150386D01*
X230364Y150353D01*
X230264Y150309D01*
X230170Y150242D01*
X230120Y150198D01*
X230075Y150153D01*
Y150148D01*
X230064Y150142D01*
X230053Y150125D01*
X230036Y150103D01*
X230020Y150075D01*
X230003Y150042D01*
X229981Y149998D01*
X229959Y149953D01*
X229937Y149898D01*
X229914Y149842D01*
X229898Y149776D01*
X229881Y149704D01*
X229865Y149626D01*
X229853Y149543D01*
X229848Y149448D01*
X229842Y149354D01*
Y149348D01*
Y149332D01*
Y149304D01*
X229848Y149265D01*
Y149221D01*
X229853Y149171D01*
X229870Y149054D01*
X229898Y148921D01*
X229942Y148788D01*
X229998Y148660D01*
X230036Y148605D01*
X230075Y148549D01*
X230081D01*
X230086Y148538D01*
X230120Y148510D01*
X230170Y148466D01*
X230236Y148422D01*
X230320Y148372D01*
X230419Y148327D01*
X230536Y148300D01*
X230597Y148294D01*
X230664Y148288D01*
X230697D01*
X230725Y148294D01*
X230786Y148305D01*
X230869Y148322D01*
X230958Y148355D01*
X231058Y148399D01*
X231152Y148466D01*
X231202Y148510D01*
X231246Y148555D01*
X231252Y148560D01*
X231258Y148566D01*
X231269Y148582D01*
X231285Y148605D01*
X231302Y148632D01*
X231324Y148666D01*
X231346Y148710D01*
X231368Y148755D01*
X231391Y148810D01*
X231407Y148871D01*
X231430Y148938D01*
X231446Y149010D01*
X231463Y149093D01*
X231474Y149176D01*
X231485Y149271D01*
Y149371D01*
Y149376D01*
Y149393D01*
Y149421D01*
X231480Y149454D01*
Y149498D01*
X231474Y149548D01*
X231457Y149665D01*
X231430Y149787D01*
X231385Y149920D01*
X231324Y150042D01*
X231291Y150103D01*
X231246Y150153D01*
Y150159D01*
X231235Y150164D01*
X231202Y150198D01*
X231152Y150236D01*
X231085Y150286D01*
X231002Y150336D01*
X230902Y150381D01*
X230791Y150408D01*
X230730Y150414D01*
X230664Y150420D01*
D02*
G37*
G36*
X184671Y65949D02*
X183461D01*
Y64678D01*
X184605D01*
X184671Y64683D01*
X184749Y64689D01*
X184838Y64694D01*
X184927Y64705D01*
X185015Y64722D01*
X185093Y64744D01*
X185104Y64750D01*
X185126Y64761D01*
X185160Y64778D01*
X185204Y64800D01*
X185254Y64833D01*
X185304Y64872D01*
X185354Y64922D01*
X185393Y64977D01*
X185398Y64983D01*
X185409Y65005D01*
X185426Y65039D01*
X185448Y65083D01*
X185465Y65133D01*
X185482Y65188D01*
X185493Y65255D01*
X185498Y65321D01*
Y65327D01*
Y65333D01*
X185493Y65366D01*
X185487Y65416D01*
X185476Y65482D01*
X185448Y65549D01*
X185415Y65627D01*
X185365Y65699D01*
X185299Y65771D01*
X185287Y65777D01*
X185260Y65799D01*
X185215Y65827D01*
X185143Y65860D01*
X185060Y65893D01*
X184949Y65921D01*
X184821Y65943D01*
X184671Y65949D01*
D02*
G37*
G36*
X187901Y64994D02*
X187868D01*
X187846Y64988D01*
X187785Y64983D01*
X187713Y64966D01*
X187624Y64939D01*
X187530Y64900D01*
X187441Y64844D01*
X187352Y64772D01*
X187341Y64761D01*
X187319Y64733D01*
X187280Y64683D01*
X187241Y64617D01*
X187197Y64539D01*
X187158Y64439D01*
X187124Y64323D01*
X187108Y64195D01*
X188667D01*
Y64200D01*
Y64211D01*
X188662Y64228D01*
Y64250D01*
X188651Y64317D01*
X188634Y64389D01*
X188606Y64478D01*
X188578Y64561D01*
X188534Y64644D01*
X188484Y64717D01*
Y64722D01*
X188473Y64728D01*
X188445Y64761D01*
X188395Y64805D01*
X188329Y64855D01*
X188245Y64905D01*
X188146Y64950D01*
X188029Y64983D01*
X187968Y64988D01*
X187901Y64994D01*
D02*
G37*
G36*
X174781D02*
X174748D01*
X174726Y64988D01*
X174665Y64983D01*
X174592Y64966D01*
X174504Y64939D01*
X174409Y64900D01*
X174321Y64844D01*
X174232Y64772D01*
X174221Y64761D01*
X174198Y64733D01*
X174160Y64683D01*
X174121Y64617D01*
X174076Y64539D01*
X174038Y64439D01*
X174004Y64323D01*
X173988Y64195D01*
X175547D01*
Y64200D01*
Y64211D01*
X175542Y64228D01*
Y64250D01*
X175531Y64317D01*
X175514Y64389D01*
X175486Y64478D01*
X175458Y64561D01*
X175414Y64644D01*
X175364Y64717D01*
Y64722D01*
X175353Y64728D01*
X175325Y64761D01*
X175275Y64805D01*
X175209Y64855D01*
X175125Y64905D01*
X175025Y64950D01*
X174909Y64983D01*
X174848Y64988D01*
X174781Y64994D01*
D02*
G37*
G36*
X62481Y269354D02*
X61271D01*
Y268083D01*
X62414D01*
X62481Y268089D01*
X62559Y268094D01*
X62647Y268099D01*
X62736Y268111D01*
X62825Y268127D01*
X62903Y268149D01*
X62914Y268155D01*
X62936Y268166D01*
X62969Y268183D01*
X63014Y268205D01*
X63064Y268238D01*
X63114Y268277D01*
X63164Y268327D01*
X63202Y268383D01*
X63208Y268388D01*
X63219Y268410D01*
X63236Y268444D01*
X63258Y268488D01*
X63275Y268538D01*
X63291Y268594D01*
X63302Y268660D01*
X63308Y268727D01*
Y268732D01*
Y268738D01*
X63302Y268771D01*
X63297Y268821D01*
X63286Y268888D01*
X63258Y268954D01*
X63225Y269032D01*
X63175Y269104D01*
X63108Y269176D01*
X63097Y269182D01*
X63069Y269204D01*
X63025Y269232D01*
X62953Y269265D01*
X62869Y269298D01*
X62758Y269326D01*
X62631Y269348D01*
X62481Y269354D01*
D02*
G37*
G36*
X24772Y263857D02*
X23673D01*
Y262486D01*
X24706D01*
X24745Y262491D01*
X24783D01*
X24828Y262497D01*
X24933Y262508D01*
X25050Y262530D01*
X25166Y262563D01*
X25272Y262608D01*
X25322Y262636D01*
X25361Y262669D01*
X25372Y262680D01*
X25394Y262702D01*
X25427Y262747D01*
X25466Y262802D01*
X25505Y262874D01*
X25538Y262963D01*
X25560Y263063D01*
X25572Y263179D01*
Y263185D01*
Y263191D01*
Y263218D01*
X25566Y263268D01*
X25555Y263324D01*
X25544Y263385D01*
X25521Y263457D01*
X25488Y263524D01*
X25449Y263590D01*
X25444Y263596D01*
X25427Y263618D01*
X25399Y263646D01*
X25366Y263685D01*
X25316Y263723D01*
X25261Y263757D01*
X25200Y263790D01*
X25128Y263818D01*
X25122D01*
X25100Y263823D01*
X25066Y263829D01*
X25022Y263840D01*
X24955Y263845D01*
X24872Y263851D01*
X24772Y263857D01*
D02*
G37*
G36*
X34685Y262930D02*
X34651D01*
X34629Y262924D01*
X34568Y262919D01*
X34496Y262902D01*
X34407Y262874D01*
X34313Y262835D01*
X34224Y262780D01*
X34135Y262708D01*
X34124Y262697D01*
X34102Y262669D01*
X34063Y262619D01*
X34024Y262552D01*
X33980Y262475D01*
X33941Y262375D01*
X33908Y262258D01*
X33891Y262131D01*
X35451D01*
Y262136D01*
Y262147D01*
X35445Y262164D01*
Y262186D01*
X35434Y262253D01*
X35417Y262325D01*
X35389Y262414D01*
X35362Y262497D01*
X35317Y262580D01*
X35267Y262652D01*
Y262658D01*
X35256Y262663D01*
X35228Y262697D01*
X35179Y262741D01*
X35112Y262791D01*
X35029Y262841D01*
X34929Y262885D01*
X34812Y262919D01*
X34751Y262924D01*
X34685Y262930D01*
D02*
G37*
G36*
X27808D02*
X27775D01*
X27747Y262924D01*
X27686Y262919D01*
X27603Y262896D01*
X27508Y262863D01*
X27408Y262819D01*
X27314Y262752D01*
X27264Y262708D01*
X27220Y262663D01*
Y262658D01*
X27209Y262652D01*
X27198Y262636D01*
X27181Y262613D01*
X27164Y262586D01*
X27148Y262552D01*
X27125Y262508D01*
X27103Y262464D01*
X27081Y262408D01*
X27059Y262353D01*
X27042Y262286D01*
X27026Y262214D01*
X27009Y262136D01*
X26998Y262053D01*
X26992Y261959D01*
X26987Y261864D01*
Y261859D01*
Y261842D01*
Y261814D01*
X26992Y261775D01*
Y261731D01*
X26998Y261681D01*
X27014Y261564D01*
X27042Y261431D01*
X27087Y261298D01*
X27142Y261170D01*
X27181Y261115D01*
X27220Y261059D01*
X27225D01*
X27231Y261048D01*
X27264Y261021D01*
X27314Y260976D01*
X27381Y260932D01*
X27464Y260882D01*
X27564Y260837D01*
X27681Y260810D01*
X27742Y260804D01*
X27808Y260799D01*
X27841D01*
X27869Y260804D01*
X27930Y260815D01*
X28014Y260832D01*
X28102Y260865D01*
X28202Y260910D01*
X28297Y260976D01*
X28346Y261021D01*
X28391Y261065D01*
X28396Y261070D01*
X28402Y261076D01*
X28413Y261093D01*
X28430Y261115D01*
X28446Y261143D01*
X28469Y261176D01*
X28491Y261220D01*
X28513Y261265D01*
X28535Y261320D01*
X28552Y261381D01*
X28574Y261448D01*
X28591Y261520D01*
X28607Y261603D01*
X28618Y261687D01*
X28629Y261781D01*
Y261881D01*
Y261886D01*
Y261903D01*
Y261931D01*
X28624Y261964D01*
Y262009D01*
X28618Y262058D01*
X28602Y262175D01*
X28574Y262297D01*
X28530Y262430D01*
X28469Y262552D01*
X28435Y262613D01*
X28391Y262663D01*
Y262669D01*
X28380Y262674D01*
X28346Y262708D01*
X28297Y262747D01*
X28230Y262797D01*
X28147Y262846D01*
X28047Y262891D01*
X27936Y262919D01*
X27875Y262924D01*
X27808Y262930D01*
D02*
G37*
G36*
X48101Y232899D02*
X48068D01*
X48040Y232894D01*
X47979Y232888D01*
X47896Y232866D01*
X47802Y232833D01*
X47702Y232788D01*
X47607Y232722D01*
X47557Y232677D01*
X47513Y232633D01*
Y232627D01*
X47502Y232622D01*
X47491Y232605D01*
X47474Y232583D01*
X47458Y232555D01*
X47441Y232522D01*
X47419Y232477D01*
X47396Y232433D01*
X47374Y232378D01*
X47352Y232322D01*
X47335Y232256D01*
X47319Y232183D01*
X47302Y232106D01*
X47291Y232022D01*
X47286Y231928D01*
X47280Y231834D01*
Y231828D01*
Y231811D01*
Y231784D01*
X47286Y231745D01*
Y231700D01*
X47291Y231650D01*
X47308Y231534D01*
X47335Y231401D01*
X47380Y231267D01*
X47435Y231140D01*
X47474Y231084D01*
X47513Y231029D01*
X47519D01*
X47524Y231018D01*
X47557Y230990D01*
X47607Y230946D01*
X47674Y230901D01*
X47757Y230851D01*
X47857Y230807D01*
X47974Y230779D01*
X48035Y230774D01*
X48101Y230768D01*
X48135D01*
X48162Y230774D01*
X48223Y230785D01*
X48307Y230801D01*
X48395Y230835D01*
X48495Y230879D01*
X48590Y230946D01*
X48640Y230990D01*
X48684Y231034D01*
X48690Y231040D01*
X48695Y231046D01*
X48706Y231062D01*
X48723Y231084D01*
X48740Y231112D01*
X48762Y231145D01*
X48784Y231190D01*
X48806Y231234D01*
X48828Y231290D01*
X48845Y231351D01*
X48867Y231417D01*
X48884Y231490D01*
X48900Y231573D01*
X48912Y231656D01*
X48923Y231750D01*
Y231850D01*
Y231856D01*
Y231873D01*
Y231900D01*
X48917Y231934D01*
Y231978D01*
X48912Y232028D01*
X48895Y232144D01*
X48867Y232267D01*
X48823Y232400D01*
X48762Y232522D01*
X48728Y232583D01*
X48684Y232633D01*
Y232638D01*
X48673Y232644D01*
X48640Y232677D01*
X48590Y232716D01*
X48523Y232766D01*
X48440Y232816D01*
X48340Y232860D01*
X48229Y232888D01*
X48168Y232894D01*
X48101Y232899D01*
D02*
G37*
G36*
X36779D02*
X36746D01*
X36724Y232894D01*
X36663Y232888D01*
X36591Y232872D01*
X36502Y232844D01*
X36408Y232805D01*
X36319Y232749D01*
X36230Y232677D01*
X36219Y232666D01*
X36197Y232638D01*
X36158Y232589D01*
X36119Y232522D01*
X36075Y232444D01*
X36036Y232344D01*
X36002Y232228D01*
X35986Y232100D01*
X37545D01*
Y232106D01*
Y232117D01*
X37540Y232133D01*
Y232155D01*
X37529Y232222D01*
X37512Y232294D01*
X37484Y232383D01*
X37456Y232466D01*
X37412Y232550D01*
X37362Y232622D01*
Y232627D01*
X37351Y232633D01*
X37323Y232666D01*
X37273Y232711D01*
X37207Y232761D01*
X37123Y232810D01*
X37023Y232855D01*
X36907Y232888D01*
X36846Y232894D01*
X36779Y232899D01*
D02*
G37*
G36*
X201022Y62993D02*
Y62988D01*
X201017Y62976D01*
Y62954D01*
X201006Y62932D01*
X201000Y62893D01*
X200989Y62854D01*
X200967Y62760D01*
X200939Y62649D01*
X200900Y62527D01*
X200861Y62394D01*
X200811Y62255D01*
X200395Y61134D01*
X201694D01*
X201294Y62188D01*
Y62194D01*
X201289Y62211D01*
X201277Y62238D01*
X201266Y62272D01*
X201250Y62310D01*
X201233Y62360D01*
X201217Y62416D01*
X201194Y62471D01*
X201150Y62599D01*
X201105Y62732D01*
X201061Y62865D01*
X201022Y62993D01*
D02*
G37*
G36*
X241956Y196882D02*
Y196876D01*
X241951Y196865D01*
Y196843D01*
X241940Y196821D01*
X241934Y196782D01*
X241923Y196743D01*
X241901Y196649D01*
X241873Y196537D01*
X241834Y196415D01*
X241795Y196282D01*
X241746Y196143D01*
X241329Y195022D01*
X242628D01*
X242228Y196077D01*
Y196082D01*
X242223Y196099D01*
X242212Y196127D01*
X242201Y196160D01*
X242184Y196199D01*
X242167Y196249D01*
X242151Y196304D01*
X242128Y196360D01*
X242084Y196488D01*
X242040Y196621D01*
X241995Y196754D01*
X241956Y196882D01*
D02*
G37*
G36*
X263832Y194882D02*
Y194876D01*
X263826Y194865D01*
Y194843D01*
X263815Y194821D01*
X263810Y194782D01*
X263799Y194743D01*
X263777Y194649D01*
X263749Y194537D01*
X263710Y194415D01*
X263671Y194282D01*
X263621Y194143D01*
X263205Y193022D01*
X264504D01*
X264104Y194077D01*
Y194082D01*
X264099Y194099D01*
X264087Y194127D01*
X264076Y194160D01*
X264060Y194199D01*
X264043Y194249D01*
X264026Y194304D01*
X264004Y194360D01*
X263960Y194488D01*
X263915Y194621D01*
X263871Y194754D01*
X263832Y194882D01*
D02*
G37*
G36*
X41225Y128909D02*
X40015D01*
Y127638D01*
X41159D01*
X41225Y127644D01*
X41303Y127649D01*
X41392Y127655D01*
X41480Y127666D01*
X41569Y127682D01*
X41647Y127705D01*
X41658Y127710D01*
X41680Y127721D01*
X41714Y127738D01*
X41758Y127760D01*
X41808Y127793D01*
X41858Y127832D01*
X41908Y127882D01*
X41947Y127938D01*
X41952Y127943D01*
X41963Y127965D01*
X41980Y127999D01*
X42002Y128043D01*
X42019Y128093D01*
X42035Y128148D01*
X42047Y128215D01*
X42052Y128282D01*
Y128287D01*
Y128293D01*
X42047Y128326D01*
X42041Y128376D01*
X42030Y128443D01*
X42002Y128509D01*
X41969Y128587D01*
X41919Y128659D01*
X41852Y128731D01*
X41841Y128737D01*
X41813Y128759D01*
X41769Y128787D01*
X41697Y128820D01*
X41614Y128853D01*
X41503Y128881D01*
X41375Y128903D01*
X41225Y128909D01*
D02*
G37*
G36*
X44455Y127954D02*
X44422D01*
X44400Y127949D01*
X44339Y127943D01*
X44267Y127927D01*
X44178Y127899D01*
X44083Y127860D01*
X43995Y127804D01*
X43906Y127732D01*
X43895Y127721D01*
X43872Y127693D01*
X43834Y127644D01*
X43795Y127577D01*
X43750Y127499D01*
X43712Y127399D01*
X43678Y127283D01*
X43662Y127155D01*
X45221D01*
Y127161D01*
Y127172D01*
X45216Y127188D01*
Y127210D01*
X45204Y127277D01*
X45188Y127349D01*
X45160Y127438D01*
X45132Y127521D01*
X45088Y127605D01*
X45038Y127677D01*
Y127682D01*
X45027Y127688D01*
X44999Y127721D01*
X44949Y127766D01*
X44883Y127815D01*
X44799Y127866D01*
X44699Y127910D01*
X44583Y127943D01*
X44522Y127949D01*
X44455Y127954D01*
D02*
G37*
G36*
X36075Y128964D02*
X36042D01*
X36019Y128959D01*
X35958Y128948D01*
X35886Y128931D01*
X35803Y128898D01*
X35714Y128848D01*
X35670Y128814D01*
X35625Y128781D01*
X35586Y128737D01*
X35548Y128687D01*
Y128681D01*
X35536Y128670D01*
X35525Y128648D01*
X35509Y128620D01*
X35492Y128576D01*
X35470Y128526D01*
X35453Y128465D01*
X35431Y128393D01*
X35409Y128309D01*
X35387Y128215D01*
X35364Y128110D01*
X35348Y127993D01*
X35331Y127860D01*
X35320Y127716D01*
X35314Y127560D01*
X35309Y127388D01*
Y127377D01*
Y127349D01*
Y127299D01*
X35314Y127233D01*
Y127161D01*
X35320Y127072D01*
X35326Y126977D01*
X35337Y126877D01*
X35364Y126661D01*
X35381Y126556D01*
X35403Y126456D01*
X35425Y126361D01*
X35459Y126273D01*
X35492Y126195D01*
X35531Y126128D01*
Y126123D01*
X35542Y126117D01*
X35570Y126078D01*
X35620Y126028D01*
X35681Y125973D01*
X35764Y125917D01*
X35858Y125867D01*
X35964Y125829D01*
X36019Y125823D01*
X36080Y125818D01*
X36114D01*
X36136Y125823D01*
X36191Y125834D01*
X36269Y125856D01*
X36352Y125895D01*
X36447Y125951D01*
X36491Y125984D01*
X36535Y126028D01*
X36580Y126073D01*
X36624Y126128D01*
Y126134D01*
X36635Y126145D01*
X36646Y126162D01*
X36658Y126189D01*
X36680Y126228D01*
X36696Y126278D01*
X36719Y126334D01*
X36741Y126400D01*
X36757Y126484D01*
X36780Y126572D01*
X36802Y126678D01*
X36819Y126789D01*
X36830Y126922D01*
X36841Y127061D01*
X36852Y127216D01*
Y127388D01*
Y127394D01*
Y127399D01*
Y127427D01*
Y127477D01*
X36846Y127544D01*
Y127616D01*
X36841Y127705D01*
X36835Y127799D01*
X36824Y127904D01*
X36796Y128115D01*
X36780Y128221D01*
X36757Y128321D01*
X36735Y128415D01*
X36702Y128504D01*
X36669Y128581D01*
X36630Y128648D01*
Y128654D01*
X36619Y128659D01*
X36608Y128676D01*
X36591Y128698D01*
X36541Y128748D01*
X36480Y128809D01*
X36397Y128865D01*
X36302Y128914D01*
X36252Y128937D01*
X36197Y128953D01*
X36136Y128959D01*
X36075Y128964D01*
D02*
G37*
G36*
X47413Y127954D02*
X47325D01*
X47302Y127949D01*
X47241Y127943D01*
X47169Y127921D01*
X47080Y127893D01*
X46992Y127843D01*
X46903Y127782D01*
X46858Y127738D01*
X46814Y127693D01*
Y127688D01*
X46803Y127682D01*
X46792Y127666D01*
X46781Y127644D01*
X46764Y127621D01*
X46747Y127588D01*
X46725Y127549D01*
X46709Y127505D01*
X46686Y127455D01*
X46664Y127394D01*
X46648Y127333D01*
X46631Y127266D01*
X46620Y127188D01*
X46609Y127111D01*
X46598Y127027D01*
Y126933D01*
Y126927D01*
Y126911D01*
Y126883D01*
X46603Y126844D01*
Y126800D01*
X46609Y126744D01*
X46625Y126628D01*
X46653Y126495D01*
X46686Y126367D01*
X46742Y126239D01*
X46775Y126184D01*
X46814Y126134D01*
X46825Y126123D01*
X46853Y126095D01*
X46897Y126056D01*
X46964Y126012D01*
X47042Y125962D01*
X47136Y125923D01*
X47241Y125895D01*
X47297Y125890D01*
X47358Y125884D01*
X47391D01*
X47413Y125890D01*
X47475Y125895D01*
X47552Y125917D01*
X47635Y125945D01*
X47730Y125990D01*
X47819Y126051D01*
X47863Y126090D01*
X47907Y126134D01*
Y126139D01*
X47918Y126145D01*
X47930Y126162D01*
X47941Y126184D01*
X47957Y126206D01*
X47980Y126239D01*
X47996Y126278D01*
X48018Y126328D01*
X48041Y126378D01*
X48057Y126434D01*
X48079Y126500D01*
X48096Y126572D01*
X48107Y126645D01*
X48118Y126728D01*
X48129Y126822D01*
Y126916D01*
Y126922D01*
Y126939D01*
Y126966D01*
X48124Y127000D01*
Y127044D01*
X48118Y127094D01*
X48102Y127205D01*
X48074Y127333D01*
X48035Y127460D01*
X47980Y127588D01*
X47941Y127644D01*
X47902Y127693D01*
Y127699D01*
X47891Y127705D01*
X47863Y127732D01*
X47813Y127777D01*
X47746Y127827D01*
X47669Y127871D01*
X47574Y127915D01*
X47469Y127943D01*
X47413Y127954D01*
D02*
G37*
G36*
X94722Y46409D02*
X93512D01*
Y45138D01*
X94656D01*
X94722Y45143D01*
X94800Y45149D01*
X94889Y45155D01*
X94978Y45166D01*
X95066Y45182D01*
X95144Y45204D01*
X95155Y45210D01*
X95178Y45221D01*
X95211Y45238D01*
X95255Y45260D01*
X95305Y45293D01*
X95355Y45332D01*
X95405Y45382D01*
X95444Y45438D01*
X95450Y45443D01*
X95461Y45465D01*
X95477Y45499D01*
X95499Y45543D01*
X95516Y45593D01*
X95533Y45649D01*
X95544Y45715D01*
X95549Y45782D01*
Y45787D01*
Y45793D01*
X95544Y45826D01*
X95538Y45876D01*
X95527Y45943D01*
X95499Y46009D01*
X95466Y46087D01*
X95416Y46159D01*
X95350Y46231D01*
X95338Y46237D01*
X95311Y46259D01*
X95266Y46287D01*
X95194Y46320D01*
X95111Y46353D01*
X95000Y46381D01*
X94872Y46403D01*
X94722Y46409D01*
D02*
G37*
G36*
X97953Y45454D02*
X97919D01*
X97897Y45449D01*
X97836Y45443D01*
X97764Y45426D01*
X97675Y45399D01*
X97581Y45360D01*
X97492Y45304D01*
X97403Y45232D01*
X97392Y45221D01*
X97370Y45193D01*
X97331Y45143D01*
X97292Y45077D01*
X97248Y44999D01*
X97209Y44899D01*
X97176Y44783D01*
X97159Y44655D01*
X98718D01*
Y44661D01*
Y44672D01*
X98713Y44688D01*
Y44711D01*
X98702Y44777D01*
X98685Y44849D01*
X98657Y44938D01*
X98630Y45021D01*
X98585Y45105D01*
X98535Y45177D01*
Y45182D01*
X98524Y45188D01*
X98496Y45221D01*
X98447Y45266D01*
X98380Y45316D01*
X98297Y45365D01*
X98197Y45410D01*
X98080Y45443D01*
X98019Y45449D01*
X97953Y45454D01*
D02*
G37*
G36*
X100911D02*
X100822D01*
X100800Y45449D01*
X100739Y45443D01*
X100666Y45421D01*
X100578Y45393D01*
X100489Y45343D01*
X100400Y45282D01*
X100356Y45238D01*
X100311Y45193D01*
Y45188D01*
X100300Y45182D01*
X100289Y45166D01*
X100278Y45143D01*
X100261Y45121D01*
X100245Y45088D01*
X100223Y45049D01*
X100206Y45005D01*
X100184Y44955D01*
X100161Y44894D01*
X100145Y44833D01*
X100128Y44766D01*
X100117Y44688D01*
X100106Y44611D01*
X100095Y44527D01*
Y44433D01*
Y44427D01*
Y44411D01*
Y44383D01*
X100100Y44344D01*
Y44300D01*
X100106Y44244D01*
X100123Y44128D01*
X100150Y43995D01*
X100184Y43867D01*
X100239Y43739D01*
X100272Y43684D01*
X100311Y43634D01*
X100322Y43623D01*
X100350Y43595D01*
X100394Y43556D01*
X100461Y43512D01*
X100539Y43462D01*
X100633Y43423D01*
X100739Y43395D01*
X100794Y43390D01*
X100855Y43384D01*
X100889D01*
X100911Y43390D01*
X100972Y43395D01*
X101049Y43417D01*
X101133Y43445D01*
X101227Y43490D01*
X101316Y43551D01*
X101360Y43589D01*
X101405Y43634D01*
Y43639D01*
X101416Y43645D01*
X101427Y43662D01*
X101438Y43684D01*
X101455Y43706D01*
X101477Y43739D01*
X101493Y43778D01*
X101516Y43828D01*
X101538Y43878D01*
X101555Y43934D01*
X101577Y44000D01*
X101593Y44072D01*
X101604Y44144D01*
X101616Y44228D01*
X101627Y44322D01*
Y44416D01*
Y44422D01*
Y44439D01*
Y44466D01*
X101621Y44500D01*
Y44544D01*
X101616Y44594D01*
X101599Y44705D01*
X101571Y44833D01*
X101532Y44960D01*
X101477Y45088D01*
X101438Y45143D01*
X101399Y45193D01*
Y45199D01*
X101388Y45204D01*
X101360Y45232D01*
X101310Y45277D01*
X101244Y45327D01*
X101166Y45371D01*
X101072Y45415D01*
X100966Y45443D01*
X100911Y45454D01*
D02*
G37*
%LPD*%
D10*
X212733Y140217D02*
X211995Y140643D01*
Y139790D01*
X212733Y140217D01*
X79790Y72888D02*
X79052Y73315D01*
Y72462D01*
X79790Y72888D01*
X85266Y258747D02*
X84528Y259173D01*
Y258320D01*
X85266Y258747D01*
X139121Y164759D02*
X138382Y165185D01*
Y164332D01*
X139121Y164759D01*
D11*
X229477Y140610D02*
X228985Y141463D01*
X228000D01*
X227508Y140610D01*
X228000Y139758D01*
X228985D01*
X229477Y140610D01*
D12*
X77636Y132207D02*
X76849D01*
X77636D01*
X132437Y49760D02*
X136949D01*
Y94642D01*
X132437D02*
X136949D01*
X118051D02*
X122563D01*
X118051Y49760D02*
Y94642D01*
Y49760D02*
X122563D01*
X75330Y100042D02*
Y124451D01*
X49345D02*
X75330D01*
X49345Y100042D02*
Y124451D01*
X109298Y168329D02*
X113810D01*
Y123448D02*
Y168329D01*
X109298Y123448D02*
X113810D01*
X94912D02*
X99424D01*
X94912D02*
Y168329D01*
X99424D01*
D13*
X133314Y252389D02*
X132526D01*
X133314D01*
X224314Y20888D02*
X223526D01*
X224314D01*
X177814Y248389D02*
X177026D01*
X177814D01*
X225540Y103406D02*
Y143563D01*
Y103406D02*
X240491D01*
Y143563D01*
X225540D02*
X240491D01*
X79377Y62258D02*
Y64424D01*
X53392Y62258D02*
Y64424D01*
X79377D01*
X55050Y245451D02*
Y254326D01*
X57499Y238077D02*
X76223D01*
X78672Y245451D02*
Y254219D01*
X57499Y261700D02*
X75129D01*
X130361Y237388D02*
Y257388D01*
X100361Y237388D02*
Y257388D01*
Y237388D02*
X130361D01*
X100361Y257388D02*
X130361D01*
X221361Y15889D02*
Y25888D01*
X21361Y15889D02*
Y25888D01*
Y15889D02*
X221361D01*
X21361Y25888D02*
X221361D01*
X144141Y139168D02*
X166581D01*
X144141Y161609D02*
X166581D01*
Y139168D02*
Y161609D01*
X144141Y139168D02*
Y161609D01*
X174861Y233388D02*
Y253389D01*
X144861Y233388D02*
Y253389D01*
Y233388D02*
X174861D01*
X144861Y253389D02*
X174861D01*
X211530Y198049D02*
Y207728D01*
X220192Y198049D02*
Y207728D01*
X169802Y89831D02*
X179480D01*
X169802Y81169D02*
X179480D01*
X20030Y197049D02*
Y206728D01*
X28692Y197049D02*
Y206728D01*
X97022Y213219D02*
X106700D01*
X97022Y204558D02*
X106700D01*
X101030Y86049D02*
Y95727D01*
X109692Y86049D02*
Y95727D01*
D14*
X149258Y157672D02*
X148814Y158595D01*
X147815Y158823D01*
X147013Y158184D01*
Y157159D01*
X147815Y156520D01*
X148814Y156748D01*
X149258Y157672D01*
D15*
X16089Y231117D02*
X29633D01*
Y254661D01*
X16089D02*
X29633D01*
X16089Y231117D02*
Y254661D01*
X219728Y60228D02*
Y73772D01*
Y60228D02*
X243272D01*
Y73772D01*
X219728D02*
X243272D01*
X219228Y35228D02*
Y48772D01*
Y35228D02*
X242772D01*
Y48772D01*
X219228D02*
X242772D01*
X67089Y151589D02*
X80633D01*
Y215133D01*
X67089D02*
X80633D01*
X67089Y151589D02*
Y215133D01*
X184589Y151589D02*
X198133D01*
Y215133D01*
X184589D02*
X198133D01*
X184589Y151589D02*
Y215133D01*
D16*
X178589Y225861D02*
X184589Y227861D01*
X178589Y229861D02*
X184589Y227861D01*
X80633D02*
X86633Y229861D01*
X80633Y227861D02*
X86633Y225861D01*
X151605Y227861D02*
X184589D01*
X80633D02*
X110417D01*
X184589Y216526D02*
Y228861D01*
X80633Y216526D02*
Y228861D01*
X244561Y218461D02*
X246560D01*
X245561D01*
Y224459D01*
X244561Y223459D01*
X249559D02*
X250559Y224459D01*
X252558D01*
X253558Y223459D01*
Y219461D01*
X252558Y218461D01*
X250559D01*
X249559Y219461D01*
Y223459D01*
X255557Y218461D02*
Y224459D01*
Y220460D02*
X258556Y222460D01*
X255557Y220460D02*
X258556Y218461D01*
X117961Y111859D02*
Y110859D01*
X119960Y108860D01*
X121960Y110859D01*
Y111859D01*
X119960Y108860D02*
Y105861D01*
X127958D02*
X123959D01*
X127958Y109860D01*
Y110859D01*
X126958Y111859D01*
X124959D01*
X123959Y110859D01*
X94861Y185459D02*
Y184459D01*
X96860Y182460D01*
X98860Y184459D01*
Y185459D01*
X96860Y182460D02*
Y179461D01*
X100859D02*
X102858D01*
X101859D01*
Y185459D01*
X100859Y184459D01*
X195007Y88971D02*
X199006D01*
X197007D01*
Y82973D01*
X204005D02*
X202005D01*
X201006Y83973D01*
Y85972D01*
X202005Y86972D01*
X204005D01*
X205004Y85972D01*
Y84973D01*
X201006D01*
X207004Y86972D02*
Y82973D01*
Y84973D01*
X208003Y85972D01*
X209003Y86972D01*
X210003D01*
X213002Y82973D02*
Y86972D01*
X214001D01*
X215001Y85972D01*
Y82973D01*
Y85972D01*
X216001Y86972D01*
X217000Y85972D01*
Y82973D01*
X224998D02*
Y88971D01*
X227997D01*
X228996Y87972D01*
Y85972D01*
X227997Y84973D01*
X224998D01*
X226997D02*
X228996Y82973D01*
X233995D02*
X231996D01*
X230996Y83973D01*
Y85972D01*
X231996Y86972D01*
X233995D01*
X234995Y85972D01*
Y84973D01*
X230996D01*
X236994Y82973D02*
X239993D01*
X240993Y83973D01*
X239993Y84973D01*
X237994D01*
X236994Y85972D01*
X237994Y86972D01*
X240993D01*
X104260Y266459D02*
X103260Y267459D01*
X101261D01*
X100261Y266459D01*
Y265460D01*
X101261Y264460D01*
X103260D01*
X104260Y263460D01*
Y262461D01*
X103260Y261461D01*
X101261D01*
X100261Y262461D01*
X106259Y261461D02*
Y267459D01*
X109258D01*
X110258Y266459D01*
Y264460D01*
X109258Y263460D01*
X106259D01*
X112257Y267459D02*
X114256D01*
X113257D01*
Y261461D01*
X112257D01*
X114256D01*
X25260Y36959D02*
X24260Y37959D01*
X22261D01*
X21261Y36959D01*
Y35960D01*
X22261Y34960D01*
X24260D01*
X25260Y33960D01*
Y32961D01*
X24260Y31961D01*
X22261D01*
X21261Y32961D01*
X27259Y29961D02*
Y35960D01*
X30258D01*
X31258Y34960D01*
Y32961D01*
X30258Y31961D01*
X27259D01*
X34257Y35960D02*
X36256D01*
X37256Y34960D01*
Y31961D01*
X34257D01*
X33257Y32961D01*
X34257Y33960D01*
X37256D01*
X39255Y35960D02*
Y31961D01*
Y33960D01*
X40255Y34960D01*
X41254Y35960D01*
X42254D01*
X48252Y31961D02*
X46253D01*
X45253Y32961D01*
Y34960D01*
X46253Y35960D01*
X48252D01*
X49252Y34960D01*
Y33960D01*
X45253D01*
X188371Y226862D02*
Y232860D01*
X191370D01*
X192370Y231860D01*
Y229861D01*
X191370Y228861D01*
X188371D01*
X190370D02*
X192370Y226862D01*
X194369D02*
X196368D01*
X195369D01*
Y230860D01*
X194369D01*
X201367Y224862D02*
X202366D01*
X203366Y225862D01*
Y230860D01*
X200367D01*
X199367Y229861D01*
Y227861D01*
X200367Y226862D01*
X203366D01*
X205365Y232860D02*
Y226862D01*
Y229861D01*
X206365Y230860D01*
X208364D01*
X209364Y229861D01*
Y226862D01*
X212363Y231860D02*
Y230860D01*
X211364D01*
X213363D01*
X212363D01*
Y227861D01*
X213363Y226862D01*
X226359Y231860D02*
X225359Y232860D01*
X223360D01*
X222360Y231860D01*
Y227861D01*
X223360Y226862D01*
X225359D01*
X226359Y227861D01*
X229358Y226862D02*
X231357D01*
X232357Y227861D01*
Y229861D01*
X231357Y230860D01*
X229358D01*
X228358Y229861D01*
Y227861D01*
X229358Y226862D01*
X234356D02*
Y230860D01*
X235356D01*
X236355Y229861D01*
Y226862D01*
Y229861D01*
X237355Y230860D01*
X238355Y229861D01*
Y226862D01*
X240354D02*
Y230860D01*
X241354D01*
X242354Y229861D01*
Y226862D01*
Y229861D01*
X243353Y230860D01*
X244353Y229861D01*
Y226862D01*
X246352D02*
X249351D01*
X250351Y227861D01*
X249351Y228861D01*
X247352D01*
X246352Y229861D01*
X247352Y230860D01*
X250351D01*
X22961Y169861D02*
Y175859D01*
X25960D01*
X26960Y174859D01*
Y172860D01*
X25960Y171860D01*
X22961D01*
X24960D02*
X26960Y169861D01*
X28959Y175859D02*
X32958D01*
Y174859D01*
X28959Y170861D01*
Y169861D01*
X133861Y175961D02*
Y181959D01*
X135860Y179960D01*
X137860Y181959D01*
Y175961D01*
X139859D02*
Y181959D01*
X142858D01*
X143858Y180959D01*
Y178960D01*
X142858Y177960D01*
X139859D01*
X145857Y181959D02*
Y176961D01*
X146857Y175961D01*
X148856D01*
X149856Y176961D01*
Y181959D01*
X144761Y263459D02*
X146760D01*
X145761D01*
Y257461D01*
X144761D01*
X146760D01*
X153758Y262459D02*
X152758Y263459D01*
X150759D01*
X149759Y262459D01*
Y258461D01*
X150759Y257461D01*
X152758D01*
X153758Y258461D01*
X159756Y262459D02*
X158756Y263459D01*
X156757D01*
X155757Y262459D01*
Y261460D01*
X156757Y260460D01*
X158756D01*
X159756Y259460D01*
Y258461D01*
X158756Y257461D01*
X156757D01*
X155757Y258461D01*
X161755Y257461D02*
Y263459D01*
X164754D01*
X165754Y262459D01*
Y260460D01*
X164754Y259460D01*
X161755D01*
X216160Y216559D02*
X215160Y217559D01*
X213161D01*
X212161Y216559D01*
Y212561D01*
X213161Y211561D01*
X215160D01*
X216160Y212561D01*
X222158Y217559D02*
X218159D01*
Y214560D01*
X220158Y215560D01*
X221158D01*
X222158Y214560D01*
Y212561D01*
X221158Y211561D01*
X219159D01*
X218159Y212561D01*
X174060Y98259D02*
X173060Y99259D01*
X171061D01*
X170061Y98259D01*
Y94261D01*
X171061Y93261D01*
X173060D01*
X174060Y94261D01*
X179058Y93261D02*
Y99259D01*
X176059Y96260D01*
X180058D01*
X24660Y215559D02*
X23660Y216559D01*
X21661D01*
X20661Y215559D01*
Y211561D01*
X21661Y210561D01*
X23660D01*
X24660Y211561D01*
X26659Y215559D02*
X27659Y216559D01*
X29658D01*
X30658Y215559D01*
Y214560D01*
X29658Y213560D01*
X28658D01*
X29658D01*
X30658Y212560D01*
Y211561D01*
X29658Y210561D01*
X27659D01*
X26659Y211561D01*
X101260Y221659D02*
X100260Y222659D01*
X98261D01*
X97261Y221659D01*
Y217661D01*
X98261Y216661D01*
X100260D01*
X101260Y217661D01*
X107258Y216661D02*
X103259D01*
X107258Y220660D01*
Y221659D01*
X106258Y222659D01*
X104259D01*
X103259Y221659D01*
X105660Y104559D02*
X104660Y105559D01*
X102661D01*
X101661Y104559D01*
Y100561D01*
X102661Y99561D01*
X104660D01*
X105660Y100561D01*
X107659Y99561D02*
X109658D01*
X108659D01*
Y105559D01*
X107659Y104559D01*
D17*
X112017Y224262D02*
X114016D01*
X113017D01*
Y230260D01*
X112017Y229260D01*
X117015D02*
X118015Y230260D01*
X120014D01*
X121014Y229260D01*
Y225261D01*
X120014Y224262D01*
X118015D01*
X117015Y225261D01*
Y229260D01*
X123013D02*
X124013Y230260D01*
X126013D01*
X127012Y229260D01*
Y228261D01*
X126013Y227261D01*
X125013D01*
X126013D01*
X127012Y226261D01*
Y225261D01*
X126013Y224262D01*
X124013D01*
X123013Y225261D01*
X129011D02*
X130011Y224262D01*
X132011D01*
X133010Y225261D01*
Y229260D01*
X132011Y230260D01*
X130011D01*
X129011Y229260D01*
Y228261D01*
X130011Y227261D01*
X133010D01*
X135010Y224262D02*
Y225261D01*
X136009D01*
Y224262D01*
X135010D01*
X144007Y230260D02*
X140008D01*
Y227261D01*
X142007Y228261D01*
X143007D01*
X144007Y227261D01*
Y225261D01*
X143007Y224262D01*
X141008D01*
X140008Y225261D01*
X150005Y230260D02*
X148005Y229260D01*
X146006Y227261D01*
Y225261D01*
X147006Y224262D01*
X149005D01*
X150005Y225261D01*
Y226261D01*
X149005Y227261D01*
X146006D01*
M02*
