G04*
G04 #@! TF.GenerationSoftware,Altium Limited,Altium Designer,22.0.2 (36)*
G04*
G04 Layer_Color=0*
%FSLAX25Y25*%
%MOIN*%
G70*
G04*
G04 #@! TF.SameCoordinates,531B55E9-8988-4262-B8BE-2375E0DFDCCA*
G04*
G04*
G04 #@! TF.FilePolarity,Positive*
G04*
G01*
G75*
%ADD56C,0.00394*%
%ADD58C,0.00394*%
G36*
X25361Y226942D02*
X21482D01*
X21489Y226935D01*
X21518Y226899D01*
X21561Y226856D01*
X21611Y226785D01*
X21676Y226706D01*
X21747Y226605D01*
X21826Y226491D01*
X21905Y226362D01*
Y226354D01*
X21912Y226347D01*
X21941Y226304D01*
X21977Y226233D01*
X22020Y226147D01*
X22070Y226046D01*
X22120Y225939D01*
X22170Y225831D01*
X22213Y225724D01*
X21625D01*
Y225731D01*
X21611Y225745D01*
X21604Y225774D01*
X21582Y225810D01*
X21561Y225852D01*
X21532Y225903D01*
X21460Y226025D01*
X21382Y226168D01*
X21281Y226311D01*
X21166Y226462D01*
X21045Y226612D01*
X21037Y226620D01*
X21030Y226627D01*
X21009Y226648D01*
X20987Y226677D01*
X20915Y226742D01*
X20829Y226828D01*
X20729Y226914D01*
X20614Y227007D01*
X20500Y227086D01*
X20378Y227157D01*
Y227552D01*
X25361D01*
Y226942D01*
D02*
G37*
G36*
Y256010D02*
X25354D01*
X25325D01*
X25282D01*
X25225Y256017D01*
X25160Y256024D01*
X25088Y256038D01*
X25017Y256053D01*
X24938Y256081D01*
X24931D01*
X24924Y256088D01*
X24881Y256103D01*
X24816Y256132D01*
X24730Y256174D01*
X24630Y256232D01*
X24515Y256304D01*
X24400Y256382D01*
X24278Y256483D01*
X24271D01*
X24264Y256497D01*
X24221Y256533D01*
X24156Y256598D01*
X24063Y256691D01*
X23956Y256798D01*
X23826Y256934D01*
X23683Y257100D01*
X23532Y257279D01*
X23525Y257286D01*
X23504Y257315D01*
X23468Y257358D01*
X23425Y257408D01*
X23368Y257472D01*
X23303Y257551D01*
X23231Y257630D01*
X23153Y257723D01*
X22980Y257903D01*
X22808Y258082D01*
X22722Y258168D01*
X22636Y258247D01*
X22557Y258318D01*
X22479Y258376D01*
X22471D01*
X22464Y258390D01*
X22443Y258404D01*
X22414Y258419D01*
X22335Y258469D01*
X22242Y258526D01*
X22127Y258576D01*
X22005Y258627D01*
X21869Y258655D01*
X21740Y258670D01*
X21733D01*
X21726D01*
X21683Y258663D01*
X21611Y258655D01*
X21532Y258634D01*
X21432Y258605D01*
X21331Y258555D01*
X21231Y258490D01*
X21131Y258404D01*
X21116Y258390D01*
X21088Y258354D01*
X21052Y258304D01*
X21001Y258225D01*
X20958Y258125D01*
X20915Y258010D01*
X20887Y257874D01*
X20880Y257723D01*
Y257680D01*
X20887Y257651D01*
X20894Y257565D01*
X20915Y257465D01*
X20944Y257358D01*
X20994Y257236D01*
X21059Y257121D01*
X21145Y257013D01*
X21159Y256999D01*
X21195Y256970D01*
X21252Y256927D01*
X21339Y256884D01*
X21439Y256834D01*
X21568Y256791D01*
X21711Y256763D01*
X21876Y256748D01*
X21812Y256124D01*
X21805D01*
X21783Y256132D01*
X21747D01*
X21697Y256139D01*
X21640Y256153D01*
X21575Y256167D01*
X21496Y256189D01*
X21417Y256210D01*
X21245Y256268D01*
X21073Y256354D01*
X20987Y256404D01*
X20901Y256469D01*
X20822Y256533D01*
X20751Y256605D01*
X20743Y256612D01*
X20736Y256626D01*
X20715Y256648D01*
X20693Y256684D01*
X20664Y256727D01*
X20636Y256777D01*
X20600Y256834D01*
X20564Y256906D01*
X20528Y256985D01*
X20493Y257071D01*
X20464Y257164D01*
X20435Y257264D01*
X20414Y257372D01*
X20392Y257487D01*
X20385Y257609D01*
X20378Y257738D01*
Y257809D01*
X20385Y257859D01*
X20392Y257917D01*
X20399Y257989D01*
X20414Y258067D01*
X20428Y258146D01*
X20478Y258333D01*
X20550Y258519D01*
X20593Y258612D01*
X20643Y258705D01*
X20708Y258792D01*
X20779Y258870D01*
X20786Y258878D01*
X20794Y258892D01*
X20822Y258906D01*
X20851Y258935D01*
X20887Y258971D01*
X20937Y259007D01*
X20987Y259043D01*
X21052Y259086D01*
X21188Y259157D01*
X21360Y259229D01*
X21446Y259258D01*
X21546Y259272D01*
X21647Y259286D01*
X21754Y259294D01*
X21769D01*
X21805D01*
X21862Y259286D01*
X21941Y259279D01*
X22027Y259265D01*
X22127Y259236D01*
X22235Y259207D01*
X22342Y259164D01*
X22357Y259157D01*
X22392Y259143D01*
X22450Y259114D01*
X22529Y259071D01*
X22615Y259014D01*
X22722Y258942D01*
X22830Y258856D01*
X22952Y258756D01*
X22966Y258741D01*
X23009Y258705D01*
X23045Y258670D01*
X23081Y258634D01*
X23124Y258591D01*
X23181Y258534D01*
X23239Y258476D01*
X23303Y258404D01*
X23375Y258333D01*
X23454Y258247D01*
X23532Y258154D01*
X23626Y258053D01*
X23719Y257938D01*
X23819Y257824D01*
X23826Y257817D01*
X23841Y257802D01*
X23862Y257773D01*
X23891Y257738D01*
X23934Y257695D01*
X23977Y257644D01*
X24070Y257530D01*
X24178Y257408D01*
X24285Y257293D01*
X24379Y257193D01*
X24414Y257150D01*
X24450Y257114D01*
X24457Y257107D01*
X24479Y257085D01*
X24508Y257056D01*
X24551Y257021D01*
X24601Y256985D01*
X24651Y256942D01*
X24773Y256856D01*
Y259301D01*
X25361D01*
Y256010D01*
D02*
G37*
G36*
X216163Y64500D02*
X215554D01*
Y68379D01*
X215547Y68372D01*
X215511Y68343D01*
X215468Y68300D01*
X215396Y68250D01*
X215317Y68185D01*
X215217Y68114D01*
X215102Y68035D01*
X214973Y67956D01*
X214966D01*
X214959Y67949D01*
X214916Y67920D01*
X214844Y67884D01*
X214758Y67841D01*
X214658Y67791D01*
X214550Y67741D01*
X214442Y67691D01*
X214335Y67648D01*
Y68235D01*
X214342D01*
X214356Y68250D01*
X214385Y68257D01*
X214421Y68278D01*
X214464Y68300D01*
X214514Y68329D01*
X214636Y68400D01*
X214779Y68479D01*
X214923Y68580D01*
X215073Y68694D01*
X215224Y68816D01*
X215231Y68823D01*
X215238Y68831D01*
X215260Y68852D01*
X215289Y68874D01*
X215353Y68945D01*
X215439Y69031D01*
X215525Y69132D01*
X215618Y69247D01*
X215697Y69361D01*
X215769Y69483D01*
X216163D01*
Y64500D01*
D02*
G37*
G36*
X246471Y69476D02*
X246528Y69469D01*
X246600Y69462D01*
X246679Y69447D01*
X246758Y69433D01*
X246944Y69383D01*
X247131Y69311D01*
X247224Y69268D01*
X247317Y69218D01*
X247403Y69153D01*
X247482Y69082D01*
X247489Y69074D01*
X247503Y69067D01*
X247518Y69039D01*
X247547Y69010D01*
X247582Y68974D01*
X247618Y68924D01*
X247654Y68874D01*
X247697Y68809D01*
X247769Y68673D01*
X247840Y68501D01*
X247869Y68415D01*
X247884Y68314D01*
X247898Y68214D01*
X247905Y68107D01*
Y68092D01*
Y68056D01*
X247898Y67999D01*
X247891Y67920D01*
X247876Y67834D01*
X247848Y67734D01*
X247819Y67626D01*
X247776Y67519D01*
X247769Y67504D01*
X247755Y67468D01*
X247726Y67411D01*
X247683Y67332D01*
X247625Y67246D01*
X247554Y67138D01*
X247468Y67031D01*
X247367Y66909D01*
X247353Y66895D01*
X247317Y66852D01*
X247281Y66816D01*
X247245Y66780D01*
X247202Y66737D01*
X247145Y66680D01*
X247088Y66622D01*
X247016Y66558D01*
X246944Y66486D01*
X246858Y66407D01*
X246765Y66328D01*
X246665Y66235D01*
X246550Y66142D01*
X246435Y66041D01*
X246428Y66034D01*
X246414Y66020D01*
X246385Y65999D01*
X246349Y65970D01*
X246306Y65927D01*
X246256Y65884D01*
X246141Y65790D01*
X246019Y65683D01*
X245905Y65575D01*
X245804Y65482D01*
X245761Y65446D01*
X245725Y65411D01*
X245718Y65403D01*
X245697Y65382D01*
X245668Y65353D01*
X245632Y65310D01*
X245596Y65260D01*
X245553Y65210D01*
X245467Y65088D01*
X247912D01*
Y64500D01*
X244621D01*
Y64507D01*
Y64536D01*
Y64579D01*
X244628Y64636D01*
X244636Y64701D01*
X244650Y64772D01*
X244664Y64844D01*
X244693Y64923D01*
Y64930D01*
X244700Y64937D01*
X244714Y64980D01*
X244743Y65045D01*
X244786Y65131D01*
X244843Y65231D01*
X244915Y65346D01*
X244994Y65461D01*
X245094Y65583D01*
Y65590D01*
X245109Y65597D01*
X245145Y65640D01*
X245209Y65705D01*
X245302Y65798D01*
X245410Y65905D01*
X245546Y66034D01*
X245711Y66178D01*
X245890Y66328D01*
X245897Y66335D01*
X245926Y66357D01*
X245969Y66393D01*
X246019Y66436D01*
X246084Y66493D01*
X246163Y66558D01*
X246242Y66629D01*
X246335Y66708D01*
X246514Y66880D01*
X246693Y67053D01*
X246779Y67138D01*
X246858Y67225D01*
X246930Y67303D01*
X246987Y67382D01*
Y67390D01*
X247002Y67397D01*
X247016Y67418D01*
X247030Y67447D01*
X247080Y67526D01*
X247138Y67619D01*
X247188Y67734D01*
X247238Y67856D01*
X247267Y67992D01*
X247281Y68121D01*
Y68128D01*
Y68135D01*
X247274Y68178D01*
X247267Y68250D01*
X247245Y68329D01*
X247217Y68429D01*
X247166Y68529D01*
X247102Y68630D01*
X247016Y68730D01*
X247002Y68745D01*
X246966Y68773D01*
X246916Y68809D01*
X246837Y68859D01*
X246736Y68902D01*
X246622Y68945D01*
X246485Y68974D01*
X246335Y68981D01*
X246292D01*
X246263Y68974D01*
X246177Y68967D01*
X246077Y68945D01*
X245969Y68917D01*
X245847Y68866D01*
X245732Y68802D01*
X245625Y68716D01*
X245611Y68702D01*
X245582Y68666D01*
X245539Y68608D01*
X245496Y68522D01*
X245446Y68422D01*
X245403Y68293D01*
X245374Y68150D01*
X245360Y67985D01*
X244736Y68049D01*
Y68056D01*
X244743Y68078D01*
Y68114D01*
X244750Y68164D01*
X244765Y68221D01*
X244779Y68286D01*
X244800Y68365D01*
X244822Y68443D01*
X244879Y68616D01*
X244965Y68788D01*
X245016Y68874D01*
X245080Y68960D01*
X245145Y69039D01*
X245216Y69110D01*
X245223Y69117D01*
X245238Y69125D01*
X245259Y69146D01*
X245295Y69168D01*
X245338Y69196D01*
X245388Y69225D01*
X245446Y69261D01*
X245517Y69297D01*
X245596Y69332D01*
X245682Y69368D01*
X245776Y69397D01*
X245876Y69426D01*
X245984Y69447D01*
X246098Y69469D01*
X246220Y69476D01*
X246349Y69483D01*
X246421D01*
X246471Y69476D01*
D02*
G37*
G36*
X215663Y39500D02*
X215054D01*
Y43379D01*
X215047Y43372D01*
X215011Y43343D01*
X214968Y43300D01*
X214896Y43250D01*
X214817Y43185D01*
X214717Y43114D01*
X214602Y43035D01*
X214473Y42956D01*
X214466D01*
X214459Y42949D01*
X214416Y42920D01*
X214344Y42884D01*
X214258Y42841D01*
X214158Y42791D01*
X214050Y42741D01*
X213943Y42691D01*
X213835Y42648D01*
Y43235D01*
X213842D01*
X213857Y43250D01*
X213885Y43257D01*
X213921Y43279D01*
X213964Y43300D01*
X214014Y43329D01*
X214136Y43400D01*
X214280Y43479D01*
X214423Y43580D01*
X214574Y43694D01*
X214724Y43816D01*
X214731Y43824D01*
X214738Y43831D01*
X214760Y43852D01*
X214789Y43874D01*
X214853Y43945D01*
X214939Y44031D01*
X215025Y44132D01*
X215118Y44247D01*
X215197Y44361D01*
X215269Y44483D01*
X215663D01*
Y39500D01*
D02*
G37*
G36*
X245971Y44476D02*
X246028Y44469D01*
X246100Y44462D01*
X246179Y44447D01*
X246258Y44433D01*
X246444Y44383D01*
X246631Y44311D01*
X246724Y44268D01*
X246817Y44218D01*
X246903Y44153D01*
X246982Y44082D01*
X246989Y44074D01*
X247004Y44067D01*
X247018Y44039D01*
X247046Y44010D01*
X247082Y43974D01*
X247118Y43924D01*
X247154Y43874D01*
X247197Y43809D01*
X247269Y43673D01*
X247340Y43501D01*
X247369Y43415D01*
X247383Y43314D01*
X247398Y43214D01*
X247405Y43106D01*
Y43092D01*
Y43056D01*
X247398Y42999D01*
X247391Y42920D01*
X247376Y42834D01*
X247348Y42734D01*
X247319Y42626D01*
X247276Y42518D01*
X247269Y42504D01*
X247254Y42468D01*
X247226Y42411D01*
X247183Y42332D01*
X247125Y42246D01*
X247054Y42138D01*
X246968Y42031D01*
X246867Y41909D01*
X246853Y41895D01*
X246817Y41852D01*
X246781Y41816D01*
X246745Y41780D01*
X246702Y41737D01*
X246645Y41680D01*
X246588Y41622D01*
X246516Y41558D01*
X246444Y41486D01*
X246358Y41407D01*
X246265Y41328D01*
X246165Y41235D01*
X246050Y41142D01*
X245935Y41041D01*
X245928Y41034D01*
X245914Y41020D01*
X245885Y40999D01*
X245849Y40970D01*
X245806Y40927D01*
X245756Y40884D01*
X245641Y40791D01*
X245519Y40683D01*
X245405Y40576D01*
X245304Y40482D01*
X245261Y40446D01*
X245225Y40411D01*
X245218Y40403D01*
X245197Y40382D01*
X245168Y40353D01*
X245132Y40310D01*
X245096Y40260D01*
X245053Y40210D01*
X244967Y40088D01*
X247412D01*
Y39500D01*
X244121D01*
Y39507D01*
Y39536D01*
Y39579D01*
X244128Y39636D01*
X244135Y39701D01*
X244150Y39772D01*
X244164Y39844D01*
X244193Y39923D01*
Y39930D01*
X244200Y39937D01*
X244214Y39980D01*
X244243Y40045D01*
X244286Y40131D01*
X244343Y40231D01*
X244415Y40346D01*
X244494Y40461D01*
X244594Y40583D01*
Y40590D01*
X244609Y40597D01*
X244645Y40640D01*
X244709Y40705D01*
X244802Y40798D01*
X244910Y40905D01*
X245046Y41034D01*
X245211Y41178D01*
X245390Y41328D01*
X245397Y41335D01*
X245426Y41357D01*
X245469Y41393D01*
X245519Y41436D01*
X245584Y41493D01*
X245663Y41558D01*
X245742Y41629D01*
X245835Y41708D01*
X246014Y41880D01*
X246193Y42053D01*
X246279Y42138D01*
X246358Y42224D01*
X246430Y42303D01*
X246487Y42382D01*
Y42390D01*
X246502Y42397D01*
X246516Y42418D01*
X246530Y42447D01*
X246581Y42526D01*
X246638Y42619D01*
X246688Y42734D01*
X246738Y42856D01*
X246767Y42992D01*
X246781Y43121D01*
Y43128D01*
Y43135D01*
X246774Y43178D01*
X246767Y43250D01*
X246745Y43329D01*
X246717Y43429D01*
X246667Y43529D01*
X246602Y43630D01*
X246516Y43730D01*
X246502Y43745D01*
X246466Y43773D01*
X246416Y43809D01*
X246337Y43859D01*
X246236Y43902D01*
X246122Y43945D01*
X245985Y43974D01*
X245835Y43981D01*
X245792D01*
X245763Y43974D01*
X245677Y43967D01*
X245577Y43945D01*
X245469Y43917D01*
X245347Y43867D01*
X245233Y43802D01*
X245125Y43716D01*
X245111Y43702D01*
X245082Y43666D01*
X245039Y43608D01*
X244996Y43522D01*
X244946Y43422D01*
X244903Y43293D01*
X244874Y43150D01*
X244860Y42985D01*
X244236Y43049D01*
Y43056D01*
X244243Y43078D01*
Y43114D01*
X244250Y43164D01*
X244265Y43221D01*
X244279Y43286D01*
X244300Y43365D01*
X244322Y43444D01*
X244379Y43615D01*
X244465Y43788D01*
X244515Y43874D01*
X244580Y43960D01*
X244645Y44039D01*
X244716Y44110D01*
X244724Y44117D01*
X244738Y44125D01*
X244759Y44146D01*
X244795Y44168D01*
X244838Y44196D01*
X244888Y44225D01*
X244946Y44261D01*
X245017Y44297D01*
X245096Y44333D01*
X245182Y44368D01*
X245275Y44397D01*
X245376Y44426D01*
X245483Y44447D01*
X245598Y44469D01*
X245720Y44476D01*
X245849Y44483D01*
X245921D01*
X245971Y44476D01*
D02*
G37*
G36*
X76361Y147415D02*
X72482D01*
X72489Y147408D01*
X72518Y147372D01*
X72561Y147329D01*
X72611Y147257D01*
X72676Y147178D01*
X72747Y147078D01*
X72826Y146963D01*
X72905Y146834D01*
Y146827D01*
X72912Y146820D01*
X72941Y146777D01*
X72977Y146705D01*
X73020Y146619D01*
X73070Y146519D01*
X73120Y146411D01*
X73170Y146303D01*
X73213Y146196D01*
X72625D01*
Y146203D01*
X72611Y146217D01*
X72604Y146246D01*
X72582Y146282D01*
X72561Y146325D01*
X72532Y146375D01*
X72460Y146497D01*
X72382Y146640D01*
X72281Y146784D01*
X72166Y146934D01*
X72045Y147085D01*
X72037Y147092D01*
X72030Y147099D01*
X72009Y147121D01*
X71987Y147150D01*
X71916Y147214D01*
X71829Y147300D01*
X71729Y147386D01*
X71614Y147479D01*
X71500Y147558D01*
X71378Y147630D01*
Y148024D01*
X76361D01*
Y147415D01*
D02*
G37*
G36*
X74877Y219752D02*
X74920D01*
X75034Y219730D01*
X75171Y219709D01*
X75314Y219673D01*
X75472Y219622D01*
X75622Y219551D01*
X75630D01*
X75637Y219544D01*
X75658Y219529D01*
X75687Y219515D01*
X75759Y219472D01*
X75852Y219407D01*
X75952Y219329D01*
X76053Y219235D01*
X76153Y219121D01*
X76239Y218999D01*
Y218992D01*
X76246Y218984D01*
X76261Y218963D01*
X76268Y218934D01*
X76303Y218863D01*
X76339Y218769D01*
X76382Y218647D01*
X76411Y218511D01*
X76440Y218361D01*
X76447Y218196D01*
Y218160D01*
X76440Y218124D01*
Y218067D01*
X76433Y218002D01*
X76418Y217930D01*
X76397Y217844D01*
X76375Y217758D01*
X76347Y217658D01*
X76311Y217558D01*
X76268Y217457D01*
X76210Y217350D01*
X76146Y217249D01*
X76074Y217149D01*
X75988Y217049D01*
X75888Y216955D01*
X75880Y216948D01*
X75859Y216934D01*
X75830Y216912D01*
X75780Y216884D01*
X75716Y216841D01*
X75644Y216805D01*
X75551Y216762D01*
X75450Y216719D01*
X75328Y216669D01*
X75192Y216625D01*
X75042Y216590D01*
X74877Y216554D01*
X74690Y216518D01*
X74489Y216496D01*
X74274Y216482D01*
X74045Y216475D01*
X74038D01*
X74031D01*
X74009D01*
X73980D01*
X73909Y216482D01*
X73808D01*
X73694Y216489D01*
X73557Y216504D01*
X73407Y216518D01*
X73242Y216539D01*
X73077Y216568D01*
X72898Y216604D01*
X72726Y216647D01*
X72554Y216697D01*
X72389Y216762D01*
X72231Y216833D01*
X72080Y216912D01*
X71951Y217005D01*
X71944Y217013D01*
X71930Y217027D01*
X71901Y217056D01*
X71858Y217091D01*
X71815Y217134D01*
X71772Y217192D01*
X71715Y217264D01*
X71665Y217335D01*
X71614Y217421D01*
X71557Y217515D01*
X71514Y217622D01*
X71464Y217730D01*
X71428Y217851D01*
X71399Y217981D01*
X71385Y218117D01*
X71378Y218260D01*
Y218318D01*
X71385Y218361D01*
Y218411D01*
X71392Y218468D01*
X71421Y218604D01*
X71457Y218755D01*
X71514Y218913D01*
X71600Y219070D01*
X71650Y219149D01*
X71708Y219221D01*
X71715Y219228D01*
X71722Y219235D01*
X71743Y219257D01*
X71765Y219278D01*
X71801Y219314D01*
X71844Y219343D01*
X71944Y219422D01*
X72073Y219501D01*
X72231Y219572D01*
X72410Y219637D01*
X72611Y219680D01*
X72661Y219070D01*
X72654D01*
X72647Y219063D01*
X72604Y219056D01*
X72539Y219035D01*
X72460Y219006D01*
X72374Y218977D01*
X72288Y218934D01*
X72210Y218884D01*
X72145Y218834D01*
X72131Y218819D01*
X72102Y218791D01*
X72059Y218741D01*
X72009Y218669D01*
X71966Y218576D01*
X71923Y218475D01*
X71894Y218353D01*
X71880Y218224D01*
Y218174D01*
X71887Y218117D01*
X71901Y218052D01*
X71923Y217966D01*
X71951Y217880D01*
X71987Y217794D01*
X72045Y217708D01*
X72052Y217694D01*
X72080Y217658D01*
X72131Y217608D01*
X72202Y217543D01*
X72288Y217472D01*
X72389Y217393D01*
X72518Y217321D01*
X72661Y217249D01*
X72668D01*
X72683Y217242D01*
X72704Y217235D01*
X72733Y217221D01*
X72776Y217213D01*
X72826Y217199D01*
X72883Y217185D01*
X72955Y217170D01*
X73034Y217149D01*
X73120Y217134D01*
X73213Y217120D01*
X73314Y217113D01*
X73428Y217099D01*
X73543Y217091D01*
X73672Y217084D01*
X73801D01*
X73794Y217091D01*
X73751Y217120D01*
X73694Y217170D01*
X73622Y217235D01*
X73536Y217307D01*
X73457Y217400D01*
X73378Y217500D01*
X73307Y217615D01*
Y217622D01*
X73299Y217629D01*
X73278Y217672D01*
X73256Y217737D01*
X73220Y217823D01*
X73192Y217923D01*
X73170Y218038D01*
X73149Y218160D01*
X73142Y218289D01*
Y218346D01*
X73149Y218389D01*
X73156Y218447D01*
X73163Y218504D01*
X73177Y218576D01*
X73199Y218647D01*
X73249Y218812D01*
X73285Y218898D01*
X73335Y218984D01*
X73385Y219070D01*
X73443Y219164D01*
X73514Y219250D01*
X73593Y219329D01*
X73600Y219336D01*
X73615Y219350D01*
X73636Y219372D01*
X73672Y219393D01*
X73722Y219429D01*
X73773Y219465D01*
X73837Y219501D01*
X73909Y219544D01*
X73988Y219587D01*
X74074Y219622D01*
X74174Y219658D01*
X74274Y219694D01*
X74382Y219716D01*
X74504Y219737D01*
X74626Y219752D01*
X74755Y219759D01*
X74762D01*
X74776D01*
X74798D01*
X74834D01*
X74877Y219752D01*
D02*
G37*
G36*
X193861Y147415D02*
X189982D01*
X189989Y147408D01*
X190018Y147372D01*
X190061Y147329D01*
X190111Y147257D01*
X190175Y147178D01*
X190247Y147078D01*
X190326Y146963D01*
X190405Y146834D01*
Y146827D01*
X190412Y146820D01*
X190441Y146777D01*
X190477Y146705D01*
X190520Y146619D01*
X190570Y146519D01*
X190620Y146411D01*
X190670Y146303D01*
X190713Y146196D01*
X190125D01*
Y146203D01*
X190111Y146217D01*
X190104Y146246D01*
X190082Y146282D01*
X190061Y146325D01*
X190032Y146375D01*
X189960Y146497D01*
X189882Y146640D01*
X189781Y146784D01*
X189666Y146934D01*
X189545Y147085D01*
X189537Y147092D01*
X189530Y147099D01*
X189509Y147121D01*
X189487Y147150D01*
X189416Y147214D01*
X189329Y147300D01*
X189229Y147386D01*
X189114Y147479D01*
X189000Y147558D01*
X188878Y147630D01*
Y148024D01*
X193861D01*
Y147415D01*
D02*
G37*
G36*
X192377Y219752D02*
X192420D01*
X192534Y219730D01*
X192671Y219709D01*
X192814Y219673D01*
X192972Y219622D01*
X193122Y219551D01*
X193130D01*
X193137Y219544D01*
X193158Y219529D01*
X193187Y219515D01*
X193259Y219472D01*
X193352Y219407D01*
X193452Y219329D01*
X193553Y219235D01*
X193653Y219121D01*
X193739Y218999D01*
Y218992D01*
X193746Y218984D01*
X193761Y218963D01*
X193768Y218934D01*
X193804Y218863D01*
X193839Y218769D01*
X193882Y218647D01*
X193911Y218511D01*
X193940Y218361D01*
X193947Y218196D01*
Y218160D01*
X193940Y218124D01*
Y218067D01*
X193933Y218002D01*
X193918Y217930D01*
X193897Y217844D01*
X193875Y217758D01*
X193847Y217658D01*
X193811Y217558D01*
X193768Y217457D01*
X193710Y217350D01*
X193646Y217249D01*
X193574Y217149D01*
X193488Y217049D01*
X193388Y216955D01*
X193380Y216948D01*
X193359Y216934D01*
X193330Y216912D01*
X193280Y216884D01*
X193216Y216841D01*
X193144Y216805D01*
X193051Y216762D01*
X192950Y216719D01*
X192828Y216669D01*
X192692Y216625D01*
X192542Y216590D01*
X192377Y216554D01*
X192190Y216518D01*
X191990Y216496D01*
X191774Y216482D01*
X191545Y216475D01*
X191538D01*
X191531D01*
X191509D01*
X191480D01*
X191409Y216482D01*
X191308D01*
X191194Y216489D01*
X191057Y216504D01*
X190907Y216518D01*
X190742Y216539D01*
X190577Y216568D01*
X190398Y216604D01*
X190226Y216647D01*
X190054Y216697D01*
X189889Y216762D01*
X189731Y216833D01*
X189580Y216912D01*
X189451Y217005D01*
X189444Y217013D01*
X189430Y217027D01*
X189401Y217056D01*
X189358Y217091D01*
X189315Y217134D01*
X189272Y217192D01*
X189215Y217264D01*
X189164Y217335D01*
X189114Y217421D01*
X189057Y217515D01*
X189014Y217622D01*
X188964Y217730D01*
X188928Y217851D01*
X188899Y217981D01*
X188885Y218117D01*
X188878Y218260D01*
Y218318D01*
X188885Y218361D01*
Y218411D01*
X188892Y218468D01*
X188921Y218604D01*
X188957Y218755D01*
X189014Y218913D01*
X189100Y219070D01*
X189150Y219149D01*
X189208Y219221D01*
X189215Y219228D01*
X189222Y219235D01*
X189243Y219257D01*
X189265Y219278D01*
X189301Y219314D01*
X189344Y219343D01*
X189444Y219422D01*
X189573Y219501D01*
X189731Y219572D01*
X189910Y219637D01*
X190111Y219680D01*
X190161Y219070D01*
X190154D01*
X190147Y219063D01*
X190104Y219056D01*
X190039Y219035D01*
X189960Y219006D01*
X189874Y218977D01*
X189788Y218934D01*
X189709Y218884D01*
X189645Y218834D01*
X189631Y218819D01*
X189602Y218791D01*
X189559Y218741D01*
X189509Y218669D01*
X189466Y218576D01*
X189423Y218475D01*
X189394Y218353D01*
X189380Y218224D01*
Y218174D01*
X189387Y218117D01*
X189401Y218052D01*
X189423Y217966D01*
X189451Y217880D01*
X189487Y217794D01*
X189545Y217708D01*
X189552Y217694D01*
X189580Y217658D01*
X189631Y217608D01*
X189702Y217543D01*
X189788Y217472D01*
X189889Y217393D01*
X190018Y217321D01*
X190161Y217249D01*
X190168D01*
X190183Y217242D01*
X190204Y217235D01*
X190233Y217221D01*
X190276Y217213D01*
X190326Y217199D01*
X190383Y217185D01*
X190455Y217170D01*
X190534Y217149D01*
X190620Y217134D01*
X190713Y217120D01*
X190814Y217113D01*
X190928Y217099D01*
X191043Y217091D01*
X191172Y217084D01*
X191301D01*
X191294Y217091D01*
X191251Y217120D01*
X191194Y217170D01*
X191122Y217235D01*
X191036Y217307D01*
X190957Y217400D01*
X190878Y217500D01*
X190806Y217615D01*
Y217622D01*
X190799Y217629D01*
X190778Y217672D01*
X190756Y217737D01*
X190720Y217823D01*
X190692Y217923D01*
X190670Y218038D01*
X190649Y218160D01*
X190642Y218289D01*
Y218346D01*
X190649Y218389D01*
X190656Y218447D01*
X190663Y218504D01*
X190677Y218576D01*
X190699Y218647D01*
X190749Y218812D01*
X190785Y218898D01*
X190835Y218984D01*
X190885Y219070D01*
X190943Y219164D01*
X191014Y219250D01*
X191093Y219329D01*
X191100Y219336D01*
X191115Y219350D01*
X191136Y219372D01*
X191172Y219393D01*
X191222Y219429D01*
X191272Y219465D01*
X191337Y219501D01*
X191409Y219544D01*
X191488Y219587D01*
X191574Y219622D01*
X191674Y219658D01*
X191774Y219694D01*
X191882Y219716D01*
X192004Y219737D01*
X192126Y219752D01*
X192255Y219759D01*
X192262D01*
X192276D01*
X192298D01*
X192334D01*
X192377Y219752D01*
D02*
G37*
%LPC*%
G36*
X74791Y219135D02*
X74783D01*
X74769D01*
X74740D01*
X74705Y219128D01*
X74662D01*
X74611Y219121D01*
X74497Y219099D01*
X74368Y219070D01*
X74231Y219020D01*
X74102Y218949D01*
X73980Y218855D01*
X73966Y218841D01*
X73930Y218805D01*
X73887Y218748D01*
X73830Y218669D01*
X73773Y218568D01*
X73729Y218454D01*
X73694Y218318D01*
X73679Y218167D01*
Y218124D01*
X73686Y218095D01*
X73694Y218024D01*
X73715Y217923D01*
X73751Y217816D01*
X73808Y217694D01*
X73880Y217579D01*
X73980Y217464D01*
X73995Y217450D01*
X74031Y217421D01*
X74095Y217371D01*
X74188Y217321D01*
X74296Y217271D01*
X74432Y217221D01*
X74583Y217192D01*
X74755Y217178D01*
X74769D01*
X74805D01*
X74870Y217185D01*
X74948Y217192D01*
X75042Y217206D01*
X75142Y217235D01*
X75249Y217264D01*
X75357Y217307D01*
X75371Y217314D01*
X75407Y217335D01*
X75458Y217364D01*
X75522Y217407D01*
X75586Y217457D01*
X75665Y217522D01*
X75730Y217593D01*
X75795Y217680D01*
X75802Y217694D01*
X75816Y217723D01*
X75845Y217773D01*
X75866Y217837D01*
X75895Y217909D01*
X75924Y217995D01*
X75938Y218088D01*
X75945Y218189D01*
Y218224D01*
X75938Y218253D01*
X75931Y218325D01*
X75909Y218418D01*
X75866Y218518D01*
X75816Y218633D01*
X75737Y218748D01*
X75694Y218805D01*
X75637Y218855D01*
X75630D01*
X75622Y218870D01*
X75579Y218898D01*
X75508Y218941D01*
X75414Y218999D01*
X75293Y219049D01*
X75149Y219092D01*
X74984Y219121D01*
X74791Y219135D01*
D02*
G37*
G36*
X192291D02*
X192283D01*
X192269D01*
X192241D01*
X192205Y219128D01*
X192162D01*
X192111Y219121D01*
X191997Y219099D01*
X191868Y219070D01*
X191731Y219020D01*
X191602Y218949D01*
X191480Y218855D01*
X191466Y218841D01*
X191430Y218805D01*
X191387Y218748D01*
X191330Y218669D01*
X191272Y218568D01*
X191229Y218454D01*
X191194Y218318D01*
X191179Y218167D01*
Y218124D01*
X191186Y218095D01*
X191194Y218024D01*
X191215Y217923D01*
X191251Y217816D01*
X191308Y217694D01*
X191380Y217579D01*
X191480Y217464D01*
X191495Y217450D01*
X191531Y217421D01*
X191595Y217371D01*
X191688Y217321D01*
X191796Y217271D01*
X191932Y217221D01*
X192083Y217192D01*
X192255Y217178D01*
X192269D01*
X192305D01*
X192369Y217185D01*
X192448Y217192D01*
X192542Y217206D01*
X192642Y217235D01*
X192750Y217264D01*
X192857Y217307D01*
X192871Y217314D01*
X192907Y217335D01*
X192957Y217364D01*
X193022Y217407D01*
X193087Y217457D01*
X193165Y217522D01*
X193230Y217593D01*
X193295Y217680D01*
X193302Y217694D01*
X193316Y217723D01*
X193345Y217773D01*
X193366Y217837D01*
X193395Y217909D01*
X193423Y217995D01*
X193438Y218088D01*
X193445Y218189D01*
Y218224D01*
X193438Y218253D01*
X193431Y218325D01*
X193409Y218418D01*
X193366Y218518D01*
X193316Y218633D01*
X193237Y218748D01*
X193194Y218805D01*
X193137Y218855D01*
X193130D01*
X193122Y218870D01*
X193079Y218898D01*
X193008Y218941D01*
X192914Y218999D01*
X192793Y219049D01*
X192649Y219092D01*
X192484Y219121D01*
X192291Y219135D01*
D02*
G37*
%LPD*%
D56*
X233015Y121516D02*
Y125453D01*
X231047Y123485D02*
X234984D01*
X213893Y202888D02*
X217829D01*
X215861Y200920D02*
Y204857D01*
X174641Y83531D02*
Y87468D01*
X172672Y85500D02*
X176610D01*
X22392Y201888D02*
X26329D01*
X24361Y199920D02*
Y203857D01*
X101861Y206920D02*
Y210857D01*
X99892Y208889D02*
X103830D01*
X103393Y90889D02*
X107329D01*
X105361Y88920D02*
Y92857D01*
D58*
X18861Y242376D02*
Y242888D01*
X17861Y241888D02*
X18861Y242376D01*
X17861Y232889D02*
Y241888D01*
Y232889D02*
X19160D01*
Y233687D01*
X26562D01*
Y232889D02*
Y233687D01*
Y232889D02*
X27861D01*
Y241888D01*
X26861Y242376D02*
X27861Y241888D01*
X26861Y242376D02*
Y242888D01*
X21609Y236636D02*
X24113D01*
Y239141D01*
X21609D02*
X24113D01*
X21609Y236636D02*
Y239141D01*
X26861Y242888D02*
Y243401D01*
X27861Y243888D01*
Y252888D01*
X17861D02*
X27861D01*
X17861Y243888D02*
Y252888D01*
Y243888D02*
X18861Y243401D01*
Y242888D02*
Y243401D01*
X21609Y246637D02*
X24113D01*
Y249141D01*
X21609D02*
X24113D01*
X21609Y246637D02*
Y249141D01*
X230988Y71000D02*
X231500D01*
X230500Y72000D02*
X230988Y71000D01*
X221500Y72000D02*
X230500D01*
X221500Y70701D02*
Y72000D01*
Y70701D02*
X222299D01*
Y63299D02*
Y70701D01*
X221500Y63299D02*
X222299D01*
X221500Y62000D02*
Y63299D01*
Y62000D02*
X230500D01*
X230988Y63000D01*
X231500D01*
X225248Y65748D02*
Y68252D01*
Y65748D02*
X227752D01*
Y68252D01*
X225248D02*
X227752D01*
X231500Y63000D02*
X232012D01*
X232500Y62000D01*
X241500D01*
Y72000D01*
X232500D02*
X241500D01*
X232012Y71000D02*
X232500Y72000D01*
X231500Y71000D02*
X232012D01*
X235248Y65748D02*
Y68252D01*
Y65748D02*
X237752D01*
Y68252D01*
X235248D02*
X237752D01*
X230488Y46000D02*
X231000D01*
X230000Y47000D02*
X230488Y46000D01*
X221000Y47000D02*
X230000D01*
X221000Y45701D02*
Y47000D01*
Y45701D02*
X221799D01*
Y38299D02*
Y45701D01*
X221000Y38299D02*
X221799D01*
X221000Y37000D02*
Y38299D01*
Y37000D02*
X230000D01*
X230488Y38000D01*
X231000D01*
X224748Y40748D02*
Y43252D01*
Y40748D02*
X227252D01*
Y43252D01*
X224748D02*
X227252D01*
X231000Y38000D02*
X231512D01*
X232000Y37000D01*
X241000D01*
Y47000D01*
X232000D02*
X241000D01*
X231512Y46000D02*
X232000Y47000D01*
X231000Y46000D02*
X231512D01*
X234748Y40748D02*
Y43252D01*
Y40748D02*
X237252D01*
Y43252D01*
X234748D02*
X237252D01*
X69861Y162849D02*
Y163361D01*
X68861Y162361D02*
X69861Y162849D01*
X68861Y153361D02*
Y162361D01*
Y153361D02*
X70160D01*
Y154160D01*
X77562D01*
Y153361D02*
Y154160D01*
Y153361D02*
X78861D01*
Y162361D01*
X77861Y162849D02*
X78861Y162361D01*
X77861Y162849D02*
Y163361D01*
X72609Y157109D02*
X75113D01*
Y159613D01*
X72609D02*
X75113D01*
X72609Y157109D02*
Y159613D01*
X69861Y163361D02*
Y163873D01*
X77861Y163361D02*
Y163873D01*
X68861Y164361D02*
X69861Y163873D01*
X68861Y164361D02*
Y172361D01*
X69861Y172849D01*
Y173361D01*
X77861Y163873D02*
X78861Y164361D01*
Y172361D01*
X77861Y172849D02*
X78861Y172361D01*
X77861Y172849D02*
Y173361D01*
X72609Y167109D02*
X75113D01*
Y169613D01*
X72609D02*
X75113D01*
X72609Y167109D02*
Y169613D01*
X68861Y174361D02*
X69861Y173873D01*
X68861Y174361D02*
Y182361D01*
X69861Y182849D01*
Y183361D01*
X77861Y173873D02*
X78861Y174361D01*
Y182361D01*
X77861Y182849D02*
X78861Y182361D01*
X77861Y182849D02*
Y183361D01*
X69861Y173361D02*
Y173873D01*
X77861Y173361D02*
Y173873D01*
X72609Y177109D02*
X75113D01*
Y179613D01*
X72609D02*
X75113D01*
X72609Y177109D02*
Y179613D01*
X68861Y184361D02*
X69861Y183873D01*
X68861Y184361D02*
Y192361D01*
X69861Y192849D01*
Y193361D01*
X77861Y183873D02*
X78861Y184361D01*
Y192361D01*
X77861Y192849D02*
X78861Y192361D01*
X77861Y192849D02*
Y193361D01*
X72609Y187109D02*
X75113D01*
Y189613D01*
X72609D02*
X75113D01*
X72609Y187109D02*
Y189613D01*
X69861Y183361D02*
Y183873D01*
X77861Y183361D02*
Y183873D01*
X68861Y194361D02*
X69861Y193873D01*
X68861Y194361D02*
Y202361D01*
X69861Y202849D01*
Y203361D01*
X77861Y193873D02*
X78861Y194361D01*
Y202361D01*
X77861Y202849D02*
X78861Y202361D01*
X77861Y202849D02*
Y203361D01*
X72609Y197109D02*
X75113D01*
Y199613D01*
X72609D02*
X75113D01*
X72609Y197109D02*
Y199613D01*
X69861Y193361D02*
Y193873D01*
X77861Y193361D02*
Y193873D01*
X72609Y207109D02*
X75113D01*
Y209613D01*
X72609D02*
X75113D01*
X72609Y207109D02*
Y209613D01*
X77861Y203361D02*
Y203873D01*
X78861Y204361D01*
Y213361D01*
X68861D02*
X78861D01*
X68861Y204361D02*
Y213361D01*
Y204361D02*
X69861Y203873D01*
Y203361D02*
Y203873D01*
X187361Y162849D02*
Y163361D01*
X186361Y162361D02*
X187361Y162849D01*
X186361Y153361D02*
Y162361D01*
Y153361D02*
X187660D01*
Y154160D01*
X195062D01*
Y153361D02*
Y154160D01*
Y153361D02*
X196361D01*
Y162361D01*
X195361Y162849D02*
X196361Y162361D01*
X195361Y162849D02*
Y163361D01*
X190109Y157109D02*
X192613D01*
Y159613D01*
X190109D02*
X192613D01*
X190109Y157109D02*
Y159613D01*
X187361Y163361D02*
Y163873D01*
X195361Y163361D02*
Y163873D01*
X186361Y164361D02*
X187361Y163873D01*
X186361Y164361D02*
Y172361D01*
X187361Y172849D01*
Y173361D01*
X195361Y163873D02*
X196361Y164361D01*
Y172361D01*
X195361Y172849D02*
X196361Y172361D01*
X195361Y172849D02*
Y173361D01*
X190109Y167109D02*
X192613D01*
Y169613D01*
X190109D02*
X192613D01*
X190109Y167109D02*
Y169613D01*
X186361Y174361D02*
X187361Y173873D01*
X186361Y174361D02*
Y182361D01*
X187361Y182849D01*
Y183361D01*
X195361Y173873D02*
X196361Y174361D01*
Y182361D01*
X195361Y182849D02*
X196361Y182361D01*
X195361Y182849D02*
Y183361D01*
X187361Y173361D02*
Y173873D01*
X195361Y173361D02*
Y173873D01*
X190109Y177109D02*
X192613D01*
Y179613D01*
X190109D02*
X192613D01*
X190109Y177109D02*
Y179613D01*
X186361Y184361D02*
X187361Y183873D01*
X186361Y184361D02*
Y192361D01*
X187361Y192849D01*
Y193361D01*
X195361Y183873D02*
X196361Y184361D01*
Y192361D01*
X195361Y192849D02*
X196361Y192361D01*
X195361Y192849D02*
Y193361D01*
X190109Y187109D02*
X192613D01*
Y189613D01*
X190109D02*
X192613D01*
X190109Y187109D02*
Y189613D01*
X187361Y183361D02*
Y183873D01*
X195361Y183361D02*
Y183873D01*
X186361Y194361D02*
X187361Y193873D01*
X186361Y194361D02*
Y202361D01*
X187361Y202849D01*
Y203361D01*
X195361Y193873D02*
X196361Y194361D01*
Y202361D01*
X195361Y202849D02*
X196361Y202361D01*
X195361Y202849D02*
Y203361D01*
X190109Y197109D02*
X192613D01*
Y199613D01*
X190109D02*
X192613D01*
X190109Y197109D02*
Y199613D01*
X187361Y193361D02*
Y193873D01*
X195361Y193361D02*
Y193873D01*
X190109Y207109D02*
X192613D01*
Y209613D01*
X190109D02*
X192613D01*
X190109Y207109D02*
Y209613D01*
X195361Y203361D02*
Y203873D01*
X196361Y204361D01*
Y213361D01*
X186361D02*
X196361D01*
X186361Y204361D02*
Y213361D01*
Y204361D02*
X187361Y203873D01*
Y203361D02*
Y203873D01*
M02*
