M48
;Layer_Color=9474304
;FILE_FORMAT=2:4
INCH,TZ
;TYPE=PLATED
T1F00S00C0.0160
T2F00S00C0.0280
T3F00S00C0.0394
T4F00S00C0.0402
T5F00S00C0.1200
%
T01
X10936Y4136
X19366Y3626
X21806Y10216
X22556Y11566
X22576Y12196
X22556Y12866
X23886Y11066
X24186Y10246
X26326Y6246
X25216Y17185
X18266Y16306
X18306Y15826
X16238Y15879
X16136Y15466
X14756Y15506
X15056Y15983
X14536Y14136
X11846Y14296
X11426Y17906
X13306Y18791
X14396Y18036
X13886Y17256
X17186Y11886
X16836Y10246
X18916Y11246
X19386Y11806
X19356Y12459
X19616Y13936
X20826Y13676
X6486Y12766
X3766Y10826
X1806Y10806
X12946Y23839
T02
X17211Y16721
T03
X5407Y24103
Y25875
X7966
Y24103
T04
X2636Y2089
X3636
X4636
X5636
X6636
X7636
X8636
X9636
X10636
X11636
X12636
X13636
X14636
X15636
X16636
X17636
X18636
X19636
X20636
X21636
X22600Y4200
X23600
X23650Y6700
X22650
X19136Y15836
Y16836
Y17836
Y18836
Y19836
Y20836
X7386
Y19836
Y18836
Y17836
Y16836
Y15836
X2986Y11289
Y10289
Y9289
Y8289
Y7289
Y6289
X2286Y23789
Y24789
X10536Y25239
X11536
X12536
Y24239
X11536
X10536
X14986Y23839
X15986
X16986
Y24839
X15986
X14986
T05
X950Y1050
X27300
X950Y26500
X27300
M30
