G04*
G04 #@! TF.GenerationSoftware,Altium Limited,Altium Designer,22.0.2 (36)*
G04*
G04 Layer_Color=255*
%FSLAX25Y25*%
%MOIN*%
G70*
G04*
G04 #@! TF.SameCoordinates,531B55E9-8988-4262-B8BE-2375E0DFDCCA*
G04*
G04*
G04 #@! TF.FilePolarity,Positive*
G04*
G01*
G75*
%ADD18R,0.07874X0.21654*%
G04:AMPARAMS|DCode=19|XSize=80.82mil|YSize=17.91mil|CornerRadius=8.96mil|HoleSize=0mil|Usage=FLASHONLY|Rotation=0.000|XOffset=0mil|YOffset=0mil|HoleType=Round|Shape=RoundedRectangle|*
%AMROUNDEDRECTD19*
21,1,0.08082,0.00000,0,0,0.0*
21,1,0.06291,0.01791,0,0,0.0*
1,1,0.01791,0.03146,0.00000*
1,1,0.01791,-0.03146,0.00000*
1,1,0.01791,-0.03146,0.00000*
1,1,0.01791,0.03146,0.00000*
%
%ADD19ROUNDEDRECTD19*%
%ADD20R,0.08082X0.01791*%
%ADD21R,0.03937X0.05315*%
%ADD22R,0.03543X0.07087*%
%ADD23R,0.21457X0.24410*%
%ADD24R,0.03858X0.09449*%
%ADD25R,0.05315X0.03937*%
%ADD26O,0.02362X0.07677*%
%ADD27O,0.07677X0.02362*%
%ADD28R,0.05151X0.03960*%
%ADD29R,0.03960X0.05151*%
%ADD47R,0.23071X0.21929*%
%ADD49C,0.06378*%
%ADD50C,0.05906*%
%ADD51R,0.05394X0.05394*%
%ADD52C,0.05394*%
D18*
X127500Y90902D02*
D03*
Y53500D02*
D03*
X104361Y164589D02*
D03*
Y127188D02*
D03*
D19*
X246500Y140118D02*
D03*
Y137559D02*
D03*
Y135000D02*
D03*
Y132441D02*
D03*
Y129882D02*
D03*
Y127323D02*
D03*
Y124764D02*
D03*
Y122205D02*
D03*
Y119646D02*
D03*
Y117087D02*
D03*
Y114528D02*
D03*
Y111969D02*
D03*
Y109410D02*
D03*
Y106851D02*
D03*
X219531D02*
D03*
Y109410D02*
D03*
Y111969D02*
D03*
Y114528D02*
D03*
Y117087D02*
D03*
Y119646D02*
D03*
Y122205D02*
D03*
Y124764D02*
D03*
Y127323D02*
D03*
Y129882D02*
D03*
Y132441D02*
D03*
Y135000D02*
D03*
Y137559D02*
D03*
D20*
Y140118D02*
D03*
D21*
X251953Y212000D02*
D03*
X246047D02*
D03*
D22*
X75361Y72888D02*
D03*
X57408D02*
D03*
D23*
X66385Y48479D02*
D03*
D24*
X71314Y133388D02*
D03*
X53361D02*
D03*
D25*
X177000Y48547D02*
D03*
Y54453D02*
D03*
X249361Y182361D02*
D03*
Y188267D02*
D03*
X267361Y181361D02*
D03*
Y187267D02*
D03*
X25361Y158483D02*
D03*
Y164389D02*
D03*
D26*
X144337Y167121D02*
D03*
X147487D02*
D03*
X150636D02*
D03*
X153786D02*
D03*
X156936D02*
D03*
X160085D02*
D03*
X163235D02*
D03*
X166384D02*
D03*
Y133656D02*
D03*
X163235D02*
D03*
X160085D02*
D03*
X156936D02*
D03*
X153786D02*
D03*
X150636D02*
D03*
X147487D02*
D03*
X144337D02*
D03*
D27*
X172093Y161412D02*
D03*
Y158263D02*
D03*
Y155113D02*
D03*
Y151963D02*
D03*
Y148814D02*
D03*
Y145664D02*
D03*
Y142515D02*
D03*
Y139365D02*
D03*
X138629D02*
D03*
Y142515D02*
D03*
Y145664D02*
D03*
Y148814D02*
D03*
Y151963D02*
D03*
Y155113D02*
D03*
Y158263D02*
D03*
Y161412D02*
D03*
D28*
X215861Y205748D02*
D03*
Y200029D02*
D03*
X24361Y204748D02*
D03*
Y199029D02*
D03*
X105361Y93748D02*
D03*
Y88029D02*
D03*
D29*
X177500Y85500D02*
D03*
X171782D02*
D03*
X104720Y208889D02*
D03*
X99002D02*
D03*
D47*
X62337Y107129D02*
D03*
D49*
X22861Y237889D02*
D03*
Y247888D02*
D03*
X226500Y67000D02*
D03*
X236500D02*
D03*
X226000Y42000D02*
D03*
X236000D02*
D03*
X73861Y158361D02*
D03*
Y168361D02*
D03*
Y178361D02*
D03*
Y188361D02*
D03*
Y198361D02*
D03*
Y208361D02*
D03*
X191361Y158361D02*
D03*
Y168361D02*
D03*
Y178361D02*
D03*
Y188361D02*
D03*
Y198361D02*
D03*
Y208361D02*
D03*
X29861Y62888D02*
D03*
Y72888D02*
D03*
Y82889D02*
D03*
Y92888D02*
D03*
Y102889D02*
D03*
Y112889D02*
D03*
D50*
X54066Y241030D02*
D03*
Y258747D02*
D03*
X79656D02*
D03*
Y241030D02*
D03*
D51*
X125361Y252389D02*
D03*
X216361Y20888D02*
D03*
X169861Y248389D02*
D03*
D52*
X125361Y242389D02*
D03*
X115361Y252389D02*
D03*
Y242389D02*
D03*
X105361Y252389D02*
D03*
Y242389D02*
D03*
X206361Y20888D02*
D03*
X196361D02*
D03*
X186361D02*
D03*
X176361D02*
D03*
X166361D02*
D03*
X156361D02*
D03*
X146361D02*
D03*
X136361D02*
D03*
X126361D02*
D03*
X116361D02*
D03*
X106361D02*
D03*
X96361D02*
D03*
X86361D02*
D03*
X76361D02*
D03*
X66361D02*
D03*
X56361D02*
D03*
X46361D02*
D03*
X36361D02*
D03*
X26361D02*
D03*
X169861Y238388D02*
D03*
X159861Y248389D02*
D03*
Y238388D02*
D03*
X149861Y248389D02*
D03*
Y238388D02*
D03*
M02*
