G04*
G04 #@! TF.GenerationSoftware,Altium Limited,Altium Designer,22.0.2 (36)*
G04*
G04 Layer_Physical_Order=2*
G04 Layer_Color=16711680*
%FSLAX25Y25*%
%MOIN*%
G70*
G04*
G04 #@! TF.SameCoordinates,531B55E9-8988-4262-B8BE-2375E0DFDCCA*
G04*
G04*
G04 #@! TF.FilePolarity,Positive*
G04*
G01*
G75*
%ADD48C,0.01500*%
%ADD49C,0.06378*%
%ADD50C,0.05906*%
%ADD51R,0.05394X0.05394*%
%ADD52C,0.05394*%
%ADD53C,0.15000*%
%ADD54C,0.02800*%
%ADD55C,0.05000*%
G36*
X281561Y273473D02*
X282213Y273203D01*
X282773Y272773D01*
X283203Y272213D01*
X283473Y271561D01*
X283545Y271014D01*
X283521Y270528D01*
X283521Y270528D01*
X283535Y270053D01*
X283535Y269876D01*
Y4846D01*
X283535Y4669D01*
X283521Y4194D01*
X283521Y4194D01*
X283545Y3708D01*
X283473Y3161D01*
X283203Y2509D01*
X282773Y1949D01*
X282213Y1519D01*
X281561Y1249D01*
X281014Y1177D01*
X280528Y1201D01*
X280528Y1200D01*
X280053Y1186D01*
X279876Y1186D01*
X4846D01*
X4669Y1186D01*
X4194Y1200D01*
X4194Y1200D01*
X3708Y1177D01*
X3161Y1249D01*
X2509Y1519D01*
X1949Y1949D01*
X1519Y2509D01*
X1249Y3161D01*
X1177Y3708D01*
X1200Y4194D01*
X1200Y4194D01*
X1186Y4669D01*
X1186Y4846D01*
Y269876D01*
X1186Y270053D01*
X1200Y270528D01*
X1200Y270528D01*
X1177Y271014D01*
X1249Y271561D01*
X1519Y272213D01*
X1949Y272773D01*
X2509Y273203D01*
X3161Y273473D01*
X3708Y273545D01*
X4194Y273521D01*
X4194Y273521D01*
X4669Y273535D01*
X4846Y273535D01*
X279876D01*
X280053Y273535D01*
X280528Y273521D01*
X280528Y273521D01*
X281014Y273545D01*
X281561Y273473D01*
D02*
G37*
%LPC*%
G36*
X80656Y262602D02*
Y259747D01*
X83511D01*
X83507Y259779D01*
X83109Y260740D01*
X82475Y261566D01*
X81650Y262199D01*
X80688Y262598D01*
X80656Y262602D01*
D02*
G37*
G36*
X78656D02*
X78624Y262598D01*
X77663Y262199D01*
X76837Y261566D01*
X76203Y260740D01*
X75805Y259779D01*
X75801Y259747D01*
X78656D01*
Y262602D01*
D02*
G37*
G36*
X54066Y262532D02*
X53086Y262403D01*
X52173Y262025D01*
X51389Y261423D01*
X50788Y260639D01*
X50410Y259726D01*
X50281Y258747D01*
X50410Y257767D01*
X50788Y256854D01*
X51389Y256070D01*
X52173Y255469D01*
X53086Y255090D01*
X54066Y254962D01*
X55045Y255090D01*
X55958Y255469D01*
X56742Y256070D01*
X57344Y256854D01*
X57722Y257767D01*
X57851Y258747D01*
X57722Y259726D01*
X57344Y260639D01*
X56742Y261423D01*
X55958Y262025D01*
X55045Y262403D01*
X54066Y262532D01*
D02*
G37*
G36*
X83511Y257747D02*
X80656D01*
Y254891D01*
X80688Y254896D01*
X81650Y255294D01*
X82475Y255928D01*
X83109Y256753D01*
X83507Y257715D01*
X83511Y257747D01*
D02*
G37*
G36*
X78656D02*
X75801D01*
X75805Y257715D01*
X76203Y256753D01*
X76837Y255928D01*
X77663Y255294D01*
X78624Y254896D01*
X78656Y254891D01*
Y257747D01*
D02*
G37*
G36*
X105361Y255915D02*
X104448Y255795D01*
X103597Y255443D01*
X102867Y254883D01*
X102306Y254152D01*
X101954Y253301D01*
X101834Y252389D01*
X101954Y251476D01*
X102306Y250625D01*
X102867Y249894D01*
X103597Y249334D01*
X104448Y248982D01*
X105361Y248862D01*
X106274Y248982D01*
X107124Y249334D01*
X107855Y249894D01*
X108415Y250625D01*
X108768Y251476D01*
X108888Y252389D01*
X108768Y253301D01*
X108415Y254152D01*
X107855Y254883D01*
X107124Y255443D01*
X106274Y255795D01*
X105361Y255915D01*
D02*
G37*
G36*
X187461Y268741D02*
X130133D01*
X129528Y268621D01*
X129016Y268278D01*
X116457Y255719D01*
X116274Y255795D01*
X115361Y255915D01*
X114448Y255795D01*
X113597Y255443D01*
X112867Y254883D01*
X112306Y254152D01*
X111954Y253301D01*
X111834Y252389D01*
X111954Y251476D01*
X112306Y250625D01*
X112867Y249894D01*
X113597Y249334D01*
X114448Y248982D01*
X115361Y248862D01*
X116274Y248982D01*
X117124Y249334D01*
X117855Y249894D01*
X118415Y250625D01*
X118768Y251476D01*
X118888Y252389D01*
X118768Y253301D01*
X118692Y253485D01*
X130788Y265581D01*
X135611D01*
X135818Y265080D01*
X126623Y255885D01*
X121864D01*
Y248892D01*
X128858D01*
Y253650D01*
X138088Y262880D01*
X153134D01*
X166364Y249650D01*
Y244941D01*
X165543D01*
X163192Y247292D01*
X163268Y247476D01*
X163388Y248389D01*
X163268Y249301D01*
X162915Y250152D01*
X162355Y250883D01*
X161624Y251443D01*
X160774Y251795D01*
X159861Y251916D01*
X158948Y251795D01*
X158097Y251443D01*
X157367Y250883D01*
X156806Y250152D01*
X156454Y249301D01*
X156334Y248389D01*
X156454Y247476D01*
X156806Y246625D01*
X157367Y245895D01*
X158097Y245334D01*
X158948Y244982D01*
X159861Y244862D01*
X160774Y244982D01*
X160957Y245058D01*
X163237Y242777D01*
X163030Y240824D01*
X162512Y240678D01*
X162355Y240882D01*
X161624Y241443D01*
X160774Y241795D01*
X159861Y241915D01*
X158948Y241795D01*
X158097Y241443D01*
X157367Y240882D01*
X156806Y240152D01*
X156454Y239301D01*
X156334Y238388D01*
X156454Y237476D01*
X156530Y237293D01*
X152479Y233241D01*
X126743D01*
X118692Y241293D01*
X118768Y241476D01*
X118888Y242389D01*
X118768Y243301D01*
X118415Y244152D01*
X118087Y244581D01*
X118333Y245080D01*
X122389D01*
X122635Y244581D01*
X122306Y244152D01*
X121954Y243301D01*
X121834Y242389D01*
X121954Y241476D01*
X122306Y240625D01*
X122867Y239895D01*
X123597Y239334D01*
X124448Y238982D01*
X125361Y238861D01*
X126274Y238982D01*
X127124Y239334D01*
X127855Y239895D01*
X128415Y240625D01*
X128768Y241476D01*
X128888Y242389D01*
X128768Y243301D01*
X128415Y244152D01*
X128087Y244581D01*
X128333Y245080D01*
X145279D01*
X145916Y244443D01*
X146429Y244101D01*
X147033Y243981D01*
X147638Y244101D01*
X148151Y244443D01*
X148765Y245058D01*
X148948Y244982D01*
X149861Y244862D01*
X150774Y244982D01*
X151624Y245334D01*
X152355Y245895D01*
X152915Y246625D01*
X153268Y247476D01*
X153388Y248389D01*
X153268Y249301D01*
X152915Y250152D01*
X152355Y250883D01*
X151624Y251443D01*
X150774Y251795D01*
X149861Y251916D01*
X148948Y251795D01*
X148097Y251443D01*
X147367Y250883D01*
X146806Y250152D01*
X146454Y249301D01*
X146370Y248664D01*
X145972Y248279D01*
X145849Y248241D01*
X96361D01*
X95756Y248121D01*
X95243Y247778D01*
X90075Y242611D01*
X83063D01*
X82934Y242923D01*
X82333Y243707D01*
X81549Y244308D01*
X80636Y244686D01*
X79656Y244815D01*
X78676Y244686D01*
X77763Y244308D01*
X76980Y243707D01*
X76378Y242923D01*
X76000Y242010D01*
X75871Y241030D01*
X76000Y240050D01*
X76378Y239138D01*
X76980Y238354D01*
X77763Y237752D01*
X78676Y237374D01*
X79656Y237245D01*
X80636Y237374D01*
X81549Y237752D01*
X82333Y238354D01*
X82934Y239138D01*
X83063Y239450D01*
X90730D01*
X91335Y239570D01*
X91848Y239913D01*
X97016Y245080D01*
X102389D01*
X102635Y244581D01*
X102306Y244152D01*
X101954Y243301D01*
X101834Y242389D01*
X101954Y241476D01*
X102306Y240625D01*
X102867Y239895D01*
X103597Y239334D01*
X104448Y238982D01*
X105361Y238861D01*
X106274Y238982D01*
X107124Y239334D01*
X107855Y239895D01*
X108415Y240625D01*
X108768Y241476D01*
X108888Y242389D01*
X108768Y243301D01*
X108415Y244152D01*
X108087Y244581D01*
X108333Y245080D01*
X112389D01*
X112635Y244581D01*
X112306Y244152D01*
X111954Y243301D01*
X111834Y242389D01*
X111954Y241476D01*
X112030Y241293D01*
X78513Y207776D01*
X78040Y208010D01*
X78086Y208361D01*
X77942Y209454D01*
X77520Y210473D01*
X76849Y211349D01*
X75973Y212020D01*
X74954Y212442D01*
X74861Y212454D01*
Y208361D01*
X73861D01*
Y207361D01*
X69767D01*
X69780Y207267D01*
X70202Y206248D01*
X70873Y205373D01*
X70727Y204855D01*
X70556Y204821D01*
X70043Y204478D01*
X67943Y202378D01*
X67601Y201866D01*
X67480Y201261D01*
Y193161D01*
X67601Y192556D01*
X67943Y192043D01*
X70153Y189834D01*
X69975Y189402D01*
X69837Y188361D01*
X69975Y187320D01*
X70376Y186349D01*
X71016Y185516D01*
X71849Y184877D01*
X72820Y184475D01*
X73861Y184337D01*
X74902Y184475D01*
X75873Y184877D01*
X76706Y185516D01*
X77345Y186349D01*
X77747Y187320D01*
X77884Y188361D01*
X77747Y189402D01*
X77345Y190373D01*
X76706Y191206D01*
X75873Y191845D01*
X74902Y192247D01*
X73861Y192384D01*
X72820Y192247D01*
X72388Y192069D01*
X70641Y193816D01*
Y195241D01*
X71141Y195420D01*
X71849Y194877D01*
X72820Y194475D01*
X73861Y194337D01*
X74902Y194475D01*
X75873Y194877D01*
X76706Y195516D01*
X77345Y196349D01*
X77747Y197320D01*
X77884Y198361D01*
X77747Y199402D01*
X77345Y200373D01*
X76706Y201206D01*
X76562Y201316D01*
X76687Y201851D01*
X76938Y201901D01*
X77451Y202243D01*
X114265Y239057D01*
X114448Y238982D01*
X115361Y238861D01*
X116274Y238982D01*
X116457Y239057D01*
X124971Y230543D01*
X125484Y230201D01*
X126089Y230081D01*
X153133D01*
X153738Y230201D01*
X154251Y230543D01*
X158765Y235057D01*
X158948Y234982D01*
X159861Y234861D01*
X160043Y234886D01*
X160277Y234412D01*
X150806Y224941D01*
X118861D01*
X118256Y224821D01*
X117743Y224478D01*
X75334Y182069D01*
X74902Y182247D01*
X73861Y182384D01*
X72820Y182247D01*
X71849Y181845D01*
X71016Y181206D01*
X70376Y180373D01*
X69975Y179402D01*
X69837Y178361D01*
X69975Y177320D01*
X70376Y176349D01*
X71016Y175516D01*
X71849Y174876D01*
X72820Y174475D01*
X73861Y174337D01*
X74902Y174475D01*
X75873Y174876D01*
X76706Y175516D01*
X77345Y176349D01*
X77747Y177320D01*
X77884Y178361D01*
X77747Y179402D01*
X77569Y179834D01*
X119516Y221780D01*
X150365D01*
X150556Y221319D01*
X127785Y198548D01*
X112467D01*
X111863Y198427D01*
X111350Y198085D01*
X93443Y180178D01*
X75334Y162069D01*
X74902Y162247D01*
X73861Y162384D01*
X72820Y162247D01*
X71849Y161845D01*
X71016Y161206D01*
X70376Y160373D01*
X69975Y159402D01*
X69837Y158361D01*
X69975Y157320D01*
X70376Y156349D01*
X71016Y155516D01*
X71849Y154876D01*
X72820Y154475D01*
X73861Y154338D01*
X74361Y154403D01*
X74595Y153930D01*
X36543Y115878D01*
X36201Y115366D01*
X36081Y114761D01*
Y109851D01*
X36075Y109847D01*
X35588Y109119D01*
X35515Y108749D01*
X34972Y108584D01*
X34378Y109178D01*
X33866Y109521D01*
X33261Y109641D01*
X33033Y110141D01*
X33520Y110776D01*
X33942Y111795D01*
X33954Y111889D01*
X29861D01*
X25767D01*
X25780Y111795D01*
X26202Y110776D01*
X26689Y110141D01*
X26442Y109641D01*
X19651D01*
X19647Y109647D01*
X18919Y110133D01*
X18061Y110304D01*
X17202Y110133D01*
X16475Y109647D01*
X15989Y108919D01*
X15818Y108061D01*
X15989Y107202D01*
X16475Y106475D01*
X17202Y105989D01*
X18061Y105818D01*
X18919Y105989D01*
X19647Y106475D01*
X19651Y106481D01*
X27168D01*
X27338Y105981D01*
X27016Y105734D01*
X26377Y104900D01*
X25975Y103930D01*
X25837Y102889D01*
X25975Y101847D01*
X26377Y100877D01*
X27016Y100043D01*
X27849Y99404D01*
X28820Y99002D01*
X29861Y98865D01*
X30902Y99002D01*
X31873Y99404D01*
X32706Y100043D01*
X33345Y100877D01*
X33747Y101847D01*
X33884Y102889D01*
X33747Y103930D01*
X33345Y104900D01*
X32903Y105477D01*
X33279Y105807D01*
X35743Y103343D01*
X36256Y103001D01*
X36861Y102881D01*
X41661D01*
X42266Y103001D01*
X42778Y103343D01*
X64854Y125419D01*
X64861Y125418D01*
X65719Y125589D01*
X66447Y126075D01*
X66933Y126803D01*
X67104Y127661D01*
X66933Y128519D01*
X66447Y129247D01*
X65719Y129733D01*
X64861Y129904D01*
X64003Y129733D01*
X63275Y129247D01*
X62788Y128519D01*
X62618Y127661D01*
X62619Y127654D01*
X41006Y106041D01*
X39199D01*
X39047Y106541D01*
X39247Y106675D01*
X39733Y107403D01*
X39904Y108261D01*
X39733Y109119D01*
X39247Y109847D01*
X39241Y109851D01*
Y114106D01*
X96416Y171281D01*
X113761D01*
X114366Y171401D01*
X114878Y171743D01*
X119278Y176143D01*
X119621Y176656D01*
X119741Y177261D01*
Y182506D01*
X144016Y206781D01*
X187698D01*
X187876Y206349D01*
X188516Y205516D01*
X189349Y204876D01*
X190320Y204475D01*
X191361Y204338D01*
X192402Y204475D01*
X193373Y204876D01*
X194080Y205420D01*
X194580Y205241D01*
Y201481D01*
X194080Y201302D01*
X193373Y201845D01*
X192402Y202247D01*
X191361Y202384D01*
X190320Y202247D01*
X189349Y201845D01*
X188516Y201206D01*
X187876Y200373D01*
X187475Y199402D01*
X187338Y198361D01*
X187475Y197320D01*
X187876Y196349D01*
X188516Y195516D01*
X189349Y194877D01*
X190320Y194475D01*
X191361Y194337D01*
X192402Y194475D01*
X193373Y194877D01*
X194080Y195420D01*
X194580Y195241D01*
Y191481D01*
X194080Y191302D01*
X193373Y191845D01*
X192402Y192247D01*
X191361Y192384D01*
X190320Y192247D01*
X189349Y191845D01*
X188516Y191206D01*
X187876Y190373D01*
X187475Y189402D01*
X187338Y188361D01*
X187475Y187320D01*
X187876Y186349D01*
X188516Y185516D01*
X189349Y184877D01*
X190320Y184475D01*
X191361Y184337D01*
X192402Y184475D01*
X193373Y184877D01*
X194080Y185420D01*
X194580Y185241D01*
Y181481D01*
X194080Y181302D01*
X193373Y181845D01*
X192402Y182247D01*
X191361Y182384D01*
X190320Y182247D01*
X189349Y181845D01*
X188516Y181206D01*
X187876Y180373D01*
X187475Y179402D01*
X187338Y178361D01*
X187475Y177320D01*
X187876Y176349D01*
X188516Y175516D01*
X189349Y174876D01*
X190320Y174475D01*
X191361Y174337D01*
X192402Y174475D01*
X193373Y174876D01*
X194080Y175420D01*
X194580Y175241D01*
Y171481D01*
X194080Y171302D01*
X193373Y171845D01*
X192402Y172247D01*
X191361Y172384D01*
X190320Y172247D01*
X189349Y171845D01*
X188516Y171206D01*
X188341Y170978D01*
X187841Y171148D01*
Y173366D01*
X187721Y173971D01*
X187378Y174484D01*
X172834Y189028D01*
X172321Y189371D01*
X171716Y189491D01*
X134651D01*
X134647Y189497D01*
X133919Y189983D01*
X133061Y190154D01*
X132202Y189983D01*
X131475Y189497D01*
X130989Y188769D01*
X130818Y187911D01*
X130989Y187053D01*
X131475Y186325D01*
X132202Y185839D01*
X133061Y185668D01*
X133919Y185839D01*
X134647Y186325D01*
X134651Y186330D01*
X171062D01*
X184680Y172712D01*
Y164830D01*
X184180Y164691D01*
X183519Y165133D01*
X182661Y165304D01*
X181802Y165133D01*
X181075Y164647D01*
X180588Y163919D01*
X180418Y163061D01*
X180419Y163054D01*
X170743Y153378D01*
X170401Y152866D01*
X170281Y152261D01*
Y120451D01*
X170275Y120447D01*
X169789Y119719D01*
X169618Y118861D01*
X169789Y118002D01*
X170275Y117275D01*
X171002Y116789D01*
X171861Y116618D01*
X172719Y116789D01*
X173447Y117275D01*
X173933Y118002D01*
X174104Y118861D01*
X173933Y119719D01*
X173447Y120447D01*
X173441Y120451D01*
Y151606D01*
X179931Y158096D01*
X180463Y157921D01*
X180465Y157902D01*
X177393Y154830D01*
X177051Y154317D01*
X176930Y153712D01*
Y83693D01*
X117457Y24219D01*
X117274Y24295D01*
X116361Y24416D01*
X116041Y24373D01*
X115807Y24847D01*
X169478Y78518D01*
X169821Y79031D01*
X169941Y79636D01*
Y100871D01*
X169947Y100875D01*
X170433Y101602D01*
X170604Y102461D01*
X170433Y103319D01*
X169947Y104047D01*
X169219Y104533D01*
X168361Y104704D01*
X167502Y104533D01*
X166775Y104047D01*
X166288Y103319D01*
X166118Y102461D01*
X166288Y101602D01*
X166775Y100875D01*
X166780Y100871D01*
Y80290D01*
X163403Y76913D01*
X162941Y77104D01*
Y153071D01*
X162947Y153075D01*
X163433Y153803D01*
X163604Y154661D01*
X163433Y155519D01*
X163005Y156161D01*
X163113Y156692D01*
X163235Y156716D01*
X163963Y157202D01*
X164449Y157930D01*
X164620Y158789D01*
X164449Y159647D01*
X163963Y160375D01*
X163235Y160861D01*
X162376Y161032D01*
X161518Y160861D01*
X160790Y160375D01*
X160304Y159647D01*
X160219Y159218D01*
X160193Y159191D01*
X159985D01*
X159380Y159071D01*
X158867Y158728D01*
X152743Y152604D01*
X152401Y152092D01*
X152280Y151487D01*
Y86515D01*
X109368Y43603D01*
X109361Y43604D01*
X108502Y43433D01*
X107775Y42947D01*
X107289Y42219D01*
X107118Y41361D01*
X107289Y40503D01*
X107775Y39775D01*
X108502Y39288D01*
X109361Y39118D01*
X110219Y39288D01*
X110947Y39775D01*
X111433Y40503D01*
X111604Y41361D01*
X111603Y41368D01*
X154978Y84743D01*
X155321Y85256D01*
X155441Y85861D01*
Y150832D01*
X158768Y154159D01*
X159247Y154014D01*
X159289Y153803D01*
X159775Y153075D01*
X159781Y153071D01*
Y76543D01*
X107457Y24219D01*
X107274Y24295D01*
X106361Y24416D01*
X105448Y24295D01*
X104597Y23943D01*
X104141Y23593D01*
X103641Y23840D01*
Y42006D01*
X149778Y88143D01*
X150121Y88656D01*
X150241Y89261D01*
Y153961D01*
X150121Y154566D01*
X149801Y155045D01*
X149804Y155061D01*
X149633Y155919D01*
X149147Y156647D01*
X148419Y157133D01*
X147561Y157304D01*
X146703Y157133D01*
X145975Y156647D01*
X145489Y155919D01*
X145318Y155061D01*
X145489Y154202D01*
X145975Y153475D01*
X146703Y152989D01*
X147081Y152913D01*
Y143459D01*
X146581Y143192D01*
X146219Y143433D01*
X145361Y143604D01*
X145354Y143603D01*
X144878Y144078D01*
X144366Y144421D01*
X143761Y144541D01*
X121283D01*
X121266Y145034D01*
X121871Y145155D01*
X122384Y145497D01*
X145078Y168192D01*
X145421Y168705D01*
X145541Y169309D01*
Y178771D01*
X145547Y178775D01*
X146033Y179502D01*
X146132Y179998D01*
X146674Y180163D01*
X148980Y177856D01*
Y161425D01*
X148975Y161421D01*
X148488Y160693D01*
X148318Y159835D01*
X148488Y158976D01*
X148975Y158249D01*
X149703Y157763D01*
X150561Y157592D01*
X151419Y157763D01*
X152147Y158249D01*
X152633Y158976D01*
X152804Y159835D01*
X152633Y160693D01*
X152147Y161421D01*
X152141Y161425D01*
Y178511D01*
X152021Y179116D01*
X151678Y179628D01*
X146878Y184428D01*
X146366Y184771D01*
X145761Y184891D01*
X142261D01*
X141656Y184771D01*
X141143Y184428D01*
X110480Y153765D01*
X98985D01*
X98380Y153645D01*
X97868Y153303D01*
X34006Y89441D01*
X32699D01*
X32538Y89915D01*
X32706Y90043D01*
X33345Y90877D01*
X33747Y91847D01*
X33884Y92888D01*
X33747Y93930D01*
X33345Y94900D01*
X32706Y95733D01*
X31873Y96373D01*
X30902Y96775D01*
X29861Y96912D01*
X28820Y96775D01*
X27849Y96373D01*
X27016Y95733D01*
X26377Y94900D01*
X25975Y93930D01*
X25837Y92888D01*
X25975Y91847D01*
X26377Y90877D01*
X27016Y90043D01*
X27184Y89915D01*
X27023Y89441D01*
X26861D01*
X26256Y89321D01*
X25743Y88978D01*
X23943Y87178D01*
X23601Y86666D01*
X23481Y86061D01*
Y77688D01*
X23601Y77084D01*
X23943Y76571D01*
X26153Y74361D01*
X25975Y73930D01*
X25837Y72888D01*
X25975Y71847D01*
X26153Y71416D01*
X20943Y66206D01*
X20601Y65693D01*
X20481Y65088D01*
Y16961D01*
X20601Y16356D01*
X20943Y15843D01*
X28163Y8624D01*
X28675Y8281D01*
X29280Y8161D01*
X214242D01*
X214846Y8281D01*
X215359Y8624D01*
X221778Y15043D01*
X222121Y15556D01*
X222241Y16161D01*
Y25161D01*
X222121Y25766D01*
X221778Y26278D01*
X221266Y26621D01*
X220661Y26741D01*
X210633D01*
X210029Y26621D01*
X209516Y26278D01*
X207457Y24219D01*
X207274Y24295D01*
X206361Y24416D01*
X205448Y24295D01*
X204597Y23943D01*
X203867Y23382D01*
X203306Y22652D01*
X202954Y21801D01*
X202834Y20888D01*
X202954Y19976D01*
X203306Y19125D01*
X203867Y18395D01*
X204597Y17834D01*
X205448Y17482D01*
X206361Y17361D01*
X207274Y17482D01*
X208124Y17834D01*
X208855Y18395D01*
X209415Y19125D01*
X209768Y19976D01*
X209888Y20888D01*
X209768Y21801D01*
X209692Y21984D01*
X211288Y23581D01*
X212864D01*
Y19627D01*
X206859Y13622D01*
X125053D01*
X124862Y14084D01*
X125758Y14980D01*
X172033D01*
X172638Y15101D01*
X173151Y15443D01*
X175265Y17558D01*
X175448Y17482D01*
X176361Y17361D01*
X177274Y17482D01*
X178124Y17834D01*
X178855Y18395D01*
X179100Y18714D01*
X179634Y18589D01*
X179701Y18256D01*
X180043Y17743D01*
X182343Y15443D01*
X182856Y15101D01*
X183461Y14980D01*
X188961D01*
X189566Y15101D01*
X190078Y15443D01*
X191778Y17143D01*
X192121Y17656D01*
X192241Y18261D01*
Y24506D01*
X196316Y28580D01*
X230961D01*
X231566Y28701D01*
X232078Y29043D01*
X263254Y60219D01*
X263261Y60218D01*
X264119Y60388D01*
X264847Y60875D01*
X265333Y61602D01*
X265504Y62461D01*
X265333Y63319D01*
X264847Y64047D01*
X264119Y64533D01*
X263261Y64704D01*
X262403Y64533D01*
X261675Y64047D01*
X261189Y63319D01*
X261018Y62461D01*
X261019Y62454D01*
X240479Y41914D01*
X240004Y42146D01*
X239886Y43041D01*
X239485Y44012D01*
X238845Y44845D01*
X238012Y45485D01*
X237041Y45886D01*
X236000Y46023D01*
X234959Y45886D01*
X233988Y45485D01*
X233155Y44845D01*
X232516Y44012D01*
X232114Y43041D01*
X231977Y42000D01*
X232114Y40959D01*
X232516Y39988D01*
X233155Y39155D01*
X233988Y38516D01*
X234959Y38114D01*
X235854Y37996D01*
X236087Y37522D01*
X230306Y31741D01*
X195661D01*
X195056Y31621D01*
X194543Y31278D01*
X189543Y26278D01*
X189201Y25766D01*
X189081Y25161D01*
Y23840D01*
X188581Y23593D01*
X188124Y23943D01*
X187941Y24019D01*
Y101088D01*
X188441Y101296D01*
X188693Y101043D01*
X189206Y100701D01*
X189811Y100581D01*
X216471D01*
X216475Y100575D01*
X217202Y100089D01*
X218061Y99918D01*
X218919Y100089D01*
X219647Y100575D01*
X220133Y101303D01*
X220304Y102161D01*
X220133Y103019D01*
X219647Y103747D01*
X218919Y104233D01*
X218061Y104404D01*
X217202Y104233D01*
X216475Y103747D01*
X216471Y103741D01*
X190465D01*
X184691Y109516D01*
Y111356D01*
X186560Y113225D01*
X187021Y112979D01*
X186918Y112461D01*
X187089Y111602D01*
X187575Y110875D01*
X188303Y110389D01*
X189161Y110218D01*
X189168Y110219D01*
X189843Y109543D01*
X190356Y109201D01*
X190961Y109081D01*
X237271D01*
X237275Y109075D01*
X238002Y108589D01*
X238861Y108418D01*
X239379Y108521D01*
X239625Y108060D01*
X192543Y60978D01*
X192201Y60466D01*
X192080Y59861D01*
Y37851D01*
X192075Y37847D01*
X191588Y37119D01*
X191418Y36261D01*
X191588Y35403D01*
X192075Y34675D01*
X192803Y34189D01*
X193661Y34018D01*
X194519Y34189D01*
X195247Y34675D01*
X195733Y35403D01*
X195904Y36261D01*
X195733Y37119D01*
X195247Y37847D01*
X195241Y37851D01*
Y59206D01*
X239260Y103225D01*
X239721Y102979D01*
X239618Y102461D01*
X239789Y101602D01*
X240275Y100875D01*
X241002Y100389D01*
X241861Y100218D01*
X242719Y100389D01*
X243447Y100875D01*
X243933Y101602D01*
X244104Y102461D01*
X244103Y102468D01*
X245278Y103643D01*
X245621Y104156D01*
X245741Y104761D01*
Y124361D01*
X245621Y124966D01*
X245278Y125478D01*
X244678Y126078D01*
X244166Y126421D01*
X243561Y126541D01*
X227249D01*
X227097Y127041D01*
X227147Y127075D01*
X227633Y127803D01*
X227804Y128661D01*
X227803Y128668D01*
X253278Y154143D01*
X253621Y154656D01*
X253741Y155261D01*
Y170263D01*
X253747Y170267D01*
X254233Y170995D01*
X254404Y171853D01*
X254233Y172712D01*
X253747Y173439D01*
X253019Y173926D01*
X252161Y174096D01*
X251303Y173926D01*
X250575Y173439D01*
X250089Y172712D01*
X249918Y171853D01*
X250089Y170995D01*
X250575Y170267D01*
X250581Y170263D01*
Y155915D01*
X225568Y130903D01*
X225561Y130904D01*
X224703Y130733D01*
X223975Y130247D01*
X223488Y129519D01*
X223318Y128661D01*
X223488Y127803D01*
X223975Y127075D01*
X224025Y127041D01*
X223873Y126541D01*
X220115D01*
X218841Y127815D01*
Y237361D01*
X218721Y237966D01*
X218378Y238478D01*
X188578Y268278D01*
X188066Y268621D01*
X187461Y268741D01*
D02*
G37*
G36*
X22861Y251912D02*
X21820Y251775D01*
X20849Y251373D01*
X20016Y250733D01*
X19376Y249900D01*
X18975Y248930D01*
X18837Y247888D01*
X18975Y246847D01*
X19376Y245877D01*
X20016Y245043D01*
X20849Y244404D01*
X21820Y244002D01*
X22861Y243865D01*
X23902Y244002D01*
X24873Y244404D01*
X25706Y245043D01*
X26345Y245877D01*
X26747Y246847D01*
X26884Y247888D01*
X26747Y248930D01*
X26345Y249900D01*
X25706Y250733D01*
X24873Y251373D01*
X23902Y251775D01*
X22861Y251912D01*
D02*
G37*
G36*
X150861Y241976D02*
Y239388D01*
X153448D01*
X153090Y240253D01*
X152497Y241025D01*
X151725Y241618D01*
X150861Y241976D01*
D02*
G37*
G36*
X23861Y241982D02*
Y238889D01*
X26954D01*
X26942Y238982D01*
X26520Y240001D01*
X25848Y240876D01*
X24973Y241548D01*
X23954Y241970D01*
X23861Y241982D01*
D02*
G37*
G36*
X21861D02*
X21767Y241970D01*
X20748Y241548D01*
X19873Y240876D01*
X19202Y240001D01*
X18780Y238982D01*
X18767Y238889D01*
X21861D01*
Y241982D01*
D02*
G37*
G36*
X54066Y244815D02*
X53086Y244686D01*
X52173Y244308D01*
X51389Y243707D01*
X50788Y242923D01*
X50410Y242010D01*
X50281Y241030D01*
X50410Y240050D01*
X50788Y239138D01*
X51389Y238354D01*
X52173Y237752D01*
X53086Y237374D01*
X54066Y237245D01*
X55045Y237374D01*
X55958Y237752D01*
X56742Y238354D01*
X57344Y239138D01*
X57722Y240050D01*
X57851Y241030D01*
X57722Y242010D01*
X57344Y242923D01*
X56742Y243707D01*
X55958Y244308D01*
X55045Y244686D01*
X54066Y244815D01*
D02*
G37*
G36*
X153448Y237388D02*
X150861D01*
Y234801D01*
X151725Y235159D01*
X152497Y235752D01*
X153090Y236524D01*
X153448Y237388D01*
D02*
G37*
G36*
X148861Y241976D02*
X147996Y241618D01*
X147224Y241025D01*
X146632Y240253D01*
X146514Y239969D01*
X129461D01*
X128856Y239849D01*
X128343Y239506D01*
X128001Y238993D01*
X127881Y238388D01*
X128001Y237784D01*
X128343Y237271D01*
X128856Y236928D01*
X129461Y236808D01*
X146514D01*
X146632Y236524D01*
X147224Y235752D01*
X147996Y235159D01*
X148861Y234801D01*
Y238388D01*
Y241976D01*
D02*
G37*
G36*
X26954Y236889D02*
X23861D01*
Y233795D01*
X23954Y233807D01*
X24973Y234229D01*
X25848Y234901D01*
X26520Y235776D01*
X26942Y236795D01*
X26954Y236889D01*
D02*
G37*
G36*
X21861D02*
X18767D01*
X18780Y236795D01*
X19202Y235776D01*
X19873Y234901D01*
X20748Y234229D01*
X21767Y233807D01*
X21861Y233795D01*
Y236889D01*
D02*
G37*
G36*
X72861Y212454D02*
X72767Y212442D01*
X71748Y212020D01*
X70873Y211349D01*
X70202Y210473D01*
X69780Y209454D01*
X69767Y209361D01*
X72861D01*
Y212454D01*
D02*
G37*
G36*
X73861Y172384D02*
X72820Y172247D01*
X71849Y171845D01*
X71016Y171206D01*
X70376Y170373D01*
X69975Y169402D01*
X69837Y168361D01*
X69975Y167320D01*
X70376Y166349D01*
X71016Y165516D01*
X71849Y164876D01*
X72820Y164475D01*
X73861Y164338D01*
X74902Y164475D01*
X75873Y164876D01*
X76706Y165516D01*
X77345Y166349D01*
X77747Y167320D01*
X77884Y168361D01*
X77747Y169402D01*
X77345Y170373D01*
X76706Y171206D01*
X75873Y171845D01*
X74902Y172247D01*
X73861Y172384D01*
D02*
G37*
G36*
X172106Y170534D02*
X171244Y170421D01*
X170441Y170088D01*
X169752Y169559D01*
X169223Y168870D01*
X168890Y168067D01*
X168777Y167206D01*
X168890Y166344D01*
X169223Y165541D01*
X169752Y164852D01*
X170441Y164323D01*
X171244Y163990D01*
X172106Y163877D01*
X172967Y163990D01*
X173770Y164323D01*
X174459Y164852D01*
X174988Y165541D01*
X175321Y166344D01*
X175434Y167206D01*
X175321Y168067D01*
X174988Y168870D01*
X174459Y169559D01*
X173770Y170088D01*
X172967Y170421D01*
X172106Y170534D01*
D02*
G37*
G36*
X30861Y116982D02*
Y113889D01*
X33954D01*
X33942Y113982D01*
X33520Y115001D01*
X32849Y115876D01*
X31973Y116548D01*
X30954Y116970D01*
X30861Y116982D01*
D02*
G37*
G36*
X28861D02*
X28767Y116970D01*
X27748Y116548D01*
X26873Y115876D01*
X26202Y115001D01*
X25780Y113982D01*
X25767Y113889D01*
X28861D01*
Y116982D01*
D02*
G37*
G36*
X236500Y71023D02*
X235459Y70886D01*
X234488Y70485D01*
X233655Y69845D01*
X233016Y69012D01*
X232614Y68041D01*
X232477Y67000D01*
X232614Y65959D01*
X232792Y65527D01*
X224883Y57618D01*
X224540Y57105D01*
X224420Y56500D01*
Y45663D01*
X223988Y45485D01*
X223155Y44845D01*
X222516Y44012D01*
X222114Y43041D01*
X221977Y42000D01*
X222114Y40959D01*
X222516Y39988D01*
X223155Y39155D01*
X223988Y38516D01*
X224959Y38114D01*
X226000Y37977D01*
X227041Y38114D01*
X228012Y38516D01*
X228845Y39155D01*
X229485Y39988D01*
X229886Y40959D01*
X230024Y42000D01*
X229886Y43041D01*
X229485Y44012D01*
X228845Y44845D01*
X228012Y45485D01*
X227580Y45663D01*
Y55845D01*
X235027Y63292D01*
X235459Y63114D01*
X236500Y62977D01*
X237541Y63114D01*
X238512Y63516D01*
X239345Y64155D01*
X239984Y64988D01*
X240386Y65959D01*
X240524Y67000D01*
X240386Y68041D01*
X239984Y69012D01*
X239345Y69845D01*
X238512Y70485D01*
X237541Y70886D01*
X236500Y71023D01*
D02*
G37*
G36*
X226500D02*
X225459Y70886D01*
X224488Y70485D01*
X223655Y69845D01*
X223016Y69012D01*
X222614Y68041D01*
X222477Y67000D01*
X222614Y65959D01*
X223016Y64988D01*
X223655Y64155D01*
X224488Y63516D01*
X225459Y63114D01*
X226500Y62977D01*
X227541Y63114D01*
X228512Y63516D01*
X229345Y64155D01*
X229984Y64988D01*
X230386Y65959D01*
X230523Y67000D01*
X230386Y68041D01*
X229984Y69012D01*
X229345Y69845D01*
X228512Y70485D01*
X227541Y70886D01*
X226500Y71023D01*
D02*
G37*
G36*
X196361Y24416D02*
X195448Y24295D01*
X194597Y23943D01*
X193867Y23382D01*
X193306Y22652D01*
X192954Y21801D01*
X192834Y20888D01*
X192954Y19976D01*
X193306Y19125D01*
X193867Y18395D01*
X194597Y17834D01*
X195448Y17482D01*
X196361Y17361D01*
X197274Y17482D01*
X198124Y17834D01*
X198855Y18395D01*
X199415Y19125D01*
X199768Y19976D01*
X199888Y20888D01*
X199768Y21801D01*
X199415Y22652D01*
X198855Y23382D01*
X198124Y23943D01*
X197274Y24295D01*
X196361Y24416D01*
D02*
G37*
%LPD*%
G36*
X197581Y243806D02*
Y239583D01*
X197081Y239376D01*
X191978Y244478D01*
X191466Y244821D01*
X190861Y244941D01*
X173358D01*
Y246808D01*
X194579D01*
X197581Y243806D01*
D02*
G37*
G36*
X194580Y237406D02*
Y211481D01*
X194080Y211302D01*
X193373Y211845D01*
X192402Y212247D01*
X191361Y212384D01*
X190320Y212247D01*
X189349Y211845D01*
X188516Y211206D01*
X187876Y210373D01*
X187698Y209941D01*
X144302D01*
X144111Y210403D01*
X168765Y235057D01*
X168948Y234982D01*
X169861Y234861D01*
X170774Y234982D01*
X171624Y235334D01*
X172355Y235894D01*
X172915Y236625D01*
X173268Y237476D01*
X173388Y238388D01*
X173268Y239301D01*
X172915Y240152D01*
X172355Y240882D01*
X171836Y241281D01*
X172006Y241780D01*
X190206D01*
X194580Y237406D01*
D02*
G37*
G36*
X127690Y194925D02*
X117043Y184278D01*
X116701Y183766D01*
X116580Y183161D01*
Y180449D01*
X116080Y180298D01*
X115847Y180647D01*
X115119Y181133D01*
X114261Y181304D01*
X113402Y181133D01*
X112675Y180647D01*
X112671Y180641D01*
X99029D01*
X98838Y181103D01*
X113122Y195387D01*
X127499D01*
X127690Y194925D01*
D02*
G37*
G36*
X141807Y179914D02*
X141888Y179502D01*
X142375Y178775D01*
X142380Y178771D01*
Y169964D01*
X120612Y148195D01*
X117346D01*
X117194Y148695D01*
X117303Y148768D01*
X138854Y170319D01*
X138861Y170318D01*
X139719Y170489D01*
X140447Y170975D01*
X140933Y171703D01*
X141104Y172561D01*
X140933Y173419D01*
X140447Y174147D01*
X139719Y174633D01*
X138861Y174804D01*
X138003Y174633D01*
X137275Y174147D01*
X136788Y173419D01*
X136618Y172561D01*
X136619Y172554D01*
X115531Y151465D01*
X113304D01*
X113112Y151927D01*
X141264Y180079D01*
X141807Y179914D01*
D02*
G37*
G36*
X112675Y177475D02*
X113402Y176989D01*
X114261Y176818D01*
X114903Y176946D01*
X115150Y176485D01*
X113106Y174441D01*
X95761D01*
X95156Y174321D01*
X94643Y173978D01*
X78292Y157627D01*
X77818Y157861D01*
X77884Y158361D01*
X77747Y159402D01*
X77569Y159834D01*
X95215Y177480D01*
X112671D01*
X112675Y177475D01*
D02*
G37*
G36*
X184680Y156097D02*
Y119582D01*
X180553Y115455D01*
X180091Y115647D01*
Y153058D01*
X183054Y156021D01*
X183061Y156019D01*
X183919Y156190D01*
X184180Y156365D01*
X184680Y156097D01*
D02*
G37*
G36*
X215681Y236706D02*
Y127161D01*
X215801Y126556D01*
X216143Y126043D01*
X218343Y123843D01*
X218856Y123501D01*
X219461Y123380D01*
X223533D01*
X223769Y122940D01*
X223689Y122819D01*
X223518Y121961D01*
X223689Y121102D01*
X224175Y120375D01*
X224890Y119897D01*
X226243Y118543D01*
X226756Y118201D01*
X227361Y118080D01*
X238006D01*
X240281Y115806D01*
Y112889D01*
X239840Y112653D01*
X239719Y112733D01*
X238861Y112904D01*
X238002Y112733D01*
X237275Y112247D01*
X237271Y112241D01*
X191816D01*
X191404Y112461D01*
X191233Y113319D01*
X190747Y114047D01*
X190019Y114533D01*
X189161Y114704D01*
X188643Y114601D01*
X188397Y115062D01*
X189854Y116519D01*
X190197Y117032D01*
X190317Y117637D01*
Y119106D01*
X193554Y122343D01*
X193561Y122342D01*
X194419Y122513D01*
X195147Y122999D01*
X195633Y123727D01*
X195804Y124585D01*
X195633Y125443D01*
X195147Y126171D01*
X194419Y126657D01*
X193561Y126828D01*
X192702Y126657D01*
X191975Y126171D01*
X191489Y125443D01*
X191318Y124585D01*
X191319Y124578D01*
X188303Y121562D01*
X187841Y121754D01*
Y155574D01*
X188341Y155744D01*
X188516Y155516D01*
X189349Y154876D01*
X190320Y154475D01*
X191361Y154338D01*
X192402Y154475D01*
X193373Y154876D01*
X194080Y155420D01*
X194580Y155241D01*
Y140955D01*
X194575Y140951D01*
X194088Y140223D01*
X193918Y139365D01*
X194088Y138506D01*
X194575Y137779D01*
X195302Y137293D01*
X196161Y137122D01*
X197019Y137293D01*
X197140Y137373D01*
X197581Y137137D01*
Y124015D01*
X193868Y120303D01*
X193861Y120304D01*
X193002Y120133D01*
X192275Y119647D01*
X191788Y118919D01*
X191618Y118061D01*
X191788Y117202D01*
X192275Y116475D01*
X193002Y115989D01*
X193861Y115818D01*
X194719Y115989D01*
X195447Y116475D01*
X195933Y117202D01*
X196104Y118061D01*
X196103Y118068D01*
X200278Y122243D01*
X200621Y122756D01*
X200741Y123361D01*
Y244461D01*
X200621Y245066D01*
X200278Y245578D01*
X196351Y249506D01*
X195838Y249849D01*
X195233Y249969D01*
X173358D01*
Y251885D01*
X168599D01*
X155404Y265080D01*
X155611Y265581D01*
X186806D01*
X215681Y236706D01*
D02*
G37*
G36*
X242581Y118630D02*
X242119Y118438D01*
X239778Y120778D01*
X239266Y121121D01*
X238661Y121241D01*
X228356D01*
X227955Y121716D01*
X228004Y121961D01*
X227833Y122819D01*
X227753Y122940D01*
X227989Y123380D01*
X242581D01*
Y118630D01*
D02*
G37*
G36*
X100998Y150143D02*
X35324Y84469D01*
X33524D01*
X33345Y84900D01*
X32706Y85733D01*
X32610Y85807D01*
X32771Y86281D01*
X34661D01*
X35266Y86401D01*
X35778Y86743D01*
X99640Y150605D01*
X100806D01*
X100998Y150143D01*
D02*
G37*
G36*
X27849Y79404D02*
X28820Y79002D01*
X29861Y78865D01*
X30902Y79002D01*
X31334Y79181D01*
X79080Y31434D01*
Y23840D01*
X78580Y23593D01*
X78124Y23943D01*
X77274Y24295D01*
X76361Y24416D01*
X75448Y24295D01*
X74597Y23943D01*
X73867Y23382D01*
X73306Y22652D01*
X72954Y21801D01*
X72834Y20888D01*
X72954Y19976D01*
X73306Y19125D01*
X73867Y18395D01*
X74597Y17834D01*
X75448Y17482D01*
X76361Y17361D01*
X77274Y17482D01*
X78124Y17834D01*
X78580Y18184D01*
X79080Y17937D01*
Y17261D01*
X79201Y16656D01*
X79543Y16143D01*
X83903Y11784D01*
X83712Y11322D01*
X29935D01*
X23774Y17483D01*
X23814Y17828D01*
X24313Y18053D01*
X24597Y17834D01*
X25448Y17482D01*
X26361Y17361D01*
X27274Y17482D01*
X28124Y17834D01*
X28855Y18395D01*
X29415Y19125D01*
X29491Y19308D01*
X33231D01*
X33306Y19125D01*
X33867Y18395D01*
X34597Y17834D01*
X35448Y17482D01*
X36361Y17361D01*
X37274Y17482D01*
X38124Y17834D01*
X38855Y18395D01*
X39415Y19125D01*
X39768Y19976D01*
X39888Y20888D01*
X39768Y21801D01*
X39415Y22652D01*
X38855Y23382D01*
X38124Y23943D01*
X37274Y24295D01*
X36361Y24416D01*
X35448Y24295D01*
X34597Y23943D01*
X33867Y23382D01*
X33306Y22652D01*
X33231Y22469D01*
X29491D01*
X29415Y22652D01*
X28855Y23382D01*
X28124Y23943D01*
X27274Y24295D01*
X26361Y24416D01*
X25448Y24295D01*
X24597Y23943D01*
X24141Y23593D01*
X23641Y23840D01*
Y64434D01*
X28388Y69181D01*
X28820Y69002D01*
X29861Y68865D01*
X30902Y69002D01*
X31873Y69404D01*
X32706Y70043D01*
X33345Y70877D01*
X33747Y71847D01*
X33884Y72888D01*
X33747Y73930D01*
X33345Y74900D01*
X32706Y75734D01*
X31873Y76373D01*
X30902Y76775D01*
X29861Y76912D01*
X28820Y76775D01*
X28388Y76596D01*
X26641Y78343D01*
Y79769D01*
X27141Y79947D01*
X27849Y79404D01*
D02*
G37*
G36*
X184781Y100806D02*
Y24019D01*
X184597Y23943D01*
X183867Y23382D01*
X183306Y22652D01*
X183241Y22495D01*
X182741Y22594D01*
Y23361D01*
X182621Y23966D01*
X182278Y24478D01*
X180478Y26278D01*
X179966Y26621D01*
X179361Y26741D01*
X140633D01*
X140029Y26621D01*
X139516Y26278D01*
X137457Y24219D01*
X137274Y24295D01*
X136361Y24416D01*
X135448Y24295D01*
X135265Y24219D01*
X132506Y26978D01*
X131993Y27321D01*
X131388Y27441D01*
X125802D01*
X125611Y27903D01*
X179628Y81921D01*
X179971Y82434D01*
X180091Y83039D01*
Y104842D01*
X180553Y105034D01*
X184781Y100806D01*
D02*
G37*
G36*
X113854Y147805D02*
X113745Y147732D01*
X95243Y129230D01*
X94901Y128718D01*
X94780Y128113D01*
Y24019D01*
X94597Y23943D01*
X93867Y23382D01*
X93306Y22652D01*
X92954Y21801D01*
X92834Y20888D01*
X92954Y19976D01*
X93306Y19125D01*
X93867Y18395D01*
X94597Y17834D01*
X95448Y17482D01*
X96361Y17361D01*
X97274Y17482D01*
X98124Y17834D01*
X98855Y18395D01*
X99415Y19125D01*
X99768Y19976D01*
X99888Y20888D01*
X99768Y21801D01*
X99415Y22652D01*
X98855Y23382D01*
X98124Y23943D01*
X97941Y24019D01*
Y127458D01*
X115517Y145034D01*
X116704D01*
X116851Y144614D01*
X116866Y144534D01*
X116388Y143819D01*
X116218Y142961D01*
X116388Y142103D01*
X116875Y141375D01*
X117603Y140889D01*
X118461Y140718D01*
X119319Y140889D01*
X120047Y141375D01*
X120051Y141381D01*
X142643D01*
X143118Y141361D01*
X143289Y140503D01*
X143775Y139775D01*
X144502Y139289D01*
X145361Y139118D01*
X146219Y139289D01*
X146581Y139530D01*
X147081Y139263D01*
Y89916D01*
X100943Y43778D01*
X100601Y43266D01*
X100480Y42661D01*
Y18661D01*
X100601Y18056D01*
X100943Y17543D01*
X103043Y15443D01*
X103556Y15101D01*
X104161Y14980D01*
X109159D01*
X110056Y14084D01*
X109865Y13622D01*
X86535D01*
X82241Y17916D01*
Y32089D01*
X82121Y32693D01*
X81778Y33206D01*
X34138Y80846D01*
X34330Y81308D01*
X35978D01*
X36583Y81428D01*
X37096Y81771D01*
X103630Y148305D01*
X113702D01*
X113854Y147805D01*
D02*
G37*
G36*
X219080Y16815D02*
X213587Y11322D01*
X209682D01*
X209491Y11784D01*
X215099Y17392D01*
X219080D01*
Y16815D01*
D02*
G37*
%LPC*%
G36*
X208261Y138341D02*
X207656Y138221D01*
X207143Y137878D01*
X206801Y137366D01*
X206680Y136761D01*
Y122861D01*
X206801Y122256D01*
X207143Y121743D01*
X211043Y117843D01*
X211556Y117501D01*
X212161Y117380D01*
X221606D01*
X224443Y114543D01*
X224956Y114201D01*
X225561Y114081D01*
X226166Y114201D01*
X226678Y114543D01*
X227021Y115056D01*
X227141Y115661D01*
X227021Y116266D01*
X226678Y116778D01*
X223378Y120078D01*
X222866Y120421D01*
X222261Y120541D01*
X212815D01*
X209841Y123515D01*
Y136761D01*
X209721Y137366D01*
X209378Y137878D01*
X208866Y138221D01*
X208261Y138341D01*
D02*
G37*
G36*
X29861Y66912D02*
X28820Y66775D01*
X27849Y66373D01*
X27016Y65733D01*
X26377Y64900D01*
X25975Y63930D01*
X25837Y62888D01*
X25975Y61847D01*
X26377Y60877D01*
X27016Y60044D01*
X27849Y59404D01*
X28820Y59002D01*
X29861Y58865D01*
X30902Y59002D01*
X31873Y59404D01*
X32706Y60044D01*
X33345Y60877D01*
X33747Y61847D01*
X33884Y62888D01*
X33747Y63930D01*
X33345Y64900D01*
X32706Y65733D01*
X31873Y66373D01*
X30902Y66775D01*
X29861Y66912D01*
D02*
G37*
G36*
X57361Y24476D02*
Y21889D01*
X59948D01*
X59590Y22753D01*
X58997Y23525D01*
X58225Y24118D01*
X57361Y24476D01*
D02*
G37*
G36*
X45361D02*
X44497Y24118D01*
X43724Y23525D01*
X43132Y22753D01*
X42774Y21889D01*
X45361D01*
Y24476D01*
D02*
G37*
G36*
X66361Y24416D02*
X65448Y24295D01*
X64597Y23943D01*
X63867Y23382D01*
X63306Y22652D01*
X62954Y21801D01*
X62834Y20888D01*
X62954Y19976D01*
X63306Y19125D01*
X63867Y18395D01*
X64597Y17834D01*
X65448Y17482D01*
X66361Y17361D01*
X67274Y17482D01*
X68124Y17834D01*
X68855Y18395D01*
X69415Y19125D01*
X69768Y19976D01*
X69888Y20888D01*
X69768Y21801D01*
X69415Y22652D01*
X68855Y23382D01*
X68124Y23943D01*
X67274Y24295D01*
X66361Y24416D01*
D02*
G37*
G36*
X59948Y19888D02*
X57361D01*
Y17301D01*
X58225Y17659D01*
X58997Y18252D01*
X59590Y19024D01*
X59948Y19888D01*
D02*
G37*
G36*
X47361Y24476D02*
Y20888D01*
Y17301D01*
X48225Y17659D01*
X48998Y18252D01*
X49590Y19024D01*
X49708Y19308D01*
X53014D01*
X53132Y19024D01*
X53724Y18252D01*
X54497Y17659D01*
X55361Y17301D01*
Y20888D01*
Y24476D01*
X54497Y24118D01*
X53724Y23525D01*
X53132Y22753D01*
X53014Y22469D01*
X49708D01*
X49590Y22753D01*
X48998Y23525D01*
X48225Y24118D01*
X47361Y24476D01*
D02*
G37*
G36*
X45361Y19888D02*
X42774D01*
X43132Y19024D01*
X43724Y18252D01*
X44497Y17659D01*
X45361Y17301D01*
Y19888D01*
D02*
G37*
G36*
X86361Y24416D02*
X85448Y24295D01*
X84597Y23943D01*
X83867Y23382D01*
X83306Y22652D01*
X82954Y21801D01*
X82834Y20888D01*
X82954Y19976D01*
X83306Y19125D01*
X83867Y18395D01*
X84597Y17834D01*
X85448Y17482D01*
X86361Y17361D01*
X87274Y17482D01*
X88124Y17834D01*
X88855Y18395D01*
X89415Y19125D01*
X89768Y19976D01*
X89888Y20888D01*
X89768Y21801D01*
X89415Y22652D01*
X88855Y23382D01*
X88124Y23943D01*
X87274Y24295D01*
X86361Y24416D01*
D02*
G37*
%LPD*%
D48*
X153861Y151487D02*
X159985Y157611D01*
X160847D02*
X162025Y158789D01*
X162376D01*
X159985Y157611D02*
X160847D01*
X94561Y179061D02*
X112467Y196967D01*
X73861Y158361D02*
X94561Y179061D01*
X37661Y108261D02*
Y114761D01*
X95761Y172861D01*
X113761D01*
X118161Y177261D01*
Y183161D01*
X143361Y208361D01*
X191361D01*
X106361Y20888D02*
X161361Y75889D01*
Y154661D01*
X96361Y20888D02*
Y128113D01*
X114863Y146615D01*
X121266D01*
X143961Y169309D01*
Y180361D01*
X153861Y85861D02*
Y151487D01*
X109361Y41361D02*
X153861Y85861D01*
X225561Y128661D02*
X252161Y155261D01*
Y171853D01*
X193861Y118061D02*
X199161Y123361D01*
Y244461D01*
X195233Y248389D02*
X199161Y244461D01*
X169861Y248389D02*
X195233D01*
X189161Y112461D02*
X190961Y110661D01*
X238861D01*
X241861Y102461D02*
X244161Y104761D01*
Y124361D01*
X243561Y124961D02*
X244161Y124361D01*
X219461Y124961D02*
X243561D01*
X217261Y127161D02*
X219461Y124961D01*
X217261Y127161D02*
Y237361D01*
X187461Y267161D02*
X217261Y237361D01*
X130133Y267161D02*
X187461D01*
X115361Y252389D02*
X130133Y267161D01*
X171861Y152261D02*
X182661Y163061D01*
X171861Y118861D02*
Y152261D01*
X159861Y248389D02*
X164889Y243361D01*
X164108Y236008D02*
X164889Y243361D01*
X151461Y223361D02*
X164108Y236008D01*
X118861Y223361D02*
X151461D01*
X73861Y178361D02*
X118861Y223361D01*
X196161Y139365D02*
Y238061D01*
X190861Y243361D02*
X196161Y238061D01*
X164889Y243361D02*
X190861D01*
X189811Y102161D02*
X218061D01*
X183111Y108861D02*
X189811Y102161D01*
X183111Y108861D02*
Y112011D01*
X188737Y117637D01*
Y119761D01*
X193561Y124585D01*
X29861Y82889D02*
X80661Y32089D01*
Y17261D02*
Y32089D01*
Y17261D02*
X85880Y12042D01*
X207514D01*
X216361Y20888D01*
X116185Y149885D02*
X138861Y172561D01*
X102975Y149885D02*
X116185D01*
X35978Y82889D02*
X102975Y149885D01*
X29861Y82889D02*
X35978D01*
X206361Y20888D02*
X210633Y25161D01*
X220661D01*
Y16161D02*
Y25161D01*
X214242Y9742D02*
X220661Y16161D01*
X29280Y9742D02*
X214242D01*
X22061Y16961D02*
X29280Y9742D01*
X22061Y16961D02*
Y65088D01*
X29861Y72888D01*
X186361Y20888D02*
Y101461D01*
X180811Y107011D02*
X186361Y101461D01*
X180811Y107011D02*
Y113478D01*
X186261Y118928D01*
Y173366D01*
X171716Y187911D02*
X186261Y173366D01*
X133061Y187911D02*
X171716D01*
X172033Y16561D02*
X176361Y20888D01*
X125104Y16561D02*
X172033D01*
X122884Y14342D02*
X125104Y16561D01*
X112033Y14342D02*
X122884D01*
X109814Y16561D02*
X112033Y14342D01*
X104161Y16561D02*
X109814D01*
X102061Y18661D02*
X104161Y16561D01*
X102061Y18661D02*
Y42661D01*
X148661Y89261D01*
Y153961D01*
X147561Y155061D02*
X148661Y153961D01*
X131388Y25861D02*
X136361Y20888D01*
X124961Y25861D02*
X131388D01*
X122114Y23014D02*
X124961Y25861D01*
X122114Y19461D02*
Y23014D01*
X119295Y16642D02*
X122114Y19461D01*
X113761Y16642D02*
X119295D01*
X112114Y18289D02*
X113761Y16642D01*
X112114Y18289D02*
Y23389D01*
X168361Y79636D01*
Y102461D01*
X208261Y122861D02*
Y136761D01*
Y122861D02*
X212161Y118961D01*
X222261D01*
X225561Y115661D01*
X116361Y20888D02*
X178511Y83039D01*
Y153712D01*
X183061Y158263D01*
X225761Y121261D02*
Y121961D01*
Y121261D02*
X227361Y119661D01*
X238661D01*
X241861Y116461D01*
Y108061D02*
Y116461D01*
X193661Y59861D02*
X241861Y108061D01*
X193661Y36261D02*
Y59861D01*
X25061Y77688D02*
X29861Y72888D01*
X25061Y77688D02*
Y86061D01*
X26861Y87861D01*
X34661D01*
X98985Y152185D01*
X111135D01*
X142261Y183311D01*
X145761D01*
X150561Y178511D01*
Y159835D02*
Y178511D01*
X115361Y242389D02*
X126089Y231661D01*
X153133D01*
X159861Y238388D01*
X112467Y196967D02*
X128440D01*
X169861Y238388D01*
X69061Y193161D02*
X73861Y188361D01*
X69061Y193161D02*
Y201261D01*
X71161Y203361D01*
X76333D01*
X115361Y242389D01*
X79656Y241030D02*
X90730D01*
X96361Y246661D01*
X145933D01*
X147033Y245561D01*
X149861Y248389D01*
X18061Y108061D02*
X33261D01*
X36861Y104461D01*
X41661D01*
X64861Y127661D01*
X94561Y179061D02*
X114261D01*
X129461Y238388D02*
X149861D01*
X136361Y20888D02*
X140633Y25161D01*
X179361D01*
X181161Y23361D01*
Y18861D02*
Y23361D01*
Y18861D02*
X183461Y16561D01*
X188961D01*
X190661Y18261D01*
Y25161D01*
X195661Y30161D01*
X230961D01*
X263261Y62461D01*
X118461Y142961D02*
X143761D01*
X145361Y141361D01*
X226000Y56500D02*
X236500Y67000D01*
X226000Y42000D02*
Y56500D01*
X125361Y252389D02*
X137433Y264461D01*
X153788D01*
X169861Y248389D01*
X46361Y20888D02*
X56361D01*
X26361D02*
X36361D01*
D49*
X22861Y237889D02*
D03*
Y247888D02*
D03*
X226500Y67000D02*
D03*
X236500D02*
D03*
X226000Y42000D02*
D03*
X236000D02*
D03*
X73861Y158361D02*
D03*
Y168361D02*
D03*
Y178361D02*
D03*
Y188361D02*
D03*
Y198361D02*
D03*
Y208361D02*
D03*
X191361Y158361D02*
D03*
Y168361D02*
D03*
Y178361D02*
D03*
Y188361D02*
D03*
Y198361D02*
D03*
Y208361D02*
D03*
X29861Y62888D02*
D03*
Y72888D02*
D03*
Y82889D02*
D03*
Y92888D02*
D03*
Y102889D02*
D03*
Y112889D02*
D03*
D50*
X54066Y241030D02*
D03*
Y258747D02*
D03*
X79656D02*
D03*
Y241030D02*
D03*
D51*
X125361Y252389D02*
D03*
X216361Y20888D02*
D03*
X169861Y248389D02*
D03*
D52*
X125361Y242389D02*
D03*
X115361Y252389D02*
D03*
Y242389D02*
D03*
X105361Y252389D02*
D03*
Y242389D02*
D03*
X206361Y20888D02*
D03*
X196361D02*
D03*
X186361D02*
D03*
X176361D02*
D03*
X166361D02*
D03*
X156361D02*
D03*
X146361D02*
D03*
X136361D02*
D03*
X126361D02*
D03*
X116361D02*
D03*
X106361D02*
D03*
X96361D02*
D03*
X86361D02*
D03*
X76361D02*
D03*
X66361D02*
D03*
X56361D02*
D03*
X46361D02*
D03*
X36361D02*
D03*
X26361D02*
D03*
X169861Y238388D02*
D03*
X159861Y248389D02*
D03*
Y238388D02*
D03*
X149861Y248389D02*
D03*
Y238388D02*
D03*
D53*
X9500Y10500D02*
D03*
X273000D02*
D03*
Y265000D02*
D03*
X9500D02*
D03*
D54*
X162376Y158789D02*
D03*
X37661Y108261D02*
D03*
X161361Y154661D02*
D03*
X143961Y180361D02*
D03*
X109361Y41361D02*
D03*
X225561Y128661D02*
D03*
X252161Y171853D02*
D03*
X193861Y118061D02*
D03*
X189161Y112461D02*
D03*
X238861Y110661D02*
D03*
X241861Y102461D02*
D03*
X182661Y163061D02*
D03*
X171861Y118861D02*
D03*
X196161Y139365D02*
D03*
X218061Y102161D02*
D03*
X193561Y124585D02*
D03*
X138861Y172561D02*
D03*
X133061Y187911D02*
D03*
X147561Y155061D02*
D03*
X168361Y102461D02*
D03*
X208261Y136761D02*
D03*
X225561Y115661D02*
D03*
X183061Y158263D02*
D03*
X225761Y121961D02*
D03*
X193661Y36261D02*
D03*
X150561Y159835D02*
D03*
X18061Y108061D02*
D03*
X64861Y127661D02*
D03*
X114261Y179061D02*
D03*
X129461Y238388D02*
D03*
X263261Y62461D02*
D03*
X118461Y142961D02*
D03*
X145361Y141361D02*
D03*
D55*
X172106Y167206D02*
D03*
M02*
