G04*
G04 #@! TF.GenerationSoftware,Altium Limited,Altium Designer,22.0.2 (36)*
G04*
G04 Layer_Color=16711935*
%FSLAX25Y25*%
%MOIN*%
G70*
G04*
G04 #@! TF.SameCoordinates,531B55E9-8988-4262-B8BE-2375E0DFDCCA*
G04*
G04*
G04 #@! TF.FilePolarity,Positive*
G04*
G01*
G75*
%ADD13C,0.00787*%
G36*
X243651Y126001D02*
X243684Y125997D01*
X243724Y125994D01*
X243764Y125990D01*
X243811Y125979D01*
X243910Y125957D01*
X244019Y125925D01*
X244073Y125903D01*
X244124Y125877D01*
X244175Y125845D01*
X244226Y125812D01*
X244230Y125808D01*
X244237Y125804D01*
X244252Y125794D01*
X244270Y125775D01*
X244288Y125757D01*
X244314Y125732D01*
X244339Y125703D01*
X244368Y125673D01*
X244397Y125637D01*
X244426Y125593D01*
X244459Y125550D01*
X244488Y125502D01*
X244514Y125448D01*
X244543Y125393D01*
X244565Y125335D01*
X244587Y125269D01*
X244259Y125193D01*
Y125197D01*
X244255Y125204D01*
X244248Y125218D01*
X244241Y125237D01*
X244234Y125258D01*
X244223Y125287D01*
X244194Y125346D01*
X244157Y125411D01*
X244113Y125477D01*
X244059Y125539D01*
X244001Y125593D01*
X243993Y125601D01*
X243971Y125615D01*
X243935Y125633D01*
X243888Y125659D01*
X243826Y125681D01*
X243757Y125703D01*
X243673Y125717D01*
X243582Y125721D01*
X243553D01*
X243535Y125717D01*
X243509D01*
X243480Y125713D01*
X243411Y125703D01*
X243335Y125688D01*
X243254Y125663D01*
X243171Y125626D01*
X243094Y125579D01*
X243091D01*
X243087Y125572D01*
X243061Y125553D01*
X243029Y125524D01*
X242989Y125480D01*
X242941Y125426D01*
X242898Y125364D01*
X242858Y125287D01*
X242821Y125204D01*
Y125200D01*
X242818Y125193D01*
X242814Y125182D01*
X242810Y125164D01*
X242803Y125142D01*
X242796Y125117D01*
X242785Y125055D01*
X242770Y124982D01*
X242756Y124902D01*
X242748Y124814D01*
X242745Y124720D01*
Y124716D01*
Y124705D01*
Y124687D01*
Y124665D01*
X242748Y124640D01*
Y124607D01*
X242752Y124571D01*
X242756Y124530D01*
X242767Y124443D01*
X242785Y124348D01*
X242807Y124254D01*
X242836Y124159D01*
Y124155D01*
X242840Y124148D01*
X242847Y124137D01*
X242854Y124119D01*
X242876Y124075D01*
X242909Y124024D01*
X242949Y123966D01*
X243000Y123904D01*
X243058Y123850D01*
X243127Y123799D01*
X243131D01*
X243138Y123795D01*
X243149Y123788D01*
X243163Y123781D01*
X243182Y123773D01*
X243203Y123762D01*
X243254Y123740D01*
X243320Y123719D01*
X243393Y123700D01*
X243473Y123686D01*
X243557Y123682D01*
X243582D01*
X243604Y123686D01*
X243629D01*
X243655Y123690D01*
X243720Y123704D01*
X243797Y123722D01*
X243873Y123751D01*
X243953Y123792D01*
X243993Y123813D01*
X244030Y123843D01*
X244033Y123846D01*
X244037Y123850D01*
X244048Y123861D01*
X244062Y123872D01*
X244077Y123890D01*
X244095Y123912D01*
X244117Y123933D01*
X244135Y123963D01*
X244157Y123995D01*
X244183Y124032D01*
X244204Y124068D01*
X244226Y124112D01*
X244245Y124159D01*
X244263Y124210D01*
X244281Y124265D01*
X244296Y124323D01*
X244630Y124239D01*
Y124236D01*
X244627Y124221D01*
X244619Y124199D01*
X244608Y124170D01*
X244598Y124137D01*
X244583Y124097D01*
X244565Y124054D01*
X244543Y124006D01*
X244492Y123904D01*
X244426Y123802D01*
X244387Y123751D01*
X244346Y123700D01*
X244303Y123657D01*
X244252Y123613D01*
X244248Y123609D01*
X244241Y123602D01*
X244223Y123595D01*
X244204Y123580D01*
X244175Y123562D01*
X244146Y123544D01*
X244106Y123526D01*
X244066Y123508D01*
X244019Y123486D01*
X243968Y123468D01*
X243913Y123449D01*
X243855Y123431D01*
X243793Y123417D01*
X243728Y123409D01*
X243658Y123402D01*
X243586Y123398D01*
X243546D01*
X243516Y123402D01*
X243484D01*
X243444Y123406D01*
X243400Y123413D01*
X243349Y123420D01*
X243244Y123438D01*
X243134Y123468D01*
X243025Y123508D01*
X242974Y123533D01*
X242923Y123562D01*
X242919Y123566D01*
X242912Y123570D01*
X242898Y123580D01*
X242883Y123595D01*
X242861Y123609D01*
X242836Y123631D01*
X242807Y123657D01*
X242778Y123686D01*
X242748Y123719D01*
X242716Y123751D01*
X242650Y123835D01*
X242588Y123933D01*
X242534Y124043D01*
Y124046D01*
X242526Y124057D01*
X242523Y124075D01*
X242512Y124097D01*
X242505Y124126D01*
X242494Y124163D01*
X242479Y124203D01*
X242468Y124247D01*
X242457Y124294D01*
X242443Y124348D01*
X242425Y124461D01*
X242410Y124589D01*
X242403Y124720D01*
Y124723D01*
Y124738D01*
Y124760D01*
X242406Y124785D01*
Y124822D01*
X242410Y124858D01*
X242414Y124905D01*
X242421Y124953D01*
X242439Y125058D01*
X242465Y125175D01*
X242501Y125291D01*
X242552Y125404D01*
X242555Y125408D01*
X242559Y125419D01*
X242566Y125433D01*
X242581Y125451D01*
X242596Y125477D01*
X242614Y125506D01*
X242661Y125572D01*
X242723Y125644D01*
X242796Y125717D01*
X242880Y125790D01*
X242978Y125852D01*
X242981Y125855D01*
X242992Y125859D01*
X243007Y125866D01*
X243025Y125877D01*
X243054Y125888D01*
X243083Y125899D01*
X243120Y125914D01*
X243160Y125928D01*
X243203Y125943D01*
X243251Y125957D01*
X243353Y125979D01*
X243469Y125997D01*
X243589Y126005D01*
X243626D01*
X243651Y126001D01*
D02*
G37*
G36*
X234264D02*
X234296Y125997D01*
X234336Y125994D01*
X234377Y125990D01*
X234424Y125979D01*
X234522Y125957D01*
X234631Y125925D01*
X234686Y125903D01*
X234737Y125877D01*
X234788Y125845D01*
X234839Y125812D01*
X234842Y125808D01*
X234850Y125804D01*
X234864Y125794D01*
X234882Y125775D01*
X234901Y125757D01*
X234926Y125732D01*
X234952Y125703D01*
X234981Y125673D01*
X235010Y125637D01*
X235039Y125593D01*
X235072Y125550D01*
X235101Y125502D01*
X235126Y125448D01*
X235155Y125393D01*
X235177Y125335D01*
X235199Y125269D01*
X234872Y125193D01*
Y125197D01*
X234868Y125204D01*
X234861Y125218D01*
X234853Y125237D01*
X234846Y125258D01*
X234835Y125287D01*
X234806Y125346D01*
X234770Y125411D01*
X234726Y125477D01*
X234671Y125539D01*
X234613Y125593D01*
X234606Y125601D01*
X234584Y125615D01*
X234548Y125633D01*
X234500Y125659D01*
X234438Y125681D01*
X234369Y125703D01*
X234285Y125717D01*
X234194Y125721D01*
X234165D01*
X234147Y125717D01*
X234122D01*
X234092Y125713D01*
X234023Y125703D01*
X233947Y125688D01*
X233867Y125663D01*
X233783Y125626D01*
X233707Y125579D01*
X233703D01*
X233699Y125572D01*
X233674Y125553D01*
X233641Y125524D01*
X233601Y125480D01*
X233554Y125426D01*
X233510Y125364D01*
X233470Y125287D01*
X233434Y125204D01*
Y125200D01*
X233430Y125193D01*
X233426Y125182D01*
X233423Y125164D01*
X233416Y125142D01*
X233408Y125117D01*
X233397Y125055D01*
X233383Y124982D01*
X233368Y124902D01*
X233361Y124814D01*
X233357Y124720D01*
Y124716D01*
Y124705D01*
Y124687D01*
Y124665D01*
X233361Y124640D01*
Y124607D01*
X233365Y124571D01*
X233368Y124530D01*
X233379Y124443D01*
X233397Y124348D01*
X233419Y124254D01*
X233448Y124159D01*
Y124155D01*
X233452Y124148D01*
X233459Y124137D01*
X233467Y124119D01*
X233488Y124075D01*
X233521Y124024D01*
X233561Y123966D01*
X233612Y123904D01*
X233670Y123850D01*
X233739Y123799D01*
X233743D01*
X233750Y123795D01*
X233761Y123788D01*
X233776Y123781D01*
X233794Y123773D01*
X233816Y123762D01*
X233867Y123740D01*
X233932Y123719D01*
X234005Y123700D01*
X234085Y123686D01*
X234169Y123682D01*
X234194D01*
X234216Y123686D01*
X234242D01*
X234267Y123690D01*
X234333Y123704D01*
X234409Y123722D01*
X234486Y123751D01*
X234566Y123792D01*
X234606Y123813D01*
X234642Y123843D01*
X234646Y123846D01*
X234649Y123850D01*
X234660Y123861D01*
X234675Y123872D01*
X234689Y123890D01*
X234708Y123912D01*
X234730Y123933D01*
X234748Y123963D01*
X234770Y123995D01*
X234795Y124032D01*
X234817Y124068D01*
X234839Y124112D01*
X234857Y124159D01*
X234875Y124210D01*
X234893Y124265D01*
X234908Y124323D01*
X235243Y124239D01*
Y124236D01*
X235239Y124221D01*
X235232Y124199D01*
X235221Y124170D01*
X235210Y124137D01*
X235195Y124097D01*
X235177Y124054D01*
X235155Y124006D01*
X235104Y123904D01*
X235039Y123802D01*
X234999Y123751D01*
X234959Y123700D01*
X234915Y123657D01*
X234864Y123613D01*
X234861Y123609D01*
X234853Y123602D01*
X234835Y123595D01*
X234817Y123580D01*
X234788Y123562D01*
X234759Y123544D01*
X234719Y123526D01*
X234679Y123508D01*
X234631Y123486D01*
X234580Y123468D01*
X234526Y123449D01*
X234468Y123431D01*
X234406Y123417D01*
X234340Y123409D01*
X234271Y123402D01*
X234198Y123398D01*
X234158D01*
X234129Y123402D01*
X234096D01*
X234056Y123406D01*
X234013Y123413D01*
X233962Y123420D01*
X233856Y123438D01*
X233747Y123468D01*
X233638Y123508D01*
X233587Y123533D01*
X233536Y123562D01*
X233532Y123566D01*
X233525Y123570D01*
X233510Y123580D01*
X233496Y123595D01*
X233474Y123609D01*
X233448Y123631D01*
X233419Y123657D01*
X233390Y123686D01*
X233361Y123719D01*
X233328Y123751D01*
X233263Y123835D01*
X233201Y123933D01*
X233146Y124043D01*
Y124046D01*
X233139Y124057D01*
X233135Y124075D01*
X233124Y124097D01*
X233117Y124126D01*
X233106Y124163D01*
X233092Y124203D01*
X233081Y124247D01*
X233070Y124294D01*
X233055Y124348D01*
X233037Y124461D01*
X233022Y124589D01*
X233015Y124720D01*
Y124723D01*
Y124738D01*
Y124760D01*
X233019Y124785D01*
Y124822D01*
X233022Y124858D01*
X233026Y124905D01*
X233033Y124953D01*
X233051Y125058D01*
X233077Y125175D01*
X233113Y125291D01*
X233164Y125404D01*
X233168Y125408D01*
X233172Y125419D01*
X233179Y125433D01*
X233193Y125451D01*
X233208Y125477D01*
X233226Y125506D01*
X233274Y125572D01*
X233335Y125644D01*
X233408Y125717D01*
X233492Y125790D01*
X233590Y125852D01*
X233594Y125855D01*
X233605Y125859D01*
X233619Y125866D01*
X233638Y125877D01*
X233667Y125888D01*
X233696Y125899D01*
X233732Y125914D01*
X233772Y125928D01*
X233816Y125943D01*
X233863Y125957D01*
X233965Y125979D01*
X234082Y125997D01*
X234202Y126005D01*
X234238D01*
X234264Y126001D01*
D02*
G37*
G36*
X258051Y125306D02*
X258091Y125302D01*
X258138Y125295D01*
X258189Y125284D01*
X258244Y125269D01*
X258295Y125248D01*
X258302Y125244D01*
X258317Y125237D01*
X258342Y125226D01*
X258371Y125207D01*
X258408Y125186D01*
X258440Y125156D01*
X258473Y125127D01*
X258502Y125091D01*
X258506Y125087D01*
X258513Y125073D01*
X258524Y125055D01*
X258542Y125029D01*
X258557Y124993D01*
X258572Y124956D01*
X258590Y124913D01*
X258601Y124865D01*
Y124862D01*
X258604Y124847D01*
X258608Y124825D01*
X258612Y124796D01*
Y124752D01*
X258615Y124701D01*
X258619Y124640D01*
Y124563D01*
Y123442D01*
X258310D01*
Y124549D01*
Y124552D01*
Y124556D01*
Y124581D01*
Y124614D01*
X258306Y124654D01*
X258302Y124701D01*
X258295Y124749D01*
X258284Y124793D01*
X258273Y124832D01*
Y124836D01*
X258266Y124847D01*
X258255Y124865D01*
X258244Y124887D01*
X258226Y124909D01*
X258204Y124934D01*
X258175Y124960D01*
X258142Y124982D01*
X258138Y124985D01*
X258127Y124993D01*
X258106Y125000D01*
X258080Y125011D01*
X258051Y125022D01*
X258015Y125033D01*
X257971Y125036D01*
X257927Y125040D01*
X257909D01*
X257894Y125036D01*
X257858Y125033D01*
X257811Y125025D01*
X257760Y125007D01*
X257702Y124985D01*
X257643Y124956D01*
X257589Y124913D01*
X257581Y124905D01*
X257567Y124887D01*
X257556Y124873D01*
X257545Y124854D01*
X257530Y124832D01*
X257520Y124807D01*
X257505Y124778D01*
X257490Y124741D01*
X257480Y124701D01*
X257469Y124658D01*
X257461Y124610D01*
X257454Y124559D01*
X257447Y124498D01*
Y124436D01*
Y123442D01*
X257137D01*
Y125269D01*
X257414D01*
Y125007D01*
X257418Y125011D01*
X257425Y125022D01*
X257436Y125036D01*
X257450Y125055D01*
X257472Y125076D01*
X257498Y125102D01*
X257527Y125131D01*
X257563Y125160D01*
X257600Y125186D01*
X257643Y125215D01*
X257691Y125240D01*
X257742Y125262D01*
X257800Y125280D01*
X257858Y125295D01*
X257924Y125306D01*
X257993Y125309D01*
X258022D01*
X258051Y125306D01*
D02*
G37*
G36*
X247874D02*
X247914Y125302D01*
X247961Y125295D01*
X248012Y125284D01*
X248066Y125269D01*
X248117Y125248D01*
X248125Y125244D01*
X248139Y125237D01*
X248165Y125226D01*
X248194Y125207D01*
X248230Y125186D01*
X248263Y125156D01*
X248296Y125127D01*
X248325Y125091D01*
X248329Y125087D01*
X248336Y125073D01*
X248347Y125055D01*
X248365Y125029D01*
X248380Y124993D01*
X248394Y124956D01*
X248412Y124913D01*
X248423Y124865D01*
Y124862D01*
X248427Y124847D01*
X248430Y124825D01*
X248434Y124796D01*
Y124752D01*
X248438Y124701D01*
X248441Y124640D01*
Y124563D01*
Y123442D01*
X248132D01*
Y124549D01*
Y124552D01*
Y124556D01*
Y124581D01*
Y124614D01*
X248128Y124654D01*
X248125Y124701D01*
X248117Y124749D01*
X248107Y124793D01*
X248096Y124832D01*
Y124836D01*
X248088Y124847D01*
X248077Y124865D01*
X248066Y124887D01*
X248048Y124909D01*
X248026Y124934D01*
X247997Y124960D01*
X247965Y124982D01*
X247961Y124985D01*
X247950Y124993D01*
X247928Y125000D01*
X247903Y125011D01*
X247874Y125022D01*
X247837Y125033D01*
X247794Y125036D01*
X247750Y125040D01*
X247732D01*
X247717Y125036D01*
X247681Y125033D01*
X247633Y125025D01*
X247582Y125007D01*
X247524Y124985D01*
X247466Y124956D01*
X247411Y124913D01*
X247404Y124905D01*
X247390Y124887D01*
X247378Y124873D01*
X247368Y124854D01*
X247353Y124832D01*
X247342Y124807D01*
X247328Y124778D01*
X247313Y124741D01*
X247302Y124701D01*
X247291Y124658D01*
X247284Y124610D01*
X247277Y124559D01*
X247269Y124498D01*
Y124436D01*
Y123442D01*
X246960D01*
Y125269D01*
X247237D01*
Y125007D01*
X247240Y125011D01*
X247248Y125022D01*
X247258Y125036D01*
X247273Y125055D01*
X247295Y125076D01*
X247320Y125102D01*
X247349Y125131D01*
X247386Y125160D01*
X247422Y125186D01*
X247466Y125215D01*
X247513Y125240D01*
X247564Y125262D01*
X247622Y125280D01*
X247681Y125295D01*
X247746Y125306D01*
X247815Y125309D01*
X247845D01*
X247874Y125306D01*
D02*
G37*
G36*
X254735D02*
X254775Y125299D01*
X254822Y125284D01*
X254873Y125266D01*
X254932Y125240D01*
X254993Y125207D01*
X254881Y124924D01*
X254877Y124927D01*
X254862Y124934D01*
X254840Y124945D01*
X254811Y124956D01*
X254779Y124967D01*
X254739Y124978D01*
X254699Y124985D01*
X254659Y124989D01*
X254640D01*
X254622Y124985D01*
X254597Y124982D01*
X254571Y124975D01*
X254538Y124964D01*
X254506Y124949D01*
X254476Y124927D01*
X254473Y124924D01*
X254462Y124916D01*
X254451Y124902D01*
X254433Y124883D01*
X254415Y124858D01*
X254397Y124829D01*
X254378Y124796D01*
X254364Y124756D01*
X254360Y124749D01*
X254356Y124727D01*
X254349Y124694D01*
X254338Y124651D01*
X254327Y124596D01*
X254320Y124534D01*
X254316Y124469D01*
X254313Y124396D01*
Y123442D01*
X254003D01*
Y125269D01*
X254284D01*
Y124993D01*
X254287Y124996D01*
X254302Y125022D01*
X254320Y125055D01*
X254349Y125095D01*
X254378Y125135D01*
X254411Y125178D01*
X254444Y125215D01*
X254476Y125244D01*
X254480Y125248D01*
X254491Y125255D01*
X254513Y125266D01*
X254535Y125277D01*
X254564Y125287D01*
X254600Y125299D01*
X254637Y125306D01*
X254677Y125309D01*
X254702D01*
X254735Y125306D01*
D02*
G37*
G36*
X259769D02*
X259824Y125302D01*
X259882Y125295D01*
X259944Y125280D01*
X260009Y125266D01*
X260071Y125244D01*
X260075D01*
X260079Y125240D01*
X260097Y125233D01*
X260126Y125218D01*
X260162Y125200D01*
X260202Y125175D01*
X260242Y125146D01*
X260279Y125113D01*
X260312Y125076D01*
X260315Y125073D01*
X260322Y125058D01*
X260337Y125033D01*
X260355Y125004D01*
X260373Y124960D01*
X260392Y124913D01*
X260406Y124858D01*
X260421Y124796D01*
X260119Y124756D01*
Y124763D01*
X260115Y124778D01*
X260108Y124803D01*
X260097Y124836D01*
X260079Y124869D01*
X260057Y124905D01*
X260031Y124942D01*
X259995Y124975D01*
X259991Y124978D01*
X259977Y124985D01*
X259955Y125000D01*
X259922Y125014D01*
X259886Y125029D01*
X259838Y125044D01*
X259780Y125051D01*
X259718Y125055D01*
X259682D01*
X259645Y125051D01*
X259598Y125047D01*
X259551Y125036D01*
X259500Y125025D01*
X259452Y125007D01*
X259412Y124982D01*
X259409Y124978D01*
X259398Y124971D01*
X259383Y124956D01*
X259369Y124934D01*
X259350Y124913D01*
X259336Y124883D01*
X259325Y124851D01*
X259321Y124818D01*
Y124814D01*
Y124807D01*
X259325Y124796D01*
Y124782D01*
X259336Y124745D01*
X259358Y124709D01*
X259361Y124705D01*
X259365Y124701D01*
X259372Y124691D01*
X259387Y124680D01*
X259401Y124669D01*
X259423Y124654D01*
X259449Y124643D01*
X259478Y124629D01*
X259482D01*
X259489Y124625D01*
X259503Y124621D01*
X259529Y124610D01*
X259565Y124600D01*
X259613Y124589D01*
X259642Y124578D01*
X259675Y124571D01*
X259711Y124559D01*
X259751Y124549D01*
X259755D01*
X259766Y124545D01*
X259784Y124541D01*
X259805Y124534D01*
X259831Y124527D01*
X259864Y124520D01*
X259933Y124498D01*
X260009Y124476D01*
X260086Y124450D01*
X260155Y124425D01*
X260184Y124414D01*
X260209Y124403D01*
X260217Y124399D01*
X260231Y124392D01*
X260253Y124381D01*
X260286Y124363D01*
X260319Y124341D01*
X260351Y124312D01*
X260384Y124279D01*
X260413Y124243D01*
X260417Y124239D01*
X260424Y124225D01*
X260439Y124203D01*
X260453Y124170D01*
X260464Y124130D01*
X260479Y124086D01*
X260486Y124035D01*
X260490Y123977D01*
Y123970D01*
Y123952D01*
X260486Y123923D01*
X260479Y123882D01*
X260468Y123839D01*
X260450Y123792D01*
X260428Y123737D01*
X260399Y123686D01*
X260395Y123679D01*
X260381Y123664D01*
X260362Y123639D01*
X260333Y123609D01*
X260293Y123577D01*
X260250Y123540D01*
X260199Y123508D01*
X260137Y123475D01*
X260133D01*
X260129Y123471D01*
X260108Y123464D01*
X260071Y123453D01*
X260024Y123438D01*
X259966Y123424D01*
X259900Y123413D01*
X259831Y123406D01*
X259751Y123402D01*
X259718D01*
X259693Y123406D01*
X259664D01*
X259627Y123409D01*
X259591Y123413D01*
X259551Y123420D01*
X259463Y123438D01*
X259372Y123464D01*
X259285Y123500D01*
X259245Y123522D01*
X259209Y123548D01*
X259205Y123551D01*
X259201Y123555D01*
X259179Y123577D01*
X259147Y123609D01*
X259110Y123661D01*
X259070Y123722D01*
X259030Y123795D01*
X258997Y123886D01*
X258972Y123988D01*
X259278Y124035D01*
Y124032D01*
Y124028D01*
X259285Y124006D01*
X259292Y123970D01*
X259307Y123930D01*
X259325Y123886D01*
X259347Y123839D01*
X259380Y123792D01*
X259420Y123751D01*
X259427Y123748D01*
X259441Y123737D01*
X259471Y123722D01*
X259507Y123704D01*
X259554Y123686D01*
X259609Y123671D01*
X259675Y123661D01*
X259751Y123657D01*
X259787D01*
X259824Y123661D01*
X259871Y123668D01*
X259922Y123679D01*
X259977Y123693D01*
X260024Y123711D01*
X260068Y123740D01*
X260071Y123744D01*
X260086Y123755D01*
X260100Y123773D01*
X260122Y123799D01*
X260140Y123828D01*
X260159Y123864D01*
X260170Y123901D01*
X260173Y123944D01*
Y123948D01*
Y123963D01*
X260170Y123981D01*
X260162Y124006D01*
X260151Y124032D01*
X260133Y124057D01*
X260111Y124086D01*
X260079Y124108D01*
X260075Y124112D01*
X260064Y124116D01*
X260046Y124126D01*
X260017Y124137D01*
X259973Y124152D01*
X259947Y124163D01*
X259918Y124170D01*
X259886Y124181D01*
X259849Y124192D01*
X259809Y124203D01*
X259762Y124214D01*
X259758D01*
X259747Y124217D01*
X259729Y124221D01*
X259707Y124228D01*
X259678Y124236D01*
X259645Y124247D01*
X259576Y124265D01*
X259496Y124290D01*
X259420Y124312D01*
X259347Y124337D01*
X259314Y124352D01*
X259289Y124363D01*
X259281Y124367D01*
X259267Y124374D01*
X259245Y124389D01*
X259216Y124407D01*
X259183Y124432D01*
X259150Y124461D01*
X259118Y124494D01*
X259088Y124534D01*
X259085Y124538D01*
X259078Y124552D01*
X259067Y124578D01*
X259056Y124607D01*
X259045Y124643D01*
X259034Y124687D01*
X259027Y124731D01*
X259023Y124782D01*
Y124789D01*
Y124803D01*
X259027Y124825D01*
X259030Y124858D01*
X259037Y124891D01*
X259045Y124931D01*
X259059Y124967D01*
X259078Y125007D01*
X259081Y125011D01*
X259088Y125025D01*
X259099Y125044D01*
X259118Y125069D01*
X259139Y125095D01*
X259165Y125127D01*
X259194Y125156D01*
X259230Y125182D01*
X259234Y125186D01*
X259245Y125189D01*
X259260Y125200D01*
X259281Y125211D01*
X259311Y125226D01*
X259343Y125240D01*
X259383Y125255D01*
X259427Y125269D01*
X259434Y125273D01*
X259449Y125277D01*
X259474Y125284D01*
X259507Y125291D01*
X259547Y125299D01*
X259591Y125302D01*
X259642Y125309D01*
X259729D01*
X259769Y125306D01*
D02*
G37*
G36*
X239982Y123442D02*
X239636D01*
X238319Y125419D01*
Y123442D01*
X237998D01*
Y125961D01*
X238340D01*
X239662Y123981D01*
Y125961D01*
X239982D01*
Y123442D01*
D02*
G37*
G36*
X256031Y125306D02*
X256085Y125302D01*
X256147Y125295D01*
X256209Y125284D01*
X256271Y125269D01*
X256329Y125251D01*
X256337Y125248D01*
X256355Y125240D01*
X256380Y125229D01*
X256413Y125215D01*
X256449Y125193D01*
X256486Y125171D01*
X256519Y125142D01*
X256548Y125113D01*
X256551Y125109D01*
X256559Y125098D01*
X256570Y125080D01*
X256584Y125058D01*
X256602Y125025D01*
X256617Y124993D01*
X256631Y124953D01*
X256642Y124905D01*
Y124902D01*
X256646Y124891D01*
X256650Y124869D01*
X256653Y124840D01*
Y124800D01*
X256657Y124752D01*
X256661Y124691D01*
Y124621D01*
Y124206D01*
Y124203D01*
Y124188D01*
Y124166D01*
Y124137D01*
Y124104D01*
Y124065D01*
X256664Y123977D01*
Y123886D01*
X256668Y123795D01*
X256672Y123755D01*
Y123719D01*
X256675Y123686D01*
X256679Y123661D01*
Y123657D01*
X256682Y123642D01*
X256686Y123620D01*
X256697Y123591D01*
X256704Y123558D01*
X256719Y123522D01*
X256737Y123482D01*
X256755Y123442D01*
X256431D01*
X256428Y123446D01*
X256424Y123460D01*
X256417Y123478D01*
X256406Y123508D01*
X256395Y123540D01*
X256388Y123580D01*
X256380Y123624D01*
X256373Y123671D01*
X256369D01*
X256366Y123664D01*
X256344Y123646D01*
X256311Y123620D01*
X256267Y123588D01*
X256213Y123555D01*
X256158Y123519D01*
X256100Y123486D01*
X256038Y123460D01*
X256031Y123457D01*
X256009Y123453D01*
X255976Y123442D01*
X255936Y123431D01*
X255885Y123420D01*
X255827Y123413D01*
X255762Y123406D01*
X255696Y123402D01*
X255667D01*
X255645Y123406D01*
X255620D01*
X255590Y123409D01*
X255525Y123420D01*
X255452Y123438D01*
X255372Y123464D01*
X255299Y123500D01*
X255234Y123548D01*
X255226Y123555D01*
X255208Y123573D01*
X255183Y123606D01*
X255154Y123650D01*
X255124Y123704D01*
X255099Y123766D01*
X255081Y123843D01*
X255077Y123879D01*
X255073Y123923D01*
Y123930D01*
Y123944D01*
X255077Y123970D01*
X255081Y124003D01*
X255088Y124043D01*
X255099Y124083D01*
X255114Y124126D01*
X255132Y124166D01*
X255135Y124170D01*
X255143Y124185D01*
X255157Y124206D01*
X255175Y124232D01*
X255197Y124261D01*
X255226Y124290D01*
X255256Y124319D01*
X255292Y124345D01*
X255296Y124348D01*
X255310Y124356D01*
X255328Y124370D01*
X255357Y124385D01*
X255390Y124399D01*
X255430Y124418D01*
X255470Y124432D01*
X255518Y124447D01*
X255521D01*
X255536Y124450D01*
X255558Y124458D01*
X255587Y124461D01*
X255623Y124469D01*
X255670Y124476D01*
X255725Y124487D01*
X255791Y124494D01*
X255794D01*
X255809Y124498D01*
X255827D01*
X255853Y124501D01*
X255882Y124505D01*
X255918Y124512D01*
X255958Y124516D01*
X256002Y124523D01*
X256089Y124541D01*
X256184Y124559D01*
X256267Y124581D01*
X256308Y124592D01*
X256344Y124603D01*
Y124607D01*
Y124614D01*
X256347Y124636D01*
Y124662D01*
Y124676D01*
Y124683D01*
Y124687D01*
Y124691D01*
Y124712D01*
X256344Y124749D01*
X256337Y124789D01*
X256326Y124832D01*
X256308Y124876D01*
X256286Y124916D01*
X256257Y124949D01*
X256253Y124953D01*
X256235Y124967D01*
X256206Y124982D01*
X256169Y125004D01*
X256118Y125022D01*
X256060Y125040D01*
X255987Y125051D01*
X255903Y125055D01*
X255867D01*
X255831Y125051D01*
X255780Y125044D01*
X255729Y125036D01*
X255674Y125022D01*
X255623Y125004D01*
X255579Y124978D01*
X255576Y124975D01*
X255561Y124964D01*
X255543Y124945D01*
X255521Y124916D01*
X255499Y124880D01*
X255474Y124832D01*
X255452Y124774D01*
X255430Y124709D01*
X255128Y124749D01*
Y124752D01*
X255132Y124756D01*
Y124767D01*
X255135Y124782D01*
X255146Y124814D01*
X255161Y124862D01*
X255179Y124909D01*
X255201Y124960D01*
X255230Y125011D01*
X255263Y125058D01*
X255266Y125062D01*
X255281Y125076D01*
X255303Y125098D01*
X255332Y125127D01*
X255372Y125156D01*
X255419Y125186D01*
X255474Y125218D01*
X255536Y125244D01*
X255539D01*
X255543Y125248D01*
X255554Y125251D01*
X255569Y125255D01*
X255605Y125266D01*
X255656Y125277D01*
X255714Y125287D01*
X255787Y125299D01*
X255863Y125306D01*
X255951Y125309D01*
X255991D01*
X256031Y125306D01*
D02*
G37*
G36*
X253701Y125663D02*
X252871D01*
Y123442D01*
X252536D01*
Y125663D01*
X251707D01*
Y125961D01*
X253701D01*
Y125663D01*
D02*
G37*
G36*
X237733Y123442D02*
X237354D01*
X237059Y124206D01*
X236003D01*
X235731Y123442D01*
X235378D01*
X236338Y125961D01*
X236702D01*
X237733Y123442D01*
D02*
G37*
G36*
X249279Y125269D02*
X249592D01*
Y125029D01*
X249279D01*
Y123955D01*
Y123948D01*
Y123933D01*
Y123912D01*
X249282Y123886D01*
X249286Y123828D01*
X249290Y123802D01*
X249293Y123784D01*
X249297Y123777D01*
X249308Y123762D01*
X249322Y123744D01*
X249348Y123726D01*
X249355Y123722D01*
X249373Y123715D01*
X249406Y123708D01*
X249453Y123704D01*
X249490D01*
X249508Y123708D01*
X249533D01*
X249563Y123711D01*
X249592Y123715D01*
X249632Y123442D01*
X249624D01*
X249610Y123438D01*
X249584Y123435D01*
X249552Y123431D01*
X249515Y123424D01*
X249475Y123420D01*
X249395Y123417D01*
X249366D01*
X249337Y123420D01*
X249301Y123424D01*
X249257Y123427D01*
X249213Y123438D01*
X249173Y123449D01*
X249133Y123468D01*
X249129Y123471D01*
X249118Y123478D01*
X249104Y123489D01*
X249082Y123508D01*
X249064Y123526D01*
X249042Y123551D01*
X249020Y123577D01*
X249006Y123609D01*
Y123613D01*
X248998Y123628D01*
X248995Y123653D01*
X248987Y123690D01*
X248980Y123737D01*
X248976Y123766D01*
Y123799D01*
X248973Y123839D01*
X248969Y123879D01*
Y123923D01*
Y123974D01*
Y125029D01*
X248740D01*
Y125269D01*
X248969D01*
Y125721D01*
X249279Y125906D01*
Y125269D01*
D02*
G37*
G36*
X245802Y125306D02*
X245835Y125302D01*
X245872Y125295D01*
X245912Y125287D01*
X245959Y125280D01*
X246057Y125248D01*
X246108Y125229D01*
X246159Y125204D01*
X246210Y125178D01*
X246261Y125142D01*
X246308Y125106D01*
X246356Y125062D01*
X246359Y125058D01*
X246367Y125051D01*
X246378Y125036D01*
X246392Y125018D01*
X246410Y124993D01*
X246432Y124960D01*
X246454Y124924D01*
X246476Y124883D01*
X246498Y124840D01*
X246519Y124785D01*
X246541Y124731D01*
X246560Y124669D01*
X246574Y124603D01*
X246585Y124534D01*
X246592Y124461D01*
X246596Y124381D01*
Y124378D01*
Y124367D01*
Y124348D01*
Y124323D01*
X246592Y124294D01*
X246589Y124257D01*
Y124221D01*
X246581Y124181D01*
X246570Y124090D01*
X246549Y123999D01*
X246523Y123908D01*
X246487Y123824D01*
Y123821D01*
X246483Y123817D01*
X246476Y123806D01*
X246469Y123792D01*
X246443Y123755D01*
X246410Y123711D01*
X246367Y123661D01*
X246312Y123609D01*
X246250Y123558D01*
X246177Y123511D01*
X246174D01*
X246170Y123508D01*
X246159Y123500D01*
X246141Y123493D01*
X246123Y123486D01*
X246101Y123478D01*
X246046Y123457D01*
X245984Y123438D01*
X245908Y123420D01*
X245828Y123406D01*
X245741Y123402D01*
X245704D01*
X245675Y123406D01*
X245642Y123409D01*
X245606Y123417D01*
X245562Y123424D01*
X245518Y123431D01*
X245420Y123460D01*
X245366Y123482D01*
X245315Y123504D01*
X245264Y123533D01*
X245213Y123566D01*
X245165Y123602D01*
X245118Y123646D01*
X245114Y123650D01*
X245107Y123657D01*
X245096Y123671D01*
X245082Y123693D01*
X245063Y123719D01*
X245045Y123748D01*
X245023Y123784D01*
X245002Y123828D01*
X244980Y123875D01*
X244958Y123930D01*
X244940Y123988D01*
X244921Y124050D01*
X244907Y124119D01*
X244896Y124192D01*
X244889Y124272D01*
X244885Y124356D01*
Y124363D01*
Y124378D01*
X244889Y124403D01*
Y124439D01*
X244892Y124479D01*
X244900Y124530D01*
X244907Y124581D01*
X244921Y124640D01*
X244936Y124698D01*
X244954Y124760D01*
X244976Y124825D01*
X245005Y124887D01*
X245034Y124945D01*
X245074Y125004D01*
X245114Y125058D01*
X245165Y125106D01*
X245169Y125109D01*
X245176Y125113D01*
X245191Y125124D01*
X245209Y125138D01*
X245231Y125153D01*
X245260Y125171D01*
X245289Y125189D01*
X245326Y125207D01*
X245366Y125226D01*
X245409Y125244D01*
X245508Y125277D01*
X245620Y125302D01*
X245679Y125306D01*
X245741Y125309D01*
X245777D01*
X245802Y125306D01*
D02*
G37*
G36*
X251659Y122743D02*
X249610D01*
Y122965D01*
X251659D01*
Y122743D01*
D02*
G37*
G36*
X242264D02*
X240215D01*
Y122965D01*
X242264D01*
Y122743D01*
D02*
G37*
G36*
X215024Y207067D02*
X215053Y207064D01*
X215086Y207060D01*
X215126Y207053D01*
X215166Y207045D01*
X215260Y207023D01*
X215359Y206987D01*
X215410Y206965D01*
X215457Y206936D01*
X215508Y206907D01*
X215555Y206871D01*
X215559Y206867D01*
X215570Y206860D01*
X215584Y206845D01*
X215602Y206827D01*
X215624Y206801D01*
X215653Y206772D01*
X215679Y206736D01*
X215708Y206696D01*
X215737Y206652D01*
X215763Y206601D01*
X215788Y206547D01*
X215814Y206488D01*
X215832Y206427D01*
X215846Y206357D01*
X215857Y206284D01*
X215861Y206208D01*
Y206175D01*
X215857Y206150D01*
X215854Y206121D01*
X215850Y206088D01*
X215846Y206048D01*
X215835Y206008D01*
X215814Y205917D01*
X215781Y205826D01*
X215759Y205779D01*
X215734Y205731D01*
X215704Y205688D01*
X215672Y205644D01*
X215668Y205640D01*
X215664Y205633D01*
X215650Y205626D01*
X215635Y205611D01*
X215617Y205593D01*
X215595Y205575D01*
X215566Y205553D01*
X215533Y205535D01*
X215501Y205513D01*
X215460Y205491D01*
X215373Y205451D01*
X215271Y205418D01*
X215217Y205407D01*
X215158Y205400D01*
X215133Y205724D01*
X215137D01*
X215144D01*
X215155Y205728D01*
X215173Y205731D01*
X215213Y205742D01*
X215268Y205757D01*
X215322Y205779D01*
X215384Y205808D01*
X215439Y205844D01*
X215490Y205888D01*
X215493Y205895D01*
X215508Y205910D01*
X215526Y205939D01*
X215548Y205979D01*
X215570Y206022D01*
X215588Y206077D01*
X215602Y206139D01*
X215606Y206208D01*
Y206230D01*
X215602Y206244D01*
X215599Y206288D01*
X215584Y206339D01*
X215566Y206401D01*
X215537Y206463D01*
X215493Y206528D01*
X215468Y206557D01*
X215439Y206587D01*
X215435Y206590D01*
X215431Y206594D01*
X215421Y206601D01*
X215410Y206612D01*
X215370Y206638D01*
X215319Y206667D01*
X215257Y206692D01*
X215180Y206718D01*
X215089Y206736D01*
X215042Y206743D01*
X214991D01*
X214987D01*
X214980D01*
X214966D01*
X214947Y206739D01*
X214926D01*
X214900Y206736D01*
X214842Y206725D01*
X214773Y206707D01*
X214703Y206681D01*
X214638Y206645D01*
X214576Y206594D01*
X214572D01*
X214569Y206587D01*
X214550Y206568D01*
X214525Y206536D01*
X214496Y206492D01*
X214470Y206434D01*
X214445Y206368D01*
X214427Y206292D01*
X214420Y206248D01*
Y206179D01*
X214423Y206150D01*
X214427Y206113D01*
X214438Y206070D01*
X214449Y206026D01*
X214467Y205979D01*
X214489Y205931D01*
X214492Y205928D01*
X214500Y205913D01*
X214518Y205891D01*
X214536Y205862D01*
X214562Y205833D01*
X214594Y205804D01*
X214627Y205771D01*
X214667Y205746D01*
X214627Y205455D01*
X213331Y205698D01*
Y206951D01*
X213626D01*
Y205942D01*
X214307Y205808D01*
X214303Y205811D01*
X214299Y205819D01*
X214292Y205830D01*
X214281Y205848D01*
X214270Y205870D01*
X214256Y205895D01*
X214227Y205953D01*
X214197Y206026D01*
X214172Y206106D01*
X214154Y206193D01*
X214146Y206237D01*
Y206317D01*
X214150Y206339D01*
X214154Y206368D01*
X214157Y206401D01*
X214165Y206437D01*
X214176Y206477D01*
X214201Y206565D01*
X214219Y206612D01*
X214245Y206659D01*
X214270Y206707D01*
X214299Y206754D01*
X214336Y206798D01*
X214376Y206841D01*
X214379Y206845D01*
X214387Y206852D01*
X214398Y206863D01*
X214416Y206878D01*
X214441Y206896D01*
X214467Y206914D01*
X214500Y206936D01*
X214536Y206958D01*
X214576Y206976D01*
X214620Y206998D01*
X214671Y207016D01*
X214722Y207034D01*
X214776Y207049D01*
X214838Y207060D01*
X214900Y207067D01*
X214966Y207071D01*
X214969D01*
X214980D01*
X214998D01*
X215024Y207067D01*
D02*
G37*
G36*
X215038Y205112D02*
X215060Y205105D01*
X215089Y205094D01*
X215122Y205083D01*
X215162Y205069D01*
X215206Y205051D01*
X215253Y205029D01*
X215355Y204978D01*
X215457Y204912D01*
X215508Y204872D01*
X215559Y204832D01*
X215602Y204788D01*
X215646Y204737D01*
X215650Y204734D01*
X215657Y204727D01*
X215664Y204708D01*
X215679Y204690D01*
X215697Y204661D01*
X215715Y204632D01*
X215734Y204592D01*
X215752Y204552D01*
X215774Y204504D01*
X215792Y204454D01*
X215810Y204399D01*
X215828Y204341D01*
X215843Y204279D01*
X215850Y204213D01*
X215857Y204144D01*
X215861Y204071D01*
Y204031D01*
X215857Y204002D01*
Y203970D01*
X215854Y203929D01*
X215846Y203886D01*
X215839Y203835D01*
X215821Y203729D01*
X215792Y203620D01*
X215752Y203511D01*
X215726Y203460D01*
X215697Y203409D01*
X215693Y203405D01*
X215690Y203398D01*
X215679Y203383D01*
X215664Y203369D01*
X215650Y203347D01*
X215628Y203322D01*
X215602Y203292D01*
X215573Y203263D01*
X215541Y203234D01*
X215508Y203201D01*
X215424Y203136D01*
X215326Y203074D01*
X215217Y203019D01*
X215213D01*
X215202Y203012D01*
X215184Y203009D01*
X215162Y202998D01*
X215133Y202990D01*
X215096Y202979D01*
X215056Y202965D01*
X215013Y202954D01*
X214966Y202943D01*
X214911Y202928D01*
X214798Y202910D01*
X214671Y202896D01*
X214540Y202888D01*
X214536D01*
X214521D01*
X214500D01*
X214474Y202892D01*
X214438D01*
X214401Y202896D01*
X214354Y202899D01*
X214307Y202907D01*
X214201Y202925D01*
X214085Y202950D01*
X213968Y202987D01*
X213855Y203038D01*
X213852Y203041D01*
X213841Y203045D01*
X213826Y203052D01*
X213808Y203067D01*
X213783Y203081D01*
X213753Y203099D01*
X213688Y203147D01*
X213615Y203209D01*
X213542Y203281D01*
X213470Y203365D01*
X213408Y203464D01*
X213404Y203467D01*
X213400Y203478D01*
X213393Y203493D01*
X213382Y203511D01*
X213371Y203540D01*
X213360Y203569D01*
X213346Y203606D01*
X213331Y203645D01*
X213317Y203689D01*
X213302Y203736D01*
X213280Y203838D01*
X213262Y203955D01*
X213255Y204075D01*
Y204111D01*
X213258Y204137D01*
X213262Y204170D01*
X213266Y204210D01*
X213269Y204250D01*
X213280Y204297D01*
X213302Y204395D01*
X213335Y204504D01*
X213357Y204559D01*
X213382Y204610D01*
X213415Y204661D01*
X213448Y204712D01*
X213451Y204716D01*
X213455Y204723D01*
X213466Y204737D01*
X213484Y204756D01*
X213502Y204774D01*
X213528Y204799D01*
X213557Y204825D01*
X213586Y204854D01*
X213622Y204883D01*
X213666Y204912D01*
X213710Y204945D01*
X213757Y204974D01*
X213812Y205000D01*
X213866Y205029D01*
X213924Y205051D01*
X213990Y205072D01*
X214066Y204745D01*
X214063D01*
X214055Y204741D01*
X214041Y204734D01*
X214023Y204727D01*
X214001Y204719D01*
X213972Y204708D01*
X213913Y204679D01*
X213848Y204643D01*
X213783Y204599D01*
X213721Y204545D01*
X213666Y204486D01*
X213659Y204479D01*
X213644Y204457D01*
X213626Y204421D01*
X213600Y204374D01*
X213579Y204312D01*
X213557Y204242D01*
X213542Y204159D01*
X213539Y204068D01*
Y204039D01*
X213542Y204020D01*
Y203995D01*
X213546Y203966D01*
X213557Y203897D01*
X213571Y203820D01*
X213597Y203740D01*
X213633Y203656D01*
X213681Y203580D01*
Y203576D01*
X213688Y203573D01*
X213706Y203547D01*
X213735Y203515D01*
X213779Y203474D01*
X213833Y203427D01*
X213895Y203383D01*
X213972Y203343D01*
X214055Y203307D01*
X214059D01*
X214066Y203303D01*
X214077Y203300D01*
X214095Y203296D01*
X214117Y203289D01*
X214143Y203281D01*
X214205Y203271D01*
X214278Y203256D01*
X214358Y203241D01*
X214445Y203234D01*
X214540Y203231D01*
X214543D01*
X214554D01*
X214572D01*
X214594D01*
X214620Y203234D01*
X214652D01*
X214689Y203238D01*
X214729Y203241D01*
X214816Y203252D01*
X214911Y203271D01*
X215005Y203292D01*
X215100Y203322D01*
X215104D01*
X215111Y203325D01*
X215122Y203332D01*
X215140Y203340D01*
X215184Y203362D01*
X215235Y203394D01*
X215293Y203434D01*
X215355Y203485D01*
X215410Y203544D01*
X215460Y203613D01*
Y203616D01*
X215464Y203624D01*
X215472Y203635D01*
X215479Y203649D01*
X215486Y203667D01*
X215497Y203689D01*
X215519Y203740D01*
X215541Y203806D01*
X215559Y203878D01*
X215573Y203959D01*
X215577Y204042D01*
Y204068D01*
X215573Y204090D01*
Y204115D01*
X215570Y204141D01*
X215555Y204206D01*
X215537Y204282D01*
X215508Y204359D01*
X215468Y204439D01*
X215446Y204479D01*
X215417Y204516D01*
X215413Y204519D01*
X215410Y204523D01*
X215399Y204534D01*
X215388Y204548D01*
X215370Y204563D01*
X215348Y204581D01*
X215326Y204603D01*
X215297Y204621D01*
X215264Y204643D01*
X215228Y204668D01*
X215191Y204690D01*
X215147Y204712D01*
X215100Y204730D01*
X215049Y204748D01*
X214995Y204767D01*
X214936Y204781D01*
X215020Y205116D01*
X215024D01*
X215038Y205112D01*
D02*
G37*
G36*
X175889Y88103D02*
X175922Y88099D01*
X175962Y88095D01*
X176002Y88092D01*
X176049Y88081D01*
X176148Y88059D01*
X176257Y88026D01*
X176312Y88004D01*
X176363Y87979D01*
X176413Y87946D01*
X176464Y87913D01*
X176468Y87910D01*
X176475Y87906D01*
X176490Y87895D01*
X176508Y87877D01*
X176526Y87859D01*
X176552Y87833D01*
X176577Y87804D01*
X176606Y87775D01*
X176636Y87739D01*
X176665Y87695D01*
X176697Y87651D01*
X176726Y87604D01*
X176752Y87549D01*
X176781Y87495D01*
X176803Y87436D01*
X176825Y87371D01*
X176497Y87294D01*
Y87298D01*
X176494Y87305D01*
X176486Y87320D01*
X176479Y87338D01*
X176472Y87360D01*
X176461Y87389D01*
X176432Y87447D01*
X176395Y87513D01*
X176351Y87578D01*
X176297Y87640D01*
X176239Y87695D01*
X176231Y87702D01*
X176210Y87717D01*
X176173Y87735D01*
X176126Y87760D01*
X176064Y87782D01*
X175995Y87804D01*
X175911Y87819D01*
X175820Y87822D01*
X175791D01*
X175773Y87819D01*
X175747D01*
X175718Y87815D01*
X175649Y87804D01*
X175573Y87789D01*
X175493Y87764D01*
X175409Y87728D01*
X175332Y87680D01*
X175329D01*
X175325Y87673D01*
X175300Y87655D01*
X175267Y87626D01*
X175227Y87582D01*
X175180Y87527D01*
X175136Y87466D01*
X175096Y87389D01*
X175059Y87305D01*
Y87302D01*
X175056Y87294D01*
X175052Y87283D01*
X175048Y87265D01*
X175041Y87243D01*
X175034Y87218D01*
X175023Y87156D01*
X175008Y87083D01*
X174994Y87003D01*
X174987Y86916D01*
X174983Y86821D01*
Y86818D01*
Y86807D01*
Y86788D01*
Y86767D01*
X174987Y86741D01*
Y86708D01*
X174990Y86672D01*
X174994Y86632D01*
X175005Y86545D01*
X175023Y86450D01*
X175045Y86355D01*
X175074Y86261D01*
Y86257D01*
X175077Y86250D01*
X175085Y86239D01*
X175092Y86221D01*
X175114Y86177D01*
X175147Y86126D01*
X175187Y86068D01*
X175238Y86006D01*
X175296Y85951D01*
X175365Y85900D01*
X175369D01*
X175376Y85897D01*
X175387Y85889D01*
X175401Y85882D01*
X175420Y85875D01*
X175442Y85864D01*
X175493Y85842D01*
X175558Y85820D01*
X175631Y85802D01*
X175711Y85787D01*
X175795Y85784D01*
X175820D01*
X175842Y85787D01*
X175867D01*
X175893Y85791D01*
X175958Y85806D01*
X176035Y85824D01*
X176111Y85853D01*
X176191Y85893D01*
X176231Y85915D01*
X176268Y85944D01*
X176271Y85948D01*
X176275Y85951D01*
X176286Y85962D01*
X176301Y85973D01*
X176315Y85991D01*
X176333Y86013D01*
X176355Y86035D01*
X176373Y86064D01*
X176395Y86097D01*
X176421Y86133D01*
X176443Y86170D01*
X176464Y86213D01*
X176483Y86261D01*
X176501Y86312D01*
X176519Y86366D01*
X176533Y86424D01*
X176868Y86341D01*
Y86337D01*
X176865Y86322D01*
X176857Y86301D01*
X176847Y86272D01*
X176836Y86239D01*
X176821Y86199D01*
X176803Y86155D01*
X176781Y86108D01*
X176730Y86006D01*
X176665Y85904D01*
X176625Y85853D01*
X176584Y85802D01*
X176541Y85758D01*
X176490Y85715D01*
X176486Y85711D01*
X176479Y85704D01*
X176461Y85697D01*
X176443Y85682D01*
X176413Y85664D01*
X176384Y85646D01*
X176344Y85627D01*
X176304Y85609D01*
X176257Y85587D01*
X176206Y85569D01*
X176151Y85551D01*
X176093Y85533D01*
X176031Y85518D01*
X175966Y85511D01*
X175897Y85504D01*
X175824Y85500D01*
X175784D01*
X175755Y85504D01*
X175722D01*
X175682Y85507D01*
X175638Y85514D01*
X175587Y85522D01*
X175482Y85540D01*
X175372Y85569D01*
X175263Y85609D01*
X175212Y85635D01*
X175161Y85664D01*
X175158Y85667D01*
X175150Y85671D01*
X175136Y85682D01*
X175121Y85697D01*
X175099Y85711D01*
X175074Y85733D01*
X175045Y85758D01*
X175016Y85787D01*
X174987Y85820D01*
X174954Y85853D01*
X174888Y85937D01*
X174826Y86035D01*
X174772Y86144D01*
Y86148D01*
X174765Y86159D01*
X174761Y86177D01*
X174750Y86199D01*
X174743Y86228D01*
X174732Y86264D01*
X174717Y86304D01*
X174706Y86348D01*
X174695Y86395D01*
X174681Y86450D01*
X174663Y86563D01*
X174648Y86690D01*
X174641Y86821D01*
Y86825D01*
Y86839D01*
Y86861D01*
X174644Y86887D01*
Y86923D01*
X174648Y86959D01*
X174652Y87007D01*
X174659Y87054D01*
X174677Y87160D01*
X174703Y87276D01*
X174739Y87393D01*
X174790Y87506D01*
X174794Y87509D01*
X174797Y87520D01*
X174804Y87535D01*
X174819Y87553D01*
X174834Y87578D01*
X174852Y87608D01*
X174899Y87673D01*
X174961Y87746D01*
X175034Y87819D01*
X175118Y87891D01*
X175216Y87953D01*
X175220Y87957D01*
X175230Y87960D01*
X175245Y87968D01*
X175263Y87979D01*
X175292Y87990D01*
X175321Y88001D01*
X175358Y88015D01*
X175398Y88030D01*
X175442Y88044D01*
X175489Y88059D01*
X175591Y88081D01*
X175707Y88099D01*
X175827Y88106D01*
X175864D01*
X175889Y88103D01*
D02*
G37*
G36*
X178452Y86432D02*
X178794D01*
Y86148D01*
X178452D01*
Y85544D01*
X178142D01*
Y86148D01*
X177047D01*
Y86432D01*
X178201Y88063D01*
X178452D01*
Y86432D01*
D02*
G37*
G36*
X23629Y206049D02*
X23658Y206045D01*
X23691Y206038D01*
X23728Y206031D01*
X23768Y206023D01*
X23855Y205994D01*
X23902Y205973D01*
X23946Y205951D01*
X23993Y205922D01*
X24041Y205889D01*
X24088Y205852D01*
X24132Y205809D01*
X24135Y205805D01*
X24142Y205798D01*
X24153Y205783D01*
X24168Y205765D01*
X24186Y205743D01*
X24204Y205714D01*
X24226Y205681D01*
X24245Y205641D01*
X24266Y205601D01*
X24288Y205554D01*
X24306Y205507D01*
X24325Y205452D01*
X24339Y205394D01*
X24350Y205332D01*
X24357Y205270D01*
X24361Y205201D01*
Y205168D01*
X24357Y205146D01*
X24354Y205117D01*
X24350Y205084D01*
X24343Y205048D01*
X24336Y205008D01*
X24314Y204921D01*
X24277Y204830D01*
X24255Y204782D01*
X24230Y204738D01*
X24197Y204695D01*
X24164Y204651D01*
X24161Y204647D01*
X24153Y204640D01*
X24142Y204629D01*
X24128Y204618D01*
X24110Y204600D01*
X24084Y204582D01*
X24059Y204560D01*
X24026Y204538D01*
X23990Y204517D01*
X23953Y204495D01*
X23866Y204455D01*
X23764Y204422D01*
X23709Y204411D01*
X23651Y204404D01*
X23611Y204713D01*
X23615D01*
X23622Y204717D01*
X23637Y204720D01*
X23655Y204724D01*
X23677Y204728D01*
X23702Y204735D01*
X23757Y204753D01*
X23822Y204779D01*
X23884Y204811D01*
X23942Y204848D01*
X23993Y204891D01*
X23997Y204899D01*
X24012Y204913D01*
X24030Y204942D01*
X24048Y204979D01*
X24070Y205022D01*
X24088Y205077D01*
X24103Y205139D01*
X24106Y205204D01*
Y205226D01*
X24103Y205241D01*
X24099Y205281D01*
X24088Y205332D01*
X24070Y205390D01*
X24044Y205452D01*
X24008Y205514D01*
X23957Y205572D01*
X23950Y205579D01*
X23928Y205598D01*
X23895Y205619D01*
X23851Y205648D01*
X23797Y205678D01*
X23735Y205699D01*
X23662Y205718D01*
X23582Y205725D01*
X23578D01*
X23571D01*
X23560D01*
X23546Y205721D01*
X23505Y205718D01*
X23458Y205707D01*
X23400Y205692D01*
X23342Y205667D01*
X23283Y205630D01*
X23229Y205583D01*
X23222Y205576D01*
X23207Y205557D01*
X23185Y205528D01*
X23160Y205488D01*
X23134Y205437D01*
X23112Y205376D01*
X23098Y205306D01*
X23091Y205230D01*
Y205197D01*
X23094Y205172D01*
X23098Y205139D01*
X23105Y205102D01*
X23112Y205059D01*
X23123Y205012D01*
X22850Y205048D01*
Y205066D01*
X22854Y205081D01*
Y205128D01*
X22847Y205168D01*
X22839Y205215D01*
X22828Y205270D01*
X22810Y205332D01*
X22785Y205390D01*
X22752Y205452D01*
Y205456D01*
X22748Y205459D01*
X22734Y205477D01*
X22708Y205503D01*
X22676Y205532D01*
X22628Y205561D01*
X22574Y205587D01*
X22512Y205605D01*
X22475Y205612D01*
X22435D01*
X22432D01*
X22428D01*
X22406D01*
X22377Y205605D01*
X22337Y205598D01*
X22293Y205583D01*
X22246Y205565D01*
X22199Y205536D01*
X22155Y205496D01*
X22151Y205492D01*
X22137Y205474D01*
X22119Y205448D01*
X22097Y205416D01*
X22079Y205372D01*
X22061Y205321D01*
X22046Y205263D01*
X22042Y205197D01*
Y205168D01*
X22050Y205135D01*
X22057Y205092D01*
X22071Y205044D01*
X22090Y204997D01*
X22119Y204946D01*
X22155Y204899D01*
X22159Y204895D01*
X22177Y204880D01*
X22202Y204859D01*
X22239Y204833D01*
X22286Y204808D01*
X22344Y204782D01*
X22413Y204760D01*
X22494Y204746D01*
X22439Y204436D01*
X22435D01*
X22424Y204440D01*
X22410Y204444D01*
X22388Y204447D01*
X22363Y204455D01*
X22333Y204466D01*
X22264Y204487D01*
X22184Y204524D01*
X22104Y204567D01*
X22028Y204622D01*
X21959Y204691D01*
X21955Y204695D01*
X21951Y204702D01*
X21944Y204713D01*
X21933Y204728D01*
X21918Y204746D01*
X21904Y204771D01*
X21889Y204797D01*
X21871Y204830D01*
X21842Y204902D01*
X21813Y204986D01*
X21795Y205084D01*
X21788Y205135D01*
Y205226D01*
X21791Y205266D01*
X21798Y205314D01*
X21809Y205372D01*
X21827Y205437D01*
X21849Y205503D01*
X21879Y205568D01*
Y205572D01*
X21882Y205576D01*
X21893Y205598D01*
X21915Y205630D01*
X21940Y205667D01*
X21977Y205710D01*
X22017Y205754D01*
X22064Y205798D01*
X22119Y205834D01*
X22126Y205838D01*
X22144Y205849D01*
X22177Y205863D01*
X22217Y205882D01*
X22264Y205900D01*
X22319Y205914D01*
X22381Y205925D01*
X22443Y205929D01*
X22450D01*
X22472D01*
X22501Y205925D01*
X22541Y205918D01*
X22588Y205907D01*
X22639Y205889D01*
X22690Y205867D01*
X22741Y205838D01*
X22748Y205834D01*
X22763Y205823D01*
X22788Y205801D01*
X22818Y205772D01*
X22850Y205736D01*
X22887Y205692D01*
X22919Y205641D01*
X22952Y205579D01*
Y205583D01*
X22956Y205590D01*
X22960Y205601D01*
X22963Y205616D01*
X22978Y205656D01*
X23000Y205707D01*
X23029Y205765D01*
X23065Y205823D01*
X23112Y205878D01*
X23167Y205929D01*
X23174Y205932D01*
X23196Y205947D01*
X23233Y205969D01*
X23280Y205991D01*
X23338Y206013D01*
X23407Y206034D01*
X23487Y206049D01*
X23575Y206053D01*
X23578D01*
X23589D01*
X23607D01*
X23629Y206049D01*
D02*
G37*
G36*
X23538Y204112D02*
X23560Y204105D01*
X23589Y204094D01*
X23622Y204083D01*
X23662Y204069D01*
X23706Y204050D01*
X23753Y204029D01*
X23855Y203978D01*
X23957Y203912D01*
X24008Y203872D01*
X24059Y203832D01*
X24103Y203788D01*
X24146Y203737D01*
X24150Y203734D01*
X24157Y203727D01*
X24164Y203708D01*
X24179Y203690D01*
X24197Y203661D01*
X24215Y203632D01*
X24234Y203592D01*
X24252Y203552D01*
X24274Y203504D01*
X24292Y203454D01*
X24310Y203399D01*
X24328Y203341D01*
X24343Y203279D01*
X24350Y203213D01*
X24357Y203144D01*
X24361Y203071D01*
Y203031D01*
X24357Y203002D01*
Y202970D01*
X24354Y202929D01*
X24346Y202886D01*
X24339Y202835D01*
X24321Y202729D01*
X24292Y202620D01*
X24252Y202511D01*
X24226Y202460D01*
X24197Y202409D01*
X24193Y202405D01*
X24190Y202398D01*
X24179Y202383D01*
X24164Y202369D01*
X24150Y202347D01*
X24128Y202322D01*
X24103Y202292D01*
X24073Y202263D01*
X24041Y202234D01*
X24008Y202201D01*
X23924Y202136D01*
X23826Y202074D01*
X23717Y202019D01*
X23713D01*
X23702Y202012D01*
X23684Y202009D01*
X23662Y201998D01*
X23633Y201990D01*
X23596Y201979D01*
X23557Y201965D01*
X23513Y201954D01*
X23465Y201943D01*
X23411Y201928D01*
X23298Y201910D01*
X23171Y201896D01*
X23040Y201888D01*
X23036D01*
X23021D01*
X23000D01*
X22974Y201892D01*
X22938D01*
X22901Y201896D01*
X22854Y201899D01*
X22807Y201907D01*
X22701Y201925D01*
X22585Y201950D01*
X22468Y201987D01*
X22355Y202038D01*
X22352Y202041D01*
X22341Y202045D01*
X22326Y202052D01*
X22308Y202067D01*
X22283Y202081D01*
X22253Y202099D01*
X22188Y202147D01*
X22115Y202209D01*
X22042Y202281D01*
X21970Y202365D01*
X21908Y202464D01*
X21904Y202467D01*
X21900Y202478D01*
X21893Y202493D01*
X21882Y202511D01*
X21871Y202540D01*
X21860Y202569D01*
X21846Y202606D01*
X21831Y202645D01*
X21817Y202689D01*
X21802Y202736D01*
X21780Y202838D01*
X21762Y202955D01*
X21755Y203075D01*
Y203111D01*
X21758Y203137D01*
X21762Y203170D01*
X21766Y203210D01*
X21769Y203250D01*
X21780Y203297D01*
X21802Y203395D01*
X21835Y203504D01*
X21857Y203559D01*
X21882Y203610D01*
X21915Y203661D01*
X21948Y203712D01*
X21951Y203716D01*
X21955Y203723D01*
X21966Y203737D01*
X21984Y203756D01*
X22002Y203774D01*
X22028Y203799D01*
X22057Y203825D01*
X22086Y203854D01*
X22122Y203883D01*
X22166Y203912D01*
X22210Y203945D01*
X22257Y203974D01*
X22312Y204000D01*
X22366Y204029D01*
X22424Y204050D01*
X22490Y204072D01*
X22566Y203745D01*
X22563D01*
X22556Y203741D01*
X22541Y203734D01*
X22523Y203727D01*
X22501Y203719D01*
X22472Y203708D01*
X22413Y203679D01*
X22348Y203643D01*
X22283Y203599D01*
X22221Y203545D01*
X22166Y203486D01*
X22159Y203479D01*
X22144Y203457D01*
X22126Y203421D01*
X22100Y203374D01*
X22079Y203312D01*
X22057Y203242D01*
X22042Y203159D01*
X22039Y203068D01*
Y203039D01*
X22042Y203020D01*
Y202995D01*
X22046Y202966D01*
X22057Y202897D01*
X22071Y202820D01*
X22097Y202740D01*
X22133Y202656D01*
X22181Y202580D01*
Y202576D01*
X22188Y202573D01*
X22206Y202547D01*
X22235Y202515D01*
X22279Y202474D01*
X22333Y202427D01*
X22395Y202383D01*
X22472Y202343D01*
X22556Y202307D01*
X22559D01*
X22566Y202303D01*
X22577Y202300D01*
X22595Y202296D01*
X22617Y202289D01*
X22643Y202281D01*
X22705Y202271D01*
X22777Y202256D01*
X22858Y202241D01*
X22945Y202234D01*
X23040Y202231D01*
X23043D01*
X23054D01*
X23072D01*
X23094D01*
X23120Y202234D01*
X23152D01*
X23189Y202238D01*
X23229Y202241D01*
X23316Y202252D01*
X23411Y202271D01*
X23505Y202292D01*
X23600Y202322D01*
X23604D01*
X23611Y202325D01*
X23622Y202332D01*
X23640Y202340D01*
X23684Y202362D01*
X23735Y202394D01*
X23793Y202434D01*
X23855Y202485D01*
X23910Y202544D01*
X23960Y202613D01*
Y202616D01*
X23964Y202624D01*
X23971Y202635D01*
X23979Y202649D01*
X23986Y202667D01*
X23997Y202689D01*
X24019Y202740D01*
X24041Y202806D01*
X24059Y202878D01*
X24073Y202958D01*
X24077Y203042D01*
Y203068D01*
X24073Y203090D01*
Y203115D01*
X24070Y203141D01*
X24055Y203206D01*
X24037Y203282D01*
X24008Y203359D01*
X23968Y203439D01*
X23946Y203479D01*
X23917Y203516D01*
X23913Y203519D01*
X23910Y203523D01*
X23899Y203534D01*
X23888Y203548D01*
X23869Y203563D01*
X23848Y203581D01*
X23826Y203603D01*
X23797Y203621D01*
X23764Y203643D01*
X23728Y203668D01*
X23691Y203690D01*
X23648Y203712D01*
X23600Y203730D01*
X23549Y203748D01*
X23495Y203767D01*
X23436Y203781D01*
X23520Y204116D01*
X23524D01*
X23538Y204112D01*
D02*
G37*
G36*
X103109Y211491D02*
X103142Y211487D01*
X103182Y211484D01*
X103222Y211480D01*
X103270Y211469D01*
X103368Y211447D01*
X103477Y211415D01*
X103532Y211393D01*
X103583Y211367D01*
X103633Y211334D01*
X103684Y211302D01*
X103688Y211298D01*
X103695Y211294D01*
X103710Y211283D01*
X103728Y211265D01*
X103746Y211247D01*
X103772Y211222D01*
X103797Y211192D01*
X103826Y211163D01*
X103856Y211127D01*
X103885Y211083D01*
X103917Y211040D01*
X103947Y210992D01*
X103972Y210938D01*
X104001Y210883D01*
X104023Y210825D01*
X104045Y210759D01*
X103717Y210683D01*
Y210687D01*
X103714Y210694D01*
X103706Y210708D01*
X103699Y210727D01*
X103692Y210748D01*
X103681Y210778D01*
X103652Y210836D01*
X103615Y210901D01*
X103572Y210967D01*
X103517Y211029D01*
X103459Y211083D01*
X103452Y211091D01*
X103430Y211105D01*
X103393Y211123D01*
X103346Y211149D01*
X103284Y211171D01*
X103215Y211192D01*
X103131Y211207D01*
X103040Y211211D01*
X103011D01*
X102993Y211207D01*
X102967D01*
X102938Y211203D01*
X102869Y211192D01*
X102793Y211178D01*
X102713Y211153D01*
X102629Y211116D01*
X102552Y211069D01*
X102549D01*
X102545Y211062D01*
X102520Y211043D01*
X102487Y211014D01*
X102447Y210970D01*
X102400Y210916D01*
X102356Y210854D01*
X102316Y210778D01*
X102279Y210694D01*
Y210690D01*
X102276Y210683D01*
X102272Y210672D01*
X102269Y210654D01*
X102261Y210632D01*
X102254Y210607D01*
X102243Y210545D01*
X102228Y210472D01*
X102214Y210392D01*
X102207Y210304D01*
X102203Y210210D01*
Y210206D01*
Y210195D01*
Y210177D01*
Y210155D01*
X102207Y210130D01*
Y210097D01*
X102210Y210061D01*
X102214Y210020D01*
X102225Y209933D01*
X102243Y209838D01*
X102265Y209744D01*
X102294Y209649D01*
Y209646D01*
X102298Y209638D01*
X102305Y209627D01*
X102312Y209609D01*
X102334Y209565D01*
X102367Y209514D01*
X102407Y209456D01*
X102458Y209394D01*
X102516Y209340D01*
X102585Y209289D01*
X102589D01*
X102596Y209285D01*
X102607Y209278D01*
X102622Y209271D01*
X102640Y209263D01*
X102662Y209252D01*
X102713Y209231D01*
X102778Y209209D01*
X102851Y209191D01*
X102931Y209176D01*
X103015Y209172D01*
X103040D01*
X103062Y209176D01*
X103087D01*
X103113Y209180D01*
X103179Y209194D01*
X103255Y209212D01*
X103331Y209242D01*
X103411Y209281D01*
X103452Y209303D01*
X103488Y209332D01*
X103492Y209336D01*
X103495Y209340D01*
X103506Y209351D01*
X103521Y209362D01*
X103535Y209380D01*
X103553Y209402D01*
X103575Y209423D01*
X103594Y209453D01*
X103615Y209485D01*
X103641Y209522D01*
X103663Y209558D01*
X103684Y209602D01*
X103703Y209649D01*
X103721Y209700D01*
X103739Y209755D01*
X103754Y209813D01*
X104088Y209729D01*
Y209726D01*
X104085Y209711D01*
X104078Y209689D01*
X104067Y209660D01*
X104056Y209627D01*
X104041Y209587D01*
X104023Y209544D01*
X104001Y209496D01*
X103950Y209394D01*
X103885Y209292D01*
X103845Y209242D01*
X103805Y209191D01*
X103761Y209147D01*
X103710Y209103D01*
X103706Y209100D01*
X103699Y209092D01*
X103681Y209085D01*
X103663Y209070D01*
X103633Y209052D01*
X103604Y209034D01*
X103564Y209016D01*
X103524Y208998D01*
X103477Y208976D01*
X103426Y208958D01*
X103371Y208939D01*
X103313Y208921D01*
X103251Y208907D01*
X103186Y208899D01*
X103117Y208892D01*
X103044Y208888D01*
X103004D01*
X102975Y208892D01*
X102942D01*
X102902Y208896D01*
X102858Y208903D01*
X102807Y208910D01*
X102702Y208928D01*
X102593Y208958D01*
X102483Y208998D01*
X102432Y209023D01*
X102381Y209052D01*
X102378Y209056D01*
X102370Y209060D01*
X102356Y209070D01*
X102341Y209085D01*
X102320Y209100D01*
X102294Y209121D01*
X102265Y209147D01*
X102236Y209176D01*
X102207Y209209D01*
X102174Y209242D01*
X102108Y209325D01*
X102047Y209423D01*
X101992Y209533D01*
Y209536D01*
X101985Y209547D01*
X101981Y209565D01*
X101970Y209587D01*
X101963Y209616D01*
X101952Y209653D01*
X101937Y209693D01*
X101926Y209736D01*
X101915Y209784D01*
X101901Y209838D01*
X101883Y209951D01*
X101868Y210079D01*
X101861Y210210D01*
Y210213D01*
Y210228D01*
Y210250D01*
X101865Y210275D01*
Y210312D01*
X101868Y210348D01*
X101872Y210395D01*
X101879Y210443D01*
X101897Y210548D01*
X101923Y210665D01*
X101959Y210781D01*
X102010Y210894D01*
X102014Y210898D01*
X102017Y210909D01*
X102025Y210923D01*
X102039Y210941D01*
X102054Y210967D01*
X102072Y210996D01*
X102119Y211062D01*
X102181Y211134D01*
X102254Y211207D01*
X102338Y211280D01*
X102436Y211342D01*
X102440Y211345D01*
X102451Y211349D01*
X102465Y211356D01*
X102483Y211367D01*
X102512Y211378D01*
X102541Y211389D01*
X102578Y211404D01*
X102618Y211418D01*
X102662Y211433D01*
X102709Y211447D01*
X102811Y211469D01*
X102927Y211487D01*
X103048Y211495D01*
X103084D01*
X103109Y211491D01*
D02*
G37*
G36*
X105268Y211458D02*
X105297Y211455D01*
X105333Y211451D01*
X105373Y211444D01*
X105413Y211436D01*
X105508Y211411D01*
X105603Y211374D01*
X105650Y211353D01*
X105697Y211327D01*
X105741Y211294D01*
X105781Y211258D01*
X105785Y211254D01*
X105792Y211251D01*
X105799Y211236D01*
X105814Y211222D01*
X105832Y211203D01*
X105850Y211178D01*
X105868Y211153D01*
X105890Y211120D01*
X105927Y211051D01*
X105963Y210963D01*
X105978Y210919D01*
X105985Y210869D01*
X105992Y210818D01*
X105996Y210763D01*
Y210756D01*
Y210737D01*
X105992Y210708D01*
X105989Y210668D01*
X105981Y210625D01*
X105967Y210574D01*
X105952Y210519D01*
X105930Y210465D01*
X105927Y210457D01*
X105919Y210439D01*
X105905Y210410D01*
X105883Y210370D01*
X105854Y210326D01*
X105817Y210272D01*
X105774Y210217D01*
X105723Y210155D01*
X105716Y210148D01*
X105697Y210126D01*
X105679Y210108D01*
X105661Y210090D01*
X105639Y210068D01*
X105610Y210039D01*
X105581Y210010D01*
X105544Y209977D01*
X105508Y209940D01*
X105464Y209900D01*
X105417Y209860D01*
X105366Y209813D01*
X105308Y209766D01*
X105250Y209715D01*
X105246Y209711D01*
X105239Y209704D01*
X105224Y209693D01*
X105206Y209678D01*
X105184Y209656D01*
X105159Y209635D01*
X105100Y209587D01*
X105039Y209533D01*
X104980Y209478D01*
X104929Y209431D01*
X104908Y209413D01*
X104889Y209394D01*
X104886Y209391D01*
X104875Y209380D01*
X104860Y209365D01*
X104842Y209343D01*
X104824Y209318D01*
X104802Y209292D01*
X104758Y209231D01*
X106000D01*
Y208932D01*
X104329D01*
Y208936D01*
Y208950D01*
Y208972D01*
X104332Y209001D01*
X104336Y209034D01*
X104343Y209070D01*
X104351Y209107D01*
X104365Y209147D01*
Y209151D01*
X104369Y209154D01*
X104376Y209176D01*
X104391Y209209D01*
X104412Y209252D01*
X104442Y209303D01*
X104478Y209362D01*
X104518Y209420D01*
X104569Y209482D01*
Y209485D01*
X104576Y209489D01*
X104595Y209511D01*
X104627Y209544D01*
X104675Y209591D01*
X104729Y209646D01*
X104798Y209711D01*
X104882Y209784D01*
X104973Y209860D01*
X104977Y209864D01*
X104991Y209875D01*
X105013Y209893D01*
X105039Y209915D01*
X105071Y209944D01*
X105111Y209977D01*
X105151Y210013D01*
X105199Y210053D01*
X105290Y210141D01*
X105381Y210228D01*
X105424Y210272D01*
X105464Y210315D01*
X105501Y210355D01*
X105530Y210395D01*
Y210399D01*
X105537Y210403D01*
X105544Y210414D01*
X105552Y210428D01*
X105577Y210468D01*
X105606Y210515D01*
X105632Y210574D01*
X105657Y210636D01*
X105672Y210705D01*
X105679Y210770D01*
Y210774D01*
Y210778D01*
X105676Y210799D01*
X105672Y210836D01*
X105661Y210876D01*
X105646Y210927D01*
X105621Y210978D01*
X105588Y211029D01*
X105544Y211080D01*
X105537Y211087D01*
X105519Y211102D01*
X105494Y211120D01*
X105454Y211145D01*
X105403Y211167D01*
X105344Y211189D01*
X105275Y211203D01*
X105199Y211207D01*
X105177D01*
X105162Y211203D01*
X105119Y211200D01*
X105068Y211189D01*
X105013Y211174D01*
X104951Y211149D01*
X104893Y211116D01*
X104838Y211072D01*
X104831Y211065D01*
X104816Y211047D01*
X104795Y211018D01*
X104773Y210974D01*
X104747Y210923D01*
X104726Y210858D01*
X104711Y210785D01*
X104704Y210701D01*
X104387Y210734D01*
Y210737D01*
X104391Y210748D01*
Y210767D01*
X104394Y210792D01*
X104402Y210821D01*
X104409Y210854D01*
X104420Y210894D01*
X104431Y210934D01*
X104460Y211021D01*
X104504Y211109D01*
X104529Y211153D01*
X104562Y211196D01*
X104595Y211236D01*
X104631Y211273D01*
X104634Y211276D01*
X104642Y211280D01*
X104653Y211291D01*
X104671Y211302D01*
X104693Y211316D01*
X104718Y211331D01*
X104747Y211349D01*
X104784Y211367D01*
X104824Y211385D01*
X104867Y211404D01*
X104915Y211418D01*
X104966Y211433D01*
X105020Y211444D01*
X105079Y211455D01*
X105140Y211458D01*
X105206Y211462D01*
X105242D01*
X105268Y211458D01*
D02*
G37*
G36*
X105317Y94255D02*
X103348D01*
X103352Y94252D01*
X103366Y94234D01*
X103388Y94212D01*
X103413Y94175D01*
X103446Y94135D01*
X103483Y94084D01*
X103523Y94026D01*
X103563Y93961D01*
Y93957D01*
X103566Y93953D01*
X103581Y93931D01*
X103599Y93895D01*
X103621Y93851D01*
X103647Y93800D01*
X103672Y93746D01*
X103698Y93691D01*
X103719Y93637D01*
X103421D01*
Y93640D01*
X103413Y93647D01*
X103410Y93662D01*
X103399Y93680D01*
X103388Y93702D01*
X103374Y93728D01*
X103337Y93789D01*
X103297Y93862D01*
X103246Y93935D01*
X103188Y94011D01*
X103126Y94088D01*
X103122Y94092D01*
X103119Y94095D01*
X103108Y94106D01*
X103097Y94121D01*
X103060Y94153D01*
X103017Y94197D01*
X102966Y94241D01*
X102908Y94288D01*
X102849Y94328D01*
X102787Y94365D01*
Y94565D01*
X105317D01*
Y94255D01*
D02*
G37*
G36*
X104538Y93112D02*
X104560Y93105D01*
X104589Y93094D01*
X104622Y93083D01*
X104662Y93069D01*
X104706Y93050D01*
X104753Y93029D01*
X104855Y92978D01*
X104957Y92912D01*
X105008Y92872D01*
X105059Y92832D01*
X105103Y92788D01*
X105146Y92738D01*
X105150Y92734D01*
X105157Y92727D01*
X105164Y92708D01*
X105179Y92690D01*
X105197Y92661D01*
X105215Y92632D01*
X105234Y92592D01*
X105252Y92552D01*
X105274Y92505D01*
X105292Y92454D01*
X105310Y92399D01*
X105328Y92341D01*
X105343Y92279D01*
X105350Y92213D01*
X105357Y92144D01*
X105361Y92071D01*
Y92031D01*
X105357Y92002D01*
Y91970D01*
X105354Y91929D01*
X105346Y91886D01*
X105339Y91835D01*
X105321Y91729D01*
X105292Y91620D01*
X105252Y91511D01*
X105226Y91460D01*
X105197Y91409D01*
X105193Y91405D01*
X105190Y91398D01*
X105179Y91383D01*
X105164Y91369D01*
X105150Y91347D01*
X105128Y91322D01*
X105103Y91292D01*
X105073Y91263D01*
X105041Y91234D01*
X105008Y91201D01*
X104924Y91136D01*
X104826Y91074D01*
X104717Y91019D01*
X104713D01*
X104702Y91012D01*
X104684Y91009D01*
X104662Y90998D01*
X104633Y90990D01*
X104596Y90979D01*
X104557Y90965D01*
X104513Y90954D01*
X104465Y90943D01*
X104411Y90928D01*
X104298Y90910D01*
X104171Y90896D01*
X104040Y90888D01*
X104036D01*
X104021D01*
X104000D01*
X103974Y90892D01*
X103938D01*
X103901Y90896D01*
X103854Y90899D01*
X103807Y90907D01*
X103701Y90925D01*
X103585Y90950D01*
X103468Y90987D01*
X103355Y91038D01*
X103352Y91041D01*
X103341Y91045D01*
X103326Y91052D01*
X103308Y91067D01*
X103282Y91081D01*
X103253Y91100D01*
X103188Y91147D01*
X103115Y91209D01*
X103042Y91281D01*
X102970Y91365D01*
X102908Y91464D01*
X102904Y91467D01*
X102900Y91478D01*
X102893Y91493D01*
X102882Y91511D01*
X102871Y91540D01*
X102860Y91569D01*
X102846Y91606D01*
X102831Y91645D01*
X102817Y91689D01*
X102802Y91737D01*
X102780Y91838D01*
X102762Y91955D01*
X102755Y92075D01*
Y92111D01*
X102758Y92137D01*
X102762Y92170D01*
X102766Y92210D01*
X102769Y92250D01*
X102780Y92297D01*
X102802Y92395D01*
X102835Y92505D01*
X102857Y92559D01*
X102882Y92610D01*
X102915Y92661D01*
X102948Y92712D01*
X102951Y92716D01*
X102955Y92723D01*
X102966Y92738D01*
X102984Y92756D01*
X103002Y92774D01*
X103028Y92799D01*
X103057Y92825D01*
X103086Y92854D01*
X103122Y92883D01*
X103166Y92912D01*
X103210Y92945D01*
X103257Y92974D01*
X103312Y93000D01*
X103366Y93029D01*
X103425Y93050D01*
X103490Y93072D01*
X103566Y92745D01*
X103563D01*
X103556Y92741D01*
X103541Y92734D01*
X103523Y92727D01*
X103501Y92719D01*
X103472Y92708D01*
X103413Y92679D01*
X103348Y92643D01*
X103282Y92599D01*
X103221Y92545D01*
X103166Y92486D01*
X103159Y92479D01*
X103144Y92457D01*
X103126Y92421D01*
X103101Y92374D01*
X103079Y92312D01*
X103057Y92242D01*
X103042Y92159D01*
X103039Y92068D01*
Y92039D01*
X103042Y92020D01*
Y91995D01*
X103046Y91966D01*
X103057Y91897D01*
X103071Y91820D01*
X103097Y91740D01*
X103133Y91656D01*
X103181Y91580D01*
Y91576D01*
X103188Y91573D01*
X103206Y91547D01*
X103235Y91514D01*
X103279Y91474D01*
X103333Y91427D01*
X103395Y91383D01*
X103472Y91343D01*
X103556Y91307D01*
X103559D01*
X103566Y91303D01*
X103577Y91300D01*
X103595Y91296D01*
X103617Y91289D01*
X103643Y91281D01*
X103705Y91271D01*
X103778Y91256D01*
X103858Y91242D01*
X103945Y91234D01*
X104040Y91231D01*
X104043D01*
X104054D01*
X104072D01*
X104094D01*
X104120Y91234D01*
X104152D01*
X104189Y91238D01*
X104229Y91242D01*
X104316Y91252D01*
X104411Y91271D01*
X104506Y91292D01*
X104600Y91322D01*
X104604D01*
X104611Y91325D01*
X104622Y91333D01*
X104640Y91340D01*
X104684Y91362D01*
X104735Y91394D01*
X104793Y91434D01*
X104855Y91485D01*
X104910Y91544D01*
X104961Y91613D01*
Y91616D01*
X104964Y91624D01*
X104972Y91635D01*
X104979Y91649D01*
X104986Y91667D01*
X104997Y91689D01*
X105019Y91740D01*
X105041Y91806D01*
X105059Y91878D01*
X105073Y91959D01*
X105077Y92042D01*
Y92068D01*
X105073Y92090D01*
Y92115D01*
X105070Y92141D01*
X105055Y92206D01*
X105037Y92282D01*
X105008Y92359D01*
X104968Y92439D01*
X104946Y92479D01*
X104917Y92515D01*
X104913Y92519D01*
X104910Y92523D01*
X104899Y92534D01*
X104888Y92548D01*
X104869Y92563D01*
X104848Y92581D01*
X104826Y92603D01*
X104797Y92621D01*
X104764Y92643D01*
X104728Y92668D01*
X104691Y92690D01*
X104648Y92712D01*
X104600Y92730D01*
X104549Y92748D01*
X104495Y92767D01*
X104436Y92781D01*
X104520Y93116D01*
X104524D01*
X104538Y93112D01*
D02*
G37*
%LPC*%
G36*
X256347Y124359D02*
X256344D01*
X256340Y124356D01*
X256329Y124352D01*
X256315Y124348D01*
X256296Y124341D01*
X256275Y124334D01*
X256249Y124327D01*
X256220Y124319D01*
X256187Y124308D01*
X256147Y124301D01*
X256107Y124290D01*
X256060Y124279D01*
X256009Y124268D01*
X255958Y124257D01*
X255900Y124250D01*
X255838Y124239D01*
X255831D01*
X255809Y124236D01*
X255772Y124228D01*
X255732Y124221D01*
X255689Y124214D01*
X255645Y124203D01*
X255605Y124192D01*
X255569Y124177D01*
X255565D01*
X255554Y124170D01*
X255539Y124163D01*
X255525Y124152D01*
X255481Y124123D01*
X255445Y124079D01*
Y124075D01*
X255437Y124068D01*
X255434Y124054D01*
X255427Y124035D01*
X255419Y124013D01*
X255412Y123992D01*
X255408Y123963D01*
X255405Y123933D01*
Y123930D01*
Y123912D01*
X255408Y123890D01*
X255416Y123861D01*
X255427Y123828D01*
X255445Y123795D01*
X255467Y123759D01*
X255496Y123726D01*
X255499Y123722D01*
X255514Y123715D01*
X255536Y123700D01*
X255565Y123686D01*
X255605Y123671D01*
X255652Y123657D01*
X255707Y123650D01*
X255772Y123646D01*
X255802D01*
X255838Y123650D01*
X255878Y123657D01*
X255929Y123664D01*
X255980Y123679D01*
X256034Y123697D01*
X256089Y123722D01*
X256096Y123726D01*
X256111Y123737D01*
X256136Y123755D01*
X256166Y123781D01*
X256198Y123810D01*
X256235Y123846D01*
X256264Y123890D01*
X256293Y123937D01*
X256296Y123941D01*
X256300Y123955D01*
X256308Y123981D01*
X256318Y124013D01*
X256329Y124057D01*
X256337Y124108D01*
X256340Y124170D01*
X256344Y124243D01*
X256347Y124359D01*
D02*
G37*
G36*
X236513Y125699D02*
Y125695D01*
X236509Y125688D01*
Y125673D01*
X236502Y125659D01*
X236499Y125633D01*
X236491Y125608D01*
X236477Y125546D01*
X236459Y125473D01*
X236433Y125393D01*
X236408Y125306D01*
X236375Y125215D01*
X236102Y124479D01*
X236954D01*
X236691Y125171D01*
Y125175D01*
X236688Y125186D01*
X236681Y125204D01*
X236673Y125226D01*
X236662Y125251D01*
X236651Y125284D01*
X236641Y125320D01*
X236626Y125357D01*
X236597Y125440D01*
X236568Y125528D01*
X236539Y125615D01*
X236513Y125699D01*
D02*
G37*
G36*
X245741Y125055D02*
X245719D01*
X245701Y125051D01*
X245660Y125047D01*
X245606Y125033D01*
X245544Y125011D01*
X245479Y124982D01*
X245417Y124938D01*
X245384Y124909D01*
X245355Y124880D01*
Y124876D01*
X245347Y124873D01*
X245340Y124862D01*
X245329Y124847D01*
X245318Y124829D01*
X245307Y124807D01*
X245293Y124778D01*
X245278Y124749D01*
X245264Y124712D01*
X245249Y124676D01*
X245238Y124632D01*
X245227Y124585D01*
X245216Y124534D01*
X245209Y124479D01*
X245205Y124418D01*
X245202Y124356D01*
Y124352D01*
Y124341D01*
Y124323D01*
X245205Y124297D01*
Y124268D01*
X245209Y124236D01*
X245220Y124159D01*
X245238Y124072D01*
X245267Y123984D01*
X245304Y123901D01*
X245329Y123864D01*
X245355Y123828D01*
X245358D01*
X245362Y123821D01*
X245384Y123802D01*
X245417Y123773D01*
X245460Y123744D01*
X245515Y123711D01*
X245580Y123682D01*
X245657Y123664D01*
X245697Y123661D01*
X245741Y123657D01*
X245762D01*
X245781Y123661D01*
X245821Y123668D01*
X245875Y123679D01*
X245934Y123700D01*
X245999Y123730D01*
X246061Y123773D01*
X246094Y123802D01*
X246123Y123831D01*
X246126Y123835D01*
X246130Y123839D01*
X246137Y123850D01*
X246148Y123864D01*
X246159Y123882D01*
X246174Y123904D01*
X246188Y123933D01*
X246203Y123963D01*
X246217Y123999D01*
X246228Y124039D01*
X246243Y124083D01*
X246254Y124130D01*
X246265Y124185D01*
X246272Y124239D01*
X246279Y124301D01*
Y124367D01*
Y124370D01*
Y124381D01*
Y124399D01*
X246276Y124421D01*
Y124450D01*
X246272Y124483D01*
X246261Y124559D01*
X246243Y124640D01*
X246214Y124727D01*
X246174Y124807D01*
X246152Y124847D01*
X246123Y124880D01*
Y124883D01*
X246115Y124887D01*
X246094Y124909D01*
X246061Y124934D01*
X246017Y124967D01*
X245963Y125000D01*
X245897Y125029D01*
X245824Y125047D01*
X245784Y125051D01*
X245741Y125055D01*
D02*
G37*
G36*
X178142Y87560D02*
X177349Y86432D01*
X178142D01*
Y87560D01*
D02*
G37*
%LPD*%
D13*
X214505Y102421D02*
Y144547D01*
Y102421D02*
X251525D01*
Y144547D01*
X214505D02*
X251525D01*
X212711Y197656D02*
X219010D01*
Y208121D01*
X212711D02*
X219010D01*
X212711Y197656D02*
Y208121D01*
X169408Y82350D02*
Y88650D01*
Y82350D02*
X179874D01*
Y88650D01*
X169408D02*
X179874D01*
X21211Y196656D02*
X27510D01*
Y207121D01*
X21211D02*
X27510D01*
X21211Y196656D02*
Y207121D01*
X96628Y205739D02*
Y212038D01*
Y205739D02*
X107094D01*
Y212038D01*
X96628D02*
X107094D01*
X102211Y85656D02*
X108510D01*
Y96121D01*
X102211D02*
X108510D01*
X102211Y85656D02*
Y96121D01*
M02*
