G04*
G04 #@! TF.GenerationSoftware,Altium Limited,Altium Designer,22.0.2 (36)*
G04*
G04 Layer_Color=16711935*
%FSLAX25Y25*%
%MOIN*%
G70*
G04*
G04 #@! TF.SameCoordinates,531B55E9-8988-4262-B8BE-2375E0DFDCCA*
G04*
G04*
G04 #@! TF.FilePolarity,Positive*
G04*
G01*
G75*
%ADD12C,0.00500*%
%ADD13C,0.00787*%
%ADD56C,0.00394*%
D12*
X77636Y132207D02*
X76849D01*
X77636D01*
X118051Y49760D02*
Y94642D01*
X136949D01*
Y49760D02*
Y94642D01*
X118051Y49760D02*
X136949D01*
X49345Y100042D02*
X75330D01*
X49345D02*
Y124451D01*
X75330D01*
Y100042D02*
Y124451D01*
X94912Y168329D02*
X113810D01*
X94912Y123448D02*
Y168329D01*
Y123448D02*
X113810D01*
Y168329D01*
D13*
X133314Y252389D02*
X132526D01*
X133314D01*
X224314Y20888D02*
X223526D01*
X224314D01*
X177814Y248389D02*
X177026D01*
X177814D01*
D56*
X147093Y160625D02*
X146829Y161609D01*
X146109Y162329D01*
X145125Y162593D01*
X144140Y162329D01*
X143420Y161609D01*
X143156Y160625D01*
X143420Y159640D01*
X144140Y158920D01*
X145125Y158656D01*
X146109Y158920D01*
X146829Y159640D01*
X147093Y160625D01*
X253331Y209146D02*
Y214854D01*
X244669Y209146D02*
Y214854D01*
Y209146D02*
X253331D01*
X244669Y214854D02*
X253331D01*
X53392Y64424D02*
X79377D01*
X53392Y40014D02*
X79377D01*
Y64424D01*
X53392Y40014D02*
Y64424D01*
X174146Y47169D02*
X179855D01*
X174146Y55831D02*
X179855D01*
X174146Y47169D02*
Y55831D01*
X179855Y47169D02*
Y55831D01*
X55050Y261700D02*
X78672D01*
Y238077D02*
Y261700D01*
X55050Y238077D02*
Y261700D01*
Y238077D02*
X78672D01*
X246507Y180983D02*
X252215D01*
X246507Y189644D02*
X252215D01*
X246507Y180983D02*
Y189644D01*
X252215Y180983D02*
Y189644D01*
X264507Y179983D02*
X270215D01*
X264507Y188644D02*
X270215D01*
X264507Y179983D02*
Y188644D01*
X270215Y179983D02*
Y188644D01*
X130361Y237388D02*
Y257388D01*
X100361Y237388D02*
X130361D01*
X100361D02*
Y257388D01*
X130361D01*
Y237388D02*
Y257388D01*
X100361Y237388D02*
X130361D01*
X100361D02*
Y257388D01*
X221361Y15889D02*
Y25888D01*
X21361Y15889D02*
X221361D01*
X21361D02*
Y25888D01*
X221361D01*
X22506Y157105D02*
X28215D01*
X22506Y165767D02*
X28215D01*
X22506Y157105D02*
Y165767D01*
X28215Y157105D02*
Y165767D01*
X141581Y136609D02*
X169141D01*
X141581Y164168D02*
X169141D01*
Y136609D02*
Y164168D01*
X141581Y136609D02*
Y164168D01*
X174861Y233388D02*
Y253389D01*
X144861Y233388D02*
X174861D01*
X144861D02*
Y253389D01*
X174861D01*
Y233388D02*
Y253389D01*
X144861Y233388D02*
X174861D01*
X144861D02*
Y253389D01*
M02*
