G04*
G04 #@! TF.GenerationSoftware,Altium Limited,Altium Designer,22.0.2 (36)*
G04*
G04 Layer_Color=32768*
%FSLAX25Y25*%
%MOIN*%
G70*
G04*
G04 #@! TF.SameCoordinates,531B55E9-8988-4262-B8BE-2375E0DFDCCA*
G04*
G04*
G04 #@! TF.FilePolarity,Positive*
G04*
G01*
G75*
%ADD56C,0.00394*%
%ADD57C,0.00197*%
D56*
X247031Y212000D02*
X250969D01*
X249000Y210032D02*
Y213968D01*
X66385Y54384D02*
Y58321D01*
X64416Y56353D02*
X68353D01*
X177000Y49531D02*
Y53469D01*
X175032Y51500D02*
X178969D01*
X66861Y247920D02*
Y251857D01*
X64893Y249888D02*
X68830D01*
X249361Y183345D02*
Y187282D01*
X247393Y185314D02*
X251329D01*
X267361Y182345D02*
Y186282D01*
X265392Y184314D02*
X269330D01*
X25361Y159467D02*
Y163404D01*
X23392Y161436D02*
X27329D01*
X155361Y148420D02*
Y152357D01*
X153393Y150389D02*
X157329D01*
D57*
X117067Y48776D02*
X122579D01*
Y41689D02*
Y48776D01*
Y41689D02*
X132421D01*
Y48776D01*
X137933D01*
Y95626D01*
X132421D02*
X137933D01*
X132421D02*
Y102713D01*
X122579D02*
X132421D01*
X122579Y95626D02*
Y102713D01*
X117067Y95626D02*
X122579D01*
X117067Y48776D02*
Y95626D01*
X254315Y208653D02*
Y215347D01*
X243685Y208653D02*
Y215347D01*
Y208653D02*
X254315D01*
X243685Y215347D02*
X254315D01*
X52999Y76825D02*
X79770D01*
X52999Y35881D02*
X79770D01*
Y76825D01*
X52999Y35881D02*
Y76825D01*
X76314Y94609D02*
Y139097D01*
X48361D02*
X76314D01*
X48361Y94609D02*
Y139097D01*
Y94609D02*
X76314D01*
X173654Y46185D02*
X180347D01*
X173654Y56815D02*
X180347D01*
X173654Y46185D02*
Y56815D01*
X180347Y46185D02*
Y56815D01*
X50719Y237684D02*
Y262093D01*
Y237684D02*
X83003D01*
X50719Y262093D02*
X83003D01*
Y237684D02*
Y262093D01*
X246014Y179999D02*
X252707D01*
X246014Y190629D02*
X252707D01*
X246014Y179999D02*
Y190629D01*
X252707Y179999D02*
Y190629D01*
X264015Y178999D02*
X270707D01*
X264015Y189629D02*
X270707D01*
X264015Y178999D02*
Y189629D01*
X270707Y178999D02*
Y189629D01*
X114794Y122463D02*
Y169314D01*
X109282Y122463D02*
X114794D01*
X109282Y115377D02*
Y122463D01*
X99440Y115377D02*
X109282D01*
X99440D02*
Y122463D01*
X93928D02*
X99440D01*
X93928D02*
Y169314D01*
X99440D01*
Y176400D01*
X109282D01*
Y169314D02*
Y176400D01*
Y169314D02*
X114794D01*
X131345Y236404D02*
Y258373D01*
X99377Y236404D02*
X131345D01*
X99377D02*
Y258373D01*
X131345D01*
X222345Y14904D02*
Y26873D01*
X20377Y14904D02*
X222345D01*
X20377D02*
Y26873D01*
X222345D01*
X22015Y156121D02*
X28707D01*
X22015Y166751D02*
X28707D01*
X22015Y156121D02*
Y166751D01*
X28707Y156121D02*
Y166751D01*
X132920Y127947D02*
X177802D01*
X132920Y172829D02*
X177802D01*
Y127947D02*
Y172829D01*
X132920Y127947D02*
Y172829D01*
X175845Y232404D02*
Y254373D01*
X143877Y232404D02*
X175845D01*
X143877D02*
Y254373D01*
X175845D01*
M02*
